  0
SECTION
  2
HEADER
  9
$ANGBASE
  50
0.0
  9
$ANGDIR
  70
1
  9
$MEASUREMENT
  70
1
  0
ENDSEC
  0
SECTION
  2
TABLES
  0
TABLE
  2
LTYPE
  70
4
  0
LTYPE
  5
40F
  2
CONTINUOUS
  70
0
  3
Solid line
  72
65
  73
0
  40
0.0
  0
LTYPE
  5
410
  2
DASHDOT
 70
0
  3
Dash Dot ____ _ ____ _
 72
65
 73
4
 40
2.0
 49
1.25
 49
-0.25
 49
0.25
 49
-0.25
  0
LTYPE
  5
411
  2
DASHED
 70
0
  3
Dashed __ __ __ __ __
 72
65
 73
2
 40
0.75
 49
0.5
 49
-0.25
  0
LTYPE
  5
43B
  2
DOTTED
 70
0
  3
Dotted .  .  .  .
 72
65
 73
2
 40
0.2
 49
0.0
 49
-0.2
  0
ENDTAB
  0
TABLE
  2
STYLE
  70
4
  0
STYLE
  2
KICAD
  70
0
  40
0
  41
1
  42
1
  50
0
  71
0
  3
isocp.shx
  0
STYLE
  2
KICADB
  70
0
  40
0
  41
1
  42
1
  50
0
  71
0
  3
isocp.shx
  0
STYLE
  2
KICADI
  70
0
  40
0
  41
1
  42
1
  50
15
  71
0
  3
isocp.shx
  0
STYLE
  2
KICADBI
  70
0
  40
0
  41
1
  42
1
  50
15
  71
0
  3
isocp.shx
  0
ENDTAB
  0
TABLE
  2
LAYER
  70
1
  0
LAYER
  2
BLACK
  70
0
  62
7
  6
CONTINUOUS
  0
ENDTAB
  0
ENDSEC
  0
SECTION
  2
ENTITIES
0
LINE
8
BLACK
6
CONTINUOUS
10
-10.6
20
-36.6
11
-8.5
21
-36.6
0
LINE
8
BLACK
6
CONTINUOUS
10
-8.5
20
-36.6
11
-8.5
21
-40.3
0
LINE
8
BLACK
6
CONTINUOUS
10
-8.5
20
-40.3
11
-10.6
21
-40.3
0
LINE
8
BLACK
6
CONTINUOUS
10
-10.6
20
-40.3
11
-10.6
21
-36.6
0
LINE
8
BLACK
6
CONTINUOUS
10
8.5
20
-36.7
11
10.6
21
-36.7
0
LINE
8
BLACK
6
CONTINUOUS
10
10.6
20
-36.7
11
10.6
21
-40.3
0
LINE
8
BLACK
6
CONTINUOUS
10
10.6
20
-40.3
11
8.5
21
-40.3
0
LINE
8
BLACK
6
CONTINUOUS
10
8.5
20
-40.3
11
8.5
21
-36.7
0
LINE
8
BLACK
6
CONTINUOUS
10
20
20
-11.3
11
23.2
21
-11.3
0
LINE
8
BLACK
6
CONTINUOUS
10
23.2
20
-11.3
11
23.2
21
-28.8
0
LINE
8
BLACK
6
CONTINUOUS
10
23.2
20
-28.8
11
20
21
-28.8
0
LINE
8
BLACK
6
CONTINUOUS
10
20
20
-28.8
11
20
21
-11.3
0
LINE
8
BLACK
6
CONTINUOUS
10
3.8
20
-11.3
11
7
21
-11.3
0
LINE
8
BLACK
6
CONTINUOUS
10
7
20
-11.3
11
7
21
-28.8
0
LINE
8
BLACK
6
CONTINUOUS
10
7
20
-28.8
11
3.8
21
-28.8
0
LINE
8
BLACK
6
CONTINUOUS
10
3.8
20
-28.8
11
3.8
21
-11.3
0
LINE
8
BLACK
6
CONTINUOUS
10
-7
20
-11.3
11
-3.8
21
-11.3
0
LINE
8
BLACK
6
CONTINUOUS
10
-3.8
20
-11.3
11
-3.8
21
-28.8
0
LINE
8
BLACK
6
CONTINUOUS
10
-3.8
20
-28.8
11
-7
21
-28.8
0
LINE
8
BLACK
6
CONTINUOUS
10
-7
20
-28.8
11
-7
21
-11.3
0
LINE
8
BLACK
6
CONTINUOUS
10
-23.1
20
-11.3
11
-20.1
21
-11.3
0
LINE
8
BLACK
6
CONTINUOUS
10
-20.1
20
-11.3
11
-20.1
21
-28.7
0
LINE
8
BLACK
6
CONTINUOUS
10
-20.1
20
-28.7
11
-23.1
21
-28.7
0
LINE
8
BLACK
6
CONTINUOUS
10
-23.1
20
-28.7
11
-23.1
21
-11.3
0
LINE
8
BLACK
6
CONTINUOUS
10
-81
20
-1.5
11
-81
21
-2.5
0
LINE
8
BLACK
6
CONTINUOUS
10
43.5
20
-4.5
11
59.5
21
-4.5
0
LINE
8
BLACK
6
CONTINUOUS
10
3
20
-71.5
11
16.451
21
-94.951
0
ARC
8
BLACK
10
-43.5
20
-6.125
40
1.625
50
22.6199
51
90
0
LINE
8
BLACK
6
CONTINUOUS
10
-16.451
20
-94.951
11
-3
21
-71.5
0
LINE
8
BLACK
6
CONTINUOUS
10
-3
20
-15.25
11
3
21
-15.25
0
ARC
8
BLACK
10
59.5
20
-3
40
1.5
50
-90
51
-0
0
LINE
8
BLACK
6
CONTINUOUS
10
-116.8
20
-74.6
11
-98.5
21
-73
0
LINE
8
BLACK
6
CONTINUOUS
10
-101.574
20
-14.9002
11
-121.636
21
-16.5998
0
LINE
8
BLACK
6
CONTINUOUS
10
-3
20
-20.5
11
3
21
-20.5
0
ARC
8
BLACK
10
-24.5
20
-8.025
40
1.525
50
10.3889
51
90
0
ARC
8
BLACK
10
-123.624
20
-28.8051
40
1.49992
50
-85.003
51
5.00081
0
ARC
8
BLACK
10
123.624
20
-28.805
40
1.50009
50
-184.997
51
-95.0005
0
ARC
8
BLACK
10
119.869
20
-70.9943
40
1.50003
50
85.0013
51
175
0
LINE
8
BLACK
6
CONTINUOUS
10
81
20
-2.5
11
81
21
-1.5
0
LINE
8
BLACK
6
CONTINUOUS
10
-4.5
20
-9
11
-21.5
21
-9
0
ARC
8
BLACK
10
4.5
20
-10.5
40
1.5
50
90
51
180
0
LINE
8
BLACK
6
CONTINUOUS
10
-3
20
-68
11
3
21
-68
0
ARC
8
BLACK
10
-101.652
20
-13.25
40
1.652
50
-87.3009
51
-0
0
ARC
8
BLACK
10
136.131
20
-69.4509
40
1.49993
50
-95.0025
51
-5.00017
0
LINE
8
BLACK
6
CONTINUOUS
10
3
20
-20.5
11
3
21
-62.75
0
LINE
8
BLACK
6
CONTINUOUS
10
-62.5
20
0
11
-79.5
21
0
0
LINE
8
BLACK
6
CONTINUOUS
10
-140.845
20
-33.4
11
-137.625
21
-69.5816
0
ARC
8
BLACK
10
24.5
20
-8.025
40
1.525
50
90
51
169.611
0
LINE
8
BLACK
6
CONTINUOUS
10
-52.5
20
-81.5
11
-71.5
21
-81.5
0
ARC
8
BLACK
10
-4.5
20
-10.5
40
1.5
50
-0
51
90
0
LINE
8
BLACK
6
CONTINUOUS
10
61
20
-1.5
11
61
21
-3
0
LINE
8
BLACK
6
CONTINUOUS
10
-40.5
20
-6.5
11
-24.5
21
-6.5
0
LINE
8
BLACK
6
CONTINUOUS
10
-3
20
-15.25
11
-3
21
-10.5
0
LINE
8
BLACK
6
CONTINUOUS
10
120
20
-69.5
11
136
21
-70.9452
0
LINE
8
BLACK
6
CONTINUOUS
10
-3
20
-71.5
11
-3
21
-68
0
ARC
8
BLACK
10
101.652
20
-13.25
40
1.65206
50
-180
51
-92.6991
0
LINE
8
BLACK
6
CONTINUOUS
10
34
20
-86.5
11
18.5
21
-95.5
0
LINE
8
BLACK
6
CONTINUOUS
10
-61
20
-3
11
-61
21
-1.5
0
LINE
8
BLACK
6
CONTINUOUS
10
-3
20
-62.75
11
3
21
-62.75
0
ARC
8
BLACK
10
82.5
20
-2.5
40
1.5
50
-180
51
-90
0
ARC
8
BLACK
10
21.5
20
-7.475
40
1.525
50
-90
51
-10.3889
0
LINE
8
BLACK
6
CONTINUOUS
10
139.482
20
-31.775
11
123.493
21
-30.2994
0
ARC
8
BLACK
10
43.5
20
-6.125
40
1.625
50
90
51
157.38
0
LINE
8
BLACK
6
CONTINUOUS
10
-3
20
-20.5
11
-3
21
-62.75
0
LINE
8
BLACK
6
CONTINUOUS
10
3
20
-71.5
11
3
21
-68
0
ARC
8
BLACK
10
62.5
20
-1.5
40
1.5
50
90
51
180
0
ARC
8
BLACK
10
79.5
20
-1.5
40
1.5
50
-0
51
90
0
LINE
8
BLACK
6
CONTINUOUS
10
-98.5
20
-73
11
-71.5
21
-81.5
0
LINE
8
BLACK
6
CONTINUOUS
10
-98.5
20
-4
11
-82.5
21
-4
0
ARC
8
BLACK
10
-116.751
20
-73.1431
40
1.45773
50
-173.821
51
-91.9342
0
ARC
8
BLACK
10
-62.5
20
-1.5
40
1.5
50
-0
51
90
0
LINE
8
BLACK
6
CONTINUOUS
10
71.5
20
-81.5
11
98.5
21
-73
0
ARC
8
BLACK
10
-121.506
20
-18.0941
40
1.5001
50
-264.996
51
-175.002
0
ARC
8
BLACK
10
-98.5
20
-5.5
40
1.5
50
90
51
180
0
ARC
8
BLACK
10
40.5
20
-4.875
40
1.625
50
-90
51
-22.6199
0
LINE
8
BLACK
6
CONTINUOUS
10
-123.493
20
-30.2994
11
-139.482
21
-31.775
0
ARC
8
BLACK
10
98.5
20
-5.5
40
1.5
50
-0
51
90
0
LINE
8
BLACK
6
CONTINUOUS
10
21.5
20
-9
11
4.5
21
-9
0
LINE
8
BLACK
6
CONTINUOUS
10
52.5
20
-81.5
11
71.5
21
-81.5
0
LINE
8
BLACK
6
CONTINUOUS
10
118.2
20
-73.3
11
118.375
21
-70.8636
0
LINE
8
BLACK
6
CONTINUOUS
10
-123
20
-18.2248
11
-122.13
21
-28.6744
0
LINE
8
BLACK
6
CONTINUOUS
10
98.5
20
-73
11
116.8
21
-74.6
0
ARC
8
BLACK
10
-59.5
20
-3
40
1.5
50
-180
51
-90
0
LINE
8
BLACK
6
CONTINUOUS
10
121.636
20
-16.5998
11
101.574
21
-14.9002
0
ARC
8
BLACK
10
-21.5
20
-7.475
40
1.525
50
-169.611
51
-90
0
ARC
8
BLACK
10
-17.75
20
-94.201
40
1.49998
50
-120.001
51
-29.9987
0
ARC
8
BLACK
10
-119.869
20
-70.9944
40
1.5001
50
5.00405
51
94.9984
0
ARC
8
BLACK
10
-82.5
20
-2.5
40
1.5
50
-90
51
-0
0
ARC
8
BLACK
10
17.75
20
-94.201
40
1.49997
50
-150.001
51
-59.9993
0
ARC
8
BLACK
10
-79.5
20
-1.5
40
1.5
50
90
51
180
0
LINE
8
BLACK
6
CONTINUOUS
10
-118.375
20
-70.8636
11
-118.2
21
-73.3
0
LINE
8
BLACK
6
CONTINUOUS
10
34
20
-86.5
11
52.5
21
-81.5
0
ARC
8
BLACK
10
-136.131
20
-69.451
40
1.4999
50
-175.004
51
-84.9971
0
LINE
8
BLACK
6
CONTINUOUS
10
-136
20
-70.9452
11
-120
21
-69.5
0
LINE
8
BLACK
6
CONTINUOUS
10
137.625
20
-69.5816
11
140.845
21
-33.4
0
LINE
8
BLACK
6
CONTINUOUS
10
-59.5
20
-4.5
11
-43.5
21
-4.5
0
LINE
8
BLACK
6
CONTINUOUS
10
82.5
20
-4
11
98.5
21
-4
0
LINE
8
BLACK
6
CONTINUOUS
10
100
20
-13.25
11
100
21
-5.5
0
LINE
8
BLACK
6
CONTINUOUS
10
3
20
-10.5
11
3
21
-15.25
0
ARC
8
BLACK
10
-139.351
20
-33.2693
40
1.50003
50
-264.999
51
-175.001
0
LINE
8
BLACK
6
CONTINUOUS
10
-18.5
20
-95.5
11
-34
21
-86.5
0
ARC
8
BLACK
10
-40.5
20
-4.875
40
1.625
50
-157.38
51
-90
0
LINE
8
BLACK
6
CONTINUOUS
10
122.13
20
-28.6744
11
123
21
-18.2248
0
LINE
8
BLACK
6
CONTINUOUS
10
-100
20
-5.5
11
-100
21
-13.25
0
ARC
8
BLACK
10
139.351
20
-33.2693
40
1.50004
50
-4.99861
51
84.9988
0
ARC
8
BLACK
10
121.506
20
-18.0941
40
1.50005
50
-4.99813
51
84.996
0
LINE
8
BLACK
6
CONTINUOUS
10
79.5
20
0
11
62.5
21
0
0
LINE
8
BLACK
6
CONTINUOUS
10
24.5
20
-6.5
11
40.5
21
-6.5
0
LINE
8
BLACK
6
CONTINUOUS
10
-52.5
20
-81.5
11
-34
21
-86.5
0
ARC
8
BLACK
10
116.751
20
-73.1431
40
1.45767
50
-88.0658
51
-6.17915
0
LINE
8
BLACK
6
CONTINUOUS
10
-13.6
20
-45.45
11
-12.4
21
-45.45
0
LINE
8
BLACK
6
CONTINUOUS
10
-13.6
20
-47.85
11
-12.4
21
-47.85
0
LINE
8
BLACK
6
CONTINUOUS
10
-13.6
20
-56.65
11
-12.4
21
-56.65
0
LINE
8
BLACK
6
CONTINUOUS
10
-13.6
20
-59.05
11
-12.4
21
-59.05
0
LINE
8
BLACK
6
CONTINUOUS
10
-21.75
20
-48.5
11
-19.25
21
-48.5
0
LINE
8
BLACK
6
CONTINUOUS
10
-19.25
20
-48.5
11
-19.25
21
-56
0
LINE
8
BLACK
6
CONTINUOUS
10
-19.25
20
-56
11
-21.75
21
-56
0
LINE
8
BLACK
6
CONTINUOUS
10
-21.75
20
-56
11
-21.75
21
-48.5
0
ARC
8
BLACK
10
-13.6
20
-46.65
40
1.2
50
-270
51
-90
0
ARC
8
BLACK
10
-13.6
20
-57.85
40
1.2
50
-270
51
-90
0
ARC
8
BLACK
10
-12.4
20
-46.65
40
1.2
50
-90
51
90
0
ARC
8
BLACK
10
-12.4
20
-57.85
40
1.2
50
-90
51
90
0
CIRCLE
8
BLACK
10
-6
20
-49.75
40
1.25
0
CIRCLE
8
BLACK
10
-6
20
-54.75
40
1.25
0
LINE
8
BLACK
6
CONTINUOUS
10
13.6
20
-59.05
11
12.4
21
-59.05
0
LINE
8
BLACK
6
CONTINUOUS
10
13.6
20
-56.65
11
12.4
21
-56.65
0
LINE
8
BLACK
6
CONTINUOUS
10
13.6
20
-47.85
11
12.4
21
-47.85
0
LINE
8
BLACK
6
CONTINUOUS
10
13.6
20
-45.45
11
12.4
21
-45.45
0
LINE
8
BLACK
6
CONTINUOUS
10
21.75
20
-56
11
19.25
21
-56
0
LINE
8
BLACK
6
CONTINUOUS
10
19.25
20
-56
11
19.25
21
-48.5
0
LINE
8
BLACK
6
CONTINUOUS
10
19.25
20
-48.5
11
21.75
21
-48.5
0
LINE
8
BLACK
6
CONTINUOUS
10
21.75
20
-48.5
11
21.75
21
-56
0
ARC
8
BLACK
10
13.6
20
-57.85
40
1.2
50
-90
51
90
0
ARC
8
BLACK
10
13.6
20
-46.65
40
1.2
50
-90
51
90
0
ARC
8
BLACK
10
12.4
20
-57.85
40
1.2
50
-270
51
-90
0
ARC
8
BLACK
10
12.4
20
-46.65
40
1.2
50
-270
51
-90
0
CIRCLE
8
BLACK
10
6
20
-54.75
40
1.25
0
CIRCLE
8
BLACK
10
6
20
-49.75
40
1.25
0
LINE
8
BLACK
6
CONTINUOUS
10
-49
20
-58.9483
11
-55
21
-58.9483
0
LINE
8
BLACK
6
CONTINUOUS
10
-55
20
-58.9483
11
-55
21
-62.1483
0
LINE
8
BLACK
6
CONTINUOUS
10
-55
20
-62.1483
11
-49
21
-62.1483
0
LINE
8
BLACK
6
CONTINUOUS
10
-49
20
-62.1483
11
-49
21
-58.9483
0
LINE
8
BLACK
6
CONTINUOUS
10
-87
20
-39.4
11
-93
21
-39.4
0
LINE
8
BLACK
6
CONTINUOUS
10
-93
20
-39.4
11
-93
21
-42.6
0
LINE
8
BLACK
6
CONTINUOUS
10
-93
20
-42.6
11
-87
21
-42.6
0
LINE
8
BLACK
6
CONTINUOUS
10
-87
20
-42.6
11
-87
21
-39.4
0
LINE
8
BLACK
6
CONTINUOUS
10
55
20
-20.9
11
49
21
-20.9
0
LINE
8
BLACK
6
CONTINUOUS
10
49
20
-20.9
11
49
21
-24.1
0
LINE
8
BLACK
6
CONTINUOUS
10
49
20
-24.1
11
55
21
-24.1
0
LINE
8
BLACK
6
CONTINUOUS
10
55
20
-24.1
11
55
21
-20.9
0
LINE
8
BLACK
6
CONTINUOUS
10
132.255
20
-50.049
11
126.278
21
-49.526
0
LINE
8
BLACK
6
CONTINUOUS
10
126.278
20
-49.526
11
125.999
21
-52.7138
0
LINE
8
BLACK
6
CONTINUOUS
10
125.999
20
-52.7138
11
131.976
21
-53.2368
0
LINE
8
BLACK
6
CONTINUOUS
10
131.976
20
-53.2368
11
132.255
21
-50.049
0
LINE
8
BLACK
6
CONTINUOUS
10
36
20
-22.9
11
30
21
-22.9
0
LINE
8
BLACK
6
CONTINUOUS
10
30
20
-22.9
11
30
21
-26.1
0
LINE
8
BLACK
6
CONTINUOUS
10
30
20
-26.1
11
36
21
-26.1
0
LINE
8
BLACK
6
CONTINUOUS
10
36
20
-26.1
11
36
21
-22.9
0
LINE
8
BLACK
6
CONTINUOUS
10
74
20
-16.4
11
68
21
-16.4
0
LINE
8
BLACK
6
CONTINUOUS
10
68
20
-16.4
11
68
21
-19.6
0
LINE
8
BLACK
6
CONTINUOUS
10
68
20
-19.6
11
74
21
-19.6
0
LINE
8
BLACK
6
CONTINUOUS
10
74
20
-19.6
11
74
21
-16.4
0
LINE
8
BLACK
6
CONTINUOUS
10
-20.4
20
-61.8
11
-17.2
21
-61.8
0
LINE
8
BLACK
6
CONTINUOUS
10
-17.2
20
-61.8
11
-17.2
21
-67.8
0
LINE
8
BLACK
6
CONTINUOUS
10
-17.2
20
-67.8
11
-20.4
21
-67.8
0
LINE
8
BLACK
6
CONTINUOUS
10
-20.4
20
-67.8
11
-20.4
21
-61.8
0
LINE
8
BLACK
6
CONTINUOUS
10
74
20
-35.4
11
68
21
-35.4
0
LINE
8
BLACK
6
CONTINUOUS
10
68
20
-35.4
11
68
21
-38.6
0
LINE
8
BLACK
6
CONTINUOUS
10
68
20
-38.6
11
74
21
-38.6
0
LINE
8
BLACK
6
CONTINUOUS
10
74
20
-38.6
11
74
21
-35.4
0
LINE
8
BLACK
6
CONTINUOUS
10
46
20
-62.4
11
40
21
-62.4
0
LINE
8
BLACK
6
CONTINUOUS
10
40
20
-62.4
11
40
21
-65.6
0
LINE
8
BLACK
6
CONTINUOUS
10
40
20
-65.6
11
46
21
-65.6
0
LINE
8
BLACK
6
CONTINUOUS
10
46
20
-65.6
11
46
21
-62.4
0
LINE
8
BLACK
6
CONTINUOUS
10
-107.098
20
-50.9419
11
-113.075
21
-51.4648
0
LINE
8
BLACK
6
CONTINUOUS
10
-113.075
20
-51.4648
11
-112.796
21
-54.6526
0
LINE
8
BLACK
6
CONTINUOUS
10
-112.796
20
-54.6526
11
-106.819
21
-54.1297
0
LINE
8
BLACK
6
CONTINUOUS
10
-106.819
20
-54.1297
11
-107.098
21
-50.9419
0
LINE
8
BLACK
6
CONTINUOUS
10
55
20
-58.9
11
49
21
-58.9
0
LINE
8
BLACK
6
CONTINUOUS
10
49
20
-58.9
11
49
21
-62.1
0
LINE
8
BLACK
6
CONTINUOUS
10
49
20
-62.1
11
55
21
-62.1
0
LINE
8
BLACK
6
CONTINUOUS
10
55
20
-62.1
11
55
21
-58.9
0
LINE
8
BLACK
6
CONTINUOUS
10
55
20
-39.9
11
49
21
-39.9
0
LINE
8
BLACK
6
CONTINUOUS
10
49
20
-39.9
11
49
21
-43.1
0
LINE
8
BLACK
6
CONTINUOUS
10
49
20
-43.1
11
55
21
-43.1
0
LINE
8
BLACK
6
CONTINUOUS
10
55
20
-43.1
11
55
21
-39.9
0
LINE
8
BLACK
6
CONTINUOUS
10
-30
20
-60.9
11
-36
21
-60.9
0
LINE
8
BLACK
6
CONTINUOUS
10
-36
20
-60.9
11
-36
21
-64.1
0
LINE
8
BLACK
6
CONTINUOUS
10
-36
20
-64.1
11
-30
21
-64.1
0
LINE
8
BLACK
6
CONTINUOUS
10
-30
20
-64.1
11
-30
21
-60.9
0
LINE
8
BLACK
6
CONTINUOUS
10
36
20
-60.9
11
30
21
-60.9
0
LINE
8
BLACK
6
CONTINUOUS
10
30
20
-60.9
11
30
21
-64.1
0
LINE
8
BLACK
6
CONTINUOUS
10
30
20
-64.1
11
36
21
-64.1
0
LINE
8
BLACK
6
CONTINUOUS
10
36
20
-64.1
11
36
21
-60.9
0
LINE
8
BLACK
6
CONTINUOUS
10
132.473
20
-47.6676
11
126.496
21
-47.1446
0
LINE
8
BLACK
6
CONTINUOUS
10
126.496
20
-47.1446
11
126.217
21
-50.3324
0
LINE
8
BLACK
6
CONTINUOUS
10
126.217
20
-50.3324
11
132.194
21
-50.8554
0
LINE
8
BLACK
6
CONTINUOUS
10
132.194
20
-50.8554
11
132.473
21
-47.6676
0
LINE
8
BLACK
6
CONTINUOUS
10
-68
20
-35.4
11
-74
21
-35.4
0
LINE
8
BLACK
6
CONTINUOUS
10
-74
20
-35.4
11
-74
21
-38.6
0
LINE
8
BLACK
6
CONTINUOUS
10
-74
20
-38.6
11
-68
21
-38.6
0
LINE
8
BLACK
6
CONTINUOUS
10
-68
20
-38.6
11
-68
21
-35.4
0
LINE
8
BLACK
6
CONTINUOUS
10
-126.151
20
-49.7446
11
-132.128
21
-50.2676
0
LINE
8
BLACK
6
CONTINUOUS
10
-132.128
20
-50.2676
11
-131.849
21
-53.4554
0
LINE
8
BLACK
6
CONTINUOUS
10
-131.849
20
-53.4554
11
-125.872
21
-52.9324
0
LINE
8
BLACK
6
CONTINUOUS
10
-125.872
20
-52.9324
11
-126.151
21
-49.7446
0
LINE
8
BLACK
6
CONTINUOUS
10
112.946
20
-51.4176
11
106.969
21
-50.8946
0
LINE
8
BLACK
6
CONTINUOUS
10
106.969
20
-50.8946
11
106.69
21
-54.0824
0
LINE
8
BLACK
6
CONTINUOUS
10
106.69
20
-54.0824
11
112.667
21
-54.6054
0
LINE
8
BLACK
6
CONTINUOUS
10
112.667
20
-54.6054
11
112.946
21
-51.4176
0
LINE
8
BLACK
6
CONTINUOUS
10
-30
20
-41.9
11
-36
21
-41.9
0
LINE
8
BLACK
6
CONTINUOUS
10
-36
20
-41.9
11
-36
21
-45.1
0
LINE
8
BLACK
6
CONTINUOUS
10
-36
20
-45.1
11
-30
21
-45.1
0
LINE
8
BLACK
6
CONTINUOUS
10
-30
20
-45.1
11
-30
21
-41.9
0
LINE
8
BLACK
6
CONTINUOUS
10
93
20
-39.4
11
87
21
-39.4
0
LINE
8
BLACK
6
CONTINUOUS
10
87
20
-39.4
11
87
21
-42.6
0
LINE
8
BLACK
6
CONTINUOUS
10
87
20
-42.6
11
93
21
-42.6
0
LINE
8
BLACK
6
CONTINUOUS
10
93
20
-42.6
11
93
21
-39.4
0
LINE
8
BLACK
6
CONTINUOUS
10
-68
20
-16.4
11
-74
21
-16.4
0
LINE
8
BLACK
6
CONTINUOUS
10
-74
20
-16.4
11
-74
21
-19.6
0
LINE
8
BLACK
6
CONTINUOUS
10
-74
20
-19.6
11
-68
21
-19.6
0
LINE
8
BLACK
6
CONTINUOUS
10
-68
20
-19.6
11
-68
21
-16.4
0
LINE
8
BLACK
6
CONTINUOUS
10
-68
20
-54.4
11
-74
21
-54.4
0
LINE
8
BLACK
6
CONTINUOUS
10
-74
20
-54.4
11
-74
21
-57.6
0
LINE
8
BLACK
6
CONTINUOUS
10
-74
20
-57.6
11
-68
21
-57.6
0
LINE
8
BLACK
6
CONTINUOUS
10
-68
20
-57.6
11
-68
21
-54.4
0
LINE
8
BLACK
6
CONTINUOUS
10
65
20
-61.4
11
59
21
-61.4
0
LINE
8
BLACK
6
CONTINUOUS
10
59
20
-61.4
11
59
21
-64.6
0
LINE
8
BLACK
6
CONTINUOUS
10
59
20
-64.6
11
65
21
-64.6
0
LINE
8
BLACK
6
CONTINUOUS
10
65
20
-64.6
11
65
21
-61.4
0
LINE
8
BLACK
6
CONTINUOUS
10
-49
20
-20.9483
11
-55
21
-20.9483
0
LINE
8
BLACK
6
CONTINUOUS
10
-55
20
-20.9483
11
-55
21
-24.1483
0
LINE
8
BLACK
6
CONTINUOUS
10
-55
20
-24.1483
11
-49
21
-24.1483
0
LINE
8
BLACK
6
CONTINUOUS
10
-49
20
-24.1483
11
-49
21
-20.9483
0
LINE
8
BLACK
6
CONTINUOUS
10
36
20
-41.9
11
30
21
-41.9
0
LINE
8
BLACK
6
CONTINUOUS
10
30
20
-41.9
11
30
21
-45.1
0
LINE
8
BLACK
6
CONTINUOUS
10
30
20
-45.1
11
36
21
-45.1
0
LINE
8
BLACK
6
CONTINUOUS
10
36
20
-45.1
11
36
21
-41.9
0
LINE
8
BLACK
6
CONTINUOUS
10
-49
20
-39.9483
11
-55
21
-39.9483
0
LINE
8
BLACK
6
CONTINUOUS
10
-55
20
-39.9483
11
-55
21
-43.1483
0
LINE
8
BLACK
6
CONTINUOUS
10
-55
20
-43.1483
11
-49
21
-43.1483
0
LINE
8
BLACK
6
CONTINUOUS
10
-49
20
-43.1483
11
-49
21
-39.9483
0
LINE
8
BLACK
6
CONTINUOUS
10
-30
20
-22.9
11
-36
21
-22.9
0
LINE
8
BLACK
6
CONTINUOUS
10
-36
20
-22.9
11
-36
21
-26.1
0
LINE
8
BLACK
6
CONTINUOUS
10
-36
20
-26.1
11
-30
21
-26.1
0
LINE
8
BLACK
6
CONTINUOUS
10
-30
20
-26.1
11
-30
21
-22.9
0
LINE
8
BLACK
6
CONTINUOUS
10
-87
20
-58.4
11
-93
21
-58.4
0
LINE
8
BLACK
6
CONTINUOUS
10
-93
20
-58.4
11
-93
21
-61.6
0
LINE
8
BLACK
6
CONTINUOUS
10
-93
20
-61.6
11
-87
21
-61.6
0
LINE
8
BLACK
6
CONTINUOUS
10
-87
20
-61.6
11
-87
21
-58.4
0
LINE
8
BLACK
6
CONTINUOUS
10
-106.88
20
-53.4324
11
-112.857
21
-53.9553
0
LINE
8
BLACK
6
CONTINUOUS
10
-112.857
20
-53.9553
11
-112.578
21
-57.1431
0
LINE
8
BLACK
6
CONTINUOUS
10
-112.578
20
-57.1431
11
-106.601
21
-56.6202
0
LINE
8
BLACK
6
CONTINUOUS
10
-106.601
20
-56.6202
11
-106.88
21
-53.4324
0
LINE
8
BLACK
6
CONTINUOUS
10
-108.754
20
-32.0142
11
-114.731
21
-32.5371
0
LINE
8
BLACK
6
CONTINUOUS
10
-114.731
20
-32.5371
11
-114.452
21
-35.7249
0
LINE
8
BLACK
6
CONTINUOUS
10
-114.452
20
-35.7249
11
-108.475
21
-35.202
0
LINE
8
BLACK
6
CONTINUOUS
10
-108.475
20
-35.202
11
-108.754
21
-32.0142
0
LINE
8
BLACK
6
CONTINUOUS
10
93
20
-20.4
11
87
21
-20.4
0
LINE
8
BLACK
6
CONTINUOUS
10
87
20
-20.4
11
87
21
-23.6
0
LINE
8
BLACK
6
CONTINUOUS
10
87
20
-23.6
11
93
21
-23.6
0
LINE
8
BLACK
6
CONTINUOUS
10
93
20
-23.6
11
93
21
-20.4
0
LINE
8
BLACK
6
CONTINUOUS
10
-40
20
-62.4
11
-46
21
-62.4
0
LINE
8
BLACK
6
CONTINUOUS
10
-46
20
-62.4
11
-46
21
-65.6
0
LINE
8
BLACK
6
CONTINUOUS
10
-46
20
-65.6
11
-40
21
-65.6
0
LINE
8
BLACK
6
CONTINUOUS
10
-40
20
-65.6
11
-40
21
-62.4
0
LINE
8
BLACK
6
CONTINUOUS
10
17.2
20
-61.8
11
20.4
21
-61.8
0
LINE
8
BLACK
6
CONTINUOUS
10
20.4
20
-61.8
11
20.4
21
-67.8
0
LINE
8
BLACK
6
CONTINUOUS
10
20.4
20
-67.8
11
17.2
21
-67.8
0
LINE
8
BLACK
6
CONTINUOUS
10
17.2
20
-67.8
11
17.2
21
-61.8
0
LINE
8
BLACK
6
CONTINUOUS
10
112.728
20
-54.058
11
106.751
21
-53.5351
0
LINE
8
BLACK
6
CONTINUOUS
10
106.751
20
-53.5351
11
106.472
21
-56.7229
0
LINE
8
BLACK
6
CONTINUOUS
10
106.472
20
-56.7229
11
112.449
21
-57.2459
0
LINE
8
BLACK
6
CONTINUOUS
10
112.449
20
-57.2459
11
112.728
21
-54.058
0
LINE
8
BLACK
6
CONTINUOUS
10
114.602
20
-32.6399
11
108.625
21
-32.1169
0
LINE
8
BLACK
6
CONTINUOUS
10
108.625
20
-32.1169
11
108.346
21
-35.3047
0
LINE
8
BLACK
6
CONTINUOUS
10
108.346
20
-35.3047
11
114.323
21
-35.8277
0
LINE
8
BLACK
6
CONTINUOUS
10
114.323
20
-35.8277
11
114.602
21
-32.6399
0
LINE
8
BLACK
6
CONTINUOUS
10
74
20
-54.4
11
68
21
-54.4
0
LINE
8
BLACK
6
CONTINUOUS
10
68
20
-54.4
11
68
21
-57.6
0
LINE
8
BLACK
6
CONTINUOUS
10
68
20
-57.6
11
74
21
-57.6
0
LINE
8
BLACK
6
CONTINUOUS
10
74
20
-57.6
11
74
21
-54.4
0
LINE
8
BLACK
6
CONTINUOUS
10
-59
20
-61.4
11
-65
21
-61.4
0
LINE
8
BLACK
6
CONTINUOUS
10
-65
20
-61.4
11
-65
21
-64.6
0
LINE
8
BLACK
6
CONTINUOUS
10
-65
20
-64.6
11
-59
21
-64.6
0
LINE
8
BLACK
6
CONTINUOUS
10
-59
20
-64.6
11
-59
21
-61.4
0
LINE
8
BLACK
6
CONTINUOUS
10
-126.351
20
-47.2446
11
-132.328
21
-47.7676
0
LINE
8
BLACK
6
CONTINUOUS
10
-132.328
20
-47.7676
11
-132.049
21
-50.9554
0
LINE
8
BLACK
6
CONTINUOUS
10
-132.049
20
-50.9554
11
-126.072
21
-50.4324
0
LINE
8
BLACK
6
CONTINUOUS
10
-126.072
20
-50.4324
11
-126.351
21
-47.2446
0
LINE
8
BLACK
6
CONTINUOUS
10
-87
20
-20.4
11
-93
21
-20.4
0
LINE
8
BLACK
6
CONTINUOUS
10
-93
20
-20.4
11
-93
21
-23.6
0
LINE
8
BLACK
6
CONTINUOUS
10
-93
20
-23.6
11
-87
21
-23.6
0
LINE
8
BLACK
6
CONTINUOUS
10
-87
20
-23.6
11
-87
21
-20.4
0
LINE
8
BLACK
6
CONTINUOUS
10
93
20
-58.4
11
87
21
-58.4
0
LINE
8
BLACK
6
CONTINUOUS
10
87
20
-58.4
11
87
21
-61.6
0
LINE
8
BLACK
6
CONTINUOUS
10
87
20
-61.6
11
93
21
-61.6
0
LINE
8
BLACK
6
CONTINUOUS
10
93
20
-61.6
11
93
21
-58.4
0
LINE
8
BLACK
6
CONTINUOUS
10
-77.5
20
-50.9
11
-74.7
21
-50.9
0
LINE
8
BLACK
6
CONTINUOUS
10
-74.7
20
-50.9
11
-74.7
21
-52.9
0
LINE
8
BLACK
6
CONTINUOUS
10
-74.7
20
-52.9
11
-77.5
21
-52.9
0
LINE
8
BLACK
6
CONTINUOUS
10
-77.5
20
-52.9
11
-77.5
21
-50.9
0
LINE
8
BLACK
6
CONTINUOUS
10
-72.4
20
-52.9
11
-69.6
21
-52.9
0
LINE
8
BLACK
6
CONTINUOUS
10
-69.6
20
-52.9
11
-69.6
21
-54.9
0
LINE
8
BLACK
6
CONTINUOUS
10
-69.6
20
-54.9
11
-72.4
21
-54.9
0
LINE
8
BLACK
6
CONTINUOUS
10
-72.4
20
-54.9
11
-72.4
21
-52.9
0
LINE
8
BLACK
6
CONTINUOUS
10
-67
20
-41.5
11
-63.25
21
-41.5
0
LINE
8
BLACK
6
CONTINUOUS
10
-63.25
20
-41.5
11
-63.25
21
-44.25
0
LINE
8
BLACK
6
CONTINUOUS
10
-63.25
20
-44.25
11
-67
21
-44.25
0
LINE
8
BLACK
6
CONTINUOUS
10
-67
20
-44.25
11
-67
21
-41.5
0
CIRCLE
8
BLACK
10
-71
20
-48
40
2.75
0
LINE
8
BLACK
6
CONTINUOUS
10
26.5
20
-57.4
11
29.3
21
-57.4
0
LINE
8
BLACK
6
CONTINUOUS
10
29.3
20
-57.4
11
29.3
21
-59.4
0
LINE
8
BLACK
6
CONTINUOUS
10
29.3
20
-59.4
11
26.5
21
-59.4
0
LINE
8
BLACK
6
CONTINUOUS
10
26.5
20
-59.4
11
26.5
21
-57.4
0
LINE
8
BLACK
6
CONTINUOUS
10
31.6
20
-59.4
11
34.4
21
-59.4
0
LINE
8
BLACK
6
CONTINUOUS
10
34.4
20
-59.4
11
34.4
21
-61.4
0
LINE
8
BLACK
6
CONTINUOUS
10
34.4
20
-61.4
11
31.6
21
-61.4
0
LINE
8
BLACK
6
CONTINUOUS
10
31.6
20
-61.4
11
31.6
21
-59.4
0
LINE
8
BLACK
6
CONTINUOUS
10
37
20
-48
11
40.75
21
-48
0
LINE
8
BLACK
6
CONTINUOUS
10
40.75
20
-48
11
40.75
21
-50.75
0
LINE
8
BLACK
6
CONTINUOUS
10
40.75
20
-50.75
11
37
21
-50.75
0
LINE
8
BLACK
6
CONTINUOUS
10
37
20
-50.75
11
37
21
-48
0
CIRCLE
8
BLACK
10
33
20
-54.5
40
2.75
0
LINE
8
BLACK
6
CONTINUOUS
10
-39.5
20
-38.4
11
-36.7
21
-38.4
0
LINE
8
BLACK
6
CONTINUOUS
10
-36.7
20
-38.4
11
-36.7
21
-40.4
0
LINE
8
BLACK
6
CONTINUOUS
10
-36.7
20
-40.4
11
-39.5
21
-40.4
0
LINE
8
BLACK
6
CONTINUOUS
10
-39.5
20
-40.4
11
-39.5
21
-38.4
0
LINE
8
BLACK
6
CONTINUOUS
10
-34.4
20
-40.4
11
-31.6
21
-40.4
0
LINE
8
BLACK
6
CONTINUOUS
10
-31.6
20
-40.4
11
-31.6
21
-42.4
0
LINE
8
BLACK
6
CONTINUOUS
10
-31.6
20
-42.4
11
-34.4
21
-42.4
0
LINE
8
BLACK
6
CONTINUOUS
10
-34.4
20
-42.4
11
-34.4
21
-40.4
0
LINE
8
BLACK
6
CONTINUOUS
10
-29
20
-29
11
-25.25
21
-29
0
LINE
8
BLACK
6
CONTINUOUS
10
-25.25
20
-29
11
-25.25
21
-31.75
0
LINE
8
BLACK
6
CONTINUOUS
10
-25.25
20
-31.75
11
-29
21
-31.75
0
LINE
8
BLACK
6
CONTINUOUS
10
-29
20
-31.75
11
-29
21
-29
0
CIRCLE
8
BLACK
10
-33
20
-35.5
40
2.75
0
LINE
8
BLACK
6
CONTINUOUS
10
103.822
20
-47.1725
11
106.611
21
-47.4165
0
LINE
8
BLACK
6
CONTINUOUS
10
106.611
20
-47.4165
11
106.437
21
-49.4089
0
LINE
8
BLACK
6
CONTINUOUS
10
106.437
20
-49.4089
11
103.648
21
-49.1648
0
LINE
8
BLACK
6
CONTINUOUS
10
103.648
20
-49.1648
11
103.822
21
-47.1725
0
LINE
8
BLACK
6
CONTINUOUS
10
108.728
20
-49.6093
11
111.518
21
-49.8534
0
LINE
8
BLACK
6
CONTINUOUS
10
111.518
20
-49.8534
11
111.343
21
-51.8458
0
LINE
8
BLACK
6
CONTINUOUS
10
111.343
20
-51.8458
11
108.554
21
-51.6017
0
LINE
8
BLACK
6
CONTINUOUS
10
108.554
20
-51.6017
11
108.728
21
-49.6093
0
LINE
8
BLACK
6
CONTINUOUS
10
115.101
20
-38.7234
11
118.837
21
-39.0502
0
LINE
8
BLACK
6
CONTINUOUS
10
118.837
20
-39.0502
11
118.597
21
-41.7897
0
LINE
8
BLACK
6
CONTINUOUS
10
118.597
20
-41.7897
11
114.862
21
-41.4629
0
LINE
8
BLACK
6
CONTINUOUS
10
114.862
20
-41.4629
11
115.101
21
-38.7234
0
CIRCLE
8
BLACK
10
110.55
20
-44.85
40
2.75
0
LINE
8
BLACK
6
CONTINUOUS
10
-115.123
20
-67.2555
11
-112.333
21
-67.0114
0
LINE
8
BLACK
6
CONTINUOUS
10
-112.333
20
-67.0114
11
-112.159
21
-69.0038
0
LINE
8
BLACK
6
CONTINUOUS
10
-112.159
20
-69.0038
11
-114.948
21
-69.2479
0
LINE
8
BLACK
6
CONTINUOUS
10
-114.948
20
-69.2479
11
-115.123
21
-67.2555
0
LINE
8
BLACK
6
CONTINUOUS
10
-109.868
20
-68.8034
11
-107.078
21
-68.5593
0
LINE
8
BLACK
6
CONTINUOUS
10
-107.078
20
-68.5593
11
-106.904
21
-70.5517
0
LINE
8
BLACK
6
CONTINUOUS
10
-106.904
20
-70.5517
11
-109.693
21
-70.7958
0
LINE
8
BLACK
6
CONTINUOUS
10
-109.693
20
-70.7958
11
-109.868
21
-68.8034
0
LINE
8
BLACK
6
CONTINUOUS
10
-105.482
20
-56.9761
11
-101.746
21
-56.6493
0
LINE
8
BLACK
6
CONTINUOUS
10
-101.746
20
-56.6493
11
-101.506
21
-59.3888
0
LINE
8
BLACK
6
CONTINUOUS
10
-101.506
20
-59.3888
11
-105.242
21
-59.7156
0
LINE
8
BLACK
6
CONTINUOUS
10
-105.242
20
-59.7156
11
-105.482
21
-56.9761
0
CIRCLE
8
BLACK
10
-108.9
20
-63.8
40
2.75
0
LINE
8
BLACK
6
CONTINUOUS
10
83.5
20
-35.9
11
86.3
21
-35.9
0
LINE
8
BLACK
6
CONTINUOUS
10
86.3
20
-35.9
11
86.3
21
-37.9
0
LINE
8
BLACK
6
CONTINUOUS
10
86.3
20
-37.9
11
83.5
21
-37.9
0
LINE
8
BLACK
6
CONTINUOUS
10
83.5
20
-37.9
11
83.5
21
-35.9
0
LINE
8
BLACK
6
CONTINUOUS
10
88.6
20
-37.9
11
91.4
21
-37.9
0
LINE
8
BLACK
6
CONTINUOUS
10
91.4
20
-37.9
11
91.4
21
-39.9
0
LINE
8
BLACK
6
CONTINUOUS
10
91.4
20
-39.9
11
88.6
21
-39.9
0
LINE
8
BLACK
6
CONTINUOUS
10
88.6
20
-39.9
11
88.6
21
-37.9
0
LINE
8
BLACK
6
CONTINUOUS
10
94
20
-26.5
11
97.75
21
-26.5
0
LINE
8
BLACK
6
CONTINUOUS
10
97.75
20
-26.5
11
97.75
21
-29.25
0
LINE
8
BLACK
6
CONTINUOUS
10
97.75
20
-29.25
11
94
21
-29.25
0
LINE
8
BLACK
6
CONTINUOUS
10
94
20
-29.25
11
94
21
-26.5
0
CIRCLE
8
BLACK
10
90
20
-33
40
2.75
0
LINE
8
BLACK
6
CONTINUOUS
10
26.5
20
-19.4
11
29.3
21
-19.4
0
LINE
8
BLACK
6
CONTINUOUS
10
29.3
20
-19.4
11
29.3
21
-21.4
0
LINE
8
BLACK
6
CONTINUOUS
10
29.3
20
-21.4
11
26.5
21
-21.4
0
LINE
8
BLACK
6
CONTINUOUS
10
26.5
20
-21.4
11
26.5
21
-19.4
0
LINE
8
BLACK
6
CONTINUOUS
10
31.6
20
-21.4
11
34.4
21
-21.4
0
LINE
8
BLACK
6
CONTINUOUS
10
34.4
20
-21.4
11
34.4
21
-23.4
0
LINE
8
BLACK
6
CONTINUOUS
10
34.4
20
-23.4
11
31.6
21
-23.4
0
LINE
8
BLACK
6
CONTINUOUS
10
31.6
20
-23.4
11
31.6
21
-21.4
0
LINE
8
BLACK
6
CONTINUOUS
10
37
20
-10
11
40.75
21
-10
0
LINE
8
BLACK
6
CONTINUOUS
10
40.75
20
-10
11
40.75
21
-12.75
0
LINE
8
BLACK
6
CONTINUOUS
10
40.75
20
-12.75
11
37
21
-12.75
0
LINE
8
BLACK
6
CONTINUOUS
10
37
20
-12.75
11
37
21
-10
0
CIRCLE
8
BLACK
10
33
20
-16.5
40
2.75
0
LINE
8
BLACK
6
CONTINUOUS
10
-39.5
20
-19.4
11
-36.7
21
-19.4
0
LINE
8
BLACK
6
CONTINUOUS
10
-36.7
20
-19.4
11
-36.7
21
-21.4
0
LINE
8
BLACK
6
CONTINUOUS
10
-36.7
20
-21.4
11
-39.5
21
-21.4
0
LINE
8
BLACK
6
CONTINUOUS
10
-39.5
20
-21.4
11
-39.5
21
-19.4
0
LINE
8
BLACK
6
CONTINUOUS
10
-34.4
20
-21.4
11
-31.6
21
-21.4
0
LINE
8
BLACK
6
CONTINUOUS
10
-31.6
20
-21.4
11
-31.6
21
-23.4
0
LINE
8
BLACK
6
CONTINUOUS
10
-31.6
20
-23.4
11
-34.4
21
-23.4
0
LINE
8
BLACK
6
CONTINUOUS
10
-34.4
20
-23.4
11
-34.4
21
-21.4
0
LINE
8
BLACK
6
CONTINUOUS
10
-29
20
-10
11
-25.25
21
-10
0
LINE
8
BLACK
6
CONTINUOUS
10
-25.25
20
-10
11
-25.25
21
-12.75
0
LINE
8
BLACK
6
CONTINUOUS
10
-25.25
20
-12.75
11
-29
21
-12.75
0
LINE
8
BLACK
6
CONTINUOUS
10
-29
20
-12.75
11
-29
21
-10
0
CIRCLE
8
BLACK
10
-33
20
-16.5
40
2.75
0
LINE
8
BLACK
6
CONTINUOUS
10
123.272
20
-43.4225
11
126.061
21
-43.6665
0
LINE
8
BLACK
6
CONTINUOUS
10
126.061
20
-43.6665
11
125.887
21
-45.6589
0
LINE
8
BLACK
6
CONTINUOUS
10
125.887
20
-45.6589
11
123.098
21
-45.4148
0
LINE
8
BLACK
6
CONTINUOUS
10
123.098
20
-45.4148
11
123.272
21
-43.4225
0
LINE
8
BLACK
6
CONTINUOUS
10
128.178
20
-45.8593
11
130.968
21
-46.1034
0
LINE
8
BLACK
6
CONTINUOUS
10
130.968
20
-46.1034
11
130.793
21
-48.0958
0
LINE
8
BLACK
6
CONTINUOUS
10
130.793
20
-48.0958
11
128.004
21
-47.8517
0
LINE
8
BLACK
6
CONTINUOUS
10
128.004
20
-47.8517
11
128.178
21
-45.8593
0
LINE
8
BLACK
6
CONTINUOUS
10
134.551
20
-34.9734
11
138.287
21
-35.3002
0
LINE
8
BLACK
6
CONTINUOUS
10
138.287
20
-35.3002
11
138.047
21
-38.0397
0
LINE
8
BLACK
6
CONTINUOUS
10
138.047
20
-38.0397
11
134.312
21
-37.7129
0
LINE
8
BLACK
6
CONTINUOUS
10
134.312
20
-37.7129
11
134.551
21
-34.9734
0
CIRCLE
8
BLACK
10
130
20
-41.1
40
2.75
0
LINE
8
BLACK
6
CONTINUOUS
10
55.5
20
-74.4
11
58.3
21
-74.4
0
LINE
8
BLACK
6
CONTINUOUS
10
58.3
20
-74.4
11
58.3
21
-76.4
0
LINE
8
BLACK
6
CONTINUOUS
10
58.3
20
-76.4
11
55.5
21
-76.4
0
LINE
8
BLACK
6
CONTINUOUS
10
55.5
20
-76.4
11
55.5
21
-74.4
0
LINE
8
BLACK
6
CONTINUOUS
10
60.6
20
-76.4
11
63.4
21
-76.4
0
LINE
8
BLACK
6
CONTINUOUS
10
63.4
20
-76.4
11
63.4
21
-78.4
0
LINE
8
BLACK
6
CONTINUOUS
10
63.4
20
-78.4
11
60.6
21
-78.4
0
LINE
8
BLACK
6
CONTINUOUS
10
60.6
20
-78.4
11
60.6
21
-76.4
0
LINE
8
BLACK
6
CONTINUOUS
10
66
20
-65
11
69.75
21
-65
0
LINE
8
BLACK
6
CONTINUOUS
10
69.75
20
-65
11
69.75
21
-67.75
0
LINE
8
BLACK
6
CONTINUOUS
10
69.75
20
-67.75
11
66
21
-67.75
0
LINE
8
BLACK
6
CONTINUOUS
10
66
20
-67.75
11
66
21
-65
0
CIRCLE
8
BLACK
10
62
20
-71.5
40
2.75
0
LINE
8
BLACK
6
CONTINUOUS
10
83.5
20
-16.9
11
86.3
21
-16.9
0
LINE
8
BLACK
6
CONTINUOUS
10
86.3
20
-16.9
11
86.3
21
-18.9
0
LINE
8
BLACK
6
CONTINUOUS
10
86.3
20
-18.9
11
83.5
21
-18.9
0
LINE
8
BLACK
6
CONTINUOUS
10
83.5
20
-18.9
11
83.5
21
-16.9
0
LINE
8
BLACK
6
CONTINUOUS
10
88.6
20
-18.9
11
91.4
21
-18.9
0
LINE
8
BLACK
6
CONTINUOUS
10
91.4
20
-18.9
11
91.4
21
-20.9
0
LINE
8
BLACK
6
CONTINUOUS
10
91.4
20
-20.9
11
88.6
21
-20.9
0
LINE
8
BLACK
6
CONTINUOUS
10
88.6
20
-20.9
11
88.6
21
-18.9
0
LINE
8
BLACK
6
CONTINUOUS
10
94
20
-7.5
11
97.75
21
-7.5
0
LINE
8
BLACK
6
CONTINUOUS
10
97.75
20
-7.5
11
97.75
21
-10.25
0
LINE
8
BLACK
6
CONTINUOUS
10
97.75
20
-10.25
11
94
21
-10.25
0
LINE
8
BLACK
6
CONTINUOUS
10
94
20
-10.25
11
94
21
-7.5
0
CIRCLE
8
BLACK
10
90
20
-14
40
2.75
0
LINE
8
BLACK
6
CONTINUOUS
10
64.5
20
-50.9
11
67.3
21
-50.9
0
LINE
8
BLACK
6
CONTINUOUS
10
67.3
20
-50.9
11
67.3
21
-52.9
0
LINE
8
BLACK
6
CONTINUOUS
10
67.3
20
-52.9
11
64.5
21
-52.9
0
LINE
8
BLACK
6
CONTINUOUS
10
64.5
20
-52.9
11
64.5
21
-50.9
0
LINE
8
BLACK
6
CONTINUOUS
10
69.6
20
-52.9
11
72.4
21
-52.9
0
LINE
8
BLACK
6
CONTINUOUS
10
72.4
20
-52.9
11
72.4
21
-54.9
0
LINE
8
BLACK
6
CONTINUOUS
10
72.4
20
-54.9
11
69.6
21
-54.9
0
LINE
8
BLACK
6
CONTINUOUS
10
69.6
20
-54.9
11
69.6
21
-52.9
0
LINE
8
BLACK
6
CONTINUOUS
10
75
20
-41.5
11
78.75
21
-41.5
0
LINE
8
BLACK
6
CONTINUOUS
10
78.75
20
-41.5
11
78.75
21
-44.25
0
LINE
8
BLACK
6
CONTINUOUS
10
78.75
20
-44.25
11
75
21
-44.25
0
LINE
8
BLACK
6
CONTINUOUS
10
75
20
-44.25
11
75
21
-41.5
0
CIRCLE
8
BLACK
10
71
20
-48
40
2.75
0
LINE
8
BLACK
6
CONTINUOUS
10
-96.5
20
-54.9
11
-93.7
21
-54.9
0
LINE
8
BLACK
6
CONTINUOUS
10
-93.7
20
-54.9
11
-93.7
21
-56.9
0
LINE
8
BLACK
6
CONTINUOUS
10
-93.7
20
-56.9
11
-96.5
21
-56.9
0
LINE
8
BLACK
6
CONTINUOUS
10
-96.5
20
-56.9
11
-96.5
21
-54.9
0
LINE
8
BLACK
6
CONTINUOUS
10
-91.4
20
-56.9
11
-88.6
21
-56.9
0
LINE
8
BLACK
6
CONTINUOUS
10
-88.6
20
-56.9
11
-88.6
21
-58.9
0
LINE
8
BLACK
6
CONTINUOUS
10
-88.6
20
-58.9
11
-91.4
21
-58.9
0
LINE
8
BLACK
6
CONTINUOUS
10
-91.4
20
-58.9
11
-91.4
21
-56.9
0
LINE
8
BLACK
6
CONTINUOUS
10
-86
20
-45.5
11
-82.25
21
-45.5
0
LINE
8
BLACK
6
CONTINUOUS
10
-82.25
20
-45.5
11
-82.25
21
-48.25
0
LINE
8
BLACK
6
CONTINUOUS
10
-82.25
20
-48.25
11
-86
21
-48.25
0
LINE
8
BLACK
6
CONTINUOUS
10
-86
20
-48.25
11
-86
21
-45.5
0
CIRCLE
8
BLACK
10
-90
20
-52
40
2.75
0
LINE
8
BLACK
6
CONTINUOUS
10
-39.5
20
-57.4
11
-36.7
21
-57.4
0
LINE
8
BLACK
6
CONTINUOUS
10
-36.7
20
-57.4
11
-36.7
21
-59.4
0
LINE
8
BLACK
6
CONTINUOUS
10
-36.7
20
-59.4
11
-39.5
21
-59.4
0
LINE
8
BLACK
6
CONTINUOUS
10
-39.5
20
-59.4
11
-39.5
21
-57.4
0
LINE
8
BLACK
6
CONTINUOUS
10
-34.4
20
-59.4
11
-31.6
21
-59.4
0
LINE
8
BLACK
6
CONTINUOUS
10
-31.6
20
-59.4
11
-31.6
21
-61.4
0
LINE
8
BLACK
6
CONTINUOUS
10
-31.6
20
-61.4
11
-34.4
21
-61.4
0
LINE
8
BLACK
6
CONTINUOUS
10
-34.4
20
-61.4
11
-34.4
21
-59.4
0
LINE
8
BLACK
6
CONTINUOUS
10
-29
20
-48
11
-25.25
21
-48
0
LINE
8
BLACK
6
CONTINUOUS
10
-25.25
20
-48
11
-25.25
21
-50.75
0
LINE
8
BLACK
6
CONTINUOUS
10
-25.25
20
-50.75
11
-29
21
-50.75
0
LINE
8
BLACK
6
CONTINUOUS
10
-29
20
-50.75
11
-29
21
-48
0
CIRCLE
8
BLACK
10
-33
20
-54.5
40
2.75
0
LINE
8
BLACK
6
CONTINUOUS
10
26.5
20
-38.4
11
29.3
21
-38.4
0
LINE
8
BLACK
6
CONTINUOUS
10
29.3
20
-38.4
11
29.3
21
-40.4
0
LINE
8
BLACK
6
CONTINUOUS
10
29.3
20
-40.4
11
26.5
21
-40.4
0
LINE
8
BLACK
6
CONTINUOUS
10
26.5
20
-40.4
11
26.5
21
-38.4
0
LINE
8
BLACK
6
CONTINUOUS
10
31.6
20
-40.4
11
34.4
21
-40.4
0
LINE
8
BLACK
6
CONTINUOUS
10
34.4
20
-40.4
11
34.4
21
-42.4
0
LINE
8
BLACK
6
CONTINUOUS
10
34.4
20
-42.4
11
31.6
21
-42.4
0
LINE
8
BLACK
6
CONTINUOUS
10
31.6
20
-42.4
11
31.6
21
-40.4
0
LINE
8
BLACK
6
CONTINUOUS
10
37
20
-29
11
40.75
21
-29
0
LINE
8
BLACK
6
CONTINUOUS
10
40.75
20
-29
11
40.75
21
-31.75
0
LINE
8
BLACK
6
CONTINUOUS
10
40.75
20
-31.75
11
37
21
-31.75
0
LINE
8
BLACK
6
CONTINUOUS
10
37
20
-31.75
11
37
21
-29
0
CIRCLE
8
BLACK
10
33
20
-35.5
40
2.75
0
LINE
8
BLACK
6
CONTINUOUS
10
-96.5
20
-16.9
11
-93.7
21
-16.9
0
LINE
8
BLACK
6
CONTINUOUS
10
-93.7
20
-16.9
11
-93.7
21
-18.9
0
LINE
8
BLACK
6
CONTINUOUS
10
-93.7
20
-18.9
11
-96.5
21
-18.9
0
LINE
8
BLACK
6
CONTINUOUS
10
-96.5
20
-18.9
11
-96.5
21
-16.9
0
LINE
8
BLACK
6
CONTINUOUS
10
-91.4
20
-18.9
11
-88.6
21
-18.9
0
LINE
8
BLACK
6
CONTINUOUS
10
-88.6
20
-18.9
11
-88.6
21
-20.9
0
LINE
8
BLACK
6
CONTINUOUS
10
-88.6
20
-20.9
11
-91.4
21
-20.9
0
LINE
8
BLACK
6
CONTINUOUS
10
-91.4
20
-20.9
11
-91.4
21
-18.9
0
LINE
8
BLACK
6
CONTINUOUS
10
-86
20
-7.5
11
-82.25
21
-7.5
0
LINE
8
BLACK
6
CONTINUOUS
10
-82.25
20
-7.5
11
-82.25
21
-10.25
0
LINE
8
BLACK
6
CONTINUOUS
10
-82.25
20
-10.25
11
-86
21
-10.25
0
LINE
8
BLACK
6
CONTINUOUS
10
-86
20
-10.25
11
-86
21
-7.5
0
CIRCLE
8
BLACK
10
-90
20
-14
40
2.75
0
LINE
8
BLACK
6
CONTINUOUS
10
35.2221
20
-78.7335
11
37.9266
21
-78.0088
0
LINE
8
BLACK
6
CONTINUOUS
10
37.9266
20
-78.0088
11
38.4443
21
-79.9407
0
LINE
8
BLACK
6
CONTINUOUS
10
38.4443
20
-79.9407
11
35.7397
21
-80.6654
0
LINE
8
BLACK
6
CONTINUOUS
10
35.7397
20
-80.6654
11
35.2221
21
-78.7335
0
LINE
8
BLACK
6
CONTINUOUS
10
40.6659
20
-79.3454
11
43.3705
21
-78.6207
0
LINE
8
BLACK
6
CONTINUOUS
10
43.3705
20
-78.6207
11
43.8881
21
-80.5525
0
LINE
8
BLACK
6
CONTINUOUS
10
43.8881
20
-80.5525
11
41.1836
21
-81.2772
0
LINE
8
BLACK
6
CONTINUOUS
10
41.1836
20
-81.2772
11
40.6659
21
-79.3454
0
LINE
8
BLACK
6
CONTINUOUS
10
42.9314
20
-66.9362
11
46.5536
21
-65.9656
0
LINE
8
BLACK
6
CONTINUOUS
10
46.5536
20
-65.9656
11
47.2654
21
-68.6219
0
LINE
8
BLACK
6
CONTINUOUS
10
47.2654
20
-68.6219
11
43.6431
21
-69.5925
0
LINE
8
BLACK
6
CONTINUOUS
10
43.6431
20
-69.5925
11
42.9314
21
-66.9362
0
CIRCLE
8
BLACK
10
40.75
20
-74.25
40
2.75
0
LINE
8
BLACK
6
CONTINUOUS
10
64.5
20
-31.9
11
67.3
21
-31.9
0
LINE
8
BLACK
6
CONTINUOUS
10
67.3
20
-31.9
11
67.3
21
-33.9
0
LINE
8
BLACK
6
CONTINUOUS
10
67.3
20
-33.9
11
64.5
21
-33.9
0
LINE
8
BLACK
6
CONTINUOUS
10
64.5
20
-33.9
11
64.5
21
-31.9
0
LINE
8
BLACK
6
CONTINUOUS
10
69.6
20
-33.9
11
72.4
21
-33.9
0
LINE
8
BLACK
6
CONTINUOUS
10
72.4
20
-33.9
11
72.4
21
-35.9
0
LINE
8
BLACK
6
CONTINUOUS
10
72.4
20
-35.9
11
69.6
21
-35.9
0
LINE
8
BLACK
6
CONTINUOUS
10
69.6
20
-35.9
11
69.6
21
-33.9
0
LINE
8
BLACK
6
CONTINUOUS
10
75
20
-22.5
11
78.75
21
-22.5
0
LINE
8
BLACK
6
CONTINUOUS
10
78.75
20
-22.5
11
78.75
21
-25.25
0
LINE
8
BLACK
6
CONTINUOUS
10
78.75
20
-25.25
11
75
21
-25.25
0
LINE
8
BLACK
6
CONTINUOUS
10
75
20
-25.25
11
75
21
-22.5
0
CIRCLE
8
BLACK
10
71
20
-29
40
2.75
0
LINE
8
BLACK
6
CONTINUOUS
10
-58.5
20
-55.4
11
-55.7
21
-55.4
0
LINE
8
BLACK
6
CONTINUOUS
10
-55.7
20
-55.4
11
-55.7
21
-57.4
0
LINE
8
BLACK
6
CONTINUOUS
10
-55.7
20
-57.4
11
-58.5
21
-57.4
0
LINE
8
BLACK
6
CONTINUOUS
10
-58.5
20
-57.4
11
-58.5
21
-55.4
0
LINE
8
BLACK
6
CONTINUOUS
10
-53.4
20
-57.4
11
-50.6
21
-57.4
0
LINE
8
BLACK
6
CONTINUOUS
10
-50.6
20
-57.4
11
-50.6
21
-59.4
0
LINE
8
BLACK
6
CONTINUOUS
10
-50.6
20
-59.4
11
-53.4
21
-59.4
0
LINE
8
BLACK
6
CONTINUOUS
10
-53.4
20
-59.4
11
-53.4
21
-57.4
0
LINE
8
BLACK
6
CONTINUOUS
10
-48
20
-46
11
-44.25
21
-46
0
LINE
8
BLACK
6
CONTINUOUS
10
-44.25
20
-46
11
-44.25
21
-48.75
0
LINE
8
BLACK
6
CONTINUOUS
10
-44.25
20
-48.75
11
-48
21
-48.75
0
LINE
8
BLACK
6
CONTINUOUS
10
-48
20
-48.75
11
-48
21
-46
0
CIRCLE
8
BLACK
10
-52
20
-52.5
40
2.75
0
LINE
8
BLACK
6
CONTINUOUS
10
45.5
20
-55.4
11
48.3
21
-55.4
0
LINE
8
BLACK
6
CONTINUOUS
10
48.3
20
-55.4
11
48.3
21
-57.4
0
LINE
8
BLACK
6
CONTINUOUS
10
48.3
20
-57.4
11
45.5
21
-57.4
0
LINE
8
BLACK
6
CONTINUOUS
10
45.5
20
-57.4
11
45.5
21
-55.4
0
LINE
8
BLACK
6
CONTINUOUS
10
50.6
20
-57.4
11
53.4
21
-57.4
0
LINE
8
BLACK
6
CONTINUOUS
10
53.4
20
-57.4
11
53.4
21
-59.4
0
LINE
8
BLACK
6
CONTINUOUS
10
53.4
20
-59.4
11
50.6
21
-59.4
0
LINE
8
BLACK
6
CONTINUOUS
10
50.6
20
-59.4
11
50.6
21
-57.4
0
LINE
8
BLACK
6
CONTINUOUS
10
56
20
-46
11
59.75
21
-46
0
LINE
8
BLACK
6
CONTINUOUS
10
59.75
20
-46
11
59.75
21
-48.75
0
LINE
8
BLACK
6
CONTINUOUS
10
59.75
20
-48.75
11
56
21
-48.75
0
LINE
8
BLACK
6
CONTINUOUS
10
56
20
-48.75
11
56
21
-46
0
CIRCLE
8
BLACK
10
52
20
-52.5
40
2.75
0
LINE
8
BLACK
6
CONTINUOUS
10
-47.7791
20
-75.3689
11
-45.0745
21
-76.0936
0
LINE
8
BLACK
6
CONTINUOUS
10
-45.0745
20
-76.0936
11
-45.5921
21
-78.0254
0
LINE
8
BLACK
6
CONTINUOUS
10
-45.5921
20
-78.0254
11
-48.2967
21
-77.3007
0
LINE
8
BLACK
6
CONTINUOUS
10
-48.2967
20
-77.3007
11
-47.7791
21
-75.3689
0
LINE
8
BLACK
6
CONTINUOUS
10
-43.3705
20
-78.6207
11
-40.6659
21
-79.3454
0
LINE
8
BLACK
6
CONTINUOUS
10
-40.6659
20
-79.3454
11
-41.1836
21
-81.2772
0
LINE
8
BLACK
6
CONTINUOUS
10
-41.1836
20
-81.2772
11
-43.8881
21
-80.5525
0
LINE
8
BLACK
6
CONTINUOUS
10
-43.8881
20
-80.5525
11
-43.3705
21
-78.6207
0
LINE
8
BLACK
6
CONTINUOUS
10
-35.204
20
-69.0068
11
-31.5818
21
-69.9773
0
LINE
8
BLACK
6
CONTINUOUS
10
-31.5818
20
-69.9773
11
-32.2935
21
-72.6336
0
LINE
8
BLACK
6
CONTINUOUS
10
-32.2935
20
-72.6336
11
-35.9157
21
-71.6631
0
LINE
8
BLACK
6
CONTINUOUS
10
-35.9157
20
-71.6631
11
-35.204
21
-69.0068
0
CIRCLE
8
BLACK
10
-40.75
20
-74.25
40
2.75
0
LINE
8
BLACK
6
CONTINUOUS
10
83.5
20
-54.9
11
86.3
21
-54.9
0
LINE
8
BLACK
6
CONTINUOUS
10
86.3
20
-54.9
11
86.3
21
-56.9
0
LINE
8
BLACK
6
CONTINUOUS
10
86.3
20
-56.9
11
83.5
21
-56.9
0
LINE
8
BLACK
6
CONTINUOUS
10
83.5
20
-56.9
11
83.5
21
-54.9
0
LINE
8
BLACK
6
CONTINUOUS
10
88.6
20
-56.9
11
91.4
21
-56.9
0
LINE
8
BLACK
6
CONTINUOUS
10
91.4
20
-56.9
11
91.4
21
-58.9
0
LINE
8
BLACK
6
CONTINUOUS
10
91.4
20
-58.9
11
88.6
21
-58.9
0
LINE
8
BLACK
6
CONTINUOUS
10
88.6
20
-58.9
11
88.6
21
-56.9
0
LINE
8
BLACK
6
CONTINUOUS
10
94
20
-45.5
11
97.75
21
-45.5
0
LINE
8
BLACK
6
CONTINUOUS
10
97.75
20
-45.5
11
97.75
21
-48.25
0
LINE
8
BLACK
6
CONTINUOUS
10
97.75
20
-48.25
11
94
21
-48.25
0
LINE
8
BLACK
6
CONTINUOUS
10
94
20
-48.25
11
94
21
-45.5
0
CIRCLE
8
BLACK
10
90
20
-52
40
2.75
0
LINE
8
BLACK
6
CONTINUOUS
10
-58.5
20
-17.4
11
-55.7
21
-17.4
0
LINE
8
BLACK
6
CONTINUOUS
10
-55.7
20
-17.4
11
-55.7
21
-19.4
0
LINE
8
BLACK
6
CONTINUOUS
10
-55.7
20
-19.4
11
-58.5
21
-19.4
0
LINE
8
BLACK
6
CONTINUOUS
10
-58.5
20
-19.4
11
-58.5
21
-17.4
0
LINE
8
BLACK
6
CONTINUOUS
10
-53.4
20
-19.4
11
-50.6
21
-19.4
0
LINE
8
BLACK
6
CONTINUOUS
10
-50.6
20
-19.4
11
-50.6
21
-21.4
0
LINE
8
BLACK
6
CONTINUOUS
10
-50.6
20
-21.4
11
-53.4
21
-21.4
0
LINE
8
BLACK
6
CONTINUOUS
10
-53.4
20
-21.4
11
-53.4
21
-19.4
0
LINE
8
BLACK
6
CONTINUOUS
10
-48
20
-8
11
-44.25
21
-8
0
LINE
8
BLACK
6
CONTINUOUS
10
-44.25
20
-8
11
-44.25
21
-10.75
0
LINE
8
BLACK
6
CONTINUOUS
10
-44.25
20
-10.75
11
-48
21
-10.75
0
LINE
8
BLACK
6
CONTINUOUS
10
-48
20
-10.75
11
-48
21
-8
0
CIRCLE
8
BLACK
10
-52
20
-14.5
40
2.75
0
LINE
8
BLACK
6
CONTINUOUS
10
121.572
20
-62.4225
11
124.361
21
-62.6665
0
LINE
8
BLACK
6
CONTINUOUS
10
124.361
20
-62.6665
11
124.187
21
-64.6589
0
LINE
8
BLACK
6
CONTINUOUS
10
124.187
20
-64.6589
11
121.398
21
-64.4148
0
LINE
8
BLACK
6
CONTINUOUS
10
121.398
20
-64.4148
11
121.572
21
-62.4225
0
LINE
8
BLACK
6
CONTINUOUS
10
126.478
20
-64.8593
11
129.268
21
-65.1034
0
LINE
8
BLACK
6
CONTINUOUS
10
129.268
20
-65.1034
11
129.093
21
-67.0958
0
LINE
8
BLACK
6
CONTINUOUS
10
129.093
20
-67.0958
11
126.304
21
-66.8517
0
LINE
8
BLACK
6
CONTINUOUS
10
126.304
20
-66.8517
11
126.478
21
-64.8593
0
LINE
8
BLACK
6
CONTINUOUS
10
132.851
20
-53.9734
11
136.587
21
-54.3002
0
LINE
8
BLACK
6
CONTINUOUS
10
136.587
20
-54.3002
11
136.347
21
-57.0397
0
LINE
8
BLACK
6
CONTINUOUS
10
136.347
20
-57.0397
11
132.612
21
-56.7129
0
LINE
8
BLACK
6
CONTINUOUS
10
132.612
20
-56.7129
11
132.851
21
-53.9734
0
CIRCLE
8
BLACK
10
128.3
20
-60.1
40
2.75
0
LINE
8
BLACK
6
CONTINUOUS
10
-136.223
20
-44.5555
11
-133.433
21
-44.3114
0
LINE
8
BLACK
6
CONTINUOUS
10
-133.433
20
-44.3114
11
-133.259
21
-46.3038
0
LINE
8
BLACK
6
CONTINUOUS
10
-133.259
20
-46.3038
11
-136.048
21
-46.5479
0
LINE
8
BLACK
6
CONTINUOUS
10
-136.048
20
-46.5479
11
-136.223
21
-44.5555
0
LINE
8
BLACK
6
CONTINUOUS
10
-130.968
20
-46.1034
11
-128.178
21
-45.8593
0
LINE
8
BLACK
6
CONTINUOUS
10
-128.178
20
-45.8593
11
-128.004
21
-47.8517
0
LINE
8
BLACK
6
CONTINUOUS
10
-128.004
20
-47.8517
11
-130.793
21
-48.0958
0
LINE
8
BLACK
6
CONTINUOUS
10
-130.793
20
-48.0958
11
-130.968
21
-46.1034
0
LINE
8
BLACK
6
CONTINUOUS
10
-126.582
20
-34.2761
11
-122.846
21
-33.9493
0
LINE
8
BLACK
6
CONTINUOUS
10
-122.846
20
-33.9493
11
-122.606
21
-36.6888
0
LINE
8
BLACK
6
CONTINUOUS
10
-122.606
20
-36.6888
11
-126.342
21
-37.0156
0
LINE
8
BLACK
6
CONTINUOUS
10
-126.342
20
-37.0156
11
-126.582
21
-34.2761
0
CIRCLE
8
BLACK
10
-130
20
-41.1
40
2.75
0
LINE
8
BLACK
6
CONTINUOUS
10
105.472
20
-28.2225
11
108.261
21
-28.4665
0
LINE
8
BLACK
6
CONTINUOUS
10
108.261
20
-28.4665
11
108.087
21
-30.4589
0
LINE
8
BLACK
6
CONTINUOUS
10
108.087
20
-30.4589
11
105.298
21
-30.2148
0
LINE
8
BLACK
6
CONTINUOUS
10
105.298
20
-30.2148
11
105.472
21
-28.2225
0
LINE
8
BLACK
6
CONTINUOUS
10
110.378
20
-30.6593
11
113.168
21
-30.9034
0
LINE
8
BLACK
6
CONTINUOUS
10
113.168
20
-30.9034
11
112.993
21
-32.8958
0
LINE
8
BLACK
6
CONTINUOUS
10
112.993
20
-32.8958
11
110.204
21
-32.6517
0
LINE
8
BLACK
6
CONTINUOUS
10
110.204
20
-32.6517
11
110.378
21
-30.6593
0
LINE
8
BLACK
6
CONTINUOUS
10
116.751
20
-19.7734
11
120.487
21
-20.1002
0
LINE
8
BLACK
6
CONTINUOUS
10
120.487
20
-20.1002
11
120.247
21
-22.8397
0
LINE
8
BLACK
6
CONTINUOUS
10
120.247
20
-22.8397
11
116.512
21
-22.5129
0
LINE
8
BLACK
6
CONTINUOUS
10
116.512
20
-22.5129
11
116.751
21
-19.7734
0
CIRCLE
8
BLACK
10
112.2
20
-25.9
40
2.75
0
LINE
8
BLACK
6
CONTINUOUS
10
64.5
20
-12.9
11
67.3
21
-12.9
0
LINE
8
BLACK
6
CONTINUOUS
10
67.3
20
-12.9
11
67.3
21
-14.9
0
LINE
8
BLACK
6
CONTINUOUS
10
67.3
20
-14.9
11
64.5
21
-14.9
0
LINE
8
BLACK
6
CONTINUOUS
10
64.5
20
-14.9
11
64.5
21
-12.9
0
LINE
8
BLACK
6
CONTINUOUS
10
69.6
20
-14.9
11
72.4
21
-14.9
0
LINE
8
BLACK
6
CONTINUOUS
10
72.4
20
-14.9
11
72.4
21
-16.9
0
LINE
8
BLACK
6
CONTINUOUS
10
72.4
20
-16.9
11
69.6
21
-16.9
0
LINE
8
BLACK
6
CONTINUOUS
10
69.6
20
-16.9
11
69.6
21
-14.9
0
LINE
8
BLACK
6
CONTINUOUS
10
75
20
-3.5
11
78.75
21
-3.5
0
LINE
8
BLACK
6
CONTINUOUS
10
78.75
20
-3.5
11
78.75
21
-6.25
0
LINE
8
BLACK
6
CONTINUOUS
10
78.75
20
-6.25
11
75
21
-6.25
0
LINE
8
BLACK
6
CONTINUOUS
10
75
20
-6.25
11
75
21
-3.5
0
CIRCLE
8
BLACK
10
71
20
-10
40
2.75
0
LINE
8
BLACK
6
CONTINUOUS
10
-118.423
20
-29.3555
11
-115.633
21
-29.1114
0
LINE
8
BLACK
6
CONTINUOUS
10
-115.633
20
-29.1114
11
-115.459
21
-31.1038
0
LINE
8
BLACK
6
CONTINUOUS
10
-115.459
20
-31.1038
11
-118.248
21
-31.3479
0
LINE
8
BLACK
6
CONTINUOUS
10
-118.248
20
-31.3479
11
-118.423
21
-29.3555
0
LINE
8
BLACK
6
CONTINUOUS
10
-113.168
20
-30.9034
11
-110.378
21
-30.6593
0
LINE
8
BLACK
6
CONTINUOUS
10
-110.378
20
-30.6593
11
-110.204
21
-32.6517
0
LINE
8
BLACK
6
CONTINUOUS
10
-110.204
20
-32.6517
11
-112.993
21
-32.8958
0
LINE
8
BLACK
6
CONTINUOUS
10
-112.993
20
-32.8958
11
-113.168
21
-30.9034
0
LINE
8
BLACK
6
CONTINUOUS
10
-108.782
20
-19.0761
11
-105.046
21
-18.7493
0
LINE
8
BLACK
6
CONTINUOUS
10
-105.046
20
-18.7493
11
-104.806
21
-21.4888
0
LINE
8
BLACK
6
CONTINUOUS
10
-104.806
20
-21.4888
11
-108.542
21
-21.8156
0
LINE
8
BLACK
6
CONTINUOUS
10
-108.542
20
-21.8156
11
-108.782
21
-19.0761
0
CIRCLE
8
BLACK
10
-112.2
20
-25.9
40
2.75
0
LINE
8
BLACK
6
CONTINUOUS
10
45.5
20
-17.4
11
48.3
21
-17.4
0
LINE
8
BLACK
6
CONTINUOUS
10
48.3
20
-17.4
11
48.3
21
-19.4
0
LINE
8
BLACK
6
CONTINUOUS
10
48.3
20
-19.4
11
45.5
21
-19.4
0
LINE
8
BLACK
6
CONTINUOUS
10
45.5
20
-19.4
11
45.5
21
-17.4
0
LINE
8
BLACK
6
CONTINUOUS
10
50.6
20
-19.4
11
53.4
21
-19.4
0
LINE
8
BLACK
6
CONTINUOUS
10
53.4
20
-19.4
11
53.4
21
-21.4
0
LINE
8
BLACK
6
CONTINUOUS
10
53.4
20
-21.4
11
50.6
21
-21.4
0
LINE
8
BLACK
6
CONTINUOUS
10
50.6
20
-21.4
11
50.6
21
-19.4
0
LINE
8
BLACK
6
CONTINUOUS
10
56
20
-8
11
59.75
21
-8
0
LINE
8
BLACK
6
CONTINUOUS
10
59.75
20
-8
11
59.75
21
-10.75
0
LINE
8
BLACK
6
CONTINUOUS
10
59.75
20
-10.75
11
56
21
-10.75
0
LINE
8
BLACK
6
CONTINUOUS
10
56
20
-10.75
11
56
21
-8
0
CIRCLE
8
BLACK
10
52
20
-14.5
40
2.75
0
LINE
8
BLACK
6
CONTINUOUS
10
102.172
20
-66.1225
11
104.961
21
-66.3665
0
LINE
8
BLACK
6
CONTINUOUS
10
104.961
20
-66.3665
11
104.787
21
-68.3589
0
LINE
8
BLACK
6
CONTINUOUS
10
104.787
20
-68.3589
11
101.998
21
-68.1148
0
LINE
8
BLACK
6
CONTINUOUS
10
101.998
20
-68.1148
11
102.172
21
-66.1225
0
LINE
8
BLACK
6
CONTINUOUS
10
107.078
20
-68.5593
11
109.868
21
-68.8034
0
LINE
8
BLACK
6
CONTINUOUS
10
109.868
20
-68.8034
11
109.693
21
-70.7958
0
LINE
8
BLACK
6
CONTINUOUS
10
109.693
20
-70.7958
11
106.904
21
-70.5517
0
LINE
8
BLACK
6
CONTINUOUS
10
106.904
20
-70.5517
11
107.078
21
-68.5593
0
LINE
8
BLACK
6
CONTINUOUS
10
113.451
20
-57.6734
11
117.187
21
-58.0002
0
LINE
8
BLACK
6
CONTINUOUS
10
117.187
20
-58.0002
11
116.947
21
-60.7397
0
LINE
8
BLACK
6
CONTINUOUS
10
116.947
20
-60.7397
11
113.212
21
-60.4129
0
LINE
8
BLACK
6
CONTINUOUS
10
113.212
20
-60.4129
11
113.451
21
-57.6734
0
CIRCLE
8
BLACK
10
108.9
20
-63.8
40
2.75
0
LINE
8
BLACK
6
CONTINUOUS
10
-77.5
20
-12.9
11
-74.7
21
-12.9
0
LINE
8
BLACK
6
CONTINUOUS
10
-74.7
20
-12.9
11
-74.7
21
-14.9
0
LINE
8
BLACK
6
CONTINUOUS
10
-74.7
20
-14.9
11
-77.5
21
-14.9
0
LINE
8
BLACK
6
CONTINUOUS
10
-77.5
20
-14.9
11
-77.5
21
-12.9
0
LINE
8
BLACK
6
CONTINUOUS
10
-72.4
20
-14.9
11
-69.6
21
-14.9
0
LINE
8
BLACK
6
CONTINUOUS
10
-69.6
20
-14.9
11
-69.6
21
-16.9
0
LINE
8
BLACK
6
CONTINUOUS
10
-69.6
20
-16.9
11
-72.4
21
-16.9
0
LINE
8
BLACK
6
CONTINUOUS
10
-72.4
20
-16.9
11
-72.4
21
-14.9
0
LINE
8
BLACK
6
CONTINUOUS
10
-67
20
-3.5
11
-63.25
21
-3.5
0
LINE
8
BLACK
6
CONTINUOUS
10
-63.25
20
-3.5
11
-63.25
21
-6.25
0
LINE
8
BLACK
6
CONTINUOUS
10
-63.25
20
-6.25
11
-67
21
-6.25
0
LINE
8
BLACK
6
CONTINUOUS
10
-67
20
-6.25
11
-67
21
-3.5
0
CIRCLE
8
BLACK
10
-71
20
-10
40
2.75
0
LINE
8
BLACK
6
CONTINUOUS
10
-77.5
20
-31.9
11
-74.7
21
-31.9
0
LINE
8
BLACK
6
CONTINUOUS
10
-74.7
20
-31.9
11
-74.7
21
-33.9
0
LINE
8
BLACK
6
CONTINUOUS
10
-74.7
20
-33.9
11
-77.5
21
-33.9
0
LINE
8
BLACK
6
CONTINUOUS
10
-77.5
20
-33.9
11
-77.5
21
-31.9
0
LINE
8
BLACK
6
CONTINUOUS
10
-72.4
20
-33.9
11
-69.6
21
-33.9
0
LINE
8
BLACK
6
CONTINUOUS
10
-69.6
20
-33.9
11
-69.6
21
-35.9
0
LINE
8
BLACK
6
CONTINUOUS
10
-69.6
20
-35.9
11
-72.4
21
-35.9
0
LINE
8
BLACK
6
CONTINUOUS
10
-72.4
20
-35.9
11
-72.4
21
-33.9
0
LINE
8
BLACK
6
CONTINUOUS
10
-67
20
-22.5
11
-63.25
21
-22.5
0
LINE
8
BLACK
6
CONTINUOUS
10
-63.25
20
-22.5
11
-63.25
21
-25.25
0
LINE
8
BLACK
6
CONTINUOUS
10
-63.25
20
-25.25
11
-67
21
-25.25
0
LINE
8
BLACK
6
CONTINUOUS
10
-67
20
-25.25
11
-67
21
-22.5
0
CIRCLE
8
BLACK
10
-71
20
-29
40
2.75
0
LINE
8
BLACK
6
CONTINUOUS
10
45.5
20
-36.4
11
48.3
21
-36.4
0
LINE
8
BLACK
6
CONTINUOUS
10
48.3
20
-36.4
11
48.3
21
-38.4
0
LINE
8
BLACK
6
CONTINUOUS
10
48.3
20
-38.4
11
45.5
21
-38.4
0
LINE
8
BLACK
6
CONTINUOUS
10
45.5
20
-38.4
11
45.5
21
-36.4
0
LINE
8
BLACK
6
CONTINUOUS
10
50.6
20
-38.4
11
53.4
21
-38.4
0
LINE
8
BLACK
6
CONTINUOUS
10
53.4
20
-38.4
11
53.4
21
-40.4
0
LINE
8
BLACK
6
CONTINUOUS
10
53.4
20
-40.4
11
50.6
21
-40.4
0
LINE
8
BLACK
6
CONTINUOUS
10
50.6
20
-40.4
11
50.6
21
-38.4
0
LINE
8
BLACK
6
CONTINUOUS
10
56
20
-27
11
59.75
21
-27
0
LINE
8
BLACK
6
CONTINUOUS
10
59.75
20
-27
11
59.75
21
-29.75
0
LINE
8
BLACK
6
CONTINUOUS
10
59.75
20
-29.75
11
56
21
-29.75
0
LINE
8
BLACK
6
CONTINUOUS
10
56
20
-29.75
11
56
21
-27
0
CIRCLE
8
BLACK
10
52
20
-33.5
40
2.75
0
LINE
8
BLACK
6
CONTINUOUS
10
-96.5
20
-35.9
11
-93.7
21
-35.9
0
LINE
8
BLACK
6
CONTINUOUS
10
-93.7
20
-35.9
11
-93.7
21
-37.9
0
LINE
8
BLACK
6
CONTINUOUS
10
-93.7
20
-37.9
11
-96.5
21
-37.9
0
LINE
8
BLACK
6
CONTINUOUS
10
-96.5
20
-37.9
11
-96.5
21
-35.9
0
LINE
8
BLACK
6
CONTINUOUS
10
-91.4
20
-37.9
11
-88.6
21
-37.9
0
LINE
8
BLACK
6
CONTINUOUS
10
-88.6
20
-37.9
11
-88.6
21
-39.9
0
LINE
8
BLACK
6
CONTINUOUS
10
-88.6
20
-39.9
11
-91.4
21
-39.9
0
LINE
8
BLACK
6
CONTINUOUS
10
-91.4
20
-39.9
11
-91.4
21
-37.9
0
LINE
8
BLACK
6
CONTINUOUS
10
-86
20
-26.5
11
-82.25
21
-26.5
0
LINE
8
BLACK
6
CONTINUOUS
10
-82.25
20
-26.5
11
-82.25
21
-29.25
0
LINE
8
BLACK
6
CONTINUOUS
10
-82.25
20
-29.25
11
-86
21
-29.25
0
LINE
8
BLACK
6
CONTINUOUS
10
-86
20
-29.25
11
-86
21
-26.5
0
CIRCLE
8
BLACK
10
-90
20
-33
40
2.75
0
LINE
8
BLACK
6
CONTINUOUS
10
-134.523
20
-63.5555
11
-131.733
21
-63.3114
0
LINE
8
BLACK
6
CONTINUOUS
10
-131.733
20
-63.3114
11
-131.559
21
-65.3038
0
LINE
8
BLACK
6
CONTINUOUS
10
-131.559
20
-65.3038
11
-134.348
21
-65.5479
0
LINE
8
BLACK
6
CONTINUOUS
10
-134.348
20
-65.5479
11
-134.523
21
-63.5555
0
LINE
8
BLACK
6
CONTINUOUS
10
-129.268
20
-65.1034
11
-126.478
21
-64.8593
0
LINE
8
BLACK
6
CONTINUOUS
10
-126.478
20
-64.8593
11
-126.304
21
-66.8517
0
LINE
8
BLACK
6
CONTINUOUS
10
-126.304
20
-66.8517
11
-129.093
21
-67.0958
0
LINE
8
BLACK
6
CONTINUOUS
10
-129.093
20
-67.0958
11
-129.268
21
-65.1034
0
LINE
8
BLACK
6
CONTINUOUS
10
-124.882
20
-53.2761
11
-121.146
21
-52.9493
0
LINE
8
BLACK
6
CONTINUOUS
10
-121.146
20
-52.9493
11
-120.906
21
-55.6888
0
LINE
8
BLACK
6
CONTINUOUS
10
-120.906
20
-55.6888
11
-124.642
21
-56.0156
0
LINE
8
BLACK
6
CONTINUOUS
10
-124.642
20
-56.0156
11
-124.882
21
-53.2761
0
CIRCLE
8
BLACK
10
-128.3
20
-60.1
40
2.75
0
LINE
8
BLACK
6
CONTINUOUS
10
-68.5
20
-74.4
11
-65.7
21
-74.4
0
LINE
8
BLACK
6
CONTINUOUS
10
-65.7
20
-74.4
11
-65.7
21
-76.4
0
LINE
8
BLACK
6
CONTINUOUS
10
-65.7
20
-76.4
11
-68.5
21
-76.4
0
LINE
8
BLACK
6
CONTINUOUS
10
-68.5
20
-76.4
11
-68.5
21
-74.4
0
LINE
8
BLACK
6
CONTINUOUS
10
-63.4
20
-76.4
11
-60.6
21
-76.4
0
LINE
8
BLACK
6
CONTINUOUS
10
-60.6
20
-76.4
11
-60.6
21
-78.4
0
LINE
8
BLACK
6
CONTINUOUS
10
-60.6
20
-78.4
11
-63.4
21
-78.4
0
LINE
8
BLACK
6
CONTINUOUS
10
-63.4
20
-78.4
11
-63.4
21
-76.4
0
LINE
8
BLACK
6
CONTINUOUS
10
-58
20
-65
11
-54.25
21
-65
0
LINE
8
BLACK
6
CONTINUOUS
10
-54.25
20
-65
11
-54.25
21
-67.75
0
LINE
8
BLACK
6
CONTINUOUS
10
-54.25
20
-67.75
11
-58
21
-67.75
0
LINE
8
BLACK
6
CONTINUOUS
10
-58
20
-67.75
11
-58
21
-65
0
CIRCLE
8
BLACK
10
-62
20
-71.5
40
2.75
0
LINE
8
BLACK
6
CONTINUOUS
10
-58.5
20
-36.4
11
-55.7
21
-36.4
0
LINE
8
BLACK
6
CONTINUOUS
10
-55.7
20
-36.4
11
-55.7
21
-38.4
0
LINE
8
BLACK
6
CONTINUOUS
10
-55.7
20
-38.4
11
-58.5
21
-38.4
0
LINE
8
BLACK
6
CONTINUOUS
10
-58.5
20
-38.4
11
-58.5
21
-36.4
0
LINE
8
BLACK
6
CONTINUOUS
10
-53.4
20
-38.4
11
-50.6
21
-38.4
0
LINE
8
BLACK
6
CONTINUOUS
10
-50.6
20
-38.4
11
-50.6
21
-40.4
0
LINE
8
BLACK
6
CONTINUOUS
10
-50.6
20
-40.4
11
-53.4
21
-40.4
0
LINE
8
BLACK
6
CONTINUOUS
10
-53.4
20
-40.4
11
-53.4
21
-38.4
0
LINE
8
BLACK
6
CONTINUOUS
10
-48
20
-27
11
-44.25
21
-27
0
LINE
8
BLACK
6
CONTINUOUS
10
-44.25
20
-27
11
-44.25
21
-29.75
0
LINE
8
BLACK
6
CONTINUOUS
10
-44.25
20
-29.75
11
-48
21
-29.75
0
LINE
8
BLACK
6
CONTINUOUS
10
-48
20
-29.75
11
-48
21
-27
0
CIRCLE
8
BLACK
10
-52
20
-33.5
40
2.75
0
LINE
8
BLACK
6
CONTINUOUS
10
-116.773
20
-48.3055
11
-113.983
21
-48.0614
0
LINE
8
BLACK
6
CONTINUOUS
10
-113.983
20
-48.0614
11
-113.809
21
-50.0538
0
LINE
8
BLACK
6
CONTINUOUS
10
-113.809
20
-50.0538
11
-116.598
21
-50.2979
0
LINE
8
BLACK
6
CONTINUOUS
10
-116.598
20
-50.2979
11
-116.773
21
-48.3055
0
LINE
8
BLACK
6
CONTINUOUS
10
-111.518
20
-49.8534
11
-108.728
21
-49.6093
0
LINE
8
BLACK
6
CONTINUOUS
10
-108.728
20
-49.6093
11
-108.554
21
-51.6017
0
LINE
8
BLACK
6
CONTINUOUS
10
-108.554
20
-51.6017
11
-111.343
21
-51.8458
0
LINE
8
BLACK
6
CONTINUOUS
10
-111.343
20
-51.8458
11
-111.518
21
-49.8534
0
LINE
8
BLACK
6
CONTINUOUS
10
-107.132
20
-38.0261
11
-103.396
21
-37.6993
0
LINE
8
BLACK
6
CONTINUOUS
10
-103.396
20
-37.6993
11
-103.156
21
-40.4388
0
LINE
8
BLACK
6
CONTINUOUS
10
-103.156
20
-40.4388
11
-106.892
21
-40.7656
0
LINE
8
BLACK
6
CONTINUOUS
10
-106.892
20
-40.7656
11
-107.132
21
-38.0261
0
CIRCLE
8
BLACK
10
-110.55
20
-44.85
40
2.75
0
LINE
8
BLACK
6
CONTINUOUS
10
12.7385
20
-73.8208
11
14.1385
21
-76.2457
0
LINE
8
BLACK
6
CONTINUOUS
10
14.1385
20
-76.2457
11
12.4065
21
-77.2457
0
LINE
8
BLACK
6
CONTINUOUS
10
12.4065
20
-77.2457
11
11.0065
21
-74.8208
0
LINE
8
BLACK
6
CONTINUOUS
10
11.0065
20
-74.8208
11
12.7385
21
-73.8208
0
LINE
8
BLACK
6
CONTINUOUS
10
13.5565
20
-79.2376
11
14.9565
21
-81.6624
0
LINE
8
BLACK
6
CONTINUOUS
10
14.9565
20
-81.6624
11
13.2244
21
-82.6624
0
LINE
8
BLACK
6
CONTINUOUS
10
13.2244
20
-82.6624
11
11.8244
21
-80.2376
0
LINE
8
BLACK
6
CONTINUOUS
10
11.8244
20
-80.2376
11
13.5565
21
-79.2376
0
LINE
8
BLACK
6
CONTINUOUS
10
26.1292
20
-78.2141
11
28.0042
21
-81.4617
0
LINE
8
BLACK
6
CONTINUOUS
10
28.0042
20
-81.4617
11
25.6226
21
-82.8367
0
LINE
8
BLACK
6
CONTINUOUS
10
25.6226
20
-82.8367
11
23.7476
21
-79.5891
0
LINE
8
BLACK
6
CONTINUOUS
10
23.7476
20
-79.5891
11
26.1292
21
-78.2141
0
CIRCLE
8
BLACK
10
18.5
20
-78
40
2.75
0
LINE
8
BLACK
6
CONTINUOUS
10
-19.2385
20
-85.0792
11
-17.8385
21
-82.6543
0
LINE
8
BLACK
6
CONTINUOUS
10
-17.8385
20
-82.6543
11
-16.1065
21
-83.6543
0
LINE
8
BLACK
6
CONTINUOUS
10
-16.1065
20
-83.6543
11
-17.5065
21
-86.0792
0
LINE
8
BLACK
6
CONTINUOUS
10
-17.5065
20
-86.0792
11
-19.2385
21
-85.0792
0
LINE
8
BLACK
6
CONTINUOUS
10
-14.9565
20
-81.6624
11
-13.5565
21
-79.2376
0
LINE
8
BLACK
6
CONTINUOUS
10
-13.5565
20
-79.2376
11
-11.8244
21
-80.2376
0
LINE
8
BLACK
6
CONTINUOUS
10
-11.8244
20
-80.2376
11
-13.2244
21
-82.6624
0
LINE
8
BLACK
6
CONTINUOUS
10
-13.2244
20
-82.6624
11
-14.9565
21
-81.6624
0
LINE
8
BLACK
6
CONTINUOUS
10
-22.1292
20
-71.2859
11
-20.2542
21
-68.0383
0
LINE
8
BLACK
6
CONTINUOUS
10
-20.2542
20
-68.0383
11
-17.8726
21
-69.4133
0
LINE
8
BLACK
6
CONTINUOUS
10
-17.8726
20
-69.4133
11
-19.7476
21
-72.6609
0
LINE
8
BLACK
6
CONTINUOUS
10
-19.7476
20
-72.6609
11
-22.1292
21
-71.2859
0
CIRCLE
8
BLACK
10
-18.5
20
-78
40
2.75
  0
ENDSEC
  0
EOF
