  0
SECTION
  2
HEADER
  9
$ANGBASE
  50
0.0
  9
$ANGDIR
  70
1
  9
$MEASUREMENT
  70
1
  0
ENDSEC
  0
SECTION
  2
TABLES
  0
TABLE
  2
LTYPE
  70
4
  0
LTYPE
  5
40F
  2
CONTINUOUS
  70
0
  3
Solid line
  72
65
  73
0
  40
0.0
  0
LTYPE
  5
410
  2
DASHDOT
 70
0
  3
Dash Dot ____ _ ____ _
 72
65
 73
4
 40
2.0
 49
1.25
 49
-0.25
 49
0.25
 49
-0.25
  0
LTYPE
  5
411
  2
DASHED
 70
0
  3
Dashed __ __ __ __ __
 72
65
 73
2
 40
0.75
 49
0.5
 49
-0.25
  0
LTYPE
  5
43B
  2
DOTTED
 70
0
  3
Dotted .  .  .  .
 72
65
 73
2
 40
0.2
 49
0.0
 49
-0.2
  0
ENDTAB
  0
TABLE
  2
STYLE
  70
4
  0
STYLE
  2
KICAD
  70
0
  40
0
  41
1
  42
1
  50
0
  71
0
  3
isocp.shx
  0
STYLE
  2
KICADB
  70
0
  40
0
  41
1
  42
1
  50
0
  71
0
  3
isocp.shx
  0
STYLE
  2
KICADI
  70
0
  40
0
  41
1
  42
1
  50
15
  71
0
  3
isocp.shx
  0
STYLE
  2
KICADBI
  70
0
  40
0
  41
1
  42
1
  50
15
  71
0
  3
isocp.shx
  0
ENDTAB
  0
TABLE
  2
LAYER
  70
1
  0
LAYER
  2
BLACK
  70
0
  62
7
  6
CONTINUOUS
  0
ENDTAB
  0
ENDSEC
  0
SECTION
  2
ENTITIES
0
LINE
8
BLACK
6
CONTINUOUS
10
147.25
20
-52
11
163.25
21
-52
0
LINE
8
BLACK
6
CONTINUOUS
10
125.25
20
-45.5
11
108.25
21
-45.5
0
LINE
8
BLACK
6
CONTINUOUS
10
184.75
20
-87
11
184.75
21
-117
0
LINE
8
BLACK
6
CONTINUOUS
10
89.25
20
-49.5
11
105.25
21
-49.5
0
LINE
8
BLACK
6
CONTINUOUS
10
184.75
20
-87
11
184.75
21
-56
0
LINE
8
BLACK
6
CONTINUOUS
10
64.75
20
-63.7248
11
65.6204
21
-74.1744
0
LINE
8
BLACK
6
CONTINUOUS
10
89.25
20
-118.5
11
116.25
21
-127
0
ARC
8
BLACK
10
128.25
20
-48.5
40
1.5
50
-180
51
-90
0
LINE
8
BLACK
6
CONTINUOUS
10
70.95
20
-120.1
11
89.25
21
-118.5
0
LINE
8
BLACK
6
CONTINUOUS
10
51.75
20
-116.445
11
67.75
21
-115
0
LINE
8
BLACK
6
CONTINUOUS
10
171.299
20
-140.451
11
184.75
21
-117
0
ARC
8
BLACK
10
105.25
20
-48
40
1.5
50
-90
51
-0
0
LINE
8
BLACK
6
CONTINUOUS
10
86.1758
20
-60.4002
11
66.1136
21
-62.0998
0
ARC
8
BLACK
10
144.25
20
-51.625
40
1.625
50
22.6199
51
90
0
LINE
8
BLACK
6
CONTINUOUS
10
128.25
20
-50
11
144.25
21
-50
0
LINE
8
BLACK
6
CONTINUOUS
10
135.3
20
-127
11
153.75
21
-132
0
LINE
8
BLACK
6
CONTINUOUS
10
87.75
20
-51
11
87.75
21
-58.75
0
ARC
8
BLACK
10
64.1262
20
-74.3051
40
1.49992
50
-85.003
51
5.00081
0
LINE
8
BLACK
6
CONTINUOUS
10
106.75
20
-47
11
106.75
21
-48
0
ARC
8
BLACK
10
125.25
20
-47
40
1.5
50
-0
51
90
0
ARC
8
BLACK
10
166.25
20
-52.975
40
1.525
50
-169.611
51
-90
0
ARC
8
BLACK
10
67.8807
20
-116.494
40
1.50011
50
5.00405
51
94.9984
0
LINE
8
BLACK
6
CONTINUOUS
10
169.25
20
-141
11
153.75
21
-132
0
ARC
8
BLACK
10
66.2444
20
-63.5941
40
1.5001
50
-264.996
51
-175.002
0
LINE
8
BLACK
6
CONTINUOUS
10
126.75
20
-48.5
11
126.75
21
-47
0
ARC
8
BLACK
10
163.25
20
-53.525
40
1.525
50
10.3889
51
90
0
ARC
8
BLACK
10
108.25
20
-47
40
1.5
50
90
51
180
0
ARC
8
BLACK
10
70.9992
20
-118.643
40
1.45773
50
-173.821
51
-91.9342
0
ARC
8
BLACK
10
86.098
20
-58.75
40
1.652
50
-87.3009
51
-0
0
ARC
8
BLACK
10
51.6192
20
-114.951
40
1.4999
50
-175.004
51
-84.9971
0
ARC
8
BLACK
10
147.25
20
-50.375
40
1.625
50
-157.38
51
-90
0
LINE
8
BLACK
6
CONTINUOUS
10
183.25
20
-54.5
11
166.25
21
-54.5
0
LINE
8
BLACK
6
CONTINUOUS
10
135.3
20
-127
11
116.25
21
-127
0
LINE
8
BLACK
6
CONTINUOUS
10
69.375
20
-116.364
11
69.55
21
-118.8
0
ARC
8
BLACK
10
89.25
20
-51
40
1.5
50
90
51
180
0
LINE
8
BLACK
6
CONTINUOUS
10
64.2569
20
-75.7994
11
48.2683
21
-77.275
0
LINE
8
BLACK
6
CONTINUOUS
10
46.9048
20
-78.9
11
50.125
21
-115.082
0
ARC
8
BLACK
10
48.3991
20
-78.7693
40
1.50003
50
-264.999
51
-175.001
0
ARC
8
BLACK
10
183.25
20
-56
40
1.5
50
-0
51
90
0
ARC
8
BLACK
10
170
20
-139.701
40
1.49998
50
-120.001
51
-29.9987
0
LINE
8
BLACK
6
CONTINUOUS
10
174.15
20
-90.95
11
175.35
21
-90.95
0
LINE
8
BLACK
6
CONTINUOUS
10
174.15
20
-93.35
11
175.35
21
-93.35
0
LINE
8
BLACK
6
CONTINUOUS
10
174.15
20
-104.55
11
175.35
21
-104.55
0
LINE
8
BLACK
6
CONTINUOUS
10
174.15
20
-102.15
11
175.35
21
-102.15
0
LINE
8
BLACK
6
CONTINUOUS
10
166
20
-94
11
168.5
21
-94
0
LINE
8
BLACK
6
CONTINUOUS
10
168.5
20
-94
11
168.5
21
-101.5
0
LINE
8
BLACK
6
CONTINUOUS
10
168.5
20
-101.5
11
166
21
-101.5
0
LINE
8
BLACK
6
CONTINUOUS
10
166
20
-101.5
11
166
21
-94
0
ARC
8
BLACK
10
175.35
20
-92.15
40
1.2
50
-90
51
90
0
ARC
8
BLACK
10
174.15
20
-92.15
40
1.2
50
-270
51
-90
0
ARC
8
BLACK
10
174.15
20
-103.35
40
1.2
50
-270
51
-90
0
ARC
8
BLACK
10
175.35
20
-103.35
40
1.2
50
-90
51
90
0
CIRCLE
8
BLACK
10
181.75
20
-95.25
40
1.25
0
CIRCLE
8
BLACK
10
181.75
20
-100.25
40
1.25
0
LINE
8
BLACK
6
CONTINUOUS
10
92.25
20
-62.5
11
93.05
21
-62.5
0
LINE
8
BLACK
6
CONTINUOUS
10
92.25
20
-64.3
11
93.05
21
-64.3
0
LINE
8
BLACK
6
CONTINUOUS
10
97.35
20
-66.3
11
98.15
21
-66.3
0
LINE
8
BLACK
6
CONTINUOUS
10
97.35
20
-64.5
11
98.15
21
-64.5
0
LINE
8
BLACK
6
CONTINUOUS
10
101.75
20
-53
11
105.5
21
-53
0
LINE
8
BLACK
6
CONTINUOUS
10
105.5
20
-53
11
105.5
21
-55.75
0
LINE
8
BLACK
6
CONTINUOUS
10
105.5
20
-55.75
11
101.75
21
-55.75
0
LINE
8
BLACK
6
CONTINUOUS
10
101.75
20
-55.75
11
101.75
21
-53
0
ARC
8
BLACK
10
92.25
20
-63.4
40
0.9
50
-270
51
-90
0
ARC
8
BLACK
10
97.35
20
-65.4
40
0.9
50
-270
51
-90
0
ARC
8
BLACK
10
98.15
20
-65.4
40
0.9
50
-90
51
90
0
ARC
8
BLACK
10
93.05
20
-63.4
40
0.9
50
-90
51
90
0
CIRCLE
8
BLACK
10
97.75
20
-59.5
40
2.75
0
LINE
8
BLACK
6
CONTINUOUS
10
169.098
20
-129.763
11
169.498
21
-129.07
0
LINE
8
BLACK
6
CONTINUOUS
10
170.657
20
-130.663
11
171.057
21
-129.97
0
LINE
8
BLACK
6
CONTINUOUS
10
174.939
20
-127.246
11
175.339
21
-126.554
0
LINE
8
BLACK
6
CONTINUOUS
10
173.38
20
-126.346
11
173.78
21
-125.654
0
LINE
8
BLACK
6
CONTINUOUS
10
165.621
20
-116.786
11
167.496
21
-113.538
0
LINE
8
BLACK
6
CONTINUOUS
10
167.496
20
-113.538
11
169.877
21
-114.913
0
LINE
8
BLACK
6
CONTINUOUS
10
169.877
20
-114.913
11
168.002
21
-118.161
0
LINE
8
BLACK
6
CONTINUOUS
10
168.002
20
-118.161
11
165.621
21
-116.786
0
ARC
8
BLACK
10
169.877
20
-130.213
40
0.9
50
-210
51
-30
0
ARC
8
BLACK
10
174.16
20
-126.796
40
0.9
50
-210
51
-30
0
ARC
8
BLACK
10
174.56
20
-126.104
40
0.9
50
-30
51
150
0
ARC
8
BLACK
10
170.277
20
-129.52
40
0.9
50
-30
51
150
0
CIRCLE
8
BLACK
10
169.25
20
-123.5
40
2.75
0
LINE
8
BLACK
6
CONTINUOUS
10
92.25
20
-100.5
11
93.05
21
-100.5
0
LINE
8
BLACK
6
CONTINUOUS
10
92.25
20
-102.3
11
93.05
21
-102.3
0
LINE
8
BLACK
6
CONTINUOUS
10
97.35
20
-104.3
11
98.15
21
-104.3
0
LINE
8
BLACK
6
CONTINUOUS
10
97.35
20
-102.5
11
98.15
21
-102.5
0
LINE
8
BLACK
6
CONTINUOUS
10
101.75
20
-91
11
105.5
21
-91
0
LINE
8
BLACK
6
CONTINUOUS
10
105.5
20
-91
11
105.5
21
-93.75
0
LINE
8
BLACK
6
CONTINUOUS
10
105.5
20
-93.75
11
101.75
21
-93.75
0
LINE
8
BLACK
6
CONTINUOUS
10
101.75
20
-93.75
11
101.75
21
-91
0
ARC
8
BLACK
10
92.25
20
-101.4
40
0.9
50
-270
51
-90
0
ARC
8
BLACK
10
97.35
20
-103.4
40
0.9
50
-270
51
-90
0
ARC
8
BLACK
10
98.15
20
-103.4
40
0.9
50
-90
51
90
0
ARC
8
BLACK
10
93.05
20
-101.4
40
0.9
50
-90
51
90
0
CIRCLE
8
BLACK
10
97.75
20
-97.5
40
2.75
0
LINE
8
BLACK
6
CONTINUOUS
10
130.25
20
-101
11
131.05
21
-101
0
LINE
8
BLACK
6
CONTINUOUS
10
130.25
20
-102.8
11
131.05
21
-102.8
0
LINE
8
BLACK
6
CONTINUOUS
10
135.35
20
-104.8
11
136.15
21
-104.8
0
LINE
8
BLACK
6
CONTINUOUS
10
135.35
20
-103
11
136.15
21
-103
0
LINE
8
BLACK
6
CONTINUOUS
10
139.75
20
-91.5
11
143.5
21
-91.5
0
LINE
8
BLACK
6
CONTINUOUS
10
143.5
20
-91.5
11
143.5
21
-94.25
0
LINE
8
BLACK
6
CONTINUOUS
10
143.5
20
-94.25
11
139.75
21
-94.25
0
LINE
8
BLACK
6
CONTINUOUS
10
139.75
20
-94.25
11
139.75
21
-91.5
0
ARC
8
BLACK
10
130.25
20
-101.9
40
0.9
50
-270
51
-90
0
ARC
8
BLACK
10
135.35
20
-103.9
40
0.9
50
-270
51
-90
0
ARC
8
BLACK
10
136.15
20
-103.9
40
0.9
50
-90
51
90
0
ARC
8
BLACK
10
131.05
20
-101.9
40
0.9
50
-90
51
90
0
CIRCLE
8
BLACK
10
135.75
20
-98
40
2.75
0
LINE
8
BLACK
6
CONTINUOUS
10
149.25
20
-84
11
150.05
21
-84
0
LINE
8
BLACK
6
CONTINUOUS
10
149.25
20
-85.8
11
150.05
21
-85.8
0
LINE
8
BLACK
6
CONTINUOUS
10
154.35
20
-87.8
11
155.15
21
-87.8
0
LINE
8
BLACK
6
CONTINUOUS
10
154.35
20
-86
11
155.15
21
-86
0
LINE
8
BLACK
6
CONTINUOUS
10
158.75
20
-74.5
11
162.5
21
-74.5
0
LINE
8
BLACK
6
CONTINUOUS
10
162.5
20
-74.5
11
162.5
21
-77.25
0
LINE
8
BLACK
6
CONTINUOUS
10
162.5
20
-77.25
11
158.75
21
-77.25
0
LINE
8
BLACK
6
CONTINUOUS
10
158.75
20
-77.25
11
158.75
21
-74.5
0
ARC
8
BLACK
10
149.25
20
-84.9
40
0.9
50
-270
51
-90
0
ARC
8
BLACK
10
154.35
20
-86.9
40
0.9
50
-270
51
-90
0
ARC
8
BLACK
10
155.15
20
-86.9
40
0.9
50
-90
51
90
0
ARC
8
BLACK
10
150.05
20
-84.9
40
0.9
50
-90
51
90
0
CIRCLE
8
BLACK
10
154.75
20
-81
40
2.75
0
LINE
8
BLACK
6
CONTINUOUS
10
73.6324
20
-112.768
11
74.4294
21
-112.698
0
LINE
8
BLACK
6
CONTINUOUS
10
73.7893
20
-114.561
11
74.5862
21
-114.491
0
LINE
8
BLACK
6
CONTINUOUS
10
79.0442
20
-116.109
11
79.8411
21
-116.039
0
LINE
8
BLACK
6
CONTINUOUS
10
78.8873
20
-114.316
11
79.6843
21
-114.246
0
LINE
8
BLACK
6
CONTINUOUS
10
82.2683
20
-102.476
11
86.004
21
-102.149
0
LINE
8
BLACK
6
CONTINUOUS
10
86.004
20
-102.149
11
86.2437
21
-104.889
0
LINE
8
BLACK
6
CONTINUOUS
10
86.2437
20
-104.889
11
82.5079
21
-105.216
0
LINE
8
BLACK
6
CONTINUOUS
10
82.5079
20
-105.216
11
82.2683
21
-102.476
0
ARC
8
BLACK
10
73.7108
20
-113.665
40
0.9
50
-265
51
-85
0
ARC
8
BLACK
10
78.9657
20
-115.212
40
0.9
50
-265
51
-85
0
ARC
8
BLACK
10
79.7627
20
-115.143
40
0.9
50
-85
51
95
0
ARC
8
BLACK
10
74.5078
20
-113.595
40
0.9
50
-85
51
95
0
CIRCLE
8
BLACK
10
78.85
20
-109.3
40
2.75
0
LINE
8
BLACK
6
CONTINUOUS
10
149.25
20
-65
11
150.05
21
-65
0
LINE
8
BLACK
6
CONTINUOUS
10
149.25
20
-66.8
11
150.05
21
-66.8
0
LINE
8
BLACK
6
CONTINUOUS
10
154.35
20
-68.8
11
155.15
21
-68.8
0
LINE
8
BLACK
6
CONTINUOUS
10
154.35
20
-67
11
155.15
21
-67
0
LINE
8
BLACK
6
CONTINUOUS
10
158.75
20
-55.5
11
162.5
21
-55.5
0
LINE
8
BLACK
6
CONTINUOUS
10
162.5
20
-55.5
11
162.5
21
-58.25
0
LINE
8
BLACK
6
CONTINUOUS
10
162.5
20
-58.25
11
158.75
21
-58.25
0
LINE
8
BLACK
6
CONTINUOUS
10
158.75
20
-58.25
11
158.75
21
-55.5
0
ARC
8
BLACK
10
149.25
20
-65.9
40
0.9
50
-270
51
-90
0
ARC
8
BLACK
10
154.35
20
-67.9
40
0.9
50
-270
51
-90
0
ARC
8
BLACK
10
155.15
20
-67.9
40
0.9
50
-90
51
90
0
ARC
8
BLACK
10
150.05
20
-65.9
40
0.9
50
-90
51
90
0
CIRCLE
8
BLACK
10
154.75
20
-62
40
2.75
0
LINE
8
BLACK
6
CONTINUOUS
10
130.25
20
-82
11
131.05
21
-82
0
LINE
8
BLACK
6
CONTINUOUS
10
130.25
20
-83.8
11
131.05
21
-83.8
0
LINE
8
BLACK
6
CONTINUOUS
10
135.35
20
-85.8
11
136.15
21
-85.8
0
LINE
8
BLACK
6
CONTINUOUS
10
135.35
20
-84
11
136.15
21
-84
0
LINE
8
BLACK
6
CONTINUOUS
10
139.75
20
-72.5
11
143.5
21
-72.5
0
LINE
8
BLACK
6
CONTINUOUS
10
143.5
20
-72.5
11
143.5
21
-75.25
0
LINE
8
BLACK
6
CONTINUOUS
10
143.5
20
-75.25
11
139.75
21
-75.25
0
LINE
8
BLACK
6
CONTINUOUS
10
139.75
20
-75.25
11
139.75
21
-72.5
0
ARC
8
BLACK
10
130.25
20
-82.9
40
0.9
50
-270
51
-90
0
ARC
8
BLACK
10
135.35
20
-84.9
40
0.9
50
-270
51
-90
0
ARC
8
BLACK
10
136.15
20
-84.9
40
0.9
50
-90
51
90
0
ARC
8
BLACK
10
131.05
20
-82.9
40
0.9
50
-90
51
90
0
CIRCLE
8
BLACK
10
135.75
20
-79
40
2.75
0
LINE
8
BLACK
6
CONTINUOUS
10
111.25
20
-77.5
11
112.05
21
-77.5
0
LINE
8
BLACK
6
CONTINUOUS
10
111.25
20
-79.3
11
112.05
21
-79.3
0
LINE
8
BLACK
6
CONTINUOUS
10
116.35
20
-81.3
11
117.15
21
-81.3
0
LINE
8
BLACK
6
CONTINUOUS
10
116.35
20
-79.5
11
117.15
21
-79.5
0
LINE
8
BLACK
6
CONTINUOUS
10
120.75
20
-68
11
124.5
21
-68
0
LINE
8
BLACK
6
CONTINUOUS
10
124.5
20
-68
11
124.5
21
-70.75
0
LINE
8
BLACK
6
CONTINUOUS
10
124.5
20
-70.75
11
120.75
21
-70.75
0
LINE
8
BLACK
6
CONTINUOUS
10
120.75
20
-70.75
11
120.75
21
-68
0
ARC
8
BLACK
10
111.25
20
-78.4
40
0.9
50
-270
51
-90
0
ARC
8
BLACK
10
116.35
20
-80.4
40
0.9
50
-270
51
-90
0
ARC
8
BLACK
10
117.15
20
-80.4
40
0.9
50
-90
51
90
0
ARC
8
BLACK
10
112.05
20
-78.4
40
0.9
50
-90
51
90
0
CIRCLE
8
BLACK
10
116.75
20
-74.5
40
2.75
0
LINE
8
BLACK
6
CONTINUOUS
10
149.25
20
-103
11
150.05
21
-103
0
LINE
8
BLACK
6
CONTINUOUS
10
149.25
20
-104.8
11
150.05
21
-104.8
0
LINE
8
BLACK
6
CONTINUOUS
10
154.35
20
-106.8
11
155.15
21
-106.8
0
LINE
8
BLACK
6
CONTINUOUS
10
154.35
20
-105
11
155.15
21
-105
0
LINE
8
BLACK
6
CONTINUOUS
10
158.75
20
-93.5
11
162.5
21
-93.5
0
LINE
8
BLACK
6
CONTINUOUS
10
162.5
20
-93.5
11
162.5
21
-96.25
0
LINE
8
BLACK
6
CONTINUOUS
10
162.5
20
-96.25
11
158.75
21
-96.25
0
LINE
8
BLACK
6
CONTINUOUS
10
158.75
20
-96.25
11
158.75
21
-93.5
0
ARC
8
BLACK
10
149.25
20
-103.9
40
0.9
50
-270
51
-90
0
ARC
8
BLACK
10
154.35
20
-105.9
40
0.9
50
-270
51
-90
0
ARC
8
BLACK
10
155.15
20
-105.9
40
0.9
50
-90
51
90
0
ARC
8
BLACK
10
150.05
20
-103.9
40
0.9
50
-90
51
90
0
CIRCLE
8
BLACK
10
154.75
20
-100
40
2.75
0
LINE
8
BLACK
6
CONTINUOUS
10
54.2324
20
-109.068
11
55.0294
21
-108.998
0
LINE
8
BLACK
6
CONTINUOUS
10
54.3893
20
-110.861
11
55.1862
21
-110.791
0
LINE
8
BLACK
6
CONTINUOUS
10
59.6442
20
-112.409
11
60.4411
21
-112.339
0
LINE
8
BLACK
6
CONTINUOUS
10
59.4873
20
-110.616
11
60.2843
21
-110.546
0
LINE
8
BLACK
6
CONTINUOUS
10
62.8683
20
-98.7761
11
66.604
21
-98.4493
0
LINE
8
BLACK
6
CONTINUOUS
10
66.604
20
-98.4493
11
66.8437
21
-101.189
0
LINE
8
BLACK
6
CONTINUOUS
10
66.8437
20
-101.189
11
63.1079
21
-101.516
0
LINE
8
BLACK
6
CONTINUOUS
10
63.1079
20
-101.516
11
62.8683
21
-98.7761
0
ARC
8
BLACK
10
54.3108
20
-109.965
40
0.9
50
-265
51
-85
0
ARC
8
BLACK
10
59.5657
20
-111.512
40
0.9
50
-265
51
-85
0
ARC
8
BLACK
10
60.3627
20
-111.443
40
0.9
50
-85
51
95
0
ARC
8
BLACK
10
55.1078
20
-109.895
40
0.9
50
-85
51
95
0
CIRCLE
8
BLACK
10
59.45
20
-105.6
40
2.75
0
LINE
8
BLACK
6
CONTINUOUS
10
92.25
20
-81.5
11
93.05
21
-81.5
0
LINE
8
BLACK
6
CONTINUOUS
10
92.25
20
-83.3
11
93.05
21
-83.3
0
LINE
8
BLACK
6
CONTINUOUS
10
97.35
20
-85.3
11
98.15
21
-85.3
0
LINE
8
BLACK
6
CONTINUOUS
10
97.35
20
-83.5
11
98.15
21
-83.5
0
LINE
8
BLACK
6
CONTINUOUS
10
101.75
20
-72
11
105.5
21
-72
0
LINE
8
BLACK
6
CONTINUOUS
10
105.5
20
-72
11
105.5
21
-74.75
0
LINE
8
BLACK
6
CONTINUOUS
10
105.5
20
-74.75
11
101.75
21
-74.75
0
LINE
8
BLACK
6
CONTINUOUS
10
101.75
20
-74.75
11
101.75
21
-72
0
ARC
8
BLACK
10
92.25
20
-82.4
40
0.9
50
-270
51
-90
0
ARC
8
BLACK
10
97.35
20
-84.4
40
0.9
50
-270
51
-90
0
ARC
8
BLACK
10
98.15
20
-84.4
40
0.9
50
-90
51
90
0
ARC
8
BLACK
10
93.05
20
-82.4
40
0.9
50
-90
51
90
0
CIRCLE
8
BLACK
10
97.75
20
-78.5
40
2.75
0
LINE
8
BLACK
6
CONTINUOUS
10
52.5324
20
-90.0679
11
53.3294
21
-89.9982
0
LINE
8
BLACK
6
CONTINUOUS
10
52.6893
20
-91.8611
11
53.4862
21
-91.7914
0
LINE
8
BLACK
6
CONTINUOUS
10
57.9442
20
-93.409
11
58.7411
21
-93.3393
0
LINE
8
BLACK
6
CONTINUOUS
10
57.7873
20
-91.6158
11
58.5843
21
-91.5461
0
LINE
8
BLACK
6
CONTINUOUS
10
61.1683
20
-79.7761
11
64.904
21
-79.4493
0
LINE
8
BLACK
6
CONTINUOUS
10
64.904
20
-79.4493
11
65.1437
21
-82.1888
0
LINE
8
BLACK
6
CONTINUOUS
10
65.1437
20
-82.1888
11
61.4079
21
-82.5156
0
LINE
8
BLACK
6
CONTINUOUS
10
61.4079
20
-82.5156
11
61.1683
21
-79.7761
0
ARC
8
BLACK
10
52.6108
20
-90.9645
40
0.9
50
-265
51
-85
0
ARC
8
BLACK
10
57.8657
20
-92.5124
40
0.9
50
-265
51
-85
0
ARC
8
BLACK
10
58.6627
20
-92.4427
40
0.9
50
-85
51
95
0
ARC
8
BLACK
10
53.4078
20
-90.8948
40
0.9
50
-85
51
95
0
CIRCLE
8
BLACK
10
57.75
20
-86.6
40
2.75
0
LINE
8
BLACK
6
CONTINUOUS
10
71.9824
20
-93.8179
11
72.7794
21
-93.7482
0
LINE
8
BLACK
6
CONTINUOUS
10
72.1393
20
-95.6111
11
72.9362
21
-95.5414
0
LINE
8
BLACK
6
CONTINUOUS
10
77.3942
20
-97.159
11
78.1911
21
-97.0893
0
LINE
8
BLACK
6
CONTINUOUS
10
77.2373
20
-95.3658
11
78.0343
21
-95.2961
0
LINE
8
BLACK
6
CONTINUOUS
10
80.6183
20
-83.5261
11
84.354
21
-83.1993
0
LINE
8
BLACK
6
CONTINUOUS
10
84.354
20
-83.1993
11
84.5937
21
-85.9388
0
LINE
8
BLACK
6
CONTINUOUS
10
84.5937
20
-85.9388
11
80.8579
21
-86.2656
0
LINE
8
BLACK
6
CONTINUOUS
10
80.8579
20
-86.2656
11
80.6183
21
-83.5261
0
ARC
8
BLACK
10
72.0608
20
-94.7145
40
0.9
50
-265
51
-85
0
ARC
8
BLACK
10
77.3157
20
-96.2624
40
0.9
50
-265
51
-85
0
ARC
8
BLACK
10
78.1127
20
-96.1927
40
0.9
50
-85
51
95
0
ARC
8
BLACK
10
72.8578
20
-94.6448
40
0.9
50
-85
51
95
0
CIRCLE
8
BLACK
10
77.2
20
-90.35
40
2.75
0
LINE
8
BLACK
6
CONTINUOUS
10
140.911
20
-121.224
11
141.684
21
-121.431
0
LINE
8
BLACK
6
CONTINUOUS
10
140.445
20
-122.963
11
141.218
21
-123.17
0
LINE
8
BLACK
6
CONTINUOUS
10
144.854
20
-126.215
11
145.626
21
-126.422
0
LINE
8
BLACK
6
CONTINUOUS
10
145.32
20
-124.476
11
146.092
21
-124.683
0
LINE
8
BLACK
6
CONTINUOUS
10
152.546
20
-114.507
11
156.168
21
-115.477
0
LINE
8
BLACK
6
CONTINUOUS
10
156.168
20
-115.477
11
155.456
21
-118.134
0
LINE
8
BLACK
6
CONTINUOUS
10
155.456
20
-118.134
11
151.834
21
-117.163
0
LINE
8
BLACK
6
CONTINUOUS
10
151.834
20
-117.163
11
152.546
21
-114.507
0
ARC
8
BLACK
10
140.678
20
-122.094
40
0.9
50
-285
51
-105
0
ARC
8
BLACK
10
145.087
20
-125.345
40
0.9
50
-285
51
-105
0
ARC
8
BLACK
10
145.859
20
-125.552
40
0.9
50
-105
51
75
0
ARC
8
BLACK
10
141.451
20
-122.301
40
0.9
50
-105
51
75
0
CIRCLE
8
BLACK
10
147
20
-119.75
40
2.75
0
LINE
8
BLACK
6
CONTINUOUS
10
70.3324
20
-74.8679
11
71.1294
21
-74.7982
0
LINE
8
BLACK
6
CONTINUOUS
10
70.4893
20
-76.6611
11
71.2862
21
-76.5914
0
LINE
8
BLACK
6
CONTINUOUS
10
75.7442
20
-78.209
11
76.5411
21
-78.1393
0
LINE
8
BLACK
6
CONTINUOUS
10
75.5873
20
-76.4158
11
76.3843
21
-76.3461
0
LINE
8
BLACK
6
CONTINUOUS
10
78.9683
20
-64.5761
11
82.704
21
-64.2493
0
LINE
8
BLACK
6
CONTINUOUS
10
82.704
20
-64.2493
11
82.9437
21
-66.9888
0
LINE
8
BLACK
6
CONTINUOUS
10
82.9437
20
-66.9888
11
79.2079
21
-67.3156
0
LINE
8
BLACK
6
CONTINUOUS
10
79.2079
20
-67.3156
11
78.9683
21
-64.5761
0
ARC
8
BLACK
10
70.4108
20
-75.7645
40
0.9
50
-265
51
-85
0
ARC
8
BLACK
10
75.6657
20
-77.3124
40
0.9
50
-265
51
-85
0
ARC
8
BLACK
10
76.4627
20
-77.2427
40
0.9
50
-85
51
95
0
ARC
8
BLACK
10
71.2078
20
-75.6948
40
0.9
50
-85
51
95
0
CIRCLE
8
BLACK
10
75.55
20
-71.4
40
2.75
0
LINE
8
BLACK
6
CONTINUOUS
10
130.25
20
-63
11
131.05
21
-63
0
LINE
8
BLACK
6
CONTINUOUS
10
130.25
20
-64.8
11
131.05
21
-64.8
0
LINE
8
BLACK
6
CONTINUOUS
10
135.35
20
-66.8
11
136.15
21
-66.8
0
LINE
8
BLACK
6
CONTINUOUS
10
135.35
20
-65
11
136.15
21
-65
0
LINE
8
BLACK
6
CONTINUOUS
10
139.75
20
-53.5
11
143.5
21
-53.5
0
LINE
8
BLACK
6
CONTINUOUS
10
143.5
20
-53.5
11
143.5
21
-56.25
0
LINE
8
BLACK
6
CONTINUOUS
10
143.5
20
-56.25
11
139.75
21
-56.25
0
LINE
8
BLACK
6
CONTINUOUS
10
139.75
20
-56.25
11
139.75
21
-53.5
0
ARC
8
BLACK
10
130.25
20
-63.9
40
0.9
50
-270
51
-90
0
ARC
8
BLACK
10
135.35
20
-65.9
40
0.9
50
-270
51
-90
0
ARC
8
BLACK
10
136.15
20
-65.9
40
0.9
50
-90
51
90
0
ARC
8
BLACK
10
131.05
20
-63.9
40
0.9
50
-90
51
90
0
CIRCLE
8
BLACK
10
135.75
20
-60
40
2.75
0
LINE
8
BLACK
6
CONTINUOUS
10
111.25
20
-96.5
11
112.05
21
-96.5
0
LINE
8
BLACK
6
CONTINUOUS
10
111.25
20
-98.3
11
112.05
21
-98.3
0
LINE
8
BLACK
6
CONTINUOUS
10
116.35
20
-100.3
11
117.15
21
-100.3
0
LINE
8
BLACK
6
CONTINUOUS
10
116.35
20
-98.5
11
117.15
21
-98.5
0
LINE
8
BLACK
6
CONTINUOUS
10
120.75
20
-87
11
124.5
21
-87
0
LINE
8
BLACK
6
CONTINUOUS
10
124.5
20
-87
11
124.5
21
-89.75
0
LINE
8
BLACK
6
CONTINUOUS
10
124.5
20
-89.75
11
120.75
21
-89.75
0
LINE
8
BLACK
6
CONTINUOUS
10
120.75
20
-89.75
11
120.75
21
-87
0
ARC
8
BLACK
10
111.25
20
-97.4
40
0.9
50
-270
51
-90
0
ARC
8
BLACK
10
116.35
20
-99.4
40
0.9
50
-270
51
-90
0
ARC
8
BLACK
10
117.15
20
-99.4
40
0.9
50
-90
51
90
0
ARC
8
BLACK
10
112.05
20
-97.4
40
0.9
50
-90
51
90
0
CIRCLE
8
BLACK
10
116.75
20
-93.5
40
2.75
0
LINE
8
BLACK
6
CONTINUOUS
10
120.25
20
-120
11
121.05
21
-120
0
LINE
8
BLACK
6
CONTINUOUS
10
120.25
20
-121.8
11
121.05
21
-121.8
0
LINE
8
BLACK
6
CONTINUOUS
10
125.35
20
-123.8
11
126.15
21
-123.8
0
LINE
8
BLACK
6
CONTINUOUS
10
125.35
20
-122
11
126.15
21
-122
0
LINE
8
BLACK
6
CONTINUOUS
10
129.75
20
-110.5
11
133.5
21
-110.5
0
LINE
8
BLACK
6
CONTINUOUS
10
133.5
20
-110.5
11
133.5
21
-113.25
0
LINE
8
BLACK
6
CONTINUOUS
10
133.5
20
-113.25
11
129.75
21
-113.25
0
LINE
8
BLACK
6
CONTINUOUS
10
129.75
20
-113.25
11
129.75
21
-110.5
0
ARC
8
BLACK
10
120.25
20
-120.9
40
0.9
50
-270
51
-90
0
ARC
8
BLACK
10
125.35
20
-122.9
40
0.9
50
-270
51
-90
0
ARC
8
BLACK
10
126.15
20
-122.9
40
0.9
50
-90
51
90
0
ARC
8
BLACK
10
121.05
20
-120.9
40
0.9
50
-90
51
90
0
CIRCLE
8
BLACK
10
125.75
20
-117
40
2.75
0
LINE
8
BLACK
6
CONTINUOUS
10
111.25
20
-58.5
11
112.05
21
-58.5
0
LINE
8
BLACK
6
CONTINUOUS
10
111.25
20
-60.3
11
112.05
21
-60.3
0
LINE
8
BLACK
6
CONTINUOUS
10
116.35
20
-62.3
11
117.15
21
-62.3
0
LINE
8
BLACK
6
CONTINUOUS
10
116.35
20
-60.5
11
117.15
21
-60.5
0
LINE
8
BLACK
6
CONTINUOUS
10
120.75
20
-49
11
124.5
21
-49
0
LINE
8
BLACK
6
CONTINUOUS
10
124.5
20
-49
11
124.5
21
-51.75
0
LINE
8
BLACK
6
CONTINUOUS
10
124.5
20
-51.75
11
120.75
21
-51.75
0
LINE
8
BLACK
6
CONTINUOUS
10
120.75
20
-51.75
11
120.75
21
-49
0
ARC
8
BLACK
10
111.25
20
-59.4
40
0.9
50
-270
51
-90
0
ARC
8
BLACK
10
116.35
20
-61.4
40
0.9
50
-270
51
-90
0
ARC
8
BLACK
10
117.15
20
-61.4
40
0.9
50
-90
51
90
0
ARC
8
BLACK
10
112.05
20
-59.4
40
0.9
50
-90
51
90
0
CIRCLE
8
BLACK
10
116.75
20
-55.5
40
2.75
0
CIRCLE
8
BLACK
10
87.05
20
-69
40
1.15
0
CIRCLE
8
BLACK
10
67.5
20
-95.25
40
1.15
0
LINE
8
BLACK
6
CONTINUOUS
10
121.95
20
-103.75
11
119.95
21
-103.75
0
LINE
8
BLACK
6
CONTINUOUS
10
119.95
20
-103.75
11
119.95
21
-107.75
0
LINE
8
BLACK
6
CONTINUOUS
10
119.95
20
-107.75
11
121.95
21
-107.75
0
LINE
8
BLACK
6
CONTINUOUS
10
121.95
20
-107.75
11
121.95
21
-103.75
0
CIRCLE
8
BLACK
10
108.25
20
-103.5
40
1.15
0
CIRCLE
8
BLACK
10
168.75
20
-78.5
40
1.15
0
CIRCLE
8
BLACK
10
177.5
20
-78.5
40
1.15
0
CIRCLE
8
BLACK
10
159.75
20
-117.5
40
1.15
0
CIRCLE
8
BLACK
10
146.25
20
-71.5
40
1.15
0
LINE
8
BLACK
6
CONTINUOUS
10
100.75
20
-66.5
11
94.75
21
-66.5
0
LINE
8
BLACK
6
CONTINUOUS
10
94.75
20
-66.5
11
94.75
21
-68.5
0
LINE
8
BLACK
6
CONTINUOUS
10
94.75
20
-68.5
11
100.75
21
-68.5
0
LINE
8
BLACK
6
CONTINUOUS
10
100.75
20
-68.5
11
100.75
21
-66.5
0
LINE
8
BLACK
6
CONTINUOUS
10
138.75
20
-105.048
11
132.75
21
-105.048
0
LINE
8
BLACK
6
CONTINUOUS
10
132.75
20
-105.048
11
132.75
21
-107.048
0
LINE
8
BLACK
6
CONTINUOUS
10
132.75
20
-107.048
11
138.75
21
-107.048
0
LINE
8
BLACK
6
CONTINUOUS
10
138.75
20
-107.048
11
138.75
21
-105.048
0
LINE
8
BLACK
6
CONTINUOUS
10
147.75
20
-108.5
11
141.75
21
-108.5
0
LINE
8
BLACK
6
CONTINUOUS
10
141.75
20
-108.5
11
141.75
21
-110.5
0
LINE
8
BLACK
6
CONTINUOUS
10
141.75
20
-110.5
11
147.75
21
-110.5
0
LINE
8
BLACK
6
CONTINUOUS
10
147.75
20
-110.5
11
147.75
21
-108.5
0
LINE
8
BLACK
6
CONTINUOUS
10
138.75
20
-67.0483
11
132.75
21
-67.0483
0
LINE
8
BLACK
6
CONTINUOUS
10
132.75
20
-67.0483
11
132.75
21
-69.0483
0
LINE
8
BLACK
6
CONTINUOUS
10
132.75
20
-69.0483
11
138.75
21
-69.0483
0
LINE
8
BLACK
6
CONTINUOUS
10
138.75
20
-69.0483
11
138.75
21
-67.0483
0
LINE
8
BLACK
6
CONTINUOUS
10
167.95
20
-107.3
11
169.95
21
-107.3
0
LINE
8
BLACK
6
CONTINUOUS
10
169.95
20
-107.3
11
169.95
21
-113.3
0
LINE
8
BLACK
6
CONTINUOUS
10
169.95
20
-113.3
11
167.95
21
-113.3
0
LINE
8
BLACK
6
CONTINUOUS
10
167.95
20
-113.3
11
167.95
21
-107.3
0
LINE
8
BLACK
6
CONTINUOUS
10
80.7046
20
-97.0396
11
74.7275
21
-97.5625
0
LINE
8
BLACK
6
CONTINUOUS
10
74.7275
20
-97.5625
11
74.9018
21
-99.5549
0
LINE
8
BLACK
6
CONTINUOUS
10
74.9018
20
-99.5549
11
80.8789
21
-99.032
0
LINE
8
BLACK
6
CONTINUOUS
10
80.8789
20
-99.032
11
80.7046
21
-97.0396
0
LINE
8
BLACK
6
CONTINUOUS
10
61.4514
20
-93.3423
11
55.4743
21
-93.8653
0
LINE
8
BLACK
6
CONTINUOUS
10
55.4743
20
-93.8653
11
55.6486
21
-95.8577
0
LINE
8
BLACK
6
CONTINUOUS
10
55.6486
20
-95.8577
11
61.6257
21
-95.3347
0
LINE
8
BLACK
6
CONTINUOUS
10
61.6257
20
-95.3347
11
61.4514
21
-93.3423
0
LINE
8
BLACK
6
CONTINUOUS
10
100.75
20
-85.5
11
94.75
21
-85.5
0
LINE
8
BLACK
6
CONTINUOUS
10
94.75
20
-85.5
11
94.75
21
-87.5
0
LINE
8
BLACK
6
CONTINUOUS
10
94.75
20
-87.5
11
100.75
21
-87.5
0
LINE
8
BLACK
6
CONTINUOUS
10
100.75
20
-87.5
11
100.75
21
-85.5
0
LINE
8
BLACK
6
CONTINUOUS
10
157.75
20
-88
11
151.75
21
-88
0
LINE
8
BLACK
6
CONTINUOUS
10
151.75
20
-88
11
151.75
21
-90
0
LINE
8
BLACK
6
CONTINUOUS
10
151.75
20
-90
11
157.75
21
-90
0
LINE
8
BLACK
6
CONTINUOUS
10
157.75
20
-90
11
157.75
21
-88
0
LINE
8
BLACK
6
CONTINUOUS
10
157.75
20
-107
11
151.75
21
-107
0
LINE
8
BLACK
6
CONTINUOUS
10
151.75
20
-107
11
151.75
21
-109
0
LINE
8
BLACK
6
CONTINUOUS
10
151.75
20
-109
11
157.75
21
-109
0
LINE
8
BLACK
6
CONTINUOUS
10
157.75
20
-109
11
157.75
21
-107
0
LINE
8
BLACK
6
CONTINUOUS
10
119.75
20
-62.5
11
113.75
21
-62.5
0
LINE
8
BLACK
6
CONTINUOUS
10
113.75
20
-62.5
11
113.75
21
-64.5
0
LINE
8
BLACK
6
CONTINUOUS
10
113.75
20
-64.5
11
119.75
21
-64.5
0
LINE
8
BLACK
6
CONTINUOUS
10
119.75
20
-64.5
11
119.75
21
-62.5
0
LINE
8
BLACK
6
CONTINUOUS
10
157.75
20
-69
11
151.75
21
-69
0
LINE
8
BLACK
6
CONTINUOUS
10
151.75
20
-69
11
151.75
21
-71
0
LINE
8
BLACK
6
CONTINUOUS
10
151.75
20
-71
11
157.75
21
-71
0
LINE
8
BLACK
6
CONTINUOUS
10
157.75
20
-71
11
157.75
21
-69
0
LINE
8
BLACK
6
CONTINUOUS
10
138.75
20
-86.0483
11
132.75
21
-86.0483
0
LINE
8
BLACK
6
CONTINUOUS
10
132.75
20
-86.0483
11
132.75
21
-88.0483
0
LINE
8
BLACK
6
CONTINUOUS
10
132.75
20
-88.0483
11
138.75
21
-88.0483
0
LINE
8
BLACK
6
CONTINUOUS
10
138.75
20
-88.0483
11
138.75
21
-86.0483
0
LINE
8
BLACK
6
CONTINUOUS
10
128.75
20
-107.5
11
122.75
21
-107.5
0
LINE
8
BLACK
6
CONTINUOUS
10
122.75
20
-107.5
11
122.75
21
-109.5
0
LINE
8
BLACK
6
CONTINUOUS
10
122.75
20
-109.5
11
128.75
21
-109.5
0
LINE
8
BLACK
6
CONTINUOUS
10
128.75
20
-109.5
11
128.75
21
-107.5
0
LINE
8
BLACK
6
CONTINUOUS
10
100.75
20
-104.5
11
94.75
21
-104.5
0
LINE
8
BLACK
6
CONTINUOUS
10
94.75
20
-104.5
11
94.75
21
-106.5
0
LINE
8
BLACK
6
CONTINUOUS
10
94.75
20
-106.5
11
100.75
21
-106.5
0
LINE
8
BLACK
6
CONTINUOUS
10
100.75
20
-106.5
11
100.75
21
-104.5
0
LINE
8
BLACK
6
CONTINUOUS
10
61.6514
20
-95.8423
11
55.6743
21
-96.3653
0
LINE
8
BLACK
6
CONTINUOUS
10
55.6743
20
-96.3653
11
55.8486
21
-98.3577
0
LINE
8
BLACK
6
CONTINUOUS
10
55.8486
20
-98.3577
11
61.8257
21
-97.8347
0
LINE
8
BLACK
6
CONTINUOUS
10
61.8257
20
-97.8347
11
61.6514
21
-95.8423
0
LINE
8
BLACK
6
CONTINUOUS
10
79.0487
20
-78.1119
11
73.0715
21
-78.6348
0
LINE
8
BLACK
6
CONTINUOUS
10
73.0715
20
-78.6348
11
73.2458
21
-80.6272
0
LINE
8
BLACK
6
CONTINUOUS
10
73.2458
20
-80.6272
11
79.223
21
-80.1043
0
LINE
8
BLACK
6
CONTINUOUS
10
79.223
20
-80.1043
11
79.0487
21
-78.1119
0
LINE
8
BLACK
6
CONTINUOUS
10
80.9225
20
-99.5301
11
74.9454
21
-100.053
0
LINE
8
BLACK
6
CONTINUOUS
10
74.9454
20
-100.053
11
75.1197
21
-102.045
0
LINE
8
BLACK
6
CONTINUOUS
10
75.1197
20
-102.045
11
81.0968
21
-101.522
0
LINE
8
BLACK
6
CONTINUOUS
10
81.0968
20
-101.522
11
80.9225
21
-99.5301
0
LINE
8
BLACK
6
CONTINUOUS
10
119.75
20
-100.5
11
113.75
21
-100.5
0
LINE
8
BLACK
6
CONTINUOUS
10
113.75
20
-100.5
11
113.75
21
-102.5
0
LINE
8
BLACK
6
CONTINUOUS
10
113.75
20
-102.5
11
119.75
21
-102.5
0
LINE
8
BLACK
6
CONTINUOUS
10
119.75
20
-102.5
11
119.75
21
-100.5
0
LINE
8
BLACK
6
CONTINUOUS
10
119.75
20
-81.5
11
113.75
21
-81.5
0
LINE
8
BLACK
6
CONTINUOUS
10
113.75
20
-81.5
11
113.75
21
-83.5
0
LINE
8
BLACK
6
CONTINUOUS
10
113.75
20
-83.5
11
119.75
21
-83.5
0
LINE
8
BLACK
6
CONTINUOUS
10
119.75
20
-83.5
11
119.75
21
-81.5
  0
ENDSEC
  0
EOF
