  0
SECTION
  2
HEADER
  9
$ANGBASE
  50
0.0
  9
$ANGDIR
  70
1
  9
$MEASUREMENT
  70
1
  0
ENDSEC
  0
SECTION
  2
TABLES
  0
TABLE
  2
LTYPE
  70
4
  0
LTYPE
  5
40F
  2
CONTINUOUS
  70
0
  3
Solid line
  72
65
  73
0
  40
0.0
  0
LTYPE
  5
410
  2
DASHDOT
 70
0
  3
Dash Dot ____ _ ____ _
 72
65
 73
4
 40
2.0
 49
1.25
 49
-0.25
 49
0.25
 49
-0.25
  0
LTYPE
  5
411
  2
DASHED
 70
0
  3
Dashed __ __ __ __ __
 72
65
 73
2
 40
0.75
 49
0.5
 49
-0.25
  0
LTYPE
  5
43B
  2
DOTTED
 70
0
  3
Dotted .  .  .  .
 72
65
 73
2
 40
0.2
 49
0.0
 49
-0.2
  0
ENDTAB
  0
TABLE
  2
STYLE
  70
4
  0
STYLE
  2
KICAD
  70
0
  40
0
  41
1
  42
1
  50
0
  71
0
  3
isocp.shx
  0
STYLE
  2
KICADB
  70
0
  40
0
  41
1
  42
1
  50
0
  71
0
  3
isocp.shx
  0
STYLE
  2
KICADI
  70
0
  40
0
  41
1
  42
1
  50
15
  71
0
  3
isocp.shx
  0
STYLE
  2
KICADBI
  70
0
  40
0
  41
1
  42
1
  50
15
  71
0
  3
isocp.shx
  0
ENDTAB
  0
TABLE
  2
LAYER
  70
1
  0
LAYER
  2
BLACK
  70
0
  62
7
  6
CONTINUOUS
  0
ENDTAB
  0
ENDSEC
  0
SECTION
  2
ENTITIES
0
LINE
8
BLACK
6
CONTINUOUS
10
147.25
20
-52
11
163.25
21
-52
0
LINE
8
BLACK
6
CONTINUOUS
10
125.25
20
-45.5
11
108.25
21
-45.5
0
LINE
8
BLACK
6
CONTINUOUS
10
184.75
20
-87
11
184.75
21
-117
0
LINE
8
BLACK
6
CONTINUOUS
10
89.25
20
-49.5
11
105.25
21
-49.5
0
LINE
8
BLACK
6
CONTINUOUS
10
184.75
20
-87
11
184.75
21
-56
0
LINE
8
BLACK
6
CONTINUOUS
10
64.75
20
-63.7248
11
65.6204
21
-74.1744
0
LINE
8
BLACK
6
CONTINUOUS
10
89.25
20
-118.5
11
116.25
21
-127
0
ARC
8
BLACK
10
128.25
20
-48.5
40
1.5
50
-180
51
-90
0
LINE
8
BLACK
6
CONTINUOUS
10
70.95
20
-120.1
11
89.25
21
-118.5
0
LINE
8
BLACK
6
CONTINUOUS
10
51.75
20
-116.445
11
67.75
21
-115
0
LINE
8
BLACK
6
CONTINUOUS
10
171.299
20
-140.451
11
184.75
21
-117
0
ARC
8
BLACK
10
105.25
20
-48
40
1.5
50
-90
51
-0
0
LINE
8
BLACK
6
CONTINUOUS
10
86.1758
20
-60.4002
11
66.1136
21
-62.0998
0
ARC
8
BLACK
10
144.25
20
-51.625
40
1.625
50
22.6199
51
90
0
LINE
8
BLACK
6
CONTINUOUS
10
128.25
20
-50
11
144.25
21
-50
0
LINE
8
BLACK
6
CONTINUOUS
10
135.3
20
-127
11
153.75
21
-132
0
LINE
8
BLACK
6
CONTINUOUS
10
87.75
20
-51
11
87.75
21
-58.75
0
ARC
8
BLACK
10
64.1262
20
-74.3051
40
1.49992
50
-85.003
51
5.00081
0
LINE
8
BLACK
6
CONTINUOUS
10
106.75
20
-47
11
106.75
21
-48
0
ARC
8
BLACK
10
125.25
20
-47
40
1.5
50
-0
51
90
0
ARC
8
BLACK
10
166.25
20
-52.975
40
1.525
50
-169.611
51
-90
0
ARC
8
BLACK
10
67.8807
20
-116.494
40
1.50011
50
5.00405
51
94.9984
0
LINE
8
BLACK
6
CONTINUOUS
10
169.25
20
-141
11
153.75
21
-132
0
ARC
8
BLACK
10
66.2444
20
-63.5941
40
1.5001
50
-264.996
51
-175.002
0
LINE
8
BLACK
6
CONTINUOUS
10
126.75
20
-48.5
11
126.75
21
-47
0
ARC
8
BLACK
10
163.25
20
-53.525
40
1.525
50
10.3889
51
90
0
ARC
8
BLACK
10
108.25
20
-47
40
1.5
50
90
51
180
0
ARC
8
BLACK
10
70.9992
20
-118.643
40
1.45773
50
-173.821
51
-91.9342
0
ARC
8
BLACK
10
86.098
20
-58.75
40
1.652
50
-87.3009
51
-0
0
ARC
8
BLACK
10
51.6192
20
-114.951
40
1.4999
50
-175.004
51
-84.9971
0
ARC
8
BLACK
10
147.25
20
-50.375
40
1.625
50
-157.38
51
-90
0
LINE
8
BLACK
6
CONTINUOUS
10
183.25
20
-54.5
11
166.25
21
-54.5
0
LINE
8
BLACK
6
CONTINUOUS
10
135.3
20
-127
11
116.25
21
-127
0
LINE
8
BLACK
6
CONTINUOUS
10
69.375
20
-116.364
11
69.55
21
-118.8
0
ARC
8
BLACK
10
89.25
20
-51
40
1.5
50
90
51
180
0
LINE
8
BLACK
6
CONTINUOUS
10
64.2569
20
-75.7994
11
48.2683
21
-77.275
0
LINE
8
BLACK
6
CONTINUOUS
10
46.9048
20
-78.9
11
50.125
21
-115.082
0
ARC
8
BLACK
10
48.3991
20
-78.7693
40
1.50003
50
-264.999
51
-175.001
0
ARC
8
BLACK
10
183.25
20
-56
40
1.5
50
-0
51
90
0
ARC
8
BLACK
10
170
20
-139.701
40
1.49998
50
-120.001
51
-29.9987
0
LINE
8
BLACK
6
CONTINUOUS
10
174.15
20
-90.95
11
175.35
21
-90.95
0
LINE
8
BLACK
6
CONTINUOUS
10
174.15
20
-93.35
11
175.35
21
-93.35
0
LINE
8
BLACK
6
CONTINUOUS
10
174.15
20
-104.55
11
175.35
21
-104.55
0
LINE
8
BLACK
6
CONTINUOUS
10
174.15
20
-102.15
11
175.35
21
-102.15
0
LINE
8
BLACK
6
CONTINUOUS
10
166
20
-94
11
168.5
21
-94
0
LINE
8
BLACK
6
CONTINUOUS
10
168.5
20
-94
11
168.5
21
-101.5
0
LINE
8
BLACK
6
CONTINUOUS
10
168.5
20
-101.5
11
166
21
-101.5
0
LINE
8
BLACK
6
CONTINUOUS
10
166
20
-101.5
11
166
21
-94
0
ARC
8
BLACK
10
175.35
20
-92.15
40
1.2
50
-90
51
90
0
ARC
8
BLACK
10
174.15
20
-92.15
40
1.2
50
-270
51
-90
0
ARC
8
BLACK
10
174.15
20
-103.35
40
1.2
50
-270
51
-90
0
ARC
8
BLACK
10
175.35
20
-103.35
40
1.2
50
-90
51
90
0
CIRCLE
8
BLACK
10
181.75
20
-95.25
40
1.25
0
CIRCLE
8
BLACK
10
181.75
20
-100.25
40
1.25
0
LINE
8
BLACK
6
CONTINUOUS
10
91.45
20
-55.5
11
88.75
21
-55.5
0
LINE
8
BLACK
6
CONTINUOUS
10
102.75
20
-52.5
11
93.4642
21
-52.5
0
LINE
8
BLACK
6
CONTINUOUS
10
91.25
20
-60.5
11
95.5
21
-60.5
0
LINE
8
BLACK
6
CONTINUOUS
10
91.25
20
-58.5
11
91.25
21
-60.5
0
LINE
8
BLACK
6
CONTINUOUS
10
102.75
20
-55.75
11
105.5
21
-55.75
0
LINE
8
BLACK
6
CONTINUOUS
10
102.75
20
-58.5
11
102.75
21
-55.75
0
LINE
8
BLACK
6
CONTINUOUS
10
91.45
20
-55.5
11
91.45
21
-54.6
0
LINE
8
BLACK
6
CONTINUOUS
10
105.5
20
-55.75
11
105.5
21
-53
0
LINE
8
BLACK
6
CONTINUOUS
10
105.5
20
-53
11
102.75
21
-53
0
LINE
8
BLACK
6
CONTINUOUS
10
104.25
20
-60.5
11
104.25
21
-58.5
0
LINE
8
BLACK
6
CONTINUOUS
10
100
20
-60.5
11
104.25
21
-60.5
0
LINE
8
BLACK
6
CONTINUOUS
10
88.75
20
-58.5
11
91.25
21
-58.5
0
LINE
8
BLACK
6
CONTINUOUS
10
104.25
20
-58.5
11
102.75
21
-58.5
0
LINE
8
BLACK
6
CONTINUOUS
10
102.75
20
-53
11
102.75
21
-52.5
0
LINE
8
BLACK
6
CONTINUOUS
10
88.75
20
-55.5
11
88.75
21
-58.5
0
ARC
8
BLACK
10
93.4642
20
-54.516
40
2.01597
50
-270
51
-177.611
0
ARC
8
BLACK
10
97.75
20
-59.5
40
2.46222
50
-156.037
51
-23.9625
0
LINE
8
BLACK
6
CONTINUOUS
10
162.636
20
-126.956
11
161.286
21
-129.294
0
LINE
8
BLACK
6
CONTINUOUS
10
165.688
20
-115.67
11
161.045
21
-123.712
0
LINE
8
BLACK
6
CONTINUOUS
10
166.866
20
-129.629
11
168.991
21
-125.949
0
LINE
8
BLACK
6
CONTINUOUS
10
165.134
20
-128.629
11
166.866
21
-129.629
0
LINE
8
BLACK
6
CONTINUOUS
10
168.502
20
-117.295
11
169.877
21
-114.913
0
LINE
8
BLACK
6
CONTINUOUS
10
170.884
20
-118.67
11
168.502
21
-117.295
0
LINE
8
BLACK
6
CONTINUOUS
10
162.636
20
-126.956
11
161.856
21
-126.506
0
LINE
8
BLACK
6
CONTINUOUS
10
169.877
20
-114.913
11
167.496
21
-113.538
0
LINE
8
BLACK
6
CONTINUOUS
10
167.496
20
-113.538
11
166.121
21
-115.92
0
LINE
8
BLACK
6
CONTINUOUS
10
173.366
20
-118.371
11
171.634
21
-117.371
0
LINE
8
BLACK
6
CONTINUOUS
10
171.241
20
-122.051
11
173.366
21
-118.371
0
LINE
8
BLACK
6
CONTINUOUS
10
163.884
20
-130.794
11
165.134
21
-128.629
0
LINE
8
BLACK
6
CONTINUOUS
10
171.634
20
-117.371
11
170.884
21
-118.67
0
LINE
8
BLACK
6
CONTINUOUS
10
166.121
20
-115.92
11
165.688
21
-115.67
0
LINE
8
BLACK
6
CONTINUOUS
10
161.286
20
-129.294
11
163.884
21
-130.794
0
ARC
8
BLACK
10
162.791
20
-124.72
40
2.01597
50
-210
51
-117.611
0
ARC
8
BLACK
10
169.25
20
-123.5
40
2.46221
50
-96.0375
51
36.0375
0
LINE
8
BLACK
6
CONTINUOUS
10
91.45
20
-93.5
11
88.75
21
-93.5
0
LINE
8
BLACK
6
CONTINUOUS
10
102.75
20
-90.5
11
93.4642
21
-90.5
0
LINE
8
BLACK
6
CONTINUOUS
10
91.25
20
-98.5
11
95.5
21
-98.5
0
LINE
8
BLACK
6
CONTINUOUS
10
91.25
20
-96.5
11
91.25
21
-98.5
0
LINE
8
BLACK
6
CONTINUOUS
10
102.75
20
-93.75
11
105.5
21
-93.75
0
LINE
8
BLACK
6
CONTINUOUS
10
102.75
20
-96.5
11
102.75
21
-93.75
0
LINE
8
BLACK
6
CONTINUOUS
10
91.45
20
-93.5
11
91.45
21
-92.6
0
LINE
8
BLACK
6
CONTINUOUS
10
105.5
20
-93.75
11
105.5
21
-91
0
LINE
8
BLACK
6
CONTINUOUS
10
105.5
20
-91
11
102.75
21
-91
0
LINE
8
BLACK
6
CONTINUOUS
10
104.25
20
-98.5
11
104.25
21
-96.5
0
LINE
8
BLACK
6
CONTINUOUS
10
100
20
-98.5
11
104.25
21
-98.5
0
LINE
8
BLACK
6
CONTINUOUS
10
88.75
20
-96.5
11
91.25
21
-96.5
0
LINE
8
BLACK
6
CONTINUOUS
10
104.25
20
-96.5
11
102.75
21
-96.5
0
LINE
8
BLACK
6
CONTINUOUS
10
102.75
20
-91
11
102.75
21
-90.5
0
LINE
8
BLACK
6
CONTINUOUS
10
88.75
20
-93.5
11
88.75
21
-96.5
0
ARC
8
BLACK
10
93.4642
20
-92.516
40
2.01597
50
-270
51
-177.611
0
ARC
8
BLACK
10
97.75
20
-97.5
40
2.46222
50
-156.037
51
-23.9625
0
LINE
8
BLACK
6
CONTINUOUS
10
129.45
20
-94
11
126.75
21
-94
0
LINE
8
BLACK
6
CONTINUOUS
10
140.75
20
-91
11
131.464
21
-91
0
LINE
8
BLACK
6
CONTINUOUS
10
129.25
20
-99
11
133.5
21
-99
0
LINE
8
BLACK
6
CONTINUOUS
10
129.25
20
-97
11
129.25
21
-99
0
LINE
8
BLACK
6
CONTINUOUS
10
140.75
20
-94.25
11
143.5
21
-94.25
0
LINE
8
BLACK
6
CONTINUOUS
10
140.75
20
-97
11
140.75
21
-94.25
0
LINE
8
BLACK
6
CONTINUOUS
10
129.45
20
-94
11
129.45
21
-93.1
0
LINE
8
BLACK
6
CONTINUOUS
10
143.5
20
-94.25
11
143.5
21
-91.5
0
LINE
8
BLACK
6
CONTINUOUS
10
143.5
20
-91.5
11
140.75
21
-91.5
0
LINE
8
BLACK
6
CONTINUOUS
10
142.25
20
-99
11
142.25
21
-97
0
LINE
8
BLACK
6
CONTINUOUS
10
138
20
-99
11
142.25
21
-99
0
LINE
8
BLACK
6
CONTINUOUS
10
126.75
20
-97
11
129.25
21
-97
0
LINE
8
BLACK
6
CONTINUOUS
10
142.25
20
-97
11
140.75
21
-97
0
LINE
8
BLACK
6
CONTINUOUS
10
140.75
20
-91.5
11
140.75
21
-91
0
LINE
8
BLACK
6
CONTINUOUS
10
126.75
20
-94
11
126.75
21
-97
0
ARC
8
BLACK
10
131.464
20
-93.016
40
2.01597
50
-270
51
-177.611
0
ARC
8
BLACK
10
135.75
20
-98
40
2.46222
50
-156.037
51
-23.9625
0
LINE
8
BLACK
6
CONTINUOUS
10
148.45
20
-77
11
145.75
21
-77
0
LINE
8
BLACK
6
CONTINUOUS
10
159.75
20
-74
11
150.464
21
-74
0
LINE
8
BLACK
6
CONTINUOUS
10
148.25
20
-82
11
152.5
21
-82
0
LINE
8
BLACK
6
CONTINUOUS
10
148.25
20
-80
11
148.25
21
-82
0
LINE
8
BLACK
6
CONTINUOUS
10
159.75
20
-77.25
11
162.5
21
-77.25
0
LINE
8
BLACK
6
CONTINUOUS
10
159.75
20
-80
11
159.75
21
-77.25
0
LINE
8
BLACK
6
CONTINUOUS
10
148.45
20
-77
11
148.45
21
-76.1
0
LINE
8
BLACK
6
CONTINUOUS
10
162.5
20
-77.25
11
162.5
21
-74.5
0
LINE
8
BLACK
6
CONTINUOUS
10
162.5
20
-74.5
11
159.75
21
-74.5
0
LINE
8
BLACK
6
CONTINUOUS
10
161.25
20
-82
11
161.25
21
-80
0
LINE
8
BLACK
6
CONTINUOUS
10
157
20
-82
11
161.25
21
-82
0
LINE
8
BLACK
6
CONTINUOUS
10
145.75
20
-80
11
148.25
21
-80
0
LINE
8
BLACK
6
CONTINUOUS
10
161.25
20
-80
11
159.75
21
-80
0
LINE
8
BLACK
6
CONTINUOUS
10
159.75
20
-74.5
11
159.75
21
-74
0
LINE
8
BLACK
6
CONTINUOUS
10
145.75
20
-77
11
145.75
21
-80
0
ARC
8
BLACK
10
150.464
20
-76.016
40
2.01597
50
-270
51
-177.611
0
ARC
8
BLACK
10
154.75
20
-81
40
2.46222
50
-156.037
51
-23.9625
0
LINE
8
BLACK
6
CONTINUOUS
10
72.2253
20
-105.864
11
69.5356
21
-106.1
0
LINE
8
BLACK
6
CONTINUOUS
10
83.2209
20
-101.891
11
73.9704
21
-102.7
0
LINE
8
BLACK
6
CONTINUOUS
10
72.4619
20
-110.863
11
76.6957
21
-110.492
0
LINE
8
BLACK
6
CONTINUOUS
10
72.2876
20
-108.87
11
72.4619
21
-110.863
0
LINE
8
BLACK
6
CONTINUOUS
10
83.5041
20
-105.128
11
86.2437
21
-104.889
0
LINE
8
BLACK
6
CONTINUOUS
10
83.7438
20
-107.868
11
83.5041
21
-105.128
0
LINE
8
BLACK
6
CONTINUOUS
10
72.2253
20
-105.864
11
72.1469
21
-104.968
0
LINE
8
BLACK
6
CONTINUOUS
10
86.2437
20
-104.889
11
86.004
21
-102.149
0
LINE
8
BLACK
6
CONTINUOUS
10
86.004
20
-102.149
11
83.2645
21
-102.389
0
LINE
8
BLACK
6
CONTINUOUS
10
85.4124
20
-109.73
11
85.2381
21
-107.737
0
LINE
8
BLACK
6
CONTINUOUS
10
81.1786
20
-110.1
11
85.4124
21
-109.73
0
LINE
8
BLACK
6
CONTINUOUS
10
69.7971
20
-109.088
11
72.2876
21
-108.87
0
LINE
8
BLACK
6
CONTINUOUS
10
85.2381
20
-107.737
11
83.7438
21
-107.868
0
LINE
8
BLACK
6
CONTINUOUS
10
83.2645
20
-102.389
11
83.2209
21
-101.891
0
LINE
8
BLACK
6
CONTINUOUS
10
69.5356
20
-106.1
11
69.7971
21
-109.088
0
ARC
8
BLACK
10
74.1461
20
-104.708
40
2.01597
50
-265
51
-172.611
0
ARC
8
BLACK
10
78.85
20
-109.3
40
2.46222
50
-151.037
51
-18.9625
0
LINE
8
BLACK
6
CONTINUOUS
10
148.45
20
-58
11
145.75
21
-58
0
LINE
8
BLACK
6
CONTINUOUS
10
159.75
20
-55
11
150.464
21
-55
0
LINE
8
BLACK
6
CONTINUOUS
10
148.25
20
-63
11
152.5
21
-63
0
LINE
8
BLACK
6
CONTINUOUS
10
148.25
20
-61
11
148.25
21
-63
0
LINE
8
BLACK
6
CONTINUOUS
10
159.75
20
-58.25
11
162.5
21
-58.25
0
LINE
8
BLACK
6
CONTINUOUS
10
159.75
20
-61
11
159.75
21
-58.25
0
LINE
8
BLACK
6
CONTINUOUS
10
148.45
20
-58
11
148.45
21
-57.1
0
LINE
8
BLACK
6
CONTINUOUS
10
162.5
20
-58.25
11
162.5
21
-55.5
0
LINE
8
BLACK
6
CONTINUOUS
10
162.5
20
-55.5
11
159.75
21
-55.5
0
LINE
8
BLACK
6
CONTINUOUS
10
161.25
20
-63
11
161.25
21
-61
0
LINE
8
BLACK
6
CONTINUOUS
10
157
20
-63
11
161.25
21
-63
0
LINE
8
BLACK
6
CONTINUOUS
10
145.75
20
-61
11
148.25
21
-61
0
LINE
8
BLACK
6
CONTINUOUS
10
161.25
20
-61
11
159.75
21
-61
0
LINE
8
BLACK
6
CONTINUOUS
10
159.75
20
-55.5
11
159.75
21
-55
0
LINE
8
BLACK
6
CONTINUOUS
10
145.75
20
-58
11
145.75
21
-61
0
ARC
8
BLACK
10
150.464
20
-57.016
40
2.01597
50
-270
51
-177.611
0
ARC
8
BLACK
10
154.75
20
-62
40
2.46222
50
-156.037
51
-23.9625
0
LINE
8
BLACK
6
CONTINUOUS
10
129.45
20
-75
11
126.75
21
-75
0
LINE
8
BLACK
6
CONTINUOUS
10
140.75
20
-72
11
131.464
21
-72
0
LINE
8
BLACK
6
CONTINUOUS
10
129.25
20
-80
11
133.5
21
-80
0
LINE
8
BLACK
6
CONTINUOUS
10
129.25
20
-78
11
129.25
21
-80
0
LINE
8
BLACK
6
CONTINUOUS
10
140.75
20
-75.25
11
143.5
21
-75.25
0
LINE
8
BLACK
6
CONTINUOUS
10
140.75
20
-78
11
140.75
21
-75.25
0
LINE
8
BLACK
6
CONTINUOUS
10
129.45
20
-75
11
129.45
21
-74.1
0
LINE
8
BLACK
6
CONTINUOUS
10
143.5
20
-75.25
11
143.5
21
-72.5
0
LINE
8
BLACK
6
CONTINUOUS
10
143.5
20
-72.5
11
140.75
21
-72.5
0
LINE
8
BLACK
6
CONTINUOUS
10
142.25
20
-80
11
142.25
21
-78
0
LINE
8
BLACK
6
CONTINUOUS
10
138
20
-80
11
142.25
21
-80
0
LINE
8
BLACK
6
CONTINUOUS
10
126.75
20
-78
11
129.25
21
-78
0
LINE
8
BLACK
6
CONTINUOUS
10
142.25
20
-78
11
140.75
21
-78
0
LINE
8
BLACK
6
CONTINUOUS
10
140.75
20
-72.5
11
140.75
21
-72
0
LINE
8
BLACK
6
CONTINUOUS
10
126.75
20
-75
11
126.75
21
-78
0
ARC
8
BLACK
10
131.464
20
-74.016
40
2.01597
50
-270
51
-177.611
0
ARC
8
BLACK
10
135.75
20
-79
40
2.46222
50
-156.037
51
-23.9625
0
LINE
8
BLACK
6
CONTINUOUS
10
110.45
20
-70.5
11
107.75
21
-70.5
0
LINE
8
BLACK
6
CONTINUOUS
10
121.75
20
-67.5
11
112.464
21
-67.5
0
LINE
8
BLACK
6
CONTINUOUS
10
110.25
20
-75.5
11
114.5
21
-75.5
0
LINE
8
BLACK
6
CONTINUOUS
10
110.25
20
-73.5
11
110.25
21
-75.5
0
LINE
8
BLACK
6
CONTINUOUS
10
121.75
20
-70.75
11
124.5
21
-70.75
0
LINE
8
BLACK
6
CONTINUOUS
10
121.75
20
-73.5
11
121.75
21
-70.75
0
LINE
8
BLACK
6
CONTINUOUS
10
110.45
20
-70.5
11
110.45
21
-69.6
0
LINE
8
BLACK
6
CONTINUOUS
10
124.5
20
-70.75
11
124.5
21
-68
0
LINE
8
BLACK
6
CONTINUOUS
10
124.5
20
-68
11
121.75
21
-68
0
LINE
8
BLACK
6
CONTINUOUS
10
123.25
20
-75.5
11
123.25
21
-73.5
0
LINE
8
BLACK
6
CONTINUOUS
10
119
20
-75.5
11
123.25
21
-75.5
0
LINE
8
BLACK
6
CONTINUOUS
10
107.75
20
-73.5
11
110.25
21
-73.5
0
LINE
8
BLACK
6
CONTINUOUS
10
123.25
20
-73.5
11
121.75
21
-73.5
0
LINE
8
BLACK
6
CONTINUOUS
10
121.75
20
-68
11
121.75
21
-67.5
0
LINE
8
BLACK
6
CONTINUOUS
10
107.75
20
-70.5
11
107.75
21
-73.5
0
ARC
8
BLACK
10
112.464
20
-69.516
40
2.01597
50
-270
51
-177.611
0
ARC
8
BLACK
10
116.75
20
-74.5
40
2.46222
50
-156.037
51
-23.9625
0
LINE
8
BLACK
6
CONTINUOUS
10
148.45
20
-96
11
145.75
21
-96
0
LINE
8
BLACK
6
CONTINUOUS
10
159.75
20
-93
11
150.464
21
-93
0
LINE
8
BLACK
6
CONTINUOUS
10
148.25
20
-101
11
152.5
21
-101
0
LINE
8
BLACK
6
CONTINUOUS
10
148.25
20
-99
11
148.25
21
-101
0
LINE
8
BLACK
6
CONTINUOUS
10
159.75
20
-96.25
11
162.5
21
-96.25
0
LINE
8
BLACK
6
CONTINUOUS
10
159.75
20
-99
11
159.75
21
-96.25
0
LINE
8
BLACK
6
CONTINUOUS
10
148.45
20
-96
11
148.45
21
-95.1
0
LINE
8
BLACK
6
CONTINUOUS
10
162.5
20
-96.25
11
162.5
21
-93.5
0
LINE
8
BLACK
6
CONTINUOUS
10
162.5
20
-93.5
11
159.75
21
-93.5
0
LINE
8
BLACK
6
CONTINUOUS
10
161.25
20
-101
11
161.25
21
-99
0
LINE
8
BLACK
6
CONTINUOUS
10
157
20
-101
11
161.25
21
-101
0
LINE
8
BLACK
6
CONTINUOUS
10
145.75
20
-99
11
148.25
21
-99
0
LINE
8
BLACK
6
CONTINUOUS
10
161.25
20
-99
11
159.75
21
-99
0
LINE
8
BLACK
6
CONTINUOUS
10
159.75
20
-93.5
11
159.75
21
-93
0
LINE
8
BLACK
6
CONTINUOUS
10
145.75
20
-96
11
145.75
21
-99
0
ARC
8
BLACK
10
150.464
20
-95.016
40
2.01597
50
-270
51
-177.611
0
ARC
8
BLACK
10
154.75
20
-100
40
2.46222
50
-156.037
51
-23.9625
0
LINE
8
BLACK
6
CONTINUOUS
10
52.8254
20
-102.164
11
50.1356
21
-102.4
0
LINE
8
BLACK
6
CONTINUOUS
10
63.8209
20
-98.1909
11
54.5704
21
-99.0002
0
LINE
8
BLACK
6
CONTINUOUS
10
53.0619
20
-107.163
11
57.2957
21
-106.792
0
LINE
8
BLACK
6
CONTINUOUS
10
52.8876
20
-105.17
11
53.0619
21
-107.163
0
LINE
8
BLACK
6
CONTINUOUS
10
64.1041
20
-101.428
11
66.8437
21
-101.189
0
LINE
8
BLACK
6
CONTINUOUS
10
64.3438
20
-104.168
11
64.1041
21
-101.428
0
LINE
8
BLACK
6
CONTINUOUS
10
52.8254
20
-102.164
11
52.7469
21
-101.268
0
LINE
8
BLACK
6
CONTINUOUS
10
66.8437
20
-101.189
11
66.604
21
-98.4493
0
LINE
8
BLACK
6
CONTINUOUS
10
66.604
20
-98.4493
11
63.8645
21
-98.689
0
LINE
8
BLACK
6
CONTINUOUS
10
66.0124
20
-106.03
11
65.8381
21
-104.037
0
LINE
8
BLACK
6
CONTINUOUS
10
61.7786
20
-106.4
11
66.0124
21
-106.03
0
LINE
8
BLACK
6
CONTINUOUS
10
50.3971
20
-105.388
11
52.8876
21
-105.17
0
LINE
8
BLACK
6
CONTINUOUS
10
65.8381
20
-104.037
11
64.3438
21
-104.168
0
LINE
8
BLACK
6
CONTINUOUS
10
63.8645
20
-98.689
11
63.8209
21
-98.1909
0
LINE
8
BLACK
6
CONTINUOUS
10
50.1356
20
-102.4
11
50.3971
21
-105.388
0
ARC
8
BLACK
10
54.7461
20
-101.008
40
2.01597
50
-265
51
-172.611
0
ARC
8
BLACK
10
59.45
20
-105.6
40
2.46222
50
-151.037
51
-18.9625
0
LINE
8
BLACK
6
CONTINUOUS
10
91.45
20
-74.5
11
88.75
21
-74.5
0
LINE
8
BLACK
6
CONTINUOUS
10
102.75
20
-71.5
11
93.4642
21
-71.5
0
LINE
8
BLACK
6
CONTINUOUS
10
91.25
20
-79.5
11
95.5
21
-79.5
0
LINE
8
BLACK
6
CONTINUOUS
10
91.25
20
-77.5
11
91.25
21
-79.5
0
LINE
8
BLACK
6
CONTINUOUS
10
102.75
20
-74.75
11
105.5
21
-74.75
0
LINE
8
BLACK
6
CONTINUOUS
10
102.75
20
-77.5
11
102.75
21
-74.75
0
LINE
8
BLACK
6
CONTINUOUS
10
91.45
20
-74.5
11
91.45
21
-73.6
0
LINE
8
BLACK
6
CONTINUOUS
10
105.5
20
-74.75
11
105.5
21
-72
0
LINE
8
BLACK
6
CONTINUOUS
10
105.5
20
-72
11
102.75
21
-72
0
LINE
8
BLACK
6
CONTINUOUS
10
104.25
20
-79.5
11
104.25
21
-77.5
0
LINE
8
BLACK
6
CONTINUOUS
10
100
20
-79.5
11
104.25
21
-79.5
0
LINE
8
BLACK
6
CONTINUOUS
10
88.75
20
-77.5
11
91.25
21
-77.5
0
LINE
8
BLACK
6
CONTINUOUS
10
104.25
20
-77.5
11
102.75
21
-77.5
0
LINE
8
BLACK
6
CONTINUOUS
10
102.75
20
-72
11
102.75
21
-71.5
0
LINE
8
BLACK
6
CONTINUOUS
10
88.75
20
-74.5
11
88.75
21
-77.5
0
ARC
8
BLACK
10
93.4642
20
-73.516
40
2.01597
50
-270
51
-177.611
0
ARC
8
BLACK
10
97.75
20
-78.5
40
2.46222
50
-156.037
51
-23.9625
0
LINE
8
BLACK
6
CONTINUOUS
10
51.1253
20
-83.1643
11
48.4356
21
-83.3996
0
LINE
8
BLACK
6
CONTINUOUS
10
62.1209
20
-79.1909
11
52.8704
21
-80.0002
0
LINE
8
BLACK
6
CONTINUOUS
10
51.3619
20
-88.1627
11
55.5957
21
-87.7923
0
LINE
8
BLACK
6
CONTINUOUS
10
51.1876
20
-86.1703
11
51.3619
21
-88.1627
0
LINE
8
BLACK
6
CONTINUOUS
10
62.4041
20
-82.4285
11
65.1437
21
-82.1888
0
LINE
8
BLACK
6
CONTINUOUS
10
62.6438
20
-85.168
11
62.4041
21
-82.4285
0
LINE
8
BLACK
6
CONTINUOUS
10
51.1253
20
-83.1643
11
51.0469
21
-82.2677
0
LINE
8
BLACK
6
CONTINUOUS
10
65.1437
20
-82.1888
11
64.904
21
-79.4493
0
LINE
8
BLACK
6
CONTINUOUS
10
64.904
20
-79.4493
11
62.1645
21
-79.689
0
LINE
8
BLACK
6
CONTINUOUS
10
64.3124
20
-87.0297
11
64.1381
21
-85.0373
0
LINE
8
BLACK
6
CONTINUOUS
10
60.0786
20
-87.4001
11
64.3124
21
-87.0297
0
LINE
8
BLACK
6
CONTINUOUS
10
48.6971
20
-86.3882
11
51.1876
21
-86.1703
0
LINE
8
BLACK
6
CONTINUOUS
10
64.1381
20
-85.0373
11
62.6438
21
-85.168
0
LINE
8
BLACK
6
CONTINUOUS
10
62.1645
20
-79.689
11
62.1209
21
-79.1909
0
LINE
8
BLACK
6
CONTINUOUS
10
48.4356
20
-83.3996
11
48.6971
21
-86.3882
0
ARC
8
BLACK
10
53.0461
20
-82.0085
40
2.01597
50
-265
51
-172.611
0
ARC
8
BLACK
10
57.75
20
-86.6
40
2.46222
50
-151.037
51
-18.9625
0
LINE
8
BLACK
6
CONTINUOUS
10
70.5754
20
-86.9143
11
67.8856
21
-87.1496
0
LINE
8
BLACK
6
CONTINUOUS
10
81.5709
20
-82.9409
11
72.3204
21
-83.7502
0
LINE
8
BLACK
6
CONTINUOUS
10
70.8119
20
-91.9127
11
75.0457
21
-91.5423
0
LINE
8
BLACK
6
CONTINUOUS
10
70.6376
20
-89.9203
11
70.8119
21
-91.9127
0
LINE
8
BLACK
6
CONTINUOUS
10
81.8541
20
-86.1785
11
84.5937
21
-85.9388
0
LINE
8
BLACK
6
CONTINUOUS
10
82.0938
20
-88.918
11
81.8541
21
-86.1785
0
LINE
8
BLACK
6
CONTINUOUS
10
70.5754
20
-86.9143
11
70.4969
21
-86.0177
0
LINE
8
BLACK
6
CONTINUOUS
10
84.5937
20
-85.9388
11
84.354
21
-83.1993
0
LINE
8
BLACK
6
CONTINUOUS
10
84.354
20
-83.1993
11
81.6145
21
-83.439
0
LINE
8
BLACK
6
CONTINUOUS
10
83.7624
20
-90.7797
11
83.5881
21
-88.7873
0
LINE
8
BLACK
6
CONTINUOUS
10
79.5286
20
-91.1501
11
83.7624
21
-90.7797
0
LINE
8
BLACK
6
CONTINUOUS
10
68.1471
20
-90.1382
11
70.6376
21
-89.9203
0
LINE
8
BLACK
6
CONTINUOUS
10
83.5881
20
-88.7873
11
82.0938
21
-88.918
0
LINE
8
BLACK
6
CONTINUOUS
10
81.6145
20
-83.439
11
81.5709
21
-82.9409
0
LINE
8
BLACK
6
CONTINUOUS
10
67.8856
20
-87.1496
11
68.1471
21
-90.1382
0
ARC
8
BLACK
10
72.4961
20
-85.7585
40
2.01597
50
-265
51
-172.611
0
ARC
8
BLACK
10
77.2
20
-90.35
40
2.46222
50
-151.037
51
-18.9625
0
LINE
8
BLACK
6
CONTINUOUS
10
141.95
20
-114.256
11
139.342
21
-113.557
0
LINE
8
BLACK
6
CONTINUOUS
10
153.641
20
-114.283
11
144.672
21
-111.879
0
LINE
8
BLACK
6
CONTINUOUS
10
140.463
20
-119.034
11
144.568
21
-120.134
0
LINE
8
BLACK
6
CONTINUOUS
10
140.98
20
-117.102
11
140.463
21
-119.034
0
LINE
8
BLACK
6
CONTINUOUS
10
152.8
20
-117.422
11
155.456
21
-118.134
0
LINE
8
BLACK
6
CONTINUOUS
10
152.088
20
-120.078
11
152.8
21
-117.422
0
LINE
8
BLACK
6
CONTINUOUS
10
141.95
20
-114.256
11
142.183
21
-113.386
0
LINE
8
BLACK
6
CONTINUOUS
10
155.456
20
-118.134
11
156.168
21
-115.477
0
LINE
8
BLACK
6
CONTINUOUS
10
156.168
20
-115.477
11
153.512
21
-114.766
0
LINE
8
BLACK
6
CONTINUOUS
10
153.02
20
-122.398
11
153.537
21
-120.466
0
LINE
8
BLACK
6
CONTINUOUS
10
148.915
20
-121.298
11
153.02
21
-122.398
0
LINE
8
BLACK
6
CONTINUOUS
10
138.565
20
-116.455
11
140.98
21
-117.102
0
LINE
8
BLACK
6
CONTINUOUS
10
153.537
20
-120.466
11
152.088
21
-120.078
0
LINE
8
BLACK
6
CONTINUOUS
10
153.512
20
-114.766
11
153.641
21
-114.283
0
LINE
8
BLACK
6
CONTINUOUS
10
139.342
20
-113.557
11
138.565
21
-116.455
0
ARC
8
BLACK
10
144.15
20
-113.827
40
2.01597
50
75.0001
51
167.389
0
ARC
8
BLACK
10
147
20
-119.75
40
2.46222
50
-171.037
51
-38.9625
0
LINE
8
BLACK
6
CONTINUOUS
10
68.9253
20
-67.9643
11
66.2356
21
-68.1996
0
LINE
8
BLACK
6
CONTINUOUS
10
79.9209
20
-63.9909
11
70.6704
21
-64.8002
0
LINE
8
BLACK
6
CONTINUOUS
10
69.1619
20
-72.9627
11
73.3957
21
-72.5923
0
LINE
8
BLACK
6
CONTINUOUS
10
68.9876
20
-70.9703
11
69.1619
21
-72.9627
0
LINE
8
BLACK
6
CONTINUOUS
10
80.2041
20
-67.2285
11
82.9437
21
-66.9888
0
LINE
8
BLACK
6
CONTINUOUS
10
80.4438
20
-69.968
11
80.2041
21
-67.2285
0
LINE
8
BLACK
6
CONTINUOUS
10
68.9253
20
-67.9643
11
68.8469
21
-67.0677
0
LINE
8
BLACK
6
CONTINUOUS
10
82.9437
20
-66.9888
11
82.704
21
-64.2493
0
LINE
8
BLACK
6
CONTINUOUS
10
82.704
20
-64.2493
11
79.9645
21
-64.489
0
LINE
8
BLACK
6
CONTINUOUS
10
82.1124
20
-71.8297
11
81.9381
21
-69.8373
0
LINE
8
BLACK
6
CONTINUOUS
10
77.8786
20
-72.2001
11
82.1124
21
-71.8297
0
LINE
8
BLACK
6
CONTINUOUS
10
66.4971
20
-71.1882
11
68.9876
21
-70.9703
0
LINE
8
BLACK
6
CONTINUOUS
10
81.9381
20
-69.8373
11
80.4438
21
-69.968
0
LINE
8
BLACK
6
CONTINUOUS
10
79.9645
20
-64.489
11
79.9209
21
-63.9909
0
LINE
8
BLACK
6
CONTINUOUS
10
66.2356
20
-68.1996
11
66.4971
21
-71.1882
0
ARC
8
BLACK
10
70.8461
20
-66.8085
40
2.01597
50
-265
51
-172.611
0
ARC
8
BLACK
10
75.55
20
-71.4
40
2.46222
50
-151.037
51
-18.9625
0
LINE
8
BLACK
6
CONTINUOUS
10
129.45
20
-56
11
126.75
21
-56
0
LINE
8
BLACK
6
CONTINUOUS
10
140.75
20
-53
11
131.464
21
-53
0
LINE
8
BLACK
6
CONTINUOUS
10
129.25
20
-61
11
133.5
21
-61
0
LINE
8
BLACK
6
CONTINUOUS
10
129.25
20
-59
11
129.25
21
-61
0
LINE
8
BLACK
6
CONTINUOUS
10
140.75
20
-56.25
11
143.5
21
-56.25
0
LINE
8
BLACK
6
CONTINUOUS
10
140.75
20
-59
11
140.75
21
-56.25
0
LINE
8
BLACK
6
CONTINUOUS
10
129.45
20
-56
11
129.45
21
-55.1
0
LINE
8
BLACK
6
CONTINUOUS
10
143.5
20
-56.25
11
143.5
21
-53.5
0
LINE
8
BLACK
6
CONTINUOUS
10
143.5
20
-53.5
11
140.75
21
-53.5
0
LINE
8
BLACK
6
CONTINUOUS
10
142.25
20
-61
11
142.25
21
-59
0
LINE
8
BLACK
6
CONTINUOUS
10
138
20
-61
11
142.25
21
-61
0
LINE
8
BLACK
6
CONTINUOUS
10
126.75
20
-59
11
129.25
21
-59
0
LINE
8
BLACK
6
CONTINUOUS
10
142.25
20
-59
11
140.75
21
-59
0
LINE
8
BLACK
6
CONTINUOUS
10
140.75
20
-53.5
11
140.75
21
-53
0
LINE
8
BLACK
6
CONTINUOUS
10
126.75
20
-56
11
126.75
21
-59
0
ARC
8
BLACK
10
131.464
20
-55.016
40
2.01597
50
-270
51
-177.611
0
ARC
8
BLACK
10
135.75
20
-60
40
2.46222
50
-156.037
51
-23.9625
0
LINE
8
BLACK
6
CONTINUOUS
10
110.45
20
-89.5
11
107.75
21
-89.5
0
LINE
8
BLACK
6
CONTINUOUS
10
121.75
20
-86.5
11
112.464
21
-86.5
0
LINE
8
BLACK
6
CONTINUOUS
10
110.25
20
-94.5
11
114.5
21
-94.5
0
LINE
8
BLACK
6
CONTINUOUS
10
110.25
20
-92.5
11
110.25
21
-94.5
0
LINE
8
BLACK
6
CONTINUOUS
10
121.75
20
-89.75
11
124.5
21
-89.75
0
LINE
8
BLACK
6
CONTINUOUS
10
121.75
20
-92.5
11
121.75
21
-89.75
0
LINE
8
BLACK
6
CONTINUOUS
10
110.45
20
-89.5
11
110.45
21
-88.6
0
LINE
8
BLACK
6
CONTINUOUS
10
124.5
20
-89.75
11
124.5
21
-87
0
LINE
8
BLACK
6
CONTINUOUS
10
124.5
20
-87
11
121.75
21
-87
0
LINE
8
BLACK
6
CONTINUOUS
10
123.25
20
-94.5
11
123.25
21
-92.5
0
LINE
8
BLACK
6
CONTINUOUS
10
119
20
-94.5
11
123.25
21
-94.5
0
LINE
8
BLACK
6
CONTINUOUS
10
107.75
20
-92.5
11
110.25
21
-92.5
0
LINE
8
BLACK
6
CONTINUOUS
10
123.25
20
-92.5
11
121.75
21
-92.5
0
LINE
8
BLACK
6
CONTINUOUS
10
121.75
20
-87
11
121.75
21
-86.5
0
LINE
8
BLACK
6
CONTINUOUS
10
107.75
20
-89.5
11
107.75
21
-92.5
0
ARC
8
BLACK
10
112.464
20
-88.516
40
2.01597
50
-270
51
-177.611
0
ARC
8
BLACK
10
116.75
20
-93.5
40
2.46222
50
-156.037
51
-23.9625
0
LINE
8
BLACK
6
CONTINUOUS
10
119.45
20
-113
11
116.75
21
-113
0
LINE
8
BLACK
6
CONTINUOUS
10
130.75
20
-110
11
121.464
21
-110
0
LINE
8
BLACK
6
CONTINUOUS
10
119.25
20
-118
11
123.5
21
-118
0
LINE
8
BLACK
6
CONTINUOUS
10
119.25
20
-116
11
119.25
21
-118
0
LINE
8
BLACK
6
CONTINUOUS
10
130.75
20
-113.25
11
133.5
21
-113.25
0
LINE
8
BLACK
6
CONTINUOUS
10
130.75
20
-116
11
130.75
21
-113.25
0
LINE
8
BLACK
6
CONTINUOUS
10
119.45
20
-113
11
119.45
21
-112.1
0
LINE
8
BLACK
6
CONTINUOUS
10
133.5
20
-113.25
11
133.5
21
-110.5
0
LINE
8
BLACK
6
CONTINUOUS
10
133.5
20
-110.5
11
130.75
21
-110.5
0
LINE
8
BLACK
6
CONTINUOUS
10
132.25
20
-118
11
132.25
21
-116
0
LINE
8
BLACK
6
CONTINUOUS
10
128
20
-118
11
132.25
21
-118
0
LINE
8
BLACK
6
CONTINUOUS
10
116.75
20
-116
11
119.25
21
-116
0
LINE
8
BLACK
6
CONTINUOUS
10
132.25
20
-116
11
130.75
21
-116
0
LINE
8
BLACK
6
CONTINUOUS
10
130.75
20
-110.5
11
130.75
21
-110
0
LINE
8
BLACK
6
CONTINUOUS
10
116.75
20
-113
11
116.75
21
-116
0
ARC
8
BLACK
10
121.464
20
-112.016
40
2.01597
50
-270
51
-177.611
0
ARC
8
BLACK
10
125.75
20
-117
40
2.46222
50
-156.037
51
-23.9625
0
LINE
8
BLACK
6
CONTINUOUS
10
110.45
20
-51.5
11
107.75
21
-51.5
0
LINE
8
BLACK
6
CONTINUOUS
10
121.75
20
-48.5
11
112.464
21
-48.5
0
LINE
8
BLACK
6
CONTINUOUS
10
110.25
20
-56.5
11
114.5
21
-56.5
0
LINE
8
BLACK
6
CONTINUOUS
10
110.25
20
-54.5
11
110.25
21
-56.5
0
LINE
8
BLACK
6
CONTINUOUS
10
121.75
20
-51.75
11
124.5
21
-51.75
0
LINE
8
BLACK
6
CONTINUOUS
10
121.75
20
-54.5
11
121.75
21
-51.75
0
LINE
8
BLACK
6
CONTINUOUS
10
110.45
20
-51.5
11
110.45
21
-50.6
0
LINE
8
BLACK
6
CONTINUOUS
10
124.5
20
-51.75
11
124.5
21
-49
0
LINE
8
BLACK
6
CONTINUOUS
10
124.5
20
-49
11
121.75
21
-49
0
LINE
8
BLACK
6
CONTINUOUS
10
123.25
20
-56.5
11
123.25
21
-54.5
0
LINE
8
BLACK
6
CONTINUOUS
10
119
20
-56.5
11
123.25
21
-56.5
0
LINE
8
BLACK
6
CONTINUOUS
10
107.75
20
-54.5
11
110.25
21
-54.5
0
LINE
8
BLACK
6
CONTINUOUS
10
123.25
20
-54.5
11
121.75
21
-54.5
0
LINE
8
BLACK
6
CONTINUOUS
10
121.75
20
-49
11
121.75
21
-48.5
0
LINE
8
BLACK
6
CONTINUOUS
10
107.75
20
-51.5
11
107.75
21
-54.5
0
ARC
8
BLACK
10
112.464
20
-50.516
40
2.01597
50
-270
51
-177.611
0
ARC
8
BLACK
10
116.75
20
-55.5
40
2.46222
50
-156.037
51
-23.9625
0
CIRCLE
8
BLACK
10
87.05
20
-69
40
1.15
0
CIRCLE
8
BLACK
10
67.5
20
-95.25
40
1.15
0
LINE
8
BLACK
6
CONTINUOUS
10
121.95
20
-103.75
11
119.95
21
-103.75
0
LINE
8
BLACK
6
CONTINUOUS
10
119.95
20
-103.75
11
119.95
21
-107.75
0
LINE
8
BLACK
6
CONTINUOUS
10
119.95
20
-107.75
11
121.95
21
-107.75
0
LINE
8
BLACK
6
CONTINUOUS
10
121.95
20
-107.75
11
121.95
21
-103.75
0
CIRCLE
8
BLACK
10
108.25
20
-103.5
40
1.15
0
CIRCLE
8
BLACK
10
168.75
20
-78.5
40
1.15
0
CIRCLE
8
BLACK
10
177.5
20
-78.5
40
1.15
0
CIRCLE
8
BLACK
10
159.75
20
-117.5
40
1.15
0
CIRCLE
8
BLACK
10
146.25
20
-71.5
40
1.15
0
LINE
8
BLACK
6
CONTINUOUS
10
100.75
20
-66.5
11
94.75
21
-66.5
0
LINE
8
BLACK
6
CONTINUOUS
10
94.75
20
-66.5
11
94.75
21
-68.5
0
LINE
8
BLACK
6
CONTINUOUS
10
94.75
20
-68.5
11
100.75
21
-68.5
0
LINE
8
BLACK
6
CONTINUOUS
10
100.75
20
-68.5
11
100.75
21
-66.5
0
LINE
8
BLACK
6
CONTINUOUS
10
138.75
20
-105.048
11
132.75
21
-105.048
0
LINE
8
BLACK
6
CONTINUOUS
10
132.75
20
-105.048
11
132.75
21
-107.048
0
LINE
8
BLACK
6
CONTINUOUS
10
132.75
20
-107.048
11
138.75
21
-107.048
0
LINE
8
BLACK
6
CONTINUOUS
10
138.75
20
-107.048
11
138.75
21
-105.048
0
LINE
8
BLACK
6
CONTINUOUS
10
147.75
20
-108.5
11
141.75
21
-108.5
0
LINE
8
BLACK
6
CONTINUOUS
10
141.75
20
-108.5
11
141.75
21
-110.5
0
LINE
8
BLACK
6
CONTINUOUS
10
141.75
20
-110.5
11
147.75
21
-110.5
0
LINE
8
BLACK
6
CONTINUOUS
10
147.75
20
-110.5
11
147.75
21
-108.5
0
LINE
8
BLACK
6
CONTINUOUS
10
138.75
20
-67.0483
11
132.75
21
-67.0483
0
LINE
8
BLACK
6
CONTINUOUS
10
132.75
20
-67.0483
11
132.75
21
-69.0483
0
LINE
8
BLACK
6
CONTINUOUS
10
132.75
20
-69.0483
11
138.75
21
-69.0483
0
LINE
8
BLACK
6
CONTINUOUS
10
138.75
20
-69.0483
11
138.75
21
-67.0483
0
LINE
8
BLACK
6
CONTINUOUS
10
167.95
20
-107.3
11
169.95
21
-107.3
0
LINE
8
BLACK
6
CONTINUOUS
10
169.95
20
-107.3
11
169.95
21
-113.3
0
LINE
8
BLACK
6
CONTINUOUS
10
169.95
20
-113.3
11
167.95
21
-113.3
0
LINE
8
BLACK
6
CONTINUOUS
10
167.95
20
-113.3
11
167.95
21
-107.3
0
LINE
8
BLACK
6
CONTINUOUS
10
80.7046
20
-97.0396
11
74.7275
21
-97.5625
0
LINE
8
BLACK
6
CONTINUOUS
10
74.7275
20
-97.5625
11
74.9018
21
-99.5549
0
LINE
8
BLACK
6
CONTINUOUS
10
74.9018
20
-99.5549
11
80.8789
21
-99.032
0
LINE
8
BLACK
6
CONTINUOUS
10
80.8789
20
-99.032
11
80.7046
21
-97.0396
0
LINE
8
BLACK
6
CONTINUOUS
10
61.4514
20
-93.3423
11
55.4743
21
-93.8653
0
LINE
8
BLACK
6
CONTINUOUS
10
55.4743
20
-93.8653
11
55.6486
21
-95.8577
0
LINE
8
BLACK
6
CONTINUOUS
10
55.6486
20
-95.8577
11
61.6257
21
-95.3347
0
LINE
8
BLACK
6
CONTINUOUS
10
61.6257
20
-95.3347
11
61.4514
21
-93.3423
0
LINE
8
BLACK
6
CONTINUOUS
10
100.75
20
-85.5
11
94.75
21
-85.5
0
LINE
8
BLACK
6
CONTINUOUS
10
94.75
20
-85.5
11
94.75
21
-87.5
0
LINE
8
BLACK
6
CONTINUOUS
10
94.75
20
-87.5
11
100.75
21
-87.5
0
LINE
8
BLACK
6
CONTINUOUS
10
100.75
20
-87.5
11
100.75
21
-85.5
0
LINE
8
BLACK
6
CONTINUOUS
10
157.75
20
-88
11
151.75
21
-88
0
LINE
8
BLACK
6
CONTINUOUS
10
151.75
20
-88
11
151.75
21
-90
0
LINE
8
BLACK
6
CONTINUOUS
10
151.75
20
-90
11
157.75
21
-90
0
LINE
8
BLACK
6
CONTINUOUS
10
157.75
20
-90
11
157.75
21
-88
0
LINE
8
BLACK
6
CONTINUOUS
10
157.75
20
-107
11
151.75
21
-107
0
LINE
8
BLACK
6
CONTINUOUS
10
151.75
20
-107
11
151.75
21
-109
0
LINE
8
BLACK
6
CONTINUOUS
10
151.75
20
-109
11
157.75
21
-109
0
LINE
8
BLACK
6
CONTINUOUS
10
157.75
20
-109
11
157.75
21
-107
0
LINE
8
BLACK
6
CONTINUOUS
10
119.75
20
-62.5
11
113.75
21
-62.5
0
LINE
8
BLACK
6
CONTINUOUS
10
113.75
20
-62.5
11
113.75
21
-64.5
0
LINE
8
BLACK
6
CONTINUOUS
10
113.75
20
-64.5
11
119.75
21
-64.5
0
LINE
8
BLACK
6
CONTINUOUS
10
119.75
20
-64.5
11
119.75
21
-62.5
0
LINE
8
BLACK
6
CONTINUOUS
10
157.75
20
-69
11
151.75
21
-69
0
LINE
8
BLACK
6
CONTINUOUS
10
151.75
20
-69
11
151.75
21
-71
0
LINE
8
BLACK
6
CONTINUOUS
10
151.75
20
-71
11
157.75
21
-71
0
LINE
8
BLACK
6
CONTINUOUS
10
157.75
20
-71
11
157.75
21
-69
0
LINE
8
BLACK
6
CONTINUOUS
10
138.75
20
-86.0483
11
132.75
21
-86.0483
0
LINE
8
BLACK
6
CONTINUOUS
10
132.75
20
-86.0483
11
132.75
21
-88.0483
0
LINE
8
BLACK
6
CONTINUOUS
10
132.75
20
-88.0483
11
138.75
21
-88.0483
0
LINE
8
BLACK
6
CONTINUOUS
10
138.75
20
-88.0483
11
138.75
21
-86.0483
0
LINE
8
BLACK
6
CONTINUOUS
10
128.75
20
-107.5
11
122.75
21
-107.5
0
LINE
8
BLACK
6
CONTINUOUS
10
122.75
20
-107.5
11
122.75
21
-109.5
0
LINE
8
BLACK
6
CONTINUOUS
10
122.75
20
-109.5
11
128.75
21
-109.5
0
LINE
8
BLACK
6
CONTINUOUS
10
128.75
20
-109.5
11
128.75
21
-107.5
0
LINE
8
BLACK
6
CONTINUOUS
10
100.75
20
-104.5
11
94.75
21
-104.5
0
LINE
8
BLACK
6
CONTINUOUS
10
94.75
20
-104.5
11
94.75
21
-106.5
0
LINE
8
BLACK
6
CONTINUOUS
10
94.75
20
-106.5
11
100.75
21
-106.5
0
LINE
8
BLACK
6
CONTINUOUS
10
100.75
20
-106.5
11
100.75
21
-104.5
0
LINE
8
BLACK
6
CONTINUOUS
10
61.6514
20
-95.8423
11
55.6743
21
-96.3653
0
LINE
8
BLACK
6
CONTINUOUS
10
55.6743
20
-96.3653
11
55.8486
21
-98.3577
0
LINE
8
BLACK
6
CONTINUOUS
10
55.8486
20
-98.3577
11
61.8257
21
-97.8347
0
LINE
8
BLACK
6
CONTINUOUS
10
61.8257
20
-97.8347
11
61.6514
21
-95.8423
0
LINE
8
BLACK
6
CONTINUOUS
10
79.0487
20
-78.1119
11
73.0715
21
-78.6348
0
LINE
8
BLACK
6
CONTINUOUS
10
73.0715
20
-78.6348
11
73.2458
21
-80.6272
0
LINE
8
BLACK
6
CONTINUOUS
10
73.2458
20
-80.6272
11
79.223
21
-80.1043
0
LINE
8
BLACK
6
CONTINUOUS
10
79.223
20
-80.1043
11
79.0487
21
-78.1119
0
LINE
8
BLACK
6
CONTINUOUS
10
80.9225
20
-99.5301
11
74.9454
21
-100.053
0
LINE
8
BLACK
6
CONTINUOUS
10
74.9454
20
-100.053
11
75.1197
21
-102.045
0
LINE
8
BLACK
6
CONTINUOUS
10
75.1197
20
-102.045
11
81.0968
21
-101.522
0
LINE
8
BLACK
6
CONTINUOUS
10
81.0968
20
-101.522
11
80.9225
21
-99.5301
0
LINE
8
BLACK
6
CONTINUOUS
10
119.75
20
-100.5
11
113.75
21
-100.5
0
LINE
8
BLACK
6
CONTINUOUS
10
113.75
20
-100.5
11
113.75
21
-102.5
0
LINE
8
BLACK
6
CONTINUOUS
10
113.75
20
-102.5
11
119.75
21
-102.5
0
LINE
8
BLACK
6
CONTINUOUS
10
119.75
20
-102.5
11
119.75
21
-100.5
0
LINE
8
BLACK
6
CONTINUOUS
10
119.75
20
-81.5
11
113.75
21
-81.5
0
LINE
8
BLACK
6
CONTINUOUS
10
113.75
20
-81.5
11
113.75
21
-83.5
0
LINE
8
BLACK
6
CONTINUOUS
10
113.75
20
-83.5
11
119.75
21
-83.5
0
LINE
8
BLACK
6
CONTINUOUS
10
119.75
20
-83.5
11
119.75
21
-81.5
  0
ENDSEC
  0
EOF
