  0
SECTION
  2
HEADER
  9
$ANGBASE
  50
0.0
  9
$ANGDIR
  70
1
  9
$MEASUREMENT
  70
1
  0
ENDSEC
  0
SECTION
  2
TABLES
  0
TABLE
  2
LTYPE
  70
4
  0
LTYPE
  5
40F
  2
CONTINUOUS
  70
0
  3
Solid line
  72
65
  73
0
  40
0.0
  0
LTYPE
  5
410
  2
DASHDOT
 70
0
  3
Dash Dot ____ _ ____ _
 72
65
 73
4
 40
2.0
 49
1.25
 49
-0.25
 49
0.25
 49
-0.25
  0
LTYPE
  5
411
  2
DASHED
 70
0
  3
Dashed __ __ __ __ __
 72
65
 73
2
 40
0.75
 49
0.5
 49
-0.25
  0
LTYPE
  5
43B
  2
DOTTED
 70
0
  3
Dotted .  .  .  .
 72
65
 73
2
 40
0.2
 49
0.0
 49
-0.2
  0
ENDTAB
  0
TABLE
  2
STYLE
  70
4
  0
STYLE
  2
KICAD
  70
0
  40
0
  41
1
  42
1
  50
0
  71
0
  3
isocp.shx
  0
STYLE
  2
KICADB
  70
0
  40
0
  41
1
  42
1
  50
0
  71
0
  3
isocp.shx
  0
STYLE
  2
KICADI
  70
0
  40
0
  41
1
  42
1
  50
15
  71
0
  3
isocp.shx
  0
STYLE
  2
KICADBI
  70
0
  40
0
  41
1
  42
1
  50
15
  71
0
  3
isocp.shx
  0
ENDTAB
  0
TABLE
  2
LAYER
  70
1
  0
LAYER
  2
BLACK
  70
0
  62
7
  6
CONTINUOUS
  0
ENDTAB
  0
ENDSEC
  0
SECTION
  2
ENTITIES
0
LINE
8
BLACK
6
CONTINUOUS
10
-10.6
20
-36.6
11
-8.4
21
-36.6
0
LINE
8
BLACK
6
CONTINUOUS
10
-8.4
20
-36.6
11
-8.4
21
-40.4
0
LINE
8
BLACK
6
CONTINUOUS
10
-8.4
20
-40.4
11
-10.6
21
-40.4
0
LINE
8
BLACK
6
CONTINUOUS
10
-10.6
20
-40.4
11
-10.6
21
-36.6
0
LINE
8
BLACK
6
CONTINUOUS
10
8.4
20
-36.6
11
10.6
21
-36.6
0
LINE
8
BLACK
6
CONTINUOUS
10
10.6
20
-36.6
11
10.6
21
-40.4
0
LINE
8
BLACK
6
CONTINUOUS
10
10.6
20
-40.4
11
8.4
21
-40.4
0
LINE
8
BLACK
6
CONTINUOUS
10
8.4
20
-40.4
11
8.4
21
-36.6
0
LINE
8
BLACK
6
CONTINUOUS
10
20
20
-11.2
11
23.2
21
-11.2
0
LINE
8
BLACK
6
CONTINUOUS
10
23.2
20
-11.2
11
23.2
21
-28.8
0
LINE
8
BLACK
6
CONTINUOUS
10
23.2
20
-28.8
11
20
21
-28.8
0
LINE
8
BLACK
6
CONTINUOUS
10
20
20
-28.8
11
20
21
-11.2
0
LINE
8
BLACK
6
CONTINUOUS
10
3.8
20
-11.2
11
7
21
-11.2
0
LINE
8
BLACK
6
CONTINUOUS
10
7
20
-11.2
11
7
21
-28.8
0
LINE
8
BLACK
6
CONTINUOUS
10
7
20
-28.8
11
3.8
21
-28.8
0
LINE
8
BLACK
6
CONTINUOUS
10
3.8
20
-28.8
11
3.8
21
-11.2
0
LINE
8
BLACK
6
CONTINUOUS
10
-23.2
20
-11.2
11
-20
21
-11.2
0
LINE
8
BLACK
6
CONTINUOUS
10
-20
20
-11.2
11
-20
21
-28.8
0
LINE
8
BLACK
6
CONTINUOUS
10
-20
20
-28.8
11
-23.2
21
-28.8
0
LINE
8
BLACK
6
CONTINUOUS
10
-23.2
20
-28.8
11
-23.2
21
-11.2
0
LINE
8
BLACK
6
CONTINUOUS
10
-7
20
-11.2
11
-3.8
21
-11.2
0
LINE
8
BLACK
6
CONTINUOUS
10
-3.8
20
-11.2
11
-3.8
21
-28.8
0
LINE
8
BLACK
6
CONTINUOUS
10
-3.8
20
-28.8
11
-7
21
-28.8
0
LINE
8
BLACK
6
CONTINUOUS
10
-7
20
-28.8
11
-7
21
-11.2
0
LINE
8
BLACK
6
CONTINUOUS
10
-81
20
-1.5
11
-81
21
-2.5
0
LINE
8
BLACK
6
CONTINUOUS
10
43.5
20
-4.5
11
59.5
21
-4.5
0
LINE
8
BLACK
6
CONTINUOUS
10
3
20
-71.5
11
16.451
21
-94.951
0
ARC
8
BLACK
10
-43.5
20
-6.125
40
1.625
50
22.6199
51
90
0
LINE
8
BLACK
6
CONTINUOUS
10
-16.451
20
-94.951
11
-3
21
-71.5
0
LINE
8
BLACK
6
CONTINUOUS
10
-3
20
-15.25
11
3
21
-15.25
0
ARC
8
BLACK
10
59.5
20
-3
40
1.5
50
-90
51
-0
0
LINE
8
BLACK
6
CONTINUOUS
10
-116.8
20
-74.6
11
-98.5
21
-73
0
LINE
8
BLACK
6
CONTINUOUS
10
-101.574
20
-14.9002
11
-121.636
21
-16.5998
0
LINE
8
BLACK
6
CONTINUOUS
10
-3
20
-20.5
11
3
21
-20.5
0
ARC
8
BLACK
10
-24.5
20
-8.025
40
1.525
50
10.3889
51
90
0
ARC
8
BLACK
10
-123.624
20
-28.8051
40
1.49992
50
-85.003
51
5.00081
0
ARC
8
BLACK
10
123.624
20
-28.805
40
1.50009
50
-184.997
51
-95.0005
0
ARC
8
BLACK
10
119.869
20
-70.9943
40
1.50003
50
85.0013
51
175
0
LINE
8
BLACK
6
CONTINUOUS
10
81
20
-2.5
11
81
21
-1.5
0
LINE
8
BLACK
6
CONTINUOUS
10
-4.5
20
-9
11
-21.5
21
-9
0
ARC
8
BLACK
10
4.5
20
-10.5
40
1.5
50
90
51
180
0
LINE
8
BLACK
6
CONTINUOUS
10
-3
20
-68
11
3
21
-68
0
ARC
8
BLACK
10
-101.652
20
-13.25
40
1.652
50
-87.3009
51
-0
0
ARC
8
BLACK
10
136.131
20
-69.4509
40
1.49993
50
-95.0025
51
-5.00017
0
LINE
8
BLACK
6
CONTINUOUS
10
3
20
-20.5
11
3
21
-62.75
0
LINE
8
BLACK
6
CONTINUOUS
10
-62.5
20
0
11
-79.5
21
0
0
LINE
8
BLACK
6
CONTINUOUS
10
-140.845
20
-33.4
11
-137.625
21
-69.5816
0
ARC
8
BLACK
10
24.5
20
-8.025
40
1.525
50
90
51
169.611
0
LINE
8
BLACK
6
CONTINUOUS
10
-52.5
20
-81.5
11
-71.5
21
-81.5
0
ARC
8
BLACK
10
-4.5
20
-10.5
40
1.5
50
-0
51
90
0
LINE
8
BLACK
6
CONTINUOUS
10
61
20
-1.5
11
61
21
-3
0
LINE
8
BLACK
6
CONTINUOUS
10
-40.5
20
-6.5
11
-24.5
21
-6.5
0
LINE
8
BLACK
6
CONTINUOUS
10
-3
20
-15.25
11
-3
21
-10.5
0
LINE
8
BLACK
6
CONTINUOUS
10
120
20
-69.5
11
136
21
-70.9452
0
LINE
8
BLACK
6
CONTINUOUS
10
-3
20
-71.5
11
-3
21
-68
0
ARC
8
BLACK
10
101.652
20
-13.25
40
1.65206
50
-180
51
-92.6991
0
LINE
8
BLACK
6
CONTINUOUS
10
34
20
-86.5
11
18.5
21
-95.5
0
LINE
8
BLACK
6
CONTINUOUS
10
-61
20
-3
11
-61
21
-1.5
0
LINE
8
BLACK
6
CONTINUOUS
10
-3
20
-62.75
11
3
21
-62.75
0
ARC
8
BLACK
10
82.5
20
-2.5
40
1.5
50
-180
51
-90
0
ARC
8
BLACK
10
21.5
20
-7.475
40
1.525
50
-90
51
-10.3889
0
LINE
8
BLACK
6
CONTINUOUS
10
139.482
20
-31.775
11
123.493
21
-30.2994
0
ARC
8
BLACK
10
43.5
20
-6.125
40
1.625
50
90
51
157.38
0
LINE
8
BLACK
6
CONTINUOUS
10
-3
20
-20.5
11
-3
21
-62.75
0
LINE
8
BLACK
6
CONTINUOUS
10
3
20
-71.5
11
3
21
-68
0
ARC
8
BLACK
10
62.5
20
-1.5
40
1.5
50
90
51
180
0
ARC
8
BLACK
10
79.5
20
-1.5
40
1.5
50
-0
51
90
0
LINE
8
BLACK
6
CONTINUOUS
10
-98.5
20
-73
11
-71.5
21
-81.5
0
LINE
8
BLACK
6
CONTINUOUS
10
-98.5
20
-4
11
-82.5
21
-4
0
ARC
8
BLACK
10
-116.751
20
-73.1431
40
1.45773
50
-173.821
51
-91.9342
0
ARC
8
BLACK
10
-62.5
20
-1.5
40
1.5
50
-0
51
90
0
LINE
8
BLACK
6
CONTINUOUS
10
71.5
20
-81.5
11
98.5
21
-73
0
ARC
8
BLACK
10
-121.506
20
-18.0941
40
1.5001
50
-264.996
51
-175.002
0
ARC
8
BLACK
10
-98.5
20
-5.5
40
1.5
50
90
51
180
0
ARC
8
BLACK
10
40.5
20
-4.875
40
1.625
50
-90
51
-22.6199
0
LINE
8
BLACK
6
CONTINUOUS
10
-123.493
20
-30.2994
11
-139.482
21
-31.775
0
ARC
8
BLACK
10
98.5
20
-5.5
40
1.5
50
-0
51
90
0
LINE
8
BLACK
6
CONTINUOUS
10
21.5
20
-9
11
4.5
21
-9
0
LINE
8
BLACK
6
CONTINUOUS
10
52.5
20
-81.5
11
71.5
21
-81.5
0
LINE
8
BLACK
6
CONTINUOUS
10
118.2
20
-73.3
11
118.375
21
-70.8636
0
LINE
8
BLACK
6
CONTINUOUS
10
-123
20
-18.2248
11
-122.13
21
-28.6744
0
LINE
8
BLACK
6
CONTINUOUS
10
98.5
20
-73
11
116.8
21
-74.6
0
ARC
8
BLACK
10
-59.5
20
-3
40
1.5
50
-180
51
-90
0
LINE
8
BLACK
6
CONTINUOUS
10
121.636
20
-16.5998
11
101.574
21
-14.9002
0
ARC
8
BLACK
10
-21.5
20
-7.475
40
1.525
50
-169.611
51
-90
0
ARC
8
BLACK
10
-17.75
20
-94.201
40
1.49998
50
-120.001
51
-29.9987
0
ARC
8
BLACK
10
-119.869
20
-70.9944
40
1.5001
50
5.00405
51
94.9984
0
ARC
8
BLACK
10
-82.5
20
-2.5
40
1.5
50
-90
51
-0
0
ARC
8
BLACK
10
17.75
20
-94.201
40
1.49997
50
-150.001
51
-59.9993
0
ARC
8
BLACK
10
-79.5
20
-1.5
40
1.5
50
90
51
180
0
LINE
8
BLACK
6
CONTINUOUS
10
-118.375
20
-70.8636
11
-118.2
21
-73.3
0
LINE
8
BLACK
6
CONTINUOUS
10
34
20
-86.5
11
52.5
21
-81.5
0
ARC
8
BLACK
10
-136.131
20
-69.451
40
1.4999
50
-175.004
51
-84.9971
0
LINE
8
BLACK
6
CONTINUOUS
10
-136
20
-70.9452
11
-120
21
-69.5
0
LINE
8
BLACK
6
CONTINUOUS
10
137.625
20
-69.5816
11
140.845
21
-33.4
0
LINE
8
BLACK
6
CONTINUOUS
10
-59.5
20
-4.5
11
-43.5
21
-4.5
0
LINE
8
BLACK
6
CONTINUOUS
10
82.5
20
-4
11
98.5
21
-4
0
LINE
8
BLACK
6
CONTINUOUS
10
100
20
-13.25
11
100
21
-5.5
0
LINE
8
BLACK
6
CONTINUOUS
10
3
20
-10.5
11
3
21
-15.25
0
ARC
8
BLACK
10
-139.351
20
-33.2693
40
1.50003
50
-264.999
51
-175.001
0
LINE
8
BLACK
6
CONTINUOUS
10
-18.5
20
-95.5
11
-34
21
-86.5
0
ARC
8
BLACK
10
-40.5
20
-4.875
40
1.625
50
-157.38
51
-90
0
LINE
8
BLACK
6
CONTINUOUS
10
122.13
20
-28.6744
11
123
21
-18.2248
0
LINE
8
BLACK
6
CONTINUOUS
10
-100
20
-5.5
11
-100
21
-13.25
0
ARC
8
BLACK
10
139.351
20
-33.2693
40
1.50004
50
-4.99861
51
84.9988
0
ARC
8
BLACK
10
121.506
20
-18.0941
40
1.50005
50
-4.99813
51
84.996
0
LINE
8
BLACK
6
CONTINUOUS
10
79.5
20
0
11
62.5
21
0
0
LINE
8
BLACK
6
CONTINUOUS
10
24.5
20
-6.5
11
40.5
21
-6.5
0
LINE
8
BLACK
6
CONTINUOUS
10
-52.5
20
-81.5
11
-34
21
-86.5
0
ARC
8
BLACK
10
116.751
20
-73.1431
40
1.45767
50
-88.0658
51
-6.17915
0
CIRCLE
8
BLACK
10
-28
20
-72
40
1.25
0
CIRCLE
8
BLACK
10
-120.25
20
-49.75
40
1.25
0
CIRCLE
8
BLACK
10
-41.5
20
-26
40
1.25
0
CIRCLE
8
BLACK
10
-100.7
20
-23.5
40
1.25
0
CIRCLE
8
BLACK
10
-79.5
20
-58
40
1.25
0
CIRCLE
8
BLACK
10
28
20
-72
40
1.25
0
CIRCLE
8
BLACK
10
120.25
20
-49.75
40
1.25
0
CIRCLE
8
BLACK
10
100.7
20
-23.5
40
1.25
0
CIRCLE
8
BLACK
10
79.5
20
-58
40
1.25
0
CIRCLE
8
BLACK
10
41.5
20
-26
40
1.25
0
CIRCLE
8
BLACK
10
-19
20
-33
40
1.25
0
CIRCLE
8
BLACK
10
-10.25
20
-33
40
1.25
0
CIRCLE
8
BLACK
10
10.25
20
-33
40
1.25
0
CIRCLE
8
BLACK
10
19
20
-33
40
1.25
0
LINE
8
BLACK
6
CONTINUOUS
10
-13.6
20
-45.45
11
-12.4
21
-45.45
0
LINE
8
BLACK
6
CONTINUOUS
10
-13.6
20
-47.85
11
-12.4
21
-47.85
0
LINE
8
BLACK
6
CONTINUOUS
10
-13.6
20
-56.65
11
-12.4
21
-56.65
0
LINE
8
BLACK
6
CONTINUOUS
10
-13.6
20
-59.05
11
-12.4
21
-59.05
0
LINE
8
BLACK
6
CONTINUOUS
10
-21.75
20
-48.5
11
-19.25
21
-48.5
0
LINE
8
BLACK
6
CONTINUOUS
10
-19.25
20
-48.5
11
-19.25
21
-56
0
LINE
8
BLACK
6
CONTINUOUS
10
-19.25
20
-56
11
-21.75
21
-56
0
LINE
8
BLACK
6
CONTINUOUS
10
-21.75
20
-56
11
-21.75
21
-48.5
0
ARC
8
BLACK
10
-13.6
20
-46.65
40
1.2
50
-270
51
-90
0
ARC
8
BLACK
10
-13.6
20
-57.85
40
1.2
50
-270
51
-90
0
ARC
8
BLACK
10
-12.4
20
-46.65
40
1.2
50
-90
51
90
0
ARC
8
BLACK
10
-12.4
20
-57.85
40
1.2
50
-90
51
90
0
CIRCLE
8
BLACK
10
-6
20
-49.75
40
1.25
0
CIRCLE
8
BLACK
10
-6
20
-54.75
40
1.25
0
LINE
8
BLACK
6
CONTINUOUS
10
13.6
20
-59.05
11
12.4
21
-59.05
0
LINE
8
BLACK
6
CONTINUOUS
10
13.6
20
-56.65
11
12.4
21
-56.65
0
LINE
8
BLACK
6
CONTINUOUS
10
13.6
20
-47.85
11
12.4
21
-47.85
0
LINE
8
BLACK
6
CONTINUOUS
10
13.6
20
-45.45
11
12.4
21
-45.45
0
LINE
8
BLACK
6
CONTINUOUS
10
21.75
20
-56
11
19.25
21
-56
0
LINE
8
BLACK
6
CONTINUOUS
10
19.25
20
-56
11
19.25
21
-48.5
0
LINE
8
BLACK
6
CONTINUOUS
10
19.25
20
-48.5
11
21.75
21
-48.5
0
LINE
8
BLACK
6
CONTINUOUS
10
21.75
20
-48.5
11
21.75
21
-56
0
ARC
8
BLACK
10
13.6
20
-57.85
40
1.2
50
-90
51
90
0
ARC
8
BLACK
10
13.6
20
-46.65
40
1.2
50
-90
51
90
0
ARC
8
BLACK
10
12.4
20
-57.85
40
1.2
50
-270
51
-90
0
ARC
8
BLACK
10
12.4
20
-46.65
40
1.2
50
-270
51
-90
0
CIRCLE
8
BLACK
10
6
20
-54.75
40
1.25
0
CIRCLE
8
BLACK
10
6
20
-49.75
40
1.25
0
LINE
8
BLACK
6
CONTINUOUS
10
-119.864
20
-41.6496
11
-119.603
21
-44.6382
0
LINE
8
BLACK
6
CONTINUOUS
10
-119.603
20
-44.6382
11
-117.112
21
-44.4203
0
LINE
8
BLACK
6
CONTINUOUS
10
-117.112
20
-44.4203
11
-116.938
21
-46.4127
0
LINE
8
BLACK
6
CONTINUOUS
10
-116.938
20
-46.4127
11
-113.053
21
-46.0728
0
LINE
8
BLACK
6
CONTINUOUS
10
-117.175
20
-41.4143
11
-119.864
21
-41.6496
0
LINE
8
BLACK
6
CONTINUOUS
10
-117.175
20
-41.4143
11
-117.253
21
-40.5177
0
LINE
8
BLACK
6
CONTINUOUS
10
-115.768
20
-48.3179
11
-114.971
21
-48.2482
0
LINE
8
BLACK
6
CONTINUOUS
10
-115.611
20
-50.1111
11
-114.814
21
-50.0414
0
LINE
8
BLACK
6
CONTINUOUS
10
-110.513
20
-49.8658
11
-109.716
21
-49.7961
0
LINE
8
BLACK
6
CONTINUOUS
10
-110.356
20
-51.659
11
-109.559
21
-51.5893
0
LINE
8
BLACK
6
CONTINUOUS
10
-107.873
20
-45.6196
11
-103.988
21
-45.2797
0
LINE
8
BLACK
6
CONTINUOUS
10
-104.397
20
-40.5976
11
-103.102
21
-40.4843
0
LINE
8
BLACK
6
CONTINUOUS
10
-103.988
20
-45.2797
11
-104.397
21
-40.5976
0
LINE
8
BLACK
6
CONTINUOUS
10
-103.39
20
-37.1968
11
-115.43
21
-38.2502
0
LINE
8
BLACK
6
CONTINUOUS
10
-103.102
20
-40.4843
11
-103.39
21
-37.1968
0
ARC
8
BLACK
10
-115.254
20
-40.2585
40
2.01597
50
-265
51
-172.611
0
ARC
8
BLACK
10
-115.689
20
-49.2145
40
0.899999
50
-265
51
-85
0
ARC
8
BLACK
10
-114.892
20
-49.1448
40
0.899999
50
-85
51
95
0
ARC
8
BLACK
10
-110.434
20
-50.7624
40
0.899999
50
-265
51
-85
0
ARC
8
BLACK
10
-109.637
20
-50.6927
40
0.899999
50
-85
51
95
0
ARC
8
BLACK
10
-110.55
20
-44.85
40
2.78568
50
-153.962
51
-16.0375
0
LINE
8
BLACK
6
CONTINUOUS
10
-61
20
-29.5
11
-61
21
-32.5
0
LINE
8
BLACK
6
CONTINUOUS
10
-61
20
-32.5
11
-58.5
21
-32.5
0
LINE
8
BLACK
6
CONTINUOUS
10
-58.5
20
-32.5
11
-58.5
21
-34.5
0
LINE
8
BLACK
6
CONTINUOUS
10
-58.5
20
-34.5
11
-54.6
21
-34.5
0
LINE
8
BLACK
6
CONTINUOUS
10
-58.3
20
-29.5
11
-61
21
-29.5
0
LINE
8
BLACK
6
CONTINUOUS
10
-58.3
20
-29.5
11
-58.3
21
-28.6
0
LINE
8
BLACK
6
CONTINUOUS
10
-57.5
20
-36.5
11
-56.7
21
-36.5
0
LINE
8
BLACK
6
CONTINUOUS
10
-57.5
20
-38.3
11
-56.7
21
-38.3
0
LINE
8
BLACK
6
CONTINUOUS
10
-52.4
20
-38.5
11
-51.6
21
-38.5
0
LINE
8
BLACK
6
CONTINUOUS
10
-52.4
20
-40.3
11
-51.6
21
-40.3
0
LINE
8
BLACK
6
CONTINUOUS
10
-49.4
20
-34.5
11
-45.5
21
-34.5
0
LINE
8
BLACK
6
CONTINUOUS
10
-45.5
20
-29.8
11
-44.2
21
-29.8
0
LINE
8
BLACK
6
CONTINUOUS
10
-45.5
20
-34.5
11
-45.5
21
-29.8
0
LINE
8
BLACK
6
CONTINUOUS
10
-44.2
20
-26.5
11
-56.2858
21
-26.5
0
LINE
8
BLACK
6
CONTINUOUS
10
-44.2
20
-29.8
11
-44.2
21
-26.5
0
ARC
8
BLACK
10
-56.2858
20
-28.516
40
2.01597
50
-270
51
-177.611
0
ARC
8
BLACK
10
-57.5
20
-37.4
40
0.9
50
-270
51
-90
0
ARC
8
BLACK
10
-56.7
20
-37.4
40
0.9
50
-90
51
90
0
ARC
8
BLACK
10
-52.4
20
-39.4
40
0.9
50
-270
51
-90
0
ARC
8
BLACK
10
-51.6
20
-39.4
40
0.9
50
-90
51
90
0
ARC
8
BLACK
10
-52
20
-33.5
40
2.78568
50
-158.963
51
-21.0375
0
LINE
8
BLACK
6
CONTINUOUS
10
-71
20
-67.5
11
-71
21
-70.5
0
LINE
8
BLACK
6
CONTINUOUS
10
-71
20
-70.5
11
-68.5
21
-70.5
0
LINE
8
BLACK
6
CONTINUOUS
10
-68.5
20
-70.5
11
-68.5
21
-72.5
0
LINE
8
BLACK
6
CONTINUOUS
10
-68.5
20
-72.5
11
-64.6
21
-72.5
0
LINE
8
BLACK
6
CONTINUOUS
10
-68.3
20
-67.5
11
-71
21
-67.5
0
LINE
8
BLACK
6
CONTINUOUS
10
-68.3
20
-67.5
11
-68.3
21
-66.6
0
LINE
8
BLACK
6
CONTINUOUS
10
-67.5
20
-74.5
11
-66.7
21
-74.5
0
LINE
8
BLACK
6
CONTINUOUS
10
-67.5
20
-76.3
11
-66.7
21
-76.3
0
LINE
8
BLACK
6
CONTINUOUS
10
-62.4
20
-76.5
11
-61.6
21
-76.5
0
LINE
8
BLACK
6
CONTINUOUS
10
-62.4
20
-78.3
11
-61.6
21
-78.3
0
LINE
8
BLACK
6
CONTINUOUS
10
-59.4
20
-72.5
11
-55.5
21
-72.5
0
LINE
8
BLACK
6
CONTINUOUS
10
-55.5
20
-67.8
11
-54.2
21
-67.8
0
LINE
8
BLACK
6
CONTINUOUS
10
-55.5
20
-72.5
11
-55.5
21
-67.8
0
LINE
8
BLACK
6
CONTINUOUS
10
-54.2
20
-64.5
11
-66.2858
21
-64.5
0
LINE
8
BLACK
6
CONTINUOUS
10
-54.2
20
-67.8
11
-54.2
21
-64.5
0
ARC
8
BLACK
10
-66.2858
20
-66.516
40
2.01597
50
-270
51
-177.611
0
ARC
8
BLACK
10
-67.5
20
-75.4
40
0.9
50
-270
51
-90
0
ARC
8
BLACK
10
-66.7
20
-75.4
40
0.9
50
-90
51
90
0
ARC
8
BLACK
10
-62.4
20
-77.4
40
0.9
50
-270
51
-90
0
ARC
8
BLACK
10
-61.6
20
-77.4
40
0.9
50
-90
51
90
0
ARC
8
BLACK
10
-62
20
-71.5
40
2.78568
50
-158.963
51
-21.0375
0
LINE
8
BLACK
6
CONTINUOUS
10
-137.614
20
-56.8996
11
-137.353
21
-59.8882
0
LINE
8
BLACK
6
CONTINUOUS
10
-137.353
20
-59.8882
11
-134.862
21
-59.6703
0
LINE
8
BLACK
6
CONTINUOUS
10
-134.862
20
-59.6703
11
-134.688
21
-61.6627
0
LINE
8
BLACK
6
CONTINUOUS
10
-134.688
20
-61.6627
11
-130.803
21
-61.3228
0
LINE
8
BLACK
6
CONTINUOUS
10
-134.925
20
-56.6643
11
-137.614
21
-56.8996
0
LINE
8
BLACK
6
CONTINUOUS
10
-134.925
20
-56.6643
11
-135.003
21
-55.7677
0
LINE
8
BLACK
6
CONTINUOUS
10
-133.518
20
-63.5679
11
-132.721
21
-63.4982
0
LINE
8
BLACK
6
CONTINUOUS
10
-133.361
20
-65.3611
11
-132.564
21
-65.2914
0
LINE
8
BLACK
6
CONTINUOUS
10
-128.263
20
-65.1158
11
-127.466
21
-65.0461
0
LINE
8
BLACK
6
CONTINUOUS
10
-128.106
20
-66.909
11
-127.309
21
-66.8393
0
LINE
8
BLACK
6
CONTINUOUS
10
-125.623
20
-60.8696
11
-121.738
21
-60.5297
0
LINE
8
BLACK
6
CONTINUOUS
10
-122.147
20
-55.8476
11
-120.852
21
-55.7343
0
LINE
8
BLACK
6
CONTINUOUS
10
-121.738
20
-60.5297
11
-122.147
21
-55.8476
0
LINE
8
BLACK
6
CONTINUOUS
10
-121.14
20
-52.4468
11
-133.18
21
-53.5002
0
LINE
8
BLACK
6
CONTINUOUS
10
-120.852
20
-55.7343
11
-121.14
21
-52.4468
0
ARC
8
BLACK
10
-133.004
20
-55.5085
40
2.01597
50
-265
51
-172.611
0
ARC
8
BLACK
10
-133.439
20
-64.4645
40
0.899999
50
-265
51
-85
0
ARC
8
BLACK
10
-132.642
20
-64.3948
40
0.899999
50
-85
51
95
0
ARC
8
BLACK
10
-128.184
20
-66.0124
40
0.899999
50
-265
51
-85
0
ARC
8
BLACK
10
-127.387
20
-65.9427
40
0.899999
50
-85
51
95
0
ARC
8
BLACK
10
-128.3
20
-60.1
40
2.78568
50
-153.962
51
-16.0375
0
LINE
8
BLACK
6
CONTINUOUS
10
-99
20
-29
11
-99
21
-32
0
LINE
8
BLACK
6
CONTINUOUS
10
-99
20
-32
11
-96.5
21
-32
0
LINE
8
BLACK
6
CONTINUOUS
10
-96.5
20
-32
11
-96.5
21
-34
0
LINE
8
BLACK
6
CONTINUOUS
10
-96.5
20
-34
11
-92.6
21
-34
0
LINE
8
BLACK
6
CONTINUOUS
10
-96.3
20
-29
11
-99
21
-29
0
LINE
8
BLACK
6
CONTINUOUS
10
-96.3
20
-29
11
-96.3
21
-28.1
0
LINE
8
BLACK
6
CONTINUOUS
10
-95.5
20
-36
11
-94.7
21
-36
0
LINE
8
BLACK
6
CONTINUOUS
10
-95.5
20
-37.8
11
-94.7
21
-37.8
0
LINE
8
BLACK
6
CONTINUOUS
10
-90.4
20
-38
11
-89.6
21
-38
0
LINE
8
BLACK
6
CONTINUOUS
10
-90.4
20
-39.8
11
-89.6
21
-39.8
0
LINE
8
BLACK
6
CONTINUOUS
10
-87.4
20
-34
11
-83.5
21
-34
0
LINE
8
BLACK
6
CONTINUOUS
10
-83.5
20
-29.3
11
-82.2
21
-29.3
0
LINE
8
BLACK
6
CONTINUOUS
10
-83.5
20
-34
11
-83.5
21
-29.3
0
LINE
8
BLACK
6
CONTINUOUS
10
-82.2
20
-26
11
-94.2858
21
-26
0
LINE
8
BLACK
6
CONTINUOUS
10
-82.2
20
-29.3
11
-82.2
21
-26
0
ARC
8
BLACK
10
-94.2858
20
-28.016
40
2.01597
50
-270
51
-177.611
0
ARC
8
BLACK
10
-95.5
20
-36.9
40
0.9
50
-270
51
-90
0
ARC
8
BLACK
10
-94.7
20
-36.9
40
0.9
50
-90
51
90
0
ARC
8
BLACK
10
-90.4
20
-38.9
40
0.9
50
-270
51
-90
0
ARC
8
BLACK
10
-89.6
20
-38.9
40
0.9
50
-90
51
90
0
ARC
8
BLACK
10
-90
20
-33
40
2.78568
50
-158.963
51
-21.0375
0
LINE
8
BLACK
6
CONTINUOUS
10
43
20
-29.5
11
43
21
-32.5
0
LINE
8
BLACK
6
CONTINUOUS
10
43
20
-32.5
11
45.5
21
-32.5
0
LINE
8
BLACK
6
CONTINUOUS
10
45.5
20
-32.5
11
45.5
21
-34.5
0
LINE
8
BLACK
6
CONTINUOUS
10
45.5
20
-34.5
11
49.4
21
-34.5
0
LINE
8
BLACK
6
CONTINUOUS
10
45.7
20
-29.5
11
43
21
-29.5
0
LINE
8
BLACK
6
CONTINUOUS
10
45.7
20
-29.5
11
45.7
21
-28.6
0
LINE
8
BLACK
6
CONTINUOUS
10
46.5
20
-36.5
11
47.3
21
-36.5
0
LINE
8
BLACK
6
CONTINUOUS
10
46.5
20
-38.3
11
47.3
21
-38.3
0
LINE
8
BLACK
6
CONTINUOUS
10
51.6
20
-38.5
11
52.4
21
-38.5
0
LINE
8
BLACK
6
CONTINUOUS
10
51.6
20
-40.3
11
52.4
21
-40.3
0
LINE
8
BLACK
6
CONTINUOUS
10
54.6
20
-34.5
11
58.5
21
-34.5
0
LINE
8
BLACK
6
CONTINUOUS
10
58.5
20
-29.8
11
59.8
21
-29.8
0
LINE
8
BLACK
6
CONTINUOUS
10
58.5
20
-34.5
11
58.5
21
-29.8
0
LINE
8
BLACK
6
CONTINUOUS
10
59.8
20
-26.5
11
47.7142
21
-26.5
0
LINE
8
BLACK
6
CONTINUOUS
10
59.8
20
-29.8
11
59.8
21
-26.5
0
ARC
8
BLACK
10
47.7142
20
-28.516
40
2.01597
50
-270
51
-177.611
0
ARC
8
BLACK
10
46.5
20
-37.4
40
0.9
50
-270
51
-90
0
ARC
8
BLACK
10
47.3
20
-37.4
40
0.9
50
-90
51
90
0
ARC
8
BLACK
10
51.6
20
-39.4
40
0.9
50
-270
51
-90
0
ARC
8
BLACK
10
52.4
20
-39.4
40
0.9
50
-90
51
90
0
ARC
8
BLACK
10
52
20
-33.5
40
2.78568
50
-158.963
51
-21.0375
0
LINE
8
BLACK
6
CONTINUOUS
10
-80
20
-25
11
-80
21
-28
0
LINE
8
BLACK
6
CONTINUOUS
10
-80
20
-28
11
-77.5
21
-28
0
LINE
8
BLACK
6
CONTINUOUS
10
-77.5
20
-28
11
-77.5
21
-30
0
LINE
8
BLACK
6
CONTINUOUS
10
-77.5
20
-30
11
-73.6
21
-30
0
LINE
8
BLACK
6
CONTINUOUS
10
-77.3
20
-25
11
-80
21
-25
0
LINE
8
BLACK
6
CONTINUOUS
10
-77.3
20
-25
11
-77.3
21
-24.1
0
LINE
8
BLACK
6
CONTINUOUS
10
-76.5
20
-32
11
-75.7
21
-32
0
LINE
8
BLACK
6
CONTINUOUS
10
-76.5
20
-33.8
11
-75.7
21
-33.8
0
LINE
8
BLACK
6
CONTINUOUS
10
-71.4
20
-34
11
-70.6
21
-34
0
LINE
8
BLACK
6
CONTINUOUS
10
-71.4
20
-35.8
11
-70.6
21
-35.8
0
LINE
8
BLACK
6
CONTINUOUS
10
-68.4
20
-30
11
-64.5
21
-30
0
LINE
8
BLACK
6
CONTINUOUS
10
-64.5
20
-25.3
11
-63.2
21
-25.3
0
LINE
8
BLACK
6
CONTINUOUS
10
-64.5
20
-30
11
-64.5
21
-25.3
0
LINE
8
BLACK
6
CONTINUOUS
10
-63.2
20
-22
11
-75.2858
21
-22
0
LINE
8
BLACK
6
CONTINUOUS
10
-63.2
20
-25.3
11
-63.2
21
-22
0
ARC
8
BLACK
10
-75.2858
20
-24.016
40
2.01597
50
-270
51
-177.611
0
ARC
8
BLACK
10
-76.5
20
-32.9
40
0.9
50
-270
51
-90
0
ARC
8
BLACK
10
-75.7
20
-32.9
40
0.9
50
-90
51
90
0
ARC
8
BLACK
10
-71.4
20
-34.9
40
0.9
50
-270
51
-90
0
ARC
8
BLACK
10
-70.6
20
-34.9
40
0.9
50
-90
51
90
0
ARC
8
BLACK
10
-71
20
-29
40
2.78568
50
-158.963
51
-21.0375
0
LINE
8
BLACK
6
CONTINUOUS
10
-80
20
-6
11
-80
21
-9
0
LINE
8
BLACK
6
CONTINUOUS
10
-80
20
-9
11
-77.5
21
-9
0
LINE
8
BLACK
6
CONTINUOUS
10
-77.5
20
-9
11
-77.5
21
-11
0
LINE
8
BLACK
6
CONTINUOUS
10
-77.5
20
-11
11
-73.6
21
-11
0
LINE
8
BLACK
6
CONTINUOUS
10
-77.3
20
-6
11
-80
21
-6
0
LINE
8
BLACK
6
CONTINUOUS
10
-77.3
20
-6
11
-77.3
21
-5.1
0
LINE
8
BLACK
6
CONTINUOUS
10
-76.5
20
-13
11
-75.7
21
-13
0
LINE
8
BLACK
6
CONTINUOUS
10
-76.5
20
-14.8
11
-75.7
21
-14.8
0
LINE
8
BLACK
6
CONTINUOUS
10
-71.4
20
-15
11
-70.6
21
-15
0
LINE
8
BLACK
6
CONTINUOUS
10
-71.4
20
-16.8
11
-70.6
21
-16.8
0
LINE
8
BLACK
6
CONTINUOUS
10
-68.4
20
-11
11
-64.5
21
-11
0
LINE
8
BLACK
6
CONTINUOUS
10
-64.5
20
-6.3
11
-63.2
21
-6.3
0
LINE
8
BLACK
6
CONTINUOUS
10
-64.5
20
-11
11
-64.5
21
-6.3
0
LINE
8
BLACK
6
CONTINUOUS
10
-63.2
20
-3
11
-75.2858
21
-3
0
LINE
8
BLACK
6
CONTINUOUS
10
-63.2
20
-6.3
11
-63.2
21
-3
0
ARC
8
BLACK
10
-75.2858
20
-5.01597
40
2.01597
50
-270
51
-177.611
0
ARC
8
BLACK
10
-76.5
20
-13.9
40
0.9
50
-270
51
-90
0
ARC
8
BLACK
10
-75.7
20
-13.9
40
0.9
50
-90
51
90
0
ARC
8
BLACK
10
-71.4
20
-15.9
40
0.9
50
-270
51
-90
0
ARC
8
BLACK
10
-70.6
20
-15.9
40
0.9
50
-90
51
90
0
ARC
8
BLACK
10
-71
20
-10
40
2.78568
50
-158.963
51
-21.0375
0
LINE
8
BLACK
6
CONTINUOUS
10
100.283
20
-59.0308
11
100.021
21
-62.0194
0
LINE
8
BLACK
6
CONTINUOUS
10
100.021
20
-62.0194
11
102.512
21
-62.2373
0
LINE
8
BLACK
6
CONTINUOUS
10
102.512
20
-62.2373
11
102.338
21
-64.2297
0
LINE
8
BLACK
6
CONTINUOUS
10
102.338
20
-64.2297
11
106.223
21
-64.5696
0
LINE
8
BLACK
6
CONTINUOUS
10
102.973
20
-59.2661
11
100.283
21
-59.0308
0
LINE
8
BLACK
6
CONTINUOUS
10
102.973
20
-59.2661
11
103.051
21
-58.3696
0
LINE
8
BLACK
6
CONTINUOUS
10
103.159
20
-66.3092
11
103.956
21
-66.379
0
LINE
8
BLACK
6
CONTINUOUS
10
103.003
20
-68.1024
11
103.8
21
-68.1721
0
LINE
8
BLACK
6
CONTINUOUS
10
108.066
20
-68.7461
11
108.863
21
-68.8158
0
LINE
8
BLACK
6
CONTINUOUS
10
107.909
20
-70.5393
11
108.706
21
-70.609
0
LINE
8
BLACK
6
CONTINUOUS
10
111.403
20
-65.0228
11
115.288
21
-65.3627
0
LINE
8
BLACK
6
CONTINUOUS
10
115.698
20
-60.6806
11
116.993
21
-60.7939
0
LINE
8
BLACK
6
CONTINUOUS
10
115.288
20
-65.3627
11
115.698
21
-60.6806
0
LINE
8
BLACK
6
CONTINUOUS
10
117.28
20
-57.5065
11
105.241
21
-56.4531
0
LINE
8
BLACK
6
CONTINUOUS
10
116.993
20
-60.7939
11
117.28
21
-57.5065
0
ARC
8
BLACK
10
105.065
20
-58.4614
40
2.01597
50
85.0001
51
177.389
0
ARC
8
BLACK
10
103.081
20
-67.2058
40
0.899999
50
-275
51
-95
0
ARC
8
BLACK
10
103.878
20
-67.2755
40
0.899999
50
-95
51
85
0
ARC
8
BLACK
10
107.987
20
-69.6427
40
0.9
50
-275
51
-95
0
ARC
8
BLACK
10
108.784
20
-69.7124
40
0.899999
50
-95
51
85
0
ARC
8
BLACK
10
108.9
20
-63.8
40
2.78568
50
-163.963
51
-26.0375
0
LINE
8
BLACK
6
CONTINUOUS
10
43
20
-10.5
11
43
21
-13.5
0
LINE
8
BLACK
6
CONTINUOUS
10
43
20
-13.5
11
45.5
21
-13.5
0
LINE
8
BLACK
6
CONTINUOUS
10
45.5
20
-13.5
11
45.5
21
-15.5
0
LINE
8
BLACK
6
CONTINUOUS
10
45.5
20
-15.5
11
49.4
21
-15.5
0
LINE
8
BLACK
6
CONTINUOUS
10
45.7
20
-10.5
11
43
21
-10.5
0
LINE
8
BLACK
6
CONTINUOUS
10
45.7
20
-10.5
11
45.7
21
-9.6
0
LINE
8
BLACK
6
CONTINUOUS
10
46.5
20
-17.5
11
47.3
21
-17.5
0
LINE
8
BLACK
6
CONTINUOUS
10
46.5
20
-19.3
11
47.3
21
-19.3
0
LINE
8
BLACK
6
CONTINUOUS
10
51.6
20
-19.5
11
52.4
21
-19.5
0
LINE
8
BLACK
6
CONTINUOUS
10
51.6
20
-21.3
11
52.4
21
-21.3
0
LINE
8
BLACK
6
CONTINUOUS
10
54.6
20
-15.5
11
58.5
21
-15.5
0
LINE
8
BLACK
6
CONTINUOUS
10
58.5
20
-10.8
11
59.8
21
-10.8
0
LINE
8
BLACK
6
CONTINUOUS
10
58.5
20
-15.5
11
58.5
21
-10.8
0
LINE
8
BLACK
6
CONTINUOUS
10
59.8
20
-7.5
11
47.7142
21
-7.5
0
LINE
8
BLACK
6
CONTINUOUS
10
59.8
20
-10.8
11
59.8
21
-7.5
0
ARC
8
BLACK
10
47.7142
20
-9.51597
40
2.01597
50
-270
51
-177.611
0
ARC
8
BLACK
10
46.5
20
-18.4
40
0.9
50
-270
51
-90
0
ARC
8
BLACK
10
47.3
20
-18.4
40
0.9
50
-90
51
90
0
ARC
8
BLACK
10
51.6
20
-20.4
40
0.9
50
-270
51
-90
0
ARC
8
BLACK
10
52.4
20
-20.4
40
0.9
50
-90
51
90
0
ARC
8
BLACK
10
52
20
-14.5
40
2.78568
50
-158.963
51
-21.0375
0
LINE
8
BLACK
6
CONTINUOUS
10
-121.514
20
-22.6996
11
-121.253
21
-25.6882
0
LINE
8
BLACK
6
CONTINUOUS
10
-121.253
20
-25.6882
11
-118.762
21
-25.4703
0
LINE
8
BLACK
6
CONTINUOUS
10
-118.762
20
-25.4703
11
-118.588
21
-27.4627
0
LINE
8
BLACK
6
CONTINUOUS
10
-118.588
20
-27.4627
11
-114.703
21
-27.1228
0
LINE
8
BLACK
6
CONTINUOUS
10
-118.825
20
-22.4643
11
-121.514
21
-22.6996
0
LINE
8
BLACK
6
CONTINUOUS
10
-118.825
20
-22.4643
11
-118.903
21
-21.5677
0
LINE
8
BLACK
6
CONTINUOUS
10
-117.418
20
-29.3679
11
-116.621
21
-29.2982
0
LINE
8
BLACK
6
CONTINUOUS
10
-117.261
20
-31.1611
11
-116.464
21
-31.0914
0
LINE
8
BLACK
6
CONTINUOUS
10
-112.163
20
-30.9158
11
-111.366
21
-30.8461
0
LINE
8
BLACK
6
CONTINUOUS
10
-112.006
20
-32.709
11
-111.209
21
-32.6393
0
LINE
8
BLACK
6
CONTINUOUS
10
-109.523
20
-26.6696
11
-105.638
21
-26.3297
0
LINE
8
BLACK
6
CONTINUOUS
10
-106.047
20
-21.6476
11
-104.752
21
-21.5343
0
LINE
8
BLACK
6
CONTINUOUS
10
-105.638
20
-26.3297
11
-106.047
21
-21.6476
0
LINE
8
BLACK
6
CONTINUOUS
10
-105.04
20
-18.2468
11
-117.08
21
-19.3002
0
LINE
8
BLACK
6
CONTINUOUS
10
-104.752
20
-21.5343
11
-105.04
21
-18.2468
0
ARC
8
BLACK
10
-116.904
20
-21.3085
40
2.01597
50
-265
51
-172.611
0
ARC
8
BLACK
10
-117.339
20
-30.2645
40
0.899999
50
-265
51
-85
0
ARC
8
BLACK
10
-116.542
20
-30.1948
40
0.899999
50
-85
51
95
0
ARC
8
BLACK
10
-112.084
20
-31.8124
40
0.899999
50
-265
51
-85
0
ARC
8
BLACK
10
-111.287
20
-31.7427
40
0.899999
50
-85
51
95
0
ARC
8
BLACK
10
-112.2
20
-25.9
40
2.78568
50
-153.962
51
-16.0375
0
LINE
8
BLACK
6
CONTINUOUS
10
62
20
-6
11
62
21
-9
0
LINE
8
BLACK
6
CONTINUOUS
10
62
20
-9
11
64.5
21
-9
0
LINE
8
BLACK
6
CONTINUOUS
10
64.5
20
-9
11
64.5
21
-11
0
LINE
8
BLACK
6
CONTINUOUS
10
64.5
20
-11
11
68.4
21
-11
0
LINE
8
BLACK
6
CONTINUOUS
10
64.7
20
-6
11
62
21
-6
0
LINE
8
BLACK
6
CONTINUOUS
10
64.7
20
-6
11
64.7
21
-5.1
0
LINE
8
BLACK
6
CONTINUOUS
10
65.5
20
-13
11
66.3
21
-13
0
LINE
8
BLACK
6
CONTINUOUS
10
65.5
20
-14.8
11
66.3
21
-14.8
0
LINE
8
BLACK
6
CONTINUOUS
10
70.6
20
-15
11
71.4
21
-15
0
LINE
8
BLACK
6
CONTINUOUS
10
70.6
20
-16.8
11
71.4
21
-16.8
0
LINE
8
BLACK
6
CONTINUOUS
10
73.6
20
-11
11
77.5
21
-11
0
LINE
8
BLACK
6
CONTINUOUS
10
77.5
20
-6.3
11
78.8
21
-6.3
0
LINE
8
BLACK
6
CONTINUOUS
10
77.5
20
-11
11
77.5
21
-6.3
0
LINE
8
BLACK
6
CONTINUOUS
10
78.8
20
-3
11
66.7142
21
-3
0
LINE
8
BLACK
6
CONTINUOUS
10
78.8
20
-6.3
11
78.8
21
-3
0
ARC
8
BLACK
10
66.7142
20
-5.01597
40
2.01597
50
-270
51
-177.611
0
ARC
8
BLACK
10
65.5
20
-13.9
40
0.9
50
-270
51
-90
0
ARC
8
BLACK
10
66.3
20
-13.9
40
0.9
50
-90
51
90
0
ARC
8
BLACK
10
70.6
20
-15.9
40
0.9
50
-270
51
-90
0
ARC
8
BLACK
10
71.4
20
-15.9
40
0.9
50
-90
51
90
0
ARC
8
BLACK
10
71
20
-10
40
2.78568
50
-158.963
51
-21.0375
0
LINE
8
BLACK
6
CONTINUOUS
10
103.583
20
-21.1308
11
103.321
21
-24.1194
0
LINE
8
BLACK
6
CONTINUOUS
10
103.321
20
-24.1194
11
105.812
21
-24.3373
0
LINE
8
BLACK
6
CONTINUOUS
10
105.812
20
-24.3373
11
105.638
21
-26.3297
0
LINE
8
BLACK
6
CONTINUOUS
10
105.638
20
-26.3297
11
109.523
21
-26.6696
0
LINE
8
BLACK
6
CONTINUOUS
10
106.273
20
-21.3661
11
103.583
21
-21.1308
0
LINE
8
BLACK
6
CONTINUOUS
10
106.273
20
-21.3661
11
106.351
21
-20.4696
0
LINE
8
BLACK
6
CONTINUOUS
10
106.459
20
-28.4092
11
107.256
21
-28.479
0
LINE
8
BLACK
6
CONTINUOUS
10
106.303
20
-30.2024
11
107.1
21
-30.2721
0
LINE
8
BLACK
6
CONTINUOUS
10
111.366
20
-30.8461
11
112.163
21
-30.9158
0
LINE
8
BLACK
6
CONTINUOUS
10
111.209
20
-32.6393
11
112.006
21
-32.709
0
LINE
8
BLACK
6
CONTINUOUS
10
114.703
20
-27.1228
11
118.588
21
-27.4627
0
LINE
8
BLACK
6
CONTINUOUS
10
118.998
20
-22.7806
11
120.293
21
-22.8939
0
LINE
8
BLACK
6
CONTINUOUS
10
118.588
20
-27.4627
11
118.998
21
-22.7806
0
LINE
8
BLACK
6
CONTINUOUS
10
120.58
20
-19.6065
11
108.541
21
-18.5531
0
LINE
8
BLACK
6
CONTINUOUS
10
120.293
20
-22.8939
11
120.58
21
-19.6065
0
ARC
8
BLACK
10
108.365
20
-20.5614
40
2.01597
50
85.0001
51
177.389
0
ARC
8
BLACK
10
106.381
20
-29.3058
40
0.899999
50
-275
51
-95
0
ARC
8
BLACK
10
107.178
20
-29.3755
40
0.899999
50
-95
51
85
0
ARC
8
BLACK
10
111.287
20
-31.7427
40
0.9
50
-275
51
-95
0
ARC
8
BLACK
10
112.084
20
-31.8124
40
0.899999
50
-95
51
85
0
ARC
8
BLACK
10
112.2
20
-25.9
40
2.78568
50
-163.963
51
-26.0375
0
LINE
8
BLACK
6
CONTINUOUS
10
-139.314
20
-37.8996
11
-139.053
21
-40.8882
0
LINE
8
BLACK
6
CONTINUOUS
10
-139.053
20
-40.8882
11
-136.562
21
-40.6703
0
LINE
8
BLACK
6
CONTINUOUS
10
-136.562
20
-40.6703
11
-136.388
21
-42.6627
0
LINE
8
BLACK
6
CONTINUOUS
10
-136.388
20
-42.6627
11
-132.503
21
-42.3228
0
LINE
8
BLACK
6
CONTINUOUS
10
-136.625
20
-37.6643
11
-139.314
21
-37.8996
0
LINE
8
BLACK
6
CONTINUOUS
10
-136.625
20
-37.6643
11
-136.703
21
-36.7677
0
LINE
8
BLACK
6
CONTINUOUS
10
-135.218
20
-44.5679
11
-134.421
21
-44.4982
0
LINE
8
BLACK
6
CONTINUOUS
10
-135.061
20
-46.3611
11
-134.264
21
-46.2914
0
LINE
8
BLACK
6
CONTINUOUS
10
-129.963
20
-46.1158
11
-129.166
21
-46.0461
0
LINE
8
BLACK
6
CONTINUOUS
10
-129.806
20
-47.909
11
-129.009
21
-47.8393
0
LINE
8
BLACK
6
CONTINUOUS
10
-127.323
20
-41.8696
11
-123.438
21
-41.5297
0
LINE
8
BLACK
6
CONTINUOUS
10
-123.847
20
-36.8476
11
-122.552
21
-36.7343
0
LINE
8
BLACK
6
CONTINUOUS
10
-123.438
20
-41.5297
11
-123.847
21
-36.8476
0
LINE
8
BLACK
6
CONTINUOUS
10
-122.84
20
-33.4468
11
-134.88
21
-34.5002
0
LINE
8
BLACK
6
CONTINUOUS
10
-122.552
20
-36.7343
11
-122.84
21
-33.4468
0
ARC
8
BLACK
10
-134.704
20
-36.5085
40
2.01597
50
-265
51
-172.611
0
ARC
8
BLACK
10
-135.139
20
-45.4645
40
0.899999
50
-265
51
-85
0
ARC
8
BLACK
10
-134.342
20
-45.3948
40
0.899999
50
-85
51
95
0
ARC
8
BLACK
10
-129.884
20
-47.0124
40
0.899999
50
-265
51
-85
0
ARC
8
BLACK
10
-129.087
20
-46.9427
40
0.899999
50
-85
51
95
0
ARC
8
BLACK
10
-130
20
-41.1
40
2.78568
50
-153.962
51
-16.0375
0
LINE
8
BLACK
6
CONTINUOUS
10
119.683
20
-55.3308
11
119.421
21
-58.3194
0
LINE
8
BLACK
6
CONTINUOUS
10
119.421
20
-58.3194
11
121.912
21
-58.5373
0
LINE
8
BLACK
6
CONTINUOUS
10
121.912
20
-58.5373
11
121.738
21
-60.5297
0
LINE
8
BLACK
6
CONTINUOUS
10
121.738
20
-60.5297
11
125.623
21
-60.8696
0
LINE
8
BLACK
6
CONTINUOUS
10
122.373
20
-55.5661
11
119.683
21
-55.3308
0
LINE
8
BLACK
6
CONTINUOUS
10
122.373
20
-55.5661
11
122.451
21
-54.6696
0
LINE
8
BLACK
6
CONTINUOUS
10
122.559
20
-62.6092
11
123.356
21
-62.679
0
LINE
8
BLACK
6
CONTINUOUS
10
122.403
20
-64.4024
11
123.2
21
-64.4721
0
LINE
8
BLACK
6
CONTINUOUS
10
127.466
20
-65.0461
11
128.263
21
-65.1158
0
LINE
8
BLACK
6
CONTINUOUS
10
127.309
20
-66.8393
11
128.106
21
-66.909
0
LINE
8
BLACK
6
CONTINUOUS
10
130.803
20
-61.3228
11
134.688
21
-61.6627
0
LINE
8
BLACK
6
CONTINUOUS
10
135.098
20
-56.9806
11
136.393
21
-57.0939
0
LINE
8
BLACK
6
CONTINUOUS
10
134.688
20
-61.6627
11
135.098
21
-56.9806
0
LINE
8
BLACK
6
CONTINUOUS
10
136.68
20
-53.8065
11
124.641
21
-52.7531
0
LINE
8
BLACK
6
CONTINUOUS
10
136.393
20
-57.0939
11
136.68
21
-53.8065
0
ARC
8
BLACK
10
124.465
20
-54.7614
40
2.01597
50
85.0001
51
177.389
0
ARC
8
BLACK
10
122.481
20
-63.5058
40
0.899999
50
-275
51
-95
0
ARC
8
BLACK
10
123.278
20
-63.5755
40
0.899999
50
-95
51
85
0
ARC
8
BLACK
10
127.387
20
-65.9427
40
0.9
50
-275
51
-95
0
ARC
8
BLACK
10
128.184
20
-66.0124
40
0.899999
50
-95
51
85
0
ARC
8
BLACK
10
128.3
20
-60.1
40
2.78568
50
-163.963
51
-26.0375
0
LINE
8
BLACK
6
CONTINUOUS
10
-61
20
-10.5
11
-61
21
-13.5
0
LINE
8
BLACK
6
CONTINUOUS
10
-61
20
-13.5
11
-58.5
21
-13.5
0
LINE
8
BLACK
6
CONTINUOUS
10
-58.5
20
-13.5
11
-58.5
21
-15.5
0
LINE
8
BLACK
6
CONTINUOUS
10
-58.5
20
-15.5
11
-54.6
21
-15.5
0
LINE
8
BLACK
6
CONTINUOUS
10
-58.3
20
-10.5
11
-61
21
-10.5
0
LINE
8
BLACK
6
CONTINUOUS
10
-58.3
20
-10.5
11
-58.3
21
-9.6
0
LINE
8
BLACK
6
CONTINUOUS
10
-57.5
20
-17.5
11
-56.7
21
-17.5
0
LINE
8
BLACK
6
CONTINUOUS
10
-57.5
20
-19.3
11
-56.7
21
-19.3
0
LINE
8
BLACK
6
CONTINUOUS
10
-52.4
20
-19.5
11
-51.6
21
-19.5
0
LINE
8
BLACK
6
CONTINUOUS
10
-52.4
20
-21.3
11
-51.6
21
-21.3
0
LINE
8
BLACK
6
CONTINUOUS
10
-49.4
20
-15.5
11
-45.5
21
-15.5
0
LINE
8
BLACK
6
CONTINUOUS
10
-45.5
20
-10.8
11
-44.2
21
-10.8
0
LINE
8
BLACK
6
CONTINUOUS
10
-45.5
20
-15.5
11
-45.5
21
-10.8
0
LINE
8
BLACK
6
CONTINUOUS
10
-44.2
20
-7.5
11
-56.2858
21
-7.5
0
LINE
8
BLACK
6
CONTINUOUS
10
-44.2
20
-10.8
11
-44.2
21
-7.5
0
ARC
8
BLACK
10
-56.2858
20
-9.51597
40
2.01597
50
-270
51
-177.611
0
ARC
8
BLACK
10
-57.5
20
-18.4
40
0.9
50
-270
51
-90
0
ARC
8
BLACK
10
-56.7
20
-18.4
40
0.9
50
-90
51
90
0
ARC
8
BLACK
10
-52.4
20
-20.4
40
0.9
50
-270
51
-90
0
ARC
8
BLACK
10
-51.6
20
-20.4
40
0.9
50
-90
51
90
0
ARC
8
BLACK
10
-52
20
-14.5
40
2.78568
50
-158.963
51
-21.0375
0
LINE
8
BLACK
6
CONTINUOUS
10
81
20
-48
11
81
21
-51
0
LINE
8
BLACK
6
CONTINUOUS
10
81
20
-51
11
83.5
21
-51
0
LINE
8
BLACK
6
CONTINUOUS
10
83.5
20
-51
11
83.5
21
-53
0
LINE
8
BLACK
6
CONTINUOUS
10
83.5
20
-53
11
87.4
21
-53
0
LINE
8
BLACK
6
CONTINUOUS
10
83.7
20
-48
11
81
21
-48
0
LINE
8
BLACK
6
CONTINUOUS
10
83.7
20
-48
11
83.7
21
-47.1
0
LINE
8
BLACK
6
CONTINUOUS
10
84.5
20
-55
11
85.3
21
-55
0
LINE
8
BLACK
6
CONTINUOUS
10
84.5
20
-56.8
11
85.3
21
-56.8
0
LINE
8
BLACK
6
CONTINUOUS
10
89.6
20
-57
11
90.4
21
-57
0
LINE
8
BLACK
6
CONTINUOUS
10
89.6
20
-58.8
11
90.4
21
-58.8
0
LINE
8
BLACK
6
CONTINUOUS
10
92.6
20
-53
11
96.5
21
-53
0
LINE
8
BLACK
6
CONTINUOUS
10
96.5
20
-48.3
11
97.8
21
-48.3
0
LINE
8
BLACK
6
CONTINUOUS
10
96.5
20
-53
11
96.5
21
-48.3
0
LINE
8
BLACK
6
CONTINUOUS
10
97.8
20
-45
11
85.7142
21
-45
0
LINE
8
BLACK
6
CONTINUOUS
10
97.8
20
-48.3
11
97.8
21
-45
0
ARC
8
BLACK
10
85.7142
20
-47.016
40
2.01597
50
-270
51
-177.611
0
ARC
8
BLACK
10
84.5
20
-55.9
40
0.9
50
-270
51
-90
0
ARC
8
BLACK
10
85.3
20
-55.9
40
0.9
50
-90
51
90
0
ARC
8
BLACK
10
89.6
20
-57.9
40
0.9
50
-270
51
-90
0
ARC
8
BLACK
10
90.4
20
-57.9
40
0.9
50
-90
51
90
0
ARC
8
BLACK
10
90
20
-52
40
2.78568
50
-158.963
51
-21.0375
0
LINE
8
BLACK
6
CONTINUOUS
10
-48.4081
20
-68.0569
11
-49.1845
21
-70.9547
0
LINE
8
BLACK
6
CONTINUOUS
10
-49.1845
20
-70.9547
11
-46.7697
21
-71.6017
0
LINE
8
BLACK
6
CONTINUOUS
10
-46.7697
20
-71.6017
11
-47.2873
21
-73.5336
0
LINE
8
BLACK
6
CONTINUOUS
10
-47.2873
20
-73.5336
11
-43.5202
21
-74.543
0
LINE
8
BLACK
6
CONTINUOUS
10
-45.8001
20
-68.7557
11
-48.4081
21
-68.0569
0
LINE
8
BLACK
6
CONTINUOUS
10
-45.8001
20
-68.7557
11
-45.5671
21
-67.8864
0
LINE
8
BLACK
6
CONTINUOUS
10
-46.839
20
-75.7243
11
-46.0663
21
-75.9313
0
LINE
8
BLACK
6
CONTINUOUS
10
-47.3049
20
-77.4629
11
-46.5322
21
-77.67
0
LINE
8
BLACK
6
CONTINUOUS
10
-42.4305
20
-78.9761
11
-41.6577
21
-79.1832
0
LINE
8
BLACK
6
CONTINUOUS
10
-42.8963
20
-80.7148
11
-42.1236
21
-80.9218
0
LINE
8
BLACK
6
CONTINUOUS
10
-38.4974
20
-75.8889
11
-34.7303
21
-76.8982
0
LINE
8
BLACK
6
CONTINUOUS
10
-33.5139
20
-72.3584
11
-32.2581
21
-72.6949
0
LINE
8
BLACK
6
CONTINUOUS
10
-34.7303
20
-76.8982
11
-33.5139
21
-72.3584
0
LINE
8
BLACK
6
CONTINUOUS
10
-31.404
20
-69.5073
11
-43.078
21
-66.3793
0
LINE
8
BLACK
6
CONTINUOUS
10
-32.2581
20
-72.6949
11
-31.404
21
-69.5073
0
ARC
8
BLACK
10
-43.5998
20
-68.3266
40
2.01597
50
75.0001
51
167.389
0
ARC
8
BLACK
10
-47.072
20
-76.5936
40
0.899999
50
-285
51
-105
0
ARC
8
BLACK
10
-46.2992
20
-76.8007
40
0.899999
50
-105
51
75
0
ARC
8
BLACK
10
-42.6634
20
-79.8454
40
0.899999
50
-285
51
-105
0
ARC
8
BLACK
10
-41.8907
20
-80.0525
40
0.899999
50
-105
51
75
0
ARC
8
BLACK
10
-40.75
20
-74.25
40
2.78568
50
-173.963
51
-36.0375
0
LINE
8
BLACK
6
CONTINUOUS
10
43
20
-48.5
11
43
21
-51.5
0
LINE
8
BLACK
6
CONTINUOUS
10
43
20
-51.5
11
45.5
21
-51.5
0
LINE
8
BLACK
6
CONTINUOUS
10
45.5
20
-51.5
11
45.5
21
-53.5
0
LINE
8
BLACK
6
CONTINUOUS
10
45.5
20
-53.5
11
49.4
21
-53.5
0
LINE
8
BLACK
6
CONTINUOUS
10
45.7
20
-48.5
11
43
21
-48.5
0
LINE
8
BLACK
6
CONTINUOUS
10
45.7
20
-48.5
11
45.7
21
-47.6
0
LINE
8
BLACK
6
CONTINUOUS
10
46.5
20
-55.5
11
47.3
21
-55.5
0
LINE
8
BLACK
6
CONTINUOUS
10
46.5
20
-57.3
11
47.3
21
-57.3
0
LINE
8
BLACK
6
CONTINUOUS
10
51.6
20
-57.5
11
52.4
21
-57.5
0
LINE
8
BLACK
6
CONTINUOUS
10
51.6
20
-59.3
11
52.4
21
-59.3
0
LINE
8
BLACK
6
CONTINUOUS
10
54.6
20
-53.5
11
58.5
21
-53.5
0
LINE
8
BLACK
6
CONTINUOUS
10
58.5
20
-48.8
11
59.8
21
-48.8
0
LINE
8
BLACK
6
CONTINUOUS
10
58.5
20
-53.5
11
58.5
21
-48.8
0
LINE
8
BLACK
6
CONTINUOUS
10
59.8
20
-45.5
11
47.7142
21
-45.5
0
LINE
8
BLACK
6
CONTINUOUS
10
59.8
20
-48.8
11
59.8
21
-45.5
0
ARC
8
BLACK
10
47.7142
20
-47.516
40
2.01597
50
-270
51
-177.611
0
ARC
8
BLACK
10
46.5
20
-56.4
40
0.9
50
-270
51
-90
0
ARC
8
BLACK
10
47.3
20
-56.4
40
0.9
50
-90
51
90
0
ARC
8
BLACK
10
51.6
20
-58.4
40
0.9
50
-270
51
-90
0
ARC
8
BLACK
10
52.4
20
-58.4
40
0.9
50
-90
51
90
0
ARC
8
BLACK
10
52
20
-52.5
40
2.78568
50
-158.963
51
-21.0375
0
LINE
8
BLACK
6
CONTINUOUS
10
-61
20
-48.5
11
-61
21
-51.5
0
LINE
8
BLACK
6
CONTINUOUS
10
-61
20
-51.5
11
-58.5
21
-51.5
0
LINE
8
BLACK
6
CONTINUOUS
10
-58.5
20
-51.5
11
-58.5
21
-53.5
0
LINE
8
BLACK
6
CONTINUOUS
10
-58.5
20
-53.5
11
-54.6
21
-53.5
0
LINE
8
BLACK
6
CONTINUOUS
10
-58.3
20
-48.5
11
-61
21
-48.5
0
LINE
8
BLACK
6
CONTINUOUS
10
-58.3
20
-48.5
11
-58.3
21
-47.6
0
LINE
8
BLACK
6
CONTINUOUS
10
-57.5
20
-55.5
11
-56.7
21
-55.5
0
LINE
8
BLACK
6
CONTINUOUS
10
-57.5
20
-57.3
11
-56.7
21
-57.3
0
LINE
8
BLACK
6
CONTINUOUS
10
-52.4
20
-57.5
11
-51.6
21
-57.5
0
LINE
8
BLACK
6
CONTINUOUS
10
-52.4
20
-59.3
11
-51.6
21
-59.3
0
LINE
8
BLACK
6
CONTINUOUS
10
-49.4
20
-53.5
11
-45.5
21
-53.5
0
LINE
8
BLACK
6
CONTINUOUS
10
-45.5
20
-48.8
11
-44.2
21
-48.8
0
LINE
8
BLACK
6
CONTINUOUS
10
-45.5
20
-53.5
11
-45.5
21
-48.8
0
LINE
8
BLACK
6
CONTINUOUS
10
-44.2
20
-45.5
11
-56.2858
21
-45.5
0
LINE
8
BLACK
6
CONTINUOUS
10
-44.2
20
-48.8
11
-44.2
21
-45.5
0
ARC
8
BLACK
10
-56.2858
20
-47.516
40
2.01597
50
-270
51
-177.611
0
ARC
8
BLACK
10
-57.5
20
-56.4
40
0.9
50
-270
51
-90
0
ARC
8
BLACK
10
-56.7
20
-56.4
40
0.9
50
-90
51
90
0
ARC
8
BLACK
10
-52.4
20
-58.4
40
0.9
50
-270
51
-90
0
ARC
8
BLACK
10
-51.6
20
-58.4
40
0.9
50
-90
51
90
0
ARC
8
BLACK
10
-52
20
-52.5
40
2.78568
50
-158.963
51
-21.0375
0
LINE
8
BLACK
6
CONTINUOUS
10
62
20
-25
11
62
21
-28
0
LINE
8
BLACK
6
CONTINUOUS
10
62
20
-28
11
64.5
21
-28
0
LINE
8
BLACK
6
CONTINUOUS
10
64.5
20
-28
11
64.5
21
-30
0
LINE
8
BLACK
6
CONTINUOUS
10
64.5
20
-30
11
68.4
21
-30
0
LINE
8
BLACK
6
CONTINUOUS
10
64.7
20
-25
11
62
21
-25
0
LINE
8
BLACK
6
CONTINUOUS
10
64.7
20
-25
11
64.7
21
-24.1
0
LINE
8
BLACK
6
CONTINUOUS
10
65.5
20
-32
11
66.3
21
-32
0
LINE
8
BLACK
6
CONTINUOUS
10
65.5
20
-33.8
11
66.3
21
-33.8
0
LINE
8
BLACK
6
CONTINUOUS
10
70.6
20
-34
11
71.4
21
-34
0
LINE
8
BLACK
6
CONTINUOUS
10
70.6
20
-35.8
11
71.4
21
-35.8
0
LINE
8
BLACK
6
CONTINUOUS
10
73.6
20
-30
11
77.5
21
-30
0
LINE
8
BLACK
6
CONTINUOUS
10
77.5
20
-25.3
11
78.8
21
-25.3
0
LINE
8
BLACK
6
CONTINUOUS
10
77.5
20
-30
11
77.5
21
-25.3
0
LINE
8
BLACK
6
CONTINUOUS
10
78.8
20
-22
11
66.7142
21
-22
0
LINE
8
BLACK
6
CONTINUOUS
10
78.8
20
-25.3
11
78.8
21
-22
0
ARC
8
BLACK
10
66.7142
20
-24.016
40
2.01597
50
-270
51
-177.611
0
ARC
8
BLACK
10
65.5
20
-32.9
40
0.9
50
-270
51
-90
0
ARC
8
BLACK
10
66.3
20
-32.9
40
0.9
50
-90
51
90
0
ARC
8
BLACK
10
70.6
20
-34.9
40
0.9
50
-270
51
-90
0
ARC
8
BLACK
10
71.4
20
-34.9
40
0.9
50
-90
51
90
0
ARC
8
BLACK
10
71
20
-29
40
2.78568
50
-158.963
51
-21.0375
0
LINE
8
BLACK
6
CONTINUOUS
10
31.0214
20
-72.7157
11
31.7978
21
-75.6134
0
LINE
8
BLACK
6
CONTINUOUS
10
31.7978
20
-75.6134
11
34.2127
21
-74.9664
0
LINE
8
BLACK
6
CONTINUOUS
10
34.2127
20
-74.9664
11
34.7303
21
-76.8982
0
LINE
8
BLACK
6
CONTINUOUS
10
34.7303
20
-76.8982
11
38.4974
21
-75.8889
0
LINE
8
BLACK
6
CONTINUOUS
10
33.6294
20
-72.0169
11
31.0214
21
-72.7157
0
LINE
8
BLACK
6
CONTINUOUS
10
33.6294
20
-72.0169
11
33.3965
21
-71.1475
0
LINE
8
BLACK
6
CONTINUOUS
10
36.2139
20
-78.5713
11
36.9866
21
-78.3642
0
LINE
8
BLACK
6
CONTINUOUS
10
36.6797
20
-80.3099
11
37.4525
21
-80.1029
0
LINE
8
BLACK
6
CONTINUOUS
10
41.6577
20
-79.1832
11
42.4305
21
-78.9761
0
LINE
8
BLACK
6
CONTINUOUS
10
42.1236
20
-80.9218
11
42.8963
21
-80.7148
0
LINE
8
BLACK
6
CONTINUOUS
10
43.5202
20
-74.543
11
47.2873
21
-73.5336
0
LINE
8
BLACK
6
CONTINUOUS
10
46.0709
20
-68.9938
11
47.3266
21
-68.6573
0
LINE
8
BLACK
6
CONTINUOUS
10
47.2873
20
-73.5336
11
46.0709
21
-68.9938
0
LINE
8
BLACK
6
CONTINUOUS
10
46.4725
20
-65.4697
11
34.7985
21
-68.5978
0
LINE
8
BLACK
6
CONTINUOUS
10
47.3266
20
-68.6573
11
46.4725
21
-65.4697
0
ARC
8
BLACK
10
35.3203
20
-70.545
40
2.01597
50
-255
51
-162.611
0
ARC
8
BLACK
10
36.4468
20
-79.4406
40
0.9
50
-255
51
-75
0
ARC
8
BLACK
10
37.2195
20
-79.2336
40
0.899999
50
-75
51
105
0
ARC
8
BLACK
10
41.8907
20
-80.0525
40
0.899999
50
-255
51
-75
0
ARC
8
BLACK
10
42.6634
20
-79.8454
40
0.899999
50
-75
51
105
0
ARC
8
BLACK
10
40.75
20
-74.25
40
2.78568
50
-143.963
51
-6.03748
0
LINE
8
BLACK
6
CONTINUOUS
10
-99
20
-10
11
-99
21
-13
0
LINE
8
BLACK
6
CONTINUOUS
10
-99
20
-13
11
-96.5
21
-13
0
LINE
8
BLACK
6
CONTINUOUS
10
-96.5
20
-13
11
-96.5
21
-15
0
LINE
8
BLACK
6
CONTINUOUS
10
-96.5
20
-15
11
-92.6
21
-15
0
LINE
8
BLACK
6
CONTINUOUS
10
-96.3
20
-10
11
-99
21
-10
0
LINE
8
BLACK
6
CONTINUOUS
10
-96.3
20
-10
11
-96.3
21
-9.1
0
LINE
8
BLACK
6
CONTINUOUS
10
-95.5
20
-17
11
-94.7
21
-17
0
LINE
8
BLACK
6
CONTINUOUS
10
-95.5
20
-18.8
11
-94.7
21
-18.8
0
LINE
8
BLACK
6
CONTINUOUS
10
-90.4
20
-19
11
-89.6
21
-19
0
LINE
8
BLACK
6
CONTINUOUS
10
-90.4
20
-20.8
11
-89.6
21
-20.8
0
LINE
8
BLACK
6
CONTINUOUS
10
-87.4
20
-15
11
-83.5
21
-15
0
LINE
8
BLACK
6
CONTINUOUS
10
-83.5
20
-10.3
11
-82.2
21
-10.3
0
LINE
8
BLACK
6
CONTINUOUS
10
-83.5
20
-15
11
-83.5
21
-10.3
0
LINE
8
BLACK
6
CONTINUOUS
10
-82.2
20
-7
11
-94.2858
21
-7
0
LINE
8
BLACK
6
CONTINUOUS
10
-82.2
20
-10.3
11
-82.2
21
-7
0
ARC
8
BLACK
10
-94.2858
20
-9.01597
40
2.01597
50
-270
51
-177.611
0
ARC
8
BLACK
10
-95.5
20
-17.9
40
0.9
50
-270
51
-90
0
ARC
8
BLACK
10
-94.7
20
-17.9
40
0.9
50
-90
51
90
0
ARC
8
BLACK
10
-90.4
20
-19.9
40
0.9
50
-270
51
-90
0
ARC
8
BLACK
10
-89.6
20
-19.9
40
0.9
50
-90
51
90
0
ARC
8
BLACK
10
-90
20
-14
40
2.78568
50
-158.963
51
-21.0375
0
LINE
8
BLACK
6
CONTINUOUS
10
24
20
-31.5
11
24
21
-34.5
0
LINE
8
BLACK
6
CONTINUOUS
10
24
20
-34.5
11
26.5
21
-34.5
0
LINE
8
BLACK
6
CONTINUOUS
10
26.5
20
-34.5
11
26.5
21
-36.5
0
LINE
8
BLACK
6
CONTINUOUS
10
26.5
20
-36.5
11
30.4
21
-36.5
0
LINE
8
BLACK
6
CONTINUOUS
10
26.7
20
-31.5
11
24
21
-31.5
0
LINE
8
BLACK
6
CONTINUOUS
10
26.7
20
-31.5
11
26.7
21
-30.6
0
LINE
8
BLACK
6
CONTINUOUS
10
27.5
20
-38.5
11
28.3
21
-38.5
0
LINE
8
BLACK
6
CONTINUOUS
10
27.5
20
-40.3
11
28.3
21
-40.3
0
LINE
8
BLACK
6
CONTINUOUS
10
32.6
20
-40.5
11
33.4
21
-40.5
0
LINE
8
BLACK
6
CONTINUOUS
10
32.6
20
-42.3
11
33.4
21
-42.3
0
LINE
8
BLACK
6
CONTINUOUS
10
35.6
20
-36.5
11
39.5
21
-36.5
0
LINE
8
BLACK
6
CONTINUOUS
10
39.5
20
-31.8
11
40.8
21
-31.8
0
LINE
8
BLACK
6
CONTINUOUS
10
39.5
20
-36.5
11
39.5
21
-31.8
0
LINE
8
BLACK
6
CONTINUOUS
10
40.8
20
-28.5
11
28.7142
21
-28.5
0
LINE
8
BLACK
6
CONTINUOUS
10
40.8
20
-31.8
11
40.8
21
-28.5
0
ARC
8
BLACK
10
28.7142
20
-30.516
40
2.01597
50
-270
51
-177.611
0
ARC
8
BLACK
10
27.5
20
-39.4
40
0.9
50
-270
51
-90
0
ARC
8
BLACK
10
28.3
20
-39.4
40
0.9
50
-90
51
90
0
ARC
8
BLACK
10
32.6
20
-41.4
40
0.9
50
-270
51
-90
0
ARC
8
BLACK
10
33.4
20
-41.4
40
0.9
50
-90
51
90
0
ARC
8
BLACK
10
33
20
-35.5
40
2.78568
50
-158.963
51
-21.0375
0
LINE
8
BLACK
6
CONTINUOUS
10
-42
20
-50.5
11
-42
21
-53.5
0
LINE
8
BLACK
6
CONTINUOUS
10
-42
20
-53.5
11
-39.5
21
-53.5
0
LINE
8
BLACK
6
CONTINUOUS
10
-39.5
20
-53.5
11
-39.5
21
-55.5
0
LINE
8
BLACK
6
CONTINUOUS
10
-39.5
20
-55.5
11
-35.6
21
-55.5
0
LINE
8
BLACK
6
CONTINUOUS
10
-39.3
20
-50.5
11
-42
21
-50.5
0
LINE
8
BLACK
6
CONTINUOUS
10
-39.3
20
-50.5
11
-39.3
21
-49.6
0
LINE
8
BLACK
6
CONTINUOUS
10
-38.5
20
-57.5
11
-37.7
21
-57.5
0
LINE
8
BLACK
6
CONTINUOUS
10
-38.5
20
-59.3
11
-37.7
21
-59.3
0
LINE
8
BLACK
6
CONTINUOUS
10
-33.4
20
-59.5
11
-32.6
21
-59.5
0
LINE
8
BLACK
6
CONTINUOUS
10
-33.4
20
-61.3
11
-32.6
21
-61.3
0
LINE
8
BLACK
6
CONTINUOUS
10
-30.4
20
-55.5
11
-26.5
21
-55.5
0
LINE
8
BLACK
6
CONTINUOUS
10
-26.5
20
-50.8
11
-25.2
21
-50.8
0
LINE
8
BLACK
6
CONTINUOUS
10
-26.5
20
-55.5
11
-26.5
21
-50.8
0
LINE
8
BLACK
6
CONTINUOUS
10
-25.2
20
-47.5
11
-37.2858
21
-47.5
0
LINE
8
BLACK
6
CONTINUOUS
10
-25.2
20
-50.8
11
-25.2
21
-47.5
0
ARC
8
BLACK
10
-37.2858
20
-49.516
40
2.01597
50
-270
51
-177.611
0
ARC
8
BLACK
10
-38.5
20
-58.4
40
0.9
50
-270
51
-90
0
ARC
8
BLACK
10
-37.7
20
-58.4
40
0.9
50
-90
51
90
0
ARC
8
BLACK
10
-33.4
20
-60.4
40
0.9
50
-270
51
-90
0
ARC
8
BLACK
10
-32.6
20
-60.4
40
0.9
50
-90
51
90
0
ARC
8
BLACK
10
-33
20
-54.5
40
2.78568
50
-158.963
51
-21.0375
0
LINE
8
BLACK
6
CONTINUOUS
10
-99
20
-48
11
-99
21
-51
0
LINE
8
BLACK
6
CONTINUOUS
10
-99
20
-51
11
-96.5
21
-51
0
LINE
8
BLACK
6
CONTINUOUS
10
-96.5
20
-51
11
-96.5
21
-53
0
LINE
8
BLACK
6
CONTINUOUS
10
-96.5
20
-53
11
-92.6
21
-53
0
LINE
8
BLACK
6
CONTINUOUS
10
-96.3
20
-48
11
-99
21
-48
0
LINE
8
BLACK
6
CONTINUOUS
10
-96.3
20
-48
11
-96.3
21
-47.1
0
LINE
8
BLACK
6
CONTINUOUS
10
-95.5
20
-55
11
-94.7
21
-55
0
LINE
8
BLACK
6
CONTINUOUS
10
-95.5
20
-56.8
11
-94.7
21
-56.8
0
LINE
8
BLACK
6
CONTINUOUS
10
-90.4
20
-57
11
-89.6
21
-57
0
LINE
8
BLACK
6
CONTINUOUS
10
-90.4
20
-58.8
11
-89.6
21
-58.8
0
LINE
8
BLACK
6
CONTINUOUS
10
-87.4
20
-53
11
-83.5
21
-53
0
LINE
8
BLACK
6
CONTINUOUS
10
-83.5
20
-48.3
11
-82.2
21
-48.3
0
LINE
8
BLACK
6
CONTINUOUS
10
-83.5
20
-53
11
-83.5
21
-48.3
0
LINE
8
BLACK
6
CONTINUOUS
10
-82.2
20
-45
11
-94.2858
21
-45
0
LINE
8
BLACK
6
CONTINUOUS
10
-82.2
20
-48.3
11
-82.2
21
-45
0
ARC
8
BLACK
10
-94.2858
20
-47.016
40
2.01597
50
-270
51
-177.611
0
ARC
8
BLACK
10
-95.5
20
-55.9
40
0.9
50
-270
51
-90
0
ARC
8
BLACK
10
-94.7
20
-55.9
40
0.9
50
-90
51
90
0
ARC
8
BLACK
10
-90.4
20
-57.9
40
0.9
50
-270
51
-90
0
ARC
8
BLACK
10
-89.6
20
-57.9
40
0.9
50
-90
51
90
0
ARC
8
BLACK
10
-90
20
-52
40
2.78568
50
-158.963
51
-21.0375
0
LINE
8
BLACK
6
CONTINUOUS
10
62
20
-44
11
62
21
-47
0
LINE
8
BLACK
6
CONTINUOUS
10
62
20
-47
11
64.5
21
-47
0
LINE
8
BLACK
6
CONTINUOUS
10
64.5
20
-47
11
64.5
21
-49
0
LINE
8
BLACK
6
CONTINUOUS
10
64.5
20
-49
11
68.4
21
-49
0
LINE
8
BLACK
6
CONTINUOUS
10
64.7
20
-44
11
62
21
-44
0
LINE
8
BLACK
6
CONTINUOUS
10
64.7
20
-44
11
64.7
21
-43.1
0
LINE
8
BLACK
6
CONTINUOUS
10
65.5
20
-51
11
66.3
21
-51
0
LINE
8
BLACK
6
CONTINUOUS
10
65.5
20
-52.8
11
66.3
21
-52.8
0
LINE
8
BLACK
6
CONTINUOUS
10
70.6
20
-53
11
71.4
21
-53
0
LINE
8
BLACK
6
CONTINUOUS
10
70.6
20
-54.8
11
71.4
21
-54.8
0
LINE
8
BLACK
6
CONTINUOUS
10
73.6
20
-49
11
77.5
21
-49
0
LINE
8
BLACK
6
CONTINUOUS
10
77.5
20
-44.3
11
78.8
21
-44.3
0
LINE
8
BLACK
6
CONTINUOUS
10
77.5
20
-49
11
77.5
21
-44.3
0
LINE
8
BLACK
6
CONTINUOUS
10
78.8
20
-41
11
66.7142
21
-41
0
LINE
8
BLACK
6
CONTINUOUS
10
78.8
20
-44.3
11
78.8
21
-41
0
ARC
8
BLACK
10
66.7142
20
-43.016
40
2.01597
50
-270
51
-177.611
0
ARC
8
BLACK
10
65.5
20
-51.9
40
0.9
50
-270
51
-90
0
ARC
8
BLACK
10
66.3
20
-51.9
40
0.9
50
-90
51
90
0
ARC
8
BLACK
10
70.6
20
-53.9
40
0.9
50
-270
51
-90
0
ARC
8
BLACK
10
71.4
20
-53.9
40
0.9
50
-90
51
90
0
ARC
8
BLACK
10
71
20
-48
40
2.78568
50
-158.963
51
-21.0375
0
LINE
8
BLACK
6
CONTINUOUS
10
81
20
-10
11
81
21
-13
0
LINE
8
BLACK
6
CONTINUOUS
10
81
20
-13
11
83.5
21
-13
0
LINE
8
BLACK
6
CONTINUOUS
10
83.5
20
-13
11
83.5
21
-15
0
LINE
8
BLACK
6
CONTINUOUS
10
83.5
20
-15
11
87.4
21
-15
0
LINE
8
BLACK
6
CONTINUOUS
10
83.7
20
-10
11
81
21
-10
0
LINE
8
BLACK
6
CONTINUOUS
10
83.7
20
-10
11
83.7
21
-9.1
0
LINE
8
BLACK
6
CONTINUOUS
10
84.5
20
-17
11
85.3
21
-17
0
LINE
8
BLACK
6
CONTINUOUS
10
84.5
20
-18.8
11
85.3
21
-18.8
0
LINE
8
BLACK
6
CONTINUOUS
10
89.6
20
-19
11
90.4
21
-19
0
LINE
8
BLACK
6
CONTINUOUS
10
89.6
20
-20.8
11
90.4
21
-20.8
0
LINE
8
BLACK
6
CONTINUOUS
10
92.6
20
-15
11
96.5
21
-15
0
LINE
8
BLACK
6
CONTINUOUS
10
96.5
20
-10.3
11
97.8
21
-10.3
0
LINE
8
BLACK
6
CONTINUOUS
10
96.5
20
-15
11
96.5
21
-10.3
0
LINE
8
BLACK
6
CONTINUOUS
10
97.8
20
-7
11
85.7142
21
-7
0
LINE
8
BLACK
6
CONTINUOUS
10
97.8
20
-10.3
11
97.8
21
-7
0
ARC
8
BLACK
10
85.7142
20
-9.01597
40
2.01597
50
-270
51
-177.611
0
ARC
8
BLACK
10
84.5
20
-17.9
40
0.9
50
-270
51
-90
0
ARC
8
BLACK
10
85.3
20
-17.9
40
0.9
50
-90
51
90
0
ARC
8
BLACK
10
89.6
20
-19.9
40
0.9
50
-270
51
-90
0
ARC
8
BLACK
10
90.4
20
-19.9
40
0.9
50
-90
51
90
0
ARC
8
BLACK
10
90
20
-14
40
2.78568
50
-158.963
51
-21.0375
0
LINE
8
BLACK
6
CONTINUOUS
10
53
20
-67.5
11
53
21
-70.5
0
LINE
8
BLACK
6
CONTINUOUS
10
53
20
-70.5
11
55.5
21
-70.5
0
LINE
8
BLACK
6
CONTINUOUS
10
55.5
20
-70.5
11
55.5
21
-72.5
0
LINE
8
BLACK
6
CONTINUOUS
10
55.5
20
-72.5
11
59.4
21
-72.5
0
LINE
8
BLACK
6
CONTINUOUS
10
55.7
20
-67.5
11
53
21
-67.5
0
LINE
8
BLACK
6
CONTINUOUS
10
55.7
20
-67.5
11
55.7
21
-66.6
0
LINE
8
BLACK
6
CONTINUOUS
10
56.5
20
-74.5
11
57.3
21
-74.5
0
LINE
8
BLACK
6
CONTINUOUS
10
56.5
20
-76.3
11
57.3
21
-76.3
0
LINE
8
BLACK
6
CONTINUOUS
10
61.6
20
-76.5
11
62.4
21
-76.5
0
LINE
8
BLACK
6
CONTINUOUS
10
61.6
20
-78.3
11
62.4
21
-78.3
0
LINE
8
BLACK
6
CONTINUOUS
10
64.6
20
-72.5
11
68.5
21
-72.5
0
LINE
8
BLACK
6
CONTINUOUS
10
68.5
20
-67.8
11
69.8
21
-67.8
0
LINE
8
BLACK
6
CONTINUOUS
10
68.5
20
-72.5
11
68.5
21
-67.8
0
LINE
8
BLACK
6
CONTINUOUS
10
69.8
20
-64.5
11
57.7142
21
-64.5
0
LINE
8
BLACK
6
CONTINUOUS
10
69.8
20
-67.8
11
69.8
21
-64.5
0
ARC
8
BLACK
10
57.7142
20
-66.516
40
2.01597
50
-270
51
-177.611
0
ARC
8
BLACK
10
56.5
20
-75.4
40
0.9
50
-270
51
-90
0
ARC
8
BLACK
10
57.3
20
-75.4
40
0.9
50
-90
51
90
0
ARC
8
BLACK
10
61.6
20
-77.4
40
0.9
50
-270
51
-90
0
ARC
8
BLACK
10
62.4
20
-77.4
40
0.9
50
-90
51
90
0
ARC
8
BLACK
10
62
20
-71.5
40
2.78568
50
-158.963
51
-21.0375
0
LINE
8
BLACK
6
CONTINUOUS
10
121.383
20
-36.3308
11
121.121
21
-39.3194
0
LINE
8
BLACK
6
CONTINUOUS
10
121.121
20
-39.3194
11
123.612
21
-39.5373
0
LINE
8
BLACK
6
CONTINUOUS
10
123.612
20
-39.5373
11
123.438
21
-41.5297
0
LINE
8
BLACK
6
CONTINUOUS
10
123.438
20
-41.5297
11
127.323
21
-41.8696
0
LINE
8
BLACK
6
CONTINUOUS
10
124.073
20
-36.5661
11
121.383
21
-36.3308
0
LINE
8
BLACK
6
CONTINUOUS
10
124.073
20
-36.5661
11
124.151
21
-35.6696
0
LINE
8
BLACK
6
CONTINUOUS
10
124.259
20
-43.6092
11
125.056
21
-43.679
0
LINE
8
BLACK
6
CONTINUOUS
10
124.103
20
-45.4024
11
124.9
21
-45.4721
0
LINE
8
BLACK
6
CONTINUOUS
10
129.166
20
-46.0461
11
129.963
21
-46.1158
0
LINE
8
BLACK
6
CONTINUOUS
10
129.009
20
-47.8393
11
129.806
21
-47.909
0
LINE
8
BLACK
6
CONTINUOUS
10
132.503
20
-42.3228
11
136.388
21
-42.6627
0
LINE
8
BLACK
6
CONTINUOUS
10
136.798
20
-37.9806
11
138.093
21
-38.0939
0
LINE
8
BLACK
6
CONTINUOUS
10
136.388
20
-42.6627
11
136.798
21
-37.9806
0
LINE
8
BLACK
6
CONTINUOUS
10
138.38
20
-34.8065
11
126.341
21
-33.7531
0
LINE
8
BLACK
6
CONTINUOUS
10
138.093
20
-38.0939
11
138.38
21
-34.8065
0
ARC
8
BLACK
10
126.165
20
-35.7614
40
2.01597
50
85.0001
51
177.389
0
ARC
8
BLACK
10
124.181
20
-44.5058
40
0.899999
50
-275
51
-95
0
ARC
8
BLACK
10
124.978
20
-44.5755
40
0.899999
50
-95
51
85
0
ARC
8
BLACK
10
129.087
20
-46.9427
40
0.9
50
-275
51
-95
0
ARC
8
BLACK
10
129.884
20
-47.0124
40
0.899999
50
-95
51
85
0
ARC
8
BLACK
10
130
20
-41.1
40
2.78568
50
-163.963
51
-26.0375
0
LINE
8
BLACK
6
CONTINUOUS
10
-42
20
-12.5
11
-42
21
-15.5
0
LINE
8
BLACK
6
CONTINUOUS
10
-42
20
-15.5
11
-39.5
21
-15.5
0
LINE
8
BLACK
6
CONTINUOUS
10
-39.5
20
-15.5
11
-39.5
21
-17.5
0
LINE
8
BLACK
6
CONTINUOUS
10
-39.5
20
-17.5
11
-35.6
21
-17.5
0
LINE
8
BLACK
6
CONTINUOUS
10
-39.3
20
-12.5
11
-42
21
-12.5
0
LINE
8
BLACK
6
CONTINUOUS
10
-39.3
20
-12.5
11
-39.3
21
-11.6
0
LINE
8
BLACK
6
CONTINUOUS
10
-38.5
20
-19.5
11
-37.7
21
-19.5
0
LINE
8
BLACK
6
CONTINUOUS
10
-38.5
20
-21.3
11
-37.7
21
-21.3
0
LINE
8
BLACK
6
CONTINUOUS
10
-33.4
20
-21.5
11
-32.6
21
-21.5
0
LINE
8
BLACK
6
CONTINUOUS
10
-33.4
20
-23.3
11
-32.6
21
-23.3
0
LINE
8
BLACK
6
CONTINUOUS
10
-30.4
20
-17.5
11
-26.5
21
-17.5
0
LINE
8
BLACK
6
CONTINUOUS
10
-26.5
20
-12.8
11
-25.2
21
-12.8
0
LINE
8
BLACK
6
CONTINUOUS
10
-26.5
20
-17.5
11
-26.5
21
-12.8
0
LINE
8
BLACK
6
CONTINUOUS
10
-25.2
20
-9.5
11
-37.2858
21
-9.5
0
LINE
8
BLACK
6
CONTINUOUS
10
-25.2
20
-12.8
11
-25.2
21
-9.5
0
ARC
8
BLACK
10
-37.2858
20
-11.516
40
2.01597
50
-270
51
-177.611
0
ARC
8
BLACK
10
-38.5
20
-20.4
40
0.9
50
-270
51
-90
0
ARC
8
BLACK
10
-37.7
20
-20.4
40
0.9
50
-90
51
90
0
ARC
8
BLACK
10
-33.4
20
-22.4
40
0.9
50
-270
51
-90
0
ARC
8
BLACK
10
-32.6
20
-22.4
40
0.9
50
-90
51
90
0
ARC
8
BLACK
10
-33
20
-16.5
40
2.78568
50
-158.963
51
-21.0375
0
LINE
8
BLACK
6
CONTINUOUS
10
24
20
-12.5
11
24
21
-15.5
0
LINE
8
BLACK
6
CONTINUOUS
10
24
20
-15.5
11
26.5
21
-15.5
0
LINE
8
BLACK
6
CONTINUOUS
10
26.5
20
-15.5
11
26.5
21
-17.5
0
LINE
8
BLACK
6
CONTINUOUS
10
26.5
20
-17.5
11
30.4
21
-17.5
0
LINE
8
BLACK
6
CONTINUOUS
10
26.7
20
-12.5
11
24
21
-12.5
0
LINE
8
BLACK
6
CONTINUOUS
10
26.7
20
-12.5
11
26.7
21
-11.6
0
LINE
8
BLACK
6
CONTINUOUS
10
27.5
20
-19.5
11
28.3
21
-19.5
0
LINE
8
BLACK
6
CONTINUOUS
10
27.5
20
-21.3
11
28.3
21
-21.3
0
LINE
8
BLACK
6
CONTINUOUS
10
32.6
20
-21.5
11
33.4
21
-21.5
0
LINE
8
BLACK
6
CONTINUOUS
10
32.6
20
-23.3
11
33.4
21
-23.3
0
LINE
8
BLACK
6
CONTINUOUS
10
35.6
20
-17.5
11
39.5
21
-17.5
0
LINE
8
BLACK
6
CONTINUOUS
10
39.5
20
-12.8
11
40.8
21
-12.8
0
LINE
8
BLACK
6
CONTINUOUS
10
39.5
20
-17.5
11
39.5
21
-12.8
0
LINE
8
BLACK
6
CONTINUOUS
10
40.8
20
-9.5
11
28.7142
21
-9.5
0
LINE
8
BLACK
6
CONTINUOUS
10
40.8
20
-12.8
11
40.8
21
-9.5
0
ARC
8
BLACK
10
28.7142
20
-11.516
40
2.01597
50
-270
51
-177.611
0
ARC
8
BLACK
10
27.5
20
-20.4
40
0.9
50
-270
51
-90
0
ARC
8
BLACK
10
28.3
20
-20.4
40
0.9
50
-90
51
90
0
ARC
8
BLACK
10
32.6
20
-22.4
40
0.9
50
-270
51
-90
0
ARC
8
BLACK
10
33.4
20
-22.4
40
0.9
50
-90
51
90
0
ARC
8
BLACK
10
33
20
-16.5
40
2.78568
50
-158.963
51
-21.0375
0
LINE
8
BLACK
6
CONTINUOUS
10
81
20
-29
11
81
21
-32
0
LINE
8
BLACK
6
CONTINUOUS
10
81
20
-32
11
83.5
21
-32
0
LINE
8
BLACK
6
CONTINUOUS
10
83.5
20
-32
11
83.5
21
-34
0
LINE
8
BLACK
6
CONTINUOUS
10
83.5
20
-34
11
87.4
21
-34
0
LINE
8
BLACK
6
CONTINUOUS
10
83.7
20
-29
11
81
21
-29
0
LINE
8
BLACK
6
CONTINUOUS
10
83.7
20
-29
11
83.7
21
-28.1
0
LINE
8
BLACK
6
CONTINUOUS
10
84.5
20
-36
11
85.3
21
-36
0
LINE
8
BLACK
6
CONTINUOUS
10
84.5
20
-37.8
11
85.3
21
-37.8
0
LINE
8
BLACK
6
CONTINUOUS
10
89.6
20
-38
11
90.4
21
-38
0
LINE
8
BLACK
6
CONTINUOUS
10
89.6
20
-39.8
11
90.4
21
-39.8
0
LINE
8
BLACK
6
CONTINUOUS
10
92.6
20
-34
11
96.5
21
-34
0
LINE
8
BLACK
6
CONTINUOUS
10
96.5
20
-29.3
11
97.8
21
-29.3
0
LINE
8
BLACK
6
CONTINUOUS
10
96.5
20
-34
11
96.5
21
-29.3
0
LINE
8
BLACK
6
CONTINUOUS
10
97.8
20
-26
11
85.7142
21
-26
0
LINE
8
BLACK
6
CONTINUOUS
10
97.8
20
-29.3
11
97.8
21
-26
0
ARC
8
BLACK
10
85.7142
20
-28.016
40
2.01597
50
-270
51
-177.611
0
ARC
8
BLACK
10
84.5
20
-36.9
40
0.9
50
-270
51
-90
0
ARC
8
BLACK
10
85.3
20
-36.9
40
0.9
50
-90
51
90
0
ARC
8
BLACK
10
89.6
20
-38.9
40
0.9
50
-270
51
-90
0
ARC
8
BLACK
10
90.4
20
-38.9
40
0.9
50
-90
51
90
0
ARC
8
BLACK
10
90
20
-33
40
2.78568
50
-158.963
51
-21.0375
0
LINE
8
BLACK
6
CONTINUOUS
10
-118.214
20
-60.5996
11
-117.953
21
-63.5882
0
LINE
8
BLACK
6
CONTINUOUS
10
-117.953
20
-63.5882
11
-115.462
21
-63.3703
0
LINE
8
BLACK
6
CONTINUOUS
10
-115.462
20
-63.3703
11
-115.288
21
-65.3627
0
LINE
8
BLACK
6
CONTINUOUS
10
-115.288
20
-65.3627
11
-111.403
21
-65.0228
0
LINE
8
BLACK
6
CONTINUOUS
10
-115.525
20
-60.3643
11
-118.214
21
-60.5996
0
LINE
8
BLACK
6
CONTINUOUS
10
-115.525
20
-60.3643
11
-115.603
21
-59.4677
0
LINE
8
BLACK
6
CONTINUOUS
10
-114.118
20
-67.2679
11
-113.321
21
-67.1982
0
LINE
8
BLACK
6
CONTINUOUS
10
-113.961
20
-69.0611
11
-113.164
21
-68.9914
0
LINE
8
BLACK
6
CONTINUOUS
10
-108.863
20
-68.8158
11
-108.066
21
-68.7461
0
LINE
8
BLACK
6
CONTINUOUS
10
-108.706
20
-70.609
11
-107.909
21
-70.5393
0
LINE
8
BLACK
6
CONTINUOUS
10
-106.223
20
-64.5696
11
-102.338
21
-64.2297
0
LINE
8
BLACK
6
CONTINUOUS
10
-102.747
20
-59.5476
11
-101.452
21
-59.4343
0
LINE
8
BLACK
6
CONTINUOUS
10
-102.338
20
-64.2297
11
-102.747
21
-59.5476
0
LINE
8
BLACK
6
CONTINUOUS
10
-101.74
20
-56.1468
11
-113.78
21
-57.2002
0
LINE
8
BLACK
6
CONTINUOUS
10
-101.452
20
-59.4343
11
-101.74
21
-56.1468
0
ARC
8
BLACK
10
-113.604
20
-59.2085
40
2.01597
50
-265
51
-172.611
0
ARC
8
BLACK
10
-114.039
20
-68.1645
40
0.899999
50
-265
51
-85
0
ARC
8
BLACK
10
-113.242
20
-68.0948
40
0.899999
50
-85
51
95
0
ARC
8
BLACK
10
-108.784
20
-69.7124
40
0.899999
50
-265
51
-85
0
ARC
8
BLACK
10
-107.987
20
-69.6427
40
0.899999
50
-85
51
95
0
ARC
8
BLACK
10
-108.9
20
-63.8
40
2.78568
50
-153.962
51
-16.0375
0
LINE
8
BLACK
6
CONTINUOUS
10
101.933
20
-40.0808
11
101.671
21
-43.0694
0
LINE
8
BLACK
6
CONTINUOUS
10
101.671
20
-43.0694
11
104.162
21
-43.2873
0
LINE
8
BLACK
6
CONTINUOUS
10
104.162
20
-43.2873
11
103.988
21
-45.2797
0
LINE
8
BLACK
6
CONTINUOUS
10
103.988
20
-45.2797
11
107.873
21
-45.6196
0
LINE
8
BLACK
6
CONTINUOUS
10
104.623
20
-40.3161
11
101.933
21
-40.0808
0
LINE
8
BLACK
6
CONTINUOUS
10
104.623
20
-40.3161
11
104.701
21
-39.4196
0
LINE
8
BLACK
6
CONTINUOUS
10
104.809
20
-47.3592
11
105.606
21
-47.429
0
LINE
8
BLACK
6
CONTINUOUS
10
104.653
20
-49.1524
11
105.45
21
-49.2221
0
LINE
8
BLACK
6
CONTINUOUS
10
109.716
20
-49.7961
11
110.513
21
-49.8658
0
LINE
8
BLACK
6
CONTINUOUS
10
109.559
20
-51.5893
11
110.356
21
-51.659
0
LINE
8
BLACK
6
CONTINUOUS
10
113.053
20
-46.0728
11
116.938
21
-46.4127
0
LINE
8
BLACK
6
CONTINUOUS
10
117.348
20
-41.7306
11
118.643
21
-41.8439
0
LINE
8
BLACK
6
CONTINUOUS
10
116.938
20
-46.4127
11
117.348
21
-41.7306
0
LINE
8
BLACK
6
CONTINUOUS
10
118.93
20
-38.5565
11
106.891
21
-37.5031
0
LINE
8
BLACK
6
CONTINUOUS
10
118.643
20
-41.8439
11
118.93
21
-38.5565
0
ARC
8
BLACK
10
106.715
20
-39.5114
40
2.01597
50
85.0001
51
177.389
0
ARC
8
BLACK
10
104.731
20
-48.2558
40
0.899999
50
-275
51
-95
0
ARC
8
BLACK
10
105.528
20
-48.3255
40
0.899999
50
-95
51
85
0
ARC
8
BLACK
10
109.637
20
-50.6927
40
0.9
50
-275
51
-95
0
ARC
8
BLACK
10
110.434
20
-50.7624
40
0.899999
50
-95
51
85
0
ARC
8
BLACK
10
110.55
20
-44.85
40
2.78568
50
-163.963
51
-26.0375
0
LINE
8
BLACK
6
CONTINUOUS
10
-42
20
-31.5
11
-42
21
-34.5
0
LINE
8
BLACK
6
CONTINUOUS
10
-42
20
-34.5
11
-39.5
21
-34.5
0
LINE
8
BLACK
6
CONTINUOUS
10
-39.5
20
-34.5
11
-39.5
21
-36.5
0
LINE
8
BLACK
6
CONTINUOUS
10
-39.5
20
-36.5
11
-35.6
21
-36.5
0
LINE
8
BLACK
6
CONTINUOUS
10
-39.3
20
-31.5
11
-42
21
-31.5
0
LINE
8
BLACK
6
CONTINUOUS
10
-39.3
20
-31.5
11
-39.3
21
-30.6
0
LINE
8
BLACK
6
CONTINUOUS
10
-38.5
20
-38.5
11
-37.7
21
-38.5
0
LINE
8
BLACK
6
CONTINUOUS
10
-38.5
20
-40.3
11
-37.7
21
-40.3
0
LINE
8
BLACK
6
CONTINUOUS
10
-33.4
20
-40.5
11
-32.6
21
-40.5
0
LINE
8
BLACK
6
CONTINUOUS
10
-33.4
20
-42.3
11
-32.6
21
-42.3
0
LINE
8
BLACK
6
CONTINUOUS
10
-30.4
20
-36.5
11
-26.5
21
-36.5
0
LINE
8
BLACK
6
CONTINUOUS
10
-26.5
20
-31.8
11
-25.2
21
-31.8
0
LINE
8
BLACK
6
CONTINUOUS
10
-26.5
20
-36.5
11
-26.5
21
-31.8
0
LINE
8
BLACK
6
CONTINUOUS
10
-25.2
20
-28.5
11
-37.2858
21
-28.5
0
LINE
8
BLACK
6
CONTINUOUS
10
-25.2
20
-31.8
11
-25.2
21
-28.5
0
ARC
8
BLACK
10
-37.2858
20
-30.516
40
2.01597
50
-270
51
-177.611
0
ARC
8
BLACK
10
-38.5
20
-39.4
40
0.9
50
-270
51
-90
0
ARC
8
BLACK
10
-37.7
20
-39.4
40
0.9
50
-90
51
90
0
ARC
8
BLACK
10
-33.4
20
-41.4
40
0.9
50
-270
51
-90
0
ARC
8
BLACK
10
-32.6
20
-41.4
40
0.9
50
-90
51
90
0
ARC
8
BLACK
10
-33
20
-35.5
40
2.78568
50
-158.963
51
-21.0375
0
LINE
8
BLACK
6
CONTINUOUS
10
24
20
-50.5
11
24
21
-53.5
0
LINE
8
BLACK
6
CONTINUOUS
10
24
20
-53.5
11
26.5
21
-53.5
0
LINE
8
BLACK
6
CONTINUOUS
10
26.5
20
-53.5
11
26.5
21
-55.5
0
LINE
8
BLACK
6
CONTINUOUS
10
26.5
20
-55.5
11
30.4
21
-55.5
0
LINE
8
BLACK
6
CONTINUOUS
10
26.7
20
-50.5
11
24
21
-50.5
0
LINE
8
BLACK
6
CONTINUOUS
10
26.7
20
-50.5
11
26.7
21
-49.6
0
LINE
8
BLACK
6
CONTINUOUS
10
27.5
20
-57.5
11
28.3
21
-57.5
0
LINE
8
BLACK
6
CONTINUOUS
10
27.5
20
-59.3
11
28.3
21
-59.3
0
LINE
8
BLACK
6
CONTINUOUS
10
32.6
20
-59.5
11
33.4
21
-59.5
0
LINE
8
BLACK
6
CONTINUOUS
10
32.6
20
-61.3
11
33.4
21
-61.3
0
LINE
8
BLACK
6
CONTINUOUS
10
35.6
20
-55.5
11
39.5
21
-55.5
0
LINE
8
BLACK
6
CONTINUOUS
10
39.5
20
-50.8
11
40.8
21
-50.8
0
LINE
8
BLACK
6
CONTINUOUS
10
39.5
20
-55.5
11
39.5
21
-50.8
0
LINE
8
BLACK
6
CONTINUOUS
10
40.8
20
-47.5
11
28.7142
21
-47.5
0
LINE
8
BLACK
6
CONTINUOUS
10
40.8
20
-50.8
11
40.8
21
-47.5
0
ARC
8
BLACK
10
28.7142
20
-49.516
40
2.01597
50
-270
51
-177.611
0
ARC
8
BLACK
10
27.5
20
-58.4
40
0.9
50
-270
51
-90
0
ARC
8
BLACK
10
28.3
20
-58.4
40
0.9
50
-90
51
90
0
ARC
8
BLACK
10
32.6
20
-60.4
40
0.9
50
-270
51
-90
0
ARC
8
BLACK
10
33.4
20
-60.4
40
0.9
50
-90
51
90
0
ARC
8
BLACK
10
33
20
-54.5
40
2.78568
50
-158.963
51
-21.0375
0
LINE
8
BLACK
6
CONTINUOUS
10
-80
20
-44
11
-80
21
-47
0
LINE
8
BLACK
6
CONTINUOUS
10
-80
20
-47
11
-77.5
21
-47
0
LINE
8
BLACK
6
CONTINUOUS
10
-77.5
20
-47
11
-77.5
21
-49
0
LINE
8
BLACK
6
CONTINUOUS
10
-77.5
20
-49
11
-73.6
21
-49
0
LINE
8
BLACK
6
CONTINUOUS
10
-77.3
20
-44
11
-80
21
-44
0
LINE
8
BLACK
6
CONTINUOUS
10
-77.3
20
-44
11
-77.3
21
-43.1
0
LINE
8
BLACK
6
CONTINUOUS
10
-76.5
20
-51
11
-75.7
21
-51
0
LINE
8
BLACK
6
CONTINUOUS
10
-76.5
20
-52.8
11
-75.7
21
-52.8
0
LINE
8
BLACK
6
CONTINUOUS
10
-71.4
20
-53
11
-70.6
21
-53
0
LINE
8
BLACK
6
CONTINUOUS
10
-71.4
20
-54.8
11
-70.6
21
-54.8
0
LINE
8
BLACK
6
CONTINUOUS
10
-68.4
20
-49
11
-64.5
21
-49
0
LINE
8
BLACK
6
CONTINUOUS
10
-64.5
20
-44.3
11
-63.2
21
-44.3
0
LINE
8
BLACK
6
CONTINUOUS
10
-64.5
20
-49
11
-64.5
21
-44.3
0
LINE
8
BLACK
6
CONTINUOUS
10
-63.2
20
-41
11
-75.2858
21
-41
0
LINE
8
BLACK
6
CONTINUOUS
10
-63.2
20
-44.3
11
-63.2
21
-41
0
ARC
8
BLACK
10
-75.2858
20
-43.016
40
2.01597
50
-270
51
-177.611
0
ARC
8
BLACK
10
-76.5
20
-51.9
40
0.9
50
-270
51
-90
0
ARC
8
BLACK
10
-75.7
20
-51.9
40
0.9
50
-90
51
90
0
ARC
8
BLACK
10
-71.4
20
-53.9
40
0.9
50
-270
51
-90
0
ARC
8
BLACK
10
-70.6
20
-53.9
40
0.9
50
-90
51
90
0
ARC
8
BLACK
10
-71
20
-48
40
2.78568
50
-158.963
51
-21.0375
0
LINE
8
BLACK
6
CONTINUOUS
10
-26.4641
20
-83.7942
11
-23.866
21
-85.2942
0
LINE
8
BLACK
6
CONTINUOUS
10
-23.866
20
-85.2942
11
-22.616
21
-83.1292
0
LINE
8
BLACK
6
CONTINUOUS
10
-22.616
20
-83.1292
11
-20.884
21
-84.1292
0
LINE
8
BLACK
6
CONTINUOUS
10
-20.884
20
-84.1292
11
-18.934
21
-80.7517
0
LINE
8
BLACK
6
CONTINUOUS
10
-25.1141
20
-81.456
11
-26.4641
21
-83.7942
0
LINE
8
BLACK
6
CONTINUOUS
10
-25.1141
20
-81.456
11
-25.8935
21
-81.006
0
LINE
8
BLACK
6
CONTINUOUS
10
-18.6519
20
-84.2631
11
-18.2519
21
-83.5703
0
LINE
8
BLACK
6
CONTINUOUS
10
-17.0931
20
-85.1631
11
-16.6931
21
-84.4703
0
LINE
8
BLACK
6
CONTINUOUS
10
-14.3699
20
-80.8464
11
-13.9699
21
-80.1536
0
LINE
8
BLACK
6
CONTINUOUS
10
-12.811
20
-81.7464
11
-12.411
21
-81.0536
0
LINE
8
BLACK
6
CONTINUOUS
10
-16.334
20
-76.2483
11
-14.384
21
-72.8708
0
LINE
8
BLACK
6
CONTINUOUS
10
-18.4543
20
-70.5208
11
-17.8043
21
-69.395
0
LINE
8
BLACK
6
CONTINUOUS
10
-14.384
20
-72.8708
11
-18.4543
21
-70.5208
0
LINE
8
BLACK
6
CONTINUOUS
10
-20.6622
20
-67.745
11
-26.7051
21
-78.2116
0
LINE
8
BLACK
6
CONTINUOUS
10
-17.8043
20
-69.395
11
-20.6622
21
-67.745
0
ARC
8
BLACK
10
-24.9592
20
-79.2196
40
2.01597
50
-210
51
-117.611
0
ARC
8
BLACK
10
-17.8725
20
-84.7131
40
0.9
50
-210
51
-30
0
ARC
8
BLACK
10
-17.4725
20
-84.0203
40
0.9
50
-30
51
150
0
ARC
8
BLACK
10
-13.5904
20
-81.2964
40
0.9
50
-210
51
-30
0
ARC
8
BLACK
10
-13.1905
20
-80.6036
40
0.9
50
-30
51
150
0
ARC
8
BLACK
10
-18.5
20
-78
40
2.78568
50
-98.9625
51
38.9625
0
LINE
8
BLACK
6
CONTINUOUS
10
17.4641
20
-68.2058
11
14.866
21
-69.7058
0
LINE
8
BLACK
6
CONTINUOUS
10
14.866
20
-69.7058
11
16.116
21
-71.8708
0
LINE
8
BLACK
6
CONTINUOUS
10
16.116
20
-71.8708
11
14.384
21
-72.8708
0
LINE
8
BLACK
6
CONTINUOUS
10
14.384
20
-72.8708
11
16.334
21
-76.2483
0
LINE
8
BLACK
6
CONTINUOUS
10
18.8141
20
-70.544
11
17.4641
21
-68.2058
0
LINE
8
BLACK
6
CONTINUOUS
10
18.8141
20
-70.544
11
19.5935
21
-70.094
0
LINE
8
BLACK
6
CONTINUOUS
10
13.1519
20
-74.7369
11
13.5519
21
-75.4297
0
LINE
8
BLACK
6
CONTINUOUS
10
11.5931
20
-75.6369
11
11.9931
21
-76.3297
0
LINE
8
BLACK
6
CONTINUOUS
10
13.9699
20
-80.1536
11
14.3699
21
-80.8464
0
LINE
8
BLACK
6
CONTINUOUS
10
12.411
20
-81.0536
11
12.811
21
-81.7464
0
LINE
8
BLACK
6
CONTINUOUS
10
18.934
20
-80.7517
11
20.884
21
-84.1292
0
LINE
8
BLACK
6
CONTINUOUS
10
24.9543
20
-81.7792
11
25.6043
21
-82.905
0
LINE
8
BLACK
6
CONTINUOUS
10
20.884
20
-84.1292
11
24.9543
21
-81.7792
0
LINE
8
BLACK
6
CONTINUOUS
10
28.4622
20
-81.255
11
22.4193
21
-70.7884
0
LINE
8
BLACK
6
CONTINUOUS
10
25.6043
20
-82.905
11
28.4622
21
-81.255
0
ARC
8
BLACK
10
20.6734
20
-71.7964
40
2.01597
50
30.0001
51
122.389
0
ARC
8
BLACK
10
12.3725
20
-75.1869
40
0.9
50
-330
51
-150
0
ARC
8
BLACK
10
12.7725
20
-75.8797
40
0.9
50
-150
51
30
0
ARC
8
BLACK
10
13.1905
20
-80.6036
40
0.9
50
-330
51
-150
0
ARC
8
BLACK
10
13.5904
20
-81.2964
40
0.9
50
-150
51
30
0
ARC
8
BLACK
10
18.5
20
-78
40
2.78568
50
-218.963
51
-81.0375
  0
ENDSEC
  0
EOF
