  0
SECTION
  2
HEADER
  9
$ANGBASE
  50
0.0
  9
$ANGDIR
  70
1
  9
$MEASUREMENT
  70
1
  0
ENDSEC
  0
SECTION
  2
TABLES
  0
TABLE
  2
LTYPE
  70
4
  0
LTYPE
  5
40F
  2
CONTINUOUS
  70
0
  3
Solid line
  72
65
  73
0
  40
0.0
  0
LTYPE
  5
410
  2
DASHDOT
 70
0
  3
Dash Dot ____ _ ____ _
 72
65
 73
4
 40
2.0
 49
1.25
 49
-0.25
 49
0.25
 49
-0.25
  0
LTYPE
  5
411
  2
DASHED
 70
0
  3
Dashed __ __ __ __ __
 72
65
 73
2
 40
0.75
 49
0.5
 49
-0.25
  0
LTYPE
  5
43B
  2
DOTTED
 70
0
  3
Dotted .  .  .  .
 72
65
 73
2
 40
0.2
 49
0.0
 49
-0.2
  0
ENDTAB
  0
TABLE
  2
STYLE
  70
4
  0
STYLE
  2
KICAD
  70
0
  40
0
  41
1
  42
1
  50
0
  71
0
  3
isocp.shx
  0
STYLE
  2
KICADB
  70
0
  40
0
  41
1
  42
1
  50
0
  71
0
  3
isocp.shx
  0
STYLE
  2
KICADI
  70
0
  40
0
  41
1
  42
1
  50
15
  71
0
  3
isocp.shx
  0
STYLE
  2
KICADBI
  70
0
  40
0
  41
1
  42
1
  50
15
  71
0
  3
isocp.shx
  0
ENDTAB
  0
TABLE
  2
LAYER
  70
1
  0
LAYER
  2
BLACK
  70
0
  62
7
  6
CONTINUOUS
  0
ENDTAB
  0
ENDSEC
  0
SECTION
  2
ENTITIES
0
LINE
8
BLACK
6
CONTINUOUS
10
-81
20
-1.5
11
-81
21
-2.5
0
LINE
8
BLACK
6
CONTINUOUS
10
43.5
20
-4.5
11
59.5
21
-4.5
0
LINE
8
BLACK
6
CONTINUOUS
10
3
20
-71.5
11
16.451
21
-94.951
0
ARC
8
BLACK
10
-43.5
20
-6.125
40
1.625
50
22.6199
51
90
0
LINE
8
BLACK
6
CONTINUOUS
10
-16.451
20
-94.951
11
-3
21
-71.5
0
LINE
8
BLACK
6
CONTINUOUS
10
-3
20
-15.25
11
3
21
-15.25
0
ARC
8
BLACK
10
59.5
20
-3
40
1.5
50
-90
51
-0
0
LINE
8
BLACK
6
CONTINUOUS
10
-116.8
20
-74.6
11
-98.5
21
-73
0
LINE
8
BLACK
6
CONTINUOUS
10
-101.574
20
-14.9002
11
-121.636
21
-16.5998
0
LINE
8
BLACK
6
CONTINUOUS
10
-3
20
-20.5
11
3
21
-20.5
0
ARC
8
BLACK
10
-24.5
20
-8.025
40
1.525
50
10.3889
51
90
0
ARC
8
BLACK
10
-123.624
20
-28.8051
40
1.49992
50
-85.003
51
5.00081
0
ARC
8
BLACK
10
123.624
20
-28.805
40
1.50009
50
-184.997
51
-95.0005
0
ARC
8
BLACK
10
119.869
20
-70.9943
40
1.50003
50
85.0013
51
175
0
LINE
8
BLACK
6
CONTINUOUS
10
81
20
-2.5
11
81
21
-1.5
0
LINE
8
BLACK
6
CONTINUOUS
10
-4.5
20
-9
11
-21.5
21
-9
0
ARC
8
BLACK
10
4.5
20
-10.5
40
1.5
50
90
51
180
0
LINE
8
BLACK
6
CONTINUOUS
10
-3
20
-68
11
3
21
-68
0
ARC
8
BLACK
10
-101.652
20
-13.25
40
1.652
50
-87.3009
51
-0
0
ARC
8
BLACK
10
136.131
20
-69.4509
40
1.49993
50
-95.0025
51
-5.00017
0
LINE
8
BLACK
6
CONTINUOUS
10
3
20
-20.5
11
3
21
-62.75
0
LINE
8
BLACK
6
CONTINUOUS
10
-62.5
20
0
11
-79.5
21
0
0
LINE
8
BLACK
6
CONTINUOUS
10
-140.845
20
-33.4
11
-137.625
21
-69.5816
0
ARC
8
BLACK
10
24.5
20
-8.025
40
1.525
50
90
51
169.611
0
LINE
8
BLACK
6
CONTINUOUS
10
-52.5
20
-81.5
11
-71.5
21
-81.5
0
ARC
8
BLACK
10
-4.5
20
-10.5
40
1.5
50
-0
51
90
0
LINE
8
BLACK
6
CONTINUOUS
10
61
20
-1.5
11
61
21
-3
0
LINE
8
BLACK
6
CONTINUOUS
10
-40.5
20
-6.5
11
-24.5
21
-6.5
0
LINE
8
BLACK
6
CONTINUOUS
10
-3
20
-15.25
11
-3
21
-10.5
0
LINE
8
BLACK
6
CONTINUOUS
10
120
20
-69.5
11
136
21
-70.9452
0
LINE
8
BLACK
6
CONTINUOUS
10
-3
20
-71.5
11
-3
21
-68
0
ARC
8
BLACK
10
101.652
20
-13.25
40
1.65206
50
-180
51
-92.6991
0
LINE
8
BLACK
6
CONTINUOUS
10
34
20
-86.5
11
18.5
21
-95.5
0
LINE
8
BLACK
6
CONTINUOUS
10
-61
20
-3
11
-61
21
-1.5
0
LINE
8
BLACK
6
CONTINUOUS
10
-3
20
-62.75
11
3
21
-62.75
0
ARC
8
BLACK
10
82.5
20
-2.5
40
1.5
50
-180
51
-90
0
ARC
8
BLACK
10
21.5
20
-7.475
40
1.525
50
-90
51
-10.3889
0
LINE
8
BLACK
6
CONTINUOUS
10
139.482
20
-31.775
11
123.493
21
-30.2994
0
ARC
8
BLACK
10
43.5
20
-6.125
40
1.625
50
90
51
157.38
0
LINE
8
BLACK
6
CONTINUOUS
10
-3
20
-20.5
11
-3
21
-62.75
0
LINE
8
BLACK
6
CONTINUOUS
10
3
20
-71.5
11
3
21
-68
0
ARC
8
BLACK
10
62.5
20
-1.5
40
1.5
50
90
51
180
0
ARC
8
BLACK
10
79.5
20
-1.5
40
1.5
50
-0
51
90
0
LINE
8
BLACK
6
CONTINUOUS
10
-98.5
20
-73
11
-71.5
21
-81.5
0
LINE
8
BLACK
6
CONTINUOUS
10
-98.5
20
-4
11
-82.5
21
-4
0
ARC
8
BLACK
10
-116.751
20
-73.1431
40
1.45773
50
-173.821
51
-91.9342
0
ARC
8
BLACK
10
-62.5
20
-1.5
40
1.5
50
-0
51
90
0
LINE
8
BLACK
6
CONTINUOUS
10
71.5
20
-81.5
11
98.5
21
-73
0
ARC
8
BLACK
10
-121.506
20
-18.0941
40
1.5001
50
-264.996
51
-175.002
0
ARC
8
BLACK
10
-98.5
20
-5.5
40
1.5
50
90
51
180
0
ARC
8
BLACK
10
40.5
20
-4.875
40
1.625
50
-90
51
-22.6199
0
LINE
8
BLACK
6
CONTINUOUS
10
-123.493
20
-30.2994
11
-139.482
21
-31.775
0
ARC
8
BLACK
10
98.5
20
-5.5
40
1.5
50
-0
51
90
0
LINE
8
BLACK
6
CONTINUOUS
10
21.5
20
-9
11
4.5
21
-9
0
LINE
8
BLACK
6
CONTINUOUS
10
52.5
20
-81.5
11
71.5
21
-81.5
0
LINE
8
BLACK
6
CONTINUOUS
10
118.2
20
-73.3
11
118.375
21
-70.8636
0
LINE
8
BLACK
6
CONTINUOUS
10
-123
20
-18.2248
11
-122.13
21
-28.6744
0
LINE
8
BLACK
6
CONTINUOUS
10
98.5
20
-73
11
116.8
21
-74.6
0
ARC
8
BLACK
10
-59.5
20
-3
40
1.5
50
-180
51
-90
0
LINE
8
BLACK
6
CONTINUOUS
10
121.636
20
-16.5998
11
101.574
21
-14.9002
0
ARC
8
BLACK
10
-21.5
20
-7.475
40
1.525
50
-169.611
51
-90
0
ARC
8
BLACK
10
-17.75
20
-94.201
40
1.49998
50
-120.001
51
-29.9987
0
ARC
8
BLACK
10
-119.869
20
-70.9944
40
1.5001
50
5.00405
51
94.9984
0
ARC
8
BLACK
10
-82.5
20
-2.5
40
1.5
50
-90
51
-0
0
ARC
8
BLACK
10
17.75
20
-94.201
40
1.49997
50
-150.001
51
-59.9993
0
ARC
8
BLACK
10
-79.5
20
-1.5
40
1.5
50
90
51
180
0
LINE
8
BLACK
6
CONTINUOUS
10
-118.375
20
-70.8636
11
-118.2
21
-73.3
0
LINE
8
BLACK
6
CONTINUOUS
10
34
20
-86.5
11
52.5
21
-81.5
0
ARC
8
BLACK
10
-136.131
20
-69.451
40
1.4999
50
-175.004
51
-84.9971
0
LINE
8
BLACK
6
CONTINUOUS
10
-136
20
-70.9452
11
-120
21
-69.5
0
LINE
8
BLACK
6
CONTINUOUS
10
137.625
20
-69.5816
11
140.845
21
-33.4
0
LINE
8
BLACK
6
CONTINUOUS
10
-59.5
20
-4.5
11
-43.5
21
-4.5
0
LINE
8
BLACK
6
CONTINUOUS
10
82.5
20
-4
11
98.5
21
-4
0
LINE
8
BLACK
6
CONTINUOUS
10
100
20
-13.25
11
100
21
-5.5
0
LINE
8
BLACK
6
CONTINUOUS
10
3
20
-10.5
11
3
21
-15.25
0
ARC
8
BLACK
10
-139.351
20
-33.2693
40
1.50003
50
-264.999
51
-175.001
0
LINE
8
BLACK
6
CONTINUOUS
10
-18.5
20
-95.5
11
-34
21
-86.5
0
ARC
8
BLACK
10
-40.5
20
-4.875
40
1.625
50
-157.38
51
-90
0
LINE
8
BLACK
6
CONTINUOUS
10
122.13
20
-28.6744
11
123
21
-18.2248
0
LINE
8
BLACK
6
CONTINUOUS
10
-100
20
-5.5
11
-100
21
-13.25
0
ARC
8
BLACK
10
139.351
20
-33.2693
40
1.50004
50
-4.99861
51
84.9988
0
ARC
8
BLACK
10
121.506
20
-18.0941
40
1.50005
50
-4.99813
51
84.996
0
LINE
8
BLACK
6
CONTINUOUS
10
79.5
20
0
11
62.5
21
0
0
LINE
8
BLACK
6
CONTINUOUS
10
24.5
20
-6.5
11
40.5
21
-6.5
0
LINE
8
BLACK
6
CONTINUOUS
10
-52.5
20
-81.5
11
-34
21
-86.5
0
ARC
8
BLACK
10
116.751
20
-73.1431
40
1.45767
50
-88.0658
51
-6.17915
  0
ENDSEC
  0
EOF
