  0
SECTION
  2
HEADER
  9
$ANGBASE
  50
0.0
  9
$ANGDIR
  70
1
  9
$MEASUREMENT
  70
1
  0
ENDSEC
  0
SECTION
  2
TABLES
  0
TABLE
  2
LTYPE
  70
4
  0
LTYPE
  5
40F
  2
CONTINUOUS
  70
0
  3
Solid line
  72
65
  73
0
  40
0.0
  0
LTYPE
  5
410
  2
DASHDOT
 70
0
  3
Dash Dot ____ _ ____ _
 72
65
 73
4
 40
2.0
 49
1.25
 49
-0.25
 49
0.25
 49
-0.25
  0
LTYPE
  5
411
  2
DASHED
 70
0
  3
Dashed __ __ __ __ __
 72
65
 73
2
 40
0.75
 49
0.5
 49
-0.25
  0
LTYPE
  5
43B
  2
DOTTED
 70
0
  3
Dotted .  .  .  .
 72
65
 73
2
 40
0.2
 49
0.0
 49
-0.2
  0
ENDTAB
  0
TABLE
  2
STYLE
  70
4
  0
STYLE
  2
KICAD
  70
0
  40
0
  41
1
  42
1
  50
0
  71
0
  3
isocp.shx
  0
STYLE
  2
KICADB
  70
0
  40
0
  41
1
  42
1
  50
0
  71
0
  3
isocp.shx
  0
STYLE
  2
KICADI
  70
0
  40
0
  41
1
  42
1
  50
15
  71
0
  3
isocp.shx
  0
STYLE
  2
KICADBI
  70
0
  40
0
  41
1
  42
1
  50
15
  71
0
  3
isocp.shx
  0
ENDTAB
  0
TABLE
  2
LAYER
  70
1
  0
LAYER
  2
BLACK
  70
0
  62
7
  6
CONTINUOUS
  0
ENDTAB
  0
ENDSEC
  0
SECTION
  2
ENTITIES
0
LINE
8
BLACK
6
CONTINUOUS
10
72
20
-80
11
72
21
-63.5
0
LINE
8
BLACK
6
CONTINUOUS
10
-81
20
-1.5
11
-81
21
-2.5
0
LINE
8
BLACK
6
CONTINUOUS
10
43.5
20
-4.5
11
59.5
21
-4.5
0
LINE
8
BLACK
6
CONTINUOUS
10
3
20
-71.5
11
16.451
21
-94.951
0
ARC
8
BLACK
10
40.5
20
-4.875
40
1.625
50
-90
51
-22.6199
0
ARC
8
BLACK
10
-43.5
20
-6.125
40
1.625
50
22.6199
51
90
0
LINE
8
BLACK
6
CONTINUOUS
10
-16.451
20
-94.951
11
-3
21
-71.5
0
ARC
8
BLACK
10
96.75
20
-63.5
40
1.5
50
-0
51
89.9999
0
ARC
8
BLACK
10
59.5
20
-3
40
1.5
50
-90
51
-0
0
LINE
8
BLACK
6
CONTINUOUS
10
-116.8
20
-74.6
11
-99.5
21
-73
0
LINE
8
BLACK
6
CONTINUOUS
10
-101.574
20
-14.9002
11
-121.636
21
-16.5998
0
LINE
8
BLACK
6
CONTINUOUS
10
3
20
-60.5
11
9
21
-60.5
0
ARC
8
BLACK
10
-24.5
20
-8.025
40
1.525
50
10.3889
51
90
0
ARC
8
BLACK
10
99.775
20
-71.5
40
1.525
50
-180
51
-100.389
0
ARC
8
BLACK
10
-123.624
20
-28.8051
40
1.49992
50
-85.003
51
5.00081
0
LINE
8
BLACK
6
CONTINUOUS
10
3
20
-58.25
11
3
21
-60.5
0
ARC
8
BLACK
10
123.624
20
-28.805
40
1.50009
50
-184.997
51
-95.0005
0
ARC
8
BLACK
10
119.869
20
-70.9943
40
1.50004
50
85.0013
51
175
0
LINE
8
BLACK
6
CONTINUOUS
10
81
20
-2.5
11
81
21
-1.5
0
LINE
8
BLACK
6
CONTINUOUS
10
-4.5
20
-9
11
-21.5
21
-9
0
ARC
8
BLACK
10
4.5
20
-10.5
40
1.5
50
90
51
180
0
ARC
8
BLACK
10
-101.652
20
-13.25
40
1.652
50
-87.3009
51
-0
0
ARC
8
BLACK
10
136.131
20
-69.4509
40
1.49993
50
-95.0025
51
-5.00017
0
LINE
8
BLACK
6
CONTINUOUS
10
-62.5
20
0
11
-79.5
21
0
0
LINE
8
BLACK
6
CONTINUOUS
10
-140.845
20
-33.4
11
-137.625
21
-69.5816
0
LINE
8
BLACK
6
CONTINUOUS
10
-72
20
-63.5
11
-72
21
-80
0
ARC
8
BLACK
10
24.5
20
-8.025
40
1.525
50
90
51
169.611
0
LINE
8
BLACK
6
CONTINUOUS
10
-52.5
20
-81.5
11
-70.5
21
-81.5
0
ARC
8
BLACK
10
-4.5
20
-10.5
40
1.5
50
-0
51
90
0
LINE
8
BLACK
6
CONTINUOUS
10
61
20
-1.5
11
61
21
-3
0
LINE
8
BLACK
6
CONTINUOUS
10
-40.5
20
-6.5
11
-24.5
21
-6.5
0
LINE
8
BLACK
6
CONTINUOUS
10
-3
20
-58.25
11
-3
21
-10.5
0
LINE
8
BLACK
6
CONTINUOUS
10
120
20
-69.5
11
136
21
-70.9452
0
LINE
8
BLACK
6
CONTINUOUS
10
-3
20
-71.5
11
-3
21
-70
0
LINE
8
BLACK
6
CONTINUOUS
10
73.5
20
-62
11
96.75
21
-62
0
ARC
8
BLACK
10
101.652
20
-13.25
40
1.65206
50
-180
51
-92.6991
0
LINE
8
BLACK
6
CONTINUOUS
10
34
20
-86.5
11
18.5
21
-95.5
0
LINE
8
BLACK
6
CONTINUOUS
10
-61
20
-3
11
-61
21
-1.5
0
ARC
8
BLACK
10
82.5
20
-2.5
40
1.5
50
-180
51
-90
0
ARC
8
BLACK
10
21.5
20
-7.475
40
1.525
50
-90
51
-10.3889
0
LINE
8
BLACK
6
CONTINUOUS
10
139.482
20
-31.775
11
123.493
21
-30.2994
0
LINE
8
BLACK
6
CONTINUOUS
10
-9
20
-60.5
11
-3
21
-60.5
0
LINE
8
BLACK
6
CONTINUOUS
10
3
20
-71.5
11
3
21
-70
0
ARC
8
BLACK
10
62.5
20
-1.5
40
1.5
50
90
51
180
0
ARC
8
BLACK
10
79.5
20
-1.5
40
1.5
50
-0
51
90
0
ARC
8
BLACK
10
43.5
20
-6.125
40
1.625
50
90
51
157.38
0
ARC
8
BLACK
10
-96.75
20
-63.5
40
1.5
50
90
51
180
0
LINE
8
BLACK
6
CONTINUOUS
10
-98.5
20
-4
11
-82.5
21
-4
0
ARC
8
BLACK
10
-116.751
20
-73.1431
40
1.45773
50
-173.821
51
-91.9342
0
ARC
8
BLACK
10
-62.5
20
-1.5
40
1.5
50
-0
51
90
0
ARC
8
BLACK
10
-121.506
20
-18.0941
40
1.5001
50
-264.996
51
-175.002
0
ARC
8
BLACK
10
-98.5
20
-5.5
40
1.5
50
90
51
180
0
ARC
8
BLACK
10
70.5
20
-80
40
1.5
50
-89.9999
51
-0
0
ARC
8
BLACK
10
-70.5
20
-80
40
1.5
50
-180
51
-90
0
LINE
8
BLACK
6
CONTINUOUS
10
-123.493
20
-30.2994
11
-139.482
21
-31.775
0
ARC
8
BLACK
10
73.5
20
-63.5
40
1.5
50
89.9999
51
180
0
LINE
8
BLACK
6
CONTINUOUS
10
9
20
-60.5
11
9
21
-70
0
ARC
8
BLACK
10
-73.5
20
-63.5
40
1.5
50
-0
51
90
0
ARC
8
BLACK
10
98.5
20
-5.5
40
1.5
50
-0
51
90
0
LINE
8
BLACK
6
CONTINUOUS
10
21.5
20
-9
11
4.5
21
-9
0
LINE
8
BLACK
6
CONTINUOUS
10
52.5
20
-81.5
11
70.5
21
-81.5
0
LINE
8
BLACK
6
CONTINUOUS
10
-98.25
20
-63.5
11
-98.25
21
-71.5
0
LINE
8
BLACK
6
CONTINUOUS
10
118.2
20
-73.3
11
118.375
21
-70.8636
0
LINE
8
BLACK
6
CONTINUOUS
10
-123
20
-18.2248
11
-122.13
21
-28.6744
0
ARC
8
BLACK
10
-99.775
20
-71.5
40
1.525
50
-79.6111
51
-0
0
LINE
8
BLACK
6
CONTINUOUS
10
99.5
20
-73
11
116.8
21
-74.6
0
LINE
8
BLACK
6
CONTINUOUS
10
-3
20
-58.25
11
-3
21
-60.5
0
ARC
8
BLACK
10
-59.5
20
-3
40
1.5
50
-180
51
-90
0
LINE
8
BLACK
6
CONTINUOUS
10
121.636
20
-16.5998
11
101.574
21
-14.9002
0
LINE
8
BLACK
6
CONTINUOUS
10
-96.75
20
-62
11
-73.5
21
-62
0
ARC
8
BLACK
10
-21.5
20
-7.475
40
1.525
50
-169.611
51
-90
0
LINE
8
BLACK
6
CONTINUOUS
10
-9
20
-70
11
-9
21
-60.5
0
ARC
8
BLACK
10
-17.75
20
-94.201
40
1.49998
50
-120.001
51
-29.9987
0
ARC
8
BLACK
10
-119.869
20
-70.9944
40
1.50011
50
5.00405
51
94.9984
0
ARC
8
BLACK
10
-82.5
20
-2.5
40
1.5
50
-90
51
-0
0
ARC
8
BLACK
10
17.75
20
-94.201
40
1.49997
50
-150.001
51
-59.9993
0
ARC
8
BLACK
10
-79.5
20
-1.5
40
1.5
50
90
51
180
0
LINE
8
BLACK
6
CONTINUOUS
10
-118.375
20
-70.8636
11
-118.2
21
-73.3
0
LINE
8
BLACK
6
CONTINUOUS
10
34
20
-86.5
11
52.5
21
-81.5
0
ARC
8
BLACK
10
-136.131
20
-69.451
40
1.4999
50
-175.004
51
-84.9971
0
LINE
8
BLACK
6
CONTINUOUS
10
-136
20
-70.9452
11
-120
21
-69.5
0
LINE
8
BLACK
6
CONTINUOUS
10
137.625
20
-69.5816
11
140.845
21
-33.4
0
LINE
8
BLACK
6
CONTINUOUS
10
-59.5
20
-4.5
11
-43.5
21
-4.5
0
LINE
8
BLACK
6
CONTINUOUS
10
98.25
20
-71.5
11
98.25
21
-63.5
0
LINE
8
BLACK
6
CONTINUOUS
10
82.5
20
-4
11
98.5
21
-4
0
LINE
8
BLACK
6
CONTINUOUS
10
-3
20
-70
11
-9
21
-70
0
LINE
8
BLACK
6
CONTINUOUS
10
100
20
-13.25
11
100
21
-5.5
0
LINE
8
BLACK
6
CONTINUOUS
10
3
20
-10.5
11
3
21
-58.25
0
ARC
8
BLACK
10
-139.351
20
-33.2693
40
1.50003
50
-264.999
51
-175.001
0
LINE
8
BLACK
6
CONTINUOUS
10
-18.5
20
-95.5
11
-34
21
-86.5
0
ARC
8
BLACK
10
-40.5
20
-4.875
40
1.625
50
-157.38
51
-90
0
LINE
8
BLACK
6
CONTINUOUS
10
9
20
-70
11
3
21
-70
0
LINE
8
BLACK
6
CONTINUOUS
10
122.13
20
-28.6744
11
123
21
-18.2248
0
LINE
8
BLACK
6
CONTINUOUS
10
-100
20
-5.5
11
-100
21
-13.25
0
ARC
8
BLACK
10
139.351
20
-33.2693
40
1.50004
50
-4.99861
51
84.9988
0
ARC
8
BLACK
10
121.506
20
-18.0941
40
1.50005
50
-4.99813
51
84.996
0
LINE
8
BLACK
6
CONTINUOUS
10
79.5
20
0
11
62.5
21
0
0
LINE
8
BLACK
6
CONTINUOUS
10
24.5
20
-6.5
11
40.5
21
-6.5
0
LINE
8
BLACK
6
CONTINUOUS
10
-52.5
20
-81.5
11
-34
21
-86.5
0
ARC
8
BLACK
10
116.751
20
-73.1431
40
1.45767
50
-88.0658
51
-6.17915
0
LINE
8
BLACK
6
CONTINUOUS
10
-80
20
-44
11
-80
21
-47
0
LINE
8
BLACK
6
CONTINUOUS
10
-68.75
20
-49
11
-64.5
21
-49
0
LINE
8
BLACK
6
CONTINUOUS
10
-77.5
20
-47
11
-77.5
21
-49
0
LINE
8
BLACK
6
CONTINUOUS
10
-77.3
20
-44
11
-80
21
-44
0
LINE
8
BLACK
6
CONTINUOUS
10
-80
20
-47
11
-77.5
21
-47
0
LINE
8
BLACK
6
CONTINUOUS
10
-64.5
20
-49
11
-64.5
21
-47
0
LINE
8
BLACK
6
CONTINUOUS
10
-66
20
-41.5
11
-66
21
-41
0
LINE
8
BLACK
6
CONTINUOUS
10
-77.5
20
-49
11
-73.25
21
-49
0
LINE
8
BLACK
6
CONTINUOUS
10
-66
20
-41
11
-75.2858
21
-41
0
LINE
8
BLACK
6
CONTINUOUS
10
-63.25
20
-41.5
11
-66
21
-41.5
0
LINE
8
BLACK
6
CONTINUOUS
10
-77.3
20
-44
11
-77.3
21
-43.1
0
LINE
8
BLACK
6
CONTINUOUS
10
-66
20
-47
11
-66
21
-44.25
0
LINE
8
BLACK
6
CONTINUOUS
10
-66
20
-44.25
11
-63.25
21
-44.25
0
LINE
8
BLACK
6
CONTINUOUS
10
-64.5
20
-47
11
-66
21
-47
0
LINE
8
BLACK
6
CONTINUOUS
10
-63.25
20
-44.25
11
-63.25
21
-41.5
0
ARC
8
BLACK
10
-71
20
-48
40
2.46222
50
-156.037
51
-23.9625
0
ARC
8
BLACK
10
-75.2858
20
-43.016
40
2.01597
50
-270
51
-177.611
0
LINE
8
BLACK
6
CONTINUOUS
10
40.75
20
-50.75
11
40.75
21
-48
0
LINE
8
BLACK
6
CONTINUOUS
10
38
20
-50.75
11
40.75
21
-50.75
0
LINE
8
BLACK
6
CONTINUOUS
10
38
20
-47.5
11
28.7142
21
-47.5
0
LINE
8
BLACK
6
CONTINUOUS
10
35.25
20
-55.5
11
39.5
21
-55.5
0
LINE
8
BLACK
6
CONTINUOUS
10
38
20
-53.5
11
38
21
-50.75
0
LINE
8
BLACK
6
CONTINUOUS
10
26.5
20
-53.5
11
26.5
21
-55.5
0
LINE
8
BLACK
6
CONTINUOUS
10
39.5
20
-55.5
11
39.5
21
-53.5
0
LINE
8
BLACK
6
CONTINUOUS
10
38
20
-48
11
38
21
-47.5
0
LINE
8
BLACK
6
CONTINUOUS
10
24
20
-50.5
11
24
21
-53.5
0
LINE
8
BLACK
6
CONTINUOUS
10
26.5
20
-55.5
11
30.75
21
-55.5
0
LINE
8
BLACK
6
CONTINUOUS
10
39.5
20
-53.5
11
38
21
-53.5
0
LINE
8
BLACK
6
CONTINUOUS
10
24
20
-53.5
11
26.5
21
-53.5
0
LINE
8
BLACK
6
CONTINUOUS
10
26.7
20
-50.5
11
26.7
21
-49.6
0
LINE
8
BLACK
6
CONTINUOUS
10
26.7
20
-50.5
11
24
21
-50.5
0
LINE
8
BLACK
6
CONTINUOUS
10
40.75
20
-48
11
38
21
-48
0
ARC
8
BLACK
10
33
20
-54.5
40
2.46222
50
-156.037
51
-23.9625
0
ARC
8
BLACK
10
28.7142
20
-49.516
40
2.01597
50
-270
51
-177.611
0
LINE
8
BLACK
6
CONTINUOUS
10
-26.5
20
-34.5
11
-28
21
-34.5
0
LINE
8
BLACK
6
CONTINUOUS
10
-26.5
20
-36.5
11
-26.5
21
-34.5
0
LINE
8
BLACK
6
CONTINUOUS
10
-39.5
20
-34.5
11
-39.5
21
-36.5
0
LINE
8
BLACK
6
CONTINUOUS
10
-28
20
-34.5
11
-28
21
-31.75
0
LINE
8
BLACK
6
CONTINUOUS
10
-25.25
20
-31.75
11
-25.25
21
-29
0
LINE
8
BLACK
6
CONTINUOUS
10
-30.75
20
-36.5
11
-26.5
21
-36.5
0
LINE
8
BLACK
6
CONTINUOUS
10
-42
20
-31.5
11
-42
21
-34.5
0
LINE
8
BLACK
6
CONTINUOUS
10
-39.5
20
-36.5
11
-35.25
21
-36.5
0
LINE
8
BLACK
6
CONTINUOUS
10
-39.3
20
-31.5
11
-42
21
-31.5
0
LINE
8
BLACK
6
CONTINUOUS
10
-28
20
-31.75
11
-25.25
21
-31.75
0
LINE
8
BLACK
6
CONTINUOUS
10
-25.25
20
-29
11
-28
21
-29
0
LINE
8
BLACK
6
CONTINUOUS
10
-28
20
-28.5
11
-37.2858
21
-28.5
0
LINE
8
BLACK
6
CONTINUOUS
10
-39.3
20
-31.5
11
-39.3
21
-30.6
0
LINE
8
BLACK
6
CONTINUOUS
10
-28
20
-29
11
-28
21
-28.5
0
LINE
8
BLACK
6
CONTINUOUS
10
-42
20
-34.5
11
-39.5
21
-34.5
0
ARC
8
BLACK
10
-33
20
-35.5
40
2.46222
50
-156.037
51
-23.9625
0
ARC
8
BLACK
10
-37.2858
20
-30.516
40
2.01597
50
-270
51
-177.611
0
LINE
8
BLACK
6
CONTINUOUS
10
118.597
20
-41.7897
11
118.837
21
-39.0502
0
LINE
8
BLACK
6
CONTINUOUS
10
101.671
20
-43.0694
11
104.162
21
-43.2873
0
LINE
8
BLACK
6
CONTINUOUS
10
115.858
20
-41.55
11
118.597
21
-41.7897
0
LINE
8
BLACK
6
CONTINUOUS
10
116.938
20
-46.4127
11
117.112
21
-44.4203
0
LINE
8
BLACK
6
CONTINUOUS
10
103.988
20
-45.2797
11
108.221
21
-45.6501
0
LINE
8
BLACK
6
CONTINUOUS
10
104.162
20
-43.2873
11
103.988
21
-45.2797
0
LINE
8
BLACK
6
CONTINUOUS
10
118.837
20
-39.0502
11
116.097
21
-38.8105
0
LINE
8
BLACK
6
CONTINUOUS
10
101.933
20
-40.0808
11
101.671
21
-43.0694
0
LINE
8
BLACK
6
CONTINUOUS
10
116.141
20
-38.3124
11
106.891
21
-37.5031
0
LINE
8
BLACK
6
CONTINUOUS
10
115.618
20
-44.2896
11
115.858
21
-41.55
0
LINE
8
BLACK
6
CONTINUOUS
10
116.097
20
-38.8105
11
116.141
21
-38.3124
0
LINE
8
BLACK
6
CONTINUOUS
10
112.704
20
-46.0423
11
116.938
21
-46.4127
0
LINE
8
BLACK
6
CONTINUOUS
10
104.623
20
-40.3161
11
101.933
21
-40.0808
0
LINE
8
BLACK
6
CONTINUOUS
10
117.112
20
-44.4203
11
115.618
21
-44.2896
0
LINE
8
BLACK
6
CONTINUOUS
10
104.623
20
-40.3161
11
104.701
21
-39.4196
0
ARC
8
BLACK
10
106.715
20
-39.5114
40
2.01597
50
85.0001
51
177.389
0
ARC
8
BLACK
10
110.55
20
-44.85
40
2.46222
50
-161.037
51
-28.9625
0
LINE
8
BLACK
6
CONTINUOUS
10
-104.246
20
-59.6285
11
-101.506
21
-59.3888
0
LINE
8
BLACK
6
CONTINUOUS
10
-104.486
20
-56.889
11
-104.529
21
-56.3909
0
LINE
8
BLACK
6
CONTINUOUS
10
-106.571
20
-64.6001
11
-102.338
21
-64.2297
0
LINE
8
BLACK
6
CONTINUOUS
10
-104.529
20
-56.3909
11
-113.78
21
-57.2002
0
LINE
8
BLACK
6
CONTINUOUS
10
-115.525
20
-60.3643
11
-118.214
21
-60.5996
0
LINE
8
BLACK
6
CONTINUOUS
10
-102.512
20
-62.2373
11
-104.006
21
-62.368
0
LINE
8
BLACK
6
CONTINUOUS
10
-117.953
20
-63.5882
11
-115.462
21
-63.3703
0
LINE
8
BLACK
6
CONTINUOUS
10
-115.462
20
-63.3703
11
-115.288
21
-65.3627
0
LINE
8
BLACK
6
CONTINUOUS
10
-115.288
20
-65.3627
11
-111.054
21
-64.9923
0
LINE
8
BLACK
6
CONTINUOUS
10
-101.506
20
-59.3888
11
-101.746
21
-56.6493
0
LINE
8
BLACK
6
CONTINUOUS
10
-115.525
20
-60.3643
11
-115.603
21
-59.4677
0
LINE
8
BLACK
6
CONTINUOUS
10
-102.338
20
-64.2297
11
-102.512
21
-62.2373
0
LINE
8
BLACK
6
CONTINUOUS
10
-101.746
20
-56.6493
11
-104.486
21
-56.889
0
LINE
8
BLACK
6
CONTINUOUS
10
-118.214
20
-60.5996
11
-117.953
21
-63.5882
0
LINE
8
BLACK
6
CONTINUOUS
10
-104.006
20
-62.368
11
-104.246
21
-59.6285
0
ARC
8
BLACK
10
-113.604
20
-59.2085
40
2.01597
50
-265
51
-172.611
0
ARC
8
BLACK
10
-108.9
20
-63.8
40
2.46222
50
-151.037
51
-18.9625
0
CIRCLE
8
BLACK
10
-19
20
-33
40
1.1
0
LINE
8
BLACK
6
CONTINUOUS
10
65.55
20
-62
11
67.55
21
-62
0
LINE
8
BLACK
6
CONTINUOUS
10
67.55
20
-62
11
67.55
21
-58
0
LINE
8
BLACK
6
CONTINUOUS
10
67.55
20
-58
11
65.55
21
-58
0
LINE
8
BLACK
6
CONTINUOUS
10
65.55
20
-58
11
65.55
21
-62
0
LINE
8
BLACK
6
CONTINUOUS
10
95
20
-32
11
95
21
-29.25
0
LINE
8
BLACK
6
CONTINUOUS
10
81
20
-29
11
81
21
-32
0
LINE
8
BLACK
6
CONTINUOUS
10
95
20
-26.5
11
95
21
-26
0
LINE
8
BLACK
6
CONTINUOUS
10
92.25
20
-34
11
96.5
21
-34
0
LINE
8
BLACK
6
CONTINUOUS
10
95
20
-26
11
85.7142
21
-26
0
LINE
8
BLACK
6
CONTINUOUS
10
96.5
20
-32
11
95
21
-32
0
LINE
8
BLACK
6
CONTINUOUS
10
97.75
20
-29.25
11
97.75
21
-26.5
0
LINE
8
BLACK
6
CONTINUOUS
10
81
20
-32
11
83.5
21
-32
0
LINE
8
BLACK
6
CONTINUOUS
10
95
20
-29.25
11
97.75
21
-29.25
0
LINE
8
BLACK
6
CONTINUOUS
10
96.5
20
-34
11
96.5
21
-32
0
LINE
8
BLACK
6
CONTINUOUS
10
83.5
20
-32
11
83.5
21
-34
0
LINE
8
BLACK
6
CONTINUOUS
10
83.7
20
-29
11
81
21
-29
0
LINE
8
BLACK
6
CONTINUOUS
10
97.75
20
-26.5
11
95
21
-26.5
0
LINE
8
BLACK
6
CONTINUOUS
10
83.7
20
-29
11
83.7
21
-28.1
0
LINE
8
BLACK
6
CONTINUOUS
10
83.5
20
-34
11
87.75
21
-34
0
ARC
8
BLACK
10
85.7142
20
-28.016
40
2.01597
50
-270
51
-177.611
0
ARC
8
BLACK
10
90
20
-33
40
2.46222
50
-156.037
51
-23.9625
0
LINE
8
BLACK
6
CONTINUOUS
10
38
20
-10
11
38
21
-9.5
0
LINE
8
BLACK
6
CONTINUOUS
10
40.75
20
-12.75
11
40.75
21
-10
0
LINE
8
BLACK
6
CONTINUOUS
10
26.5
20
-17.5
11
30.75
21
-17.5
0
LINE
8
BLACK
6
CONTINUOUS
10
26.7
20
-12.5
11
26.7
21
-11.6
0
LINE
8
BLACK
6
CONTINUOUS
10
40.75
20
-10
11
38
21
-10
0
LINE
8
BLACK
6
CONTINUOUS
10
24
20
-12.5
11
24
21
-15.5
0
LINE
8
BLACK
6
CONTINUOUS
10
39.5
20
-15.5
11
38
21
-15.5
0
LINE
8
BLACK
6
CONTINUOUS
10
38
20
-15.5
11
38
21
-12.75
0
LINE
8
BLACK
6
CONTINUOUS
10
39.5
20
-17.5
11
39.5
21
-15.5
0
LINE
8
BLACK
6
CONTINUOUS
10
38
20
-12.75
11
40.75
21
-12.75
0
LINE
8
BLACK
6
CONTINUOUS
10
35.25
20
-17.5
11
39.5
21
-17.5
0
LINE
8
BLACK
6
CONTINUOUS
10
24
20
-15.5
11
26.5
21
-15.5
0
LINE
8
BLACK
6
CONTINUOUS
10
26.7
20
-12.5
11
24
21
-12.5
0
LINE
8
BLACK
6
CONTINUOUS
10
38
20
-9.5
11
28.7142
21
-9.5
0
LINE
8
BLACK
6
CONTINUOUS
10
26.5
20
-15.5
11
26.5
21
-17.5
0
ARC
8
BLACK
10
28.7142
20
-11.516
40
2.01597
50
-270
51
-177.611
0
ARC
8
BLACK
10
33
20
-16.5
40
2.46222
50
-156.037
51
-23.9625
0
LINE
8
BLACK
6
CONTINUOUS
10
-39.3
20
-12.5
11
-42
21
-12.5
0
LINE
8
BLACK
6
CONTINUOUS
10
-39.5
20
-17.5
11
-35.25
21
-17.5
0
LINE
8
BLACK
6
CONTINUOUS
10
-28
20
-15.5
11
-28
21
-12.75
0
LINE
8
BLACK
6
CONTINUOUS
10
-25.25
20
-12.75
11
-25.25
21
-10
0
LINE
8
BLACK
6
CONTINUOUS
10
-39.5
20
-15.5
11
-39.5
21
-17.5
0
LINE
8
BLACK
6
CONTINUOUS
10
-26.5
20
-15.5
11
-28
21
-15.5
0
LINE
8
BLACK
6
CONTINUOUS
10
-42
20
-12.5
11
-42
21
-15.5
0
LINE
8
BLACK
6
CONTINUOUS
10
-26.5
20
-17.5
11
-26.5
21
-15.5
0
LINE
8
BLACK
6
CONTINUOUS
10
-28
20
-12.75
11
-25.25
21
-12.75
0
LINE
8
BLACK
6
CONTINUOUS
10
-39.3
20
-12.5
11
-39.3
21
-11.6
0
LINE
8
BLACK
6
CONTINUOUS
10
-42
20
-15.5
11
-39.5
21
-15.5
0
LINE
8
BLACK
6
CONTINUOUS
10
-28
20
-9.5
11
-37.2858
21
-9.5
0
LINE
8
BLACK
6
CONTINUOUS
10
-25.25
20
-10
11
-28
21
-10
0
LINE
8
BLACK
6
CONTINUOUS
10
-30.75
20
-17.5
11
-26.5
21
-17.5
0
LINE
8
BLACK
6
CONTINUOUS
10
-28
20
-10
11
-28
21
-9.5
0
ARC
8
BLACK
10
-37.2858
20
-11.516
40
2.01597
50
-270
51
-177.611
0
ARC
8
BLACK
10
-33
20
-16.5
40
2.46222
50
-156.037
51
-23.9625
0
LINE
8
BLACK
6
CONTINUOUS
10
123.612
20
-39.5373
11
123.438
21
-41.5297
0
LINE
8
BLACK
6
CONTINUOUS
10
121.383
20
-36.3308
11
121.121
21
-39.3194
0
LINE
8
BLACK
6
CONTINUOUS
10
135.068
20
-40.5396
11
135.308
21
-37.8
0
LINE
8
BLACK
6
CONTINUOUS
10
138.287
20
-35.3002
11
135.547
21
-35.0605
0
LINE
8
BLACK
6
CONTINUOUS
10
138.047
20
-38.0397
11
138.287
21
-35.3002
0
LINE
8
BLACK
6
CONTINUOUS
10
132.154
20
-42.2923
11
136.388
21
-42.6627
0
LINE
8
BLACK
6
CONTINUOUS
10
135.591
20
-34.5624
11
126.341
21
-33.7531
0
LINE
8
BLACK
6
CONTINUOUS
10
124.073
20
-36.5661
11
124.151
21
-35.6696
0
LINE
8
BLACK
6
CONTINUOUS
10
121.121
20
-39.3194
11
123.612
21
-39.5373
0
LINE
8
BLACK
6
CONTINUOUS
10
136.388
20
-42.6627
11
136.562
21
-40.6703
0
LINE
8
BLACK
6
CONTINUOUS
10
135.547
20
-35.0605
11
135.591
21
-34.5624
0
LINE
8
BLACK
6
CONTINUOUS
10
135.308
20
-37.8
11
138.047
21
-38.0397
0
LINE
8
BLACK
6
CONTINUOUS
10
136.562
20
-40.6703
11
135.068
21
-40.5396
0
LINE
8
BLACK
6
CONTINUOUS
10
123.438
20
-41.5297
11
127.671
21
-41.9001
0
LINE
8
BLACK
6
CONTINUOUS
10
124.073
20
-36.5661
11
121.383
21
-36.3308
0
ARC
8
BLACK
10
126.165
20
-35.7614
40
2.01597
50
85.0001
51
177.389
0
ARC
8
BLACK
10
130
20
-41.1
40
2.46222
50
-161.037
51
-28.9625
0
LINE
8
BLACK
6
CONTINUOUS
10
69.75
20
-67.75
11
69.75
21
-65
0
LINE
8
BLACK
6
CONTINUOUS
10
55.7
20
-67.5
11
55.7
21
-66.6
0
LINE
8
BLACK
6
CONTINUOUS
10
68.5
20
-70.5
11
67
21
-70.5
0
LINE
8
BLACK
6
CONTINUOUS
10
55.5
20
-72.5
11
59.75
21
-72.5
0
LINE
8
BLACK
6
CONTINUOUS
10
55.7
20
-67.5
11
53
21
-67.5
0
LINE
8
BLACK
6
CONTINUOUS
10
53
20
-70.5
11
55.5
21
-70.5
0
LINE
8
BLACK
6
CONTINUOUS
10
67
20
-70.5
11
67
21
-67.75
0
LINE
8
BLACK
6
CONTINUOUS
10
64.25
20
-72.5
11
68.5
21
-72.5
0
LINE
8
BLACK
6
CONTINUOUS
10
67
20
-67.75
11
69.75
21
-67.75
0
LINE
8
BLACK
6
CONTINUOUS
10
53
20
-67.5
11
53
21
-70.5
0
LINE
8
BLACK
6
CONTINUOUS
10
55.5
20
-70.5
11
55.5
21
-72.5
0
LINE
8
BLACK
6
CONTINUOUS
10
67
20
-64.5
11
57.7142
21
-64.5
0
LINE
8
BLACK
6
CONTINUOUS
10
67
20
-65
11
67
21
-64.5
0
LINE
8
BLACK
6
CONTINUOUS
10
68.5
20
-72.5
11
68.5
21
-70.5
0
LINE
8
BLACK
6
CONTINUOUS
10
69.75
20
-65
11
67
21
-65
0
ARC
8
BLACK
10
57.7142
20
-66.516
40
2.01597
50
-270
51
-177.611
0
ARC
8
BLACK
10
62
20
-71.5
40
2.46222
50
-156.037
51
-23.9625
0
LINE
8
BLACK
6
CONTINUOUS
10
81
20
-10
11
81
21
-13
0
LINE
8
BLACK
6
CONTINUOUS
10
92.25
20
-15
11
96.5
21
-15
0
LINE
8
BLACK
6
CONTINUOUS
10
95
20
-13
11
95
21
-10.25
0
LINE
8
BLACK
6
CONTINUOUS
10
83.5
20
-13
11
83.5
21
-15
0
LINE
8
BLACK
6
CONTINUOUS
10
97.75
20
-10.25
11
97.75
21
-7.5
0
LINE
8
BLACK
6
CONTINUOUS
10
83.7
20
-10
11
81
21
-10
0
LINE
8
BLACK
6
CONTINUOUS
10
95
20
-10.25
11
97.75
21
-10.25
0
LINE
8
BLACK
6
CONTINUOUS
10
96.5
20
-13
11
95
21
-13
0
LINE
8
BLACK
6
CONTINUOUS
10
95
20
-7.5
11
95
21
-7
0
LINE
8
BLACK
6
CONTINUOUS
10
95
20
-7
11
85.7142
21
-7
0
LINE
8
BLACK
6
CONTINUOUS
10
81
20
-13
11
83.5
21
-13
0
LINE
8
BLACK
6
CONTINUOUS
10
96.5
20
-15
11
96.5
21
-13
0
LINE
8
BLACK
6
CONTINUOUS
10
83.7
20
-10
11
83.7
21
-9.1
0
LINE
8
BLACK
6
CONTINUOUS
10
83.5
20
-15
11
87.75
21
-15
0
LINE
8
BLACK
6
CONTINUOUS
10
97.75
20
-7.5
11
95
21
-7.5
0
ARC
8
BLACK
10
90
20
-14
40
2.46222
50
-156.037
51
-23.9625
0
ARC
8
BLACK
10
85.7142
20
-9.01597
40
2.01597
50
-270
51
-177.611
0
LINE
8
BLACK
6
CONTINUOUS
10
76
20
-44.25
11
78.75
21
-44.25
0
LINE
8
BLACK
6
CONTINUOUS
10
76
20
-47
11
76
21
-44.25
0
LINE
8
BLACK
6
CONTINUOUS
10
77.5
20
-47
11
76
21
-47
0
LINE
8
BLACK
6
CONTINUOUS
10
76
20
-41.5
11
76
21
-41
0
LINE
8
BLACK
6
CONTINUOUS
10
78.75
20
-41.5
11
76
21
-41.5
0
LINE
8
BLACK
6
CONTINUOUS
10
64.7
20
-44
11
64.7
21
-43.1
0
LINE
8
BLACK
6
CONTINUOUS
10
64.5
20
-47
11
64.5
21
-49
0
LINE
8
BLACK
6
CONTINUOUS
10
73.25
20
-49
11
77.5
21
-49
0
LINE
8
BLACK
6
CONTINUOUS
10
62
20
-47
11
64.5
21
-47
0
LINE
8
BLACK
6
CONTINUOUS
10
77.5
20
-49
11
77.5
21
-47
0
LINE
8
BLACK
6
CONTINUOUS
10
76
20
-41
11
66.7142
21
-41
0
LINE
8
BLACK
6
CONTINUOUS
10
64.5
20
-49
11
68.75
21
-49
0
LINE
8
BLACK
6
CONTINUOUS
10
64.7
20
-44
11
62
21
-44
0
LINE
8
BLACK
6
CONTINUOUS
10
78.75
20
-44.25
11
78.75
21
-41.5
0
LINE
8
BLACK
6
CONTINUOUS
10
62
20
-44
11
62
21
-47
0
ARC
8
BLACK
10
71
20
-48
40
2.46222
50
-156.037
51
-23.9625
0
ARC
8
BLACK
10
66.7142
20
-43.016
40
2.01597
50
-270
51
-177.611
0
LINE
8
BLACK
6
CONTINUOUS
10
-85
20
-45.5
11
-85
21
-45
0
LINE
8
BLACK
6
CONTINUOUS
10
-82.25
20
-48.25
11
-82.25
21
-45.5
0
LINE
8
BLACK
6
CONTINUOUS
10
-83.5
20
-51
11
-85
21
-51
0
LINE
8
BLACK
6
CONTINUOUS
10
-83.5
20
-53
11
-83.5
21
-51
0
LINE
8
BLACK
6
CONTINUOUS
10
-96.3
20
-48
11
-99
21
-48
0
LINE
8
BLACK
6
CONTINUOUS
10
-99
20
-51
11
-96.5
21
-51
0
LINE
8
BLACK
6
CONTINUOUS
10
-96.5
20
-53
11
-92.25
21
-53
0
LINE
8
BLACK
6
CONTINUOUS
10
-87.75
20
-53
11
-83.5
21
-53
0
LINE
8
BLACK
6
CONTINUOUS
10
-99
20
-48
11
-99
21
-51
0
LINE
8
BLACK
6
CONTINUOUS
10
-96.5
20
-51
11
-96.5
21
-53
0
LINE
8
BLACK
6
CONTINUOUS
10
-82.25
20
-45.5
11
-85
21
-45.5
0
LINE
8
BLACK
6
CONTINUOUS
10
-85
20
-51
11
-85
21
-48.25
0
LINE
8
BLACK
6
CONTINUOUS
10
-85
20
-45
11
-94.2858
21
-45
0
LINE
8
BLACK
6
CONTINUOUS
10
-96.3
20
-48
11
-96.3
21
-47.1
0
LINE
8
BLACK
6
CONTINUOUS
10
-85
20
-48.25
11
-82.25
21
-48.25
0
ARC
8
BLACK
10
-90
20
-52
40
2.46222
50
-156.037
51
-23.9625
0
ARC
8
BLACK
10
-94.2858
20
-47.016
40
2.01597
50
-270
51
-177.611
0
LINE
8
BLACK
6
CONTINUOUS
10
-39.5
20
-53.5
11
-39.5
21
-55.5
0
LINE
8
BLACK
6
CONTINUOUS
10
-39.3
20
-50.5
11
-39.3
21
-49.6
0
LINE
8
BLACK
6
CONTINUOUS
10
-42
20
-50.5
11
-42
21
-53.5
0
LINE
8
BLACK
6
CONTINUOUS
10
-39.5
20
-55.5
11
-35.25
21
-55.5
0
LINE
8
BLACK
6
CONTINUOUS
10
-26.5
20
-55.5
11
-26.5
21
-53.5
0
LINE
8
BLACK
6
CONTINUOUS
10
-28
20
-53.5
11
-28
21
-50.75
0
LINE
8
BLACK
6
CONTINUOUS
10
-42
20
-53.5
11
-39.5
21
-53.5
0
LINE
8
BLACK
6
CONTINUOUS
10
-26.5
20
-53.5
11
-28
21
-53.5
0
LINE
8
BLACK
6
CONTINUOUS
10
-39.3
20
-50.5
11
-42
21
-50.5
0
LINE
8
BLACK
6
CONTINUOUS
10
-28
20
-50.75
11
-25.25
21
-50.75
0
LINE
8
BLACK
6
CONTINUOUS
10
-25.25
20
-48
11
-28
21
-48
0
LINE
8
BLACK
6
CONTINUOUS
10
-25.25
20
-50.75
11
-25.25
21
-48
0
LINE
8
BLACK
6
CONTINUOUS
10
-28
20
-48
11
-28
21
-47.5
0
LINE
8
BLACK
6
CONTINUOUS
10
-30.75
20
-55.5
11
-26.5
21
-55.5
0
LINE
8
BLACK
6
CONTINUOUS
10
-28
20
-47.5
11
-37.2858
21
-47.5
0
ARC
8
BLACK
10
-33
20
-54.5
40
2.46222
50
-156.037
51
-23.9625
0
ARC
8
BLACK
10
-37.2858
20
-49.516
40
2.01597
50
-270
51
-177.611
0
LINE
8
BLACK
6
CONTINUOUS
10
-65.7
20
-58.15
11
-67.7
21
-58.15
0
LINE
8
BLACK
6
CONTINUOUS
10
-67.7
20
-58.15
11
-67.7
21
-62.15
0
LINE
8
BLACK
6
CONTINUOUS
10
-67.7
20
-62.15
11
-65.7
21
-62.15
0
LINE
8
BLACK
6
CONTINUOUS
10
-65.7
20
-62.15
11
-65.7
21
-58.15
0
CIRCLE
8
BLACK
10
-28
20
-72
40
1.1
0
LINE
8
BLACK
6
CONTINUOUS
10
24
20
-31.5
11
24
21
-34.5
0
LINE
8
BLACK
6
CONTINUOUS
10
40.75
20
-29
11
38
21
-29
0
LINE
8
BLACK
6
CONTINUOUS
10
38
20
-34.5
11
38
21
-31.75
0
LINE
8
BLACK
6
CONTINUOUS
10
38
20
-31.75
11
40.75
21
-31.75
0
LINE
8
BLACK
6
CONTINUOUS
10
26.7
20
-31.5
11
24
21
-31.5
0
LINE
8
BLACK
6
CONTINUOUS
10
39.5
20
-36.5
11
39.5
21
-34.5
0
LINE
8
BLACK
6
CONTINUOUS
10
24
20
-34.5
11
26.5
21
-34.5
0
LINE
8
BLACK
6
CONTINUOUS
10
35.25
20
-36.5
11
39.5
21
-36.5
0
LINE
8
BLACK
6
CONTINUOUS
10
26.5
20
-36.5
11
30.75
21
-36.5
0
LINE
8
BLACK
6
CONTINUOUS
10
38
20
-29
11
38
21
-28.5
0
LINE
8
BLACK
6
CONTINUOUS
10
38
20
-28.5
11
28.7142
21
-28.5
0
LINE
8
BLACK
6
CONTINUOUS
10
39.5
20
-34.5
11
38
21
-34.5
0
LINE
8
BLACK
6
CONTINUOUS
10
40.75
20
-31.75
11
40.75
21
-29
0
LINE
8
BLACK
6
CONTINUOUS
10
26.7
20
-31.5
11
26.7
21
-30.6
0
LINE
8
BLACK
6
CONTINUOUS
10
26.5
20
-34.5
11
26.5
21
-36.5
0
ARC
8
BLACK
10
28.7142
20
-30.516
40
2.01597
50
-270
51
-177.611
0
ARC
8
BLACK
10
33
20
-35.5
40
2.46222
50
-156.037
51
-23.9625
0
LINE
8
BLACK
6
CONTINUOUS
10
23.25
20
-40.25
11
21.25
21
-40.25
0
LINE
8
BLACK
6
CONTINUOUS
10
21.25
20
-40.25
11
21.25
21
-44.25
0
LINE
8
BLACK
6
CONTINUOUS
10
21.25
20
-44.25
11
23.25
21
-44.25
0
LINE
8
BLACK
6
CONTINUOUS
10
23.25
20
-44.25
11
23.25
21
-40.25
0
LINE
8
BLACK
6
CONTINUOUS
10
-96.5
20
-13
11
-96.5
21
-15
0
LINE
8
BLACK
6
CONTINUOUS
10
-96.3
20
-10
11
-99
21
-10
0
LINE
8
BLACK
6
CONTINUOUS
10
-85
20
-7.5
11
-85
21
-7
0
LINE
8
BLACK
6
CONTINUOUS
10
-99
20
-10
11
-99
21
-13
0
LINE
8
BLACK
6
CONTINUOUS
10
-82.25
20
-10.25
11
-82.25
21
-7.5
0
LINE
8
BLACK
6
CONTINUOUS
10
-85
20
-13
11
-85
21
-10.25
0
LINE
8
BLACK
6
CONTINUOUS
10
-85
20
-7
11
-94.2858
21
-7
0
LINE
8
BLACK
6
CONTINUOUS
10
-99
20
-13
11
-96.5
21
-13
0
LINE
8
BLACK
6
CONTINUOUS
10
-85
20
-10.25
11
-82.25
21
-10.25
0
LINE
8
BLACK
6
CONTINUOUS
10
-96.3
20
-10
11
-96.3
21
-9.1
0
LINE
8
BLACK
6
CONTINUOUS
10
-83.5
20
-13
11
-85
21
-13
0
LINE
8
BLACK
6
CONTINUOUS
10
-87.75
20
-15
11
-83.5
21
-15
0
LINE
8
BLACK
6
CONTINUOUS
10
-82.25
20
-7.5
11
-85
21
-7.5
0
LINE
8
BLACK
6
CONTINUOUS
10
-96.5
20
-15
11
-92.25
21
-15
0
LINE
8
BLACK
6
CONTINUOUS
10
-83.5
20
-15
11
-83.5
21
-13
0
ARC
8
BLACK
10
-94.2858
20
-9.01597
40
2.01597
50
-270
51
-177.611
0
ARC
8
BLACK
10
-90
20
-14
40
2.46222
50
-156.037
51
-23.9625
0
LINE
8
BLACK
6
CONTINUOUS
10
34.7303
20
-76.8982
11
38.8355
21
-75.7983
0
LINE
8
BLACK
6
CONTINUOUS
10
44.6091
20
-69.3337
11
47.2654
21
-68.6219
0
LINE
8
BLACK
6
CONTINUOUS
10
33.6294
20
-72.0169
11
31.0214
21
-72.7157
0
LINE
8
BLACK
6
CONTINUOUS
10
45.3208
20
-71.99
11
44.6091
21
-69.3337
0
LINE
8
BLACK
6
CONTINUOUS
10
43.1822
20
-74.6336
11
47.2873
21
-73.5336
0
LINE
8
BLACK
6
CONTINUOUS
10
43.8973
20
-66.6774
11
43.7679
21
-66.1944
0
LINE
8
BLACK
6
CONTINUOUS
10
33.6294
20
-72.0169
11
33.3965
21
-71.1475
0
LINE
8
BLACK
6
CONTINUOUS
10
46.7697
20
-71.6017
11
45.3208
21
-71.99
0
LINE
8
BLACK
6
CONTINUOUS
10
34.2127
20
-74.9664
11
34.7303
21
-76.8982
0
LINE
8
BLACK
6
CONTINUOUS
10
31.7978
20
-75.6134
11
34.2127
21
-74.9664
0
LINE
8
BLACK
6
CONTINUOUS
10
46.5536
20
-65.9656
11
43.8973
21
-66.6774
0
LINE
8
BLACK
6
CONTINUOUS
10
43.7679
20
-66.1944
11
34.7985
21
-68.5978
0
LINE
8
BLACK
6
CONTINUOUS
10
47.2873
20
-73.5336
11
46.7697
21
-71.6017
0
LINE
8
BLACK
6
CONTINUOUS
10
31.0214
20
-72.7157
11
31.7978
21
-75.6134
0
LINE
8
BLACK
6
CONTINUOUS
10
47.2654
20
-68.6219
11
46.5536
21
-65.9656
0
ARC
8
BLACK
10
40.75
20
-74.25
40
2.46221
50
-141.037
51
-8.96251
0
ARC
8
BLACK
10
35.3203
20
-70.545
40
2.01597
50
-255
51
-162.611
0
CIRCLE
8
BLACK
10
-120.25
20
-49.75
40
1.1
0
LINE
8
BLACK
6
CONTINUOUS
10
64.5
20
-30
11
68.75
21
-30
0
LINE
8
BLACK
6
CONTINUOUS
10
78.75
20
-22.5
11
76
21
-22.5
0
LINE
8
BLACK
6
CONTINUOUS
10
64.7
20
-25
11
64.7
21
-24.1
0
LINE
8
BLACK
6
CONTINUOUS
10
76
20
-25.25
11
78.75
21
-25.25
0
LINE
8
BLACK
6
CONTINUOUS
10
76
20
-22.5
11
76
21
-22
0
LINE
8
BLACK
6
CONTINUOUS
10
77.5
20
-28
11
76
21
-28
0
LINE
8
BLACK
6
CONTINUOUS
10
78.75
20
-25.25
11
78.75
21
-22.5
0
LINE
8
BLACK
6
CONTINUOUS
10
64.5
20
-28
11
64.5
21
-30
0
LINE
8
BLACK
6
CONTINUOUS
10
76
20
-22
11
66.7142
21
-22
0
LINE
8
BLACK
6
CONTINUOUS
10
77.5
20
-30
11
77.5
21
-28
0
LINE
8
BLACK
6
CONTINUOUS
10
73.25
20
-30
11
77.5
21
-30
0
LINE
8
BLACK
6
CONTINUOUS
10
76
20
-28
11
76
21
-25.25
0
LINE
8
BLACK
6
CONTINUOUS
10
64.7
20
-25
11
62
21
-25
0
LINE
8
BLACK
6
CONTINUOUS
10
62
20
-25
11
62
21
-28
0
LINE
8
BLACK
6
CONTINUOUS
10
62
20
-28
11
64.5
21
-28
0
ARC
8
BLACK
10
71
20
-29
40
2.46222
50
-156.037
51
-23.9625
0
ARC
8
BLACK
10
66.7142
20
-24.016
40
2.01597
50
-270
51
-177.611
0
LINE
8
BLACK
6
CONTINUOUS
10
-61
20
-51.5
11
-58.5
21
-51.5
0
LINE
8
BLACK
6
CONTINUOUS
10
-58.5
20
-51.5
11
-58.5
21
-53.5
0
LINE
8
BLACK
6
CONTINUOUS
10
-47
20
-51.5
11
-47
21
-48.75
0
LINE
8
BLACK
6
CONTINUOUS
10
-44.25
20
-48.75
11
-44.25
21
-46
0
LINE
8
BLACK
6
CONTINUOUS
10
-58.3
20
-48.5
11
-61
21
-48.5
0
LINE
8
BLACK
6
CONTINUOUS
10
-47
20
-46
11
-47
21
-45.5
0
LINE
8
BLACK
6
CONTINUOUS
10
-58.3
20
-48.5
11
-58.3
21
-47.6
0
LINE
8
BLACK
6
CONTINUOUS
10
-45.5
20
-53.5
11
-45.5
21
-51.5
0
LINE
8
BLACK
6
CONTINUOUS
10
-45.5
20
-51.5
11
-47
21
-51.5
0
LINE
8
BLACK
6
CONTINUOUS
10
-47
20
-45.5
11
-56.2858
21
-45.5
0
LINE
8
BLACK
6
CONTINUOUS
10
-61
20
-48.5
11
-61
21
-51.5
0
LINE
8
BLACK
6
CONTINUOUS
10
-58.5
20
-53.5
11
-54.25
21
-53.5
0
LINE
8
BLACK
6
CONTINUOUS
10
-49.75
20
-53.5
11
-45.5
21
-53.5
0
LINE
8
BLACK
6
CONTINUOUS
10
-47
20
-48.75
11
-44.25
21
-48.75
0
LINE
8
BLACK
6
CONTINUOUS
10
-44.25
20
-46
11
-47
21
-46
0
ARC
8
BLACK
10
-52
20
-52.5
40
2.46222
50
-156.037
51
-23.9625
0
ARC
8
BLACK
10
-56.2858
20
-47.516
40
2.01597
50
-270
51
-177.611
0
LINE
8
BLACK
6
CONTINUOUS
10
-13.6
20
-59.05
11
-12.4
21
-59.05
0
LINE
8
BLACK
6
CONTINUOUS
10
-13.6
20
-45.45
11
-12.4
21
-45.45
0
LINE
8
BLACK
6
CONTINUOUS
10
-13.6
20
-56.65
11
-12.4
21
-56.65
0
LINE
8
BLACK
6
CONTINUOUS
10
-13.6
20
-47.85
11
-12.4
21
-47.85
0
LINE
8
BLACK
6
CONTINUOUS
10
-21.75
20
-48.5
11
-19.25
21
-48.5
0
LINE
8
BLACK
6
CONTINUOUS
10
-19.25
20
-48.5
11
-19.25
21
-56
0
LINE
8
BLACK
6
CONTINUOUS
10
-19.25
20
-56
11
-21.75
21
-56
0
LINE
8
BLACK
6
CONTINUOUS
10
-21.75
20
-56
11
-21.75
21
-48.5
0
ARC
8
BLACK
10
-12.4
20
-57.85
40
1.2
50
-90
51
90
0
ARC
8
BLACK
10
-13.6
20
-46.65
40
1.2
50
-270
51
-90
0
ARC
8
BLACK
10
-12.4
20
-46.65
40
1.2
50
-90
51
90
0
ARC
8
BLACK
10
-13.6
20
-57.85
40
1.2
50
-270
51
-90
0
CIRCLE
8
BLACK
10
-6
20
-54.75
40
1.25
0
CIRCLE
8
BLACK
10
-6
20
-49.75
40
1.25
0
LINE
8
BLACK
6
CONTINUOUS
10
57
20
-48.75
11
59.75
21
-48.75
0
LINE
8
BLACK
6
CONTINUOUS
10
45.5
20
-53.5
11
49.75
21
-53.5
0
LINE
8
BLACK
6
CONTINUOUS
10
59.75
20
-48.75
11
59.75
21
-46
0
LINE
8
BLACK
6
CONTINUOUS
10
58.5
20
-53.5
11
58.5
21
-51.5
0
LINE
8
BLACK
6
CONTINUOUS
10
57
20
-46
11
57
21
-45.5
0
LINE
8
BLACK
6
CONTINUOUS
10
45.7
20
-48.5
11
43
21
-48.5
0
LINE
8
BLACK
6
CONTINUOUS
10
57
20
-45.5
11
47.7142
21
-45.5
0
LINE
8
BLACK
6
CONTINUOUS
10
59.75
20
-46
11
57
21
-46
0
LINE
8
BLACK
6
CONTINUOUS
10
45.7
20
-48.5
11
45.7
21
-47.6
0
LINE
8
BLACK
6
CONTINUOUS
10
45.5
20
-51.5
11
45.5
21
-53.5
0
LINE
8
BLACK
6
CONTINUOUS
10
54.25
20
-53.5
11
58.5
21
-53.5
0
LINE
8
BLACK
6
CONTINUOUS
10
43
20
-51.5
11
45.5
21
-51.5
0
LINE
8
BLACK
6
CONTINUOUS
10
57
20
-51.5
11
57
21
-48.75
0
LINE
8
BLACK
6
CONTINUOUS
10
58.5
20
-51.5
11
57
21
-51.5
0
LINE
8
BLACK
6
CONTINUOUS
10
43
20
-48.5
11
43
21
-51.5
0
ARC
8
BLACK
10
52
20
-52.5
40
2.46222
50
-156.037
51
-23.9625
0
ARC
8
BLACK
10
47.7142
20
-47.516
40
2.01597
50
-270
51
-177.611
0
LINE
8
BLACK
6
CONTINUOUS
10
13.6
20
-59.05
11
12.4
21
-59.05
0
LINE
8
BLACK
6
CONTINUOUS
10
13.6
20
-56.65
11
12.4
21
-56.65
0
LINE
8
BLACK
6
CONTINUOUS
10
13.6
20
-45.45
11
12.4
21
-45.45
0
LINE
8
BLACK
6
CONTINUOUS
10
13.6
20
-47.85
11
12.4
21
-47.85
0
LINE
8
BLACK
6
CONTINUOUS
10
21.75
20
-56
11
19.25
21
-56
0
LINE
8
BLACK
6
CONTINUOUS
10
19.25
20
-56
11
19.25
21
-48.5
0
LINE
8
BLACK
6
CONTINUOUS
10
19.25
20
-48.5
11
21.75
21
-48.5
0
LINE
8
BLACK
6
CONTINUOUS
10
21.75
20
-48.5
11
21.75
21
-56
0
ARC
8
BLACK
10
13.6
20
-57.85
40
1.2
50
-90
51
90
0
ARC
8
BLACK
10
13.6
20
-46.65
40
1.2
50
-90
51
90
0
ARC
8
BLACK
10
12.4
20
-46.65
40
1.2
50
-270
51
-90
0
ARC
8
BLACK
10
12.4
20
-57.85
40
1.2
50
-270
51
-90
0
CIRCLE
8
BLACK
10
6
20
-49.75
40
1.25
0
CIRCLE
8
BLACK
10
6
20
-54.75
40
1.25
0
LINE
8
BLACK
6
CONTINUOUS
10
-34.9498
20
-71.9219
11
-32.2935
21
-72.6336
0
LINE
8
BLACK
6
CONTINUOUS
10
-46.7697
20
-71.6017
11
-47.2873
21
-73.5336
0
LINE
8
BLACK
6
CONTINUOUS
10
-45.8001
20
-68.7557
11
-45.5671
21
-67.8864
0
LINE
8
BLACK
6
CONTINUOUS
10
-38.8355
20
-75.7983
11
-34.7303
21
-76.8982
0
LINE
8
BLACK
6
CONTINUOUS
10
-31.5818
20
-69.9773
11
-34.238
21
-69.2656
0
LINE
8
BLACK
6
CONTINUOUS
10
-49.1845
20
-70.9547
11
-46.7697
21
-71.6017
0
LINE
8
BLACK
6
CONTINUOUS
10
-34.2127
20
-74.9664
11
-35.6616
21
-74.5782
0
LINE
8
BLACK
6
CONTINUOUS
10
-35.6616
20
-74.5782
11
-34.9498
21
-71.9219
0
LINE
8
BLACK
6
CONTINUOUS
10
-45.8001
20
-68.7557
11
-48.4081
21
-68.0569
0
LINE
8
BLACK
6
CONTINUOUS
10
-34.1086
20
-68.7826
11
-43.078
21
-66.3793
0
LINE
8
BLACK
6
CONTINUOUS
10
-47.2873
20
-73.5336
11
-43.1822
21
-74.6336
0
LINE
8
BLACK
6
CONTINUOUS
10
-48.4081
20
-68.0569
11
-49.1845
21
-70.9547
0
LINE
8
BLACK
6
CONTINUOUS
10
-32.2935
20
-72.6336
11
-31.5818
21
-69.9773
0
LINE
8
BLACK
6
CONTINUOUS
10
-34.238
20
-69.2656
11
-34.1086
21
-68.7826
0
LINE
8
BLACK
6
CONTINUOUS
10
-34.7303
20
-76.8982
11
-34.2127
21
-74.9664
0
ARC
8
BLACK
10
-40.75
20
-74.25
40
2.46222
50
-171.037
51
-38.9625
0
ARC
8
BLACK
10
-43.5998
20
-68.3266
40
2.01597
50
75.0001
51
167.389
0
LINE
8
BLACK
6
CONTINUOUS
10
24.2476
20
-80.4551
11
25.6226
21
-82.8367
0
LINE
8
BLACK
6
CONTINUOUS
10
18.8141
20
-70.544
11
19.5935
21
-70.094
0
LINE
8
BLACK
6
CONTINUOUS
10
20.884
20
-84.1292
11
22.616
21
-83.1292
0
LINE
8
BLACK
6
CONTINUOUS
10
26.6292
20
-79.0801
11
27.0622
21
-78.8301
0
LINE
8
BLACK
6
CONTINUOUS
10
18.759
20
-80.4486
11
20.884
21
-84.1292
0
LINE
8
BLACK
6
CONTINUOUS
10
27.0622
20
-78.8301
11
22.4193
21
-70.7884
0
LINE
8
BLACK
6
CONTINUOUS
10
21.866
20
-81.8301
11
24.2476
21
-80.4551
0
LINE
8
BLACK
6
CONTINUOUS
10
14.384
20
-72.8708
11
16.509
21
-76.5514
0
LINE
8
BLACK
6
CONTINUOUS
10
22.616
20
-83.1292
11
21.866
21
-81.8301
0
LINE
8
BLACK
6
CONTINUOUS
10
28.0042
20
-81.4617
11
26.6292
21
-79.0801
0
LINE
8
BLACK
6
CONTINUOUS
10
14.866
20
-69.7058
11
16.116
21
-71.8708
0
LINE
8
BLACK
6
CONTINUOUS
10
25.6226
20
-82.8367
11
28.0042
21
-81.4617
0
LINE
8
BLACK
6
CONTINUOUS
10
17.4641
20
-68.2058
11
14.866
21
-69.7058
0
LINE
8
BLACK
6
CONTINUOUS
10
16.116
20
-71.8708
11
14.384
21
-72.8708
0
LINE
8
BLACK
6
CONTINUOUS
10
18.8141
20
-70.544
11
17.4641
21
-68.2058
0
ARC
8
BLACK
10
20.6734
20
-71.7964
40
2.01597
50
30.0001
51
122.389
0
ARC
8
BLACK
10
18.5
20
-78
40
2.46222
50
-216.037
51
-83.9625
0
LINE
8
BLACK
6
CONTINUOUS
10
95
20
-48.25
11
97.75
21
-48.25
0
LINE
8
BLACK
6
CONTINUOUS
10
92.25
20
-53
11
96.5
21
-53
0
LINE
8
BLACK
6
CONTINUOUS
10
95
20
-45
11
85.7142
21
-45
0
LINE
8
BLACK
6
CONTINUOUS
10
96.5
20
-53
11
96.5
21
-51
0
LINE
8
BLACK
6
CONTINUOUS
10
83.7
20
-48
11
81
21
-48
0
LINE
8
BLACK
6
CONTINUOUS
10
81
20
-51
11
83.5
21
-51
0
LINE
8
BLACK
6
CONTINUOUS
10
83.5
20
-53
11
87.75
21
-53
0
LINE
8
BLACK
6
CONTINUOUS
10
83.7
20
-48
11
83.7
21
-47.1
0
LINE
8
BLACK
6
CONTINUOUS
10
96.5
20
-51
11
95
21
-51
0
LINE
8
BLACK
6
CONTINUOUS
10
97.75
20
-45.5
11
95
21
-45.5
0
LINE
8
BLACK
6
CONTINUOUS
10
97.75
20
-48.25
11
97.75
21
-45.5
0
LINE
8
BLACK
6
CONTINUOUS
10
83.5
20
-51
11
83.5
21
-53
0
LINE
8
BLACK
6
CONTINUOUS
10
95
20
-45.5
11
95
21
-45
0
LINE
8
BLACK
6
CONTINUOUS
10
95
20
-51
11
95
21
-48.25
0
LINE
8
BLACK
6
CONTINUOUS
10
81
20
-48
11
81
21
-51
0
ARC
8
BLACK
10
90
20
-52
40
2.46222
50
-156.037
51
-23.9625
0
ARC
8
BLACK
10
85.7142
20
-47.016
40
2.01597
50
-270
51
-177.611
0
LINE
8
BLACK
6
CONTINUOUS
10
-47
20
-7.5
11
-56.2858
21
-7.5
0
LINE
8
BLACK
6
CONTINUOUS
10
-45.5
20
-13.5
11
-47
21
-13.5
0
LINE
8
BLACK
6
CONTINUOUS
10
-47
20
-8
11
-47
21
-7.5
0
LINE
8
BLACK
6
CONTINUOUS
10
-47
20
-10.75
11
-44.25
21
-10.75
0
LINE
8
BLACK
6
CONTINUOUS
10
-58.5
20
-13.5
11
-58.5
21
-15.5
0
LINE
8
BLACK
6
CONTINUOUS
10
-58.3
20
-10.5
11
-61
21
-10.5
0
LINE
8
BLACK
6
CONTINUOUS
10
-44.25
20
-8
11
-47
21
-8
0
LINE
8
BLACK
6
CONTINUOUS
10
-61
20
-13.5
11
-58.5
21
-13.5
0
LINE
8
BLACK
6
CONTINUOUS
10
-45.5
20
-15.5
11
-45.5
21
-13.5
0
LINE
8
BLACK
6
CONTINUOUS
10
-47
20
-13.5
11
-47
21
-10.75
0
LINE
8
BLACK
6
CONTINUOUS
10
-61
20
-10.5
11
-61
21
-13.5
0
LINE
8
BLACK
6
CONTINUOUS
10
-49.75
20
-15.5
11
-45.5
21
-15.5
0
LINE
8
BLACK
6
CONTINUOUS
10
-58.3
20
-10.5
11
-58.3
21
-9.6
0
LINE
8
BLACK
6
CONTINUOUS
10
-58.5
20
-15.5
11
-54.25
21
-15.5
0
LINE
8
BLACK
6
CONTINUOUS
10
-44.25
20
-10.75
11
-44.25
21
-8
0
ARC
8
BLACK
10
-56.2858
20
-9.51597
40
2.01597
50
-270
51
-177.611
0
ARC
8
BLACK
10
-52
20
-14.5
40
2.46222
50
-156.037
51
-23.9625
0
LINE
8
BLACK
6
CONTINUOUS
10
119.683
20
-55.3308
11
119.421
21
-58.3194
0
LINE
8
BLACK
6
CONTINUOUS
10
122.373
20
-55.5661
11
119.683
21
-55.3308
0
LINE
8
BLACK
6
CONTINUOUS
10
133.608
20
-56.8
11
136.347
21
-57.0397
0
LINE
8
BLACK
6
CONTINUOUS
10
134.688
20
-61.6627
11
134.862
21
-59.6703
0
LINE
8
BLACK
6
CONTINUOUS
10
121.912
20
-58.5373
11
121.738
21
-60.5297
0
LINE
8
BLACK
6
CONTINUOUS
10
121.738
20
-60.5297
11
125.971
21
-60.9001
0
LINE
8
BLACK
6
CONTINUOUS
10
136.587
20
-54.3002
11
133.847
21
-54.0605
0
LINE
8
BLACK
6
CONTINUOUS
10
136.347
20
-57.0397
11
136.587
21
-54.3002
0
LINE
8
BLACK
6
CONTINUOUS
10
133.847
20
-54.0605
11
133.891
21
-53.5624
0
LINE
8
BLACK
6
CONTINUOUS
10
134.862
20
-59.6703
11
133.368
21
-59.5396
0
LINE
8
BLACK
6
CONTINUOUS
10
130.454
20
-61.2923
11
134.688
21
-61.6627
0
LINE
8
BLACK
6
CONTINUOUS
10
133.368
20
-59.5396
11
133.608
21
-56.8
0
LINE
8
BLACK
6
CONTINUOUS
10
133.891
20
-53.5624
11
124.641
21
-52.7531
0
LINE
8
BLACK
6
CONTINUOUS
10
119.421
20
-58.3194
11
121.912
21
-58.5373
0
LINE
8
BLACK
6
CONTINUOUS
10
122.373
20
-55.5661
11
122.451
21
-54.6696
0
ARC
8
BLACK
10
128.3
20
-60.1
40
2.46222
50
-161.037
51
-28.9625
0
ARC
8
BLACK
10
124.465
20
-54.7614
40
2.01597
50
85.0001
51
177.389
0
LINE
8
BLACK
6
CONTINUOUS
10
-136.388
20
-42.6627
11
-132.154
21
-42.2923
0
LINE
8
BLACK
6
CONTINUOUS
10
-122.846
20
-33.9493
11
-125.586
21
-34.189
0
LINE
8
BLACK
6
CONTINUOUS
10
-123.612
20
-39.5373
11
-125.106
21
-39.668
0
LINE
8
BLACK
6
CONTINUOUS
10
-139.053
20
-40.8882
11
-136.562
21
-40.6703
0
LINE
8
BLACK
6
CONTINUOUS
10
-122.606
20
-36.6888
11
-122.846
21
-33.9493
0
LINE
8
BLACK
6
CONTINUOUS
10
-125.346
20
-36.9285
11
-122.606
21
-36.6888
0
LINE
8
BLACK
6
CONTINUOUS
10
-125.586
20
-34.189
11
-125.629
21
-33.6909
0
LINE
8
BLACK
6
CONTINUOUS
10
-127.671
20
-41.9001
11
-123.438
21
-41.5297
0
LINE
8
BLACK
6
CONTINUOUS
10
-136.625
20
-37.6643
11
-136.703
21
-36.7677
0
LINE
8
BLACK
6
CONTINUOUS
10
-125.106
20
-39.668
11
-125.346
21
-36.9285
0
LINE
8
BLACK
6
CONTINUOUS
10
-136.562
20
-40.6703
11
-136.388
21
-42.6627
0
LINE
8
BLACK
6
CONTINUOUS
10
-136.625
20
-37.6643
11
-139.314
21
-37.8996
0
LINE
8
BLACK
6
CONTINUOUS
10
-125.629
20
-33.6909
11
-134.88
21
-34.5002
0
LINE
8
BLACK
6
CONTINUOUS
10
-123.438
20
-41.5297
11
-123.612
21
-39.5373
0
LINE
8
BLACK
6
CONTINUOUS
10
-139.314
20
-37.8996
11
-139.053
21
-40.8882
0
ARC
8
BLACK
10
-134.704
20
-36.5085
40
2.01597
50
-265
51
-172.611
0
ARC
8
BLACK
10
-130
20
-41.1
40
2.46222
50
-151.037
51
-18.9625
0
LINE
8
BLACK
6
CONTINUOUS
10
120.487
20
-20.1002
11
117.747
21
-19.8605
0
LINE
8
BLACK
6
CONTINUOUS
10
106.273
20
-21.3661
11
106.351
21
-20.4696
0
LINE
8
BLACK
6
CONTINUOUS
10
105.812
20
-24.3373
11
105.638
21
-26.3297
0
LINE
8
BLACK
6
CONTINUOUS
10
120.247
20
-22.8397
11
120.487
21
-20.1002
0
LINE
8
BLACK
6
CONTINUOUS
10
117.268
20
-25.3396
11
117.508
21
-22.6
0
LINE
8
BLACK
6
CONTINUOUS
10
103.321
20
-24.1194
11
105.812
21
-24.3373
0
LINE
8
BLACK
6
CONTINUOUS
10
114.354
20
-27.0923
11
118.588
21
-27.4627
0
LINE
8
BLACK
6
CONTINUOUS
10
118.588
20
-27.4627
11
118.762
21
-25.4703
0
LINE
8
BLACK
6
CONTINUOUS
10
118.762
20
-25.4703
11
117.268
21
-25.3396
0
LINE
8
BLACK
6
CONTINUOUS
10
103.583
20
-21.1308
11
103.321
21
-24.1194
0
LINE
8
BLACK
6
CONTINUOUS
10
106.273
20
-21.3661
11
103.583
21
-21.1308
0
LINE
8
BLACK
6
CONTINUOUS
10
117.791
20
-19.3624
11
108.541
21
-18.5531
0
LINE
8
BLACK
6
CONTINUOUS
10
117.508
20
-22.6
11
120.247
21
-22.8397
0
LINE
8
BLACK
6
CONTINUOUS
10
105.638
20
-26.3297
11
109.871
21
-26.7001
0
LINE
8
BLACK
6
CONTINUOUS
10
117.747
20
-19.8605
11
117.791
21
-19.3624
0
ARC
8
BLACK
10
108.365
20
-20.5614
40
2.01597
50
85.0001
51
177.389
0
ARC
8
BLACK
10
112.2
20
-25.9
40
2.46222
50
-161.037
51
-28.9625
0
LINE
8
BLACK
6
CONTINUOUS
10
-25.1141
20
-81.456
11
-25.8935
21
-81.006
0
LINE
8
BLACK
6
CONTINUOUS
10
-22.0622
20
-70.1699
11
-26.7051
21
-78.2116
0
LINE
8
BLACK
6
CONTINUOUS
10
-23.866
20
-85.2942
11
-22.616
21
-83.1292
0
LINE
8
BLACK
6
CONTINUOUS
10
-16.116
20
-71.8708
11
-16.866
21
-73.1699
0
LINE
8
BLACK
6
CONTINUOUS
10
-19.2476
20
-71.7949
11
-17.8726
21
-69.4133
0
LINE
8
BLACK
6
CONTINUOUS
10
-26.4641
20
-83.7942
11
-23.866
21
-85.2942
0
LINE
8
BLACK
6
CONTINUOUS
10
-25.1141
20
-81.456
11
-26.4641
21
-83.7942
0
LINE
8
BLACK
6
CONTINUOUS
10
-21.6292
20
-70.4199
11
-22.0622
21
-70.1699
0
LINE
8
BLACK
6
CONTINUOUS
10
-20.884
20
-84.1292
11
-18.759
21
-80.4486
0
LINE
8
BLACK
6
CONTINUOUS
10
-14.384
20
-72.8708
11
-16.116
21
-71.8708
0
LINE
8
BLACK
6
CONTINUOUS
10
-17.8726
20
-69.4133
11
-20.2542
21
-68.0383
0
LINE
8
BLACK
6
CONTINUOUS
10
-16.866
20
-73.1699
11
-19.2476
21
-71.7949
0
LINE
8
BLACK
6
CONTINUOUS
10
-16.509
20
-76.5514
11
-14.384
21
-72.8708
0
LINE
8
BLACK
6
CONTINUOUS
10
-20.2542
20
-68.0383
11
-21.6292
21
-70.4199
0
LINE
8
BLACK
6
CONTINUOUS
10
-22.616
20
-83.1292
11
-20.884
21
-84.1292
0
ARC
8
BLACK
10
-24.9592
20
-79.2196
40
2.01597
50
-210
51
-117.611
0
ARC
8
BLACK
10
-18.5
20
-78
40
2.46221
50
-96.0375
51
36.0375
0
LINE
8
BLACK
6
CONTINUOUS
10
5.05
20
-41.25
11
11.05
21
-41.25
0
LINE
8
BLACK
6
CONTINUOUS
10
11.05
20
-41.25
11
11.05
21
-39.05
0
LINE
8
BLACK
6
CONTINUOUS
10
11.05
20
-39.05
11
5.05
21
-39.05
0
LINE
8
BLACK
6
CONTINUOUS
10
5.05
20
-39.05
11
5.05
21
-41.25
0
LINE
8
BLACK
6
CONTINUOUS
10
13.45
20
-45.45
11
16.65
21
-45.45
0
LINE
8
BLACK
6
CONTINUOUS
10
16.65
20
-45.45
11
16.65
21
-43.25
0
LINE
8
BLACK
6
CONTINUOUS
10
16.65
20
-43.25
11
13.45
21
-43.25
0
LINE
8
BLACK
6
CONTINUOUS
10
13.45
20
-43.25
11
13.45
21
-45.45
0
LINE
8
BLACK
6
CONTINUOUS
10
12.05
20
-41.25
11
15.05
21
-41.25
0
LINE
8
BLACK
6
CONTINUOUS
10
15.05
20
-41.25
11
15.05
21
-39.05
0
LINE
8
BLACK
6
CONTINUOUS
10
15.05
20
-39.05
11
12.05
21
-39.05
0
LINE
8
BLACK
6
CONTINUOUS
10
12.05
20
-39.05
11
12.05
21
-41.25
0
CIRCLE
8
BLACK
10
-41.5
20
-26
40
1.1
0
LINE
8
BLACK
6
CONTINUOUS
10
64.5
20
-11
11
68.75
21
-11
0
LINE
8
BLACK
6
CONTINUOUS
10
62
20
-9
11
64.5
21
-9
0
LINE
8
BLACK
6
CONTINUOUS
10
78.75
20
-3.5
11
76
21
-3.5
0
LINE
8
BLACK
6
CONTINUOUS
10
73.25
20
-11
11
77.5
21
-11
0
LINE
8
BLACK
6
CONTINUOUS
10
77.5
20
-11
11
77.5
21
-9
0
LINE
8
BLACK
6
CONTINUOUS
10
64.7
20
-6
11
64.7
21
-5.1
0
LINE
8
BLACK
6
CONTINUOUS
10
76
20
-3.5
11
76
21
-3
0
LINE
8
BLACK
6
CONTINUOUS
10
76
20
-3
11
66.7142
21
-3
0
LINE
8
BLACK
6
CONTINUOUS
10
64.7
20
-6
11
62
21
-6
0
LINE
8
BLACK
6
CONTINUOUS
10
64.5
20
-9
11
64.5
21
-11
0
LINE
8
BLACK
6
CONTINUOUS
10
62
20
-6
11
62
21
-9
0
LINE
8
BLACK
6
CONTINUOUS
10
76
20
-9
11
76
21
-6.25
0
LINE
8
BLACK
6
CONTINUOUS
10
78.75
20
-6.25
11
78.75
21
-3.5
0
LINE
8
BLACK
6
CONTINUOUS
10
77.5
20
-9
11
76
21
-9
0
LINE
8
BLACK
6
CONTINUOUS
10
76
20
-6.25
11
78.75
21
-6.25
0
ARC
8
BLACK
10
71
20
-10
40
2.46222
50
-156.037
51
-23.9625
0
ARC
8
BLACK
10
66.7142
20
-5.01597
40
2.01597
50
-270
51
-177.611
0
LINE
8
BLACK
6
CONTINUOUS
10
-118.825
20
-22.4643
11
-121.514
21
-22.6996
0
LINE
8
BLACK
6
CONTINUOUS
10
-121.514
20
-22.6996
11
-121.253
21
-25.6882
0
LINE
8
BLACK
6
CONTINUOUS
10
-105.812
20
-24.3373
11
-107.306
21
-24.468
0
LINE
8
BLACK
6
CONTINUOUS
10
-104.806
20
-21.4888
11
-105.046
21
-18.7493
0
LINE
8
BLACK
6
CONTINUOUS
10
-105.046
20
-18.7493
11
-107.786
21
-18.989
0
LINE
8
BLACK
6
CONTINUOUS
10
-107.829
20
-18.4909
11
-117.08
21
-19.3002
0
LINE
8
BLACK
6
CONTINUOUS
10
-109.871
20
-26.7001
11
-105.638
21
-26.3297
0
LINE
8
BLACK
6
CONTINUOUS
10
-107.306
20
-24.468
11
-107.546
21
-21.7285
0
LINE
8
BLACK
6
CONTINUOUS
10
-118.762
20
-25.4703
11
-118.588
21
-27.4627
0
LINE
8
BLACK
6
CONTINUOUS
10
-118.588
20
-27.4627
11
-114.354
21
-27.0923
0
LINE
8
BLACK
6
CONTINUOUS
10
-107.546
20
-21.7285
11
-104.806
21
-21.4888
0
LINE
8
BLACK
6
CONTINUOUS
10
-121.253
20
-25.6882
11
-118.762
21
-25.4703
0
LINE
8
BLACK
6
CONTINUOUS
10
-118.825
20
-22.4643
11
-118.903
21
-21.5677
0
LINE
8
BLACK
6
CONTINUOUS
10
-107.786
20
-18.989
11
-107.829
21
-18.4909
0
LINE
8
BLACK
6
CONTINUOUS
10
-105.638
20
-26.3297
11
-105.812
21
-24.3373
0
ARC
8
BLACK
10
-116.904
20
-21.3085
40
2.01597
50
-265
51
-172.611
0
ARC
8
BLACK
10
-112.2
20
-25.9
40
2.46222
50
-151.037
51
-18.9625
0
LINE
8
BLACK
6
CONTINUOUS
10
43
20
-10.5
11
43
21
-13.5
0
LINE
8
BLACK
6
CONTINUOUS
10
43
20
-13.5
11
45.5
21
-13.5
0
LINE
8
BLACK
6
CONTINUOUS
10
45.7
20
-10.5
11
45.7
21
-9.6
0
LINE
8
BLACK
6
CONTINUOUS
10
59.75
20
-10.75
11
59.75
21
-8
0
LINE
8
BLACK
6
CONTINUOUS
10
57
20
-10.75
11
59.75
21
-10.75
0
LINE
8
BLACK
6
CONTINUOUS
10
54.25
20
-15.5
11
58.5
21
-15.5
0
LINE
8
BLACK
6
CONTINUOUS
10
45.5
20
-15.5
11
49.75
21
-15.5
0
LINE
8
BLACK
6
CONTINUOUS
10
45.7
20
-10.5
11
43
21
-10.5
0
LINE
8
BLACK
6
CONTINUOUS
10
58.5
20
-13.5
11
57
21
-13.5
0
LINE
8
BLACK
6
CONTINUOUS
10
58.5
20
-15.5
11
58.5
21
-13.5
0
LINE
8
BLACK
6
CONTINUOUS
10
57
20
-13.5
11
57
21
-10.75
0
LINE
8
BLACK
6
CONTINUOUS
10
59.75
20
-8
11
57
21
-8
0
LINE
8
BLACK
6
CONTINUOUS
10
57
20
-8
11
57
21
-7.5
0
LINE
8
BLACK
6
CONTINUOUS
10
57
20
-7.5
11
47.7142
21
-7.5
0
LINE
8
BLACK
6
CONTINUOUS
10
45.5
20
-13.5
11
45.5
21
-15.5
0
ARC
8
BLACK
10
47.7142
20
-9.51597
40
2.01597
50
-270
51
-177.611
0
ARC
8
BLACK
10
52
20
-14.5
40
2.46222
50
-156.037
51
-23.9625
0
LINE
8
BLACK
6
CONTINUOUS
10
102.512
20
-62.2373
11
102.338
21
-64.2297
0
LINE
8
BLACK
6
CONTINUOUS
10
100.283
20
-59.0308
11
100.021
21
-62.0194
0
LINE
8
BLACK
6
CONTINUOUS
10
115.288
20
-65.3627
11
115.462
21
-63.3703
0
LINE
8
BLACK
6
CONTINUOUS
10
102.973
20
-59.2661
11
103.051
21
-58.3696
0
LINE
8
BLACK
6
CONTINUOUS
10
111.054
20
-64.9923
11
115.288
21
-65.3627
0
LINE
8
BLACK
6
CONTINUOUS
10
113.968
20
-63.2396
11
114.208
21
-60.5
0
LINE
8
BLACK
6
CONTINUOUS
10
114.491
20
-57.2624
11
105.241
21
-56.4531
0
LINE
8
BLACK
6
CONTINUOUS
10
100.021
20
-62.0194
11
102.512
21
-62.2373
0
LINE
8
BLACK
6
CONTINUOUS
10
117.187
20
-58.0002
11
114.447
21
-57.7605
0
LINE
8
BLACK
6
CONTINUOUS
10
114.208
20
-60.5
11
116.947
21
-60.7397
0
LINE
8
BLACK
6
CONTINUOUS
10
114.447
20
-57.7605
11
114.491
21
-57.2624
0
LINE
8
BLACK
6
CONTINUOUS
10
102.338
20
-64.2297
11
106.571
21
-64.6001
0
LINE
8
BLACK
6
CONTINUOUS
10
102.973
20
-59.2661
11
100.283
21
-59.0308
0
LINE
8
BLACK
6
CONTINUOUS
10
116.947
20
-60.7397
11
117.187
21
-58.0002
0
LINE
8
BLACK
6
CONTINUOUS
10
115.462
20
-63.3703
11
113.968
21
-63.2396
0
ARC
8
BLACK
10
108.9
20
-63.8
40
2.46222
50
-161.037
51
-28.9625
0
ARC
8
BLACK
10
105.065
20
-58.4614
40
2.01597
50
85.0001
51
177.389
0
LINE
8
BLACK
6
CONTINUOUS
10
-64.5
20
-11
11
-64.5
21
-9
0
LINE
8
BLACK
6
CONTINUOUS
10
-80
20
-9
11
-77.5
21
-9
0
LINE
8
BLACK
6
CONTINUOUS
10
-77.3
20
-6
11
-77.3
21
-5.1
0
LINE
8
BLACK
6
CONTINUOUS
10
-68.75
20
-11
11
-64.5
21
-11
0
LINE
8
BLACK
6
CONTINUOUS
10
-63.25
20
-6.25
11
-63.25
21
-3.5
0
LINE
8
BLACK
6
CONTINUOUS
10
-66
20
-9
11
-66
21
-6.25
0
LINE
8
BLACK
6
CONTINUOUS
10
-66
20
-3
11
-75.2858
21
-3
0
LINE
8
BLACK
6
CONTINUOUS
10
-77.3
20
-6
11
-80
21
-6
0
LINE
8
BLACK
6
CONTINUOUS
10
-66
20
-6.25
11
-63.25
21
-6.25
0
LINE
8
BLACK
6
CONTINUOUS
10
-63.25
20
-3.5
11
-66
21
-3.5
0
LINE
8
BLACK
6
CONTINUOUS
10
-77.5
20
-11
11
-73.25
21
-11
0
LINE
8
BLACK
6
CONTINUOUS
10
-64.5
20
-9
11
-66
21
-9
0
LINE
8
BLACK
6
CONTINUOUS
10
-77.5
20
-9
11
-77.5
21
-11
0
LINE
8
BLACK
6
CONTINUOUS
10
-80
20
-6
11
-80
21
-9
0
LINE
8
BLACK
6
CONTINUOUS
10
-66
20
-3.5
11
-66
21
-3
0
ARC
8
BLACK
10
-71
20
-10
40
2.46222
50
-156.037
51
-23.9625
0
ARC
8
BLACK
10
-75.2858
20
-5.01597
40
2.01597
50
-270
51
-177.611
0
LINE
8
BLACK
6
CONTINUOUS
10
-77.5
20
-28
11
-77.5
21
-30
0
LINE
8
BLACK
6
CONTINUOUS
10
-63.25
20
-25.25
11
-63.25
21
-22.5
0
LINE
8
BLACK
6
CONTINUOUS
10
-77.3
20
-25
11
-80
21
-25
0
LINE
8
BLACK
6
CONTINUOUS
10
-66
20
-25.25
11
-63.25
21
-25.25
0
LINE
8
BLACK
6
CONTINUOUS
10
-66
20
-22.5
11
-66
21
-22
0
LINE
8
BLACK
6
CONTINUOUS
10
-66
20
-28
11
-66
21
-25.25
0
LINE
8
BLACK
6
CONTINUOUS
10
-80
20
-28
11
-77.5
21
-28
0
LINE
8
BLACK
6
CONTINUOUS
10
-63.25
20
-22.5
11
-66
21
-22.5
0
LINE
8
BLACK
6
CONTINUOUS
10
-80
20
-25
11
-80
21
-28
0
LINE
8
BLACK
6
CONTINUOUS
10
-66
20
-22
11
-75.2858
21
-22
0
LINE
8
BLACK
6
CONTINUOUS
10
-64.5
20
-28
11
-66
21
-28
0
LINE
8
BLACK
6
CONTINUOUS
10
-68.75
20
-30
11
-64.5
21
-30
0
LINE
8
BLACK
6
CONTINUOUS
10
-77.3
20
-25
11
-77.3
21
-24.1
0
LINE
8
BLACK
6
CONTINUOUS
10
-64.5
20
-30
11
-64.5
21
-28
0
LINE
8
BLACK
6
CONTINUOUS
10
-77.5
20
-30
11
-73.25
21
-30
0
ARC
8
BLACK
10
-71
20
-29
40
2.46222
50
-156.037
51
-23.9625
0
ARC
8
BLACK
10
-75.2858
20
-24.016
40
2.01597
50
-270
51
-177.611
0
LINE
8
BLACK
6
CONTINUOUS
10
54.25
20
-34.5
11
58.5
21
-34.5
0
LINE
8
BLACK
6
CONTINUOUS
10
45.7
20
-29.5
11
43
21
-29.5
0
LINE
8
BLACK
6
CONTINUOUS
10
57
20
-26.5
11
47.7142
21
-26.5
0
LINE
8
BLACK
6
CONTINUOUS
10
58.5
20
-32.5
11
57
21
-32.5
0
LINE
8
BLACK
6
CONTINUOUS
10
45.7
20
-29.5
11
45.7
21
-28.6
0
LINE
8
BLACK
6
CONTINUOUS
10
43
20
-29.5
11
43
21
-32.5
0
LINE
8
BLACK
6
CONTINUOUS
10
57
20
-32.5
11
57
21
-29.75
0
LINE
8
BLACK
6
CONTINUOUS
10
43
20
-32.5
11
45.5
21
-32.5
0
LINE
8
BLACK
6
CONTINUOUS
10
45.5
20
-32.5
11
45.5
21
-34.5
0
LINE
8
BLACK
6
CONTINUOUS
10
57
20
-27
11
57
21
-26.5
0
LINE
8
BLACK
6
CONTINUOUS
10
45.5
20
-34.5
11
49.75
21
-34.5
0
LINE
8
BLACK
6
CONTINUOUS
10
59.75
20
-27
11
57
21
-27
0
LINE
8
BLACK
6
CONTINUOUS
10
58.5
20
-34.5
11
58.5
21
-32.5
0
LINE
8
BLACK
6
CONTINUOUS
10
59.75
20
-29.75
11
59.75
21
-27
0
LINE
8
BLACK
6
CONTINUOUS
10
57
20
-29.75
11
59.75
21
-29.75
0
ARC
8
BLACK
10
52
20
-33.5
40
2.46222
50
-156.037
51
-23.9625
0
ARC
8
BLACK
10
47.7142
20
-28.516
40
2.01597
50
-270
51
-177.611
0
CIRCLE
8
BLACK
10
-100.7
20
-23.5
40
1.1
0
CIRCLE
8
BLACK
10
-10.25
20
-33
40
1.1
0
LINE
8
BLACK
6
CONTINUOUS
10
-99
20
-29
11
-99
21
-32
0
LINE
8
BLACK
6
CONTINUOUS
10
-83.5
20
-32
11
-85
21
-32
0
LINE
8
BLACK
6
CONTINUOUS
10
-85
20
-32
11
-85
21
-29.25
0
LINE
8
BLACK
6
CONTINUOUS
10
-83.5
20
-34
11
-83.5
21
-32
0
LINE
8
BLACK
6
CONTINUOUS
10
-96.3
20
-29
11
-96.3
21
-28.1
0
LINE
8
BLACK
6
CONTINUOUS
10
-85
20
-29.25
11
-82.25
21
-29.25
0
LINE
8
BLACK
6
CONTINUOUS
10
-96.3
20
-29
11
-99
21
-29
0
LINE
8
BLACK
6
CONTINUOUS
10
-87.75
20
-34
11
-83.5
21
-34
0
LINE
8
BLACK
6
CONTINUOUS
10
-99
20
-32
11
-96.5
21
-32
0
LINE
8
BLACK
6
CONTINUOUS
10
-85
20
-26.5
11
-85
21
-26
0
LINE
8
BLACK
6
CONTINUOUS
10
-82.25
20
-26.5
11
-85
21
-26.5
0
LINE
8
BLACK
6
CONTINUOUS
10
-96.5
20
-34
11
-92.25
21
-34
0
LINE
8
BLACK
6
CONTINUOUS
10
-82.25
20
-29.25
11
-82.25
21
-26.5
0
LINE
8
BLACK
6
CONTINUOUS
10
-96.5
20
-32
11
-96.5
21
-34
0
LINE
8
BLACK
6
CONTINUOUS
10
-85
20
-26
11
-94.2858
21
-26
0
ARC
8
BLACK
10
-90
20
-33
40
2.46222
50
-156.037
51
-23.9625
0
ARC
8
BLACK
10
-94.2858
20
-28.016
40
2.01597
50
-270
51
-177.611
0
LINE
8
BLACK
6
CONTINUOUS
10
-123.886
20
-53.189
11
-123.929
21
-52.6909
0
LINE
8
BLACK
6
CONTINUOUS
10
-121.912
20
-58.5373
11
-123.406
21
-58.668
0
LINE
8
BLACK
6
CONTINUOUS
10
-134.925
20
-56.6643
11
-135.003
21
-55.7677
0
LINE
8
BLACK
6
CONTINUOUS
10
-137.353
20
-59.8882
11
-134.862
21
-59.6703
0
LINE
8
BLACK
6
CONTINUOUS
10
-125.971
20
-60.9001
11
-121.738
21
-60.5297
0
LINE
8
BLACK
6
CONTINUOUS
10
-123.929
20
-52.6909
11
-133.18
21
-53.5002
0
LINE
8
BLACK
6
CONTINUOUS
10
-121.146
20
-52.9493
11
-123.886
21
-53.189
0
LINE
8
BLACK
6
CONTINUOUS
10
-134.862
20
-59.6703
11
-134.688
21
-61.6627
0
LINE
8
BLACK
6
CONTINUOUS
10
-137.614
20
-56.8996
11
-137.353
21
-59.8882
0
LINE
8
BLACK
6
CONTINUOUS
10
-123.406
20
-58.668
11
-123.646
21
-55.9285
0
LINE
8
BLACK
6
CONTINUOUS
10
-134.688
20
-61.6627
11
-130.454
21
-61.2923
0
LINE
8
BLACK
6
CONTINUOUS
10
-121.738
20
-60.5297
11
-121.912
21
-58.5373
0
LINE
8
BLACK
6
CONTINUOUS
10
-120.906
20
-55.6888
11
-121.146
21
-52.9493
0
LINE
8
BLACK
6
CONTINUOUS
10
-123.646
20
-55.9285
11
-120.906
21
-55.6888
0
LINE
8
BLACK
6
CONTINUOUS
10
-134.925
20
-56.6643
11
-137.614
21
-56.8996
0
ARC
8
BLACK
10
-133.004
20
-55.5085
40
2.01597
50
-265
51
-172.611
0
ARC
8
BLACK
10
-128.3
20
-60.1
40
2.46222
50
-151.037
51
-18.9625
0
LINE
8
BLACK
6
CONTINUOUS
10
-13.55
20
-39.05
11
-16.75
21
-39.05
0
LINE
8
BLACK
6
CONTINUOUS
10
-16.75
20
-39.05
11
-16.75
21
-41.25
0
LINE
8
BLACK
6
CONTINUOUS
10
-16.75
20
-41.25
11
-13.55
21
-41.25
0
LINE
8
BLACK
6
CONTINUOUS
10
-13.55
20
-41.25
11
-13.55
21
-39.05
0
LINE
8
BLACK
6
CONTINUOUS
10
-12.15
20
-43.25
11
-15.15
21
-43.25
0
LINE
8
BLACK
6
CONTINUOUS
10
-15.15
20
-43.25
11
-15.15
21
-45.45
0
LINE
8
BLACK
6
CONTINUOUS
10
-15.15
20
-45.45
11
-12.15
21
-45.45
0
LINE
8
BLACK
6
CONTINUOUS
10
-12.15
20
-45.45
11
-12.15
21
-43.25
0
LINE
8
BLACK
6
CONTINUOUS
10
-5.15
20
-43.25
11
-11.15
21
-43.25
0
LINE
8
BLACK
6
CONTINUOUS
10
-11.15
20
-43.25
11
-11.15
21
-45.45
0
LINE
8
BLACK
6
CONTINUOUS
10
-11.15
20
-45.45
11
-5.15
21
-45.45
0
LINE
8
BLACK
6
CONTINUOUS
10
-5.15
20
-45.45
11
-5.15
21
-43.25
0
LINE
8
BLACK
6
CONTINUOUS
10
-68.3
20
-67.5
11
-68.3
21
-66.6
0
LINE
8
BLACK
6
CONTINUOUS
10
-54.25
20
-65
11
-57
21
-65
0
LINE
8
BLACK
6
CONTINUOUS
10
-68.3
20
-67.5
11
-71
21
-67.5
0
LINE
8
BLACK
6
CONTINUOUS
10
-71
20
-67.5
11
-71
21
-70.5
0
LINE
8
BLACK
6
CONTINUOUS
10
-55.5
20
-70.5
11
-57
21
-70.5
0
LINE
8
BLACK
6
CONTINUOUS
10
-54.25
20
-67.75
11
-54.25
21
-65
0
LINE
8
BLACK
6
CONTINUOUS
10
-68.5
20
-72.5
11
-64.25
21
-72.5
0
LINE
8
BLACK
6
CONTINUOUS
10
-57
20
-67.75
11
-54.25
21
-67.75
0
LINE
8
BLACK
6
CONTINUOUS
10
-57
20
-65
11
-57
21
-64.5
0
LINE
8
BLACK
6
CONTINUOUS
10
-68.5
20
-70.5
11
-68.5
21
-72.5
0
LINE
8
BLACK
6
CONTINUOUS
10
-57
20
-70.5
11
-57
21
-67.75
0
LINE
8
BLACK
6
CONTINUOUS
10
-57
20
-64.5
11
-66.2858
21
-64.5
0
LINE
8
BLACK
6
CONTINUOUS
10
-59.75
20
-72.5
11
-55.5
21
-72.5
0
LINE
8
BLACK
6
CONTINUOUS
10
-71
20
-70.5
11
-68.5
21
-70.5
0
LINE
8
BLACK
6
CONTINUOUS
10
-55.5
20
-72.5
11
-55.5
21
-70.5
0
ARC
8
BLACK
10
-62
20
-71.5
40
2.46222
50
-156.037
51
-23.9625
0
ARC
8
BLACK
10
-66.2858
20
-66.516
40
2.01597
50
-270
51
-177.611
0
LINE
8
BLACK
6
CONTINUOUS
10
-23.2
20
-44.25
11
-21.2
21
-44.25
0
LINE
8
BLACK
6
CONTINUOUS
10
-21.2
20
-44.25
11
-21.2
21
-40.25
0
LINE
8
BLACK
6
CONTINUOUS
10
-21.2
20
-40.25
11
-23.2
21
-40.25
0
LINE
8
BLACK
6
CONTINUOUS
10
-23.2
20
-40.25
11
-23.2
21
-44.25
0
LINE
8
BLACK
6
CONTINUOUS
10
-58.5
20
-32.5
11
-58.5
21
-34.5
0
LINE
8
BLACK
6
CONTINUOUS
10
-58.3
20
-29.5
11
-58.3
21
-28.6
0
LINE
8
BLACK
6
CONTINUOUS
10
-44.25
20
-27
11
-47
21
-27
0
LINE
8
BLACK
6
CONTINUOUS
10
-49.75
20
-34.5
11
-45.5
21
-34.5
0
LINE
8
BLACK
6
CONTINUOUS
10
-47
20
-32.5
11
-47
21
-29.75
0
LINE
8
BLACK
6
CONTINUOUS
10
-58.3
20
-29.5
11
-61
21
-29.5
0
LINE
8
BLACK
6
CONTINUOUS
10
-47
20
-27
11
-47
21
-26.5
0
LINE
8
BLACK
6
CONTINUOUS
10
-61
20
-32.5
11
-58.5
21
-32.5
0
LINE
8
BLACK
6
CONTINUOUS
10
-45.5
20
-34.5
11
-45.5
21
-32.5
0
LINE
8
BLACK
6
CONTINUOUS
10
-47
20
-29.75
11
-44.25
21
-29.75
0
LINE
8
BLACK
6
CONTINUOUS
10
-44.25
20
-29.75
11
-44.25
21
-27
0
LINE
8
BLACK
6
CONTINUOUS
10
-58.5
20
-34.5
11
-54.25
21
-34.5
0
LINE
8
BLACK
6
CONTINUOUS
10
-45.5
20
-32.5
11
-47
21
-32.5
0
LINE
8
BLACK
6
CONTINUOUS
10
-61
20
-29.5
11
-61
21
-32.5
0
LINE
8
BLACK
6
CONTINUOUS
10
-47
20
-26.5
11
-56.2858
21
-26.5
0
ARC
8
BLACK
10
-56.2858
20
-28.516
40
2.01597
50
-270
51
-177.611
0
ARC
8
BLACK
10
-52
20
-33.5
40
2.46222
50
-156.037
51
-23.9625
0
LINE
8
BLACK
6
CONTINUOUS
10
-119.603
20
-44.6382
11
-117.112
21
-44.4203
0
LINE
8
BLACK
6
CONTINUOUS
10
-119.864
20
-41.6496
11
-119.603
21
-44.6382
0
LINE
8
BLACK
6
CONTINUOUS
10
-117.175
20
-41.4143
11
-117.253
21
-40.5177
0
LINE
8
BLACK
6
CONTINUOUS
10
-108.221
20
-45.6501
11
-103.988
21
-45.2797
0
LINE
8
BLACK
6
CONTINUOUS
10
-103.396
20
-37.6993
11
-106.136
21
-37.939
0
LINE
8
BLACK
6
CONTINUOUS
10
-105.656
20
-43.418
11
-105.896
21
-40.6785
0
LINE
8
BLACK
6
CONTINUOUS
10
-105.896
20
-40.6785
11
-103.156
21
-40.4388
0
LINE
8
BLACK
6
CONTINUOUS
10
-103.988
20
-45.2797
11
-104.162
21
-43.2873
0
LINE
8
BLACK
6
CONTINUOUS
10
-104.162
20
-43.2873
11
-105.656
21
-43.418
0
LINE
8
BLACK
6
CONTINUOUS
10
-106.136
20
-37.939
11
-106.179
21
-37.4409
0
LINE
8
BLACK
6
CONTINUOUS
10
-117.112
20
-44.4203
11
-116.938
21
-46.4127
0
LINE
8
BLACK
6
CONTINUOUS
10
-103.156
20
-40.4388
11
-103.396
21
-37.6993
0
LINE
8
BLACK
6
CONTINUOUS
10
-106.179
20
-37.4409
11
-115.43
21
-38.2502
0
LINE
8
BLACK
6
CONTINUOUS
10
-116.938
20
-46.4127
11
-112.704
21
-46.0423
0
LINE
8
BLACK
6
CONTINUOUS
10
-117.175
20
-41.4143
11
-119.864
21
-41.6496
0
ARC
8
BLACK
10
-115.254
20
-40.2585
40
2.01597
50
-265
51
-172.611
0
ARC
8
BLACK
10
-110.55
20
-44.85
40
2.46222
50
-151.037
51
-18.9625
0
CIRCLE
8
BLACK
10
-79.5
20
-58
40
1.1
0
LINE
8
BLACK
6
CONTINUOUS
10
-18
20
-45
11
-20
21
-45
0
LINE
8
BLACK
6
CONTINUOUS
10
-20
20
-45
11
-20
21
-42
0
LINE
8
BLACK
6
CONTINUOUS
10
-20
20
-42
11
-18
21
-42
0
LINE
8
BLACK
6
CONTINUOUS
10
-18
20
-42
11
-18
21
-45
0
LINE
8
BLACK
6
CONTINUOUS
10
-49
20
-59.5483
11
-55
21
-59.5483
0
LINE
8
BLACK
6
CONTINUOUS
10
-55
20
-59.5483
11
-55
21
-61.5483
0
LINE
8
BLACK
6
CONTINUOUS
10
-55
20
-61.5483
11
-49
21
-61.5483
0
LINE
8
BLACK
6
CONTINUOUS
10
-49
20
-61.5483
11
-49
21
-59.5483
0
LINE
8
BLACK
6
CONTINUOUS
10
-87
20
-40
11
-93
21
-40
0
LINE
8
BLACK
6
CONTINUOUS
10
-93
20
-40
11
-93
21
-42
0
LINE
8
BLACK
6
CONTINUOUS
10
-93
20
-42
11
-87
21
-42
0
LINE
8
BLACK
6
CONTINUOUS
10
-87
20
-42
11
-87
21
-40
0
LINE
8
BLACK
6
CONTINUOUS
10
55
20
-21.5
11
49
21
-21.5
0
LINE
8
BLACK
6
CONTINUOUS
10
49
20
-21.5
11
49
21
-23.5
0
LINE
8
BLACK
6
CONTINUOUS
10
49
20
-23.5
11
55
21
-23.5
0
LINE
8
BLACK
6
CONTINUOUS
10
55
20
-23.5
11
55
21
-21.5
0
LINE
8
BLACK
6
CONTINUOUS
10
132.203
20
-50.6467
11
126.226
21
-50.1237
0
LINE
8
BLACK
6
CONTINUOUS
10
126.226
20
-50.1237
11
126.052
21
-52.1161
0
LINE
8
BLACK
6
CONTINUOUS
10
126.052
20
-52.1161
11
132.029
21
-52.6391
0
LINE
8
BLACK
6
CONTINUOUS
10
132.029
20
-52.6391
11
132.203
21
-50.6467
0
LINE
8
BLACK
6
CONTINUOUS
10
36
20
-23.5
11
30
21
-23.5
0
LINE
8
BLACK
6
CONTINUOUS
10
30
20
-23.5
11
30
21
-25.5
0
LINE
8
BLACK
6
CONTINUOUS
10
30
20
-25.5
11
36
21
-25.5
0
LINE
8
BLACK
6
CONTINUOUS
10
36
20
-25.5
11
36
21
-23.5
0
LINE
8
BLACK
6
CONTINUOUS
10
74
20
-17
11
68
21
-17
0
LINE
8
BLACK
6
CONTINUOUS
10
68
20
-17
11
68
21
-19
0
LINE
8
BLACK
6
CONTINUOUS
10
68
20
-19
11
74
21
-19
0
LINE
8
BLACK
6
CONTINUOUS
10
74
20
-19
11
74
21
-17
0
CIRCLE
8
BLACK
10
28
20
-72
40
1.1
0
CIRCLE
8
BLACK
10
120.25
20
-49.75
40
1.1
0
LINE
8
BLACK
6
CONTINUOUS
10
-19.8
20
-61.8
11
-17.8
21
-61.8
0
LINE
8
BLACK
6
CONTINUOUS
10
-17.8
20
-61.8
11
-17.8
21
-67.8
0
LINE
8
BLACK
6
CONTINUOUS
10
-17.8
20
-67.8
11
-19.8
21
-67.8
0
LINE
8
BLACK
6
CONTINUOUS
10
-19.8
20
-67.8
11
-19.8
21
-61.8
0
LINE
8
BLACK
6
CONTINUOUS
10
74
20
-36
11
68
21
-36
0
LINE
8
BLACK
6
CONTINUOUS
10
68
20
-36
11
68
21
-38
0
LINE
8
BLACK
6
CONTINUOUS
10
68
20
-38
11
74
21
-38
0
LINE
8
BLACK
6
CONTINUOUS
10
74
20
-38
11
74
21
-36
0
LINE
8
BLACK
6
CONTINUOUS
10
46
20
-63
11
40
21
-63
0
LINE
8
BLACK
6
CONTINUOUS
10
40
20
-63
11
40
21
-65
0
LINE
8
BLACK
6
CONTINUOUS
10
40
20
-65
11
46
21
-65
0
LINE
8
BLACK
6
CONTINUOUS
10
46
20
-65
11
46
21
-63
0
LINE
8
BLACK
6
CONTINUOUS
10
-107.045
20
-51.5396
11
-113.023
21
-52.0625
0
LINE
8
BLACK
6
CONTINUOUS
10
-113.023
20
-52.0625
11
-112.848
21
-54.0549
0
LINE
8
BLACK
6
CONTINUOUS
10
-112.848
20
-54.0549
11
-106.871
21
-53.532
0
LINE
8
BLACK
6
CONTINUOUS
10
-106.871
20
-53.532
11
-107.045
21
-51.5396
0
LINE
8
BLACK
6
CONTINUOUS
10
55
20
-59.5
11
49
21
-59.5
0
LINE
8
BLACK
6
CONTINUOUS
10
49
20
-59.5
11
49
21
-61.5
0
LINE
8
BLACK
6
CONTINUOUS
10
49
20
-61.5
11
55
21
-61.5
0
LINE
8
BLACK
6
CONTINUOUS
10
55
20
-61.5
11
55
21
-59.5
0
LINE
8
BLACK
6
CONTINUOUS
10
55
20
-40.5
11
49
21
-40.5
0
LINE
8
BLACK
6
CONTINUOUS
10
49
20
-40.5
11
49
21
-42.5
0
LINE
8
BLACK
6
CONTINUOUS
10
49
20
-42.5
11
55
21
-42.5
0
LINE
8
BLACK
6
CONTINUOUS
10
55
20
-42.5
11
55
21
-40.5
0
LINE
8
BLACK
6
CONTINUOUS
10
-30
20
-61.5
11
-36
21
-61.5
0
LINE
8
BLACK
6
CONTINUOUS
10
-36
20
-61.5
11
-36
21
-63.5
0
LINE
8
BLACK
6
CONTINUOUS
10
-36
20
-63.5
11
-30
21
-63.5
0
LINE
8
BLACK
6
CONTINUOUS
10
-30
20
-63.5
11
-30
21
-61.5
0
LINE
8
BLACK
6
CONTINUOUS
10
36
20
-61.5
11
30
21
-61.5
0
LINE
8
BLACK
6
CONTINUOUS
10
30
20
-61.5
11
30
21
-63.5
0
LINE
8
BLACK
6
CONTINUOUS
10
30
20
-63.5
11
36
21
-63.5
0
LINE
8
BLACK
6
CONTINUOUS
10
36
20
-63.5
11
36
21
-61.5
0
LINE
8
BLACK
6
CONTINUOUS
10
132.421
20
-48.2653
11
126.444
21
-47.7423
0
LINE
8
BLACK
6
CONTINUOUS
10
126.444
20
-47.7423
11
126.27
21
-49.7347
0
LINE
8
BLACK
6
CONTINUOUS
10
126.27
20
-49.7347
11
132.247
21
-50.2577
0
LINE
8
BLACK
6
CONTINUOUS
10
132.247
20
-50.2577
11
132.421
21
-48.2653
0
LINE
8
BLACK
6
CONTINUOUS
10
-68
20
-36
11
-74
21
-36
0
LINE
8
BLACK
6
CONTINUOUS
10
-74
20
-36
11
-74
21
-38
0
LINE
8
BLACK
6
CONTINUOUS
10
-74
20
-38
11
-68
21
-38
0
LINE
8
BLACK
6
CONTINUOUS
10
-68
20
-38
11
-68
21
-36
0
LINE
8
BLACK
6
CONTINUOUS
10
20.25
20
-42.5
11
18.25
21
-42.5
0
LINE
8
BLACK
6
CONTINUOUS
10
18.25
20
-42.5
11
18.25
21
-39.5
0
LINE
8
BLACK
6
CONTINUOUS
10
18.25
20
-39.5
11
20.25
21
-39.5
0
LINE
8
BLACK
6
CONTINUOUS
10
20.25
20
-39.5
11
20.25
21
-42.5
0
LINE
8
BLACK
6
CONTINUOUS
10
-126.099
20
-50.3423
11
-132.076
21
-50.8653
0
LINE
8
BLACK
6
CONTINUOUS
10
-132.076
20
-50.8653
11
-131.901
21
-52.8577
0
LINE
8
BLACK
6
CONTINUOUS
10
-131.901
20
-52.8577
11
-125.924
21
-52.3347
0
LINE
8
BLACK
6
CONTINUOUS
10
-125.924
20
-52.3347
11
-126.099
21
-50.3423
0
LINE
8
BLACK
6
CONTINUOUS
10
112.894
20
-52.0153
11
106.916
21
-51.4923
0
LINE
8
BLACK
6
CONTINUOUS
10
106.916
20
-51.4923
11
106.742
21
-53.4847
0
LINE
8
BLACK
6
CONTINUOUS
10
106.742
20
-53.4847
11
112.719
21
-54.0077
0
LINE
8
BLACK
6
CONTINUOUS
10
112.719
20
-54.0077
11
112.894
21
-52.0153
0
LINE
8
BLACK
6
CONTINUOUS
10
-30
20
-42.5
11
-36
21
-42.5
0
LINE
8
BLACK
6
CONTINUOUS
10
-36
20
-42.5
11
-36
21
-44.5
0
LINE
8
BLACK
6
CONTINUOUS
10
-36
20
-44.5
11
-30
21
-44.5
0
LINE
8
BLACK
6
CONTINUOUS
10
-30
20
-44.5
11
-30
21
-42.5
0
LINE
8
BLACK
6
CONTINUOUS
10
93
20
-40
11
87
21
-40
0
LINE
8
BLACK
6
CONTINUOUS
10
87
20
-40
11
87
21
-42
0
LINE
8
BLACK
6
CONTINUOUS
10
87
20
-42
11
93
21
-42
0
LINE
8
BLACK
6
CONTINUOUS
10
93
20
-42
11
93
21
-40
0
LINE
8
BLACK
6
CONTINUOUS
10
-68
20
-17
11
-74
21
-17
0
LINE
8
BLACK
6
CONTINUOUS
10
-74
20
-17
11
-74
21
-19
0
LINE
8
BLACK
6
CONTINUOUS
10
-74
20
-19
11
-68
21
-19
0
LINE
8
BLACK
6
CONTINUOUS
10
-68
20
-19
11
-68
21
-17
0
CIRCLE
8
BLACK
10
100.7
20
-23.5
40
1.1
0
LINE
8
BLACK
6
CONTINUOUS
10
-68
20
-55
11
-74
21
-55
0
LINE
8
BLACK
6
CONTINUOUS
10
-74
20
-55
11
-74
21
-57
0
LINE
8
BLACK
6
CONTINUOUS
10
-74
20
-57
11
-68
21
-57
0
LINE
8
BLACK
6
CONTINUOUS
10
-68
20
-57
11
-68
21
-55
0
LINE
8
BLACK
6
CONTINUOUS
10
65
20
-62
11
59
21
-62
0
LINE
8
BLACK
6
CONTINUOUS
10
59
20
-62
11
59
21
-64
0
LINE
8
BLACK
6
CONTINUOUS
10
59
20
-64
11
65
21
-64
0
LINE
8
BLACK
6
CONTINUOUS
10
65
20
-64
11
65
21
-62
0
LINE
8
BLACK
6
CONTINUOUS
10
-49
20
-21.5483
11
-55
21
-21.5483
0
LINE
8
BLACK
6
CONTINUOUS
10
-55
20
-21.5483
11
-55
21
-23.5483
0
LINE
8
BLACK
6
CONTINUOUS
10
-55
20
-23.5483
11
-49
21
-23.5483
0
LINE
8
BLACK
6
CONTINUOUS
10
-49
20
-23.5483
11
-49
21
-21.5483
0
LINE
8
BLACK
6
CONTINUOUS
10
-14
20
-50.75
11
-12
21
-50.75
0
LINE
8
BLACK
6
CONTINUOUS
10
-12
20
-50.75
11
-12
21
-53.75
0
LINE
8
BLACK
6
CONTINUOUS
10
-12
20
-53.75
11
-14
21
-53.75
0
LINE
8
BLACK
6
CONTINUOUS
10
-14
20
-53.75
11
-14
21
-50.75
0
LINE
8
BLACK
6
CONTINUOUS
10
36
20
-42.5
11
30
21
-42.5
0
LINE
8
BLACK
6
CONTINUOUS
10
30
20
-42.5
11
30
21
-44.5
0
LINE
8
BLACK
6
CONTINUOUS
10
30
20
-44.5
11
36
21
-44.5
0
LINE
8
BLACK
6
CONTINUOUS
10
36
20
-44.5
11
36
21
-42.5
0
CIRCLE
8
BLACK
10
79.5
20
-58
40
1.1
0
LINE
8
BLACK
6
CONTINUOUS
10
-49
20
-40.5483
11
-55
21
-40.5483
0
LINE
8
BLACK
6
CONTINUOUS
10
-55
20
-40.5483
11
-55
21
-42.5483
0
LINE
8
BLACK
6
CONTINUOUS
10
-55
20
-42.5483
11
-49
21
-42.5483
0
LINE
8
BLACK
6
CONTINUOUS
10
-49
20
-42.5483
11
-49
21
-40.5483
0
LINE
8
BLACK
6
CONTINUOUS
10
-30
20
-23.5
11
-36
21
-23.5
0
LINE
8
BLACK
6
CONTINUOUS
10
-36
20
-23.5
11
-36
21
-25.5
0
LINE
8
BLACK
6
CONTINUOUS
10
-36
20
-25.5
11
-30
21
-25.5
0
LINE
8
BLACK
6
CONTINUOUS
10
-30
20
-25.5
11
-30
21
-23.5
0
CIRCLE
8
BLACK
10
10.25
20
-33
40
1.1
0
LINE
8
BLACK
6
CONTINUOUS
10
-87
20
-59
11
-93
21
-59
0
LINE
8
BLACK
6
CONTINUOUS
10
-93
20
-59
11
-93
21
-61
0
LINE
8
BLACK
6
CONTINUOUS
10
-93
20
-61
11
-87
21
-61
0
LINE
8
BLACK
6
CONTINUOUS
10
-87
20
-61
11
-87
21
-59
0
LINE
8
BLACK
6
CONTINUOUS
10
-106.827
20
-54.0301
11
-112.805
21
-54.553
0
LINE
8
BLACK
6
CONTINUOUS
10
-112.805
20
-54.553
11
-112.63
21
-56.5454
0
LINE
8
BLACK
6
CONTINUOUS
10
-112.63
20
-56.5454
11
-106.653
21
-56.0225
0
LINE
8
BLACK
6
CONTINUOUS
10
-106.653
20
-56.0225
11
-106.827
21
-54.0301
0
LINE
8
BLACK
6
CONTINUOUS
10
-108.701
20
-32.6119
11
-114.678
21
-33.1348
0
LINE
8
BLACK
6
CONTINUOUS
10
-114.678
20
-33.1348
11
-114.504
21
-35.1272
0
LINE
8
BLACK
6
CONTINUOUS
10
-114.504
20
-35.1272
11
-108.527
21
-34.6043
0
LINE
8
BLACK
6
CONTINUOUS
10
-108.527
20
-34.6043
11
-108.701
21
-32.6119
0
LINE
8
BLACK
6
CONTINUOUS
10
93
20
-21
11
87
21
-21
0
LINE
8
BLACK
6
CONTINUOUS
10
87
20
-21
11
87
21
-23
0
LINE
8
BLACK
6
CONTINUOUS
10
87
20
-23
11
93
21
-23
0
LINE
8
BLACK
6
CONTINUOUS
10
93
20
-23
11
93
21
-21
0
LINE
8
BLACK
6
CONTINUOUS
10
-40
20
-63
11
-46
21
-63
0
LINE
8
BLACK
6
CONTINUOUS
10
-46
20
-63
11
-46
21
-65
0
LINE
8
BLACK
6
CONTINUOUS
10
-46
20
-65
11
-40
21
-65
0
LINE
8
BLACK
6
CONTINUOUS
10
-40
20
-65
11
-40
21
-63
0
LINE
8
BLACK
6
CONTINUOUS
10
17.8
20
-61.8
11
19.8
21
-61.8
0
LINE
8
BLACK
6
CONTINUOUS
10
19.8
20
-61.8
11
19.8
21
-67.8
0
LINE
8
BLACK
6
CONTINUOUS
10
19.8
20
-67.8
11
17.8
21
-67.8
0
LINE
8
BLACK
6
CONTINUOUS
10
17.8
20
-67.8
11
17.8
21
-61.8
0
LINE
8
BLACK
6
CONTINUOUS
10
112.676
20
-54.6558
11
106.699
21
-54.1328
0
LINE
8
BLACK
6
CONTINUOUS
10
106.699
20
-54.1328
11
106.524
21
-56.1252
0
LINE
8
BLACK
6
CONTINUOUS
10
106.524
20
-56.1252
11
112.501
21
-56.6481
0
LINE
8
BLACK
6
CONTINUOUS
10
112.501
20
-56.6481
11
112.676
21
-54.6558
0
LINE
8
BLACK
6
CONTINUOUS
10
114.55
20
-33.2376
11
108.572
21
-32.7146
0
LINE
8
BLACK
6
CONTINUOUS
10
108.572
20
-32.7146
11
108.398
21
-34.707
0
LINE
8
BLACK
6
CONTINUOUS
10
108.398
20
-34.707
11
114.375
21
-35.23
0
LINE
8
BLACK
6
CONTINUOUS
10
114.375
20
-35.23
11
114.55
21
-33.2376
0
LINE
8
BLACK
6
CONTINUOUS
10
74
20
-55
11
68
21
-55
0
LINE
8
BLACK
6
CONTINUOUS
10
68
20
-55
11
68
21
-57
0
LINE
8
BLACK
6
CONTINUOUS
10
68
20
-57
11
74
21
-57
0
LINE
8
BLACK
6
CONTINUOUS
10
74
20
-57
11
74
21
-55
0
LINE
8
BLACK
6
CONTINUOUS
10
-59
20
-62
11
-65
21
-62
0
LINE
8
BLACK
6
CONTINUOUS
10
-65
20
-62
11
-65
21
-64
0
LINE
8
BLACK
6
CONTINUOUS
10
-65
20
-64
11
-59
21
-64
0
LINE
8
BLACK
6
CONTINUOUS
10
-59
20
-64
11
-59
21
-62
0
LINE
8
BLACK
6
CONTINUOUS
10
14
20
-53.75
11
12
21
-53.75
0
LINE
8
BLACK
6
CONTINUOUS
10
12
20
-53.75
11
12
21
-50.75
0
LINE
8
BLACK
6
CONTINUOUS
10
12
20
-50.75
11
14
21
-50.75
0
LINE
8
BLACK
6
CONTINUOUS
10
14
20
-50.75
11
14
21
-53.75
0
LINE
8
BLACK
6
CONTINUOUS
10
-126.299
20
-47.8423
11
-132.276
21
-48.3653
0
LINE
8
BLACK
6
CONTINUOUS
10
-132.276
20
-48.3653
11
-132.101
21
-50.3577
0
LINE
8
BLACK
6
CONTINUOUS
10
-132.101
20
-50.3577
11
-126.124
21
-49.8347
0
LINE
8
BLACK
6
CONTINUOUS
10
-126.124
20
-49.8347
11
-126.299
21
-47.8423
0
LINE
8
BLACK
6
CONTINUOUS
10
-87
20
-21
11
-93
21
-21
0
LINE
8
BLACK
6
CONTINUOUS
10
-93
20
-21
11
-93
21
-23
0
LINE
8
BLACK
6
CONTINUOUS
10
-93
20
-23
11
-87
21
-23
0
LINE
8
BLACK
6
CONTINUOUS
10
-87
20
-23
11
-87
21
-21
0
CIRCLE
8
BLACK
10
41.5
20
-26
40
1.1
0
LINE
8
BLACK
6
CONTINUOUS
10
93
20
-59
11
87
21
-59
0
LINE
8
BLACK
6
CONTINUOUS
10
87
20
-59
11
87
21
-61
0
LINE
8
BLACK
6
CONTINUOUS
10
87
20
-61
11
93
21
-61
0
LINE
8
BLACK
6
CONTINUOUS
10
93
20
-61
11
93
21
-59
0
CIRCLE
8
BLACK
10
19
20
-33
40
1.1
  0
ENDSEC
  0
EOF
