0
SECTION
2
HEADER
9
$INSUNITS
70
4
9
$ACADVER
1
AC1014
9
$HANDSEED
5
FFFF
0
ENDSEC
0
SECTION
2
TABLES
0
TABLE
2
VPORT
5
8
100
AcDbSymbolTable
0
ENDTAB
0
TABLE
2
LTYPE
5
5
100
AcDbSymbolTable
0
LTYPE
5
14
100
AcDbSymbolTableRecord
100
AcDbLinetypeTableRecord
2
BYBLOCK
70
0
0
LTYPE
5
15
100
AcDbSymbolTableRecord
100
AcDbLinetypeTableRecord
2
BYLAYER
70
0
0
ENDTAB
0
TABLE
2
LAYER
5
2
100
AcDbSymbolTable
70
2
0
LAYER
5
50
100
AcDbSymbolTableRecord
100
AcDbLayerTableRecord
2
0
70
0
6
CONTINUOUS
0
ENDTAB
0
TABLE
2
STYLE
5
3
100
AcDbSymbolTable
70
1
0
STYLE
5
11
100
AcDbSymbolTableRecord
100
AcDbTextStyleTableRecord
2
STANDARD
70
0
0
ENDTAB
0
TABLE
2
VIEW
5
6
100
AcDbSymbolTable
70
0
0
ENDTAB
0
TABLE
2
UCS
5
7
100
AcDbSymbolTable
70
0
0
ENDTAB
0
TABLE
2
APPID
5
9
100
AcDbSymbolTable
70
2
0
APPID
5
12
100
AcDbSymbolTableRecord
100
AcDbRegAppTableRecord
2
ACAD
70
0
0
ENDTAB
0
TABLE
2
DIMSTYLE
5
A
100
AcDbSymbolTable
70
1
0
ENDTAB
0
TABLE
2
BLOCK_RECORD
5
1
100
AcDbSymbolTable
70
1
0
BLOCK_RECORD
5
1F
100
AcDbSymbolTableRecord
100
AcDbBlockTableRecord
2
*MODEL_SPACE
0
BLOCK_RECORD
5
1B
100
AcDbSymbolTableRecord
100
AcDbBlockTableRecord
2
*PAPER_SPACE
0
ENDTAB
0
ENDSEC
0
SECTION
2
BLOCKS
0
BLOCK
5
20
100
AcDbEntity
100
AcDbBlockBegin
2
*MODEL_SPACE
0
ENDBLK
5
21
100
AcDbEntity
100
AcDbBlockEnd
0
BLOCK
5
1C
100
AcDbEntity
100
AcDbBlockBegin
2
*PAPER_SPACE
0
ENDBLK
5
1D
100
AcDbEntity
100
AcDbBlockEnd
0
ENDSEC
0
SECTION
2
ENTITIES
0
LINE
5
100
100
AcDbEntity
8
0
100
AcDbLine
10
-62.5
20
0
30
0
11
-79.5
21
0
31
0
0
LINE
5
101
100
AcDbEntity
8
0
100
AcDbLine
10
-40.500000030532782
20
-6.5006401336268373
30
0
11
-24.303692751695053
21
-6.5006855658095919
31
0
0
ARC
5
102
100
AcDbEntity
8
0
100
AcDbCircle
10
-79.502667995010995
20
-1.4973320049889962
30
0
40
1.4973343819473812
210
0
220
-0
230
1
100
AcDbArc
50
89.897908619060644
51
180.1020913809383
0
ARC
5
103
100
AcDbEntity
8
0
100
AcDbCircle
10
-59.500644324836529
20
-3.0006443248365224
30
0
40
1.4993558136077725
210
0
220
0
230
1
100
AcDbArc
50
179.97537802932356
51
270.02462197069553
0
LINE
5
104
100
AcDbEntity
8
0
100
AcDbLine
10
-98.500000000000014
20
-4
30
0
11
-82.5
21
-4
31
0
0
ARC
5
105
100
AcDbEntity
8
0
100
AcDbCircle
10
-40.49985536625023
20
-4.8754352948065414
30
0
40
1.6252048452587937
210
0
220
0
230
1
100
AcDbArc
50
202.60417666296755
51
269.99489993346276
0
ARC
5
106
100
AcDbEntity
8
0
100
AcDbCircle
10
-62.493573540697881
20
-1.4935735406978794
30
0
40
1.4935873663271126
210
-0
220
0
230
1
100
AcDbArc
50
-0.24652734728279865
51
90.246527347283404
0
LINE
5
107
100
AcDbEntity
8
0
100
AcDbLine
10
-81
20
-1.5000000000000002
30
0
11
-81
21
-2.5
31
0
0
ARC
5
108
100
AcDbEntity
8
0
100
AcDbCircle
10
-101.65208081339729
20
-13.249965349480515
30
0
40
1.6520808137606202
210
0
220
0
230
1
100
AcDbArc
50
272.70892815699847
51
359.99879828637251
0
LINE
5
109
100
AcDbEntity
8
0
100
AcDbLine
10
-61.000000000000007
20
-3.0000000000000004
30
0
11
-61.000000000000007
21
-1.5000000000000002
31
0
0
ARC
5
110
100
AcDbEntity
8
0
100
AcDbCircle
10
-43.502798922819835
20
-6.128809532828293
30
0
40
1.6288119376408292
210
0
220
-0
230
1
100
AcDbArc
50
22.70525733435527
51
89.901543855385697
0
LINE
5
111
100
AcDbEntity
8
0
100
AcDbLine
10
-59.5
20
-4.5000000000000009
30
0
11
-43.500000000000007
21
-4.5
31
0
0
ARC
5
112
100
AcDbEntity
8
0
100
AcDbCircle
10
-4.5001843855178354
20
-10.500184385517837
30
0
40
1.5001843968491158
210
-0
220
0
230
1
100
AcDbArc
50
0.007042142308749424
51
89.992957857697959
0
ARC
5
113
100
AcDbEntity
8
0
100
AcDbCircle
10
-121.49998319232473
20
-18.098930723488646
30
0
40
1.5052885099135547
210
0
220
0
230
1
100
AcDbArc
50
95.184277366357051
51
184.79656153477168
0
ARC
5
114
100
AcDbEntity
8
0
100
AcDbCircle
10
-123.62282109813992
20
-28.806388826606334
30
0
40
1.4986446815041212
210
0
220
0
230
1
100
AcDbArc
50
-85.030486292225703
51
5.052707711414695
0
LINE
5
115
100
AcDbEntity
8
0
100
AcDbLine
10
-101.57400000000001
20
-14.900200000000002
30
0
11
-121.63600000000002
21
-16.599800000000002
31
0
0
ARC
5
116
100
AcDbEntity
8
0
100
AcDbCircle
10
-82.499244440468061
20
-2.5007555595319424
30
0
40
1.499244630854013
210
0
220
0
230
1
100
AcDbArc
50
-90.028874790206032
51
0.02887479019698326
0
LINE
5
117
100
AcDbEntity
8
0
100
AcDbLine
10
-100
20
-5.5
30
0
11
-100
21
-13.250000000000002
31
0
0
ARC
5
118
100
AcDbEntity
8
0
100
AcDbCircle
10
-24.508375728165763
20
-8.0191940362961507
30
0
40
1.5322412002672268
210
0
220
-0
230
1
100
AcDbArc
50
10.119210484575554
51
82.323249994395709
0
ARC
5
119
100
AcDbEntity
8
0
100
AcDbCircle
10
-139.32792004797443
20
-33.286725464722103
30
0
40
1.519541571286692
210
0
220
0
230
1
100
AcDbArc
50
95.753358484182115
51
184.26906779945517
0
ARC
5
120
100
AcDbEntity
8
0
100
AcDbCircle
10
-98.500294908655079
20
-5.499705091344925
30
0
40
1.4997051203409972
210
0
220
-0
230
1
100
AcDbArc
50
89.988733104157092
51
180.01126689584328
0
LINE
5
121
100
AcDbEntity
8
0
100
AcDbLine
10
-123
20
-18.224799999999998
30
0
11
-122.13000000000001
21
-28.674400000000002
31
0
0
LINE
5
122
100
AcDbEntity
8
0
100
AcDbLine
10
-123.49299999999999
20
-30.299399999999999
30
0
11
-139.48024859449396
21
-31.774838365503491
31
0
0
LINE
5
123
100
AcDbEntity
8
0
100
AcDbLine
10
-4.5
20
-9
30
0
11
-21.5
21
-9
31
0
0
ARC
5
124
100
AcDbEntity
8
0
100
AcDbCircle
10
-21.5
20
-7.4750399999999999
30
0
40
1.5249600000000001
210
0
220
0
230
1
100
AcDbArc
50
190.38699999999997
51
270
0
LINE
5
125
100
AcDbEntity
8
0
100
AcDbLine
10
-59
20
-2.5000000000000004
30
0
11
-59
21
-1.5034021670573634
31
0
0
LINE
5
126
100
AcDbEntity
8
0
100
AcDbLine
10
-82.999999999999986
20
-1.5017818297924435
30
0
11
-82.999999999999986
21
-2
31
0
0
SPLINE
5
127
100
AcDbEntity
8
0
100
AcDbSpline
70
4
71
5
72
26
73
20
74
0
42
0.000000001
43
0.0000000001
44
0.0000000001
40
0
40
0
40
0
40
0
40
0
40
0
40
0.066666666666666666
40
0.13333333333333333
40
0.20000000000000001
40
0.26666666666666666
40
0.33333333333333331
40
0.39999999999999997
40
0.46666666666666662
40
0.53333333333333333
40
0.59999999999999998
40
0.66666666666666663
40
0.73333333333333328
40
0.79999999999999993
40
0.86666666666666659
40
0.93333333333333324
40
1
40
1
40
1
40
1
40
1
40
1
41
1
41
1
41
1
41
1
41
1
41
1
41
1
41
1
41
1
41
1
41
1
41
1
41
1
41
1
41
1
41
1
41
1
41
1
41
1
41
1
10
-3.0000000000000004
20
-71.5
30
0
10
-2.9995142463382463
20
-73.692715258292466
30
0
10
-3.2112995022530648
20
-77.834433973533308
30
0
10
-4.1641352706663053
20
-83.316492047513634
30
0
10
-6.7411706094861259
20
-89.148895029166766
30
0
10
-11.882651894698917
20
-93.995758915125379
30
0
10
-18.573596258801686
20
-96.467228850433813
30
0
10
-25.044071584337924
20
-96.979073311878665
30
0
10
-31.419165980046429
20
-95.688848871933843
30
0
10
-39.62527011509767
20
-92.531422046557751
30
0
10
-51.478139731502623
20
-87.749479537773539
30
0
10
-68.01279910412272
20
-81.908559808057817
30
0
10
-87.140173829835831
20
-76.896037466708876
30
0
10
-104.75790537241259
20
-74.631276001120611
30
0
10
-119.30725855571252
20
-74.491750987982414
30
0
10
-129.82047574868605
20
-75.052700017656406
30
0
10
-134.92103491309689
20
-74.474879849384308
30
0
10
-136.94578707645027
20
-72.703485542739713
30
0
10
-137.51942235569743
20
-70.819146519162132
30
0
10
-137.61203986268447
20
-69.701217855088515
30
0
0
ARC
5
128
100
AcDbEntity
8
0
100
AcDbCircle
10
-4.5001843855178354
20
-10.500184385517837
30
0
40
1.5001843968491158
210
-0
220
0
230
1
100
AcDbArc
50
0.007042142308749424
51
89.992957857697959
0
ARC
5
129
100
AcDbEntity
8
0
100
AcDbCircle
10
-98.500294908655079
20
-5.499705091344925
30
0
40
1.4997051203409972
210
0
220
0
230
1
100
AcDbArc
50
179.98873310415672
51
180.01126689584328
0
LINE
5
130
100
AcDbEntity
8
0
100
AcDbLine
10
-4.5
20
-9
30
0
11
-21.5
21
-9
31
0
0
ARC
5
131
100
AcDbEntity
8
0
100
AcDbCircle
10
-17.750561136796673
20
-94.200580359316675
30
0
40
1.5000500032575947
210
0
220
0
230
1
100
AcDbArc
50
329.90438630207075
51
329.9733824265673
0
ARC
5
132
100
AcDbEntity
8
0
100
AcDbCircle
10
-79.502667995010995
20
-1.4973320049889962
30
0
40
1.4973343819473812
210
0
220
-0
230
1
100
AcDbArc
50
89.897908619060644
51
90.102091380935548
0
ARC
5
133
100
AcDbEntity
8
0
100
AcDbCircle
10
-79.502667995010995
20
-1.4973320049889962
30
0
40
1.4973343819473812
210
0
220
0
230
1
100
AcDbArc
50
179.89790861905811
51
180.1020913809383
0
ARC
5
134
100
AcDbEntity
8
0
100
AcDbCircle
10
-98.500294908655079
20
-5.499705091344925
30
0
40
1.4997051203409972
210
0
220
-0
230
1
100
AcDbArc
50
89.988733104157092
51
90.011266895849431
0
ARC
5
135
100
AcDbEntity
8
0
100
AcDbCircle
10
-136.12830874606533
20
-69.451680947240561
30
0
40
1.5000137667906364
210
0
220
0
230
1
100
AcDbArc
50
184.99988471692214
51
185.17316349842039
0
ARC
5
136
100
AcDbEntity
8
0
100
AcDbCircle
10
-121.49998319232473
20
-18.098930723488646
30
0
40
1.5052885099135385
210
0
220
0
230
1
100
AcDbArc
50
184.72200939997646
51
184.79656153477168
0
LINE
5
137
100
AcDbEntity
8
0
100
AcDbLine
10
-140.84324560083726
20
-33.399840696717206
30
0
11
-137.61203986268447
21
-69.701217855088515
31
0
0
ARC
5
138
100
AcDbEntity
8
0
100
AcDbCircle
10
-62.493573540697881
20
-1.4935735406978794
30
0
40
1.4935873663271126
210
-0
220
0
230
1
100
AcDbArc
50
-0.24652734728279865
51
0.24652734728575262
0
ARC
5
139
100
AcDbEntity
8
0
100
AcDbCircle
10
-62.493573540697881
20
-1.4935735406978794
30
0
40
1.4935873663271126
210
-0
220
0
230
1
100
AcDbArc
50
89.753472652722039
51
90.246527347283404
0
LINE
5
140
100
AcDbEntity
8
0
100
AcDbLine
10
-3.0000000000000004
20
-10.5
30
0
11
-3.0000000000000004
21
-71.5
31
0
0
ENDSEC
0
SECTION
2
OBJECTS
0
DICTIONARY
5
C
100
AcDbDictionary
3
ACAD_GROUP
350
D
3
ACAD_MLINESTYLE
350
17
0
DICTIONARY
5
D
100
AcDbDictionary
0
DICTIONARY
5
1A
330
C
100
AcDbDictionary
0
DICTIONARY
5
17
100
AcDbDictionary
0
ENDSEC
0
EOF
