  0
SECTION
  2
HEADER
  9
$ANGBASE
  50
0.0
  9
$ANGDIR
  70
1
  9
$MEASUREMENT
  70
1
  0
ENDSEC
  0
SECTION
  2
TABLES
  0
TABLE
  2
LTYPE
  70
4
  0
LTYPE
  5
40F
  2
CONTINUOUS
  70
0
  3
Solid line
  72
65
  73
0
  40
0.0
  0
LTYPE
  5
410
  2
DASHDOT
 70
0
  3
Dash Dot ____ _ ____ _
 72
65
 73
4
 40
2.0
 49
1.25
 49
-0.25
 49
0.25
 49
-0.25
  0
LTYPE
  5
411
  2
DASHED
 70
0
  3
Dashed __ __ __ __ __
 72
65
 73
2
 40
0.75
 49
0.5
 49
-0.25
  0
LTYPE
  5
43B
  2
DOTTED
 70
0
  3
Dotted .  .  .  .
 72
65
 73
2
 40
0.2
 49
0.0
 49
-0.2
  0
ENDTAB
  0
TABLE
  2
STYLE
  70
4
  0
STYLE
  2
KICAD
  70
0
  40
0
  41
1
  42
1
  50
0
  71
0
  3
isocp.shx
  0
STYLE
  2
KICADB
  70
0
  40
0
  41
1
  42
1
  50
0
  71
0
  3
isocp.shx
  0
STYLE
  2
KICADI
  70
0
  40
0
  41
1
  42
1
  50
15
  71
0
  3
isocp.shx
  0
STYLE
  2
KICADBI
  70
0
  40
0
  41
1
  42
1
  50
15
  71
0
  3
isocp.shx
  0
ENDTAB
  0
TABLE
  2
LAYER
  70
1
  0
LAYER
  2
BLACK
  70
0
  62
7
  6
CONTINUOUS
  0
ENDTAB
  0
ENDSEC
  0
SECTION
  2
ENTITIES
0
LINE
8
BLACK
6
CONTINUOUS
10
-81
20
-1.5
11
-81
21
-2.5
0
ARC
8
BLACK
10
-43.5
20
-6.125
40
1.625
50
22.6199
51
90
0
LINE
8
BLACK
6
CONTINUOUS
10
-16.451
20
-94.951
11
-3
21
-71.5
0
LINE
8
BLACK
6
CONTINUOUS
10
-116.8
20
-74.6
11
-99.5
21
-73
0
LINE
8
BLACK
6
CONTINUOUS
10
-101.574
20
-14.9002
11
-121.636
21
-16.5998
0
ARC
8
BLACK
10
-24.5
20
-8.025
40
1.525
50
10.3889
51
90
0
ARC
8
BLACK
10
-123.624
20
-28.8051
40
1.49992
50
-85.003
51
5.00081
0
LINE
8
BLACK
6
CONTINUOUS
10
-4.5
20
-9
11
-21.5
21
-9
0
ARC
8
BLACK
10
-101.652
20
-13.25
40
1.652
50
-87.3009
51
-0
0
LINE
8
BLACK
6
CONTINUOUS
10
-62.5
20
0
11
-79.5
21
0
0
LINE
8
BLACK
6
CONTINUOUS
10
-140.845
20
-33.4
11
-137.625
21
-69.5816
0
LINE
8
BLACK
6
CONTINUOUS
10
-72
20
-63.5
11
-72
21
-80
0
LINE
8
BLACK
6
CONTINUOUS
10
-52.5
20
-81.5
11
-70.5
21
-81.5
0
ARC
8
BLACK
10
-4.5
20
-10.5
40
1.5
50
-0
51
90
0
LINE
8
BLACK
6
CONTINUOUS
10
-40.5
20
-6.5
11
-24.5
21
-6.5
0
LINE
8
BLACK
6
CONTINUOUS
10
-3
20
-15.25
11
-3
21
-10.5
0
LINE
8
BLACK
6
CONTINUOUS
10
-3
20
-71.5
11
-3
21
-70
0
LINE
8
BLACK
6
CONTINUOUS
10
-61
20
-3
11
-61
21
-1.5
0
LINE
8
BLACK
6
CONTINUOUS
10
-9
20
-60.5
11
-3
21
-60.5
0
LINE
8
BLACK
6
CONTINUOUS
10
-3
20
-15.25
11
-3
21
-58.25
0
ARC
8
BLACK
10
-96.75
20
-63.5
40
1.5
50
90
51
180
0
LINE
8
BLACK
6
CONTINUOUS
10
-98.5
20
-4
11
-82.5
21
-4
0
ARC
8
BLACK
10
-116.751
20
-73.1431
40
1.45773
50
-173.821
51
-91.9342
0
ARC
8
BLACK
10
-62.5
20
-1.5
40
1.5
50
-0
51
90
0
ARC
8
BLACK
10
-121.506
20
-18.0941
40
1.5001
50
-264.996
51
-175.002
0
ARC
8
BLACK
10
-98.5
20
-5.5
40
1.5
50
90
51
180
0
ARC
8
BLACK
10
-70.5
20
-80
40
1.5
50
-180
51
-90
0
LINE
8
BLACK
6
CONTINUOUS
10
-123.493
20
-30.2994
11
-139.482
21
-31.775
0
ARC
8
BLACK
10
-73.5
20
-63.5
40
1.5
50
-0
51
90
0
LINE
8
BLACK
6
CONTINUOUS
10
-98.25
20
-63.5
11
-98.25
21
-71.5
0
LINE
8
BLACK
6
CONTINUOUS
10
-123
20
-18.2248
11
-122.13
21
-28.6744
0
ARC
8
BLACK
10
-99.775
20
-71.5
40
1.525
50
-79.6111
51
-0
0
LINE
8
BLACK
6
CONTINUOUS
10
-3
20
-58.25
11
-3
21
-60.5
0
ARC
8
BLACK
10
-59.5
20
-3
40
1.5
50
-180
51
-90
0
LINE
8
BLACK
6
CONTINUOUS
10
-96.75
20
-62
11
-73.5
21
-62
0
ARC
8
BLACK
10
-21.5
20
-7.475
40
1.525
50
-169.611
51
-90
0
LINE
8
BLACK
6
CONTINUOUS
10
-9
20
-70
11
-9
21
-60.5
0
ARC
8
BLACK
10
-17.75
20
-94.201
40
1.49998
50
-120.001
51
-29.9987
0
ARC
8
BLACK
10
-119.869
20
-70.9944
40
1.50011
50
5.00405
51
94.9984
0
ARC
8
BLACK
10
-82.5
20
-2.5
40
1.5
50
-90
51
-0
0
ARC
8
BLACK
10
-79.5
20
-1.5
40
1.5
50
90
51
180
0
LINE
8
BLACK
6
CONTINUOUS
10
-118.375
20
-70.8636
11
-118.2
21
-73.3
0
ARC
8
BLACK
10
-136.131
20
-69.451
40
1.4999
50
-175.004
51
-84.9971
0
LINE
8
BLACK
6
CONTINUOUS
10
-136
20
-70.9452
11
-120
21
-69.5
0
LINE
8
BLACK
6
CONTINUOUS
10
-59.5
20
-4.5
11
-43.5
21
-4.5
0
LINE
8
BLACK
6
CONTINUOUS
10
-3
20
-70
11
-9
21
-70
0
ARC
8
BLACK
10
-139.351
20
-33.2693
40
1.50003
50
-264.999
51
-175.001
0
LINE
8
BLACK
6
CONTINUOUS
10
-18.5
20
-95.5
11
-34
21
-86.5
0
ARC
8
BLACK
10
-40.5
20
-4.875
40
1.625
50
-157.38
51
-90
0
LINE
8
BLACK
6
CONTINUOUS
10
-100
20
-5.5
11
-100
21
-13.25
0
LINE
8
BLACK
6
CONTINUOUS
10
-52.5
20
-81.5
11
-34
21
-86.5
0
LINE
8
BLACK
6
CONTINUOUS
10
-77.975
20
-40
11
-64.025
21
-40
0
LINE
8
BLACK
6
CONTINUOUS
10
-77.975
20
-41.025
11
-77.975
21
-40
0
LINE
8
BLACK
6
CONTINUOUS
10
-64.025
20
-54.975
11
-64.025
21
-56
0
LINE
8
BLACK
6
CONTINUOUS
10
-77.975
20
-56
11
-64.025
21
-56
0
LINE
8
BLACK
6
CONTINUOUS
10
-77.975
20
-54.975
11
-77.975
21
-56
0
LINE
8
BLACK
6
CONTINUOUS
10
-64.025
20
-41.025
11
-64.025
21
-40
0
LINE
8
BLACK
6
CONTINUOUS
10
-77.975
20
-41.025
11
-64.025
21
-41.025
0
LINE
8
BLACK
6
CONTINUOUS
10
-64.025
20
-41.025
11
-64.025
21
-54.975
0
LINE
8
BLACK
6
CONTINUOUS
10
-64.025
20
-54.975
11
-77.975
21
-54.975
0
LINE
8
BLACK
6
CONTINUOUS
10
-77.975
20
-54.975
11
-77.975
21
-41.025
0
LINE
8
BLACK
6
CONTINUOUS
10
-39.975
20
-43.5
11
-26.025
21
-43.5
0
LINE
8
BLACK
6
CONTINUOUS
10
-39.975
20
-42.475
11
-39.975
21
-43.5
0
LINE
8
BLACK
6
CONTINUOUS
10
-26.025
20
-42.475
11
-26.025
21
-43.5
0
LINE
8
BLACK
6
CONTINUOUS
10
-39.975
20
-27.5
11
-26.025
21
-27.5
0
LINE
8
BLACK
6
CONTINUOUS
10
-39.975
20
-28.525
11
-39.975
21
-27.5
0
LINE
8
BLACK
6
CONTINUOUS
10
-26.025
20
-28.525
11
-26.025
21
-27.5
0
LINE
8
BLACK
6
CONTINUOUS
10
-39.975
20
-28.525
11
-26.025
21
-28.525
0
LINE
8
BLACK
6
CONTINUOUS
10
-26.025
20
-28.525
11
-26.025
21
-42.475
0
LINE
8
BLACK
6
CONTINUOUS
10
-26.025
20
-42.475
11
-39.975
21
-42.475
0
LINE
8
BLACK
6
CONTINUOUS
10
-39.975
20
-42.475
11
-39.975
21
-28.525
0
LINE
8
BLACK
6
CONTINUOUS
10
-2.5
20
-71.5
11
-11.5
21
-71.5
0
LINE
8
BLACK
6
CONTINUOUS
10
-11.5
20
-71.5
11
-11.5
21
-59
0
LINE
8
BLACK
6
CONTINUOUS
10
-11.5
20
-59
11
-2.5
21
-59
0
LINE
8
BLACK
6
CONTINUOUS
10
-2.5
20
-59
11
-2.5
21
-71.5
0
LINE
8
BLACK
6
CONTINUOUS
10
-102.559
20
-56.2436
11
-102.649
21
-55.2225
0
LINE
8
BLACK
6
CONTINUOUS
10
-116.546
20
-56.4384
11
-102.649
21
-55.2225
0
LINE
8
BLACK
6
CONTINUOUS
10
-115.241
20
-71.3564
11
-115.151
21
-72.3775
0
LINE
8
BLACK
6
CONTINUOUS
10
-115.151
20
-72.3775
11
-101.254
21
-71.1616
0
LINE
8
BLACK
6
CONTINUOUS
10
-116.456
20
-57.4595
11
-116.546
21
-56.4384
0
LINE
8
BLACK
6
CONTINUOUS
10
-101.344
20
-70.1405
11
-101.254
21
-71.1616
0
LINE
8
BLACK
6
CONTINUOUS
10
-116.456
20
-57.4595
11
-102.559
21
-56.2436
0
LINE
8
BLACK
6
CONTINUOUS
10
-102.559
20
-56.2436
11
-101.344
21
-70.1405
0
LINE
8
BLACK
6
CONTINUOUS
10
-101.344
20
-70.1405
11
-115.241
21
-71.3564
0
LINE
8
BLACK
6
CONTINUOUS
10
-115.241
20
-71.3564
11
-116.456
21
-57.4595
0
LINE
8
BLACK
6
CONTINUOUS
10
-39.975
20
-24.5
11
-26.025
21
-24.5
0
LINE
8
BLACK
6
CONTINUOUS
10
-26.025
20
-9.525
11
-26.025
21
-8.5
0
LINE
8
BLACK
6
CONTINUOUS
10
-39.975
20
-23.475
11
-39.975
21
-24.5
0
LINE
8
BLACK
6
CONTINUOUS
10
-26.025
20
-23.475
11
-26.025
21
-24.5
0
LINE
8
BLACK
6
CONTINUOUS
10
-39.975
20
-9.525
11
-39.975
21
-8.5
0
LINE
8
BLACK
6
CONTINUOUS
10
-39.975
20
-8.5
11
-26.025
21
-8.5
0
LINE
8
BLACK
6
CONTINUOUS
10
-39.975
20
-9.525
11
-26.025
21
-9.525
0
LINE
8
BLACK
6
CONTINUOUS
10
-26.025
20
-9.525
11
-26.025
21
-23.475
0
LINE
8
BLACK
6
CONTINUOUS
10
-26.025
20
-23.475
11
-39.975
21
-23.475
0
LINE
8
BLACK
6
CONTINUOUS
10
-39.975
20
-23.475
11
-39.975
21
-9.525
0
LINE
8
BLACK
6
CONTINUOUS
10
-8.5
20
-9
11
-18.5
21
-9
0
LINE
8
BLACK
6
CONTINUOUS
10
-8.5
20
-9.5
11
-8.5
21
-9
0
LINE
8
BLACK
6
CONTINUOUS
10
-4.5
20
-30.5
11
-4.5
21
-9.5
0
LINE
8
BLACK
6
CONTINUOUS
10
-18.5
20
-9.5
11
-22.5
21
-9.5
0
LINE
8
BLACK
6
CONTINUOUS
10
-4.5
20
-9.5
11
-8.5
21
-9.5
0
LINE
8
BLACK
6
CONTINUOUS
10
-22.5
20
-30.5
11
-4.5
21
-30.5
0
LINE
8
BLACK
6
CONTINUOUS
10
-18.5
20
-9
11
-18.5
21
-9.5
0
LINE
8
BLACK
6
CONTINUOUS
10
-22.5
20
-9.5
11
-22.5
21
-30.5
0
LINE
8
BLACK
6
CONTINUOUS
10
-96.975
20
-45.025
11
-96.975
21
-44
0
LINE
8
BLACK
6
CONTINUOUS
10
-96.975
20
-58.975
11
-96.975
21
-60
0
LINE
8
BLACK
6
CONTINUOUS
10
-83.025
20
-58.975
11
-83.025
21
-60
0
LINE
8
BLACK
6
CONTINUOUS
10
-96.975
20
-60
11
-83.025
21
-60
0
LINE
8
BLACK
6
CONTINUOUS
10
-96.975
20
-44
11
-83.025
21
-44
0
LINE
8
BLACK
6
CONTINUOUS
10
-83.025
20
-45.025
11
-83.025
21
-44
0
LINE
8
BLACK
6
CONTINUOUS
10
-96.975
20
-45.025
11
-83.025
21
-45.025
0
LINE
8
BLACK
6
CONTINUOUS
10
-83.025
20
-45.025
11
-83.025
21
-58.975
0
LINE
8
BLACK
6
CONTINUOUS
10
-83.025
20
-58.975
11
-96.975
21
-58.975
0
LINE
8
BLACK
6
CONTINUOUS
10
-96.975
20
-58.975
11
-96.975
21
-45.025
0
LINE
8
BLACK
6
CONTINUOUS
10
-39.975
20
-47.525
11
-39.975
21
-46.5
0
LINE
8
BLACK
6
CONTINUOUS
10
-39.975
20
-62.5
11
-26.025
21
-62.5
0
LINE
8
BLACK
6
CONTINUOUS
10
-39.975
20
-46.5
11
-26.025
21
-46.5
0
LINE
8
BLACK
6
CONTINUOUS
10
-39.975
20
-61.475
11
-39.975
21
-62.5
0
LINE
8
BLACK
6
CONTINUOUS
10
-26.025
20
-61.475
11
-26.025
21
-62.5
0
LINE
8
BLACK
6
CONTINUOUS
10
-26.025
20
-47.525
11
-26.025
21
-46.5
0
LINE
8
BLACK
6
CONTINUOUS
10
-39.975
20
-47.525
11
-26.025
21
-47.525
0
LINE
8
BLACK
6
CONTINUOUS
10
-26.025
20
-47.525
11
-26.025
21
-61.475
0
LINE
8
BLACK
6
CONTINUOUS
10
-26.025
20
-61.475
11
-39.975
21
-61.475
0
LINE
8
BLACK
6
CONTINUOUS
10
-39.975
20
-61.475
11
-39.975
21
-47.525
0
CIRCLE
8
BLACK
10
-28
20
-72
40
1.1
0
LINE
8
BLACK
6
CONTINUOUS
10
-83.025
20
-7.025
11
-83.025
21
-6
0
LINE
8
BLACK
6
CONTINUOUS
10
-96.975
20
-20.975
11
-96.975
21
-22
0
LINE
8
BLACK
6
CONTINUOUS
10
-96.975
20
-6
11
-83.025
21
-6
0
LINE
8
BLACK
6
CONTINUOUS
10
-96.975
20
-7.025
11
-96.975
21
-6
0
LINE
8
BLACK
6
CONTINUOUS
10
-83.025
20
-20.975
11
-83.025
21
-22
0
LINE
8
BLACK
6
CONTINUOUS
10
-96.975
20
-22
11
-83.025
21
-22
0
LINE
8
BLACK
6
CONTINUOUS
10
-96.975
20
-7.025
11
-83.025
21
-7.025
0
LINE
8
BLACK
6
CONTINUOUS
10
-83.025
20
-7.025
11
-83.025
21
-20.975
0
LINE
8
BLACK
6
CONTINUOUS
10
-83.025
20
-20.975
11
-96.975
21
-20.975
0
LINE
8
BLACK
6
CONTINUOUS
10
-96.975
20
-20.975
11
-96.975
21
-7.025
0
CIRCLE
8
BLACK
10
-120.25
20
-49.75
40
1.1
0
LINE
8
BLACK
6
CONTINUOUS
10
-3.475
20
-36.9
11
-1.975
21
-36.9
0
LINE
8
BLACK
6
CONTINUOUS
10
-1.975
20
-36.9
11
-1.975
21
-32.9
0
LINE
8
BLACK
6
CONTINUOUS
10
-7.975
20
-30.4
11
-7.975
21
-39.4
0
LINE
8
BLACK
6
CONTINUOUS
10
-3.475
20
-30.4
11
-7.975
21
-30.4
0
LINE
8
BLACK
6
CONTINUOUS
10
-3.475
20
-32.9
11
-3.475
21
-30.4
0
LINE
8
BLACK
6
CONTINUOUS
10
-1.975
20
-32.9
11
-3.475
21
-32.9
0
LINE
8
BLACK
6
CONTINUOUS
10
-3.475
20
-39.4
11
-3.475
21
-36.9
0
LINE
8
BLACK
6
CONTINUOUS
10
-7.975
20
-39.4
11
-3.475
21
-39.4
0
LINE
8
BLACK
6
CONTINUOUS
10
-58.975
20
-60.5
11
-45.025
21
-60.5
0
LINE
8
BLACK
6
CONTINUOUS
10
-58.975
20
-45.525
11
-58.975
21
-44.5
0
LINE
8
BLACK
6
CONTINUOUS
10
-45.025
20
-59.475
11
-45.025
21
-60.5
0
LINE
8
BLACK
6
CONTINUOUS
10
-58.975
20
-59.475
11
-58.975
21
-60.5
0
LINE
8
BLACK
6
CONTINUOUS
10
-45.025
20
-45.525
11
-45.025
21
-44.5
0
LINE
8
BLACK
6
CONTINUOUS
10
-58.975
20
-44.5
11
-45.025
21
-44.5
0
LINE
8
BLACK
6
CONTINUOUS
10
-58.975
20
-45.525
11
-45.025
21
-45.525
0
LINE
8
BLACK
6
CONTINUOUS
10
-45.025
20
-45.525
11
-45.025
21
-59.475
0
LINE
8
BLACK
6
CONTINUOUS
10
-45.025
20
-59.475
11
-58.975
21
-59.475
0
LINE
8
BLACK
6
CONTINUOUS
10
-58.975
20
-59.475
11
-58.975
21
-45.525
0
LINE
8
BLACK
6
CONTINUOUS
10
-49.2926
20
-79.1821
11
-49.5579
21
-80.1721
0
LINE
8
BLACK
6
CONTINUOUS
10
-45.4168
20
-64.7173
11
-31.9421
21
-68.3279
0
LINE
8
BLACK
6
CONTINUOUS
10
-45.6821
20
-65.7074
11
-45.4168
21
-64.7173
0
LINE
8
BLACK
6
CONTINUOUS
10
-35.8179
20
-82.7926
11
-36.0832
21
-83.7827
0
LINE
8
BLACK
6
CONTINUOUS
10
-32.2074
20
-69.3179
11
-31.9421
21
-68.3279
0
LINE
8
BLACK
6
CONTINUOUS
10
-49.5579
20
-80.1721
11
-36.0832
21
-83.7827
0
LINE
8
BLACK
6
CONTINUOUS
10
-45.6821
20
-65.7074
11
-32.2074
21
-69.3179
0
LINE
8
BLACK
6
CONTINUOUS
10
-32.2074
20
-69.3179
11
-35.8179
21
-82.7926
0
LINE
8
BLACK
6
CONTINUOUS
10
-35.8179
20
-82.7926
11
-49.2926
21
-79.1821
0
LINE
8
BLACK
6
CONTINUOUS
10
-49.2926
20
-79.1821
11
-45.6821
21
-65.7074
0
LINE
8
BLACK
6
CONTINUOUS
10
-58.975
20
-22.5
11
-45.025
21
-22.5
0
LINE
8
BLACK
6
CONTINUOUS
10
-58.975
20
-7.525
11
-58.975
21
-6.5
0
LINE
8
BLACK
6
CONTINUOUS
10
-45.025
20
-21.475
11
-45.025
21
-22.5
0
LINE
8
BLACK
6
CONTINUOUS
10
-45.025
20
-7.525
11
-45.025
21
-6.5
0
LINE
8
BLACK
6
CONTINUOUS
10
-58.975
20
-6.5
11
-45.025
21
-6.5
0
LINE
8
BLACK
6
CONTINUOUS
10
-58.975
20
-21.475
11
-58.975
21
-22.5
0
LINE
8
BLACK
6
CONTINUOUS
10
-58.975
20
-7.525
11
-45.025
21
-7.525
0
LINE
8
BLACK
6
CONTINUOUS
10
-45.025
20
-7.525
11
-45.025
21
-21.475
0
LINE
8
BLACK
6
CONTINUOUS
10
-45.025
20
-21.475
11
-58.975
21
-21.475
0
LINE
8
BLACK
6
CONTINUOUS
10
-58.975
20
-21.475
11
-58.975
21
-7.525
0
LINE
8
BLACK
6
CONTINUOUS
10
-137.556
20
-34.7595
11
-137.646
21
-33.7384
0
LINE
8
BLACK
6
CONTINUOUS
10
-137.646
20
-33.7384
11
-123.749
21
-32.5225
0
LINE
8
BLACK
6
CONTINUOUS
10
-123.659
20
-33.5436
11
-123.749
21
-32.5225
0
LINE
8
BLACK
6
CONTINUOUS
10
-136.341
20
-48.6564
11
-136.251
21
-49.6775
0
LINE
8
BLACK
6
CONTINUOUS
10
-136.251
20
-49.6775
11
-122.354
21
-48.4616
0
LINE
8
BLACK
6
CONTINUOUS
10
-122.444
20
-47.4405
11
-122.354
21
-48.4616
0
LINE
8
BLACK
6
CONTINUOUS
10
-137.556
20
-34.7595
11
-123.659
21
-33.5436
0
LINE
8
BLACK
6
CONTINUOUS
10
-123.659
20
-33.5436
11
-122.444
21
-47.4405
0
LINE
8
BLACK
6
CONTINUOUS
10
-122.444
20
-47.4405
11
-136.341
21
-48.6564
0
LINE
8
BLACK
6
CONTINUOUS
10
-136.341
20
-48.6564
11
-137.556
21
-34.7595
0
LINE
8
BLACK
6
CONTINUOUS
10
-15.947
20
-87.528
11
-15.0593
21
-88.0405
0
LINE
8
BLACK
6
CONTINUOUS
10
-28.9157
20
-80.0405
11
-21.9407
21
-67.9595
0
LINE
8
BLACK
6
CONTINUOUS
10
-21.053
20
-68.472
11
-21.9407
21
-67.9595
0
LINE
8
BLACK
6
CONTINUOUS
10
-28.028
20
-80.553
11
-28.9157
21
-80.0405
0
LINE
8
BLACK
6
CONTINUOUS
10
-15.0593
20
-88.0405
11
-8.0843
21
-75.9595
0
LINE
8
BLACK
6
CONTINUOUS
10
-8.97197
20
-75.447
11
-8.0843
21
-75.9595
0
LINE
8
BLACK
6
CONTINUOUS
10
-28.028
20
-80.553
11
-21.053
21
-68.472
0
LINE
8
BLACK
6
CONTINUOUS
10
-21.053
20
-68.472
11
-8.97197
21
-75.447
0
LINE
8
BLACK
6
CONTINUOUS
10
-8.97197
20
-75.447
11
-15.947
21
-87.528
0
LINE
8
BLACK
6
CONTINUOUS
10
-15.947
20
-87.528
11
-28.028
21
-80.553
0
CIRCLE
8
BLACK
10
-41.5
20
-26
40
1.1
0
LINE
8
BLACK
6
CONTINUOUS
10
-6.6
20
-49.25
11
-6.6
21
-45.85
0
LINE
8
BLACK
6
CONTINUOUS
10
-6.6
20
-58.65
11
-19.4
21
-58.65
0
LINE
8
BLACK
6
CONTINUOUS
10
-19.4
20
-55.25
11
-19.4
21
-58.65
0
LINE
8
BLACK
6
CONTINUOUS
10
-19.4
20
-45.85
11
-19.4
21
-49.25
0
LINE
8
BLACK
6
CONTINUOUS
10
-19.4
20
-55.25
11
-19.4
21
-49.25
0
LINE
8
BLACK
6
CONTINUOUS
10
-6.6
20
-55.25
11
-6.6
21
-49.25
0
LINE
8
BLACK
6
CONTINUOUS
10
-6.6
20
-58.65
11
-6.6
21
-55.25
0
LINE
8
BLACK
6
CONTINUOUS
10
-19.4
20
-45.85
11
-6.6
21
-45.85
0
LINE
8
BLACK
6
CONTINUOUS
10
-118.451
20
-34.4775
11
-104.554
21
-33.2616
0
LINE
8
BLACK
6
CONTINUOUS
10
-119.756
20
-19.5595
11
-119.846
21
-18.5384
0
LINE
8
BLACK
6
CONTINUOUS
10
-118.541
20
-33.4564
11
-118.451
21
-34.4775
0
LINE
8
BLACK
6
CONTINUOUS
10
-119.846
20
-18.5384
11
-105.949
21
-17.3225
0
LINE
8
BLACK
6
CONTINUOUS
10
-104.644
20
-32.2405
11
-104.554
21
-33.2616
0
LINE
8
BLACK
6
CONTINUOUS
10
-105.859
20
-18.3436
11
-105.949
21
-17.3225
0
LINE
8
BLACK
6
CONTINUOUS
10
-119.756
20
-19.5595
11
-105.859
21
-18.3436
0
LINE
8
BLACK
6
CONTINUOUS
10
-105.859
20
-18.3436
11
-104.644
21
-32.2405
0
LINE
8
BLACK
6
CONTINUOUS
10
-104.644
20
-32.2405
11
-118.541
21
-33.4564
0
LINE
8
BLACK
6
CONTINUOUS
10
-118.541
20
-33.4564
11
-119.756
21
-19.5595
0
LINE
8
BLACK
6
CONTINUOUS
10
-77.975
20
-3.025
11
-77.975
21
-2
0
LINE
8
BLACK
6
CONTINUOUS
10
-64.025
20
-3.025
11
-64.025
21
-2
0
LINE
8
BLACK
6
CONTINUOUS
10
-77.975
20
-16.975
11
-77.975
21
-18
0
LINE
8
BLACK
6
CONTINUOUS
10
-64.025
20
-16.975
11
-64.025
21
-18
0
LINE
8
BLACK
6
CONTINUOUS
10
-77.975
20
-18
11
-64.025
21
-18
0
LINE
8
BLACK
6
CONTINUOUS
10
-77.975
20
-2
11
-64.025
21
-2
0
LINE
8
BLACK
6
CONTINUOUS
10
-77.975
20
-3.025
11
-64.025
21
-3.025
0
LINE
8
BLACK
6
CONTINUOUS
10
-64.025
20
-3.025
11
-64.025
21
-16.975
0
LINE
8
BLACK
6
CONTINUOUS
10
-64.025
20
-16.975
11
-77.975
21
-16.975
0
LINE
8
BLACK
6
CONTINUOUS
10
-77.975
20
-16.975
11
-77.975
21
-3.025
0
LINE
8
BLACK
6
CONTINUOUS
10
-77.975
20
-22.025
11
-77.975
21
-21
0
LINE
8
BLACK
6
CONTINUOUS
10
-64.025
20
-35.975
11
-64.025
21
-37
0
LINE
8
BLACK
6
CONTINUOUS
10
-77.975
20
-21
11
-64.025
21
-21
0
LINE
8
BLACK
6
CONTINUOUS
10
-64.025
20
-22.025
11
-64.025
21
-21
0
LINE
8
BLACK
6
CONTINUOUS
10
-77.975
20
-35.975
11
-77.975
21
-37
0
LINE
8
BLACK
6
CONTINUOUS
10
-77.975
20
-37
11
-64.025
21
-37
0
LINE
8
BLACK
6
CONTINUOUS
10
-77.975
20
-22.025
11
-64.025
21
-22.025
0
LINE
8
BLACK
6
CONTINUOUS
10
-64.025
20
-22.025
11
-64.025
21
-35.975
0
LINE
8
BLACK
6
CONTINUOUS
10
-64.025
20
-35.975
11
-77.975
21
-35.975
0
LINE
8
BLACK
6
CONTINUOUS
10
-77.975
20
-35.975
11
-77.975
21
-22.025
0
CIRCLE
8
BLACK
10
-100.7
20
-23.5
40
1.1
0
LINE
8
BLACK
6
CONTINUOUS
10
-96.975
20
-25
11
-83.025
21
-25
0
LINE
8
BLACK
6
CONTINUOUS
10
-96.975
20
-39.975
11
-96.975
21
-41
0
LINE
8
BLACK
6
CONTINUOUS
10
-83.025
20
-39.975
11
-83.025
21
-41
0
LINE
8
BLACK
6
CONTINUOUS
10
-96.975
20
-26.025
11
-96.975
21
-25
0
LINE
8
BLACK
6
CONTINUOUS
10
-83.025
20
-26.025
11
-83.025
21
-25
0
LINE
8
BLACK
6
CONTINUOUS
10
-96.975
20
-41
11
-83.025
21
-41
0
LINE
8
BLACK
6
CONTINUOUS
10
-96.975
20
-26.025
11
-83.025
21
-26.025
0
LINE
8
BLACK
6
CONTINUOUS
10
-83.025
20
-26.025
11
-83.025
21
-39.975
0
LINE
8
BLACK
6
CONTINUOUS
10
-83.025
20
-39.975
11
-96.975
21
-39.975
0
LINE
8
BLACK
6
CONTINUOUS
10
-96.975
20
-39.975
11
-96.975
21
-26.025
0
LINE
8
BLACK
6
CONTINUOUS
10
-134.551
20
-68.6775
11
-120.654
21
-67.4616
0
LINE
8
BLACK
6
CONTINUOUS
10
-135.946
20
-52.7384
11
-122.049
21
-51.5225
0
LINE
8
BLACK
6
CONTINUOUS
10
-135.856
20
-53.7595
11
-135.946
21
-52.7384
0
LINE
8
BLACK
6
CONTINUOUS
10
-134.641
20
-67.6564
11
-134.551
21
-68.6775
0
LINE
8
BLACK
6
CONTINUOUS
10
-121.959
20
-52.5436
11
-122.049
21
-51.5225
0
LINE
8
BLACK
6
CONTINUOUS
10
-120.744
20
-66.4405
11
-120.654
21
-67.4616
0
LINE
8
BLACK
6
CONTINUOUS
10
-135.856
20
-53.7595
11
-121.959
21
-52.5436
0
LINE
8
BLACK
6
CONTINUOUS
10
-121.959
20
-52.5436
11
-120.744
21
-66.4405
0
LINE
8
BLACK
6
CONTINUOUS
10
-120.744
20
-66.4405
11
-134.641
21
-67.6564
0
LINE
8
BLACK
6
CONTINUOUS
10
-134.641
20
-67.6564
11
-135.856
21
-53.7595
0
LINE
8
BLACK
6
CONTINUOUS
10
-16.35
20
-39
11
-16.35
21
-45.5
0
LINE
8
BLACK
6
CONTINUOUS
10
-3.35
20
-45
11
-1.35
21
-45
0
LINE
8
BLACK
6
CONTINUOUS
10
-3.35
20
-39
11
-16.35
21
-39
0
LINE
8
BLACK
6
CONTINUOUS
10
-1.35
20
-45
11
-1.35
21
-39.5
0
LINE
8
BLACK
6
CONTINUOUS
10
-16.35
20
-45.5
11
-3.35
21
-45.5
0
LINE
8
BLACK
6
CONTINUOUS
10
-1.35
20
-39.5
11
-3.35
21
-39.5
0
LINE
8
BLACK
6
CONTINUOUS
10
-3.35
20
-39.5
11
-3.35
21
-39
0
LINE
8
BLACK
6
CONTINUOUS
10
-3.35
20
-45.5
11
-3.35
21
-45
0
LINE
8
BLACK
6
CONTINUOUS
10
-55.025
20
-78.475
11
-55.025
21
-79.5
0
LINE
8
BLACK
6
CONTINUOUS
10
-68.975
20
-79.5
11
-55.025
21
-79.5
0
LINE
8
BLACK
6
CONTINUOUS
10
-55.025
20
-64.525
11
-55.025
21
-63.5
0
LINE
8
BLACK
6
CONTINUOUS
10
-68.975
20
-64.525
11
-68.975
21
-63.5
0
LINE
8
BLACK
6
CONTINUOUS
10
-68.975
20
-78.475
11
-68.975
21
-79.5
0
LINE
8
BLACK
6
CONTINUOUS
10
-68.975
20
-63.5
11
-55.025
21
-63.5
0
LINE
8
BLACK
6
CONTINUOUS
10
-68.975
20
-64.525
11
-55.025
21
-64.525
0
LINE
8
BLACK
6
CONTINUOUS
10
-55.025
20
-64.525
11
-55.025
21
-78.475
0
LINE
8
BLACK
6
CONTINUOUS
10
-55.025
20
-78.475
11
-68.975
21
-78.475
0
LINE
8
BLACK
6
CONTINUOUS
10
-68.975
20
-78.475
11
-68.975
21
-64.525
0
LINE
8
BLACK
6
CONTINUOUS
10
-58.975
20
-41.5
11
-45.025
21
-41.5
0
LINE
8
BLACK
6
CONTINUOUS
10
-58.975
20
-25.5
11
-45.025
21
-25.5
0
LINE
8
BLACK
6
CONTINUOUS
10
-58.975
20
-40.475
11
-58.975
21
-41.5
0
LINE
8
BLACK
6
CONTINUOUS
10
-45.025
20
-40.475
11
-45.025
21
-41.5
0
LINE
8
BLACK
6
CONTINUOUS
10
-45.025
20
-26.525
11
-45.025
21
-25.5
0
LINE
8
BLACK
6
CONTINUOUS
10
-58.975
20
-26.525
11
-58.975
21
-25.5
0
LINE
8
BLACK
6
CONTINUOUS
10
-58.975
20
-26.525
11
-45.025
21
-26.525
0
LINE
8
BLACK
6
CONTINUOUS
10
-45.025
20
-26.525
11
-45.025
21
-40.475
0
LINE
8
BLACK
6
CONTINUOUS
10
-45.025
20
-40.475
11
-58.975
21
-40.475
0
LINE
8
BLACK
6
CONTINUOUS
10
-58.975
20
-40.475
11
-58.975
21
-26.525
0
LINE
8
BLACK
6
CONTINUOUS
10
-102.994
20
-51.1905
11
-102.904
21
-52.2116
0
LINE
8
BLACK
6
CONTINUOUS
10
-116.891
20
-52.4064
11
-116.801
21
-53.4275
0
LINE
8
BLACK
6
CONTINUOUS
10
-118.196
20
-37.4884
11
-104.299
21
-36.2725
0
LINE
8
BLACK
6
CONTINUOUS
10
-118.106
20
-38.5095
11
-118.196
21
-37.4884
0
LINE
8
BLACK
6
CONTINUOUS
10
-104.209
20
-37.2936
11
-104.299
21
-36.2725
0
LINE
8
BLACK
6
CONTINUOUS
10
-116.801
20
-53.4275
11
-102.904
21
-52.2116
0
LINE
8
BLACK
6
CONTINUOUS
10
-118.106
20
-38.5095
11
-104.209
21
-37.2936
0
LINE
8
BLACK
6
CONTINUOUS
10
-104.209
20
-37.2936
11
-102.994
21
-51.1905
0
LINE
8
BLACK
6
CONTINUOUS
10
-102.994
20
-51.1905
11
-116.891
21
-52.4064
0
LINE
8
BLACK
6
CONTINUOUS
10
-116.891
20
-52.4064
11
-118.106
21
-38.5095
0
CIRCLE
8
BLACK
10
-79.5
20
-58
40
1.1
  0
ENDSEC
  0
EOF
