  0
SECTION
  2
HEADER
  9
$ANGBASE
  50
0.0
  9
$ANGDIR
  70
1
  9
$MEASUREMENT
  70
1
  0
ENDSEC
  0
SECTION
  2
TABLES
  0
TABLE
  2
LTYPE
  70
4
  0
LTYPE
  5
40F
  2
CONTINUOUS
  70
0
  3
Solid line
  72
65
  73
0
  40
0.0
  0
LTYPE
  5
410
  2
DASHDOT
 70
0
  3
Dash Dot ____ _ ____ _
 72
65
 73
4
 40
2.0
 49
1.25
 49
-0.25
 49
0.25
 49
-0.25
  0
LTYPE
  5
411
  2
DASHED
 70
0
  3
Dashed __ __ __ __ __
 72
65
 73
2
 40
0.75
 49
0.5
 49
-0.25
  0
LTYPE
  5
43B
  2
DOTTED
 70
0
  3
Dotted .  .  .  .
 72
65
 73
2
 40
0.2
 49
0.0
 49
-0.2
  0
ENDTAB
  0
TABLE
  2
STYLE
  70
4
  0
STYLE
  2
KICAD
  70
0
  40
0
  41
1
  42
1
  50
0
  71
0
  3
isocp.shx
  0
STYLE
  2
KICADB
  70
0
  40
0
  41
1
  42
1
  50
0
  71
0
  3
isocp.shx
  0
STYLE
  2
KICADI
  70
0
  40
0
  41
1
  42
1
  50
15
  71
0
  3
isocp.shx
  0
STYLE
  2
KICADBI
  70
0
  40
0
  41
1
  42
1
  50
15
  71
0
  3
isocp.shx
  0
ENDTAB
  0
TABLE
  2
LAYER
  70
1
  0
LAYER
  2
BLACK
  70
0
  62
7
  6
CONTINUOUS
  0
ENDTAB
  0
ENDSEC
  0
SECTION
  2
ENTITIES
0
ARC
8
BLACK
10
175
20
-48.375
40
1.625
50
-157.38
51
-90
0
LINE
8
BLACK
6
CONTINUOUS
10
73.9
20
-68.4
11
78.5
21
-119.9
0
LINE
8
BLACK
6
CONTINUOUS
10
212.549
20
-47
11
212.5
21
-115
0
LINE
8
BLACK
6
CONTINUOUS
10
163
20
-125
11
144
21
-125
0
ARC
8
BLACK
10
206.412
20
-137.579
40
5.97548
50
-120
51
60
0
ARC
8
BLACK
10
199
20
-51
40
1.5
50
-90
51
-0
0
LINE
8
BLACK
6
CONTINUOUS
10
117
20
-47.5
11
133
21
-47.5
0
LINE
8
BLACK
6
CONTINUOUS
10
113.926
20
-58.4002
11
79.7
21
-61.3
0
ARC
8
BLACK
10
117
20
-49.0001
40
1.5001
50
90.0038
51
179.996
0
ARC
8
BLACK
10
136
20
-45.0001
40
1.5001
50
90.0038
51
179.996
0
LINE
8
BLACK
6
CONTINUOUS
10
156
20
-48
11
172
21
-48
0
LINE
8
BLACK
6
CONTINUOUS
10
203.425
20
-142.754
11
181.5
21
-130
0
ARC
8
BLACK
10
206.242
20
-128.861
40
1.47374
50
-211.086
51
-124.991
0
LINE
8
BLACK
6
CONTINUOUS
10
117
20
-116.5
11
144
21
-125
0
LINE
8
BLACK
6
CONTINUOUS
10
199
20
-52.5
11
194
21
-52.5
0
LINE
8
BLACK
6
CONTINUOUS
10
134.5
20
-45
11
134.5
21
-46
0
ARC
8
BLACK
10
100.02
20
-130.439
40
12.4099
50
96.1066
51
145.441
0
ARC
8
BLACK
10
113.848
20
-56.75
40
1.6521
50
-87.2974
51
-0
0
LINE
8
BLACK
6
CONTINUOUS
10
115.5
20
-49
11
115.5
21
-56.75
0
ARC
8
BLACK
10
206.549
20
-47
40
6
50
-360
51
-180
0
LINE
8
BLACK
6
CONTINUOUS
10
98.7
20
-118.1
11
117
21
-116.5
0
ARC
8
BLACK
10
172
20
-49.625
40
1.625
50
22.6199
51
90
0
LINE
8
BLACK
6
CONTINUOUS
10
154.5
20
-46.5
11
154.5
21
-45
0
ARC
8
BLACK
10
194
20
-50.975
40
1.525
50
-169.611
51
-90
0
LINE
8
BLACK
6
CONTINUOUS
10
200.549
20
-47
11
200.5
21
-51
0
ARC
8
BLACK
10
84.8507
20
-119.388
40
6.37139
50
-175.387
51
-39.0322
0
LINE
8
BLACK
6
CONTINUOUS
10
204.98
20
-128.1
11
212.5
21
-115
0
ARC
8
BLACK
10
80.4182
20
-67.8057
40
6.54524
50
-263.7
51
-174.79
0
ARC
8
BLACK
10
153
20
-45
40
1.5
50
-0
51
90
0
LINE
8
BLACK
6
CONTINUOUS
10
175
20
-50
11
191
21
-50
0
ARC
8
BLACK
10
191
20
-51.525
40
1.525
50
10.3889
51
90
0
ARC
8
BLACK
10
133
20
-46.0001
40
1.4999
50
-90.0038
51
0.00381997
0
LINE
8
BLACK
6
CONTINUOUS
10
163
20
-125
11
181.5
21
-130
0
LINE
8
BLACK
6
CONTINUOUS
10
153
20
-43.5
11
136
21
-43.5
0
ARC
8
BLACK
10
156
20
-46.5
40
1.5
50
-180
51
-90
0
LINE
8
BLACK
6
CONTINUOUS
10
205.397
20
-130.068
11
209.4
21
-132.404
0
CIRCLE
8
BLACK
10
206.5
20
-47
40
2.25
0
CIRCLE
8
BLACK
10
206.4
20
-137.6
40
2.25
0
CIRCLE
8
BLACK
10
80.1
20
-67.5
40
2.25
0
CIRCLE
8
BLACK
10
84.9
20
-119.5
40
2.25
0
CIRCLE
8
BLACK
10
174
20
-69.5
40
1.15
0
CIRCLE
8
BLACK
10
196.5
20
-76.5
40
1.15
0
CIRCLE
8
BLACK
10
136
20
-101.5
40
1.15
0
CIRCLE
8
BLACK
10
205.25
20
-76.5
40
1.15
0
CIRCLE
8
BLACK
10
114.8
20
-67
40
1.15
0
CIRCLE
8
BLACK
10
114.8
20
-67
40
1.15
0
CIRCLE
8
BLACK
10
187.5
20
-115.5
40
1.15
0
CIRCLE
8
BLACK
10
95.25
20
-93.25
40
1.15
0
CIRCLE
8
BLACK
10
95.25
20
-93.25
40
1.15
  0
ENDSEC
  0
EOF
