  0
SECTION
  2
HEADER
  9
$ANGBASE
  50
0.0
  9
$ANGDIR
  70
1
  9
$MEASUREMENT
  70
1
  0
ENDSEC
  0
SECTION
  2
TABLES
  0
TABLE
  2
LTYPE
  70
4
  0
LTYPE
  5
40F
  2
CONTINUOUS
  70
0
  3
Solid line
  72
65
  73
0
  40
0.0
  0
LTYPE
  5
410
  2
DASHDOT
 70
0
  3
Dash Dot ____ _ ____ _
 72
65
 73
4
 40
2.0
 49
1.25
 49
-0.25
 49
0.25
 49
-0.25
  0
LTYPE
  5
411
  2
DASHED
 70
0
  3
Dashed __ __ __ __ __
 72
65
 73
2
 40
0.75
 49
0.5
 49
-0.25
  0
LTYPE
  5
43B
  2
DOTTED
 70
0
  3
Dotted .  .  .  .
 72
65
 73
2
 40
0.2
 49
0.0
 49
-0.2
  0
ENDTAB
  0
TABLE
  2
STYLE
  70
4
  0
STYLE
  2
KICAD
  70
0
  40
0
  41
1
  42
1
  50
0
  71
0
  3
isocp.shx
  0
STYLE
  2
KICADB
  70
0
  40
0
  41
1
  42
1
  50
0
  71
0
  3
isocp.shx
  0
STYLE
  2
KICADI
  70
0
  40
0
  41
1
  42
1
  50
15
  71
0
  3
isocp.shx
  0
STYLE
  2
KICADBI
  70
0
  40
0
  41
1
  42
1
  50
15
  71
0
  3
isocp.shx
  0
ENDTAB
  0
TABLE
  2
LAYER
  70
1
  0
LAYER
  2
BLACK
  70
0
  62
7
  6
CONTINUOUS
  0
ENDTAB
  0
ENDSEC
  0
SECTION
  2
ENTITIES
0
LINE
8
BLACK
6
CONTINUOUS
10
176.12
20
-121.856
11
176.327
21
-121.897
0
LINE
8
BLACK
6
CONTINUOUS
10
176.327
20
-121.897
11
176.522
21
-121.975
0
LINE
8
BLACK
6
CONTINUOUS
10
176.522
20
-121.975
11
176.7
21
-122.088
0
LINE
8
BLACK
6
CONTINUOUS
10
176.7
20
-122.088
11
176.855
21
-122.23
0
LINE
8
BLACK
6
CONTINUOUS
10
176.855
20
-122.23
11
176.981
21
-122.399
0
LINE
8
BLACK
6
CONTINUOUS
10
176.981
20
-122.399
11
177.074
21
-122.588
0
LINE
8
BLACK
6
CONTINUOUS
10
177.074
20
-122.588
11
177.131
21
-122.79
0
LINE
8
BLACK
6
CONTINUOUS
10
177.131
20
-122.79
11
177.15
21
-123
0
LINE
8
BLACK
6
CONTINUOUS
10
177.15
20
-123
11
177.148
21
-123.06
0
LINE
8
BLACK
6
CONTINUOUS
10
177.148
20
-123.06
11
177.118
21
-123.268
0
LINE
8
BLACK
6
CONTINUOUS
10
177.118
20
-123.268
11
177.051
21
-123.468
0
LINE
8
BLACK
6
CONTINUOUS
10
177.051
20
-123.468
11
176.948
21
-123.651
0
LINE
8
BLACK
6
CONTINUOUS
10
176.948
20
-123.651
11
176.813
21
-123.813
0
LINE
8
BLACK
6
CONTINUOUS
10
176.813
20
-123.813
11
176.651
21
-123.948
0
LINE
8
BLACK
6
CONTINUOUS
10
176.651
20
-123.948
11
176.468
21
-124.051
0
LINE
8
BLACK
6
CONTINUOUS
10
176.468
20
-124.051
11
176.268
21
-124.118
0
LINE
8
BLACK
6
CONTINUOUS
10
176.268
20
-124.118
11
176.06
21
-124.148
0
LINE
8
BLACK
6
CONTINUOUS
10
176.06
20
-124.148
11
175.85
21
-124.14
0
LINE
8
BLACK
6
CONTINUOUS
10
175.85
20
-124.14
11
175.645
21
-124.094
0
LINE
8
BLACK
6
CONTINUOUS
10
175.645
20
-124.094
11
175.451
21
-124.011
0
LINE
8
BLACK
6
CONTINUOUS
10
175.451
20
-124.011
11
175.276
21
-123.894
0
LINE
8
BLACK
6
CONTINUOUS
10
175.276
20
-123.894
11
175.126
21
-123.747
0
LINE
8
BLACK
6
CONTINUOUS
10
175.126
20
-123.747
11
175.004
21
-123.575
0
LINE
8
BLACK
6
CONTINUOUS
10
175.004
20
-123.575
11
174.916
21
-123.384
0
LINE
8
BLACK
6
CONTINUOUS
10
174.916
20
-123.384
11
174.864
21
-123.18
0
LINE
8
BLACK
6
CONTINUOUS
10
174.864
20
-123.18
11
174.85
21
-122.97
0
LINE
8
BLACK
6
CONTINUOUS
10
174.85
20
-122.97
11
174.875
21
-122.761
0
LINE
8
BLACK
6
CONTINUOUS
10
174.875
20
-122.761
11
174.938
21
-122.56
0
LINE
8
BLACK
6
CONTINUOUS
10
174.938
20
-122.56
11
175.036
21
-122.374
0
LINE
8
BLACK
6
CONTINUOUS
10
175.036
20
-122.374
11
175.166
21
-122.208
0
LINE
8
BLACK
6
CONTINUOUS
10
175.166
20
-122.208
11
175.324
21
-122.07
0
LINE
8
BLACK
6
CONTINUOUS
10
175.324
20
-122.07
11
175.505
21
-121.962
0
LINE
8
BLACK
6
CONTINUOUS
10
175.505
20
-121.962
11
175.702
21
-121.889
0
LINE
8
BLACK
6
CONTINUOUS
10
175.702
20
-121.889
11
175.91
21
-121.854
0
LINE
8
BLACK
6
CONTINUOUS
10
175.91
20
-121.854
11
176.12
21
-121.856
0
LINE
8
BLACK
6
CONTINUOUS
10
124.62
20
-107.856
11
124.827
21
-107.897
0
LINE
8
BLACK
6
CONTINUOUS
10
124.827
20
-107.897
11
125.022
21
-107.975
0
LINE
8
BLACK
6
CONTINUOUS
10
125.022
20
-107.975
11
125.2
21
-108.088
0
LINE
8
BLACK
6
CONTINUOUS
10
125.2
20
-108.088
11
125.355
21
-108.23
0
LINE
8
BLACK
6
CONTINUOUS
10
125.355
20
-108.23
11
125.481
21
-108.399
0
LINE
8
BLACK
6
CONTINUOUS
10
125.481
20
-108.399
11
125.574
21
-108.588
0
LINE
8
BLACK
6
CONTINUOUS
10
125.574
20
-108.588
11
125.631
21
-108.79
0
LINE
8
BLACK
6
CONTINUOUS
10
125.631
20
-108.79
11
125.65
21
-109
0
LINE
8
BLACK
6
CONTINUOUS
10
125.65
20
-109
11
125.648
21
-109.06
0
LINE
8
BLACK
6
CONTINUOUS
10
125.648
20
-109.06
11
125.618
21
-109.268
0
LINE
8
BLACK
6
CONTINUOUS
10
125.618
20
-109.268
11
125.551
21
-109.468
0
LINE
8
BLACK
6
CONTINUOUS
10
125.551
20
-109.468
11
125.448
21
-109.651
0
LINE
8
BLACK
6
CONTINUOUS
10
125.448
20
-109.651
11
125.313
21
-109.813
0
LINE
8
BLACK
6
CONTINUOUS
10
125.313
20
-109.813
11
125.151
21
-109.948
0
LINE
8
BLACK
6
CONTINUOUS
10
125.151
20
-109.948
11
124.968
21
-110.051
0
LINE
8
BLACK
6
CONTINUOUS
10
124.968
20
-110.051
11
124.768
21
-110.118
0
LINE
8
BLACK
6
CONTINUOUS
10
124.768
20
-110.118
11
124.56
21
-110.148
0
LINE
8
BLACK
6
CONTINUOUS
10
124.56
20
-110.148
11
124.35
21
-110.14
0
LINE
8
BLACK
6
CONTINUOUS
10
124.35
20
-110.14
11
124.145
21
-110.094
0
LINE
8
BLACK
6
CONTINUOUS
10
124.145
20
-110.094
11
123.951
21
-110.011
0
LINE
8
BLACK
6
CONTINUOUS
10
123.951
20
-110.011
11
123.776
21
-109.894
0
LINE
8
BLACK
6
CONTINUOUS
10
123.776
20
-109.894
11
123.626
21
-109.747
0
LINE
8
BLACK
6
CONTINUOUS
10
123.626
20
-109.747
11
123.504
21
-109.575
0
LINE
8
BLACK
6
CONTINUOUS
10
123.504
20
-109.575
11
123.416
21
-109.384
0
LINE
8
BLACK
6
CONTINUOUS
10
123.416
20
-109.384
11
123.364
21
-109.18
0
LINE
8
BLACK
6
CONTINUOUS
10
123.364
20
-109.18
11
123.35
21
-108.97
0
LINE
8
BLACK
6
CONTINUOUS
10
123.35
20
-108.97
11
123.375
21
-108.761
0
LINE
8
BLACK
6
CONTINUOUS
10
123.375
20
-108.761
11
123.438
21
-108.56
0
LINE
8
BLACK
6
CONTINUOUS
10
123.438
20
-108.56
11
123.536
21
-108.374
0
LINE
8
BLACK
6
CONTINUOUS
10
123.536
20
-108.374
11
123.666
21
-108.208
0
LINE
8
BLACK
6
CONTINUOUS
10
123.666
20
-108.208
11
123.824
21
-108.07
0
LINE
8
BLACK
6
CONTINUOUS
10
123.824
20
-108.07
11
124.005
21
-107.962
0
LINE
8
BLACK
6
CONTINUOUS
10
124.005
20
-107.962
11
124.202
21
-107.889
0
LINE
8
BLACK
6
CONTINUOUS
10
124.202
20
-107.889
11
124.41
21
-107.854
0
LINE
8
BLACK
6
CONTINUOUS
10
124.41
20
-107.854
11
124.62
21
-107.856
0
LINE
8
BLACK
6
CONTINUOUS
10
85.1202
20
-92.3563
11
85.3266
21
-92.3974
0
LINE
8
BLACK
6
CONTINUOUS
10
85.3266
20
-92.3974
11
85.5221
21
-92.4753
0
LINE
8
BLACK
6
CONTINUOUS
10
85.5221
20
-92.4753
11
85.7001
21
-92.5876
0
LINE
8
BLACK
6
CONTINUOUS
10
85.7001
20
-92.5876
11
85.8546
21
-92.7305
0
LINE
8
BLACK
6
CONTINUOUS
10
85.8546
20
-92.7305
11
85.9805
21
-92.8991
0
LINE
8
BLACK
6
CONTINUOUS
10
85.9805
20
-92.8991
11
86.0736
21
-93.0879
0
LINE
8
BLACK
6
CONTINUOUS
10
86.0736
20
-93.0879
11
86.1307
21
-93.2904
0
LINE
8
BLACK
6
CONTINUOUS
10
86.1307
20
-93.2904
11
86.15
21
-93.5
0
LINE
8
BLACK
6
CONTINUOUS
10
86.15
20
-93.5
11
86.1484
21
-93.5602
0
LINE
8
BLACK
6
CONTINUOUS
10
86.1484
20
-93.5602
11
86.1182
21
-93.7685
0
LINE
8
BLACK
6
CONTINUOUS
10
86.1182
20
-93.7685
11
86.0506
21
-93.9677
0
LINE
8
BLACK
6
CONTINUOUS
10
86.0506
20
-93.9677
11
85.9477
21
-94.1514
0
LINE
8
BLACK
6
CONTINUOUS
10
85.9477
20
-94.1514
11
85.8132
21
-94.3132
0
LINE
8
BLACK
6
CONTINUOUS
10
85.8132
20
-94.3132
11
85.6514
21
-94.4477
0
LINE
8
BLACK
6
CONTINUOUS
10
85.6514
20
-94.4477
11
85.4677
21
-94.5506
0
LINE
8
BLACK
6
CONTINUOUS
10
85.4677
20
-94.5506
11
85.2685
21
-94.6182
0
LINE
8
BLACK
6
CONTINUOUS
10
85.2685
20
-94.6182
11
85.0602
21
-94.6484
0
LINE
8
BLACK
6
CONTINUOUS
10
85.0602
20
-94.6484
11
84.8499
21
-94.6402
0
LINE
8
BLACK
6
CONTINUOUS
10
84.8499
20
-94.6402
11
84.6446
21
-94.5937
0
LINE
8
BLACK
6
CONTINUOUS
10
84.6446
20
-94.5937
11
84.4513
21
-94.5106
0
LINE
8
BLACK
6
CONTINUOUS
10
84.4513
20
-94.5106
11
84.2763
21
-94.3937
0
LINE
8
BLACK
6
CONTINUOUS
10
84.2763
20
-94.3937
11
84.1255
21
-94.2469
0
LINE
8
BLACK
6
CONTINUOUS
10
84.1255
20
-94.2469
11
84.0041
21
-94.075
0
LINE
8
BLACK
6
CONTINUOUS
10
84.0041
20
-94.075
11
83.916
21
-93.8839
0
LINE
8
BLACK
6
CONTINUOUS
10
83.916
20
-93.8839
11
83.8642
21
-93.6799
0
LINE
8
BLACK
6
CONTINUOUS
10
83.8642
20
-93.6799
11
83.8504
21
-93.4699
0
LINE
8
BLACK
6
CONTINUOUS
10
83.8504
20
-93.4699
11
83.8751
21
-93.2609
0
LINE
8
BLACK
6
CONTINUOUS
10
83.8751
20
-93.2609
11
83.9375
21
-93.0599
0
LINE
8
BLACK
6
CONTINUOUS
10
83.9375
20
-93.0599
11
84.0355
21
-92.8737
0
LINE
8
BLACK
6
CONTINUOUS
10
84.0355
20
-92.8737
11
84.1658
21
-92.7084
0
LINE
8
BLACK
6
CONTINUOUS
10
84.1658
20
-92.7084
11
84.324
21
-92.5696
0
LINE
8
BLACK
6
CONTINUOUS
10
84.324
20
-92.5696
11
84.5049
21
-92.462
0
LINE
8
BLACK
6
CONTINUOUS
10
84.5049
20
-92.462
11
84.7024
21
-92.3892
0
LINE
8
BLACK
6
CONTINUOUS
10
84.7024
20
-92.3892
11
84.9098
21
-92.3535
0
LINE
8
BLACK
6
CONTINUOUS
10
84.9098
20
-92.3535
11
85.1202
21
-92.3563
0
LINE
8
BLACK
6
CONTINUOUS
10
162.62
20
-75.8563
11
162.827
21
-75.8974
0
LINE
8
BLACK
6
CONTINUOUS
10
162.827
20
-75.8974
11
163.022
21
-75.9753
0
LINE
8
BLACK
6
CONTINUOUS
10
163.022
20
-75.9753
11
163.2
21
-76.0876
0
LINE
8
BLACK
6
CONTINUOUS
10
163.2
20
-76.0876
11
163.355
21
-76.2305
0
LINE
8
BLACK
6
CONTINUOUS
10
163.355
20
-76.2305
11
163.481
21
-76.3991
0
LINE
8
BLACK
6
CONTINUOUS
10
163.481
20
-76.3991
11
163.574
21
-76.5879
0
LINE
8
BLACK
6
CONTINUOUS
10
163.574
20
-76.5879
11
163.631
21
-76.7904
0
LINE
8
BLACK
6
CONTINUOUS
10
163.631
20
-76.7904
11
163.65
21
-77
0
LINE
8
BLACK
6
CONTINUOUS
10
163.65
20
-77
11
163.648
21
-77.0602
0
LINE
8
BLACK
6
CONTINUOUS
10
163.648
20
-77.0602
11
163.618
21
-77.2685
0
LINE
8
BLACK
6
CONTINUOUS
10
163.618
20
-77.2685
11
163.551
21
-77.4677
0
LINE
8
BLACK
6
CONTINUOUS
10
163.551
20
-77.4677
11
163.448
21
-77.6514
0
LINE
8
BLACK
6
CONTINUOUS
10
163.448
20
-77.6514
11
163.313
21
-77.8132
0
LINE
8
BLACK
6
CONTINUOUS
10
163.313
20
-77.8132
11
163.151
21
-77.9477
0
LINE
8
BLACK
6
CONTINUOUS
10
163.151
20
-77.9477
11
162.968
21
-78.0506
0
LINE
8
BLACK
6
CONTINUOUS
10
162.968
20
-78.0506
11
162.768
21
-78.1182
0
LINE
8
BLACK
6
CONTINUOUS
10
162.768
20
-78.1182
11
162.56
21
-78.1484
0
LINE
8
BLACK
6
CONTINUOUS
10
162.56
20
-78.1484
11
162.35
21
-78.1402
0
LINE
8
BLACK
6
CONTINUOUS
10
162.35
20
-78.1402
11
162.145
21
-78.0937
0
LINE
8
BLACK
6
CONTINUOUS
10
162.145
20
-78.0937
11
161.951
21
-78.0106
0
LINE
8
BLACK
6
CONTINUOUS
10
161.951
20
-78.0106
11
161.776
21
-77.8937
0
LINE
8
BLACK
6
CONTINUOUS
10
161.776
20
-77.8937
11
161.626
21
-77.7469
0
LINE
8
BLACK
6
CONTINUOUS
10
161.626
20
-77.7469
11
161.504
21
-77.575
0
LINE
8
BLACK
6
CONTINUOUS
10
161.504
20
-77.575
11
161.416
21
-77.3839
0
LINE
8
BLACK
6
CONTINUOUS
10
161.416
20
-77.3839
11
161.364
21
-77.1799
0
LINE
8
BLACK
6
CONTINUOUS
10
161.364
20
-77.1799
11
161.35
21
-76.9699
0
LINE
8
BLACK
6
CONTINUOUS
10
161.35
20
-76.9699
11
161.375
21
-76.7609
0
LINE
8
BLACK
6
CONTINUOUS
10
161.375
20
-76.7609
11
161.438
21
-76.5599
0
LINE
8
BLACK
6
CONTINUOUS
10
161.438
20
-76.5599
11
161.536
21
-76.3737
0
LINE
8
BLACK
6
CONTINUOUS
10
161.536
20
-76.3737
11
161.666
21
-76.2084
0
LINE
8
BLACK
6
CONTINUOUS
10
161.666
20
-76.2084
11
161.824
21
-76.0696
0
LINE
8
BLACK
6
CONTINUOUS
10
161.824
20
-76.0696
11
162.005
21
-75.962
0
LINE
8
BLACK
6
CONTINUOUS
10
162.005
20
-75.962
11
162.202
21
-75.8892
0
LINE
8
BLACK
6
CONTINUOUS
10
162.202
20
-75.8892
11
162.41
21
-75.8535
0
LINE
8
BLACK
6
CONTINUOUS
10
162.41
20
-75.8535
11
162.62
21
-75.8563
0
LINE
8
BLACK
6
CONTINUOUS
10
105.12
20
-73.3563
11
105.327
21
-73.3974
0
LINE
8
BLACK
6
CONTINUOUS
10
105.327
20
-73.3974
11
105.522
21
-73.4753
0
LINE
8
BLACK
6
CONTINUOUS
10
105.522
20
-73.4753
11
105.7
21
-73.5876
0
LINE
8
BLACK
6
CONTINUOUS
10
105.7
20
-73.5876
11
105.855
21
-73.7305
0
LINE
8
BLACK
6
CONTINUOUS
10
105.855
20
-73.7305
11
105.981
21
-73.8991
0
LINE
8
BLACK
6
CONTINUOUS
10
105.981
20
-73.8991
11
106.074
21
-74.0879
0
LINE
8
BLACK
6
CONTINUOUS
10
106.074
20
-74.0879
11
106.131
21
-74.2904
0
LINE
8
BLACK
6
CONTINUOUS
10
106.131
20
-74.2904
11
106.15
21
-74.5
0
LINE
8
BLACK
6
CONTINUOUS
10
106.15
20
-74.5
11
106.148
21
-74.5602
0
LINE
8
BLACK
6
CONTINUOUS
10
106.148
20
-74.5602
11
106.118
21
-74.7685
0
LINE
8
BLACK
6
CONTINUOUS
10
106.118
20
-74.7685
11
106.051
21
-74.9677
0
LINE
8
BLACK
6
CONTINUOUS
10
106.051
20
-74.9677
11
105.948
21
-75.1514
0
LINE
8
BLACK
6
CONTINUOUS
10
105.948
20
-75.1514
11
105.813
21
-75.3132
0
LINE
8
BLACK
6
CONTINUOUS
10
105.813
20
-75.3132
11
105.651
21
-75.4477
0
LINE
8
BLACK
6
CONTINUOUS
10
105.651
20
-75.4477
11
105.468
21
-75.5506
0
LINE
8
BLACK
6
CONTINUOUS
10
105.468
20
-75.5506
11
105.268
21
-75.6182
0
LINE
8
BLACK
6
CONTINUOUS
10
105.268
20
-75.6182
11
105.06
21
-75.6484
0
LINE
8
BLACK
6
CONTINUOUS
10
105.06
20
-75.6484
11
104.85
21
-75.6402
0
LINE
8
BLACK
6
CONTINUOUS
10
104.85
20
-75.6402
11
104.645
21
-75.5937
0
LINE
8
BLACK
6
CONTINUOUS
10
104.645
20
-75.5937
11
104.451
21
-75.5106
0
LINE
8
BLACK
6
CONTINUOUS
10
104.451
20
-75.5106
11
104.276
21
-75.3937
0
LINE
8
BLACK
6
CONTINUOUS
10
104.276
20
-75.3937
11
104.126
21
-75.2469
0
LINE
8
BLACK
6
CONTINUOUS
10
104.126
20
-75.2469
11
104.004
21
-75.075
0
LINE
8
BLACK
6
CONTINUOUS
10
104.004
20
-75.075
11
103.916
21
-74.8839
0
LINE
8
BLACK
6
CONTINUOUS
10
103.916
20
-74.8839
11
103.864
21
-74.6799
0
LINE
8
BLACK
6
CONTINUOUS
10
103.864
20
-74.6799
11
103.85
21
-74.4699
0
LINE
8
BLACK
6
CONTINUOUS
10
103.85
20
-74.4699
11
103.875
21
-74.2609
0
LINE
8
BLACK
6
CONTINUOUS
10
103.875
20
-74.2609
11
103.938
21
-74.0599
0
LINE
8
BLACK
6
CONTINUOUS
10
103.938
20
-74.0599
11
104.036
21
-73.8737
0
LINE
8
BLACK
6
CONTINUOUS
10
104.036
20
-73.8737
11
104.166
21
-73.7084
0
LINE
8
BLACK
6
CONTINUOUS
10
104.166
20
-73.7084
11
104.324
21
-73.5696
0
LINE
8
BLACK
6
CONTINUOUS
10
104.324
20
-73.5696
11
104.505
21
-73.462
0
LINE
8
BLACK
6
CONTINUOUS
10
104.505
20
-73.462
11
104.702
21
-73.3892
0
LINE
8
BLACK
6
CONTINUOUS
10
104.702
20
-73.3892
11
104.91
21
-73.3535
0
LINE
8
BLACK
6
CONTINUOUS
10
104.91
20
-73.3535
11
105.12
21
-73.3563
0
LINE
8
BLACK
6
CONTINUOUS
10
195.12
20
-59.8563
11
195.327
21
-59.8974
0
LINE
8
BLACK
6
CONTINUOUS
10
195.327
20
-59.8974
11
195.522
21
-59.9753
0
LINE
8
BLACK
6
CONTINUOUS
10
195.522
20
-59.9753
11
195.7
21
-60.0876
0
LINE
8
BLACK
6
CONTINUOUS
10
195.7
20
-60.0876
11
195.855
21
-60.2305
0
LINE
8
BLACK
6
CONTINUOUS
10
195.855
20
-60.2305
11
195.981
21
-60.3991
0
LINE
8
BLACK
6
CONTINUOUS
10
195.981
20
-60.3991
11
196.074
21
-60.5879
0
LINE
8
BLACK
6
CONTINUOUS
10
196.074
20
-60.5879
11
196.131
21
-60.7904
0
LINE
8
BLACK
6
CONTINUOUS
10
196.131
20
-60.7904
11
196.15
21
-61
0
LINE
8
BLACK
6
CONTINUOUS
10
196.15
20
-61
11
196.148
21
-61.0602
0
LINE
8
BLACK
6
CONTINUOUS
10
196.148
20
-61.0602
11
196.118
21
-61.2685
0
LINE
8
BLACK
6
CONTINUOUS
10
196.118
20
-61.2685
11
196.051
21
-61.4677
0
LINE
8
BLACK
6
CONTINUOUS
10
196.051
20
-61.4677
11
195.948
21
-61.6514
0
LINE
8
BLACK
6
CONTINUOUS
10
195.948
20
-61.6514
11
195.813
21
-61.8132
0
LINE
8
BLACK
6
CONTINUOUS
10
195.813
20
-61.8132
11
195.651
21
-61.9477
0
LINE
8
BLACK
6
CONTINUOUS
10
195.651
20
-61.9477
11
195.468
21
-62.0506
0
LINE
8
BLACK
6
CONTINUOUS
10
195.468
20
-62.0506
11
195.268
21
-62.1182
0
LINE
8
BLACK
6
CONTINUOUS
10
195.268
20
-62.1182
11
195.06
21
-62.1484
0
LINE
8
BLACK
6
CONTINUOUS
10
195.06
20
-62.1484
11
194.85
21
-62.1402
0
LINE
8
BLACK
6
CONTINUOUS
10
194.85
20
-62.1402
11
194.645
21
-62.0937
0
LINE
8
BLACK
6
CONTINUOUS
10
194.645
20
-62.0937
11
194.451
21
-62.0106
0
LINE
8
BLACK
6
CONTINUOUS
10
194.451
20
-62.0106
11
194.276
21
-61.8937
0
LINE
8
BLACK
6
CONTINUOUS
10
194.276
20
-61.8937
11
194.126
21
-61.7469
0
LINE
8
BLACK
6
CONTINUOUS
10
194.126
20
-61.7469
11
194.004
21
-61.575
0
LINE
8
BLACK
6
CONTINUOUS
10
194.004
20
-61.575
11
193.916
21
-61.3839
0
LINE
8
BLACK
6
CONTINUOUS
10
193.916
20
-61.3839
11
193.864
21
-61.1799
0
LINE
8
BLACK
6
CONTINUOUS
10
193.864
20
-61.1799
11
193.85
21
-60.9699
0
LINE
8
BLACK
6
CONTINUOUS
10
193.85
20
-60.9699
11
193.875
21
-60.7609
0
LINE
8
BLACK
6
CONTINUOUS
10
193.875
20
-60.7609
11
193.938
21
-60.5599
0
LINE
8
BLACK
6
CONTINUOUS
10
193.938
20
-60.5599
11
194.036
21
-60.3737
0
LINE
8
BLACK
6
CONTINUOUS
10
194.036
20
-60.3737
11
194.166
21
-60.2084
0
LINE
8
BLACK
6
CONTINUOUS
10
194.166
20
-60.2084
11
194.324
21
-60.0696
0
LINE
8
BLACK
6
CONTINUOUS
10
194.324
20
-60.0696
11
194.505
21
-59.962
0
LINE
8
BLACK
6
CONTINUOUS
10
194.505
20
-59.962
11
194.702
21
-59.8892
0
LINE
8
BLACK
6
CONTINUOUS
10
194.702
20
-59.8892
11
194.91
21
-59.8535
0
LINE
8
BLACK
6
CONTINUOUS
10
194.91
20
-59.8535
11
195.12
21
-59.8563
0
LINE
8
BLACK
6
CONTINUOUS
10
199.937
20
-55.0128
11
200.144
21
-55.0901
0
LINE
8
BLACK
6
CONTINUOUS
10
200.144
20
-55.0901
11
200.338
21
-55.1961
0
LINE
8
BLACK
6
CONTINUOUS
10
200.338
20
-55.1961
11
200.515
21
-55.3286
0
LINE
8
BLACK
6
CONTINUOUS
10
200.515
20
-55.3286
11
200.671
21
-55.485
0
LINE
8
BLACK
6
CONTINUOUS
10
200.671
20
-55.485
11
200.804
21
-55.662
0
LINE
8
BLACK
6
CONTINUOUS
10
200.804
20
-55.662
11
200.91
21
-55.8561
0
LINE
8
BLACK
6
CONTINUOUS
10
200.91
20
-55.8561
11
200.987
21
-56.0633
0
LINE
8
BLACK
6
CONTINUOUS
10
200.987
20
-56.0633
11
201.034
21
-56.2794
0
LINE
8
BLACK
6
CONTINUOUS
10
201.034
20
-56.2794
11
201.05
21
-56.5
0
LINE
8
BLACK
6
CONTINUOUS
10
201.05
20
-56.5
11
201.05
21
-122.5
0
LINE
8
BLACK
6
CONTINUOUS
10
201.05
20
-122.5
11
201.045
21
-122.512
0
LINE
8
BLACK
6
CONTINUOUS
10
201.045
20
-122.512
11
201.043
21
-122.525
0
LINE
8
BLACK
6
CONTINUOUS
10
201.043
20
-122.525
11
187.592
21
-145.976
0
LINE
8
BLACK
6
CONTINUOUS
10
187.592
20
-145.976
11
187.592
21
-145.976
0
LINE
8
BLACK
6
CONTINUOUS
10
187.592
20
-145.976
11
187.592
21
-145.976
0
LINE
8
BLACK
6
CONTINUOUS
10
187.592
20
-145.976
11
187.592
21
-145.976
0
LINE
8
BLACK
6
CONTINUOUS
10
187.592
20
-145.976
11
187.468
21
-146.159
0
LINE
8
BLACK
6
CONTINUOUS
10
187.468
20
-146.159
11
187.32
21
-146.323
0
LINE
8
BLACK
6
CONTINUOUS
10
187.32
20
-146.323
11
187.149
21
-146.464
0
LINE
8
BLACK
6
CONTINUOUS
10
187.149
20
-146.464
11
186.96
21
-146.579
0
LINE
8
BLACK
6
CONTINUOUS
10
186.96
20
-146.579
11
186.757
21
-146.666
0
LINE
8
BLACK
6
CONTINUOUS
10
186.757
20
-146.666
11
186.543
21
-146.723
0
LINE
8
BLACK
6
CONTINUOUS
10
186.543
20
-146.723
11
186.324
21
-146.749
0
LINE
8
BLACK
6
CONTINUOUS
10
186.324
20
-146.749
11
186.103
21
-146.744
0
LINE
8
BLACK
6
CONTINUOUS
10
186.103
20
-146.744
11
185.885
21
-146.707
0
LINE
8
BLACK
6
CONTINUOUS
10
185.885
20
-146.707
11
185.674
21
-146.64
0
LINE
8
BLACK
6
CONTINUOUS
10
185.674
20
-146.64
11
185.475
21
-146.543
0
LINE
8
BLACK
6
CONTINUOUS
10
185.475
20
-146.543
11
185.475
21
-146.543
0
LINE
8
BLACK
6
CONTINUOUS
10
185.475
20
-146.543
11
185.475
21
-146.543
0
LINE
8
BLACK
6
CONTINUOUS
10
185.475
20
-146.543
11
185.475
21
-146.543
0
LINE
8
BLACK
6
CONTINUOUS
10
185.475
20
-146.543
11
169.981
21
-137.547
0
LINE
8
BLACK
6
CONTINUOUS
10
169.981
20
-137.547
11
151.493
21
-132.55
0
LINE
8
BLACK
6
CONTINUOUS
10
151.493
20
-132.55
11
132.5
21
-132.55
0
LINE
8
BLACK
6
CONTINUOUS
10
132.5
20
-132.55
11
132.491
21
-132.546
0
LINE
8
BLACK
6
CONTINUOUS
10
132.491
20
-132.546
11
132.482
21
-132.547
0
LINE
8
BLACK
6
CONTINUOUS
10
132.482
20
-132.547
11
102.991
21
-121.05
0
LINE
8
BLACK
6
CONTINUOUS
10
102.991
20
-121.05
11
86.5
21
-121.05
0
LINE
8
BLACK
6
CONTINUOUS
10
86.5
20
-121.05
11
86.2794
21
-121.034
0
LINE
8
BLACK
6
CONTINUOUS
10
86.2794
20
-121.034
11
86.0633
21
-120.987
0
LINE
8
BLACK
6
CONTINUOUS
10
86.0633
20
-120.987
11
85.8561
21
-120.91
0
LINE
8
BLACK
6
CONTINUOUS
10
85.8561
20
-120.91
11
85.662
21
-120.804
0
LINE
8
BLACK
6
CONTINUOUS
10
85.662
20
-120.804
11
85.485
21
-120.671
0
LINE
8
BLACK
6
CONTINUOUS
10
85.485
20
-120.671
11
85.3286
21
-120.515
0
LINE
8
BLACK
6
CONTINUOUS
10
85.3286
20
-120.515
11
85.1961
21
-120.338
0
LINE
8
BLACK
6
CONTINUOUS
10
85.1961
20
-120.338
11
85.0901
21
-120.144
0
LINE
8
BLACK
6
CONTINUOUS
10
85.0901
20
-120.144
11
85.0128
21
-119.937
0
LINE
8
BLACK
6
CONTINUOUS
10
85.0128
20
-119.937
11
84.9658
21
-119.721
0
LINE
8
BLACK
6
CONTINUOUS
10
84.9658
20
-119.721
11
84.95
21
-119.5
0
LINE
8
BLACK
6
CONTINUOUS
10
84.95
20
-119.5
11
84.95
21
-114.5
0
LINE
8
BLACK
6
CONTINUOUS
10
84.95
20
-114.5
11
84.9538
21
-114.491
0
LINE
8
BLACK
6
CONTINUOUS
10
84.9538
20
-114.491
11
84.9366
21
-114.272
0
LINE
8
BLACK
6
CONTINUOUS
10
84.9366
20
-114.272
11
84.8833
21
-114.051
0
LINE
8
BLACK
6
CONTINUOUS
10
84.8833
20
-114.051
11
84.796
21
-113.84
0
LINE
8
BLACK
6
CONTINUOUS
10
84.796
20
-113.84
11
84.6767
21
-113.645
0
LINE
8
BLACK
6
CONTINUOUS
10
84.6767
20
-113.645
11
84.5285
21
-113.472
0
LINE
8
BLACK
6
CONTINUOUS
10
84.5285
20
-113.472
11
84.3549
21
-113.323
0
LINE
8
BLACK
6
CONTINUOUS
10
84.3549
20
-113.323
11
84.1603
21
-113.204
0
LINE
8
BLACK
6
CONTINUOUS
10
84.1603
20
-113.204
11
83.9495
21
-113.117
0
LINE
8
BLACK
6
CONTINUOUS
10
83.9495
20
-113.117
11
83.7275
21
-113.063
0
LINE
8
BLACK
6
CONTINUOUS
10
83.7275
20
-113.063
11
83.5091
21
-113.046
0
LINE
8
BLACK
6
CONTINUOUS
10
83.5091
20
-113.046
11
83.5
21
-113.05
0
LINE
8
BLACK
6
CONTINUOUS
10
83.5
20
-113.05
11
67.5
21
-113.05
0
LINE
8
BLACK
6
CONTINUOUS
10
67.5
20
-113.05
11
67.2794
21
-113.034
0
LINE
8
BLACK
6
CONTINUOUS
10
67.2794
20
-113.034
11
67.0633
21
-112.987
0
LINE
8
BLACK
6
CONTINUOUS
10
67.0633
20
-112.987
11
66.8561
21
-112.91
0
LINE
8
BLACK
6
CONTINUOUS
10
66.8561
20
-112.91
11
66.662
21
-112.804
0
LINE
8
BLACK
6
CONTINUOUS
10
66.662
20
-112.804
11
66.485
21
-112.671
0
LINE
8
BLACK
6
CONTINUOUS
10
66.485
20
-112.671
11
66.3286
21
-112.515
0
LINE
8
BLACK
6
CONTINUOUS
10
66.3286
20
-112.515
11
66.1961
21
-112.338
0
LINE
8
BLACK
6
CONTINUOUS
10
66.1961
20
-112.338
11
66.0901
21
-112.144
0
LINE
8
BLACK
6
CONTINUOUS
10
66.0901
20
-112.144
11
66.0128
21
-111.937
0
LINE
8
BLACK
6
CONTINUOUS
10
66.0128
20
-111.937
11
65.9658
21
-111.721
0
LINE
8
BLACK
6
CONTINUOUS
10
65.9658
20
-111.721
11
65.95
21
-111.5
0
LINE
8
BLACK
6
CONTINUOUS
10
65.95
20
-111.5
11
65.95
21
-75.5
0
LINE
8
BLACK
6
CONTINUOUS
10
65.95
20
-75.5
11
65.9658
21
-75.2794
0
LINE
8
BLACK
6
CONTINUOUS
10
65.9658
20
-75.2794
11
66.0128
21
-75.0633
0
LINE
8
BLACK
6
CONTINUOUS
10
66.0128
20
-75.0633
11
66.0901
21
-74.8561
0
LINE
8
BLACK
6
CONTINUOUS
10
66.0901
20
-74.8561
11
66.1961
21
-74.662
0
LINE
8
BLACK
6
CONTINUOUS
10
66.1961
20
-74.662
11
66.3286
21
-74.485
0
LINE
8
BLACK
6
CONTINUOUS
10
66.3286
20
-74.485
11
66.485
21
-74.3286
0
LINE
8
BLACK
6
CONTINUOUS
10
66.485
20
-74.3286
11
66.662
21
-74.1961
0
LINE
8
BLACK
6
CONTINUOUS
10
66.662
20
-74.1961
11
66.8561
21
-74.0901
0
LINE
8
BLACK
6
CONTINUOUS
10
66.8561
20
-74.0901
11
67.0633
21
-74.0128
0
LINE
8
BLACK
6
CONTINUOUS
10
67.0633
20
-74.0128
11
67.2794
21
-73.9658
0
LINE
8
BLACK
6
CONTINUOUS
10
67.2794
20
-73.9658
11
67.5
21
-73.95
0
LINE
8
BLACK
6
CONTINUOUS
10
67.5
20
-73.95
11
83.5
21
-73.95
0
LINE
8
BLACK
6
CONTINUOUS
10
83.5
20
-73.95
11
83.5091
21
-73.9538
0
LINE
8
BLACK
6
CONTINUOUS
10
83.5091
20
-73.9538
11
83.7275
21
-73.9366
0
LINE
8
BLACK
6
CONTINUOUS
10
83.7275
20
-73.9366
11
83.9495
21
-73.8833
0
LINE
8
BLACK
6
CONTINUOUS
10
83.9495
20
-73.8833
11
84.1603
21
-73.796
0
LINE
8
BLACK
6
CONTINUOUS
10
84.1603
20
-73.796
11
84.3549
21
-73.6767
0
LINE
8
BLACK
6
CONTINUOUS
10
84.3549
20
-73.6767
11
84.5285
21
-73.5285
0
LINE
8
BLACK
6
CONTINUOUS
10
84.5285
20
-73.5285
11
84.6767
21
-73.3549
0
LINE
8
BLACK
6
CONTINUOUS
10
84.6767
20
-73.3549
11
84.796
21
-73.1603
0
LINE
8
BLACK
6
CONTINUOUS
10
84.796
20
-73.1603
11
84.8833
21
-72.9495
0
LINE
8
BLACK
6
CONTINUOUS
10
84.8833
20
-72.9495
11
84.9366
21
-72.7275
0
LINE
8
BLACK
6
CONTINUOUS
10
84.9366
20
-72.7275
11
84.9538
21
-72.5091
0
LINE
8
BLACK
6
CONTINUOUS
10
84.9538
20
-72.5091
11
84.95
21
-72.5
0
LINE
8
BLACK
6
CONTINUOUS
10
84.95
20
-72.5
11
84.95
21
-64.5
0
LINE
8
BLACK
6
CONTINUOUS
10
84.95
20
-64.5
11
84.9658
21
-64.2794
0
LINE
8
BLACK
6
CONTINUOUS
10
84.9658
20
-64.2794
11
85.0128
21
-64.0633
0
LINE
8
BLACK
6
CONTINUOUS
10
85.0128
20
-64.0633
11
85.0901
21
-63.8561
0
LINE
8
BLACK
6
CONTINUOUS
10
85.0901
20
-63.8561
11
85.1961
21
-63.662
0
LINE
8
BLACK
6
CONTINUOUS
10
85.1961
20
-63.662
11
85.3286
21
-63.485
0
LINE
8
BLACK
6
CONTINUOUS
10
85.3286
20
-63.485
11
85.485
21
-63.3286
0
LINE
8
BLACK
6
CONTINUOUS
10
85.485
20
-63.3286
11
85.662
21
-63.1961
0
LINE
8
BLACK
6
CONTINUOUS
10
85.662
20
-63.1961
11
85.8561
21
-63.0901
0
LINE
8
BLACK
6
CONTINUOUS
10
85.8561
20
-63.0901
11
86.0633
21
-63.0128
0
LINE
8
BLACK
6
CONTINUOUS
10
86.0633
20
-63.0128
11
86.2794
21
-62.9658
0
LINE
8
BLACK
6
CONTINUOUS
10
86.2794
20
-62.9658
11
86.5
21
-62.95
0
LINE
8
BLACK
6
CONTINUOUS
10
86.5
20
-62.95
11
102.5
21
-62.95
0
LINE
8
BLACK
6
CONTINUOUS
10
102.5
20
-62.95
11
102.509
21
-62.9538
0
LINE
8
BLACK
6
CONTINUOUS
10
102.509
20
-62.9538
11
102.728
21
-62.9366
0
LINE
8
BLACK
6
CONTINUOUS
10
102.728
20
-62.9366
11
102.949
21
-62.8833
0
LINE
8
BLACK
6
CONTINUOUS
10
102.949
20
-62.8833
11
103.16
21
-62.796
0
LINE
8
BLACK
6
CONTINUOUS
10
103.16
20
-62.796
11
103.355
21
-62.6767
0
LINE
8
BLACK
6
CONTINUOUS
10
103.355
20
-62.6767
11
103.528
21
-62.5285
0
LINE
8
BLACK
6
CONTINUOUS
10
103.528
20
-62.5285
11
103.677
21
-62.3549
0
LINE
8
BLACK
6
CONTINUOUS
10
103.677
20
-62.3549
11
103.796
21
-62.1603
0
LINE
8
BLACK
6
CONTINUOUS
10
103.796
20
-62.1603
11
103.883
21
-61.9495
0
LINE
8
BLACK
6
CONTINUOUS
10
103.883
20
-61.9495
11
103.937
21
-61.7275
0
LINE
8
BLACK
6
CONTINUOUS
10
103.937
20
-61.7275
11
103.954
21
-61.5091
0
LINE
8
BLACK
6
CONTINUOUS
10
103.954
20
-61.5091
11
103.95
21
-61.5
0
LINE
8
BLACK
6
CONTINUOUS
10
103.95
20
-61.5
11
103.95
21
-56.5
0
LINE
8
BLACK
6
CONTINUOUS
10
103.95
20
-56.5
11
103.966
21
-56.2794
0
LINE
8
BLACK
6
CONTINUOUS
10
103.966
20
-56.2794
11
104.013
21
-56.0633
0
LINE
8
BLACK
6
CONTINUOUS
10
104.013
20
-56.0633
11
104.09
21
-55.8561
0
LINE
8
BLACK
6
CONTINUOUS
10
104.09
20
-55.8561
11
104.196
21
-55.662
0
LINE
8
BLACK
6
CONTINUOUS
10
104.196
20
-55.662
11
104.329
21
-55.485
0
LINE
8
BLACK
6
CONTINUOUS
10
104.329
20
-55.485
11
104.485
21
-55.3286
0
LINE
8
BLACK
6
CONTINUOUS
10
104.485
20
-55.3286
11
104.662
21
-55.1961
0
LINE
8
BLACK
6
CONTINUOUS
10
104.662
20
-55.1961
11
104.856
21
-55.0901
0
LINE
8
BLACK
6
CONTINUOUS
10
104.856
20
-55.0901
11
105.063
21
-55.0128
0
LINE
8
BLACK
6
CONTINUOUS
10
105.063
20
-55.0128
11
105.279
21
-54.9658
0
LINE
8
BLACK
6
CONTINUOUS
10
105.279
20
-54.9658
11
105.5
21
-54.95
0
LINE
8
BLACK
6
CONTINUOUS
10
105.5
20
-54.95
11
121.5
21
-54.95
0
LINE
8
BLACK
6
CONTINUOUS
10
121.5
20
-54.95
11
121.509
21
-54.9538
0
LINE
8
BLACK
6
CONTINUOUS
10
121.509
20
-54.9538
11
121.728
21
-54.9366
0
LINE
8
BLACK
6
CONTINUOUS
10
121.728
20
-54.9366
11
121.949
21
-54.8833
0
LINE
8
BLACK
6
CONTINUOUS
10
121.949
20
-54.8833
11
122.16
21
-54.796
0
LINE
8
BLACK
6
CONTINUOUS
10
122.16
20
-54.796
11
122.355
21
-54.6767
0
LINE
8
BLACK
6
CONTINUOUS
10
122.355
20
-54.6767
11
122.528
21
-54.5285
0
LINE
8
BLACK
6
CONTINUOUS
10
122.528
20
-54.5285
11
122.677
21
-54.3549
0
LINE
8
BLACK
6
CONTINUOUS
10
122.677
20
-54.3549
11
122.796
21
-54.1603
0
LINE
8
BLACK
6
CONTINUOUS
10
122.796
20
-54.1603
11
122.883
21
-53.9495
0
LINE
8
BLACK
6
CONTINUOUS
10
122.883
20
-53.9495
11
122.937
21
-53.7275
0
LINE
8
BLACK
6
CONTINUOUS
10
122.937
20
-53.7275
11
122.954
21
-53.5091
0
LINE
8
BLACK
6
CONTINUOUS
10
122.954
20
-53.5091
11
122.95
21
-53.5
0
LINE
8
BLACK
6
CONTINUOUS
10
122.95
20
-53.5
11
122.95
21
-52.5
0
LINE
8
BLACK
6
CONTINUOUS
10
122.95
20
-52.5
11
122.966
21
-52.2794
0
LINE
8
BLACK
6
CONTINUOUS
10
122.966
20
-52.2794
11
123.013
21
-52.0633
0
LINE
8
BLACK
6
CONTINUOUS
10
123.013
20
-52.0633
11
123.09
21
-51.8561
0
LINE
8
BLACK
6
CONTINUOUS
10
123.09
20
-51.8561
11
123.196
21
-51.662
0
LINE
8
BLACK
6
CONTINUOUS
10
123.196
20
-51.662
11
123.329
21
-51.485
0
LINE
8
BLACK
6
CONTINUOUS
10
123.329
20
-51.485
11
123.485
21
-51.3286
0
LINE
8
BLACK
6
CONTINUOUS
10
123.485
20
-51.3286
11
123.662
21
-51.1961
0
LINE
8
BLACK
6
CONTINUOUS
10
123.662
20
-51.1961
11
123.856
21
-51.0901
0
LINE
8
BLACK
6
CONTINUOUS
10
123.856
20
-51.0901
11
124.063
21
-51.0128
0
LINE
8
BLACK
6
CONTINUOUS
10
124.063
20
-51.0128
11
124.279
21
-50.9658
0
LINE
8
BLACK
6
CONTINUOUS
10
124.279
20
-50.9658
11
124.5
21
-50.95
0
LINE
8
BLACK
6
CONTINUOUS
10
124.5
20
-50.95
11
141.5
21
-50.95
0
LINE
8
BLACK
6
CONTINUOUS
10
141.5
20
-50.95
11
141.721
21
-50.9658
0
LINE
8
BLACK
6
CONTINUOUS
10
141.721
20
-50.9658
11
141.937
21
-51.0128
0
LINE
8
BLACK
6
CONTINUOUS
10
141.937
20
-51.0128
11
142.144
21
-51.0901
0
LINE
8
BLACK
6
CONTINUOUS
10
142.144
20
-51.0901
11
142.338
21
-51.1961
0
LINE
8
BLACK
6
CONTINUOUS
10
142.338
20
-51.1961
11
142.515
21
-51.3286
0
LINE
8
BLACK
6
CONTINUOUS
10
142.515
20
-51.3286
11
142.671
21
-51.485
0
LINE
8
BLACK
6
CONTINUOUS
10
142.671
20
-51.485
11
142.804
21
-51.662
0
LINE
8
BLACK
6
CONTINUOUS
10
142.804
20
-51.662
11
142.91
21
-51.8561
0
LINE
8
BLACK
6
CONTINUOUS
10
142.91
20
-51.8561
11
142.987
21
-52.0633
0
LINE
8
BLACK
6
CONTINUOUS
10
142.987
20
-52.0633
11
143.034
21
-52.2794
0
LINE
8
BLACK
6
CONTINUOUS
10
143.034
20
-52.2794
11
143.05
21
-52.5
0
LINE
8
BLACK
6
CONTINUOUS
10
143.05
20
-52.5
11
143.05
21
-53.5
0
LINE
8
BLACK
6
CONTINUOUS
10
143.05
20
-53.5
11
143.046
21
-53.5091
0
LINE
8
BLACK
6
CONTINUOUS
10
143.046
20
-53.5091
11
143.063
21
-53.7275
0
LINE
8
BLACK
6
CONTINUOUS
10
143.063
20
-53.7275
11
143.117
21
-53.9495
0
LINE
8
BLACK
6
CONTINUOUS
10
143.117
20
-53.9495
11
143.204
21
-54.1603
0
LINE
8
BLACK
6
CONTINUOUS
10
143.204
20
-54.1603
11
143.323
21
-54.3549
0
LINE
8
BLACK
6
CONTINUOUS
10
143.323
20
-54.3549
11
143.472
21
-54.5285
0
LINE
8
BLACK
6
CONTINUOUS
10
143.472
20
-54.5285
11
143.645
21
-54.6767
0
LINE
8
BLACK
6
CONTINUOUS
10
143.645
20
-54.6767
11
143.84
21
-54.796
0
LINE
8
BLACK
6
CONTINUOUS
10
143.84
20
-54.796
11
144.051
21
-54.8833
0
LINE
8
BLACK
6
CONTINUOUS
10
144.051
20
-54.8833
11
144.272
21
-54.9366
0
LINE
8
BLACK
6
CONTINUOUS
10
144.272
20
-54.9366
11
144.491
21
-54.9538
0
LINE
8
BLACK
6
CONTINUOUS
10
144.491
20
-54.9538
11
144.5
21
-54.95
0
LINE
8
BLACK
6
CONTINUOUS
10
144.5
20
-54.95
11
199.5
21
-54.95
0
LINE
8
BLACK
6
CONTINUOUS
10
199.5
20
-54.95
11
199.721
21
-54.9658
0
LINE
8
BLACK
6
CONTINUOUS
10
199.721
20
-54.9658
11
199.937
21
-55.0128
0
LINE
8
BLACK
6
CONTINUOUS
10
124.491
20
-51.0462
11
124.272
21
-51.0634
0
LINE
8
BLACK
6
CONTINUOUS
10
124.272
20
-51.0634
11
124.051
21
-51.1167
0
LINE
8
BLACK
6
CONTINUOUS
10
124.051
20
-51.1167
11
123.84
21
-51.204
0
LINE
8
BLACK
6
CONTINUOUS
10
123.84
20
-51.204
11
123.645
21
-51.3233
0
LINE
8
BLACK
6
CONTINUOUS
10
123.645
20
-51.3233
11
123.472
21
-51.4715
0
LINE
8
BLACK
6
CONTINUOUS
10
123.472
20
-51.4715
11
123.323
21
-51.6451
0
LINE
8
BLACK
6
CONTINUOUS
10
123.323
20
-51.6451
11
123.204
21
-51.8397
0
LINE
8
BLACK
6
CONTINUOUS
10
123.204
20
-51.8397
11
123.117
21
-52.0505
0
LINE
8
BLACK
6
CONTINUOUS
10
123.117
20
-52.0505
11
123.063
21
-52.2725
0
LINE
8
BLACK
6
CONTINUOUS
10
123.063
20
-52.2725
11
123.046
21
-52.4909
0
LINE
8
BLACK
6
CONTINUOUS
10
123.046
20
-52.4909
11
123.05
21
-52.5
0
LINE
8
BLACK
6
CONTINUOUS
10
123.05
20
-52.5
11
123.05
21
-53.5
0
LINE
8
BLACK
6
CONTINUOUS
10
123.05
20
-53.5
11
123.034
21
-53.7206
0
LINE
8
BLACK
6
CONTINUOUS
10
123.034
20
-53.7206
11
122.987
21
-53.9367
0
LINE
8
BLACK
6
CONTINUOUS
10
122.987
20
-53.9367
11
122.91
21
-54.1439
0
LINE
8
BLACK
6
CONTINUOUS
10
122.91
20
-54.1439
11
122.804
21
-54.338
0
LINE
8
BLACK
6
CONTINUOUS
10
122.804
20
-54.338
11
122.671
21
-54.515
0
LINE
8
BLACK
6
CONTINUOUS
10
122.671
20
-54.515
11
122.515
21
-54.6714
0
LINE
8
BLACK
6
CONTINUOUS
10
122.515
20
-54.6714
11
122.338
21
-54.8039
0
LINE
8
BLACK
6
CONTINUOUS
10
122.338
20
-54.8039
11
122.144
21
-54.9099
0
LINE
8
BLACK
6
CONTINUOUS
10
122.144
20
-54.9099
11
121.937
21
-54.9872
0
LINE
8
BLACK
6
CONTINUOUS
10
121.937
20
-54.9872
11
121.721
21
-55.0342
0
LINE
8
BLACK
6
CONTINUOUS
10
121.721
20
-55.0342
11
121.5
21
-55.05
0
LINE
8
BLACK
6
CONTINUOUS
10
121.5
20
-55.05
11
105.5
21
-55.05
0
LINE
8
BLACK
6
CONTINUOUS
10
105.5
20
-55.05
11
105.491
21
-55.0462
0
LINE
8
BLACK
6
CONTINUOUS
10
105.491
20
-55.0462
11
105.272
21
-55.0634
0
LINE
8
BLACK
6
CONTINUOUS
10
105.272
20
-55.0634
11
105.051
21
-55.1167
0
LINE
8
BLACK
6
CONTINUOUS
10
105.051
20
-55.1167
11
104.84
21
-55.204
0
LINE
8
BLACK
6
CONTINUOUS
10
104.84
20
-55.204
11
104.645
21
-55.3233
0
LINE
8
BLACK
6
CONTINUOUS
10
104.645
20
-55.3233
11
104.472
21
-55.4715
0
LINE
8
BLACK
6
CONTINUOUS
10
104.472
20
-55.4715
11
104.323
21
-55.6451
0
LINE
8
BLACK
6
CONTINUOUS
10
104.323
20
-55.6451
11
104.204
21
-55.8397
0
LINE
8
BLACK
6
CONTINUOUS
10
104.204
20
-55.8397
11
104.117
21
-56.0505
0
LINE
8
BLACK
6
CONTINUOUS
10
104.117
20
-56.0505
11
104.063
21
-56.2725
0
LINE
8
BLACK
6
CONTINUOUS
10
104.063
20
-56.2725
11
104.046
21
-56.4909
0
LINE
8
BLACK
6
CONTINUOUS
10
104.046
20
-56.4909
11
104.05
21
-56.5
0
LINE
8
BLACK
6
CONTINUOUS
10
104.05
20
-56.5
11
104.05
21
-61.5
0
LINE
8
BLACK
6
CONTINUOUS
10
104.05
20
-61.5
11
104.034
21
-61.7206
0
LINE
8
BLACK
6
CONTINUOUS
10
104.034
20
-61.7206
11
103.987
21
-61.9367
0
LINE
8
BLACK
6
CONTINUOUS
10
103.987
20
-61.9367
11
103.91
21
-62.1439
0
LINE
8
BLACK
6
CONTINUOUS
10
103.91
20
-62.1439
11
103.804
21
-62.338
0
LINE
8
BLACK
6
CONTINUOUS
10
103.804
20
-62.338
11
103.671
21
-62.515
0
LINE
8
BLACK
6
CONTINUOUS
10
103.671
20
-62.515
11
103.515
21
-62.6714
0
LINE
8
BLACK
6
CONTINUOUS
10
103.515
20
-62.6714
11
103.338
21
-62.8039
0
LINE
8
BLACK
6
CONTINUOUS
10
103.338
20
-62.8039
11
103.144
21
-62.9099
0
LINE
8
BLACK
6
CONTINUOUS
10
103.144
20
-62.9099
11
102.937
21
-62.9872
0
LINE
8
BLACK
6
CONTINUOUS
10
102.937
20
-62.9872
11
102.721
21
-63.0342
0
LINE
8
BLACK
6
CONTINUOUS
10
102.721
20
-63.0342
11
102.5
21
-63.05
0
LINE
8
BLACK
6
CONTINUOUS
10
102.5
20
-63.05
11
86.5
21
-63.05
0
LINE
8
BLACK
6
CONTINUOUS
10
86.5
20
-63.05
11
86.4909
21
-63.0462
0
LINE
8
BLACK
6
CONTINUOUS
10
86.4909
20
-63.0462
11
86.2725
21
-63.0634
0
LINE
8
BLACK
6
CONTINUOUS
10
86.2725
20
-63.0634
11
86.0505
21
-63.1167
0
LINE
8
BLACK
6
CONTINUOUS
10
86.0505
20
-63.1167
11
85.8397
21
-63.204
0
LINE
8
BLACK
6
CONTINUOUS
10
85.8397
20
-63.204
11
85.6451
21
-63.3233
0
LINE
8
BLACK
6
CONTINUOUS
10
85.6451
20
-63.3233
11
85.4715
21
-63.4715
0
LINE
8
BLACK
6
CONTINUOUS
10
85.4715
20
-63.4715
11
85.3233
21
-63.6451
0
LINE
8
BLACK
6
CONTINUOUS
10
85.3233
20
-63.6451
11
85.204
21
-63.8397
0
LINE
8
BLACK
6
CONTINUOUS
10
85.204
20
-63.8397
11
85.1167
21
-64.0505
0
LINE
8
BLACK
6
CONTINUOUS
10
85.1167
20
-64.0505
11
85.0634
21
-64.2725
0
LINE
8
BLACK
6
CONTINUOUS
10
85.0634
20
-64.2725
11
85.0462
21
-64.4909
0
LINE
8
BLACK
6
CONTINUOUS
10
85.0462
20
-64.4909
11
85.05
21
-64.5
0
LINE
8
BLACK
6
CONTINUOUS
10
85.05
20
-64.5
11
85.05
21
-72.5
0
LINE
8
BLACK
6
CONTINUOUS
10
85.05
20
-72.5
11
85.0342
21
-72.7206
0
LINE
8
BLACK
6
CONTINUOUS
10
85.0342
20
-72.7206
11
84.9872
21
-72.9367
0
LINE
8
BLACK
6
CONTINUOUS
10
84.9872
20
-72.9367
11
84.9099
21
-73.1439
0
LINE
8
BLACK
6
CONTINUOUS
10
84.9099
20
-73.1439
11
84.8039
21
-73.338
0
LINE
8
BLACK
6
CONTINUOUS
10
84.8039
20
-73.338
11
84.6714
21
-73.515
0
LINE
8
BLACK
6
CONTINUOUS
10
84.6714
20
-73.515
11
84.515
21
-73.6714
0
LINE
8
BLACK
6
CONTINUOUS
10
84.515
20
-73.6714
11
84.338
21
-73.8039
0
LINE
8
BLACK
6
CONTINUOUS
10
84.338
20
-73.8039
11
84.1439
21
-73.9099
0
LINE
8
BLACK
6
CONTINUOUS
10
84.1439
20
-73.9099
11
83.9367
21
-73.9872
0
LINE
8
BLACK
6
CONTINUOUS
10
83.9367
20
-73.9872
11
83.7206
21
-74.0342
0
LINE
8
BLACK
6
CONTINUOUS
10
83.7206
20
-74.0342
11
83.5
21
-74.05
0
LINE
8
BLACK
6
CONTINUOUS
10
83.5
20
-74.05
11
67.5
21
-74.05
0
LINE
8
BLACK
6
CONTINUOUS
10
67.5
20
-74.05
11
67.4909
21
-74.0462
0
LINE
8
BLACK
6
CONTINUOUS
10
67.4909
20
-74.0462
11
67.2725
21
-74.0634
0
LINE
8
BLACK
6
CONTINUOUS
10
67.2725
20
-74.0634
11
67.0505
21
-74.1167
0
LINE
8
BLACK
6
CONTINUOUS
10
67.0505
20
-74.1167
11
66.8397
21
-74.204
0
LINE
8
BLACK
6
CONTINUOUS
10
66.8397
20
-74.204
11
66.6451
21
-74.3233
0
LINE
8
BLACK
6
CONTINUOUS
10
66.6451
20
-74.3233
11
66.4715
21
-74.4715
0
LINE
8
BLACK
6
CONTINUOUS
10
66.4715
20
-74.4715
11
66.3233
21
-74.6451
0
LINE
8
BLACK
6
CONTINUOUS
10
66.3233
20
-74.6451
11
66.204
21
-74.8397
0
LINE
8
BLACK
6
CONTINUOUS
10
66.204
20
-74.8397
11
66.1167
21
-75.0505
0
LINE
8
BLACK
6
CONTINUOUS
10
66.1167
20
-75.0505
11
66.0634
21
-75.2725
0
LINE
8
BLACK
6
CONTINUOUS
10
66.0634
20
-75.2725
11
66.0462
21
-75.4909
0
LINE
8
BLACK
6
CONTINUOUS
10
66.0462
20
-75.4909
11
66.05
21
-75.5
0
LINE
8
BLACK
6
CONTINUOUS
10
66.05
20
-75.5
11
66.05
21
-111.5
0
LINE
8
BLACK
6
CONTINUOUS
10
66.05
20
-111.5
11
66.0462
21
-111.509
0
LINE
8
BLACK
6
CONTINUOUS
10
66.0462
20
-111.509
11
66.0634
21
-111.728
0
LINE
8
BLACK
6
CONTINUOUS
10
66.0634
20
-111.728
11
66.1167
21
-111.949
0
LINE
8
BLACK
6
CONTINUOUS
10
66.1167
20
-111.949
11
66.204
21
-112.16
0
LINE
8
BLACK
6
CONTINUOUS
10
66.204
20
-112.16
11
66.3233
21
-112.355
0
LINE
8
BLACK
6
CONTINUOUS
10
66.3233
20
-112.355
11
66.4715
21
-112.528
0
LINE
8
BLACK
6
CONTINUOUS
10
66.4715
20
-112.528
11
66.6451
21
-112.677
0
LINE
8
BLACK
6
CONTINUOUS
10
66.6451
20
-112.677
11
66.8397
21
-112.796
0
LINE
8
BLACK
6
CONTINUOUS
10
66.8397
20
-112.796
11
67.0505
21
-112.883
0
LINE
8
BLACK
6
CONTINUOUS
10
67.0505
20
-112.883
11
67.2725
21
-112.937
0
LINE
8
BLACK
6
CONTINUOUS
10
67.2725
20
-112.937
11
67.4909
21
-112.954
0
LINE
8
BLACK
6
CONTINUOUS
10
67.4909
20
-112.954
11
67.5
21
-112.95
0
LINE
8
BLACK
6
CONTINUOUS
10
67.5
20
-112.95
11
83.5
21
-112.95
0
LINE
8
BLACK
6
CONTINUOUS
10
83.5
20
-112.95
11
83.7206
21
-112.966
0
LINE
8
BLACK
6
CONTINUOUS
10
83.7206
20
-112.966
11
83.9367
21
-113.013
0
LINE
8
BLACK
6
CONTINUOUS
10
83.9367
20
-113.013
11
84.1439
21
-113.09
0
LINE
8
BLACK
6
CONTINUOUS
10
84.1439
20
-113.09
11
84.338
21
-113.196
0
LINE
8
BLACK
6
CONTINUOUS
10
84.338
20
-113.196
11
84.515
21
-113.329
0
LINE
8
BLACK
6
CONTINUOUS
10
84.515
20
-113.329
11
84.6714
21
-113.485
0
LINE
8
BLACK
6
CONTINUOUS
10
84.6714
20
-113.485
11
84.8039
21
-113.662
0
LINE
8
BLACK
6
CONTINUOUS
10
84.8039
20
-113.662
11
84.9099
21
-113.856
0
LINE
8
BLACK
6
CONTINUOUS
10
84.9099
20
-113.856
11
84.9872
21
-114.063
0
LINE
8
BLACK
6
CONTINUOUS
10
84.9872
20
-114.063
11
85.0342
21
-114.279
0
LINE
8
BLACK
6
CONTINUOUS
10
85.0342
20
-114.279
11
85.05
21
-114.5
0
LINE
8
BLACK
6
CONTINUOUS
10
85.05
20
-114.5
11
85.05
21
-119.5
0
LINE
8
BLACK
6
CONTINUOUS
10
85.05
20
-119.5
11
85.0462
21
-119.509
0
LINE
8
BLACK
6
CONTINUOUS
10
85.0462
20
-119.509
11
85.0634
21
-119.728
0
LINE
8
BLACK
6
CONTINUOUS
10
85.0634
20
-119.728
11
85.1167
21
-119.949
0
LINE
8
BLACK
6
CONTINUOUS
10
85.1167
20
-119.949
11
85.204
21
-120.16
0
LINE
8
BLACK
6
CONTINUOUS
10
85.204
20
-120.16
11
85.3233
21
-120.355
0
LINE
8
BLACK
6
CONTINUOUS
10
85.3233
20
-120.355
11
85.4715
21
-120.528
0
LINE
8
BLACK
6
CONTINUOUS
10
85.4715
20
-120.528
11
85.6451
21
-120.677
0
LINE
8
BLACK
6
CONTINUOUS
10
85.6451
20
-120.677
11
85.8397
21
-120.796
0
LINE
8
BLACK
6
CONTINUOUS
10
85.8397
20
-120.796
11
86.0505
21
-120.883
0
LINE
8
BLACK
6
CONTINUOUS
10
86.0505
20
-120.883
11
86.2725
21
-120.937
0
LINE
8
BLACK
6
CONTINUOUS
10
86.2725
20
-120.937
11
86.4909
21
-120.954
0
LINE
8
BLACK
6
CONTINUOUS
10
86.4909
20
-120.954
11
86.5
21
-120.95
0
LINE
8
BLACK
6
CONTINUOUS
10
86.5
20
-120.95
11
103
21
-120.95
0
LINE
8
BLACK
6
CONTINUOUS
10
103
20
-120.95
11
103.009
21
-120.954
0
LINE
8
BLACK
6
CONTINUOUS
10
103.009
20
-120.954
11
103.018
21
-120.953
0
LINE
8
BLACK
6
CONTINUOUS
10
103.018
20
-120.953
11
132.509
21
-132.45
0
LINE
8
BLACK
6
CONTINUOUS
10
132.509
20
-132.45
11
151.5
21
-132.45
0
LINE
8
BLACK
6
CONTINUOUS
10
151.5
20
-132.45
11
151.506
21
-132.453
0
LINE
8
BLACK
6
CONTINUOUS
10
151.506
20
-132.453
11
151.513
21
-132.452
0
LINE
8
BLACK
6
CONTINUOUS
10
151.513
20
-132.452
11
170.013
21
-137.452
0
LINE
8
BLACK
6
CONTINUOUS
10
170.013
20
-137.452
11
170.018
21
-137.456
0
LINE
8
BLACK
6
CONTINUOUS
10
170.018
20
-137.456
11
170.025
21
-137.457
0
LINE
8
BLACK
6
CONTINUOUS
10
170.025
20
-137.457
11
185.525
21
-146.457
0
LINE
8
BLACK
6
CONTINUOUS
10
185.525
20
-146.457
11
185.531
21
-146.465
0
LINE
8
BLACK
6
CONTINUOUS
10
185.531
20
-146.465
11
185.729
21
-146.559
0
LINE
8
BLACK
6
CONTINUOUS
10
185.729
20
-146.559
11
185.948
21
-146.624
0
LINE
8
BLACK
6
CONTINUOUS
10
185.948
20
-146.624
11
186.174
21
-146.653
0
LINE
8
BLACK
6
CONTINUOUS
10
186.174
20
-146.653
11
186.402
21
-146.647
0
LINE
8
BLACK
6
CONTINUOUS
10
186.402
20
-146.647
11
186.626
21
-146.606
0
LINE
8
BLACK
6
CONTINUOUS
10
186.626
20
-146.606
11
186.842
21
-146.53
0
LINE
8
BLACK
6
CONTINUOUS
10
186.842
20
-146.53
11
187.042
21
-146.421
0
LINE
8
BLACK
6
CONTINUOUS
10
187.042
20
-146.421
11
187.223
21
-146.282
0
LINE
8
BLACK
6
CONTINUOUS
10
187.223
20
-146.282
11
187.38
21
-146.116
0
LINE
8
BLACK
6
CONTINUOUS
10
187.38
20
-146.116
11
187.504
21
-145.936
0
LINE
8
BLACK
6
CONTINUOUS
10
187.504
20
-145.936
11
187.506
21
-145.926
0
LINE
8
BLACK
6
CONTINUOUS
10
187.506
20
-145.926
11
200.95
21
-122.487
0
LINE
8
BLACK
6
CONTINUOUS
10
200.95
20
-122.487
11
200.95
21
-56.5
0
LINE
8
BLACK
6
CONTINUOUS
10
200.95
20
-56.5
11
200.954
21
-56.4909
0
LINE
8
BLACK
6
CONTINUOUS
10
200.954
20
-56.4909
11
200.937
21
-56.2725
0
LINE
8
BLACK
6
CONTINUOUS
10
200.937
20
-56.2725
11
200.883
21
-56.0505
0
LINE
8
BLACK
6
CONTINUOUS
10
200.883
20
-56.0505
11
200.796
21
-55.8397
0
LINE
8
BLACK
6
CONTINUOUS
10
200.796
20
-55.8397
11
200.677
21
-55.6451
0
LINE
8
BLACK
6
CONTINUOUS
10
200.677
20
-55.6451
11
200.528
21
-55.4715
0
LINE
8
BLACK
6
CONTINUOUS
10
200.528
20
-55.4715
11
200.355
21
-55.3233
0
LINE
8
BLACK
6
CONTINUOUS
10
200.355
20
-55.3233
11
200.16
21
-55.204
0
LINE
8
BLACK
6
CONTINUOUS
10
200.16
20
-55.204
11
199.949
21
-55.1167
0
LINE
8
BLACK
6
CONTINUOUS
10
199.949
20
-55.1167
11
199.728
21
-55.0634
0
LINE
8
BLACK
6
CONTINUOUS
10
199.728
20
-55.0634
11
199.509
21
-55.0462
0
LINE
8
BLACK
6
CONTINUOUS
10
199.509
20
-55.0462
11
199.5
21
-55.05
0
LINE
8
BLACK
6
CONTINUOUS
10
199.5
20
-55.05
11
144.5
21
-55.05
0
LINE
8
BLACK
6
CONTINUOUS
10
144.5
20
-55.05
11
144.279
21
-55.0342
0
LINE
8
BLACK
6
CONTINUOUS
10
144.279
20
-55.0342
11
144.063
21
-54.9872
0
LINE
8
BLACK
6
CONTINUOUS
10
144.063
20
-54.9872
11
143.856
21
-54.9099
0
LINE
8
BLACK
6
CONTINUOUS
10
143.856
20
-54.9099
11
143.662
21
-54.8039
0
LINE
8
BLACK
6
CONTINUOUS
10
143.662
20
-54.8039
11
143.485
21
-54.6714
0
LINE
8
BLACK
6
CONTINUOUS
10
143.485
20
-54.6714
11
143.329
21
-54.515
0
LINE
8
BLACK
6
CONTINUOUS
10
143.329
20
-54.515
11
143.196
21
-54.338
0
LINE
8
BLACK
6
CONTINUOUS
10
143.196
20
-54.338
11
143.09
21
-54.1439
0
LINE
8
BLACK
6
CONTINUOUS
10
143.09
20
-54.1439
11
143.013
21
-53.9367
0
LINE
8
BLACK
6
CONTINUOUS
10
143.013
20
-53.9367
11
142.966
21
-53.7206
0
LINE
8
BLACK
6
CONTINUOUS
10
142.966
20
-53.7206
11
142.95
21
-53.5
0
LINE
8
BLACK
6
CONTINUOUS
10
142.95
20
-53.5
11
142.95
21
-52.5
0
LINE
8
BLACK
6
CONTINUOUS
10
142.95
20
-52.5
11
142.954
21
-52.4909
0
LINE
8
BLACK
6
CONTINUOUS
10
142.954
20
-52.4909
11
142.937
21
-52.2725
0
LINE
8
BLACK
6
CONTINUOUS
10
142.937
20
-52.2725
11
142.883
21
-52.0505
0
LINE
8
BLACK
6
CONTINUOUS
10
142.883
20
-52.0505
11
142.796
21
-51.8397
0
LINE
8
BLACK
6
CONTINUOUS
10
142.796
20
-51.8397
11
142.677
21
-51.6451
0
LINE
8
BLACK
6
CONTINUOUS
10
142.677
20
-51.6451
11
142.528
21
-51.4715
0
LINE
8
BLACK
6
CONTINUOUS
10
142.528
20
-51.4715
11
142.355
21
-51.3233
0
LINE
8
BLACK
6
CONTINUOUS
10
142.355
20
-51.3233
11
142.16
21
-51.204
0
LINE
8
BLACK
6
CONTINUOUS
10
142.16
20
-51.204
11
141.949
21
-51.1167
0
LINE
8
BLACK
6
CONTINUOUS
10
141.949
20
-51.1167
11
141.728
21
-51.0634
0
LINE
8
BLACK
6
CONTINUOUS
10
141.728
20
-51.0634
11
141.509
21
-51.0462
0
LINE
8
BLACK
6
CONTINUOUS
10
141.509
20
-51.0462
11
141.5
21
-51.05
0
LINE
8
BLACK
6
CONTINUOUS
10
141.5
20
-51.05
11
124.5
21
-51.05
0
LINE
8
BLACK
6
CONTINUOUS
10
124.5
20
-51.05
11
124.491
21
-51.0462
  0
ENDSEC
  0
EOF
