  0
SECTION
  2
HEADER
  9
$ANGBASE
  50
0.0
  9
$ANGDIR
  70
1
  9
$MEASUREMENT
  70
1
  0
ENDSEC
  0
SECTION
  2
TABLES
  0
TABLE
  2
LTYPE
  70
4
  0
LTYPE
  5
40F
  2
CONTINUOUS
  70
0
  3
Solid line
  72
65
  73
0
  40
0.0
  0
LTYPE
  5
410
  2
DASHDOT
 70
0
  3
Dash Dot ____ _ ____ _
 72
65
 73
4
 40
2.0
 49
1.25
 49
-0.25
 49
0.25
 49
-0.25
  0
LTYPE
  5
411
  2
DASHED
 70
0
  3
Dashed __ __ __ __ __
 72
65
 73
2
 40
0.75
 49
0.5
 49
-0.25
  0
LTYPE
  5
43B
  2
DOTTED
 70
0
  3
Dotted .  .  .  .
 72
65
 73
2
 40
0.2
 49
0.0
 49
-0.2
  0
ENDTAB
  0
TABLE
  2
STYLE
  70
4
  0
STYLE
  2
KICAD
  70
0
  40
0
  41
1
  42
1
  50
0
  71
0
  3
isocp.shx
  0
STYLE
  2
KICADB
  70
0
  40
0
  41
1
  42
1
  50
0
  71
0
  3
isocp.shx
  0
STYLE
  2
KICADI
  70
0
  40
0
  41
1
  42
1
  50
15
  71
0
  3
isocp.shx
  0
STYLE
  2
KICADBI
  70
0
  40
0
  41
1
  42
1
  50
15
  71
0
  3
isocp.shx
  0
ENDTAB
  0
TABLE
  2
LAYER
  70
1
  0
LAYER
  2
BLACK
  70
0
  62
7
  6
CONTINUOUS
  0
ENDTAB
  0
ENDSEC
  0
SECTION
  2
ENTITIES
0
LINE
8
BLACK
6
CONTINUOUS
10
205.419
20
-140.216
11
205.708
21
-140.273
0
LINE
8
BLACK
6
CONTINUOUS
10
205.708
20
-140.273
11
205.987
21
-140.368
0
LINE
8
BLACK
6
CONTINUOUS
10
205.987
20
-140.368
11
206.25
21
-140.498
0
LINE
8
BLACK
6
CONTINUOUS
10
206.25
20
-140.498
11
206.495
21
-140.661
0
LINE
8
BLACK
6
CONTINUOUS
10
206.495
20
-140.661
11
206.716
21
-140.855
0
LINE
8
BLACK
6
CONTINUOUS
10
206.716
20
-140.855
11
206.911
21
-141.077
0
LINE
8
BLACK
6
CONTINUOUS
10
206.911
20
-141.077
11
207.074
21
-141.321
0
LINE
8
BLACK
6
CONTINUOUS
10
207.074
20
-141.321
11
207.204
21
-141.585
0
LINE
8
BLACK
6
CONTINUOUS
10
207.204
20
-141.585
11
207.299
21
-141.864
0
LINE
8
BLACK
6
CONTINUOUS
10
207.299
20
-141.864
11
207.356
21
-142.153
0
LINE
8
BLACK
6
CONTINUOUS
10
207.356
20
-142.153
11
207.375
21
-142.446
0
LINE
8
BLACK
6
CONTINUOUS
10
207.375
20
-142.446
11
207.356
21
-142.74
0
LINE
8
BLACK
6
CONTINUOUS
10
207.356
20
-142.74
11
207.299
21
-143.029
0
LINE
8
BLACK
6
CONTINUOUS
10
207.299
20
-143.029
11
207.204
21
-143.307
0
LINE
8
BLACK
6
CONTINUOUS
10
207.204
20
-143.307
11
207.074
21
-143.571
0
LINE
8
BLACK
6
CONTINUOUS
10
207.074
20
-143.571
11
206.911
21
-143.816
0
LINE
8
BLACK
6
CONTINUOUS
10
206.911
20
-143.816
11
206.716
21
-144.037
0
LINE
8
BLACK
6
CONTINUOUS
10
206.716
20
-144.037
11
206.495
21
-144.231
0
LINE
8
BLACK
6
CONTINUOUS
10
206.495
20
-144.231
11
206.25
21
-144.395
0
LINE
8
BLACK
6
CONTINUOUS
10
206.25
20
-144.395
11
205.987
21
-144.525
0
LINE
8
BLACK
6
CONTINUOUS
10
205.987
20
-144.525
11
205.708
21
-144.62
0
LINE
8
BLACK
6
CONTINUOUS
10
205.708
20
-144.62
11
205.419
21
-144.677
0
LINE
8
BLACK
6
CONTINUOUS
10
205.419
20
-144.677
11
205.125
21
-144.696
0
LINE
8
BLACK
6
CONTINUOUS
10
205.125
20
-144.696
11
204.832
21
-144.677
0
LINE
8
BLACK
6
CONTINUOUS
10
204.832
20
-144.677
11
204.543
21
-144.62
0
LINE
8
BLACK
6
CONTINUOUS
10
204.543
20
-144.62
11
204.264
21
-144.525
0
LINE
8
BLACK
6
CONTINUOUS
10
204.264
20
-144.525
11
204
21
-144.395
0
LINE
8
BLACK
6
CONTINUOUS
10
204
20
-144.395
11
203.756
21
-144.231
0
LINE
8
BLACK
6
CONTINUOUS
10
203.756
20
-144.231
11
203.534
21
-144.037
0
LINE
8
BLACK
6
CONTINUOUS
10
203.534
20
-144.037
11
203.34
21
-143.816
0
LINE
8
BLACK
6
CONTINUOUS
10
203.34
20
-143.816
11
203.177
21
-143.571
0
LINE
8
BLACK
6
CONTINUOUS
10
203.177
20
-143.571
11
203.047
21
-143.307
0
LINE
8
BLACK
6
CONTINUOUS
10
203.047
20
-143.307
11
202.952
21
-143.029
0
LINE
8
BLACK
6
CONTINUOUS
10
202.952
20
-143.029
11
202.895
21
-142.74
0
LINE
8
BLACK
6
CONTINUOUS
10
202.895
20
-142.74
11
202.875
21
-142.446
0
LINE
8
BLACK
6
CONTINUOUS
10
202.875
20
-142.446
11
202.895
21
-142.153
0
LINE
8
BLACK
6
CONTINUOUS
10
202.895
20
-142.153
11
202.952
21
-141.864
0
LINE
8
BLACK
6
CONTINUOUS
10
202.952
20
-141.864
11
203.047
21
-141.585
0
LINE
8
BLACK
6
CONTINUOUS
10
203.047
20
-141.585
11
203.177
21
-141.321
0
LINE
8
BLACK
6
CONTINUOUS
10
203.177
20
-141.321
11
203.34
21
-141.077
0
LINE
8
BLACK
6
CONTINUOUS
10
203.34
20
-141.077
11
203.534
21
-140.855
0
LINE
8
BLACK
6
CONTINUOUS
10
203.534
20
-140.855
11
203.756
21
-140.661
0
LINE
8
BLACK
6
CONTINUOUS
10
203.756
20
-140.661
11
204
21
-140.498
0
LINE
8
BLACK
6
CONTINUOUS
10
204
20
-140.498
11
204.264
21
-140.368
0
LINE
8
BLACK
6
CONTINUOUS
10
204.264
20
-140.368
11
204.543
21
-140.273
0
LINE
8
BLACK
6
CONTINUOUS
10
204.543
20
-140.273
11
204.832
21
-140.216
0
LINE
8
BLACK
6
CONTINUOUS
10
204.832
20
-140.216
11
205.125
21
-140.196
0
LINE
8
BLACK
6
CONTINUOUS
10
205.125
20
-140.196
11
205.419
21
-140.216
0
LINE
8
BLACK
6
CONTINUOUS
10
185.87
20
-118.905
11
186.077
21
-118.946
0
LINE
8
BLACK
6
CONTINUOUS
10
186.077
20
-118.946
11
186.272
21
-119.024
0
LINE
8
BLACK
6
CONTINUOUS
10
186.272
20
-119.024
11
186.45
21
-119.137
0
LINE
8
BLACK
6
CONTINUOUS
10
186.45
20
-119.137
11
186.605
21
-119.28
0
LINE
8
BLACK
6
CONTINUOUS
10
186.605
20
-119.28
11
186.731
21
-119.448
0
LINE
8
BLACK
6
CONTINUOUS
10
186.731
20
-119.448
11
186.824
21
-119.637
0
LINE
8
BLACK
6
CONTINUOUS
10
186.824
20
-119.637
11
186.881
21
-119.839
0
LINE
8
BLACK
6
CONTINUOUS
10
186.881
20
-119.839
11
186.9
21
-120.049
0
LINE
8
BLACK
6
CONTINUOUS
10
186.9
20
-120.049
11
186.898
21
-120.109
0
LINE
8
BLACK
6
CONTINUOUS
10
186.898
20
-120.109
11
186.868
21
-120.317
0
LINE
8
BLACK
6
CONTINUOUS
10
186.868
20
-120.317
11
186.801
21
-120.517
0
LINE
8
BLACK
6
CONTINUOUS
10
186.801
20
-120.517
11
186.698
21
-120.7
0
LINE
8
BLACK
6
CONTINUOUS
10
186.698
20
-120.7
11
186.563
21
-120.862
0
LINE
8
BLACK
6
CONTINUOUS
10
186.563
20
-120.862
11
186.401
21
-120.997
0
LINE
8
BLACK
6
CONTINUOUS
10
186.401
20
-120.997
11
186.218
21
-121.1
0
LINE
8
BLACK
6
CONTINUOUS
10
186.218
20
-121.1
11
186.018
21
-121.167
0
LINE
8
BLACK
6
CONTINUOUS
10
186.018
20
-121.167
11
185.81
21
-121.197
0
LINE
8
BLACK
6
CONTINUOUS
10
185.81
20
-121.197
11
185.6
21
-121.189
0
LINE
8
BLACK
6
CONTINUOUS
10
185.6
20
-121.189
11
185.395
21
-121.143
0
LINE
8
BLACK
6
CONTINUOUS
10
185.395
20
-121.143
11
185.201
21
-121.06
0
LINE
8
BLACK
6
CONTINUOUS
10
185.201
20
-121.06
11
185.026
21
-120.943
0
LINE
8
BLACK
6
CONTINUOUS
10
185.026
20
-120.943
11
184.876
21
-120.796
0
LINE
8
BLACK
6
CONTINUOUS
10
184.876
20
-120.796
11
184.754
21
-120.624
0
LINE
8
BLACK
6
CONTINUOUS
10
184.754
20
-120.624
11
184.666
21
-120.433
0
LINE
8
BLACK
6
CONTINUOUS
10
184.666
20
-120.433
11
184.614
21
-120.229
0
LINE
8
BLACK
6
CONTINUOUS
10
184.614
20
-120.229
11
184.6
21
-120.019
0
LINE
8
BLACK
6
CONTINUOUS
10
184.6
20
-120.019
11
184.625
21
-119.81
0
LINE
8
BLACK
6
CONTINUOUS
10
184.625
20
-119.81
11
184.688
21
-119.609
0
LINE
8
BLACK
6
CONTINUOUS
10
184.688
20
-119.609
11
184.786
21
-119.423
0
LINE
8
BLACK
6
CONTINUOUS
10
184.786
20
-119.423
11
184.916
21
-119.257
0
LINE
8
BLACK
6
CONTINUOUS
10
184.916
20
-119.257
11
185.074
21
-119.119
0
LINE
8
BLACK
6
CONTINUOUS
10
185.074
20
-119.119
11
185.255
21
-119.011
0
LINE
8
BLACK
6
CONTINUOUS
10
185.255
20
-119.011
11
185.452
21
-118.938
0
LINE
8
BLACK
6
CONTINUOUS
10
185.452
20
-118.938
11
185.66
21
-118.903
0
LINE
8
BLACK
6
CONTINUOUS
10
185.66
20
-118.903
11
185.87
21
-118.905
0
LINE
8
BLACK
6
CONTINUOUS
10
82.0351
20
-114.818
11
82.3237
21
-114.876
0
LINE
8
BLACK
6
CONTINUOUS
10
82.3237
20
-114.876
11
82.6024
21
-114.97
0
LINE
8
BLACK
6
CONTINUOUS
10
82.6024
20
-114.97
11
82.8664
21
-115.1
0
LINE
8
BLACK
6
CONTINUOUS
10
82.8664
20
-115.1
11
83.1111
21
-115.264
0
LINE
8
BLACK
6
CONTINUOUS
10
83.1111
20
-115.264
11
83.3324
21
-115.458
0
LINE
8
BLACK
6
CONTINUOUS
10
83.3324
20
-115.458
11
83.5264
21
-115.679
0
LINE
8
BLACK
6
CONTINUOUS
10
83.5264
20
-115.679
11
83.6899
21
-115.924
0
LINE
8
BLACK
6
CONTINUOUS
10
83.6899
20
-115.924
11
83.8201
21
-116.188
0
LINE
8
BLACK
6
CONTINUOUS
10
83.8201
20
-116.188
11
83.9147
21
-116.467
0
LINE
8
BLACK
6
CONTINUOUS
10
83.9147
20
-116.467
11
83.9721
21
-116.755
0
LINE
8
BLACK
6
CONTINUOUS
10
83.9721
20
-116.755
11
83.9914
21
-117.049
0
LINE
8
BLACK
6
CONTINUOUS
10
83.9914
20
-117.049
11
83.9721
21
-117.343
0
LINE
8
BLACK
6
CONTINUOUS
10
83.9721
20
-117.343
11
83.9147
21
-117.631
0
LINE
8
BLACK
6
CONTINUOUS
10
83.9147
20
-117.631
11
83.8201
21
-117.91
0
LINE
8
BLACK
6
CONTINUOUS
10
83.8201
20
-117.91
11
83.6899
21
-118.174
0
LINE
8
BLACK
6
CONTINUOUS
10
83.6899
20
-118.174
11
83.5264
21
-118.419
0
LINE
8
BLACK
6
CONTINUOUS
10
83.5264
20
-118.419
11
83.3324
21
-118.64
0
LINE
8
BLACK
6
CONTINUOUS
10
83.3324
20
-118.64
11
83.1111
21
-118.834
0
LINE
8
BLACK
6
CONTINUOUS
10
83.1111
20
-118.834
11
82.8664
21
-118.998
0
LINE
8
BLACK
6
CONTINUOUS
10
82.8664
20
-118.998
11
82.6024
21
-119.128
0
LINE
8
BLACK
6
CONTINUOUS
10
82.6024
20
-119.128
11
82.3237
21
-119.222
0
LINE
8
BLACK
6
CONTINUOUS
10
82.3237
20
-119.222
11
82.0351
21
-119.28
0
LINE
8
BLACK
6
CONTINUOUS
10
82.0351
20
-119.28
11
81.7414
21
-119.299
0
LINE
8
BLACK
6
CONTINUOUS
10
81.7414
20
-119.299
11
81.4477
21
-119.28
0
LINE
8
BLACK
6
CONTINUOUS
10
81.4477
20
-119.28
11
81.159
21
-119.222
0
LINE
8
BLACK
6
CONTINUOUS
10
81.159
20
-119.222
11
80.8803
21
-119.128
0
LINE
8
BLACK
6
CONTINUOUS
10
80.8803
20
-119.128
11
80.6164
21
-118.998
0
LINE
8
BLACK
6
CONTINUOUS
10
80.6164
20
-118.998
11
80.3717
21
-118.834
0
LINE
8
BLACK
6
CONTINUOUS
10
80.3717
20
-118.834
11
80.1504
21
-118.64
0
LINE
8
BLACK
6
CONTINUOUS
10
80.1504
20
-118.64
11
79.9563
21
-118.419
0
LINE
8
BLACK
6
CONTINUOUS
10
79.9563
20
-118.419
11
79.7928
21
-118.174
0
LINE
8
BLACK
6
CONTINUOUS
10
79.7928
20
-118.174
11
79.6626
21
-117.91
0
LINE
8
BLACK
6
CONTINUOUS
10
79.6626
20
-117.91
11
79.568
21
-117.631
0
LINE
8
BLACK
6
CONTINUOUS
10
79.568
20
-117.631
11
79.5106
21
-117.343
0
LINE
8
BLACK
6
CONTINUOUS
10
79.5106
20
-117.343
11
79.4914
21
-117.049
0
LINE
8
BLACK
6
CONTINUOUS
10
79.4914
20
-117.049
11
79.5106
21
-116.755
0
LINE
8
BLACK
6
CONTINUOUS
10
79.5106
20
-116.755
11
79.568
21
-116.467
0
LINE
8
BLACK
6
CONTINUOUS
10
79.568
20
-116.467
11
79.6626
21
-116.188
0
LINE
8
BLACK
6
CONTINUOUS
10
79.6626
20
-116.188
11
79.7928
21
-115.924
0
LINE
8
BLACK
6
CONTINUOUS
10
79.7928
20
-115.924
11
79.9563
21
-115.679
0
LINE
8
BLACK
6
CONTINUOUS
10
79.9563
20
-115.679
11
80.1504
21
-115.458
0
LINE
8
BLACK
6
CONTINUOUS
10
80.1504
20
-115.458
11
80.3717
21
-115.264
0
LINE
8
BLACK
6
CONTINUOUS
10
80.3717
20
-115.264
11
80.6164
21
-115.1
0
LINE
8
BLACK
6
CONTINUOUS
10
80.6164
20
-115.1
11
80.8803
21
-114.97
0
LINE
8
BLACK
6
CONTINUOUS
10
80.8803
20
-114.97
11
81.159
21
-114.876
0
LINE
8
BLACK
6
CONTINUOUS
10
81.159
20
-114.876
11
81.4477
21
-114.818
0
LINE
8
BLACK
6
CONTINUOUS
10
81.4477
20
-114.818
11
81.7414
21
-114.799
0
LINE
8
BLACK
6
CONTINUOUS
10
81.7414
20
-114.799
11
82.0351
21
-114.818
0
LINE
8
BLACK
6
CONTINUOUS
10
134.37
20
-104.905
11
134.577
21
-104.946
0
LINE
8
BLACK
6
CONTINUOUS
10
134.577
20
-104.946
11
134.772
21
-105.024
0
LINE
8
BLACK
6
CONTINUOUS
10
134.772
20
-105.024
11
134.95
21
-105.137
0
LINE
8
BLACK
6
CONTINUOUS
10
134.95
20
-105.137
11
135.105
21
-105.28
0
LINE
8
BLACK
6
CONTINUOUS
10
135.105
20
-105.28
11
135.231
21
-105.448
0
LINE
8
BLACK
6
CONTINUOUS
10
135.231
20
-105.448
11
135.324
21
-105.637
0
LINE
8
BLACK
6
CONTINUOUS
10
135.324
20
-105.637
11
135.381
21
-105.839
0
LINE
8
BLACK
6
CONTINUOUS
10
135.381
20
-105.839
11
135.4
21
-106.049
0
LINE
8
BLACK
6
CONTINUOUS
10
135.4
20
-106.049
11
135.398
21
-106.109
0
LINE
8
BLACK
6
CONTINUOUS
10
135.398
20
-106.109
11
135.368
21
-106.317
0
LINE
8
BLACK
6
CONTINUOUS
10
135.368
20
-106.317
11
135.301
21
-106.517
0
LINE
8
BLACK
6
CONTINUOUS
10
135.301
20
-106.517
11
135.198
21
-106.7
0
LINE
8
BLACK
6
CONTINUOUS
10
135.198
20
-106.7
11
135.063
21
-106.862
0
LINE
8
BLACK
6
CONTINUOUS
10
135.063
20
-106.862
11
134.901
21
-106.997
0
LINE
8
BLACK
6
CONTINUOUS
10
134.901
20
-106.997
11
134.718
21
-107.1
0
LINE
8
BLACK
6
CONTINUOUS
10
134.718
20
-107.1
11
134.518
21
-107.167
0
LINE
8
BLACK
6
CONTINUOUS
10
134.518
20
-107.167
11
134.31
21
-107.197
0
LINE
8
BLACK
6
CONTINUOUS
10
134.31
20
-107.197
11
134.1
21
-107.189
0
LINE
8
BLACK
6
CONTINUOUS
10
134.1
20
-107.189
11
133.895
21
-107.143
0
LINE
8
BLACK
6
CONTINUOUS
10
133.895
20
-107.143
11
133.701
21
-107.06
0
LINE
8
BLACK
6
CONTINUOUS
10
133.701
20
-107.06
11
133.526
21
-106.943
0
LINE
8
BLACK
6
CONTINUOUS
10
133.526
20
-106.943
11
133.376
21
-106.796
0
LINE
8
BLACK
6
CONTINUOUS
10
133.376
20
-106.796
11
133.254
21
-106.624
0
LINE
8
BLACK
6
CONTINUOUS
10
133.254
20
-106.624
11
133.166
21
-106.433
0
LINE
8
BLACK
6
CONTINUOUS
10
133.166
20
-106.433
11
133.114
21
-106.229
0
LINE
8
BLACK
6
CONTINUOUS
10
133.114
20
-106.229
11
133.1
21
-106.019
0
LINE
8
BLACK
6
CONTINUOUS
10
133.1
20
-106.019
11
133.125
21
-105.81
0
LINE
8
BLACK
6
CONTINUOUS
10
133.125
20
-105.81
11
133.188
21
-105.609
0
LINE
8
BLACK
6
CONTINUOUS
10
133.188
20
-105.609
11
133.286
21
-105.423
0
LINE
8
BLACK
6
CONTINUOUS
10
133.286
20
-105.423
11
133.416
21
-105.257
0
LINE
8
BLACK
6
CONTINUOUS
10
133.416
20
-105.257
11
133.574
21
-105.119
0
LINE
8
BLACK
6
CONTINUOUS
10
133.574
20
-105.119
11
133.755
21
-105.011
0
LINE
8
BLACK
6
CONTINUOUS
10
133.755
20
-105.011
11
133.952
21
-104.938
0
LINE
8
BLACK
6
CONTINUOUS
10
133.952
20
-104.938
11
134.16
21
-104.903
0
LINE
8
BLACK
6
CONTINUOUS
10
134.16
20
-104.903
11
134.37
21
-104.905
0
LINE
8
BLACK
6
CONTINUOUS
10
94.8702
20
-89.4053
11
95.0766
21
-89.4464
0
LINE
8
BLACK
6
CONTINUOUS
10
95.0766
20
-89.4464
11
95.2721
21
-89.5244
0
LINE
8
BLACK
6
CONTINUOUS
10
95.2721
20
-89.5244
11
95.4501
21
-89.6367
0
LINE
8
BLACK
6
CONTINUOUS
10
95.4501
20
-89.6367
11
95.6046
21
-89.7795
0
LINE
8
BLACK
6
CONTINUOUS
10
95.6046
20
-89.7795
11
95.7305
21
-89.9482
0
LINE
8
BLACK
6
CONTINUOUS
10
95.7305
20
-89.9482
11
95.8236
21
-90.1369
0
LINE
8
BLACK
6
CONTINUOUS
10
95.8236
20
-90.1369
11
95.8807
21
-90.3395
0
LINE
8
BLACK
6
CONTINUOUS
10
95.8807
20
-90.3395
11
95.9
21
-90.549
0
LINE
8
BLACK
6
CONTINUOUS
10
95.9
20
-90.549
11
95.8984
21
-90.6092
0
LINE
8
BLACK
6
CONTINUOUS
10
95.8984
20
-90.6092
11
95.8682
21
-90.8175
0
LINE
8
BLACK
6
CONTINUOUS
10
95.8682
20
-90.8175
11
95.8006
21
-91.0168
0
LINE
8
BLACK
6
CONTINUOUS
10
95.8006
20
-91.0168
11
95.6977
21
-91.2004
0
LINE
8
BLACK
6
CONTINUOUS
10
95.6977
20
-91.2004
11
95.5632
21
-91.3622
0
LINE
8
BLACK
6
CONTINUOUS
10
95.5632
20
-91.3622
11
95.4014
21
-91.4968
0
LINE
8
BLACK
6
CONTINUOUS
10
95.4014
20
-91.4968
11
95.2177
21
-91.5996
0
LINE
8
BLACK
6
CONTINUOUS
10
95.2177
20
-91.5996
11
95.0185
21
-91.6673
0
LINE
8
BLACK
6
CONTINUOUS
10
95.0185
20
-91.6673
11
94.8102
21
-91.6975
0
LINE
8
BLACK
6
CONTINUOUS
10
94.8102
20
-91.6975
11
94.5999
21
-91.6892
0
LINE
8
BLACK
6
CONTINUOUS
10
94.5999
20
-91.6892
11
94.3946
21
-91.6428
0
LINE
8
BLACK
6
CONTINUOUS
10
94.3946
20
-91.6428
11
94.2013
21
-91.5597
0
LINE
8
BLACK
6
CONTINUOUS
10
94.2013
20
-91.5597
11
94.0263
21
-91.4428
0
LINE
8
BLACK
6
CONTINUOUS
10
94.0263
20
-91.4428
11
93.8755
21
-91.2959
0
LINE
8
BLACK
6
CONTINUOUS
10
93.8755
20
-91.2959
11
93.7541
21
-91.124
0
LINE
8
BLACK
6
CONTINUOUS
10
93.7541
20
-91.124
11
93.666
21
-90.9329
0
LINE
8
BLACK
6
CONTINUOUS
10
93.666
20
-90.9329
11
93.6142
21
-90.7289
0
LINE
8
BLACK
6
CONTINUOUS
10
93.6142
20
-90.7289
11
93.6004
21
-90.5189
0
LINE
8
BLACK
6
CONTINUOUS
10
93.6004
20
-90.5189
11
93.6251
21
-90.3099
0
LINE
8
BLACK
6
CONTINUOUS
10
93.6251
20
-90.3099
11
93.6875
21
-90.109
0
LINE
8
BLACK
6
CONTINUOUS
10
93.6875
20
-90.109
11
93.7855
21
-89.9227
0
LINE
8
BLACK
6
CONTINUOUS
10
93.7855
20
-89.9227
11
93.9158
21
-89.7574
0
LINE
8
BLACK
6
CONTINUOUS
10
93.9158
20
-89.7574
11
94.074
21
-89.6187
0
LINE
8
BLACK
6
CONTINUOUS
10
94.074
20
-89.6187
11
94.2549
21
-89.5111
0
LINE
8
BLACK
6
CONTINUOUS
10
94.2549
20
-89.5111
11
94.4524
21
-89.4382
0
LINE
8
BLACK
6
CONTINUOUS
10
94.4524
20
-89.4382
11
94.6598
21
-89.4026
0
LINE
8
BLACK
6
CONTINUOUS
10
94.6598
20
-89.4026
11
94.8702
21
-89.4053
0
LINE
8
BLACK
6
CONTINUOUS
10
172.37
20
-72.9053
11
172.577
21
-72.9464
0
LINE
8
BLACK
6
CONTINUOUS
10
172.577
20
-72.9464
11
172.772
21
-73.0244
0
LINE
8
BLACK
6
CONTINUOUS
10
172.772
20
-73.0244
11
172.95
21
-73.1367
0
LINE
8
BLACK
6
CONTINUOUS
10
172.95
20
-73.1367
11
173.105
21
-73.2795
0
LINE
8
BLACK
6
CONTINUOUS
10
173.105
20
-73.2795
11
173.231
21
-73.4482
0
LINE
8
BLACK
6
CONTINUOUS
10
173.231
20
-73.4482
11
173.324
21
-73.6369
0
LINE
8
BLACK
6
CONTINUOUS
10
173.324
20
-73.6369
11
173.381
21
-73.8395
0
LINE
8
BLACK
6
CONTINUOUS
10
173.381
20
-73.8395
11
173.4
21
-74.049
0
LINE
8
BLACK
6
CONTINUOUS
10
173.4
20
-74.049
11
173.398
21
-74.1092
0
LINE
8
BLACK
6
CONTINUOUS
10
173.398
20
-74.1092
11
173.368
21
-74.3175
0
LINE
8
BLACK
6
CONTINUOUS
10
173.368
20
-74.3175
11
173.301
21
-74.5168
0
LINE
8
BLACK
6
CONTINUOUS
10
173.301
20
-74.5168
11
173.198
21
-74.7004
0
LINE
8
BLACK
6
CONTINUOUS
10
173.198
20
-74.7004
11
173.063
21
-74.8622
0
LINE
8
BLACK
6
CONTINUOUS
10
173.063
20
-74.8622
11
172.901
21
-74.9968
0
LINE
8
BLACK
6
CONTINUOUS
10
172.901
20
-74.9968
11
172.718
21
-75.0996
0
LINE
8
BLACK
6
CONTINUOUS
10
172.718
20
-75.0996
11
172.518
21
-75.1673
0
LINE
8
BLACK
6
CONTINUOUS
10
172.518
20
-75.1673
11
172.31
21
-75.1975
0
LINE
8
BLACK
6
CONTINUOUS
10
172.31
20
-75.1975
11
172.1
21
-75.1892
0
LINE
8
BLACK
6
CONTINUOUS
10
172.1
20
-75.1892
11
171.895
21
-75.1428
0
LINE
8
BLACK
6
CONTINUOUS
10
171.895
20
-75.1428
11
171.701
21
-75.0597
0
LINE
8
BLACK
6
CONTINUOUS
10
171.701
20
-75.0597
11
171.526
21
-74.9428
0
LINE
8
BLACK
6
CONTINUOUS
10
171.526
20
-74.9428
11
171.376
21
-74.7959
0
LINE
8
BLACK
6
CONTINUOUS
10
171.376
20
-74.7959
11
171.254
21
-74.624
0
LINE
8
BLACK
6
CONTINUOUS
10
171.254
20
-74.624
11
171.166
21
-74.4329
0
LINE
8
BLACK
6
CONTINUOUS
10
171.166
20
-74.4329
11
171.114
21
-74.2289
0
LINE
8
BLACK
6
CONTINUOUS
10
171.114
20
-74.2289
11
171.1
21
-74.0189
0
LINE
8
BLACK
6
CONTINUOUS
10
171.1
20
-74.0189
11
171.125
21
-73.8099
0
LINE
8
BLACK
6
CONTINUOUS
10
171.125
20
-73.8099
11
171.188
21
-73.609
0
LINE
8
BLACK
6
CONTINUOUS
10
171.188
20
-73.609
11
171.286
21
-73.4227
0
LINE
8
BLACK
6
CONTINUOUS
10
171.286
20
-73.4227
11
171.416
21
-73.2574
0
LINE
8
BLACK
6
CONTINUOUS
10
171.416
20
-73.2574
11
171.574
21
-73.1187
0
LINE
8
BLACK
6
CONTINUOUS
10
171.574
20
-73.1187
11
171.755
21
-73.0111
0
LINE
8
BLACK
6
CONTINUOUS
10
171.755
20
-73.0111
11
171.952
21
-72.9382
0
LINE
8
BLACK
6
CONTINUOUS
10
171.952
20
-72.9382
11
172.16
21
-72.9026
0
LINE
8
BLACK
6
CONTINUOUS
10
172.16
20
-72.9026
11
172.37
21
-72.9053
0
LINE
8
BLACK
6
CONTINUOUS
10
114.87
20
-70.4053
11
115.077
21
-70.4464
0
LINE
8
BLACK
6
CONTINUOUS
10
115.077
20
-70.4464
11
115.272
21
-70.5244
0
LINE
8
BLACK
6
CONTINUOUS
10
115.272
20
-70.5244
11
115.45
21
-70.6367
0
LINE
8
BLACK
6
CONTINUOUS
10
115.45
20
-70.6367
11
115.605
21
-70.7795
0
LINE
8
BLACK
6
CONTINUOUS
10
115.605
20
-70.7795
11
115.731
21
-70.9482
0
LINE
8
BLACK
6
CONTINUOUS
10
115.731
20
-70.9482
11
115.824
21
-71.1369
0
LINE
8
BLACK
6
CONTINUOUS
10
115.824
20
-71.1369
11
115.881
21
-71.3395
0
LINE
8
BLACK
6
CONTINUOUS
10
115.881
20
-71.3395
11
115.9
21
-71.549
0
LINE
8
BLACK
6
CONTINUOUS
10
115.9
20
-71.549
11
115.898
21
-71.6092
0
LINE
8
BLACK
6
CONTINUOUS
10
115.898
20
-71.6092
11
115.868
21
-71.8175
0
LINE
8
BLACK
6
CONTINUOUS
10
115.868
20
-71.8175
11
115.801
21
-72.0168
0
LINE
8
BLACK
6
CONTINUOUS
10
115.801
20
-72.0168
11
115.698
21
-72.2004
0
LINE
8
BLACK
6
CONTINUOUS
10
115.698
20
-72.2004
11
115.563
21
-72.3622
0
LINE
8
BLACK
6
CONTINUOUS
10
115.563
20
-72.3622
11
115.401
21
-72.4968
0
LINE
8
BLACK
6
CONTINUOUS
10
115.401
20
-72.4968
11
115.218
21
-72.5996
0
LINE
8
BLACK
6
CONTINUOUS
10
115.218
20
-72.5996
11
115.018
21
-72.6673
0
LINE
8
BLACK
6
CONTINUOUS
10
115.018
20
-72.6673
11
114.81
21
-72.6975
0
LINE
8
BLACK
6
CONTINUOUS
10
114.81
20
-72.6975
11
114.6
21
-72.6892
0
LINE
8
BLACK
6
CONTINUOUS
10
114.6
20
-72.6892
11
114.395
21
-72.6428
0
LINE
8
BLACK
6
CONTINUOUS
10
114.395
20
-72.6428
11
114.201
21
-72.5597
0
LINE
8
BLACK
6
CONTINUOUS
10
114.201
20
-72.5597
11
114.026
21
-72.4428
0
LINE
8
BLACK
6
CONTINUOUS
10
114.026
20
-72.4428
11
113.876
21
-72.2959
0
LINE
8
BLACK
6
CONTINUOUS
10
113.876
20
-72.2959
11
113.754
21
-72.124
0
LINE
8
BLACK
6
CONTINUOUS
10
113.754
20
-72.124
11
113.666
21
-71.9329
0
LINE
8
BLACK
6
CONTINUOUS
10
113.666
20
-71.9329
11
113.614
21
-71.7289
0
LINE
8
BLACK
6
CONTINUOUS
10
113.614
20
-71.7289
11
113.6
21
-71.5189
0
LINE
8
BLACK
6
CONTINUOUS
10
113.6
20
-71.5189
11
113.625
21
-71.3099
0
LINE
8
BLACK
6
CONTINUOUS
10
113.625
20
-71.3099
11
113.688
21
-71.109
0
LINE
8
BLACK
6
CONTINUOUS
10
113.688
20
-71.109
11
113.786
21
-70.9227
0
LINE
8
BLACK
6
CONTINUOUS
10
113.786
20
-70.9227
11
113.916
21
-70.7574
0
LINE
8
BLACK
6
CONTINUOUS
10
113.916
20
-70.7574
11
114.074
21
-70.6187
0
LINE
8
BLACK
6
CONTINUOUS
10
114.074
20
-70.6187
11
114.255
21
-70.5111
0
LINE
8
BLACK
6
CONTINUOUS
10
114.255
20
-70.5111
11
114.452
21
-70.4382
0
LINE
8
BLACK
6
CONTINUOUS
10
114.452
20
-70.4382
11
114.66
21
-70.4026
0
LINE
8
BLACK
6
CONTINUOUS
10
114.66
20
-70.4026
11
114.87
21
-70.4053
0
LINE
8
BLACK
6
CONTINUOUS
10
81.9946
20
-61.8183
11
82.2833
21
-61.8757
0
LINE
8
BLACK
6
CONTINUOUS
10
82.2833
20
-61.8757
11
82.562
21
-61.9703
0
LINE
8
BLACK
6
CONTINUOUS
10
82.562
20
-61.9703
11
82.826
21
-62.1005
0
LINE
8
BLACK
6
CONTINUOUS
10
82.826
20
-62.1005
11
83.0707
21
-62.264
0
LINE
8
BLACK
6
CONTINUOUS
10
83.0707
20
-62.264
11
83.292
21
-62.458
0
LINE
8
BLACK
6
CONTINUOUS
10
83.292
20
-62.458
11
83.486
21
-62.6793
0
LINE
8
BLACK
6
CONTINUOUS
10
83.486
20
-62.6793
11
83.6495
21
-62.924
0
LINE
8
BLACK
6
CONTINUOUS
10
83.6495
20
-62.924
11
83.7797
21
-63.188
0
LINE
8
BLACK
6
CONTINUOUS
10
83.7797
20
-63.188
11
83.8743
21
-63.4667
0
LINE
8
BLACK
6
CONTINUOUS
10
83.8743
20
-63.4667
11
83.9317
21
-63.7554
0
LINE
8
BLACK
6
CONTINUOUS
10
83.9317
20
-63.7554
11
83.951
21
-64.049
0
LINE
8
BLACK
6
CONTINUOUS
10
83.951
20
-64.049
11
83.9317
21
-64.3427
0
LINE
8
BLACK
6
CONTINUOUS
10
83.9317
20
-64.3427
11
83.8743
21
-64.6314
0
LINE
8
BLACK
6
CONTINUOUS
10
83.8743
20
-64.6314
11
83.7797
21
-64.9101
0
LINE
8
BLACK
6
CONTINUOUS
10
83.7797
20
-64.9101
11
83.6495
21
-65.174
0
LINE
8
BLACK
6
CONTINUOUS
10
83.6495
20
-65.174
11
83.486
21
-65.4188
0
LINE
8
BLACK
6
CONTINUOUS
10
83.486
20
-65.4188
11
83.292
21
-65.64
0
LINE
8
BLACK
6
CONTINUOUS
10
83.292
20
-65.64
11
83.0707
21
-65.8341
0
LINE
8
BLACK
6
CONTINUOUS
10
83.0707
20
-65.8341
11
82.826
21
-65.9976
0
LINE
8
BLACK
6
CONTINUOUS
10
82.826
20
-65.9976
11
82.562
21
-66.1278
0
LINE
8
BLACK
6
CONTINUOUS
10
82.562
20
-66.1278
11
82.2833
21
-66.2224
0
LINE
8
BLACK
6
CONTINUOUS
10
82.2833
20
-66.2224
11
81.9946
21
-66.2798
0
LINE
8
BLACK
6
CONTINUOUS
10
81.9946
20
-66.2798
11
81.701
21
-66.299
0
LINE
8
BLACK
6
CONTINUOUS
10
81.701
20
-66.299
11
81.4073
21
-66.2798
0
LINE
8
BLACK
6
CONTINUOUS
10
81.4073
20
-66.2798
11
81.1186
21
-66.2224
0
LINE
8
BLACK
6
CONTINUOUS
10
81.1186
20
-66.2224
11
80.8399
21
-66.1278
0
LINE
8
BLACK
6
CONTINUOUS
10
80.8399
20
-66.1278
11
80.576
21
-65.9976
0
LINE
8
BLACK
6
CONTINUOUS
10
80.576
20
-65.9976
11
80.3312
21
-65.8341
0
LINE
8
BLACK
6
CONTINUOUS
10
80.3312
20
-65.8341
11
80.11
21
-65.64
0
LINE
8
BLACK
6
CONTINUOUS
10
80.11
20
-65.64
11
79.9159
21
-65.4188
0
LINE
8
BLACK
6
CONTINUOUS
10
79.9159
20
-65.4188
11
79.7524
21
-65.174
0
LINE
8
BLACK
6
CONTINUOUS
10
79.7524
20
-65.174
11
79.6222
21
-64.9101
0
LINE
8
BLACK
6
CONTINUOUS
10
79.6222
20
-64.9101
11
79.5276
21
-64.6314
0
LINE
8
BLACK
6
CONTINUOUS
10
79.5276
20
-64.6314
11
79.4702
21
-64.3427
0
LINE
8
BLACK
6
CONTINUOUS
10
79.4702
20
-64.3427
11
79.451
21
-64.049
0
LINE
8
BLACK
6
CONTINUOUS
10
79.451
20
-64.049
11
79.4702
21
-63.7554
0
LINE
8
BLACK
6
CONTINUOUS
10
79.4702
20
-63.7554
11
79.5276
21
-63.4667
0
LINE
8
BLACK
6
CONTINUOUS
10
79.5276
20
-63.4667
11
79.6222
21
-63.188
0
LINE
8
BLACK
6
CONTINUOUS
10
79.6222
20
-63.188
11
79.7524
21
-62.924
0
LINE
8
BLACK
6
CONTINUOUS
10
79.7524
20
-62.924
11
79.9159
21
-62.6793
0
LINE
8
BLACK
6
CONTINUOUS
10
79.9159
20
-62.6793
11
80.11
21
-62.458
0
LINE
8
BLACK
6
CONTINUOUS
10
80.11
20
-62.458
11
80.3312
21
-62.264
0
LINE
8
BLACK
6
CONTINUOUS
10
80.3312
20
-62.264
11
80.576
21
-62.1005
0
LINE
8
BLACK
6
CONTINUOUS
10
80.576
20
-62.1005
11
80.8399
21
-61.9703
0
LINE
8
BLACK
6
CONTINUOUS
10
80.8399
20
-61.9703
11
81.1186
21
-61.8757
0
LINE
8
BLACK
6
CONTINUOUS
10
81.1186
20
-61.8757
11
81.4073
21
-61.8183
0
LINE
8
BLACK
6
CONTINUOUS
10
81.4073
20
-61.8183
11
81.701
21
-61.799
0
LINE
8
BLACK
6
CONTINUOUS
10
81.701
20
-61.799
11
81.9946
21
-61.8183
0
LINE
8
BLACK
6
CONTINUOUS
10
218.044
20
-55.7692
11
218.332
21
-55.8267
0
LINE
8
BLACK
6
CONTINUOUS
10
218.332
20
-55.8267
11
218.611
21
-55.9213
0
LINE
8
BLACK
6
CONTINUOUS
10
218.611
20
-55.9213
11
218.875
21
-56.0514
0
LINE
8
BLACK
6
CONTINUOUS
10
218.875
20
-56.0514
11
219.12
21
-56.215
0
LINE
8
BLACK
6
CONTINUOUS
10
219.12
20
-56.215
11
219.341
21
-56.409
0
LINE
8
BLACK
6
CONTINUOUS
10
219.341
20
-56.409
11
219.535
21
-56.6303
0
LINE
8
BLACK
6
CONTINUOUS
10
219.535
20
-56.6303
11
219.699
21
-56.875
0
LINE
8
BLACK
6
CONTINUOUS
10
219.699
20
-56.875
11
219.829
21
-57.139
0
LINE
8
BLACK
6
CONTINUOUS
10
219.829
20
-57.139
11
219.923
21
-57.4177
0
LINE
8
BLACK
6
CONTINUOUS
10
219.923
20
-57.4177
11
219.981
21
-57.7063
0
LINE
8
BLACK
6
CONTINUOUS
10
219.981
20
-57.7063
11
220
21
-58
0
LINE
8
BLACK
6
CONTINUOUS
10
220
20
-58
11
219.981
21
-58.2937
0
LINE
8
BLACK
6
CONTINUOUS
10
219.981
20
-58.2937
11
219.923
21
-58.5823
0
LINE
8
BLACK
6
CONTINUOUS
10
219.923
20
-58.5823
11
219.829
21
-58.861
0
LINE
8
BLACK
6
CONTINUOUS
10
219.829
20
-58.861
11
219.699
21
-59.125
0
LINE
8
BLACK
6
CONTINUOUS
10
219.699
20
-59.125
11
219.535
21
-59.3697
0
LINE
8
BLACK
6
CONTINUOUS
10
219.535
20
-59.3697
11
219.341
21
-59.591
0
LINE
8
BLACK
6
CONTINUOUS
10
219.341
20
-59.591
11
219.12
21
-59.785
0
LINE
8
BLACK
6
CONTINUOUS
10
219.12
20
-59.785
11
218.875
21
-59.9486
0
LINE
8
BLACK
6
CONTINUOUS
10
218.875
20
-59.9486
11
218.611
21
-60.0787
0
LINE
8
BLACK
6
CONTINUOUS
10
218.611
20
-60.0787
11
218.332
21
-60.1733
0
LINE
8
BLACK
6
CONTINUOUS
10
218.332
20
-60.1733
11
218.044
21
-60.2308
0
LINE
8
BLACK
6
CONTINUOUS
10
218.044
20
-60.2308
11
217.75
21
-60.25
0
LINE
8
BLACK
6
CONTINUOUS
10
217.75
20
-60.25
11
217.456
21
-60.2308
0
LINE
8
BLACK
6
CONTINUOUS
10
217.456
20
-60.2308
11
217.168
21
-60.1733
0
LINE
8
BLACK
6
CONTINUOUS
10
217.168
20
-60.1733
11
216.889
21
-60.0787
0
LINE
8
BLACK
6
CONTINUOUS
10
216.889
20
-60.0787
11
216.625
21
-59.9486
0
LINE
8
BLACK
6
CONTINUOUS
10
216.625
20
-59.9486
11
216.38
21
-59.785
0
LINE
8
BLACK
6
CONTINUOUS
10
216.38
20
-59.785
11
216.159
21
-59.591
0
LINE
8
BLACK
6
CONTINUOUS
10
216.159
20
-59.591
11
215.965
21
-59.3697
0
LINE
8
BLACK
6
CONTINUOUS
10
215.965
20
-59.3697
11
215.801
21
-59.125
0
LINE
8
BLACK
6
CONTINUOUS
10
215.801
20
-59.125
11
215.671
21
-58.861
0
LINE
8
BLACK
6
CONTINUOUS
10
215.671
20
-58.861
11
215.577
21
-58.5823
0
LINE
8
BLACK
6
CONTINUOUS
10
215.577
20
-58.5823
11
215.519
21
-58.2937
0
LINE
8
BLACK
6
CONTINUOUS
10
215.519
20
-58.2937
11
215.5
21
-58
0
LINE
8
BLACK
6
CONTINUOUS
10
215.5
20
-58
11
215.519
21
-57.7063
0
LINE
8
BLACK
6
CONTINUOUS
10
215.519
20
-57.7063
11
215.577
21
-57.4177
0
LINE
8
BLACK
6
CONTINUOUS
10
215.577
20
-57.4177
11
215.671
21
-57.139
0
LINE
8
BLACK
6
CONTINUOUS
10
215.671
20
-57.139
11
215.801
21
-56.875
0
LINE
8
BLACK
6
CONTINUOUS
10
215.801
20
-56.875
11
215.965
21
-56.6303
0
LINE
8
BLACK
6
CONTINUOUS
10
215.965
20
-56.6303
11
216.159
21
-56.409
0
LINE
8
BLACK
6
CONTINUOUS
10
216.159
20
-56.409
11
216.38
21
-56.215
0
LINE
8
BLACK
6
CONTINUOUS
10
216.38
20
-56.215
11
216.625
21
-56.0514
0
LINE
8
BLACK
6
CONTINUOUS
10
216.625
20
-56.0514
11
216.889
21
-55.9213
0
LINE
8
BLACK
6
CONTINUOUS
10
216.889
20
-55.9213
11
217.168
21
-55.8267
0
LINE
8
BLACK
6
CONTINUOUS
10
217.168
20
-55.8267
11
217.456
21
-55.7692
0
LINE
8
BLACK
6
CONTINUOUS
10
217.456
20
-55.7692
11
217.75
21
-55.75
0
LINE
8
BLACK
6
CONTINUOUS
10
217.75
20
-55.75
11
218.044
21
-55.7692
0
LINE
8
BLACK
6
CONTINUOUS
10
151.687
20
-48.0618
11
151.894
21
-48.1391
0
LINE
8
BLACK
6
CONTINUOUS
10
151.894
20
-48.1391
11
152.088
21
-48.2451
0
LINE
8
BLACK
6
CONTINUOUS
10
152.088
20
-48.2451
11
152.265
21
-48.3776
0
LINE
8
BLACK
6
CONTINUOUS
10
152.265
20
-48.3776
11
152.421
21
-48.534
0
LINE
8
BLACK
6
CONTINUOUS
10
152.421
20
-48.534
11
152.554
21
-48.711
0
LINE
8
BLACK
6
CONTINUOUS
10
152.554
20
-48.711
11
152.66
21
-48.9051
0
LINE
8
BLACK
6
CONTINUOUS
10
152.66
20
-48.9051
11
152.737
21
-49.1124
0
LINE
8
BLACK
6
CONTINUOUS
10
152.737
20
-49.1124
11
152.784
21
-49.3285
0
LINE
8
BLACK
6
CONTINUOUS
10
152.784
20
-49.3285
11
152.8
21
-49.5489
0
LINE
8
BLACK
6
CONTINUOUS
10
152.8
20
-49.5489
11
152.8
21
-49.549
0
LINE
8
BLACK
6
CONTINUOUS
10
152.8
20
-49.549
11
152.8
21
-50.549
0
LINE
8
BLACK
6
CONTINUOUS
10
152.8
20
-50.549
11
152.796
21
-50.5581
0
LINE
8
BLACK
6
CONTINUOUS
10
152.796
20
-50.5581
11
152.796
21
-50.5582
0
LINE
8
BLACK
6
CONTINUOUS
10
152.796
20
-50.5582
11
152.813
21
-50.7766
0
LINE
8
BLACK
6
CONTINUOUS
10
152.813
20
-50.7766
11
152.867
21
-50.9985
0
LINE
8
BLACK
6
CONTINUOUS
10
152.867
20
-50.9985
11
152.954
21
-51.2094
0
LINE
8
BLACK
6
CONTINUOUS
10
152.954
20
-51.2094
11
153.073
21
-51.404
0
LINE
8
BLACK
6
CONTINUOUS
10
153.073
20
-51.404
11
153.222
21
-51.5775
0
LINE
8
BLACK
6
CONTINUOUS
10
153.222
20
-51.5775
11
153.395
21
-51.7257
0
LINE
8
BLACK
6
CONTINUOUS
10
153.395
20
-51.7257
11
153.59
21
-51.845
0
LINE
8
BLACK
6
CONTINUOUS
10
153.59
20
-51.845
11
153.801
21
-51.9323
0
LINE
8
BLACK
6
CONTINUOUS
10
153.801
20
-51.9323
11
154.022
21
-51.9856
0
LINE
8
BLACK
6
CONTINUOUS
10
154.022
20
-51.9856
11
154.241
21
-52.0028
0
LINE
8
BLACK
6
CONTINUOUS
10
154.241
20
-52.0028
11
154.25
21
-51.999
0
LINE
8
BLACK
6
CONTINUOUS
10
154.25
20
-51.999
11
217.75
21
-51.999
0
LINE
8
BLACK
6
CONTINUOUS
10
217.75
20
-51.999
11
218.225
21
-52.0177
0
LINE
8
BLACK
6
CONTINUOUS
10
218.225
20
-52.0177
11
218.696
21
-52.0735
0
LINE
8
BLACK
6
CONTINUOUS
10
218.696
20
-52.0735
11
219.162
21
-52.1662
0
LINE
8
BLACK
6
CONTINUOUS
10
219.162
20
-52.1662
11
219.62
21
-52.2951
0
LINE
8
BLACK
6
CONTINUOUS
10
219.62
20
-52.2951
11
220.065
21
-52.4596
0
LINE
8
BLACK
6
CONTINUOUS
10
220.065
20
-52.4596
11
220.497
21
-52.6584
0
LINE
8
BLACK
6
CONTINUOUS
10
220.497
20
-52.6584
11
220.911
21
-52.8906
0
LINE
8
BLACK
6
CONTINUOUS
10
220.911
20
-52.8906
11
221.306
21
-53.1545
0
LINE
8
BLACK
6
CONTINUOUS
10
221.306
20
-53.1545
11
221.679
21
-53.4486
0
LINE
8
BLACK
6
CONTINUOUS
10
221.679
20
-53.4486
11
222.028
21
-53.771
0
LINE
8
BLACK
6
CONTINUOUS
10
222.028
20
-53.771
11
222.35
21
-54.1199
0
LINE
8
BLACK
6
CONTINUOUS
10
222.35
20
-54.1199
11
222.645
21
-54.4929
0
LINE
8
BLACK
6
CONTINUOUS
10
222.645
20
-54.4929
11
222.908
21
-54.8879
0
LINE
8
BLACK
6
CONTINUOUS
10
222.908
20
-54.8879
11
223.141
21
-55.3024
0
LINE
8
BLACK
6
CONTINUOUS
10
223.141
20
-55.3024
11
223.339
21
-55.7338
0
LINE
8
BLACK
6
CONTINUOUS
10
223.339
20
-55.7338
11
223.504
21
-56.1795
0
LINE
8
BLACK
6
CONTINUOUS
10
223.504
20
-56.1795
11
223.633
21
-56.6367
0
LINE
8
BLACK
6
CONTINUOUS
10
223.633
20
-56.6367
11
223.726
21
-57.1026
0
LINE
8
BLACK
6
CONTINUOUS
10
223.726
20
-57.1026
11
223.781
21
-57.5744
0
LINE
8
BLACK
6
CONTINUOUS
10
223.781
20
-57.5744
11
223.8
21
-58.049
0
LINE
8
BLACK
6
CONTINUOUS
10
223.8
20
-58.049
11
223.781
21
-58.5237
0
LINE
8
BLACK
6
CONTINUOUS
10
223.781
20
-58.5237
11
223.726
21
-58.9955
0
LINE
8
BLACK
6
CONTINUOUS
10
223.726
20
-58.9955
11
223.633
21
-59.4614
0
LINE
8
BLACK
6
CONTINUOUS
10
223.633
20
-59.4614
11
223.504
21
-59.9186
0
LINE
8
BLACK
6
CONTINUOUS
10
223.504
20
-59.9186
11
223.339
21
-60.3643
0
LINE
8
BLACK
6
CONTINUOUS
10
223.339
20
-60.3643
11
223.141
21
-60.7957
0
LINE
8
BLACK
6
CONTINUOUS
10
223.141
20
-60.7957
11
222.908
21
-61.2102
0
LINE
8
BLACK
6
CONTINUOUS
10
222.908
20
-61.2102
11
222.645
21
-61.6051
0
LINE
8
BLACK
6
CONTINUOUS
10
222.645
20
-61.6051
11
222.35
21
-61.9782
0
LINE
8
BLACK
6
CONTINUOUS
10
222.35
20
-61.9782
11
222.028
21
-62.327
0
LINE
8
BLACK
6
CONTINUOUS
10
222.028
20
-62.327
11
221.679
21
-62.6495
0
LINE
8
BLACK
6
CONTINUOUS
10
221.679
20
-62.6495
11
221.306
21
-62.9436
0
LINE
8
BLACK
6
CONTINUOUS
10
221.306
20
-62.9436
11
220.911
21
-63.2075
0
LINE
8
BLACK
6
CONTINUOUS
10
220.911
20
-63.2075
11
220.497
21
-63.4396
0
LINE
8
BLACK
6
CONTINUOUS
10
220.497
20
-63.4396
11
220.065
21
-63.6385
0
LINE
8
BLACK
6
CONTINUOUS
10
220.065
20
-63.6385
11
219.62
21
-63.8029
0
LINE
8
BLACK
6
CONTINUOUS
10
219.62
20
-63.8029
11
219.162
21
-63.9319
0
LINE
8
BLACK
6
CONTINUOUS
10
219.162
20
-63.9319
11
218.696
21
-64.0246
0
LINE
8
BLACK
6
CONTINUOUS
10
218.696
20
-64.0246
11
218.225
21
-64.0804
0
LINE
8
BLACK
6
CONTINUOUS
10
218.225
20
-64.0804
11
217.75
21
-64.099
0
LINE
8
BLACK
6
CONTINUOUS
10
217.75
20
-64.099
11
217.75
21
-64.099
0
LINE
8
BLACK
6
CONTINUOUS
10
217.75
20
-64.099
11
212.25
21
-64.099
0
LINE
8
BLACK
6
CONTINUOUS
10
212.25
20
-64.099
11
212.241
21
-64.0952
0
LINE
8
BLACK
6
CONTINUOUS
10
212.241
20
-64.0952
11
212.022
21
-64.1124
0
LINE
8
BLACK
6
CONTINUOUS
10
212.022
20
-64.1124
11
211.801
21
-64.1657
0
LINE
8
BLACK
6
CONTINUOUS
10
211.801
20
-64.1657
11
211.59
21
-64.253
0
LINE
8
BLACK
6
CONTINUOUS
10
211.59
20
-64.253
11
211.395
21
-64.3723
0
LINE
8
BLACK
6
CONTINUOUS
10
211.395
20
-64.3723
11
211.222
21
-64.5205
0
LINE
8
BLACK
6
CONTINUOUS
10
211.222
20
-64.5205
11
211.073
21
-64.6941
0
LINE
8
BLACK
6
CONTINUOUS
10
211.073
20
-64.6941
11
210.954
21
-64.8887
0
LINE
8
BLACK
6
CONTINUOUS
10
210.954
20
-64.8887
11
210.867
21
-65.0996
0
LINE
8
BLACK
6
CONTINUOUS
10
210.867
20
-65.0996
11
210.813
21
-65.3215
0
LINE
8
BLACK
6
CONTINUOUS
10
210.813
20
-65.3215
11
210.796
21
-65.5399
0
LINE
8
BLACK
6
CONTINUOUS
10
210.796
20
-65.5399
11
210.8
21
-65.549
0
LINE
8
BLACK
6
CONTINUOUS
10
210.8
20
-65.549
11
210.8
21
-65.549
0
LINE
8
BLACK
6
CONTINUOUS
10
210.8
20
-65.549
11
210.8
21
-119.549
0
LINE
8
BLACK
6
CONTINUOUS
10
210.8
20
-119.549
11
210.795
21
-119.561
0
LINE
8
BLACK
6
CONTINUOUS
10
210.795
20
-119.561
11
210.793
21
-119.574
0
LINE
8
BLACK
6
CONTINUOUS
10
210.793
20
-119.574
11
203.193
21
-132.825
0
LINE
8
BLACK
6
CONTINUOUS
10
203.193
20
-132.825
11
203.193
21
-132.825
0
LINE
8
BLACK
6
CONTINUOUS
10
203.193
20
-132.825
11
203.193
21
-132.825
0
LINE
8
BLACK
6
CONTINUOUS
10
203.193
20
-132.825
11
203.185
21
-132.831
0
LINE
8
BLACK
6
CONTINUOUS
10
203.185
20
-132.831
11
203.091
21
-133.029
0
LINE
8
BLACK
6
CONTINUOUS
10
203.091
20
-133.029
11
203.026
21
-133.248
0
LINE
8
BLACK
6
CONTINUOUS
10
203.026
20
-133.248
11
202.997
21
-133.474
0
LINE
8
BLACK
6
CONTINUOUS
10
202.997
20
-133.474
11
203.003
21
-133.702
0
LINE
8
BLACK
6
CONTINUOUS
10
203.003
20
-133.702
11
203.044
21
-133.926
0
LINE
8
BLACK
6
CONTINUOUS
10
203.044
20
-133.926
11
203.12
21
-134.142
0
LINE
8
BLACK
6
CONTINUOUS
10
203.12
20
-134.142
11
203.229
21
-134.342
0
LINE
8
BLACK
6
CONTINUOUS
10
203.229
20
-134.342
11
203.368
21
-134.523
0
LINE
8
BLACK
6
CONTINUOUS
10
203.368
20
-134.523
11
203.534
21
-134.68
0
LINE
8
BLACK
6
CONTINUOUS
10
203.534
20
-134.68
11
203.714
21
-134.804
0
LINE
8
BLACK
6
CONTINUOUS
10
203.714
20
-134.804
11
203.723
21
-134.805
0
LINE
8
BLACK
6
CONTINUOUS
10
203.723
20
-134.805
11
208.149
21
-137.206
0
LINE
8
BLACK
6
CONTINUOUS
10
208.149
20
-137.206
11
208.15
21
-137.207
0
LINE
8
BLACK
6
CONTINUOUS
10
208.15
20
-137.207
11
208.15
21
-137.207
0
LINE
8
BLACK
6
CONTINUOUS
10
208.15
20
-137.207
11
208.551
21
-137.459
0
LINE
8
BLACK
6
CONTINUOUS
10
208.551
20
-137.459
11
208.93
21
-137.742
0
LINE
8
BLACK
6
CONTINUOUS
10
208.93
20
-137.742
11
209.285
21
-138.054
0
LINE
8
BLACK
6
CONTINUOUS
10
209.285
20
-138.054
11
209.616
21
-138.393
0
LINE
8
BLACK
6
CONTINUOUS
10
209.616
20
-138.393
11
209.918
21
-138.757
0
LINE
8
BLACK
6
CONTINUOUS
10
209.918
20
-138.757
11
210.191
21
-139.143
0
LINE
8
BLACK
6
CONTINUOUS
10
210.191
20
-139.143
11
210.433
21
-139.55
0
LINE
8
BLACK
6
CONTINUOUS
10
210.433
20
-139.55
11
210.642
21
-139.974
0
LINE
8
BLACK
6
CONTINUOUS
10
210.642
20
-139.974
11
210.818
21
-140.414
0
LINE
8
BLACK
6
CONTINUOUS
10
210.818
20
-140.414
11
210.958
21
-140.866
0
LINE
8
BLACK
6
CONTINUOUS
10
210.958
20
-140.866
11
211.062
21
-141.327
0
LINE
8
BLACK
6
CONTINUOUS
10
211.062
20
-141.327
11
211.13
21
-141.795
0
LINE
8
BLACK
6
CONTINUOUS
10
211.13
20
-141.795
11
211.161
21
-142.267
0
LINE
8
BLACK
6
CONTINUOUS
10
211.161
20
-142.267
11
211.155
21
-142.74
0
LINE
8
BLACK
6
CONTINUOUS
10
211.155
20
-142.74
11
211.112
21
-143.212
0
LINE
8
BLACK
6
CONTINUOUS
10
211.112
20
-143.212
11
211.032
21
-143.678
0
LINE
8
BLACK
6
CONTINUOUS
10
211.032
20
-143.678
11
210.915
21
-144.136
0
LINE
8
BLACK
6
CONTINUOUS
10
210.915
20
-144.136
11
210.763
21
-144.584
0
LINE
8
BLACK
6
CONTINUOUS
10
210.763
20
-144.584
11
210.576
21
-145.019
0
LINE
8
BLACK
6
CONTINUOUS
10
210.576
20
-145.019
11
210.356
21
-145.438
0
LINE
8
BLACK
6
CONTINUOUS
10
210.356
20
-145.438
11
210.103
21
-145.838
0
LINE
8
BLACK
6
CONTINUOUS
10
210.103
20
-145.838
11
209.82
21
-146.217
0
LINE
8
BLACK
6
CONTINUOUS
10
209.82
20
-146.217
11
209.508
21
-146.573
0
LINE
8
BLACK
6
CONTINUOUS
10
209.508
20
-146.573
11
209.17
21
-146.903
0
LINE
8
BLACK
6
CONTINUOUS
10
209.17
20
-146.903
11
208.806
21
-147.205
0
LINE
8
BLACK
6
CONTINUOUS
10
208.806
20
-147.205
11
208.419
21
-147.478
0
LINE
8
BLACK
6
CONTINUOUS
10
208.419
20
-147.478
11
208.013
21
-147.72
0
LINE
8
BLACK
6
CONTINUOUS
10
208.013
20
-147.72
11
207.589
21
-147.93
0
LINE
8
BLACK
6
CONTINUOUS
10
207.589
20
-147.93
11
207.149
21
-148.105
0
LINE
8
BLACK
6
CONTINUOUS
10
207.149
20
-148.105
11
206.697
21
-148.245
0
LINE
8
BLACK
6
CONTINUOUS
10
206.697
20
-148.245
11
206.236
21
-148.35
0
LINE
8
BLACK
6
CONTINUOUS
10
206.236
20
-148.35
11
205.768
21
-148.418
0
LINE
8
BLACK
6
CONTINUOUS
10
205.768
20
-148.418
11
205.295
21
-148.448
0
LINE
8
BLACK
6
CONTINUOUS
10
205.295
20
-148.448
11
204.822
21
-148.442
0
LINE
8
BLACK
6
CONTINUOUS
10
204.822
20
-148.442
11
204.351
21
-148.399
0
LINE
8
BLACK
6
CONTINUOUS
10
204.351
20
-148.399
11
203.885
21
-148.319
0
LINE
8
BLACK
6
CONTINUOUS
10
203.885
20
-148.319
11
203.426
21
-148.202
0
LINE
8
BLACK
6
CONTINUOUS
10
203.426
20
-148.202
11
202.978
21
-148.05
0
LINE
8
BLACK
6
CONTINUOUS
10
202.978
20
-148.05
11
202.544
21
-147.864
0
LINE
8
BLACK
6
CONTINUOUS
10
202.544
20
-147.864
11
202.125
21
-147.643
0
LINE
8
BLACK
6
CONTINUOUS
10
202.125
20
-147.643
11
202.125
21
-147.643
0
LINE
8
BLACK
6
CONTINUOUS
10
202.125
20
-147.643
11
202.125
21
-147.643
0
LINE
8
BLACK
6
CONTINUOUS
10
202.125
20
-147.643
11
202.125
21
-147.643
0
LINE
8
BLACK
6
CONTINUOUS
10
202.125
20
-147.643
11
179.731
21
-134.596
0
LINE
8
BLACK
6
CONTINUOUS
10
179.731
20
-134.596
11
161.243
21
-129.599
0
LINE
8
BLACK
6
CONTINUOUS
10
161.243
20
-129.599
11
142.25
21
-129.599
0
LINE
8
BLACK
6
CONTINUOUS
10
142.25
20
-129.599
11
142.241
21
-129.595
0
LINE
8
BLACK
6
CONTINUOUS
10
142.241
20
-129.595
11
142.232
21
-129.596
0
LINE
8
BLACK
6
CONTINUOUS
10
142.232
20
-129.596
11
112.741
21
-118.099
0
LINE
8
BLACK
6
CONTINUOUS
10
112.741
20
-118.099
11
96.25
21
-118.099
0
LINE
8
BLACK
6
CONTINUOUS
10
96.25
20
-118.099
11
96.0294
21
-118.083
0
LINE
8
BLACK
6
CONTINUOUS
10
96.0294
20
-118.083
11
95.8133
21
-118.036
0
LINE
8
BLACK
6
CONTINUOUS
10
95.8133
20
-118.036
11
95.6061
21
-117.959
0
LINE
8
BLACK
6
CONTINUOUS
10
95.6061
20
-117.959
11
95.412
21
-117.853
0
LINE
8
BLACK
6
CONTINUOUS
10
95.412
20
-117.853
11
95.235
21
-117.72
0
LINE
8
BLACK
6
CONTINUOUS
10
95.235
20
-117.72
11
95.0786
21
-117.564
0
LINE
8
BLACK
6
CONTINUOUS
10
95.0786
20
-117.564
11
94.946
21
-117.387
0
LINE
8
BLACK
6
CONTINUOUS
10
94.946
20
-117.387
11
94.84
21
-117.193
0
LINE
8
BLACK
6
CONTINUOUS
10
94.84
20
-117.193
11
94.7628
21
-116.986
0
LINE
8
BLACK
6
CONTINUOUS
10
94.7628
20
-116.986
11
94.7157
21
-116.77
0
LINE
8
BLACK
6
CONTINUOUS
10
94.7157
20
-116.77
11
94.7
21
-116.549
0
LINE
8
BLACK
6
CONTINUOUS
10
94.7
20
-116.549
11
94.7
21
-116.549
0
LINE
8
BLACK
6
CONTINUOUS
10
94.7
20
-116.549
11
94.7
21
-111.549
0
LINE
8
BLACK
6
CONTINUOUS
10
94.7
20
-111.549
11
94.7037
21
-111.54
0
LINE
8
BLACK
6
CONTINUOUS
10
94.7037
20
-111.54
11
94.6865
21
-111.322
0
LINE
8
BLACK
6
CONTINUOUS
10
94.6865
20
-111.322
11
94.6333
21
-111.1
0
LINE
8
BLACK
6
CONTINUOUS
10
94.6333
20
-111.1
11
94.5459
21
-110.889
0
LINE
8
BLACK
6
CONTINUOUS
10
94.5459
20
-110.889
11
94.4267
21
-110.694
0
LINE
8
BLACK
6
CONTINUOUS
10
94.4267
20
-110.694
11
94.2785
21
-110.521
0
LINE
8
BLACK
6
CONTINUOUS
10
94.2785
20
-110.521
11
94.1049
21
-110.372
0
LINE
8
BLACK
6
CONTINUOUS
10
94.1049
20
-110.372
11
93.9103
21
-110.253
0
LINE
8
BLACK
6
CONTINUOUS
10
93.9103
20
-110.253
11
93.6995
21
-110.166
0
LINE
8
BLACK
6
CONTINUOUS
10
93.6995
20
-110.166
11
93.4775
21
-110.112
0
LINE
8
BLACK
6
CONTINUOUS
10
93.4775
20
-110.112
11
93.2591
21
-110.095
0
LINE
8
BLACK
6
CONTINUOUS
10
93.2591
20
-110.095
11
93.25
21
-110.099
0
LINE
8
BLACK
6
CONTINUOUS
10
93.25
20
-110.099
11
89.2414
21
-110.099
0
LINE
8
BLACK
6
CONTINUOUS
10
89.2414
20
-110.099
11
89.2361
21
-110.097
0
LINE
8
BLACK
6
CONTINUOUS
10
89.2361
20
-110.097
11
89.2321
21
-110.095
0
LINE
8
BLACK
6
CONTINUOUS
10
89.2321
20
-110.095
11
89.0138
21
-110.112
0
LINE
8
BLACK
6
CONTINUOUS
10
89.0138
20
-110.112
11
88.7919
21
-110.166
0
LINE
8
BLACK
6
CONTINUOUS
10
88.7919
20
-110.166
11
88.581
21
-110.253
0
LINE
8
BLACK
6
CONTINUOUS
10
88.581
20
-110.253
11
88.3864
21
-110.372
0
LINE
8
BLACK
6
CONTINUOUS
10
88.3864
20
-110.372
11
88.2129
21
-110.521
0
LINE
8
BLACK
6
CONTINUOUS
10
88.2129
20
-110.521
11
88.0647
21
-110.694
0
LINE
8
BLACK
6
CONTINUOUS
10
88.0647
20
-110.694
11
87.9454
21
-110.889
0
LINE
8
BLACK
6
CONTINUOUS
10
87.9454
20
-110.889
11
87.8581
21
-111.1
0
LINE
8
BLACK
6
CONTINUOUS
10
87.8581
20
-111.1
11
87.8048
21
-111.322
0
LINE
8
BLACK
6
CONTINUOUS
10
87.8048
20
-111.322
11
87.7876
21
-111.54
0
LINE
8
BLACK
6
CONTINUOUS
10
87.7876
20
-111.54
11
87.7914
21
-111.549
0
LINE
8
BLACK
6
CONTINUOUS
10
87.7914
20
-111.549
11
87.7914
21
-111.549
0
LINE
8
BLACK
6
CONTINUOUS
10
87.7914
20
-111.549
11
87.7914
21
-117.049
0
LINE
8
BLACK
6
CONTINUOUS
10
87.7914
20
-117.049
11
87.7914
21
-117.049
0
LINE
8
BLACK
6
CONTINUOUS
10
87.7914
20
-117.049
11
87.7764
21
-117.526
0
LINE
8
BLACK
6
CONTINUOUS
10
87.7764
20
-117.526
11
87.7239
21
-118
0
LINE
8
BLACK
6
CONTINUOUS
10
87.7239
20
-118
11
87.6342
21
-118.469
0
LINE
8
BLACK
6
CONTINUOUS
10
87.6342
20
-118.469
11
87.5078
21
-118.929
0
LINE
8
BLACK
6
CONTINUOUS
10
87.5078
20
-118.929
11
87.3454
21
-119.377
0
LINE
8
BLACK
6
CONTINUOUS
10
87.3454
20
-119.377
11
87.1482
21
-119.812
0
LINE
8
BLACK
6
CONTINUOUS
10
87.1482
20
-119.812
11
86.9174
21
-120.23
0
LINE
8
BLACK
6
CONTINUOUS
10
86.9174
20
-120.23
11
86.6543
21
-120.628
0
LINE
8
BLACK
6
CONTINUOUS
10
86.6543
20
-120.628
11
86.3606
21
-121.004
0
LINE
8
BLACK
6
CONTINUOUS
10
86.3606
20
-121.004
11
86.0382
21
-121.356
0
LINE
8
BLACK
6
CONTINUOUS
10
86.0382
20
-121.356
11
85.6891
21
-121.681
0
LINE
8
BLACK
6
CONTINUOUS
10
85.6891
20
-121.681
11
85.3154
21
-121.978
0
LINE
8
BLACK
6
CONTINUOUS
10
85.3154
20
-121.978
11
84.9194
21
-122.244
0
LINE
8
BLACK
6
CONTINUOUS
10
84.9194
20
-122.244
11
84.5037
21
-122.478
0
LINE
8
BLACK
6
CONTINUOUS
10
84.5037
20
-122.478
11
84.0708
21
-122.679
0
LINE
8
BLACK
6
CONTINUOUS
10
84.0708
20
-122.679
11
83.6234
21
-122.845
0
LINE
8
BLACK
6
CONTINUOUS
10
83.6234
20
-122.845
11
83.1643
21
-122.975
0
LINE
8
BLACK
6
CONTINUOUS
10
83.1643
20
-122.975
11
82.6964
21
-123.069
0
LINE
8
BLACK
6
CONTINUOUS
10
82.6964
20
-123.069
11
82.2225
21
-123.125
0
LINE
8
BLACK
6
CONTINUOUS
10
82.2225
20
-123.125
11
81.7457
21
-123.144
0
LINE
8
BLACK
6
CONTINUOUS
10
81.7457
20
-123.144
11
81.2689
21
-123.125
0
LINE
8
BLACK
6
CONTINUOUS
10
81.2689
20
-123.125
11
80.795
21
-123.069
0
LINE
8
BLACK
6
CONTINUOUS
10
80.795
20
-123.069
11
80.3271
21
-122.975
0
LINE
8
BLACK
6
CONTINUOUS
10
80.3271
20
-122.975
11
79.868
21
-122.845
0
LINE
8
BLACK
6
CONTINUOUS
10
79.868
20
-122.845
11
79.4206
21
-122.679
0
LINE
8
BLACK
6
CONTINUOUS
10
79.4206
20
-122.679
11
78.9877
21
-122.478
0
LINE
8
BLACK
6
CONTINUOUS
10
78.9877
20
-122.478
11
78.572
21
-122.244
0
LINE
8
BLACK
6
CONTINUOUS
10
78.572
20
-122.244
11
78.176
21
-121.978
0
LINE
8
BLACK
6
CONTINUOUS
10
78.176
20
-121.978
11
77.8023
21
-121.681
0
LINE
8
BLACK
6
CONTINUOUS
10
77.8023
20
-121.681
11
77.4532
21
-121.356
0
LINE
8
BLACK
6
CONTINUOUS
10
77.4532
20
-121.356
11
77.1307
21
-121.004
0
LINE
8
BLACK
6
CONTINUOUS
10
77.1307
20
-121.004
11
76.8371
21
-120.628
0
LINE
8
BLACK
6
CONTINUOUS
10
76.8371
20
-120.628
11
76.574
21
-120.23
0
LINE
8
BLACK
6
CONTINUOUS
10
76.574
20
-120.23
11
76.3431
21
-119.812
0
LINE
8
BLACK
6
CONTINUOUS
10
76.3431
20
-119.812
11
76.1459
21
-119.377
0
LINE
8
BLACK
6
CONTINUOUS
10
76.1459
20
-119.377
11
75.9836
21
-118.929
0
LINE
8
BLACK
6
CONTINUOUS
10
75.9836
20
-118.929
11
75.8572
21
-118.469
0
LINE
8
BLACK
6
CONTINUOUS
10
75.8572
20
-118.469
11
75.7674
21
-118
0
LINE
8
BLACK
6
CONTINUOUS
10
75.7674
20
-118
11
75.7149
21
-117.526
0
LINE
8
BLACK
6
CONTINUOUS
10
75.7149
20
-117.526
11
75.7
21
-117.049
0
LINE
8
BLACK
6
CONTINUOUS
10
75.7
20
-117.049
11
75.7
21
-117.049
0
LINE
8
BLACK
6
CONTINUOUS
10
75.7
20
-117.049
11
75.7
21
-64
0
LINE
8
BLACK
6
CONTINUOUS
10
75.7
20
-64
11
75.7186
21
-63.529
0
LINE
8
BLACK
6
CONTINUOUS
10
75.7186
20
-63.529
11
75.7741
21
-63.0609
0
LINE
8
BLACK
6
CONTINUOUS
10
75.7741
20
-63.0609
11
75.8663
21
-62.5986
0
LINE
8
BLACK
6
CONTINUOUS
10
75.8663
20
-62.5986
11
75.9946
21
-62.145
0
LINE
8
BLACK
6
CONTINUOUS
10
75.9946
20
-62.145
11
76.1582
21
-61.7028
0
LINE
8
BLACK
6
CONTINUOUS
10
76.1582
20
-61.7028
11
76.356
21
-61.275
0
LINE
8
BLACK
6
CONTINUOUS
10
76.356
20
-61.275
11
76.5869
21
-60.864
0
LINE
8
BLACK
6
CONTINUOUS
10
76.5869
20
-60.864
11
76.8494
21
-60.4724
0
LINE
8
BLACK
6
CONTINUOUS
10
76.8494
20
-60.4724
11
77.1419
21
-60.1028
0
LINE
8
BLACK
6
CONTINUOUS
10
77.1419
20
-60.1028
11
77.4625
21
-59.7572
0
LINE
8
BLACK
6
CONTINUOUS
10
77.4625
20
-59.7572
11
77.8094
21
-59.438
0
LINE
8
BLACK
6
CONTINUOUS
10
77.8094
20
-59.438
11
78.1803
21
-59.147
0
LINE
8
BLACK
6
CONTINUOUS
10
78.1803
20
-59.147
11
78.5729
21
-58.8861
0
LINE
8
BLACK
6
CONTINUOUS
10
78.5729
20
-58.8861
11
78.9849
21
-58.657
0
LINE
8
BLACK
6
CONTINUOUS
10
78.9849
20
-58.657
11
79.4135
21
-58.4609
0
LINE
8
BLACK
6
CONTINUOUS
10
79.4135
20
-58.4609
11
79.8563
21
-58.2991
0
LINE
8
BLACK
6
CONTINUOUS
10
79.8563
20
-58.2991
11
80.3105
21
-58.1727
0
LINE
8
BLACK
6
CONTINUOUS
10
80.3105
20
-58.1727
11
80.7731
21
-58.0824
0
LINE
8
BLACK
6
CONTINUOUS
10
80.7731
20
-58.0824
11
81.2415
21
-58.0288
0
LINE
8
BLACK
6
CONTINUOUS
10
81.2415
20
-58.0288
11
81.7126
21
-58.0122
0
LINE
8
BLACK
6
CONTINUOUS
10
81.7126
20
-58.0122
11
82.1835
21
-58.0327
0
LINE
8
BLACK
6
CONTINUOUS
10
82.1835
20
-58.0327
11
82.6514
21
-58.0902
0
LINE
8
BLACK
6
CONTINUOUS
10
82.6514
20
-58.0902
11
83.1133
21
-58.1843
0
LINE
8
BLACK
6
CONTINUOUS
10
83.1133
20
-58.1843
11
83.5664
21
-58.3145
0
LINE
8
BLACK
6
CONTINUOUS
10
83.5664
20
-58.3145
11
84.0078
21
-58.4799
0
LINE
8
BLACK
6
CONTINUOUS
10
84.0078
20
-58.4799
11
84.4349
21
-58.6795
0
LINE
8
BLACK
6
CONTINUOUS
10
84.4349
20
-58.6795
11
84.8449
21
-58.912
0
LINE
8
BLACK
6
CONTINUOUS
10
84.8449
20
-58.912
11
85.2353
21
-59.1762
0
LINE
8
BLACK
6
CONTINUOUS
10
85.2353
20
-59.1762
11
85.6038
21
-59.4702
0
LINE
8
BLACK
6
CONTINUOUS
10
85.6038
20
-59.4702
11
85.948
21
-59.7923
0
LINE
8
BLACK
6
CONTINUOUS
10
85.948
20
-59.7923
11
86.2658
21
-60.1404
0
LINE
8
BLACK
6
CONTINUOUS
10
86.2658
20
-60.1404
11
86.5553
21
-60.5125
0
LINE
8
BLACK
6
CONTINUOUS
10
86.5553
20
-60.5125
11
86.8145
21
-60.9062
0
LINE
8
BLACK
6
CONTINUOUS
10
86.8145
20
-60.9062
11
87.042
21
-61.3191
0
LINE
8
BLACK
6
CONTINUOUS
10
87.042
20
-61.3191
11
87.2363
21
-61.7486
0
LINE
8
BLACK
6
CONTINUOUS
10
87.2363
20
-61.7486
11
87.3962
21
-62.192
0
LINE
8
BLACK
6
CONTINUOUS
10
87.3962
20
-62.192
11
87.5207
21
-62.6467
0
LINE
8
BLACK
6
CONTINUOUS
10
87.5207
20
-62.6467
11
87.6091
21
-63.1097
0
LINE
8
BLACK
6
CONTINUOUS
10
87.6091
20
-63.1097
11
87.6608
21
-63.5783
0
LINE
8
BLACK
6
CONTINUOUS
10
87.6608
20
-63.5783
11
87.6755
21
-64.049
0
LINE
8
BLACK
6
CONTINUOUS
10
87.6755
20
-64.049
11
87.6755
21
-64.049
0
LINE
8
BLACK
6
CONTINUOUS
10
87.6755
20
-64.049
11
87.6755
21
-69.549
0
LINE
8
BLACK
6
CONTINUOUS
10
87.6755
20
-69.549
11
87.6722
21
-69.5569
0
LINE
8
BLACK
6
CONTINUOUS
10
87.6722
20
-69.5569
11
87.6717
21
-69.5582
0
LINE
8
BLACK
6
CONTINUOUS
10
87.6717
20
-69.5582
11
87.6889
21
-69.7766
0
LINE
8
BLACK
6
CONTINUOUS
10
87.6889
20
-69.7766
11
87.7422
21
-69.9985
0
LINE
8
BLACK
6
CONTINUOUS
10
87.7422
20
-69.9985
11
87.8295
21
-70.2094
0
LINE
8
BLACK
6
CONTINUOUS
10
87.8295
20
-70.2094
11
87.9488
21
-70.404
0
LINE
8
BLACK
6
CONTINUOUS
10
87.9488
20
-70.404
11
88.097
21
-70.5775
0
LINE
8
BLACK
6
CONTINUOUS
10
88.097
20
-70.5775
11
88.2706
21
-70.7257
0
LINE
8
BLACK
6
CONTINUOUS
10
88.2706
20
-70.7257
11
88.4652
21
-70.845
0
LINE
8
BLACK
6
CONTINUOUS
10
88.4652
20
-70.845
11
88.676
21
-70.9323
0
LINE
8
BLACK
6
CONTINUOUS
10
88.676
20
-70.9323
11
88.8979
21
-70.9856
0
LINE
8
BLACK
6
CONTINUOUS
10
88.8979
20
-70.9856
11
89.1164
21
-71.0028
0
LINE
8
BLACK
6
CONTINUOUS
10
89.1164
20
-71.0028
11
89.1255
21
-70.999
0
LINE
8
BLACK
6
CONTINUOUS
10
89.1255
20
-70.999
11
93.25
21
-70.999
0
LINE
8
BLACK
6
CONTINUOUS
10
93.25
20
-70.999
11
93.259
21
-71.0028
0
LINE
8
BLACK
6
CONTINUOUS
10
93.259
20
-71.0028
11
93.4775
21
-70.9856
0
LINE
8
BLACK
6
CONTINUOUS
10
93.4775
20
-70.9856
11
93.6995
21
-70.9323
0
LINE
8
BLACK
6
CONTINUOUS
10
93.6995
20
-70.9323
11
93.9103
21
-70.845
0
LINE
8
BLACK
6
CONTINUOUS
10
93.9103
20
-70.845
11
94.1049
21
-70.7257
0
LINE
8
BLACK
6
CONTINUOUS
10
94.1049
20
-70.7257
11
94.2785
21
-70.5775
0
LINE
8
BLACK
6
CONTINUOUS
10
94.2785
20
-70.5775
11
94.4267
21
-70.4039
0
LINE
8
BLACK
6
CONTINUOUS
10
94.4267
20
-70.4039
11
94.5459
21
-70.2093
0
LINE
8
BLACK
6
CONTINUOUS
10
94.5459
20
-70.2093
11
94.6333
21
-69.9985
0
LINE
8
BLACK
6
CONTINUOUS
10
94.6333
20
-69.9985
11
94.6866
21
-69.7766
0
LINE
8
BLACK
6
CONTINUOUS
10
94.6866
20
-69.7766
11
94.7038
21
-69.5581
0
LINE
8
BLACK
6
CONTINUOUS
10
94.7038
20
-69.5581
11
94.7
21
-69.549
0
LINE
8
BLACK
6
CONTINUOUS
10
94.7
20
-69.549
11
94.7
21
-61.549
0
LINE
8
BLACK
6
CONTINUOUS
10
94.7
20
-61.549
11
94.7158
21
-61.3284
0
LINE
8
BLACK
6
CONTINUOUS
10
94.7158
20
-61.3284
11
94.7628
21
-61.1123
0
LINE
8
BLACK
6
CONTINUOUS
10
94.7628
20
-61.1123
11
94.8401
21
-60.9051
0
LINE
8
BLACK
6
CONTINUOUS
10
94.8401
20
-60.9051
11
94.946
21
-60.711
0
LINE
8
BLACK
6
CONTINUOUS
10
94.946
20
-60.711
11
95.0786
21
-60.534
0
LINE
8
BLACK
6
CONTINUOUS
10
95.0786
20
-60.534
11
95.235
21
-60.3776
0
LINE
8
BLACK
6
CONTINUOUS
10
95.235
20
-60.3776
11
95.412
21
-60.2451
0
LINE
8
BLACK
6
CONTINUOUS
10
95.412
20
-60.2451
11
95.6061
21
-60.1391
0
LINE
8
BLACK
6
CONTINUOUS
10
95.6061
20
-60.1391
11
95.8133
21
-60.0618
0
LINE
8
BLACK
6
CONTINUOUS
10
95.8133
20
-60.0618
11
96.0294
21
-60.0148
0
LINE
8
BLACK
6
CONTINUOUS
10
96.0294
20
-60.0148
11
96.25
21
-59.999
0
LINE
8
BLACK
6
CONTINUOUS
10
96.25
20
-59.999
11
96.25
21
-59.999
0
LINE
8
BLACK
6
CONTINUOUS
10
96.25
20
-59.999
11
112.25
21
-59.999
0
LINE
8
BLACK
6
CONTINUOUS
10
112.25
20
-59.999
11
112.259
21
-60.0028
0
LINE
8
BLACK
6
CONTINUOUS
10
112.259
20
-60.0028
11
112.478
21
-59.9856
0
LINE
8
BLACK
6
CONTINUOUS
10
112.478
20
-59.9856
11
112.699
21
-59.9323
0
LINE
8
BLACK
6
CONTINUOUS
10
112.699
20
-59.9323
11
112.91
21
-59.845
0
LINE
8
BLACK
6
CONTINUOUS
10
112.91
20
-59.845
11
113.105
21
-59.7257
0
LINE
8
BLACK
6
CONTINUOUS
10
113.105
20
-59.7257
11
113.278
21
-59.5775
0
LINE
8
BLACK
6
CONTINUOUS
10
113.278
20
-59.5775
11
113.427
21
-59.4039
0
LINE
8
BLACK
6
CONTINUOUS
10
113.427
20
-59.4039
11
113.546
21
-59.2093
0
LINE
8
BLACK
6
CONTINUOUS
10
113.546
20
-59.2093
11
113.633
21
-58.9985
0
LINE
8
BLACK
6
CONTINUOUS
10
113.633
20
-58.9985
11
113.687
21
-58.7766
0
LINE
8
BLACK
6
CONTINUOUS
10
113.687
20
-58.7766
11
113.704
21
-58.5581
0
LINE
8
BLACK
6
CONTINUOUS
10
113.704
20
-58.5581
11
113.7
21
-58.549
0
LINE
8
BLACK
6
CONTINUOUS
10
113.7
20
-58.549
11
113.7
21
-53.549
0
LINE
8
BLACK
6
CONTINUOUS
10
113.7
20
-53.549
11
113.716
21
-53.3284
0
LINE
8
BLACK
6
CONTINUOUS
10
113.716
20
-53.3284
11
113.763
21
-53.1123
0
LINE
8
BLACK
6
CONTINUOUS
10
113.763
20
-53.1123
11
113.84
21
-52.9051
0
LINE
8
BLACK
6
CONTINUOUS
10
113.84
20
-52.9051
11
113.946
21
-52.711
0
LINE
8
BLACK
6
CONTINUOUS
10
113.946
20
-52.711
11
114.079
21
-52.534
0
LINE
8
BLACK
6
CONTINUOUS
10
114.079
20
-52.534
11
114.235
21
-52.3776
0
LINE
8
BLACK
6
CONTINUOUS
10
114.235
20
-52.3776
11
114.412
21
-52.2451
0
LINE
8
BLACK
6
CONTINUOUS
10
114.412
20
-52.2451
11
114.606
21
-52.1391
0
LINE
8
BLACK
6
CONTINUOUS
10
114.606
20
-52.1391
11
114.813
21
-52.0618
0
LINE
8
BLACK
6
CONTINUOUS
10
114.813
20
-52.0618
11
115.029
21
-52.0148
0
LINE
8
BLACK
6
CONTINUOUS
10
115.029
20
-52.0148
11
115.25
21
-51.999
0
LINE
8
BLACK
6
CONTINUOUS
10
115.25
20
-51.999
11
115.25
21
-51.999
0
LINE
8
BLACK
6
CONTINUOUS
10
115.25
20
-51.999
11
131.25
21
-51.999
0
LINE
8
BLACK
6
CONTINUOUS
10
131.25
20
-51.999
11
131.259
21
-52.0028
0
LINE
8
BLACK
6
CONTINUOUS
10
131.259
20
-52.0028
11
131.478
21
-51.9856
0
LINE
8
BLACK
6
CONTINUOUS
10
131.478
20
-51.9856
11
131.699
21
-51.9323
0
LINE
8
BLACK
6
CONTINUOUS
10
131.699
20
-51.9323
11
131.91
21
-51.845
0
LINE
8
BLACK
6
CONTINUOUS
10
131.91
20
-51.845
11
132.105
21
-51.7257
0
LINE
8
BLACK
6
CONTINUOUS
10
132.105
20
-51.7257
11
132.278
21
-51.5775
0
LINE
8
BLACK
6
CONTINUOUS
10
132.278
20
-51.5775
11
132.427
21
-51.4039
0
LINE
8
BLACK
6
CONTINUOUS
10
132.427
20
-51.4039
11
132.546
21
-51.2093
0
LINE
8
BLACK
6
CONTINUOUS
10
132.546
20
-51.2093
11
132.633
21
-50.9985
0
LINE
8
BLACK
6
CONTINUOUS
10
132.633
20
-50.9985
11
132.687
21
-50.7766
0
LINE
8
BLACK
6
CONTINUOUS
10
132.687
20
-50.7766
11
132.704
21
-50.5581
0
LINE
8
BLACK
6
CONTINUOUS
10
132.704
20
-50.5581
11
132.7
21
-50.549
0
LINE
8
BLACK
6
CONTINUOUS
10
132.7
20
-50.549
11
132.7
21
-49.549
0
LINE
8
BLACK
6
CONTINUOUS
10
132.7
20
-49.549
11
132.716
21
-49.3284
0
LINE
8
BLACK
6
CONTINUOUS
10
132.716
20
-49.3284
11
132.763
21
-49.1123
0
LINE
8
BLACK
6
CONTINUOUS
10
132.763
20
-49.1123
11
132.84
21
-48.9051
0
LINE
8
BLACK
6
CONTINUOUS
10
132.84
20
-48.9051
11
132.946
21
-48.711
0
LINE
8
BLACK
6
CONTINUOUS
10
132.946
20
-48.711
11
133.079
21
-48.534
0
LINE
8
BLACK
6
CONTINUOUS
10
133.079
20
-48.534
11
133.235
21
-48.3776
0
LINE
8
BLACK
6
CONTINUOUS
10
133.235
20
-48.3776
11
133.412
21
-48.2451
0
LINE
8
BLACK
6
CONTINUOUS
10
133.412
20
-48.2451
11
133.606
21
-48.1391
0
LINE
8
BLACK
6
CONTINUOUS
10
133.606
20
-48.1391
11
133.813
21
-48.0618
0
LINE
8
BLACK
6
CONTINUOUS
10
133.813
20
-48.0618
11
134.029
21
-48.0148
0
LINE
8
BLACK
6
CONTINUOUS
10
134.029
20
-48.0148
11
134.25
21
-47.999
0
LINE
8
BLACK
6
CONTINUOUS
10
134.25
20
-47.999
11
134.25
21
-47.999
0
LINE
8
BLACK
6
CONTINUOUS
10
134.25
20
-47.999
11
151.25
21
-47.999
0
LINE
8
BLACK
6
CONTINUOUS
10
151.25
20
-47.999
11
151.471
21
-48.0148
0
LINE
8
BLACK
6
CONTINUOUS
10
151.471
20
-48.0148
11
151.687
21
-48.0618
0
LINE
8
BLACK
6
CONTINUOUS
10
132.784
20
-50.7696
11
132.737
21
-50.9857
0
LINE
8
BLACK
6
CONTINUOUS
10
132.737
20
-50.9857
11
132.66
21
-51.1929
0
LINE
8
BLACK
6
CONTINUOUS
10
132.66
20
-51.1929
11
132.554
21
-51.387
0
LINE
8
BLACK
6
CONTINUOUS
10
132.554
20
-51.387
11
132.421
21
-51.564
0
LINE
8
BLACK
6
CONTINUOUS
10
132.421
20
-51.564
11
132.265
21
-51.7204
0
LINE
8
BLACK
6
CONTINUOUS
10
132.265
20
-51.7204
11
132.088
21
-51.853
0
LINE
8
BLACK
6
CONTINUOUS
10
132.088
20
-51.853
11
131.894
21
-51.9589
0
LINE
8
BLACK
6
CONTINUOUS
10
131.894
20
-51.9589
11
131.687
21
-52.0362
0
LINE
8
BLACK
6
CONTINUOUS
10
131.687
20
-52.0362
11
131.471
21
-52.0832
0
LINE
8
BLACK
6
CONTINUOUS
10
131.471
20
-52.0832
11
131.25
21
-52.099
0
LINE
8
BLACK
6
CONTINUOUS
10
131.25
20
-52.099
11
131.25
21
-52.099
0
LINE
8
BLACK
6
CONTINUOUS
10
131.25
20
-52.099
11
115.25
21
-52.099
0
LINE
8
BLACK
6
CONTINUOUS
10
115.25
20
-52.099
11
115.241
21
-52.0952
0
LINE
8
BLACK
6
CONTINUOUS
10
115.241
20
-52.0952
11
115.022
21
-52.1124
0
LINE
8
BLACK
6
CONTINUOUS
10
115.022
20
-52.1124
11
114.801
21
-52.1657
0
LINE
8
BLACK
6
CONTINUOUS
10
114.801
20
-52.1657
11
114.59
21
-52.253
0
LINE
8
BLACK
6
CONTINUOUS
10
114.59
20
-52.253
11
114.395
21
-52.3723
0
LINE
8
BLACK
6
CONTINUOUS
10
114.395
20
-52.3723
11
114.222
21
-52.5205
0
LINE
8
BLACK
6
CONTINUOUS
10
114.222
20
-52.5205
11
114.073
21
-52.6941
0
LINE
8
BLACK
6
CONTINUOUS
10
114.073
20
-52.6941
11
113.954
21
-52.8887
0
LINE
8
BLACK
6
CONTINUOUS
10
113.954
20
-52.8887
11
113.867
21
-53.0996
0
LINE
8
BLACK
6
CONTINUOUS
10
113.867
20
-53.0996
11
113.813
21
-53.3215
0
LINE
8
BLACK
6
CONTINUOUS
10
113.813
20
-53.3215
11
113.796
21
-53.5399
0
LINE
8
BLACK
6
CONTINUOUS
10
113.796
20
-53.5399
11
113.8
21
-53.549
0
LINE
8
BLACK
6
CONTINUOUS
10
113.8
20
-53.549
11
113.8
21
-58.549
0
LINE
8
BLACK
6
CONTINUOUS
10
113.8
20
-58.549
11
113.784
21
-58.7696
0
LINE
8
BLACK
6
CONTINUOUS
10
113.784
20
-58.7696
11
113.737
21
-58.9857
0
LINE
8
BLACK
6
CONTINUOUS
10
113.737
20
-58.9857
11
113.66
21
-59.1929
0
LINE
8
BLACK
6
CONTINUOUS
10
113.66
20
-59.1929
11
113.554
21
-59.387
0
LINE
8
BLACK
6
CONTINUOUS
10
113.554
20
-59.387
11
113.421
21
-59.564
0
LINE
8
BLACK
6
CONTINUOUS
10
113.421
20
-59.564
11
113.265
21
-59.7204
0
LINE
8
BLACK
6
CONTINUOUS
10
113.265
20
-59.7204
11
113.088
21
-59.853
0
LINE
8
BLACK
6
CONTINUOUS
10
113.088
20
-59.853
11
112.894
21
-59.9589
0
LINE
8
BLACK
6
CONTINUOUS
10
112.894
20
-59.9589
11
112.687
21
-60.0362
0
LINE
8
BLACK
6
CONTINUOUS
10
112.687
20
-60.0362
11
112.471
21
-60.0832
0
LINE
8
BLACK
6
CONTINUOUS
10
112.471
20
-60.0832
11
112.25
21
-60.099
0
LINE
8
BLACK
6
CONTINUOUS
10
112.25
20
-60.099
11
112.25
21
-60.099
0
LINE
8
BLACK
6
CONTINUOUS
10
112.25
20
-60.099
11
96.25
21
-60.099
0
LINE
8
BLACK
6
CONTINUOUS
10
96.25
20
-60.099
11
96.2408
21
-60.0952
0
LINE
8
BLACK
6
CONTINUOUS
10
96.2408
20
-60.0952
11
96.0225
21
-60.1124
0
LINE
8
BLACK
6
CONTINUOUS
10
96.0225
20
-60.1124
11
95.8005
21
-60.1657
0
LINE
8
BLACK
6
CONTINUOUS
10
95.8005
20
-60.1657
11
95.5897
21
-60.253
0
LINE
8
BLACK
6
CONTINUOUS
10
95.5897
20
-60.253
11
95.3951
21
-60.3723
0
LINE
8
BLACK
6
CONTINUOUS
10
95.3951
20
-60.3723
11
95.2215
21
-60.5205
0
LINE
8
BLACK
6
CONTINUOUS
10
95.2215
20
-60.5205
11
95.0733
21
-60.6941
0
LINE
8
BLACK
6
CONTINUOUS
10
95.0733
20
-60.6941
11
94.954
21
-60.8887
0
LINE
8
BLACK
6
CONTINUOUS
10
94.954
20
-60.8887
11
94.8667
21
-61.0996
0
LINE
8
BLACK
6
CONTINUOUS
10
94.8667
20
-61.0996
11
94.8134
21
-61.3215
0
LINE
8
BLACK
6
CONTINUOUS
10
94.8134
20
-61.3215
11
94.7962
21
-61.5399
0
LINE
8
BLACK
6
CONTINUOUS
10
94.7962
20
-61.5399
11
94.8
21
-61.549
0
LINE
8
BLACK
6
CONTINUOUS
10
94.8
20
-61.549
11
94.8
21
-69.549
0
LINE
8
BLACK
6
CONTINUOUS
10
94.8
20
-69.549
11
94.7842
21
-69.7696
0
LINE
8
BLACK
6
CONTINUOUS
10
94.7842
20
-69.7696
11
94.7372
21
-69.9857
0
LINE
8
BLACK
6
CONTINUOUS
10
94.7372
20
-69.9857
11
94.6599
21
-70.1929
0
LINE
8
BLACK
6
CONTINUOUS
10
94.6599
20
-70.1929
11
94.5539
21
-70.387
0
LINE
8
BLACK
6
CONTINUOUS
10
94.5539
20
-70.387
11
94.4214
21
-70.564
0
LINE
8
BLACK
6
CONTINUOUS
10
94.4214
20
-70.564
11
94.265
21
-70.7204
0
LINE
8
BLACK
6
CONTINUOUS
10
94.265
20
-70.7204
11
94.088
21
-70.853
0
LINE
8
BLACK
6
CONTINUOUS
10
94.088
20
-70.853
11
93.8939
21
-70.9589
0
LINE
8
BLACK
6
CONTINUOUS
10
93.8939
20
-70.9589
11
93.6867
21
-71.0362
0
LINE
8
BLACK
6
CONTINUOUS
10
93.6867
20
-71.0362
11
93.4706
21
-71.0832
0
LINE
8
BLACK
6
CONTINUOUS
10
93.4706
20
-71.0832
11
93.2501
21
-71.099
0
LINE
8
BLACK
6
CONTINUOUS
10
93.2501
20
-71.099
11
93.25
21
-71.099
0
LINE
8
BLACK
6
CONTINUOUS
10
93.25
20
-71.099
11
89.1255
21
-71.099
0
LINE
8
BLACK
6
CONTINUOUS
10
89.1255
20
-71.099
11
88.9049
21
-71.0833
0
LINE
8
BLACK
6
CONTINUOUS
10
88.9049
20
-71.0833
11
88.6888
21
-71.0362
0
LINE
8
BLACK
6
CONTINUOUS
10
88.6888
20
-71.0362
11
88.4816
21
-70.959
0
LINE
8
BLACK
6
CONTINUOUS
10
88.4816
20
-70.959
11
88.2875
21
-70.853
0
LINE
8
BLACK
6
CONTINUOUS
10
88.2875
20
-70.853
11
88.1104
21
-70.7204
0
LINE
8
BLACK
6
CONTINUOUS
10
88.1104
20
-70.7204
11
87.9541
21
-70.5641
0
LINE
8
BLACK
6
CONTINUOUS
10
87.9541
20
-70.5641
11
87.8215
21
-70.387
0
LINE
8
BLACK
6
CONTINUOUS
10
87.8215
20
-70.387
11
87.7155
21
-70.1929
0
LINE
8
BLACK
6
CONTINUOUS
10
87.7155
20
-70.1929
11
87.6383
21
-69.9857
0
LINE
8
BLACK
6
CONTINUOUS
10
87.6383
20
-69.9857
11
87.5912
21
-69.7696
0
LINE
8
BLACK
6
CONTINUOUS
10
87.5912
20
-69.7696
11
87.5755
21
-69.549
0
LINE
8
BLACK
6
CONTINUOUS
10
87.5755
20
-69.549
11
87.5755
21
-69.549
0
LINE
8
BLACK
6
CONTINUOUS
10
87.5755
20
-69.549
11
87.5755
21
-69.549
0
LINE
8
BLACK
6
CONTINUOUS
10
87.5755
20
-69.549
11
87.5755
21
-64.049
0
LINE
8
BLACK
6
CONTINUOUS
10
87.5755
20
-64.049
11
87.5756
21
-64.0488
0
LINE
8
BLACK
6
CONTINUOUS
10
87.5756
20
-64.0488
11
87.5755
21
-64.0486
0
LINE
8
BLACK
6
CONTINUOUS
10
87.5755
20
-64.0486
11
87.5799
21
-64.0382
0
LINE
8
BLACK
6
CONTINUOUS
10
87.5799
20
-64.0382
11
87.565
21
-63.5731
0
LINE
8
BLACK
6
CONTINUOUS
10
87.565
20
-63.5731
11
87.5114
21
-63.1004
0
LINE
8
BLACK
6
CONTINUOUS
10
87.5114
20
-63.1004
11
87.4198
21
-62.6335
0
LINE
8
BLACK
6
CONTINUOUS
10
87.4198
20
-62.6335
11
87.2909
21
-62.1755
0
LINE
8
BLACK
6
CONTINUOUS
10
87.2909
20
-62.1755
11
87.1254
21
-61.7294
0
LINE
8
BLACK
6
CONTINUOUS
10
87.1254
20
-61.7294
11
86.9245
21
-61.2981
0
LINE
8
BLACK
6
CONTINUOUS
10
86.9245
20
-61.2981
11
86.6894
21
-60.8844
0
LINE
8
BLACK
6
CONTINUOUS
10
86.6894
20
-60.8844
11
86.4218
21
-60.4911
0
LINE
8
BLACK
6
CONTINUOUS
10
86.4218
20
-60.4911
11
86.1233
21
-60.1206
0
LINE
8
BLACK
6
CONTINUOUS
10
86.1233
20
-60.1206
11
85.7958
21
-59.7754
0
LINE
8
BLACK
6
CONTINUOUS
10
85.7958
20
-59.7754
11
85.4416
21
-59.4577
0
LINE
8
BLACK
6
CONTINUOUS
10
85.4416
20
-59.4577
11
85.0629
21
-59.1697
0
LINE
8
BLACK
6
CONTINUOUS
10
85.0629
20
-59.1697
11
84.6622
21
-58.9131
0
LINE
8
BLACK
6
CONTINUOUS
10
84.6622
20
-58.9131
11
84.2421
21
-58.6898
0
LINE
8
BLACK
6
CONTINUOUS
10
84.2421
20
-58.6898
11
83.8054
21
-58.501
0
LINE
8
BLACK
6
CONTINUOUS
10
83.8054
20
-58.501
11
83.3548
21
-58.3481
0
LINE
8
BLACK
6
CONTINUOUS
10
83.3548
20
-58.3481
11
82.8934
21
-58.232
0
LINE
8
BLACK
6
CONTINUOUS
10
82.8934
20
-58.232
11
82.4241
21
-58.1536
0
LINE
8
BLACK
6
CONTINUOUS
10
82.4241
20
-58.1536
11
81.95
21
-58.1132
0
LINE
8
BLACK
6
CONTINUOUS
10
81.95
20
-58.1132
11
81.4743
21
-58.1113
0
LINE
8
BLACK
6
CONTINUOUS
10
81.4743
20
-58.1113
11
80.9999
21
-58.1477
0
LINE
8
BLACK
6
CONTINUOUS
10
80.9999
20
-58.1477
11
80.53
21
-58.2223
0
LINE
8
BLACK
6
CONTINUOUS
10
80.53
20
-58.2223
11
80.0676
21
-58.3345
0
LINE
8
BLACK
6
CONTINUOUS
10
80.0676
20
-58.3345
11
79.6158
21
-58.4837
0
LINE
8
BLACK
6
CONTINUOUS
10
79.6158
20
-58.4837
11
79.1775
21
-58.6688
0
LINE
8
BLACK
6
CONTINUOUS
10
79.1775
20
-58.6688
11
78.7556
21
-58.8888
0
LINE
8
BLACK
6
CONTINUOUS
10
78.7556
20
-58.8888
11
78.3528
21
-59.142
0
LINE
8
BLACK
6
CONTINUOUS
10
78.3528
20
-59.142
11
77.9717
21
-59.4269
0
LINE
8
BLACK
6
CONTINUOUS
10
77.9717
20
-59.4269
11
77.6149
21
-59.7416
0
LINE
8
BLACK
6
CONTINUOUS
10
77.6149
20
-59.7416
11
77.2846
21
-60.0841
0
LINE
8
BLACK
6
CONTINUOUS
10
77.2846
20
-60.0841
11
76.983
21
-60.4521
0
LINE
8
BLACK
6
CONTINUOUS
10
76.983
20
-60.4521
11
76.7121
21
-60.8432
0
LINE
8
BLACK
6
CONTINUOUS
10
76.7121
20
-60.8432
11
76.4737
21
-61.2549
0
LINE
8
BLACK
6
CONTINUOUS
10
76.4737
20
-61.2549
11
76.2692
21
-61.6846
0
LINE
8
BLACK
6
CONTINUOUS
10
76.2692
20
-61.6846
11
76.1001
21
-62.1293
0
LINE
8
BLACK
6
CONTINUOUS
10
76.1001
20
-62.1293
11
75.9673
21
-62.5862
0
LINE
8
BLACK
6
CONTINUOUS
10
75.9673
20
-62.5862
11
75.8719
21
-63.0523
0
LINE
8
BLACK
6
CONTINUOUS
10
75.8719
20
-63.0523
11
75.8144
21
-63.5246
0
LINE
8
BLACK
6
CONTINUOUS
10
75.8144
20
-63.5246
11
75.7956
21
-63.9895
0
LINE
8
BLACK
6
CONTINUOUS
10
75.7956
20
-63.9895
11
75.7996
21
-63.999
0
LINE
8
BLACK
6
CONTINUOUS
10
75.7996
20
-63.999
11
75.8
21
-64
0
LINE
8
BLACK
6
CONTINUOUS
10
75.8
20
-64
11
75.8
21
-117.049
0
LINE
8
BLACK
6
CONTINUOUS
10
75.8
20
-117.049
11
75.7999
21
-117.049
0
LINE
8
BLACK
6
CONTINUOUS
10
75.7999
20
-117.049
11
75.8
21
-117.049
0
LINE
8
BLACK
6
CONTINUOUS
10
75.8
20
-117.049
11
75.7955
21
-117.06
0
LINE
8
BLACK
6
CONTINUOUS
10
75.7955
20
-117.06
11
75.8107
21
-117.531
0
LINE
8
BLACK
6
CONTINUOUS
10
75.8107
20
-117.531
11
75.8652
21
-118.009
0
LINE
8
BLACK
6
CONTINUOUS
10
75.8652
20
-118.009
11
75.9582
21
-118.482
0
LINE
8
BLACK
6
CONTINUOUS
10
75.9582
20
-118.482
11
76.0891
21
-118.946
0
LINE
8
BLACK
6
CONTINUOUS
10
76.0891
20
-118.946
11
76.2571
21
-119.397
0
LINE
8
BLACK
6
CONTINUOUS
10
76.2571
20
-119.397
11
76.461
21
-119.834
0
LINE
8
BLACK
6
CONTINUOUS
10
76.461
20
-119.834
11
76.6996
21
-120.252
0
LINE
8
BLACK
6
CONTINUOUS
10
76.6996
20
-120.252
11
76.9712
21
-120.65
0
LINE
8
BLACK
6
CONTINUOUS
10
76.9712
20
-120.65
11
77.2742
21
-121.024
0
LINE
8
BLACK
6
CONTINUOUS
10
77.2742
20
-121.024
11
77.6064
21
-121.373
0
LINE
8
BLACK
6
CONTINUOUS
10
77.6064
20
-121.373
11
77.9658
21
-121.694
0
LINE
8
BLACK
6
CONTINUOUS
10
77.9658
20
-121.694
11
78.3499
21
-121.985
0
LINE
8
BLACK
6
CONTINUOUS
10
78.3499
20
-121.985
11
78.7563
21
-122.243
0
LINE
8
BLACK
6
CONTINUOUS
10
78.7563
20
-122.243
11
79.1823
21
-122.468
0
LINE
8
BLACK
6
CONTINUOUS
10
79.1823
20
-122.468
11
79.625
21
-122.658
0
LINE
8
BLACK
6
CONTINUOUS
10
79.625
20
-122.658
11
80.0817
21
-122.811
0
LINE
8
BLACK
6
CONTINUOUS
10
80.0817
20
-122.811
11
80.5493
21
-122.927
0
LINE
8
BLACK
6
CONTINUOUS
10
80.5493
20
-122.927
11
81.0247
21
-123.005
0
LINE
8
BLACK
6
CONTINUOUS
10
81.0247
20
-123.005
11
81.5048
21
-123.044
0
LINE
8
BLACK
6
CONTINUOUS
10
81.5048
20
-123.044
11
81.9865
21
-123.044
0
LINE
8
BLACK
6
CONTINUOUS
10
81.9865
20
-123.044
11
82.4667
21
-123.005
0
LINE
8
BLACK
6
CONTINUOUS
10
82.4667
20
-123.005
11
82.9421
21
-122.927
0
LINE
8
BLACK
6
CONTINUOUS
10
82.9421
20
-122.927
11
83.4097
21
-122.811
0
LINE
8
BLACK
6
CONTINUOUS
10
83.4097
20
-122.811
11
83.8663
21
-122.658
0
LINE
8
BLACK
6
CONTINUOUS
10
83.8663
20
-122.658
11
84.3091
21
-122.468
0
LINE
8
BLACK
6
CONTINUOUS
10
84.3091
20
-122.468
11
84.7351
21
-122.243
0
LINE
8
BLACK
6
CONTINUOUS
10
84.7351
20
-122.243
11
85.1415
21
-121.985
0
LINE
8
BLACK
6
CONTINUOUS
10
85.1415
20
-121.985
11
85.5256
21
-121.694
0
LINE
8
BLACK
6
CONTINUOUS
10
85.5256
20
-121.694
11
85.885
21
-121.373
0
LINE
8
BLACK
6
CONTINUOUS
10
85.885
20
-121.373
11
86.2172
21
-121.024
0
LINE
8
BLACK
6
CONTINUOUS
10
86.2172
20
-121.024
11
86.5201
21
-120.65
0
LINE
8
BLACK
6
CONTINUOUS
10
86.5201
20
-120.65
11
86.7918
21
-120.252
0
LINE
8
BLACK
6
CONTINUOUS
10
86.7918
20
-120.252
11
87.0304
21
-119.834
0
LINE
8
BLACK
6
CONTINUOUS
10
87.0304
20
-119.834
11
87.2343
21
-119.397
0
LINE
8
BLACK
6
CONTINUOUS
10
87.2343
20
-119.397
11
87.4023
21
-118.946
0
LINE
8
BLACK
6
CONTINUOUS
10
87.4023
20
-118.946
11
87.5332
21
-118.482
0
LINE
8
BLACK
6
CONTINUOUS
10
87.5332
20
-118.482
11
87.6262
21
-118.009
0
LINE
8
BLACK
6
CONTINUOUS
10
87.6262
20
-118.009
11
87.6806
21
-117.531
0
LINE
8
BLACK
6
CONTINUOUS
10
87.6806
20
-117.531
11
87.6959
21
-117.06
0
LINE
8
BLACK
6
CONTINUOUS
10
87.6959
20
-117.06
11
87.6914
21
-117.049
0
LINE
8
BLACK
6
CONTINUOUS
10
87.6914
20
-117.049
11
87.6915
21
-117.049
0
LINE
8
BLACK
6
CONTINUOUS
10
87.6915
20
-117.049
11
87.6914
21
-117.049
0
LINE
8
BLACK
6
CONTINUOUS
10
87.6914
20
-117.049
11
87.6914
21
-111.549
0
LINE
8
BLACK
6
CONTINUOUS
10
87.6914
20
-111.549
11
87.6914
21
-111.549
0
LINE
8
BLACK
6
CONTINUOUS
10
87.6914
20
-111.549
11
87.7071
21
-111.328
0
LINE
8
BLACK
6
CONTINUOUS
10
87.7071
20
-111.328
11
87.7541
21
-111.112
0
LINE
8
BLACK
6
CONTINUOUS
10
87.7541
20
-111.112
11
87.8314
21
-110.905
0
LINE
8
BLACK
6
CONTINUOUS
10
87.8314
20
-110.905
11
87.9374
21
-110.711
0
LINE
8
BLACK
6
CONTINUOUS
10
87.9374
20
-110.711
11
88.0699
21
-110.534
0
LINE
8
BLACK
6
CONTINUOUS
10
88.0699
20
-110.534
11
88.2263
21
-110.378
0
LINE
8
BLACK
6
CONTINUOUS
10
88.2263
20
-110.378
11
88.4034
21
-110.245
0
LINE
8
BLACK
6
CONTINUOUS
10
88.4034
20
-110.245
11
88.5975
21
-110.139
0
LINE
8
BLACK
6
CONTINUOUS
10
88.5975
20
-110.139
11
88.8047
21
-110.062
0
LINE
8
BLACK
6
CONTINUOUS
10
88.8047
20
-110.062
11
89.0208
21
-110.015
0
LINE
8
BLACK
6
CONTINUOUS
10
89.0208
20
-110.015
11
89.2414
21
-109.999
0
LINE
8
BLACK
6
CONTINUOUS
10
89.2414
20
-109.999
11
89.2414
21
-109.999
0
LINE
8
BLACK
6
CONTINUOUS
10
89.2414
20
-109.999
11
93.25
21
-109.999
0
LINE
8
BLACK
6
CONTINUOUS
10
93.25
20
-109.999
11
93.4706
21
-110.015
0
LINE
8
BLACK
6
CONTINUOUS
10
93.4706
20
-110.015
11
93.6867
21
-110.062
0
LINE
8
BLACK
6
CONTINUOUS
10
93.6867
20
-110.062
11
93.8939
21
-110.139
0
LINE
8
BLACK
6
CONTINUOUS
10
93.8939
20
-110.139
11
94.088
21
-110.245
0
LINE
8
BLACK
6
CONTINUOUS
10
94.088
20
-110.245
11
94.265
21
-110.378
0
LINE
8
BLACK
6
CONTINUOUS
10
94.265
20
-110.378
11
94.4214
21
-110.534
0
LINE
8
BLACK
6
CONTINUOUS
10
94.4214
20
-110.534
11
94.5539
21
-110.711
0
LINE
8
BLACK
6
CONTINUOUS
10
94.5539
20
-110.711
11
94.6599
21
-110.905
0
LINE
8
BLACK
6
CONTINUOUS
10
94.6599
20
-110.905
11
94.7372
21
-111.112
0
LINE
8
BLACK
6
CONTINUOUS
10
94.7372
20
-111.112
11
94.7842
21
-111.328
0
LINE
8
BLACK
6
CONTINUOUS
10
94.7842
20
-111.328
11
94.8
21
-111.549
0
LINE
8
BLACK
6
CONTINUOUS
10
94.8
20
-111.549
11
94.8
21
-111.549
0
LINE
8
BLACK
6
CONTINUOUS
10
94.8
20
-111.549
11
94.8
21
-116.549
0
LINE
8
BLACK
6
CONTINUOUS
10
94.8
20
-116.549
11
94.7962
21
-116.558
0
LINE
8
BLACK
6
CONTINUOUS
10
94.7962
20
-116.558
11
94.8134
21
-116.777
0
LINE
8
BLACK
6
CONTINUOUS
10
94.8134
20
-116.777
11
94.8667
21
-116.998
0
LINE
8
BLACK
6
CONTINUOUS
10
94.8667
20
-116.998
11
94.954
21
-117.209
0
LINE
8
BLACK
6
CONTINUOUS
10
94.954
20
-117.209
11
95.0733
21
-117.404
0
LINE
8
BLACK
6
CONTINUOUS
10
95.0733
20
-117.404
11
95.2215
21
-117.578
0
LINE
8
BLACK
6
CONTINUOUS
10
95.2215
20
-117.578
11
95.3951
21
-117.726
0
LINE
8
BLACK
6
CONTINUOUS
10
95.3951
20
-117.726
11
95.5897
21
-117.845
0
LINE
8
BLACK
6
CONTINUOUS
10
95.5897
20
-117.845
11
95.8005
21
-117.932
0
LINE
8
BLACK
6
CONTINUOUS
10
95.8005
20
-117.932
11
96.0225
21
-117.986
0
LINE
8
BLACK
6
CONTINUOUS
10
96.0225
20
-117.986
11
96.2409
21
-118.003
0
LINE
8
BLACK
6
CONTINUOUS
10
96.2409
20
-118.003
11
96.25
21
-117.999
0
LINE
8
BLACK
6
CONTINUOUS
10
96.25
20
-117.999
11
112.75
21
-117.999
0
LINE
8
BLACK
6
CONTINUOUS
10
112.75
20
-117.999
11
112.759
21
-118.003
0
LINE
8
BLACK
6
CONTINUOUS
10
112.759
20
-118.003
11
112.768
21
-118.002
0
LINE
8
BLACK
6
CONTINUOUS
10
112.768
20
-118.002
11
142.259
21
-129.499
0
LINE
8
BLACK
6
CONTINUOUS
10
142.259
20
-129.499
11
161.25
21
-129.499
0
LINE
8
BLACK
6
CONTINUOUS
10
161.25
20
-129.499
11
161.256
21
-129.502
0
LINE
8
BLACK
6
CONTINUOUS
10
161.256
20
-129.502
11
161.263
21
-129.501
0
LINE
8
BLACK
6
CONTINUOUS
10
161.263
20
-129.501
11
179.763
21
-134.501
0
LINE
8
BLACK
6
CONTINUOUS
10
179.763
20
-134.501
11
179.768
21
-134.505
0
LINE
8
BLACK
6
CONTINUOUS
10
179.768
20
-134.505
11
179.775
21
-134.506
0
LINE
8
BLACK
6
CONTINUOUS
10
179.775
20
-134.506
11
202.175
21
-147.557
0
LINE
8
BLACK
6
CONTINUOUS
10
202.175
20
-147.557
11
202.182
21
-147.566
0
LINE
8
BLACK
6
CONTINUOUS
10
202.182
20
-147.566
11
202.595
21
-147.783
0
LINE
8
BLACK
6
CONTINUOUS
10
202.595
20
-147.783
11
203.035
21
-147.97
0
LINE
8
BLACK
6
CONTINUOUS
10
203.035
20
-147.97
11
203.488
21
-148.121
0
LINE
8
BLACK
6
CONTINUOUS
10
203.488
20
-148.121
11
203.952
21
-148.236
0
LINE
8
BLACK
6
CONTINUOUS
10
203.952
20
-148.236
11
204.423
21
-148.312
0
LINE
8
BLACK
6
CONTINUOUS
10
204.423
20
-148.312
11
204.899
21
-148.351
0
LINE
8
BLACK
6
CONTINUOUS
10
204.899
20
-148.351
11
205.377
21
-148.351
0
LINE
8
BLACK
6
CONTINUOUS
10
205.377
20
-148.351
11
205.853
21
-148.312
0
LINE
8
BLACK
6
CONTINUOUS
10
205.853
20
-148.312
11
206.324
21
-148.236
0
LINE
8
BLACK
6
CONTINUOUS
10
206.324
20
-148.236
11
206.788
21
-148.121
0
LINE
8
BLACK
6
CONTINUOUS
10
206.788
20
-148.121
11
207.241
21
-147.97
0
LINE
8
BLACK
6
CONTINUOUS
10
207.241
20
-147.97
11
207.68
21
-147.783
0
LINE
8
BLACK
6
CONTINUOUS
10
207.68
20
-147.783
11
208.103
21
-147.561
0
LINE
8
BLACK
6
CONTINUOUS
10
208.103
20
-147.561
11
208.507
21
-147.306
0
LINE
8
BLACK
6
CONTINUOUS
10
208.507
20
-147.306
11
208.888
21
-147.019
0
LINE
8
BLACK
6
CONTINUOUS
10
208.888
20
-147.019
11
209.246
21
-146.702
0
LINE
8
BLACK
6
CONTINUOUS
10
209.246
20
-146.702
11
209.577
21
-146.358
0
LINE
8
BLACK
6
CONTINUOUS
10
209.577
20
-146.358
11
209.879
21
-145.988
0
LINE
8
BLACK
6
CONTINUOUS
10
209.879
20
-145.988
11
210.15
21
-145.595
0
LINE
8
BLACK
6
CONTINUOUS
10
210.15
20
-145.595
11
210.389
21
-145.181
0
LINE
8
BLACK
6
CONTINUOUS
10
210.389
20
-145.181
11
210.593
21
-144.75
0
LINE
8
BLACK
6
CONTINUOUS
10
210.593
20
-144.75
11
210.763
21
-144.303
0
LINE
8
BLACK
6
CONTINUOUS
10
210.763
20
-144.303
11
210.896
21
-143.844
0
LINE
8
BLACK
6
CONTINUOUS
10
210.896
20
-143.844
11
210.991
21
-143.376
0
LINE
8
BLACK
6
CONTINUOUS
10
210.991
20
-143.376
11
211.049
21
-142.902
0
LINE
8
BLACK
6
CONTINUOUS
10
211.049
20
-142.902
11
211.068
21
-142.425
0
LINE
8
BLACK
6
CONTINUOUS
10
211.068
20
-142.425
11
211.049
21
-141.948
0
LINE
8
BLACK
6
CONTINUOUS
10
211.049
20
-141.948
11
210.991
21
-141.474
0
LINE
8
BLACK
6
CONTINUOUS
10
210.991
20
-141.474
11
210.896
21
-141.006
0
LINE
8
BLACK
6
CONTINUOUS
10
210.896
20
-141.006
11
210.763
21
-140.547
0
LINE
8
BLACK
6
CONTINUOUS
10
210.763
20
-140.547
11
210.593
21
-140.101
0
LINE
8
BLACK
6
CONTINUOUS
10
210.593
20
-140.101
11
210.389
21
-139.669
0
LINE
8
BLACK
6
CONTINUOUS
10
210.389
20
-139.669
11
210.15
21
-139.256
0
LINE
8
BLACK
6
CONTINUOUS
10
210.15
20
-139.256
11
209.879
21
-138.863
0
LINE
8
BLACK
6
CONTINUOUS
10
209.879
20
-138.863
11
209.577
21
-138.493
0
LINE
8
BLACK
6
CONTINUOUS
10
209.577
20
-138.493
11
209.246
21
-138.148
0
LINE
8
BLACK
6
CONTINUOUS
10
209.246
20
-138.148
11
208.888
21
-137.831
0
LINE
8
BLACK
6
CONTINUOUS
10
208.888
20
-137.831
11
208.507
21
-137.545
0
LINE
8
BLACK
6
CONTINUOUS
10
208.507
20
-137.545
11
208.112
21
-137.295
0
LINE
8
BLACK
6
CONTINUOUS
10
208.112
20
-137.295
11
208.102
21
-137.294
0
LINE
8
BLACK
6
CONTINUOUS
10
208.102
20
-137.294
11
203.675
21
-134.893
0
LINE
8
BLACK
6
CONTINUOUS
10
203.675
20
-134.893
11
203.675
21
-134.892
0
LINE
8
BLACK
6
CONTINUOUS
10
203.675
20
-134.892
11
203.674
21
-134.892
0
LINE
8
BLACK
6
CONTINUOUS
10
203.674
20
-134.892
11
203.674
21
-134.892
0
LINE
8
BLACK
6
CONTINUOUS
10
203.674
20
-134.892
11
203.491
21
-134.768
0
LINE
8
BLACK
6
CONTINUOUS
10
203.491
20
-134.768
11
203.327
21
-134.62
0
LINE
8
BLACK
6
CONTINUOUS
10
203.327
20
-134.62
11
203.186
21
-134.449
0
LINE
8
BLACK
6
CONTINUOUS
10
203.186
20
-134.449
11
203.071
21
-134.26
0
LINE
8
BLACK
6
CONTINUOUS
10
203.071
20
-134.26
11
202.984
21
-134.057
0
LINE
8
BLACK
6
CONTINUOUS
10
202.984
20
-134.057
11
202.927
21
-133.843
0
LINE
8
BLACK
6
CONTINUOUS
10
202.927
20
-133.843
11
202.901
21
-133.624
0
LINE
8
BLACK
6
CONTINUOUS
10
202.901
20
-133.624
11
202.906
21
-133.403
0
LINE
8
BLACK
6
CONTINUOUS
10
202.906
20
-133.403
11
202.943
21
-133.185
0
LINE
8
BLACK
6
CONTINUOUS
10
202.943
20
-133.185
11
203.01
21
-132.974
0
LINE
8
BLACK
6
CONTINUOUS
10
203.01
20
-132.974
11
203.107
21
-132.775
0
LINE
8
BLACK
6
CONTINUOUS
10
203.107
20
-132.775
11
203.107
21
-132.775
0
LINE
8
BLACK
6
CONTINUOUS
10
203.107
20
-132.775
11
210.7
21
-119.536
0
LINE
8
BLACK
6
CONTINUOUS
10
210.7
20
-119.536
11
210.7
21
-65.549
0
LINE
8
BLACK
6
CONTINUOUS
10
210.7
20
-65.549
11
210.7
21
-65.549
0
LINE
8
BLACK
6
CONTINUOUS
10
210.7
20
-65.549
11
210.716
21
-65.3284
0
LINE
8
BLACK
6
CONTINUOUS
10
210.716
20
-65.3284
11
210.763
21
-65.1123
0
LINE
8
BLACK
6
CONTINUOUS
10
210.763
20
-65.1123
11
210.84
21
-64.9051
0
LINE
8
BLACK
6
CONTINUOUS
10
210.84
20
-64.9051
11
210.946
21
-64.711
0
LINE
8
BLACK
6
CONTINUOUS
10
210.946
20
-64.711
11
211.079
21
-64.534
0
LINE
8
BLACK
6
CONTINUOUS
10
211.079
20
-64.534
11
211.235
21
-64.3776
0
LINE
8
BLACK
6
CONTINUOUS
10
211.235
20
-64.3776
11
211.412
21
-64.2451
0
LINE
8
BLACK
6
CONTINUOUS
10
211.412
20
-64.2451
11
211.606
21
-64.1391
0
LINE
8
BLACK
6
CONTINUOUS
10
211.606
20
-64.1391
11
211.813
21
-64.0618
0
LINE
8
BLACK
6
CONTINUOUS
10
211.813
20
-64.0618
11
212.029
21
-64.0148
0
LINE
8
BLACK
6
CONTINUOUS
10
212.029
20
-64.0148
11
212.25
21
-63.999
0
LINE
8
BLACK
6
CONTINUOUS
10
212.25
20
-63.999
11
212.25
21
-63.999
0
LINE
8
BLACK
6
CONTINUOUS
10
212.25
20
-63.999
11
217.75
21
-63.999
0
LINE
8
BLACK
6
CONTINUOUS
10
217.75
20
-63.999
11
217.761
21
-64.0034
0
LINE
8
BLACK
6
CONTINUOUS
10
217.761
20
-64.0034
11
218.229
21
-63.9846
0
LINE
8
BLACK
6
CONTINUOUS
10
218.229
20
-63.9846
11
218.705
21
-63.9268
0
LINE
8
BLACK
6
CONTINUOUS
10
218.705
20
-63.9268
11
219.175
21
-63.8308
0
LINE
8
BLACK
6
CONTINUOUS
10
219.175
20
-63.8308
11
219.636
21
-63.6974
0
LINE
8
BLACK
6
CONTINUOUS
10
219.636
20
-63.6974
11
220.084
21
-63.5274
0
LINE
8
BLACK
6
CONTINUOUS
10
220.084
20
-63.5274
11
220.517
21
-63.3218
0
LINE
8
BLACK
6
CONTINUOUS
10
220.517
20
-63.3218
11
220.933
21
-63.082
0
LINE
8
BLACK
6
CONTINUOUS
10
220.933
20
-63.082
11
221.327
21
-62.8096
0
LINE
8
BLACK
6
CONTINUOUS
10
221.327
20
-62.8096
11
221.699
21
-62.5063
0
LINE
8
BLACK
6
CONTINUOUS
10
221.699
20
-62.5063
11
222.045
21
-62.1741
0
LINE
8
BLACK
6
CONTINUOUS
10
222.045
20
-62.1741
11
222.363
21
-61.8151
0
LINE
8
BLACK
6
CONTINUOUS
10
222.363
20
-61.8151
11
222.651
21
-61.4318
0
LINE
8
BLACK
6
CONTINUOUS
10
222.651
20
-61.4318
11
222.907
21
-61.0265
0
LINE
8
BLACK
6
CONTINUOUS
10
222.907
20
-61.0265
11
223.13
21
-60.6018
0
LINE
8
BLACK
6
CONTINUOUS
10
223.13
20
-60.6018
11
223.318
21
-60.1607
0
LINE
8
BLACK
6
CONTINUOUS
10
223.318
20
-60.1607
11
223.47
21
-59.7058
0
LINE
8
BLACK
6
CONTINUOUS
10
223.47
20
-59.7058
11
223.584
21
-59.2402
0
LINE
8
BLACK
6
CONTINUOUS
10
223.584
20
-59.2402
11
223.661
21
-58.7668
0
LINE
8
BLACK
6
CONTINUOUS
10
223.661
20
-58.7668
11
223.7
21
-58.2888
0
LINE
8
BLACK
6
CONTINUOUS
10
223.7
20
-58.2888
11
223.7
21
-57.8093
0
LINE
8
BLACK
6
CONTINUOUS
10
223.7
20
-57.8093
11
223.661
21
-57.3313
0
LINE
8
BLACK
6
CONTINUOUS
10
223.661
20
-57.3313
11
223.584
21
-56.8579
0
LINE
8
BLACK
6
CONTINUOUS
10
223.584
20
-56.8579
11
223.47
21
-56.3923
0
LINE
8
BLACK
6
CONTINUOUS
10
223.47
20
-56.3923
11
223.318
21
-55.9374
0
LINE
8
BLACK
6
CONTINUOUS
10
223.318
20
-55.9374
11
223.13
21
-55.4962
0
LINE
8
BLACK
6
CONTINUOUS
10
223.13
20
-55.4962
11
222.907
21
-55.0716
0
LINE
8
BLACK
6
CONTINUOUS
10
222.907
20
-55.0716
11
222.651
21
-54.6663
0
LINE
8
BLACK
6
CONTINUOUS
10
222.651
20
-54.6663
11
222.363
21
-54.2829
0
LINE
8
BLACK
6
CONTINUOUS
10
222.363
20
-54.2829
11
222.045
21
-53.924
0
LINE
8
BLACK
6
CONTINUOUS
10
222.045
20
-53.924
11
221.699
21
-53.5918
0
LINE
8
BLACK
6
CONTINUOUS
10
221.699
20
-53.5918
11
221.327
21
-53.2885
0
LINE
8
BLACK
6
CONTINUOUS
10
221.327
20
-53.2885
11
220.933
21
-53.0161
0
LINE
8
BLACK
6
CONTINUOUS
10
220.933
20
-53.0161
11
220.517
21
-52.7763
0
LINE
8
BLACK
6
CONTINUOUS
10
220.517
20
-52.7763
11
220.084
21
-52.5707
0
LINE
8
BLACK
6
CONTINUOUS
10
220.084
20
-52.5707
11
219.636
21
-52.4007
0
LINE
8
BLACK
6
CONTINUOUS
10
219.636
20
-52.4007
11
219.175
21
-52.2672
0
LINE
8
BLACK
6
CONTINUOUS
10
219.175
20
-52.2672
11
218.705
21
-52.1713
0
LINE
8
BLACK
6
CONTINUOUS
10
218.705
20
-52.1713
11
218.229
21
-52.1135
0
LINE
8
BLACK
6
CONTINUOUS
10
218.229
20
-52.1135
11
217.761
21
-52.0946
0
LINE
8
BLACK
6
CONTINUOUS
10
217.761
20
-52.0946
11
217.75
21
-52.099
0
LINE
8
BLACK
6
CONTINUOUS
10
217.75
20
-52.099
11
154.25
21
-52.099
0
LINE
8
BLACK
6
CONTINUOUS
10
154.25
20
-52.099
11
154.029
21
-52.0833
0
LINE
8
BLACK
6
CONTINUOUS
10
154.029
20
-52.0833
11
153.813
21
-52.0363
0
LINE
8
BLACK
6
CONTINUOUS
10
153.813
20
-52.0363
11
153.606
21
-51.959
0
LINE
8
BLACK
6
CONTINUOUS
10
153.606
20
-51.959
11
153.412
21
-51.853
0
LINE
8
BLACK
6
CONTINUOUS
10
153.412
20
-51.853
11
153.235
21
-51.7205
0
LINE
8
BLACK
6
CONTINUOUS
10
153.235
20
-51.7205
11
153.079
21
-51.5641
0
LINE
8
BLACK
6
CONTINUOUS
10
153.079
20
-51.5641
11
152.946
21
-51.387
0
LINE
8
BLACK
6
CONTINUOUS
10
152.946
20
-51.387
11
152.84
21
-51.1929
0
LINE
8
BLACK
6
CONTINUOUS
10
152.84
20
-51.1929
11
152.763
21
-50.9857
0
LINE
8
BLACK
6
CONTINUOUS
10
152.763
20
-50.9857
11
152.716
21
-50.7696
0
LINE
8
BLACK
6
CONTINUOUS
10
152.716
20
-50.7696
11
152.7
21
-50.549
0
LINE
8
BLACK
6
CONTINUOUS
10
152.7
20
-50.549
11
152.7
21
-50.549
0
LINE
8
BLACK
6
CONTINUOUS
10
152.7
20
-50.549
11
152.7
21
-49.549
0
LINE
8
BLACK
6
CONTINUOUS
10
152.7
20
-49.549
11
152.704
21
-49.54
0
LINE
8
BLACK
6
CONTINUOUS
10
152.704
20
-49.54
11
152.687
21
-49.3215
0
LINE
8
BLACK
6
CONTINUOUS
10
152.687
20
-49.3215
11
152.633
21
-49.0996
0
LINE
8
BLACK
6
CONTINUOUS
10
152.633
20
-49.0996
11
152.546
21
-48.8887
0
LINE
8
BLACK
6
CONTINUOUS
10
152.546
20
-48.8887
11
152.427
21
-48.6941
0
LINE
8
BLACK
6
CONTINUOUS
10
152.427
20
-48.6941
11
152.278
21
-48.5206
0
LINE
8
BLACK
6
CONTINUOUS
10
152.278
20
-48.5206
11
152.105
21
-48.3723
0
LINE
8
BLACK
6
CONTINUOUS
10
152.105
20
-48.3723
11
151.91
21
-48.2531
0
LINE
8
BLACK
6
CONTINUOUS
10
151.91
20
-48.2531
11
151.699
21
-48.1657
0
LINE
8
BLACK
6
CONTINUOUS
10
151.699
20
-48.1657
11
151.478
21
-48.1125
0
LINE
8
BLACK
6
CONTINUOUS
10
151.478
20
-48.1125
11
151.259
21
-48.0953
0
LINE
8
BLACK
6
CONTINUOUS
10
151.259
20
-48.0953
11
151.25
21
-48.099
0
LINE
8
BLACK
6
CONTINUOUS
10
151.25
20
-48.099
11
134.25
21
-48.099
0
LINE
8
BLACK
6
CONTINUOUS
10
134.25
20
-48.099
11
134.241
21
-48.0952
0
LINE
8
BLACK
6
CONTINUOUS
10
134.241
20
-48.0952
11
134.022
21
-48.1124
0
LINE
8
BLACK
6
CONTINUOUS
10
134.022
20
-48.1124
11
133.801
21
-48.1657
0
LINE
8
BLACK
6
CONTINUOUS
10
133.801
20
-48.1657
11
133.59
21
-48.253
0
LINE
8
BLACK
6
CONTINUOUS
10
133.59
20
-48.253
11
133.395
21
-48.3723
0
LINE
8
BLACK
6
CONTINUOUS
10
133.395
20
-48.3723
11
133.222
21
-48.5205
0
LINE
8
BLACK
6
CONTINUOUS
10
133.222
20
-48.5205
11
133.073
21
-48.6941
0
LINE
8
BLACK
6
CONTINUOUS
10
133.073
20
-48.6941
11
132.954
21
-48.8887
0
LINE
8
BLACK
6
CONTINUOUS
10
132.954
20
-48.8887
11
132.867
21
-49.0996
0
LINE
8
BLACK
6
CONTINUOUS
10
132.867
20
-49.0996
11
132.813
21
-49.3215
0
LINE
8
BLACK
6
CONTINUOUS
10
132.813
20
-49.3215
11
132.796
21
-49.5399
0
LINE
8
BLACK
6
CONTINUOUS
10
132.796
20
-49.5399
11
132.8
21
-49.549
0
LINE
8
BLACK
6
CONTINUOUS
10
132.8
20
-49.549
11
132.8
21
-50.549
0
LINE
8
BLACK
6
CONTINUOUS
10
132.8
20
-50.549
11
132.784
21
-50.7696
  0
ENDSEC
  0
EOF
