  0
SECTION
  2
HEADER
  9
$ANGBASE
  50
0.0
  9
$ANGDIR
  70
1
  9
$MEASUREMENT
  70
1
  0
ENDSEC
  0
SECTION
  2
TABLES
  0
TABLE
  2
LTYPE
  70
4
  0
LTYPE
  5
40F
  2
CONTINUOUS
  70
0
  3
Solid line
  72
65
  73
0
  40
0.0
  0
LTYPE
  5
410
  2
DASHDOT
 70
0
  3
Dash Dot ____ _ ____ _
 72
65
 73
4
 40
2.0
 49
1.25
 49
-0.25
 49
0.25
 49
-0.25
  0
LTYPE
  5
411
  2
DASHED
 70
0
  3
Dashed __ __ __ __ __
 72
65
 73
2
 40
0.75
 49
0.5
 49
-0.25
  0
LTYPE
  5
43B
  2
DOTTED
 70
0
  3
Dotted .  .  .  .
 72
65
 73
2
 40
0.2
 49
0.0
 49
-0.2
  0
ENDTAB
  0
TABLE
  2
STYLE
  70
4
  0
STYLE
  2
KICAD
  70
0
  40
0
  41
1
  42
1
  50
0
  71
0
  3
isocp.shx
  0
STYLE
  2
KICADB
  70
0
  40
0
  41
1
  42
1
  50
0
  71
0
  3
isocp.shx
  0
STYLE
  2
KICADI
  70
0
  40
0
  41
1
  42
1
  50
15
  71
0
  3
isocp.shx
  0
STYLE
  2
KICADBI
  70
0
  40
0
  41
1
  42
1
  50
15
  71
0
  3
isocp.shx
  0
ENDTAB
  0
TABLE
  2
LAYER
  70
1
  0
LAYER
  2
BLACK
  70
0
  62
7
  6
CONTINUOUS
  0
ENDTAB
  0
ENDSEC
  0
SECTION
  2
ENTITIES
0
LINE
8
BLACK
6
CONTINUOUS
10
197.62
20
-124.356
11
197.827
21
-124.397
0
LINE
8
BLACK
6
CONTINUOUS
10
197.827
20
-124.397
11
198.022
21
-124.475
0
LINE
8
BLACK
6
CONTINUOUS
10
198.022
20
-124.475
11
198.2
21
-124.588
0
LINE
8
BLACK
6
CONTINUOUS
10
198.2
20
-124.588
11
198.355
21
-124.73
0
LINE
8
BLACK
6
CONTINUOUS
10
198.355
20
-124.73
11
198.481
21
-124.899
0
LINE
8
BLACK
6
CONTINUOUS
10
198.481
20
-124.899
11
198.574
21
-125.088
0
LINE
8
BLACK
6
CONTINUOUS
10
198.574
20
-125.088
11
198.631
21
-125.29
0
LINE
8
BLACK
6
CONTINUOUS
10
198.631
20
-125.29
11
198.65
21
-125.5
0
LINE
8
BLACK
6
CONTINUOUS
10
198.65
20
-125.5
11
198.648
21
-125.56
0
LINE
8
BLACK
6
CONTINUOUS
10
198.648
20
-125.56
11
198.618
21
-125.768
0
LINE
8
BLACK
6
CONTINUOUS
10
198.618
20
-125.768
11
198.551
21
-125.968
0
LINE
8
BLACK
6
CONTINUOUS
10
198.551
20
-125.968
11
198.448
21
-126.151
0
LINE
8
BLACK
6
CONTINUOUS
10
198.448
20
-126.151
11
198.313
21
-126.313
0
LINE
8
BLACK
6
CONTINUOUS
10
198.313
20
-126.313
11
198.151
21
-126.448
0
LINE
8
BLACK
6
CONTINUOUS
10
198.151
20
-126.448
11
197.968
21
-126.551
0
LINE
8
BLACK
6
CONTINUOUS
10
197.968
20
-126.551
11
197.768
21
-126.618
0
LINE
8
BLACK
6
CONTINUOUS
10
197.768
20
-126.618
11
197.56
21
-126.648
0
LINE
8
BLACK
6
CONTINUOUS
10
197.56
20
-126.648
11
197.35
21
-126.64
0
LINE
8
BLACK
6
CONTINUOUS
10
197.35
20
-126.64
11
197.145
21
-126.594
0
LINE
8
BLACK
6
CONTINUOUS
10
197.145
20
-126.594
11
196.951
21
-126.511
0
LINE
8
BLACK
6
CONTINUOUS
10
196.951
20
-126.511
11
196.776
21
-126.394
0
LINE
8
BLACK
6
CONTINUOUS
10
196.776
20
-126.394
11
196.626
21
-126.247
0
LINE
8
BLACK
6
CONTINUOUS
10
196.626
20
-126.247
11
196.504
21
-126.075
0
LINE
8
BLACK
6
CONTINUOUS
10
196.504
20
-126.075
11
196.416
21
-125.884
0
LINE
8
BLACK
6
CONTINUOUS
10
196.416
20
-125.884
11
196.364
21
-125.68
0
LINE
8
BLACK
6
CONTINUOUS
10
196.364
20
-125.68
11
196.35
21
-125.47
0
LINE
8
BLACK
6
CONTINUOUS
10
196.35
20
-125.47
11
196.375
21
-125.261
0
LINE
8
BLACK
6
CONTINUOUS
10
196.375
20
-125.261
11
196.438
21
-125.06
0
LINE
8
BLACK
6
CONTINUOUS
10
196.438
20
-125.06
11
196.536
21
-124.874
0
LINE
8
BLACK
6
CONTINUOUS
10
196.536
20
-124.874
11
196.666
21
-124.708
0
LINE
8
BLACK
6
CONTINUOUS
10
196.666
20
-124.708
11
196.824
21
-124.57
0
LINE
8
BLACK
6
CONTINUOUS
10
196.824
20
-124.57
11
197.005
21
-124.462
0
LINE
8
BLACK
6
CONTINUOUS
10
197.005
20
-124.462
11
197.202
21
-124.389
0
LINE
8
BLACK
6
CONTINUOUS
10
197.202
20
-124.389
11
197.41
21
-124.354
0
LINE
8
BLACK
6
CONTINUOUS
10
197.41
20
-124.354
11
197.62
21
-124.356
0
LINE
8
BLACK
6
CONTINUOUS
10
146.12
20
-110.356
11
146.327
21
-110.397
0
LINE
8
BLACK
6
CONTINUOUS
10
146.327
20
-110.397
11
146.522
21
-110.475
0
LINE
8
BLACK
6
CONTINUOUS
10
146.522
20
-110.475
11
146.7
21
-110.588
0
LINE
8
BLACK
6
CONTINUOUS
10
146.7
20
-110.588
11
146.855
21
-110.73
0
LINE
8
BLACK
6
CONTINUOUS
10
146.855
20
-110.73
11
146.981
21
-110.899
0
LINE
8
BLACK
6
CONTINUOUS
10
146.981
20
-110.899
11
147.074
21
-111.088
0
LINE
8
BLACK
6
CONTINUOUS
10
147.074
20
-111.088
11
147.131
21
-111.29
0
LINE
8
BLACK
6
CONTINUOUS
10
147.131
20
-111.29
11
147.15
21
-111.5
0
LINE
8
BLACK
6
CONTINUOUS
10
147.15
20
-111.5
11
147.148
21
-111.56
0
LINE
8
BLACK
6
CONTINUOUS
10
147.148
20
-111.56
11
147.118
21
-111.768
0
LINE
8
BLACK
6
CONTINUOUS
10
147.118
20
-111.768
11
147.051
21
-111.968
0
LINE
8
BLACK
6
CONTINUOUS
10
147.051
20
-111.968
11
146.948
21
-112.151
0
LINE
8
BLACK
6
CONTINUOUS
10
146.948
20
-112.151
11
146.813
21
-112.313
0
LINE
8
BLACK
6
CONTINUOUS
10
146.813
20
-112.313
11
146.651
21
-112.448
0
LINE
8
BLACK
6
CONTINUOUS
10
146.651
20
-112.448
11
146.468
21
-112.551
0
LINE
8
BLACK
6
CONTINUOUS
10
146.468
20
-112.551
11
146.268
21
-112.618
0
LINE
8
BLACK
6
CONTINUOUS
10
146.268
20
-112.618
11
146.06
21
-112.648
0
LINE
8
BLACK
6
CONTINUOUS
10
146.06
20
-112.648
11
145.85
21
-112.64
0
LINE
8
BLACK
6
CONTINUOUS
10
145.85
20
-112.64
11
145.645
21
-112.594
0
LINE
8
BLACK
6
CONTINUOUS
10
145.645
20
-112.594
11
145.451
21
-112.511
0
LINE
8
BLACK
6
CONTINUOUS
10
145.451
20
-112.511
11
145.276
21
-112.394
0
LINE
8
BLACK
6
CONTINUOUS
10
145.276
20
-112.394
11
145.126
21
-112.247
0
LINE
8
BLACK
6
CONTINUOUS
10
145.126
20
-112.247
11
145.004
21
-112.075
0
LINE
8
BLACK
6
CONTINUOUS
10
145.004
20
-112.075
11
144.916
21
-111.884
0
LINE
8
BLACK
6
CONTINUOUS
10
144.916
20
-111.884
11
144.864
21
-111.68
0
LINE
8
BLACK
6
CONTINUOUS
10
144.864
20
-111.68
11
144.85
21
-111.47
0
LINE
8
BLACK
6
CONTINUOUS
10
144.85
20
-111.47
11
144.875
21
-111.261
0
LINE
8
BLACK
6
CONTINUOUS
10
144.875
20
-111.261
11
144.938
21
-111.06
0
LINE
8
BLACK
6
CONTINUOUS
10
144.938
20
-111.06
11
145.036
21
-110.874
0
LINE
8
BLACK
6
CONTINUOUS
10
145.036
20
-110.874
11
145.166
21
-110.708
0
LINE
8
BLACK
6
CONTINUOUS
10
145.166
20
-110.708
11
145.324
21
-110.57
0
LINE
8
BLACK
6
CONTINUOUS
10
145.324
20
-110.57
11
145.505
21
-110.462
0
LINE
8
BLACK
6
CONTINUOUS
10
145.505
20
-110.462
11
145.702
21
-110.389
0
LINE
8
BLACK
6
CONTINUOUS
10
145.702
20
-110.389
11
145.91
21
-110.354
0
LINE
8
BLACK
6
CONTINUOUS
10
145.91
20
-110.354
11
146.12
21
-110.356
0
LINE
8
BLACK
6
CONTINUOUS
10
105.37
20
-102.106
11
105.577
21
-102.147
0
LINE
8
BLACK
6
CONTINUOUS
10
105.577
20
-102.147
11
105.772
21
-102.225
0
LINE
8
BLACK
6
CONTINUOUS
10
105.772
20
-102.225
11
105.95
21
-102.338
0
LINE
8
BLACK
6
CONTINUOUS
10
105.95
20
-102.338
11
106.105
21
-102.48
0
LINE
8
BLACK
6
CONTINUOUS
10
106.105
20
-102.48
11
106.231
21
-102.649
0
LINE
8
BLACK
6
CONTINUOUS
10
106.231
20
-102.649
11
106.324
21
-102.838
0
LINE
8
BLACK
6
CONTINUOUS
10
106.324
20
-102.838
11
106.381
21
-103.04
0
LINE
8
BLACK
6
CONTINUOUS
10
106.381
20
-103.04
11
106.4
21
-103.25
0
LINE
8
BLACK
6
CONTINUOUS
10
106.4
20
-103.25
11
106.398
21
-103.31
0
LINE
8
BLACK
6
CONTINUOUS
10
106.398
20
-103.31
11
106.368
21
-103.518
0
LINE
8
BLACK
6
CONTINUOUS
10
106.368
20
-103.518
11
106.301
21
-103.718
0
LINE
8
BLACK
6
CONTINUOUS
10
106.301
20
-103.718
11
106.198
21
-103.901
0
LINE
8
BLACK
6
CONTINUOUS
10
106.198
20
-103.901
11
106.063
21
-104.063
0
LINE
8
BLACK
6
CONTINUOUS
10
106.063
20
-104.063
11
105.901
21
-104.198
0
LINE
8
BLACK
6
CONTINUOUS
10
105.901
20
-104.198
11
105.718
21
-104.301
0
LINE
8
BLACK
6
CONTINUOUS
10
105.718
20
-104.301
11
105.518
21
-104.368
0
LINE
8
BLACK
6
CONTINUOUS
10
105.518
20
-104.368
11
105.31
21
-104.398
0
LINE
8
BLACK
6
CONTINUOUS
10
105.31
20
-104.398
11
105.1
21
-104.39
0
LINE
8
BLACK
6
CONTINUOUS
10
105.1
20
-104.39
11
104.895
21
-104.344
0
LINE
8
BLACK
6
CONTINUOUS
10
104.895
20
-104.344
11
104.701
21
-104.261
0
LINE
8
BLACK
6
CONTINUOUS
10
104.701
20
-104.261
11
104.526
21
-104.144
0
LINE
8
BLACK
6
CONTINUOUS
10
104.526
20
-104.144
11
104.376
21
-103.997
0
LINE
8
BLACK
6
CONTINUOUS
10
104.376
20
-103.997
11
104.254
21
-103.825
0
LINE
8
BLACK
6
CONTINUOUS
10
104.254
20
-103.825
11
104.166
21
-103.634
0
LINE
8
BLACK
6
CONTINUOUS
10
104.166
20
-103.634
11
104.114
21
-103.43
0
LINE
8
BLACK
6
CONTINUOUS
10
104.114
20
-103.43
11
104.1
21
-103.22
0
LINE
8
BLACK
6
CONTINUOUS
10
104.1
20
-103.22
11
104.125
21
-103.011
0
LINE
8
BLACK
6
CONTINUOUS
10
104.125
20
-103.011
11
104.188
21
-102.81
0
LINE
8
BLACK
6
CONTINUOUS
10
104.188
20
-102.81
11
104.286
21
-102.624
0
LINE
8
BLACK
6
CONTINUOUS
10
104.286
20
-102.624
11
104.416
21
-102.458
0
LINE
8
BLACK
6
CONTINUOUS
10
104.416
20
-102.458
11
104.574
21
-102.32
0
LINE
8
BLACK
6
CONTINUOUS
10
104.574
20
-102.32
11
104.755
21
-102.212
0
LINE
8
BLACK
6
CONTINUOUS
10
104.755
20
-102.212
11
104.952
21
-102.139
0
LINE
8
BLACK
6
CONTINUOUS
10
104.952
20
-102.139
11
105.16
21
-102.104
0
LINE
8
BLACK
6
CONTINUOUS
10
105.16
20
-102.104
11
105.37
21
-102.106
0
LINE
8
BLACK
6
CONTINUOUS
10
215.37
20
-85.3563
11
215.577
21
-85.3974
0
LINE
8
BLACK
6
CONTINUOUS
10
215.577
20
-85.3974
11
215.772
21
-85.4753
0
LINE
8
BLACK
6
CONTINUOUS
10
215.772
20
-85.4753
11
215.95
21
-85.5876
0
LINE
8
BLACK
6
CONTINUOUS
10
215.95
20
-85.5876
11
216.105
21
-85.7305
0
LINE
8
BLACK
6
CONTINUOUS
10
216.105
20
-85.7305
11
216.231
21
-85.8991
0
LINE
8
BLACK
6
CONTINUOUS
10
216.231
20
-85.8991
11
216.324
21
-86.0879
0
LINE
8
BLACK
6
CONTINUOUS
10
216.324
20
-86.0879
11
216.381
21
-86.2904
0
LINE
8
BLACK
6
CONTINUOUS
10
216.381
20
-86.2904
11
216.4
21
-86.5
0
LINE
8
BLACK
6
CONTINUOUS
10
216.4
20
-86.5
11
216.398
21
-86.5602
0
LINE
8
BLACK
6
CONTINUOUS
10
216.398
20
-86.5602
11
216.368
21
-86.7685
0
LINE
8
BLACK
6
CONTINUOUS
10
216.368
20
-86.7685
11
216.301
21
-86.9677
0
LINE
8
BLACK
6
CONTINUOUS
10
216.301
20
-86.9677
11
216.198
21
-87.1514
0
LINE
8
BLACK
6
CONTINUOUS
10
216.198
20
-87.1514
11
216.063
21
-87.3132
0
LINE
8
BLACK
6
CONTINUOUS
10
216.063
20
-87.3132
11
215.901
21
-87.4477
0
LINE
8
BLACK
6
CONTINUOUS
10
215.901
20
-87.4477
11
215.718
21
-87.5506
0
LINE
8
BLACK
6
CONTINUOUS
10
215.718
20
-87.5506
11
215.518
21
-87.6182
0
LINE
8
BLACK
6
CONTINUOUS
10
215.518
20
-87.6182
11
215.31
21
-87.6484
0
LINE
8
BLACK
6
CONTINUOUS
10
215.31
20
-87.6484
11
215.1
21
-87.6402
0
LINE
8
BLACK
6
CONTINUOUS
10
215.1
20
-87.6402
11
214.895
21
-87.5937
0
LINE
8
BLACK
6
CONTINUOUS
10
214.895
20
-87.5937
11
214.701
21
-87.5106
0
LINE
8
BLACK
6
CONTINUOUS
10
214.701
20
-87.5106
11
214.526
21
-87.3937
0
LINE
8
BLACK
6
CONTINUOUS
10
214.526
20
-87.3937
11
214.376
21
-87.2469
0
LINE
8
BLACK
6
CONTINUOUS
10
214.376
20
-87.2469
11
214.254
21
-87.075
0
LINE
8
BLACK
6
CONTINUOUS
10
214.254
20
-87.075
11
214.166
21
-86.8839
0
LINE
8
BLACK
6
CONTINUOUS
10
214.166
20
-86.8839
11
214.114
21
-86.6799
0
LINE
8
BLACK
6
CONTINUOUS
10
214.114
20
-86.6799
11
214.1
21
-86.4699
0
LINE
8
BLACK
6
CONTINUOUS
10
214.1
20
-86.4699
11
214.125
21
-86.2609
0
LINE
8
BLACK
6
CONTINUOUS
10
214.125
20
-86.2609
11
214.188
21
-86.0599
0
LINE
8
BLACK
6
CONTINUOUS
10
214.188
20
-86.0599
11
214.286
21
-85.8737
0
LINE
8
BLACK
6
CONTINUOUS
10
214.286
20
-85.8737
11
214.416
21
-85.7084
0
LINE
8
BLACK
6
CONTINUOUS
10
214.416
20
-85.7084
11
214.574
21
-85.5696
0
LINE
8
BLACK
6
CONTINUOUS
10
214.574
20
-85.5696
11
214.755
21
-85.462
0
LINE
8
BLACK
6
CONTINUOUS
10
214.755
20
-85.462
11
214.952
21
-85.3892
0
LINE
8
BLACK
6
CONTINUOUS
10
214.952
20
-85.3892
11
215.16
21
-85.3535
0
LINE
8
BLACK
6
CONTINUOUS
10
215.16
20
-85.3535
11
215.37
21
-85.3563
0
LINE
8
BLACK
6
CONTINUOUS
10
206.62
20
-85.3563
11
206.827
21
-85.3974
0
LINE
8
BLACK
6
CONTINUOUS
10
206.827
20
-85.3974
11
207.022
21
-85.4753
0
LINE
8
BLACK
6
CONTINUOUS
10
207.022
20
-85.4753
11
207.2
21
-85.5876
0
LINE
8
BLACK
6
CONTINUOUS
10
207.2
20
-85.5876
11
207.355
21
-85.7305
0
LINE
8
BLACK
6
CONTINUOUS
10
207.355
20
-85.7305
11
207.481
21
-85.8991
0
LINE
8
BLACK
6
CONTINUOUS
10
207.481
20
-85.8991
11
207.574
21
-86.0879
0
LINE
8
BLACK
6
CONTINUOUS
10
207.574
20
-86.0879
11
207.631
21
-86.2904
0
LINE
8
BLACK
6
CONTINUOUS
10
207.631
20
-86.2904
11
207.65
21
-86.5
0
LINE
8
BLACK
6
CONTINUOUS
10
207.65
20
-86.5
11
207.648
21
-86.5602
0
LINE
8
BLACK
6
CONTINUOUS
10
207.648
20
-86.5602
11
207.618
21
-86.7685
0
LINE
8
BLACK
6
CONTINUOUS
10
207.618
20
-86.7685
11
207.551
21
-86.9677
0
LINE
8
BLACK
6
CONTINUOUS
10
207.551
20
-86.9677
11
207.448
21
-87.1514
0
LINE
8
BLACK
6
CONTINUOUS
10
207.448
20
-87.1514
11
207.313
21
-87.3132
0
LINE
8
BLACK
6
CONTINUOUS
10
207.313
20
-87.3132
11
207.151
21
-87.4477
0
LINE
8
BLACK
6
CONTINUOUS
10
207.151
20
-87.4477
11
206.968
21
-87.5506
0
LINE
8
BLACK
6
CONTINUOUS
10
206.968
20
-87.5506
11
206.768
21
-87.6182
0
LINE
8
BLACK
6
CONTINUOUS
10
206.768
20
-87.6182
11
206.56
21
-87.6484
0
LINE
8
BLACK
6
CONTINUOUS
10
206.56
20
-87.6484
11
206.35
21
-87.6402
0
LINE
8
BLACK
6
CONTINUOUS
10
206.35
20
-87.6402
11
206.145
21
-87.5937
0
LINE
8
BLACK
6
CONTINUOUS
10
206.145
20
-87.5937
11
205.951
21
-87.5106
0
LINE
8
BLACK
6
CONTINUOUS
10
205.951
20
-87.5106
11
205.776
21
-87.3937
0
LINE
8
BLACK
6
CONTINUOUS
10
205.776
20
-87.3937
11
205.626
21
-87.2469
0
LINE
8
BLACK
6
CONTINUOUS
10
205.626
20
-87.2469
11
205.504
21
-87.075
0
LINE
8
BLACK
6
CONTINUOUS
10
205.504
20
-87.075
11
205.416
21
-86.8839
0
LINE
8
BLACK
6
CONTINUOUS
10
205.416
20
-86.8839
11
205.364
21
-86.6799
0
LINE
8
BLACK
6
CONTINUOUS
10
205.364
20
-86.6799
11
205.35
21
-86.4699
0
LINE
8
BLACK
6
CONTINUOUS
10
205.35
20
-86.4699
11
205.375
21
-86.2609
0
LINE
8
BLACK
6
CONTINUOUS
10
205.375
20
-86.2609
11
205.438
21
-86.0599
0
LINE
8
BLACK
6
CONTINUOUS
10
205.438
20
-86.0599
11
205.536
21
-85.8737
0
LINE
8
BLACK
6
CONTINUOUS
10
205.536
20
-85.8737
11
205.666
21
-85.7084
0
LINE
8
BLACK
6
CONTINUOUS
10
205.666
20
-85.7084
11
205.824
21
-85.5696
0
LINE
8
BLACK
6
CONTINUOUS
10
205.824
20
-85.5696
11
206.005
21
-85.462
0
LINE
8
BLACK
6
CONTINUOUS
10
206.005
20
-85.462
11
206.202
21
-85.3892
0
LINE
8
BLACK
6
CONTINUOUS
10
206.202
20
-85.3892
11
206.41
21
-85.3535
0
LINE
8
BLACK
6
CONTINUOUS
10
206.41
20
-85.3535
11
206.62
21
-85.3563
0
LINE
8
BLACK
6
CONTINUOUS
10
184.12
20
-78.3563
11
184.327
21
-78.3974
0
LINE
8
BLACK
6
CONTINUOUS
10
184.327
20
-78.3974
11
184.522
21
-78.4753
0
LINE
8
BLACK
6
CONTINUOUS
10
184.522
20
-78.4753
11
184.7
21
-78.5876
0
LINE
8
BLACK
6
CONTINUOUS
10
184.7
20
-78.5876
11
184.855
21
-78.7305
0
LINE
8
BLACK
6
CONTINUOUS
10
184.855
20
-78.7305
11
184.981
21
-78.8991
0
LINE
8
BLACK
6
CONTINUOUS
10
184.981
20
-78.8991
11
185.074
21
-79.0879
0
LINE
8
BLACK
6
CONTINUOUS
10
185.074
20
-79.0879
11
185.131
21
-79.2904
0
LINE
8
BLACK
6
CONTINUOUS
10
185.131
20
-79.2904
11
185.15
21
-79.5
0
LINE
8
BLACK
6
CONTINUOUS
10
185.15
20
-79.5
11
185.148
21
-79.5602
0
LINE
8
BLACK
6
CONTINUOUS
10
185.148
20
-79.5602
11
185.118
21
-79.7685
0
LINE
8
BLACK
6
CONTINUOUS
10
185.118
20
-79.7685
11
185.051
21
-79.9677
0
LINE
8
BLACK
6
CONTINUOUS
10
185.051
20
-79.9677
11
184.948
21
-80.1514
0
LINE
8
BLACK
6
CONTINUOUS
10
184.948
20
-80.1514
11
184.813
21
-80.3132
0
LINE
8
BLACK
6
CONTINUOUS
10
184.813
20
-80.3132
11
184.651
21
-80.4477
0
LINE
8
BLACK
6
CONTINUOUS
10
184.651
20
-80.4477
11
184.468
21
-80.5506
0
LINE
8
BLACK
6
CONTINUOUS
10
184.468
20
-80.5506
11
184.268
21
-80.6182
0
LINE
8
BLACK
6
CONTINUOUS
10
184.268
20
-80.6182
11
184.06
21
-80.6484
0
LINE
8
BLACK
6
CONTINUOUS
10
184.06
20
-80.6484
11
183.85
21
-80.6402
0
LINE
8
BLACK
6
CONTINUOUS
10
183.85
20
-80.6402
11
183.645
21
-80.5937
0
LINE
8
BLACK
6
CONTINUOUS
10
183.645
20
-80.5937
11
183.451
21
-80.5106
0
LINE
8
BLACK
6
CONTINUOUS
10
183.451
20
-80.5106
11
183.276
21
-80.3937
0
LINE
8
BLACK
6
CONTINUOUS
10
183.276
20
-80.3937
11
183.126
21
-80.2469
0
LINE
8
BLACK
6
CONTINUOUS
10
183.126
20
-80.2469
11
183.004
21
-80.075
0
LINE
8
BLACK
6
CONTINUOUS
10
183.004
20
-80.075
11
182.916
21
-79.8839
0
LINE
8
BLACK
6
CONTINUOUS
10
182.916
20
-79.8839
11
182.864
21
-79.6799
0
LINE
8
BLACK
6
CONTINUOUS
10
182.864
20
-79.6799
11
182.85
21
-79.4699
0
LINE
8
BLACK
6
CONTINUOUS
10
182.85
20
-79.4699
11
182.875
21
-79.2609
0
LINE
8
BLACK
6
CONTINUOUS
10
182.875
20
-79.2609
11
182.938
21
-79.0599
0
LINE
8
BLACK
6
CONTINUOUS
10
182.938
20
-79.0599
11
183.036
21
-78.8737
0
LINE
8
BLACK
6
CONTINUOUS
10
183.036
20
-78.8737
11
183.166
21
-78.7084
0
LINE
8
BLACK
6
CONTINUOUS
10
183.166
20
-78.7084
11
183.324
21
-78.5696
0
LINE
8
BLACK
6
CONTINUOUS
10
183.324
20
-78.5696
11
183.505
21
-78.462
0
LINE
8
BLACK
6
CONTINUOUS
10
183.505
20
-78.462
11
183.702
21
-78.3892
0
LINE
8
BLACK
6
CONTINUOUS
10
183.702
20
-78.3892
11
183.91
21
-78.3535
0
LINE
8
BLACK
6
CONTINUOUS
10
183.91
20
-78.3535
11
184.12
21
-78.3563
0
LINE
8
BLACK
6
CONTINUOUS
10
124.92
20
-75.8563
11
125.127
21
-75.8974
0
LINE
8
BLACK
6
CONTINUOUS
10
125.127
20
-75.8974
11
125.322
21
-75.9753
0
LINE
8
BLACK
6
CONTINUOUS
10
125.322
20
-75.9753
11
125.5
21
-76.0876
0
LINE
8
BLACK
6
CONTINUOUS
10
125.5
20
-76.0876
11
125.655
21
-76.2305
0
LINE
8
BLACK
6
CONTINUOUS
10
125.655
20
-76.2305
11
125.781
21
-76.3991
0
LINE
8
BLACK
6
CONTINUOUS
10
125.781
20
-76.3991
11
125.874
21
-76.5879
0
LINE
8
BLACK
6
CONTINUOUS
10
125.874
20
-76.5879
11
125.931
21
-76.7904
0
LINE
8
BLACK
6
CONTINUOUS
10
125.931
20
-76.7904
11
125.95
21
-77
0
LINE
8
BLACK
6
CONTINUOUS
10
125.95
20
-77
11
125.948
21
-77.0602
0
LINE
8
BLACK
6
CONTINUOUS
10
125.948
20
-77.0602
11
125.918
21
-77.2685
0
LINE
8
BLACK
6
CONTINUOUS
10
125.918
20
-77.2685
11
125.851
21
-77.4677
0
LINE
8
BLACK
6
CONTINUOUS
10
125.851
20
-77.4677
11
125.748
21
-77.6514
0
LINE
8
BLACK
6
CONTINUOUS
10
125.748
20
-77.6514
11
125.613
21
-77.8132
0
LINE
8
BLACK
6
CONTINUOUS
10
125.613
20
-77.8132
11
125.451
21
-77.9477
0
LINE
8
BLACK
6
CONTINUOUS
10
125.451
20
-77.9477
11
125.268
21
-78.0506
0
LINE
8
BLACK
6
CONTINUOUS
10
125.268
20
-78.0506
11
125.068
21
-78.1182
0
LINE
8
BLACK
6
CONTINUOUS
10
125.068
20
-78.1182
11
124.86
21
-78.1484
0
LINE
8
BLACK
6
CONTINUOUS
10
124.86
20
-78.1484
11
124.65
21
-78.1402
0
LINE
8
BLACK
6
CONTINUOUS
10
124.65
20
-78.1402
11
124.445
21
-78.0937
0
LINE
8
BLACK
6
CONTINUOUS
10
124.445
20
-78.0937
11
124.251
21
-78.0106
0
LINE
8
BLACK
6
CONTINUOUS
10
124.251
20
-78.0106
11
124.076
21
-77.8937
0
LINE
8
BLACK
6
CONTINUOUS
10
124.076
20
-77.8937
11
123.926
21
-77.7469
0
LINE
8
BLACK
6
CONTINUOUS
10
123.926
20
-77.7469
11
123.804
21
-77.575
0
LINE
8
BLACK
6
CONTINUOUS
10
123.804
20
-77.575
11
123.716
21
-77.3839
0
LINE
8
BLACK
6
CONTINUOUS
10
123.716
20
-77.3839
11
123.664
21
-77.1799
0
LINE
8
BLACK
6
CONTINUOUS
10
123.664
20
-77.1799
11
123.65
21
-76.9699
0
LINE
8
BLACK
6
CONTINUOUS
10
123.65
20
-76.9699
11
123.675
21
-76.7609
0
LINE
8
BLACK
6
CONTINUOUS
10
123.675
20
-76.7609
11
123.738
21
-76.5599
0
LINE
8
BLACK
6
CONTINUOUS
10
123.738
20
-76.5599
11
123.836
21
-76.3737
0
LINE
8
BLACK
6
CONTINUOUS
10
123.836
20
-76.3737
11
123.966
21
-76.2084
0
LINE
8
BLACK
6
CONTINUOUS
10
123.966
20
-76.2084
11
124.124
21
-76.0696
0
LINE
8
BLACK
6
CONTINUOUS
10
124.124
20
-76.0696
11
124.305
21
-75.962
0
LINE
8
BLACK
6
CONTINUOUS
10
124.305
20
-75.962
11
124.502
21
-75.8892
0
LINE
8
BLACK
6
CONTINUOUS
10
124.502
20
-75.8892
11
124.71
21
-75.8535
0
LINE
8
BLACK
6
CONTINUOUS
10
124.71
20
-75.8535
11
124.92
21
-75.8563
0
LINE
8
BLACK
6
CONTINUOUS
10
182.433
20
-58.0069
11
182.64
21
-58.0771
0
LINE
8
BLACK
6
CONTINUOUS
10
182.64
20
-58.0771
11
182.836
21
-58.1736
0
LINE
8
BLACK
6
CONTINUOUS
10
182.836
20
-58.1736
11
183.018
21
-58.2949
0
LINE
8
BLACK
6
CONTINUOUS
10
183.018
20
-58.2949
11
183.183
21
-58.4389
0
LINE
8
BLACK
6
CONTINUOUS
10
183.183
20
-58.4389
11
183.327
21
-58.6032
0
LINE
8
BLACK
6
CONTINUOUS
10
183.327
20
-58.6032
11
183.449
21
-58.7848
0
LINE
8
BLACK
6
CONTINUOUS
10
183.449
20
-58.7848
11
183.546
21
-58.9808
0
LINE
8
BLACK
6
CONTINUOUS
10
183.546
20
-58.9808
11
183.546
21
-58.9901
0
LINE
8
BLACK
6
CONTINUOUS
10
183.546
20
-58.9901
11
183.647
21
-59.1894
0
LINE
8
BLACK
6
CONTINUOUS
10
183.647
20
-59.1894
11
183.781
21
-59.3788
0
LINE
8
BLACK
6
CONTINUOUS
10
183.781
20
-59.3788
11
183.941
21
-59.5465
0
LINE
8
BLACK
6
CONTINUOUS
10
183.941
20
-59.5465
11
184.124
21
-59.689
0
LINE
8
BLACK
6
CONTINUOUS
10
184.124
20
-59.689
11
184.326
21
-59.8031
0
LINE
8
BLACK
6
CONTINUOUS
10
184.326
20
-59.8031
11
184.542
21
-59.8865
0
LINE
8
BLACK
6
CONTINUOUS
10
184.542
20
-59.8865
11
184.769
21
-59.9372
0
LINE
8
BLACK
6
CONTINUOUS
10
184.769
20
-59.9372
11
184.991
21
-59.9536
0
LINE
8
BLACK
6
CONTINUOUS
10
184.991
20
-59.9536
11
185
21
-59.95
0
LINE
8
BLACK
6
CONTINUOUS
10
185
20
-59.95
11
201
21
-59.95
0
LINE
8
BLACK
6
CONTINUOUS
10
201
20
-59.95
11
201.218
21
-59.9652
0
LINE
8
BLACK
6
CONTINUOUS
10
201.218
20
-59.9652
11
201.432
21
-60.0104
0
LINE
8
BLACK
6
CONTINUOUS
10
201.432
20
-60.0104
11
201.638
21
-60.0849
0
LINE
8
BLACK
6
CONTINUOUS
10
201.638
20
-60.0849
11
201.831
21
-60.1871
0
LINE
8
BLACK
6
CONTINUOUS
10
201.831
20
-60.1871
11
202.008
21
-60.3151
0
LINE
8
BLACK
6
CONTINUOUS
10
202.008
20
-60.3151
11
202.166
21
-60.4664
0
LINE
8
BLACK
6
CONTINUOUS
10
202.166
20
-60.4664
11
202.302
21
-60.6381
0
LINE
8
BLACK
6
CONTINUOUS
10
202.302
20
-60.6381
11
202.412
21
-60.8269
0
LINE
8
BLACK
6
CONTINUOUS
10
202.412
20
-60.8269
11
202.495
21
-61.0292
0
LINE
8
BLACK
6
CONTINUOUS
10
202.495
20
-61.0292
11
202.549
21
-61.241
0
LINE
8
BLACK
6
CONTINUOUS
10
202.549
20
-61.241
11
202.547
21
-61.2503
0
LINE
8
BLACK
6
CONTINUOUS
10
202.547
20
-61.2503
11
202.603
21
-61.4623
0
LINE
8
BLACK
6
CONTINUOUS
10
202.603
20
-61.4623
11
202.695
21
-61.6713
0
LINE
8
BLACK
6
CONTINUOUS
10
202.695
20
-61.6713
11
202.817
21
-61.8638
0
LINE
8
BLACK
6
CONTINUOUS
10
202.817
20
-61.8638
11
202.968
21
-62.035
0
LINE
8
BLACK
6
CONTINUOUS
10
202.968
20
-62.035
11
203.143
21
-62.1811
0
LINE
8
BLACK
6
CONTINUOUS
10
203.143
20
-62.1811
11
203.339
21
-62.2985
0
LINE
8
BLACK
6
CONTINUOUS
10
203.339
20
-62.2985
11
203.55
21
-62.3844
0
LINE
8
BLACK
6
CONTINUOUS
10
203.55
20
-62.3844
11
203.773
21
-62.4367
0
LINE
8
BLACK
6
CONTINUOUS
10
203.773
20
-62.4367
11
203.991
21
-62.4537
0
LINE
8
BLACK
6
CONTINUOUS
10
203.991
20
-62.4537
11
204
21
-62.45
0
LINE
8
BLACK
6
CONTINUOUS
10
204
20
-62.45
11
221
21
-62.45
0
LINE
8
BLACK
6
CONTINUOUS
10
221
20
-62.45
11
221.221
21
-62.4658
0
LINE
8
BLACK
6
CONTINUOUS
10
221.221
20
-62.4658
11
221.437
21
-62.5128
0
LINE
8
BLACK
6
CONTINUOUS
10
221.437
20
-62.5128
11
221.644
21
-62.59
0
LINE
8
BLACK
6
CONTINUOUS
10
221.644
20
-62.59
11
221.838
21
-62.696
0
LINE
8
BLACK
6
CONTINUOUS
10
221.838
20
-62.696
11
222.015
21
-62.8286
0
LINE
8
BLACK
6
CONTINUOUS
10
222.015
20
-62.8286
11
222.171
21
-62.9849
0
LINE
8
BLACK
6
CONTINUOUS
10
222.171
20
-62.9849
11
222.304
21
-63.162
0
LINE
8
BLACK
6
CONTINUOUS
10
222.304
20
-63.162
11
222.41
21
-63.3561
0
LINE
8
BLACK
6
CONTINUOUS
10
222.41
20
-63.3561
11
222.487
21
-63.5633
0
LINE
8
BLACK
6
CONTINUOUS
10
222.487
20
-63.5633
11
222.534
21
-63.7794
0
LINE
8
BLACK
6
CONTINUOUS
10
222.534
20
-63.7794
11
222.55
21
-64
0
LINE
8
BLACK
6
CONTINUOUS
10
222.55
20
-64
11
222.55
21
-125
0
LINE
8
BLACK
6
CONTINUOUS
10
222.55
20
-125
11
222.545
21
-125.012
0
LINE
8
BLACK
6
CONTINUOUS
10
222.545
20
-125.012
11
222.543
21
-125.025
0
LINE
8
BLACK
6
CONTINUOUS
10
222.543
20
-125.025
11
209.092
21
-148.476
0
LINE
8
BLACK
6
CONTINUOUS
10
209.092
20
-148.476
11
209.092
21
-148.476
0
LINE
8
BLACK
6
CONTINUOUS
10
209.092
20
-148.476
11
209.092
21
-148.476
0
LINE
8
BLACK
6
CONTINUOUS
10
209.092
20
-148.476
11
209.092
21
-148.476
0
LINE
8
BLACK
6
CONTINUOUS
10
209.092
20
-148.476
11
208.968
21
-148.659
0
LINE
8
BLACK
6
CONTINUOUS
10
208.968
20
-148.659
11
208.82
21
-148.823
0
LINE
8
BLACK
6
CONTINUOUS
10
208.82
20
-148.823
11
208.649
21
-148.964
0
LINE
8
BLACK
6
CONTINUOUS
10
208.649
20
-148.964
11
208.46
21
-149.079
0
LINE
8
BLACK
6
CONTINUOUS
10
208.46
20
-149.079
11
208.257
21
-149.166
0
LINE
8
BLACK
6
CONTINUOUS
10
208.257
20
-149.166
11
208.043
21
-149.223
0
LINE
8
BLACK
6
CONTINUOUS
10
208.043
20
-149.223
11
207.824
21
-149.249
0
LINE
8
BLACK
6
CONTINUOUS
10
207.824
20
-149.249
11
207.603
21
-149.244
0
LINE
8
BLACK
6
CONTINUOUS
10
207.603
20
-149.244
11
207.385
21
-149.207
0
LINE
8
BLACK
6
CONTINUOUS
10
207.385
20
-149.207
11
207.174
21
-149.14
0
LINE
8
BLACK
6
CONTINUOUS
10
207.174
20
-149.14
11
206.975
21
-149.043
0
LINE
8
BLACK
6
CONTINUOUS
10
206.975
20
-149.043
11
206.975
21
-149.043
0
LINE
8
BLACK
6
CONTINUOUS
10
206.975
20
-149.043
11
206.975
21
-149.043
0
LINE
8
BLACK
6
CONTINUOUS
10
206.975
20
-149.043
11
206.975
21
-149.043
0
LINE
8
BLACK
6
CONTINUOUS
10
206.975
20
-149.043
11
191.481
21
-140.047
0
LINE
8
BLACK
6
CONTINUOUS
10
191.481
20
-140.047
11
172.993
21
-135.05
0
LINE
8
BLACK
6
CONTINUOUS
10
172.993
20
-135.05
11
154
21
-135.05
0
LINE
8
BLACK
6
CONTINUOUS
10
154
20
-135.05
11
153.993
21
-135.047
0
LINE
8
BLACK
6
CONTINUOUS
10
153.993
20
-135.047
11
153.985
21
-135.048
0
LINE
8
BLACK
6
CONTINUOUS
10
153.985
20
-135.048
11
126.994
21
-126.551
0
LINE
8
BLACK
6
CONTINUOUS
10
126.994
20
-126.551
11
108.704
21
-128.15
0
LINE
8
BLACK
6
CONTINUOUS
10
108.704
20
-128.15
11
108.701
21
-128.149
0
LINE
8
BLACK
6
CONTINUOUS
10
108.701
20
-128.149
11
108.698
21
-128.15
0
LINE
8
BLACK
6
CONTINUOUS
10
108.698
20
-128.15
11
108.698
21
-128.15
0
LINE
8
BLACK
6
CONTINUOUS
10
108.698
20
-128.15
11
108.484
21
-128.127
0
LINE
8
BLACK
6
CONTINUOUS
10
108.484
20
-128.127
11
108.276
21
-128.074
0
LINE
8
BLACK
6
CONTINUOUS
10
108.276
20
-128.074
11
108.076
21
-127.992
0
LINE
8
BLACK
6
CONTINUOUS
10
108.076
20
-127.992
11
107.891
21
-127.883
0
LINE
8
BLACK
6
CONTINUOUS
10
107.891
20
-127.883
11
107.723
21
-127.748
0
LINE
8
BLACK
6
CONTINUOUS
10
107.723
20
-127.748
11
107.576
21
-127.591
0
LINE
8
BLACK
6
CONTINUOUS
10
107.576
20
-127.591
11
107.453
21
-127.414
0
LINE
8
BLACK
6
CONTINUOUS
10
107.453
20
-127.414
11
107.357
21
-127.221
0
LINE
8
BLACK
6
CONTINUOUS
10
107.357
20
-127.221
11
107.289
21
-127.017
0
LINE
8
BLACK
6
CONTINUOUS
10
107.289
20
-127.017
11
107.25
21
-126.805
0
LINE
8
BLACK
6
CONTINUOUS
10
107.25
20
-126.805
11
107.25
21
-126.805
0
LINE
8
BLACK
6
CONTINUOUS
10
107.25
20
-126.805
11
107.251
21
-126.804
0
LINE
8
BLACK
6
CONTINUOUS
10
107.251
20
-126.804
11
107.25
21
-126.804
0
LINE
8
BLACK
6
CONTINUOUS
10
107.25
20
-126.804
11
107.075
21
-124.367
0
LINE
8
BLACK
6
CONTINUOUS
10
107.075
20
-124.367
11
107.078
21
-124.358
0
LINE
8
BLACK
6
CONTINUOUS
10
107.078
20
-124.358
11
107.042
21
-124.142
0
LINE
8
BLACK
6
CONTINUOUS
10
107.042
20
-124.142
11
106.97
21
-123.926
0
LINE
8
BLACK
6
CONTINUOUS
10
106.97
20
-123.926
11
106.864
21
-123.724
0
LINE
8
BLACK
6
CONTINUOUS
10
106.864
20
-123.724
11
106.728
21
-123.54
0
LINE
8
BLACK
6
CONTINUOUS
10
106.728
20
-123.54
11
106.566
21
-123.38
0
LINE
8
BLACK
6
CONTINUOUS
10
106.566
20
-123.38
11
106.38
21
-123.248
0
LINE
8
BLACK
6
CONTINUOUS
10
106.38
20
-123.248
11
106.176
21
-123.146
0
LINE
8
BLACK
6
CONTINUOUS
10
106.176
20
-123.146
11
105.958
21
-123.077
0
LINE
8
BLACK
6
CONTINUOUS
10
105.958
20
-123.077
11
105.732
21
-123.043
0
LINE
8
BLACK
6
CONTINUOUS
10
105.732
20
-123.043
11
105.513
21
-123.045
0
LINE
8
BLACK
6
CONTINUOUS
10
105.513
20
-123.045
11
105.504
21
-123.05
0
LINE
8
BLACK
6
CONTINUOUS
10
105.504
20
-123.05
11
105.504
21
-123.05
0
LINE
8
BLACK
6
CONTINUOUS
10
105.504
20
-123.05
11
105.504
21
-123.05
0
LINE
8
BLACK
6
CONTINUOUS
10
105.504
20
-123.05
11
89.5045
21
-124.495
0
LINE
8
BLACK
6
CONTINUOUS
10
89.5045
20
-124.495
11
89.5044
21
-124.495
0
LINE
8
BLACK
6
CONTINUOUS
10
89.5044
20
-124.495
11
89.5044
21
-124.495
0
LINE
8
BLACK
6
CONTINUOUS
10
89.5044
20
-124.495
11
89.5044
21
-124.495
0
LINE
8
BLACK
6
CONTINUOUS
10
89.5044
20
-124.495
11
89.2832
21
-124.499
0
LINE
8
BLACK
6
CONTINUOUS
10
89.2832
20
-124.499
11
89.0639
21
-124.471
0
LINE
8
BLACK
6
CONTINUOUS
10
89.0639
20
-124.471
11
88.8507
21
-124.412
0
LINE
8
BLACK
6
CONTINUOUS
10
88.8507
20
-124.412
11
88.6481
21
-124.323
0
LINE
8
BLACK
6
CONTINUOUS
10
88.6481
20
-124.323
11
88.4602
21
-124.206
0
LINE
8
BLACK
6
CONTINUOUS
10
88.4602
20
-124.206
11
88.2908
21
-124.064
0
LINE
8
BLACK
6
CONTINUOUS
10
88.2908
20
-124.064
11
88.1433
21
-123.899
0
LINE
8
BLACK
6
CONTINUOUS
10
88.1433
20
-123.899
11
88.0208
21
-123.715
0
LINE
8
BLACK
6
CONTINUOUS
10
88.0208
20
-123.715
11
87.9258
21
-123.516
0
LINE
8
BLACK
6
CONTINUOUS
10
87.9258
20
-123.516
11
87.8601
21
-123.304
0
LINE
8
BLACK
6
CONTINUOUS
10
87.8601
20
-123.304
11
87.8252
21
-123.086
0
LINE
8
BLACK
6
CONTINUOUS
10
87.8252
20
-123.086
11
87.8252
21
-123.086
0
LINE
8
BLACK
6
CONTINUOUS
10
87.8252
20
-123.086
11
84.605
21
-86.9044
0
LINE
8
BLACK
6
CONTINUOUS
10
84.605
20
-86.9044
11
84.605
21
-86.9044
0
LINE
8
BLACK
6
CONTINUOUS
10
84.605
20
-86.9044
11
84.605
21
-86.9044
0
LINE
8
BLACK
6
CONTINUOUS
10
84.605
20
-86.9044
11
84.605
21
-86.9043
0
LINE
8
BLACK
6
CONTINUOUS
10
84.605
20
-86.9043
11
84.6015
21
-86.6832
0
LINE
8
BLACK
6
CONTINUOUS
10
84.6015
20
-86.6832
11
84.6295
21
-86.4639
0
LINE
8
BLACK
6
CONTINUOUS
10
84.6295
20
-86.4639
11
84.6884
21
-86.2507
0
LINE
8
BLACK
6
CONTINUOUS
10
84.6884
20
-86.2507
11
84.7771
21
-86.0481
0
LINE
8
BLACK
6
CONTINUOUS
10
84.7771
20
-86.0481
11
84.8937
21
-85.8602
0
LINE
8
BLACK
6
CONTINUOUS
10
84.8937
20
-85.8602
11
85.0358
21
-85.6908
0
LINE
8
BLACK
6
CONTINUOUS
10
85.0358
20
-85.6908
11
85.2007
21
-85.5434
0
LINE
8
BLACK
6
CONTINUOUS
10
85.2007
20
-85.5434
11
85.3848
21
-85.4209
0
LINE
8
BLACK
6
CONTINUOUS
10
85.3848
20
-85.4209
11
85.5844
21
-85.3258
0
LINE
8
BLACK
6
CONTINUOUS
10
85.5844
20
-85.3258
11
85.7956
21
-85.2601
0
LINE
8
BLACK
6
CONTINUOUS
10
85.7956
20
-85.2601
11
86.0136
21
-85.2252
0
LINE
8
BLACK
6
CONTINUOUS
10
86.0136
20
-85.2252
11
86.0137
21
-85.2252
0
LINE
8
BLACK
6
CONTINUOUS
10
86.0137
20
-85.2252
11
102.002
21
-83.7496
0
LINE
8
BLACK
6
CONTINUOUS
10
102.002
20
-83.7496
11
102.002
21
-83.7496
0
LINE
8
BLACK
6
CONTINUOUS
10
102.002
20
-83.7496
11
102.002
21
-83.7496
0
LINE
8
BLACK
6
CONTINUOUS
10
102.002
20
-83.7496
11
102.012
21
-83.7525
0
LINE
8
BLACK
6
CONTINUOUS
10
102.012
20
-83.7525
11
102.228
21
-83.7163
0
LINE
8
BLACK
6
CONTINUOUS
10
102.228
20
-83.7163
11
102.444
21
-83.6439
0
LINE
8
BLACK
6
CONTINUOUS
10
102.444
20
-83.6439
11
102.647
21
-83.5385
0
LINE
8
BLACK
6
CONTINUOUS
10
102.647
20
-83.5385
11
102.83
21
-83.4028
0
LINE
8
BLACK
6
CONTINUOUS
10
102.83
20
-83.4028
11
102.99
21
-83.24
0
LINE
8
BLACK
6
CONTINUOUS
10
102.99
20
-83.24
11
103.123
21
-83.0542
0
LINE
8
BLACK
6
CONTINUOUS
10
103.123
20
-83.0542
11
103.225
21
-82.8499
0
LINE
8
BLACK
6
CONTINUOUS
10
103.225
20
-82.8499
11
103.293
21
-82.6323
0
LINE
8
BLACK
6
CONTINUOUS
10
103.293
20
-82.6323
11
103.327
21
-82.4065
0
LINE
8
BLACK
6
CONTINUOUS
10
103.327
20
-82.4065
11
103.325
21
-82.1874
0
LINE
8
BLACK
6
CONTINUOUS
10
103.325
20
-82.1874
11
103.321
21
-82.1787
0
LINE
8
BLACK
6
CONTINUOUS
10
103.321
20
-82.1787
11
103.321
21
-82.1786
0
LINE
8
BLACK
6
CONTINUOUS
10
103.321
20
-82.1786
11
103.321
21
-82.1785
0
LINE
8
BLACK
6
CONTINUOUS
10
103.321
20
-82.1785
11
102.45
21
-71.7289
0
LINE
8
BLACK
6
CONTINUOUS
10
102.45
20
-71.7289
11
102.45
21
-71.7289
0
LINE
8
BLACK
6
CONTINUOUS
10
102.45
20
-71.7289
11
102.447
21
-71.508
0
LINE
8
BLACK
6
CONTINUOUS
10
102.447
20
-71.508
11
102.475
21
-71.2887
0
LINE
8
BLACK
6
CONTINUOUS
10
102.475
20
-71.2887
11
102.534
21
-71.0755
0
LINE
8
BLACK
6
CONTINUOUS
10
102.534
20
-71.0755
11
102.622
21
-70.8729
0
LINE
8
BLACK
6
CONTINUOUS
10
102.622
20
-70.8729
11
102.739
21
-70.685
0
LINE
8
BLACK
6
CONTINUOUS
10
102.739
20
-70.685
11
102.881
21
-70.5156
0
LINE
8
BLACK
6
CONTINUOUS
10
102.881
20
-70.5156
11
103.046
21
-70.3681
0
LINE
8
BLACK
6
CONTINUOUS
10
103.046
20
-70.3681
11
103.23
21
-70.2456
0
LINE
8
BLACK
6
CONTINUOUS
10
103.23
20
-70.2456
11
103.43
21
-70.1505
0
LINE
8
BLACK
6
CONTINUOUS
10
103.43
20
-70.1505
11
103.641
21
-70.0849
0
LINE
8
BLACK
6
CONTINUOUS
10
103.641
20
-70.0849
11
103.859
21
-70.0499
0
LINE
8
BLACK
6
CONTINUOUS
10
103.859
20
-70.0499
11
103.859
21
-70.05
0
LINE
8
BLACK
6
CONTINUOUS
10
103.859
20
-70.05
11
103.859
21
-70.05
0
LINE
8
BLACK
6
CONTINUOUS
10
103.859
20
-70.05
11
103.859
21
-70.0499
0
LINE
8
BLACK
6
CONTINUOUS
10
103.859
20
-70.0499
11
123.922
21
-68.3504
0
LINE
8
BLACK
6
CONTINUOUS
10
123.922
20
-68.3504
11
123.923
21
-68.3507
0
LINE
8
BLACK
6
CONTINUOUS
10
123.923
20
-68.3507
11
123.923
21
-68.3503
0
LINE
8
BLACK
6
CONTINUOUS
10
123.923
20
-68.3503
11
123.932
21
-68.3532
0
LINE
8
BLACK
6
CONTINUOUS
10
123.932
20
-68.3532
11
124.144
21
-68.3283
0
LINE
8
BLACK
6
CONTINUOUS
10
124.144
20
-68.3283
11
124.359
21
-68.2723
0
LINE
8
BLACK
6
CONTINUOUS
10
124.359
20
-68.2723
11
124.565
21
-68.1871
0
LINE
8
BLACK
6
CONTINUOUS
10
124.565
20
-68.1871
11
124.756
21
-68.0743
0
LINE
8
BLACK
6
CONTINUOUS
10
124.756
20
-68.0743
11
124.93
21
-67.9362
0
LINE
8
BLACK
6
CONTINUOUS
10
124.93
20
-67.9362
11
125.084
21
-67.7754
0
LINE
8
BLACK
6
CONTINUOUS
10
125.084
20
-67.7754
11
125.214
21
-67.595
0
LINE
8
BLACK
6
CONTINUOUS
10
125.214
20
-67.595
11
125.317
21
-67.3983
0
LINE
8
BLACK
6
CONTINUOUS
10
125.317
20
-67.3983
11
125.393
21
-67.1892
0
LINE
8
BLACK
6
CONTINUOUS
10
125.393
20
-67.1892
11
125.439
21
-66.9717
0
LINE
8
BLACK
6
CONTINUOUS
10
125.439
20
-66.9717
11
125.453
21
-66.7581
0
LINE
8
BLACK
6
CONTINUOUS
10
125.453
20
-66.7581
11
125.45
21
-66.75
0
LINE
8
BLACK
6
CONTINUOUS
10
125.45
20
-66.75
11
125.45
21
-59
0
LINE
8
BLACK
6
CONTINUOUS
10
125.45
20
-59
11
125.45
21
-59
0
LINE
8
BLACK
6
CONTINUOUS
10
125.45
20
-59
11
125.45
21
-59
0
LINE
8
BLACK
6
CONTINUOUS
10
125.45
20
-59
11
125.466
21
-58.7794
0
LINE
8
BLACK
6
CONTINUOUS
10
125.466
20
-58.7794
11
125.513
21
-58.5633
0
LINE
8
BLACK
6
CONTINUOUS
10
125.513
20
-58.5633
11
125.59
21
-58.3561
0
LINE
8
BLACK
6
CONTINUOUS
10
125.59
20
-58.3561
11
125.696
21
-58.162
0
LINE
8
BLACK
6
CONTINUOUS
10
125.696
20
-58.162
11
125.829
21
-57.985
0
LINE
8
BLACK
6
CONTINUOUS
10
125.829
20
-57.985
11
125.985
21
-57.8286
0
LINE
8
BLACK
6
CONTINUOUS
10
125.985
20
-57.8286
11
126.162
21
-57.6961
0
LINE
8
BLACK
6
CONTINUOUS
10
126.162
20
-57.6961
11
126.356
21
-57.5901
0
LINE
8
BLACK
6
CONTINUOUS
10
126.356
20
-57.5901
11
126.563
21
-57.5128
0
LINE
8
BLACK
6
CONTINUOUS
10
126.563
20
-57.5128
11
126.779
21
-57.4658
0
LINE
8
BLACK
6
CONTINUOUS
10
126.779
20
-57.4658
11
127
21
-57.45
0
LINE
8
BLACK
6
CONTINUOUS
10
127
20
-57.45
11
127
21
-57.45
0
LINE
8
BLACK
6
CONTINUOUS
10
127
20
-57.45
11
127
21
-57.45
0
LINE
8
BLACK
6
CONTINUOUS
10
127
20
-57.45
11
143
21
-57.45
0
LINE
8
BLACK
6
CONTINUOUS
10
143
20
-57.45
11
143
21
-57.45
0
LINE
8
BLACK
6
CONTINUOUS
10
143
20
-57.45
11
143
21
-57.45
0
LINE
8
BLACK
6
CONTINUOUS
10
143
20
-57.45
11
143.009
21
-57.4538
0
LINE
8
BLACK
6
CONTINUOUS
10
143.009
20
-57.4538
11
143.228
21
-57.4366
0
LINE
8
BLACK
6
CONTINUOUS
10
143.228
20
-57.4366
11
143.449
21
-57.3833
0
LINE
8
BLACK
6
CONTINUOUS
10
143.449
20
-57.3833
11
143.66
21
-57.296
0
LINE
8
BLACK
6
CONTINUOUS
10
143.66
20
-57.296
11
143.855
21
-57.1767
0
LINE
8
BLACK
6
CONTINUOUS
10
143.855
20
-57.1767
11
144.029
21
-57.0285
0
LINE
8
BLACK
6
CONTINUOUS
10
144.029
20
-57.0285
11
144.177
21
-56.8549
0
LINE
8
BLACK
6
CONTINUOUS
10
144.177
20
-56.8549
11
144.296
21
-56.6603
0
LINE
8
BLACK
6
CONTINUOUS
10
144.296
20
-56.6603
11
144.383
21
-56.4495
0
LINE
8
BLACK
6
CONTINUOUS
10
144.383
20
-56.4495
11
144.437
21
-56.2275
0
LINE
8
BLACK
6
CONTINUOUS
10
144.437
20
-56.2275
11
144.454
21
-56.0091
0
LINE
8
BLACK
6
CONTINUOUS
10
144.454
20
-56.0091
11
144.45
21
-56
0
LINE
8
BLACK
6
CONTINUOUS
10
144.45
20
-56
11
144.45
21
-56
0
LINE
8
BLACK
6
CONTINUOUS
10
144.45
20
-56
11
144.45
21
-56
0
LINE
8
BLACK
6
CONTINUOUS
10
144.45
20
-56
11
144.45
21
-55
0
LINE
8
BLACK
6
CONTINUOUS
10
144.45
20
-55
11
144.45
21
-55
0
LINE
8
BLACK
6
CONTINUOUS
10
144.45
20
-55
11
144.45
21
-55
0
LINE
8
BLACK
6
CONTINUOUS
10
144.45
20
-55
11
144.466
21
-54.7794
0
LINE
8
BLACK
6
CONTINUOUS
10
144.466
20
-54.7794
11
144.513
21
-54.5633
0
LINE
8
BLACK
6
CONTINUOUS
10
144.513
20
-54.5633
11
144.59
21
-54.3561
0
LINE
8
BLACK
6
CONTINUOUS
10
144.59
20
-54.3561
11
144.696
21
-54.162
0
LINE
8
BLACK
6
CONTINUOUS
10
144.696
20
-54.162
11
144.829
21
-53.985
0
LINE
8
BLACK
6
CONTINUOUS
10
144.829
20
-53.985
11
144.985
21
-53.8286
0
LINE
8
BLACK
6
CONTINUOUS
10
144.985
20
-53.8286
11
145.162
21
-53.6961
0
LINE
8
BLACK
6
CONTINUOUS
10
145.162
20
-53.6961
11
145.356
21
-53.5901
0
LINE
8
BLACK
6
CONTINUOUS
10
145.356
20
-53.5901
11
145.563
21
-53.5128
0
LINE
8
BLACK
6
CONTINUOUS
10
145.563
20
-53.5128
11
145.779
21
-53.4658
0
LINE
8
BLACK
6
CONTINUOUS
10
145.779
20
-53.4658
11
146
21
-53.45
0
LINE
8
BLACK
6
CONTINUOUS
10
146
20
-53.45
11
146
21
-53.45
0
LINE
8
BLACK
6
CONTINUOUS
10
146
20
-53.45
11
146
21
-53.45
0
LINE
8
BLACK
6
CONTINUOUS
10
146
20
-53.45
11
163
21
-53.45
0
LINE
8
BLACK
6
CONTINUOUS
10
163
20
-53.45
11
163.221
21
-53.4658
0
LINE
8
BLACK
6
CONTINUOUS
10
163.221
20
-53.4658
11
163.437
21
-53.5128
0
LINE
8
BLACK
6
CONTINUOUS
10
163.437
20
-53.5128
11
163.644
21
-53.5901
0
LINE
8
BLACK
6
CONTINUOUS
10
163.644
20
-53.5901
11
163.838
21
-53.6961
0
LINE
8
BLACK
6
CONTINUOUS
10
163.838
20
-53.6961
11
164.015
21
-53.8286
0
LINE
8
BLACK
6
CONTINUOUS
10
164.015
20
-53.8286
11
164.171
21
-53.985
0
LINE
8
BLACK
6
CONTINUOUS
10
164.171
20
-53.985
11
164.304
21
-54.162
0
LINE
8
BLACK
6
CONTINUOUS
10
164.304
20
-54.162
11
164.41
21
-54.3561
0
LINE
8
BLACK
6
CONTINUOUS
10
164.41
20
-54.3561
11
164.487
21
-54.5633
0
LINE
8
BLACK
6
CONTINUOUS
10
164.487
20
-54.5633
11
164.534
21
-54.7794
0
LINE
8
BLACK
6
CONTINUOUS
10
164.534
20
-54.7794
11
164.55
21
-55
0
LINE
8
BLACK
6
CONTINUOUS
10
164.55
20
-55
11
164.55
21
-56.5
0
LINE
8
BLACK
6
CONTINUOUS
10
164.55
20
-56.5
11
164.546
21
-56.5091
0
LINE
8
BLACK
6
CONTINUOUS
10
164.546
20
-56.5091
11
164.563
21
-56.7275
0
LINE
8
BLACK
6
CONTINUOUS
10
164.563
20
-56.7275
11
164.617
21
-56.9495
0
LINE
8
BLACK
6
CONTINUOUS
10
164.617
20
-56.9495
11
164.704
21
-57.1603
0
LINE
8
BLACK
6
CONTINUOUS
10
164.704
20
-57.1603
11
164.823
21
-57.3549
0
LINE
8
BLACK
6
CONTINUOUS
10
164.823
20
-57.3549
11
164.972
21
-57.5285
0
LINE
8
BLACK
6
CONTINUOUS
10
164.972
20
-57.5285
11
165.145
21
-57.6767
0
LINE
8
BLACK
6
CONTINUOUS
10
165.145
20
-57.6767
11
165.34
21
-57.796
0
LINE
8
BLACK
6
CONTINUOUS
10
165.34
20
-57.796
11
165.551
21
-57.8833
0
LINE
8
BLACK
6
CONTINUOUS
10
165.551
20
-57.8833
11
165.772
21
-57.9366
0
LINE
8
BLACK
6
CONTINUOUS
10
165.772
20
-57.9366
11
165.991
21
-57.9538
0
LINE
8
BLACK
6
CONTINUOUS
10
165.991
20
-57.9538
11
166
21
-57.95
0
LINE
8
BLACK
6
CONTINUOUS
10
166
20
-57.95
11
182
21
-57.95
0
LINE
8
BLACK
6
CONTINUOUS
10
182
20
-57.95
11
182.218
21
-57.9643
0
LINE
8
BLACK
6
CONTINUOUS
10
182.218
20
-57.9643
11
182.433
21
-58.0069
0
LINE
8
BLACK
6
CONTINUOUS
10
145.991
20
-53.5462
11
145.772
21
-53.5634
0
LINE
8
BLACK
6
CONTINUOUS
10
145.772
20
-53.5634
11
145.551
21
-53.6167
0
LINE
8
BLACK
6
CONTINUOUS
10
145.551
20
-53.6167
11
145.34
21
-53.7041
0
LINE
8
BLACK
6
CONTINUOUS
10
145.34
20
-53.7041
11
145.145
21
-53.8233
0
LINE
8
BLACK
6
CONTINUOUS
10
145.145
20
-53.8233
11
144.972
21
-53.9716
0
LINE
8
BLACK
6
CONTINUOUS
10
144.972
20
-53.9716
11
144.823
21
-54.1451
0
LINE
8
BLACK
6
CONTINUOUS
10
144.823
20
-54.1451
11
144.704
21
-54.3397
0
LINE
8
BLACK
6
CONTINUOUS
10
144.704
20
-54.3397
11
144.617
21
-54.5506
0
LINE
8
BLACK
6
CONTINUOUS
10
144.617
20
-54.5506
11
144.563
21
-54.7725
0
LINE
8
BLACK
6
CONTINUOUS
10
144.563
20
-54.7725
11
144.546
21
-54.9909
0
LINE
8
BLACK
6
CONTINUOUS
10
144.546
20
-54.9909
11
144.55
21
-55
0
LINE
8
BLACK
6
CONTINUOUS
10
144.55
20
-55
11
144.55
21
-56
0
LINE
8
BLACK
6
CONTINUOUS
10
144.55
20
-56
11
144.534
21
-56.2206
0
LINE
8
BLACK
6
CONTINUOUS
10
144.534
20
-56.2206
11
144.487
21
-56.4367
0
LINE
8
BLACK
6
CONTINUOUS
10
144.487
20
-56.4367
11
144.41
21
-56.6439
0
LINE
8
BLACK
6
CONTINUOUS
10
144.41
20
-56.6439
11
144.304
21
-56.838
0
LINE
8
BLACK
6
CONTINUOUS
10
144.304
20
-56.838
11
144.171
21
-57.0151
0
LINE
8
BLACK
6
CONTINUOUS
10
144.171
20
-57.0151
11
144.015
21
-57.1714
0
LINE
8
BLACK
6
CONTINUOUS
10
144.015
20
-57.1714
11
143.838
21
-57.304
0
LINE
8
BLACK
6
CONTINUOUS
10
143.838
20
-57.304
11
143.644
21
-57.41
0
LINE
8
BLACK
6
CONTINUOUS
10
143.644
20
-57.41
11
143.437
21
-57.4872
0
LINE
8
BLACK
6
CONTINUOUS
10
143.437
20
-57.4872
11
143.221
21
-57.5342
0
LINE
8
BLACK
6
CONTINUOUS
10
143.221
20
-57.5342
11
143
21
-57.55
0
LINE
8
BLACK
6
CONTINUOUS
10
143
20
-57.55
11
127
21
-57.55
0
LINE
8
BLACK
6
CONTINUOUS
10
127
20
-57.55
11
126.991
21
-57.5462
0
LINE
8
BLACK
6
CONTINUOUS
10
126.991
20
-57.5462
11
126.772
21
-57.5634
0
LINE
8
BLACK
6
CONTINUOUS
10
126.772
20
-57.5634
11
126.551
21
-57.6167
0
LINE
8
BLACK
6
CONTINUOUS
10
126.551
20
-57.6167
11
126.34
21
-57.7041
0
LINE
8
BLACK
6
CONTINUOUS
10
126.34
20
-57.7041
11
126.145
21
-57.8233
0
LINE
8
BLACK
6
CONTINUOUS
10
126.145
20
-57.8233
11
125.972
21
-57.9716
0
LINE
8
BLACK
6
CONTINUOUS
10
125.972
20
-57.9716
11
125.823
21
-58.1451
0
LINE
8
BLACK
6
CONTINUOUS
10
125.823
20
-58.1451
11
125.704
21
-58.3397
0
LINE
8
BLACK
6
CONTINUOUS
10
125.704
20
-58.3397
11
125.617
21
-58.5506
0
LINE
8
BLACK
6
CONTINUOUS
10
125.617
20
-58.5506
11
125.563
21
-58.7725
0
LINE
8
BLACK
6
CONTINUOUS
10
125.563
20
-58.7725
11
125.546
21
-58.9909
0
LINE
8
BLACK
6
CONTINUOUS
10
125.546
20
-58.9909
11
125.55
21
-59
0
LINE
8
BLACK
6
CONTINUOUS
10
125.55
20
-59
11
125.55
21
-66.75
0
LINE
8
BLACK
6
CONTINUOUS
10
125.55
20
-66.75
11
125.534
21
-66.985
0
LINE
8
BLACK
6
CONTINUOUS
10
125.534
20
-66.985
11
125.485
21
-67.2155
0
LINE
8
BLACK
6
CONTINUOUS
10
125.485
20
-67.2155
11
125.405
21
-67.4371
0
LINE
8
BLACK
6
CONTINUOUS
10
125.405
20
-67.4371
11
125.295
21
-67.6455
0
LINE
8
BLACK
6
CONTINUOUS
10
125.295
20
-67.6455
11
125.158
21
-67.8368
0
LINE
8
BLACK
6
CONTINUOUS
10
125.158
20
-67.8368
11
124.995
21
-68.0072
0
LINE
8
BLACK
6
CONTINUOUS
10
124.995
20
-68.0072
11
124.811
21
-68.1536
0
LINE
8
BLACK
6
CONTINUOUS
10
124.811
20
-68.1536
11
124.608
21
-68.2731
0
LINE
8
BLACK
6
CONTINUOUS
10
124.608
20
-68.2731
11
124.39
21
-68.3634
0
LINE
8
BLACK
6
CONTINUOUS
10
124.39
20
-68.3634
11
124.162
21
-68.4228
0
LINE
8
BLACK
6
CONTINUOUS
10
124.162
20
-68.4228
11
123.93
21
-68.4498
0
LINE
8
BLACK
6
CONTINUOUS
10
123.93
20
-68.4498
11
123.93
21
-68.4501
0
LINE
8
BLACK
6
CONTINUOUS
10
123.93
20
-68.4501
11
103.868
21
-70.1496
0
LINE
8
BLACK
6
CONTINUOUS
10
103.868
20
-70.1496
11
103.858
21
-70.1466
0
LINE
8
BLACK
6
CONTINUOUS
10
103.858
20
-70.1466
11
103.642
21
-70.1827
0
LINE
8
BLACK
6
CONTINUOUS
10
103.642
20
-70.1827
11
103.426
21
-70.2552
0
LINE
8
BLACK
6
CONTINUOUS
10
103.426
20
-70.2552
11
103.224
21
-70.3606
0
LINE
8
BLACK
6
CONTINUOUS
10
103.224
20
-70.3606
11
103.04
21
-70.4963
0
LINE
8
BLACK
6
CONTINUOUS
10
103.04
20
-70.4963
11
102.88
21
-70.6591
0
LINE
8
BLACK
6
CONTINUOUS
10
102.88
20
-70.6591
11
102.748
21
-70.8449
0
LINE
8
BLACK
6
CONTINUOUS
10
102.748
20
-70.8449
11
102.646
21
-71.0492
0
LINE
8
BLACK
6
CONTINUOUS
10
102.646
20
-71.0492
11
102.577
21
-71.2669
0
LINE
8
BLACK
6
CONTINUOUS
10
102.577
20
-71.2669
11
102.543
21
-71.4926
0
LINE
8
BLACK
6
CONTINUOUS
10
102.543
20
-71.4926
11
102.545
21
-71.7117
0
LINE
8
BLACK
6
CONTINUOUS
10
102.545
20
-71.7117
11
102.55
21
-71.7204
0
LINE
8
BLACK
6
CONTINUOUS
10
102.55
20
-71.7204
11
102.55
21
-71.7205
0
LINE
8
BLACK
6
CONTINUOUS
10
102.55
20
-71.7205
11
102.55
21
-71.7206
0
LINE
8
BLACK
6
CONTINUOUS
10
102.55
20
-71.7206
11
103.42
21
-82.1702
0
LINE
8
BLACK
6
CONTINUOUS
10
103.42
20
-82.1702
11
103.42
21
-82.1702
0
LINE
8
BLACK
6
CONTINUOUS
10
103.42
20
-82.1702
11
103.424
21
-82.3911
0
LINE
8
BLACK
6
CONTINUOUS
10
103.424
20
-82.3911
11
103.396
21
-82.6105
0
LINE
8
BLACK
6
CONTINUOUS
10
103.396
20
-82.6105
11
103.337
21
-82.8236
0
LINE
8
BLACK
6
CONTINUOUS
10
103.337
20
-82.8236
11
103.248
21
-83.0262
0
LINE
8
BLACK
6
CONTINUOUS
10
103.248
20
-83.0262
11
103.132
21
-83.2141
0
LINE
8
BLACK
6
CONTINUOUS
10
103.132
20
-83.2141
11
102.989
21
-83.3836
0
LINE
8
BLACK
6
CONTINUOUS
10
102.989
20
-83.3836
11
102.825
21
-83.531
0
LINE
8
BLACK
6
CONTINUOUS
10
102.825
20
-83.531
11
102.64
21
-83.6535
0
LINE
8
BLACK
6
CONTINUOUS
10
102.64
20
-83.6535
11
102.441
21
-83.7485
0
LINE
8
BLACK
6
CONTINUOUS
10
102.441
20
-83.7485
11
102.23
21
-83.8142
0
LINE
8
BLACK
6
CONTINUOUS
10
102.23
20
-83.8142
11
102.012
21
-83.8491
0
LINE
8
BLACK
6
CONTINUOUS
10
102.012
20
-83.8491
11
102.011
21
-83.8492
0
LINE
8
BLACK
6
CONTINUOUS
10
102.011
20
-83.8492
11
86.0229
21
-85.3248
0
LINE
8
BLACK
6
CONTINUOUS
10
86.0229
20
-85.3248
11
86.0228
21
-85.3247
0
LINE
8
BLACK
6
CONTINUOUS
10
86.0228
20
-85.3247
11
86.0227
21
-85.3248
0
LINE
8
BLACK
6
CONTINUOUS
10
86.0227
20
-85.3248
11
86.0134
21
-85.3218
0
LINE
8
BLACK
6
CONTINUOUS
10
86.0134
20
-85.3218
11
85.7972
21
-85.358
0
LINE
8
BLACK
6
CONTINUOUS
10
85.7972
20
-85.358
11
85.5808
21
-85.4305
0
LINE
8
BLACK
6
CONTINUOUS
10
85.5808
20
-85.4305
11
85.3783
21
-85.5358
0
LINE
8
BLACK
6
CONTINUOUS
10
85.3783
20
-85.5358
11
85.1949
21
-85.6716
0
LINE
8
BLACK
6
CONTINUOUS
10
85.1949
20
-85.6716
11
85.0349
21
-85.8344
0
LINE
8
BLACK
6
CONTINUOUS
10
85.0349
20
-85.8344
11
84.9024
21
-86.0202
0
LINE
8
BLACK
6
CONTINUOUS
10
84.9024
20
-86.0202
11
84.8005
21
-86.2244
0
LINE
8
BLACK
6
CONTINUOUS
10
84.8005
20
-86.2244
11
84.7319
21
-86.4421
0
LINE
8
BLACK
6
CONTINUOUS
10
84.7319
20
-86.4421
11
84.6981
21
-86.6678
0
LINE
8
BLACK
6
CONTINUOUS
10
84.6981
20
-86.6678
11
84.7
21
-86.8869
0
LINE
8
BLACK
6
CONTINUOUS
10
84.7
20
-86.8869
11
84.7046
21
-86.8956
0
LINE
8
BLACK
6
CONTINUOUS
10
84.7046
20
-86.8956
11
87.9248
21
-123.077
0
LINE
8
BLACK
6
CONTINUOUS
10
87.9248
20
-123.077
11
87.9248
21
-123.077
0
LINE
8
BLACK
6
CONTINUOUS
10
87.9248
20
-123.077
11
87.9248
21
-123.077
0
LINE
8
BLACK
6
CONTINUOUS
10
87.9248
20
-123.077
11
87.9218
21
-123.087
0
LINE
8
BLACK
6
CONTINUOUS
10
87.9218
20
-123.087
11
87.958
21
-123.303
0
LINE
8
BLACK
6
CONTINUOUS
10
87.958
20
-123.303
11
88.0304
21
-123.519
0
LINE
8
BLACK
6
CONTINUOUS
10
88.0304
20
-123.519
11
88.1358
21
-123.722
0
LINE
8
BLACK
6
CONTINUOUS
10
88.1358
20
-123.722
11
88.2715
21
-123.905
0
LINE
8
BLACK
6
CONTINUOUS
10
88.2715
20
-123.905
11
88.4343
21
-124.065
0
LINE
8
BLACK
6
CONTINUOUS
10
88.4343
20
-124.065
11
88.6201
21
-124.198
0
LINE
8
BLACK
6
CONTINUOUS
10
88.6201
20
-124.198
11
88.8244
21
-124.299
0
LINE
8
BLACK
6
CONTINUOUS
10
88.8244
20
-124.299
11
89.0421
21
-124.368
0
LINE
8
BLACK
6
CONTINUOUS
10
89.0421
20
-124.368
11
89.2678
21
-124.402
0
LINE
8
BLACK
6
CONTINUOUS
10
89.2678
20
-124.402
11
89.4869
21
-124.4
0
LINE
8
BLACK
6
CONTINUOUS
10
89.4869
20
-124.4
11
89.4955
21
-124.395
0
LINE
8
BLACK
6
CONTINUOUS
10
89.4955
20
-124.395
11
89.4956
21
-124.395
0
LINE
8
BLACK
6
CONTINUOUS
10
89.4956
20
-124.395
11
89.4956
21
-124.395
0
LINE
8
BLACK
6
CONTINUOUS
10
89.4956
20
-124.395
11
89.4956
21
-124.395
0
LINE
8
BLACK
6
CONTINUOUS
10
89.4956
20
-124.395
11
105.496
21
-122.95
0
LINE
8
BLACK
6
CONTINUOUS
10
105.496
20
-122.95
11
105.496
21
-122.95
0
LINE
8
BLACK
6
CONTINUOUS
10
105.496
20
-122.95
11
105.496
21
-122.95
0
LINE
8
BLACK
6
CONTINUOUS
10
105.496
20
-122.95
11
105.496
21
-122.95
0
LINE
8
BLACK
6
CONTINUOUS
10
105.496
20
-122.95
11
105.717
21
-122.947
0
LINE
8
BLACK
6
CONTINUOUS
10
105.717
20
-122.947
11
105.936
21
-122.975
0
LINE
8
BLACK
6
CONTINUOUS
10
105.936
20
-122.975
11
106.149
21
-123.034
0
LINE
8
BLACK
6
CONTINUOUS
10
106.149
20
-123.034
11
106.352
21
-123.122
0
LINE
8
BLACK
6
CONTINUOUS
10
106.352
20
-123.122
11
106.54
21
-123.239
0
LINE
8
BLACK
6
CONTINUOUS
10
106.54
20
-123.239
11
106.709
21
-123.381
0
LINE
8
BLACK
6
CONTINUOUS
10
106.709
20
-123.381
11
106.857
21
-123.546
0
LINE
8
BLACK
6
CONTINUOUS
10
106.857
20
-123.546
11
106.979
21
-123.73
0
LINE
8
BLACK
6
CONTINUOUS
10
106.979
20
-123.73
11
107.074
21
-123.93
0
LINE
8
BLACK
6
CONTINUOUS
10
107.074
20
-123.93
11
107.14
21
-124.141
0
LINE
8
BLACK
6
CONTINUOUS
10
107.14
20
-124.141
11
107.175
21
-124.359
0
LINE
8
BLACK
6
CONTINUOUS
10
107.175
20
-124.359
11
107.175
21
-124.359
0
LINE
8
BLACK
6
CONTINUOUS
10
107.175
20
-124.359
11
107.175
21
-124.36
0
LINE
8
BLACK
6
CONTINUOUS
10
107.175
20
-124.36
11
107.175
21
-124.36
0
LINE
8
BLACK
6
CONTINUOUS
10
107.175
20
-124.36
11
107.35
21
-126.796
0
LINE
8
BLACK
6
CONTINUOUS
10
107.35
20
-126.796
11
107.347
21
-126.804
0
LINE
8
BLACK
6
CONTINUOUS
10
107.347
20
-126.804
11
107.387
21
-127.015
0
LINE
8
BLACK
6
CONTINUOUS
10
107.387
20
-127.015
11
107.463
21
-127.226
0
LINE
8
BLACK
6
CONTINUOUS
10
107.463
20
-127.226
11
107.571
21
-127.422
0
LINE
8
BLACK
6
CONTINUOUS
10
107.571
20
-127.422
11
107.709
21
-127.598
0
LINE
8
BLACK
6
CONTINUOUS
10
107.709
20
-127.598
11
107.874
21
-127.751
0
LINE
8
BLACK
6
CONTINUOUS
10
107.874
20
-127.751
11
108.06
21
-127.875
0
LINE
8
BLACK
6
CONTINUOUS
10
108.06
20
-127.875
11
108.263
21
-127.969
0
LINE
8
BLACK
6
CONTINUOUS
10
108.263
20
-127.969
11
108.479
21
-128.029
0
LINE
8
BLACK
6
CONTINUOUS
10
108.479
20
-128.029
11
108.69
21
-128.053
0
LINE
8
BLACK
6
CONTINUOUS
10
108.69
20
-128.053
11
108.696
21
-128.05
0
LINE
8
BLACK
6
CONTINUOUS
10
108.696
20
-128.05
11
126.996
21
-126.45
0
LINE
8
BLACK
6
CONTINUOUS
10
126.996
20
-126.45
11
127.005
21
-126.453
0
LINE
8
BLACK
6
CONTINUOUS
10
127.005
20
-126.453
11
127.015
21
-126.452
0
LINE
8
BLACK
6
CONTINUOUS
10
127.015
20
-126.452
11
154.008
21
-134.95
0
LINE
8
BLACK
6
CONTINUOUS
10
154.008
20
-134.95
11
173
21
-134.95
0
LINE
8
BLACK
6
CONTINUOUS
10
173
20
-134.95
11
173.006
21
-134.953
0
LINE
8
BLACK
6
CONTINUOUS
10
173.006
20
-134.953
11
173.013
21
-134.952
0
LINE
8
BLACK
6
CONTINUOUS
10
173.013
20
-134.952
11
191.513
21
-139.952
0
LINE
8
BLACK
6
CONTINUOUS
10
191.513
20
-139.952
11
191.518
21
-139.956
0
LINE
8
BLACK
6
CONTINUOUS
10
191.518
20
-139.956
11
191.525
21
-139.957
0
LINE
8
BLACK
6
CONTINUOUS
10
191.525
20
-139.957
11
207.025
21
-148.957
0
LINE
8
BLACK
6
CONTINUOUS
10
207.025
20
-148.957
11
207.031
21
-148.965
0
LINE
8
BLACK
6
CONTINUOUS
10
207.031
20
-148.965
11
207.229
21
-149.059
0
LINE
8
BLACK
6
CONTINUOUS
10
207.229
20
-149.059
11
207.448
21
-149.124
0
LINE
8
BLACK
6
CONTINUOUS
10
207.448
20
-149.124
11
207.674
21
-149.154
0
LINE
8
BLACK
6
CONTINUOUS
10
207.674
20
-149.154
11
207.902
21
-149.148
0
LINE
8
BLACK
6
CONTINUOUS
10
207.902
20
-149.148
11
208.126
21
-149.106
0
LINE
8
BLACK
6
CONTINUOUS
10
208.126
20
-149.106
11
208.342
21
-149.03
0
LINE
8
BLACK
6
CONTINUOUS
10
208.342
20
-149.03
11
208.542
21
-148.921
0
LINE
8
BLACK
6
CONTINUOUS
10
208.542
20
-148.921
11
208.723
21
-148.782
0
LINE
8
BLACK
6
CONTINUOUS
10
208.723
20
-148.782
11
208.88
21
-148.616
0
LINE
8
BLACK
6
CONTINUOUS
10
208.88
20
-148.616
11
209.004
21
-148.436
0
LINE
8
BLACK
6
CONTINUOUS
10
209.004
20
-148.436
11
209.006
21
-148.426
0
LINE
8
BLACK
6
CONTINUOUS
10
209.006
20
-148.426
11
222.45
21
-124.987
0
LINE
8
BLACK
6
CONTINUOUS
10
222.45
20
-124.987
11
222.45
21
-64
0
LINE
8
BLACK
6
CONTINUOUS
10
222.45
20
-64
11
222.45
21
-64
0
LINE
8
BLACK
6
CONTINUOUS
10
222.45
20
-64
11
222.45
21
-64
0
LINE
8
BLACK
6
CONTINUOUS
10
222.45
20
-64
11
222.454
21
-63.9909
0
LINE
8
BLACK
6
CONTINUOUS
10
222.454
20
-63.9909
11
222.437
21
-63.7725
0
LINE
8
BLACK
6
CONTINUOUS
10
222.437
20
-63.7725
11
222.383
21
-63.5505
0
LINE
8
BLACK
6
CONTINUOUS
10
222.383
20
-63.5505
11
222.296
21
-63.3397
0
LINE
8
BLACK
6
CONTINUOUS
10
222.296
20
-63.3397
11
222.177
21
-63.1451
0
LINE
8
BLACK
6
CONTINUOUS
10
222.177
20
-63.1451
11
222.029
21
-62.9715
0
LINE
8
BLACK
6
CONTINUOUS
10
222.029
20
-62.9715
11
221.855
21
-62.8233
0
LINE
8
BLACK
6
CONTINUOUS
10
221.855
20
-62.8233
11
221.66
21
-62.704
0
LINE
8
BLACK
6
CONTINUOUS
10
221.66
20
-62.704
11
221.449
21
-62.6167
0
LINE
8
BLACK
6
CONTINUOUS
10
221.449
20
-62.6167
11
221.228
21
-62.5634
0
LINE
8
BLACK
6
CONTINUOUS
10
221.228
20
-62.5634
11
221.009
21
-62.5462
0
LINE
8
BLACK
6
CONTINUOUS
10
221.009
20
-62.5462
11
221
21
-62.55
0
LINE
8
BLACK
6
CONTINUOUS
10
221
20
-62.55
11
221
21
-62.55
0
LINE
8
BLACK
6
CONTINUOUS
10
221
20
-62.55
11
221
21
-62.55
0
LINE
8
BLACK
6
CONTINUOUS
10
221
20
-62.55
11
204
21
-62.55
0
LINE
8
BLACK
6
CONTINUOUS
10
204
20
-62.55
11
203.782
21
-62.5348
0
LINE
8
BLACK
6
CONTINUOUS
10
203.782
20
-62.5348
11
203.568
21
-62.4896
0
LINE
8
BLACK
6
CONTINUOUS
10
203.568
20
-62.4896
11
203.362
21
-62.4151
0
LINE
8
BLACK
6
CONTINUOUS
10
203.362
20
-62.4151
11
203.169
21
-62.3129
0
LINE
8
BLACK
6
CONTINUOUS
10
203.169
20
-62.3129
11
202.992
21
-62.1849
0
LINE
8
BLACK
6
CONTINUOUS
10
202.992
20
-62.1849
11
202.834
21
-62.0336
0
LINE
8
BLACK
6
CONTINUOUS
10
202.834
20
-62.0336
11
202.698
21
-61.8619
0
LINE
8
BLACK
6
CONTINUOUS
10
202.698
20
-61.8619
11
202.588
21
-61.6731
0
LINE
8
BLACK
6
CONTINUOUS
10
202.588
20
-61.6731
11
202.505
21
-61.4708
0
LINE
8
BLACK
6
CONTINUOUS
10
202.505
20
-61.4708
11
202.451
21
-61.259
0
LINE
8
BLACK
6
CONTINUOUS
10
202.451
20
-61.259
11
202.453
21
-61.2497
0
LINE
8
BLACK
6
CONTINUOUS
10
202.453
20
-61.2497
11
202.397
21
-61.0377
0
LINE
8
BLACK
6
CONTINUOUS
10
202.397
20
-61.0377
11
202.305
21
-60.8287
0
LINE
8
BLACK
6
CONTINUOUS
10
202.305
20
-60.8287
11
202.183
21
-60.6362
0
LINE
8
BLACK
6
CONTINUOUS
10
202.183
20
-60.6362
11
202.032
21
-60.465
0
LINE
8
BLACK
6
CONTINUOUS
10
202.032
20
-60.465
11
201.857
21
-60.3189
0
LINE
8
BLACK
6
CONTINUOUS
10
201.857
20
-60.3189
11
201.661
21
-60.2015
0
LINE
8
BLACK
6
CONTINUOUS
10
201.661
20
-60.2015
11
201.45
21
-60.1156
0
LINE
8
BLACK
6
CONTINUOUS
10
201.45
20
-60.1156
11
201.227
21
-60.0633
0
LINE
8
BLACK
6
CONTINUOUS
10
201.227
20
-60.0633
11
201.009
21
-60.0463
0
LINE
8
BLACK
6
CONTINUOUS
10
201.009
20
-60.0463
11
201
21
-60.05
0
LINE
8
BLACK
6
CONTINUOUS
10
201
20
-60.05
11
185
21
-60.05
0
LINE
8
BLACK
6
CONTINUOUS
10
185
20
-60.05
11
184.782
21
-60.0357
0
LINE
8
BLACK
6
CONTINUOUS
10
184.782
20
-60.0357
11
184.567
21
-59.9931
0
LINE
8
BLACK
6
CONTINUOUS
10
184.567
20
-59.9931
11
184.36
21
-59.9229
0
LINE
8
BLACK
6
CONTINUOUS
10
184.36
20
-59.9229
11
184.164
21
-59.8264
0
LINE
8
BLACK
6
CONTINUOUS
10
184.164
20
-59.8264
11
183.982
21
-59.7051
0
LINE
8
BLACK
6
CONTINUOUS
10
183.982
20
-59.7051
11
183.817
21
-59.5611
0
LINE
8
BLACK
6
CONTINUOUS
10
183.817
20
-59.5611
11
183.673
21
-59.3968
0
LINE
8
BLACK
6
CONTINUOUS
10
183.673
20
-59.3968
11
183.551
21
-59.2152
0
LINE
8
BLACK
6
CONTINUOUS
10
183.551
20
-59.2152
11
183.454
21
-59.0192
0
LINE
8
BLACK
6
CONTINUOUS
10
183.454
20
-59.0192
11
183.454
21
-59.0099
0
LINE
8
BLACK
6
CONTINUOUS
10
183.454
20
-59.0099
11
183.353
21
-58.8106
0
LINE
8
BLACK
6
CONTINUOUS
10
183.353
20
-58.8106
11
183.219
21
-58.6212
0
LINE
8
BLACK
6
CONTINUOUS
10
183.219
20
-58.6212
11
183.059
21
-58.4535
0
LINE
8
BLACK
6
CONTINUOUS
10
183.059
20
-58.4535
11
182.876
21
-58.311
0
LINE
8
BLACK
6
CONTINUOUS
10
182.876
20
-58.311
11
182.674
21
-58.1969
0
LINE
8
BLACK
6
CONTINUOUS
10
182.674
20
-58.1969
11
182.458
21
-58.1135
0
LINE
8
BLACK
6
CONTINUOUS
10
182.458
20
-58.1135
11
182.231
21
-58.0628
0
LINE
8
BLACK
6
CONTINUOUS
10
182.231
20
-58.0628
11
182.009
21
-58.0464
0
LINE
8
BLACK
6
CONTINUOUS
10
182.009
20
-58.0464
11
182
21
-58.05
0
LINE
8
BLACK
6
CONTINUOUS
10
182
20
-58.05
11
166
21
-58.05
0
LINE
8
BLACK
6
CONTINUOUS
10
166
20
-58.05
11
165.779
21
-58.0342
0
LINE
8
BLACK
6
CONTINUOUS
10
165.779
20
-58.0342
11
165.563
21
-57.9872
0
LINE
8
BLACK
6
CONTINUOUS
10
165.563
20
-57.9872
11
165.356
21
-57.9099
0
LINE
8
BLACK
6
CONTINUOUS
10
165.356
20
-57.9099
11
165.162
21
-57.8039
0
LINE
8
BLACK
6
CONTINUOUS
10
165.162
20
-57.8039
11
164.985
21
-57.6714
0
LINE
8
BLACK
6
CONTINUOUS
10
164.985
20
-57.6714
11
164.829
21
-57.515
0
LINE
8
BLACK
6
CONTINUOUS
10
164.829
20
-57.515
11
164.696
21
-57.338
0
LINE
8
BLACK
6
CONTINUOUS
10
164.696
20
-57.338
11
164.59
21
-57.1439
0
LINE
8
BLACK
6
CONTINUOUS
10
164.59
20
-57.1439
11
164.513
21
-56.9367
0
LINE
8
BLACK
6
CONTINUOUS
10
164.513
20
-56.9367
11
164.466
21
-56.7206
0
LINE
8
BLACK
6
CONTINUOUS
10
164.466
20
-56.7206
11
164.45
21
-56.5
0
LINE
8
BLACK
6
CONTINUOUS
10
164.45
20
-56.5
11
164.45
21
-55
0
LINE
8
BLACK
6
CONTINUOUS
10
164.45
20
-55
11
164.454
21
-54.9909
0
LINE
8
BLACK
6
CONTINUOUS
10
164.454
20
-54.9909
11
164.437
21
-54.7725
0
LINE
8
BLACK
6
CONTINUOUS
10
164.437
20
-54.7725
11
164.383
21
-54.5505
0
LINE
8
BLACK
6
CONTINUOUS
10
164.383
20
-54.5505
11
164.296
21
-54.3397
0
LINE
8
BLACK
6
CONTINUOUS
10
164.296
20
-54.3397
11
164.177
21
-54.1451
0
LINE
8
BLACK
6
CONTINUOUS
10
164.177
20
-54.1451
11
164.028
21
-53.9715
0
LINE
8
BLACK
6
CONTINUOUS
10
164.028
20
-53.9715
11
163.855
21
-53.8233
0
LINE
8
BLACK
6
CONTINUOUS
10
163.855
20
-53.8233
11
163.66
21
-53.704
0
LINE
8
BLACK
6
CONTINUOUS
10
163.66
20
-53.704
11
163.449
21
-53.6167
0
LINE
8
BLACK
6
CONTINUOUS
10
163.449
20
-53.6167
11
163.228
21
-53.5634
0
LINE
8
BLACK
6
CONTINUOUS
10
163.228
20
-53.5634
11
163.009
21
-53.5462
0
LINE
8
BLACK
6
CONTINUOUS
10
163.009
20
-53.5462
11
163
21
-53.55
0
LINE
8
BLACK
6
CONTINUOUS
10
163
20
-53.55
11
146
21
-53.55
0
LINE
8
BLACK
6
CONTINUOUS
10
146
20
-53.55
11
145.991
21
-53.5462
  0
ENDSEC
  0
EOF
