  0
SECTION
  2
HEADER
  9
$ANGBASE
  50
0.0
  9
$ANGDIR
  70
1
  9
$MEASUREMENT
  70
1
  0
ENDSEC
  0
SECTION
  2
TABLES
  0
TABLE
  2
LTYPE
  70
4
  0
LTYPE
  5
40F
  2
CONTINUOUS
  70
0
  3
Solid line
  72
65
  73
0
  40
0.0
  0
LTYPE
  5
410
  2
DASHDOT
 70
0
  3
Dash Dot ____ _ ____ _
 72
65
 73
4
 40
2.0
 49
1.25
 49
-0.25
 49
0.25
 49
-0.25
  0
LTYPE
  5
411
  2
DASHED
 70
0
  3
Dashed __ __ __ __ __
 72
65
 73
2
 40
0.75
 49
0.5
 49
-0.25
  0
LTYPE
  5
43B
  2
DOTTED
 70
0
  3
Dotted .  .  .  .
 72
65
 73
2
 40
0.2
 49
0.0
 49
-0.2
  0
ENDTAB
  0
TABLE
  2
STYLE
  70
4
  0
STYLE
  2
KICAD
  70
0
  40
0
  41
1
  42
1
  50
0
  71
0
  3
isocp.shx
  0
STYLE
  2
KICADB
  70
0
  40
0
  41
1
  42
1
  50
0
  71
0
  3
isocp.shx
  0
STYLE
  2
KICADI
  70
0
  40
0
  41
1
  42
1
  50
15
  71
0
  3
isocp.shx
  0
STYLE
  2
KICADBI
  70
0
  40
0
  41
1
  42
1
  50
15
  71
0
  3
isocp.shx
  0
ENDTAB
  0
TABLE
  2
LAYER
  70
1
  0
LAYER
  2
BLACK
  70
0
  62
7
  6
CONTINUOUS
  0
ENDTAB
  0
ENDSEC
  0
SECTION
  2
ENTITIES
0
LINE
8
BLACK
6
CONTINUOUS
10
175.87
20
-122.356
11
176.077
21
-122.397
0
LINE
8
BLACK
6
CONTINUOUS
10
176.077
20
-122.397
11
176.272
21
-122.475
0
LINE
8
BLACK
6
CONTINUOUS
10
176.272
20
-122.475
11
176.45
21
-122.588
0
LINE
8
BLACK
6
CONTINUOUS
10
176.45
20
-122.588
11
176.605
21
-122.73
0
LINE
8
BLACK
6
CONTINUOUS
10
176.605
20
-122.73
11
176.731
21
-122.899
0
LINE
8
BLACK
6
CONTINUOUS
10
176.731
20
-122.899
11
176.824
21
-123.088
0
LINE
8
BLACK
6
CONTINUOUS
10
176.824
20
-123.088
11
176.881
21
-123.29
0
LINE
8
BLACK
6
CONTINUOUS
10
176.881
20
-123.29
11
176.9
21
-123.5
0
LINE
8
BLACK
6
CONTINUOUS
10
176.9
20
-123.5
11
176.898
21
-123.56
0
LINE
8
BLACK
6
CONTINUOUS
10
176.898
20
-123.56
11
176.868
21
-123.768
0
LINE
8
BLACK
6
CONTINUOUS
10
176.868
20
-123.768
11
176.801
21
-123.968
0
LINE
8
BLACK
6
CONTINUOUS
10
176.801
20
-123.968
11
176.698
21
-124.151
0
LINE
8
BLACK
6
CONTINUOUS
10
176.698
20
-124.151
11
176.563
21
-124.313
0
LINE
8
BLACK
6
CONTINUOUS
10
176.563
20
-124.313
11
176.401
21
-124.448
0
LINE
8
BLACK
6
CONTINUOUS
10
176.401
20
-124.448
11
176.218
21
-124.551
0
LINE
8
BLACK
6
CONTINUOUS
10
176.218
20
-124.551
11
176.018
21
-124.618
0
LINE
8
BLACK
6
CONTINUOUS
10
176.018
20
-124.618
11
175.81
21
-124.648
0
LINE
8
BLACK
6
CONTINUOUS
10
175.81
20
-124.648
11
175.6
21
-124.64
0
LINE
8
BLACK
6
CONTINUOUS
10
175.6
20
-124.64
11
175.395
21
-124.594
0
LINE
8
BLACK
6
CONTINUOUS
10
175.395
20
-124.594
11
175.201
21
-124.511
0
LINE
8
BLACK
6
CONTINUOUS
10
175.201
20
-124.511
11
175.026
21
-124.394
0
LINE
8
BLACK
6
CONTINUOUS
10
175.026
20
-124.394
11
174.876
21
-124.247
0
LINE
8
BLACK
6
CONTINUOUS
10
174.876
20
-124.247
11
174.754
21
-124.075
0
LINE
8
BLACK
6
CONTINUOUS
10
174.754
20
-124.075
11
174.666
21
-123.884
0
LINE
8
BLACK
6
CONTINUOUS
10
174.666
20
-123.884
11
174.614
21
-123.68
0
LINE
8
BLACK
6
CONTINUOUS
10
174.614
20
-123.68
11
174.6
21
-123.47
0
LINE
8
BLACK
6
CONTINUOUS
10
174.6
20
-123.47
11
174.625
21
-123.261
0
LINE
8
BLACK
6
CONTINUOUS
10
174.625
20
-123.261
11
174.688
21
-123.06
0
LINE
8
BLACK
6
CONTINUOUS
10
174.688
20
-123.06
11
174.786
21
-122.874
0
LINE
8
BLACK
6
CONTINUOUS
10
174.786
20
-122.874
11
174.916
21
-122.708
0
LINE
8
BLACK
6
CONTINUOUS
10
174.916
20
-122.708
11
175.074
21
-122.57
0
LINE
8
BLACK
6
CONTINUOUS
10
175.074
20
-122.57
11
175.255
21
-122.462
0
LINE
8
BLACK
6
CONTINUOUS
10
175.255
20
-122.462
11
175.452
21
-122.389
0
LINE
8
BLACK
6
CONTINUOUS
10
175.452
20
-122.389
11
175.66
21
-122.354
0
LINE
8
BLACK
6
CONTINUOUS
10
175.66
20
-122.354
11
175.87
21
-122.356
0
LINE
8
BLACK
6
CONTINUOUS
10
124.37
20
-108.356
11
124.577
21
-108.397
0
LINE
8
BLACK
6
CONTINUOUS
10
124.577
20
-108.397
11
124.772
21
-108.475
0
LINE
8
BLACK
6
CONTINUOUS
10
124.772
20
-108.475
11
124.95
21
-108.588
0
LINE
8
BLACK
6
CONTINUOUS
10
124.95
20
-108.588
11
125.105
21
-108.73
0
LINE
8
BLACK
6
CONTINUOUS
10
125.105
20
-108.73
11
125.231
21
-108.899
0
LINE
8
BLACK
6
CONTINUOUS
10
125.231
20
-108.899
11
125.324
21
-109.088
0
LINE
8
BLACK
6
CONTINUOUS
10
125.324
20
-109.088
11
125.381
21
-109.29
0
LINE
8
BLACK
6
CONTINUOUS
10
125.381
20
-109.29
11
125.4
21
-109.5
0
LINE
8
BLACK
6
CONTINUOUS
10
125.4
20
-109.5
11
125.398
21
-109.56
0
LINE
8
BLACK
6
CONTINUOUS
10
125.398
20
-109.56
11
125.368
21
-109.768
0
LINE
8
BLACK
6
CONTINUOUS
10
125.368
20
-109.768
11
125.301
21
-109.968
0
LINE
8
BLACK
6
CONTINUOUS
10
125.301
20
-109.968
11
125.198
21
-110.151
0
LINE
8
BLACK
6
CONTINUOUS
10
125.198
20
-110.151
11
125.063
21
-110.313
0
LINE
8
BLACK
6
CONTINUOUS
10
125.063
20
-110.313
11
124.901
21
-110.448
0
LINE
8
BLACK
6
CONTINUOUS
10
124.901
20
-110.448
11
124.718
21
-110.551
0
LINE
8
BLACK
6
CONTINUOUS
10
124.718
20
-110.551
11
124.518
21
-110.618
0
LINE
8
BLACK
6
CONTINUOUS
10
124.518
20
-110.618
11
124.31
21
-110.648
0
LINE
8
BLACK
6
CONTINUOUS
10
124.31
20
-110.648
11
124.1
21
-110.64
0
LINE
8
BLACK
6
CONTINUOUS
10
124.1
20
-110.64
11
123.895
21
-110.594
0
LINE
8
BLACK
6
CONTINUOUS
10
123.895
20
-110.594
11
123.701
21
-110.511
0
LINE
8
BLACK
6
CONTINUOUS
10
123.701
20
-110.511
11
123.526
21
-110.394
0
LINE
8
BLACK
6
CONTINUOUS
10
123.526
20
-110.394
11
123.376
21
-110.247
0
LINE
8
BLACK
6
CONTINUOUS
10
123.376
20
-110.247
11
123.254
21
-110.075
0
LINE
8
BLACK
6
CONTINUOUS
10
123.254
20
-110.075
11
123.166
21
-109.884
0
LINE
8
BLACK
6
CONTINUOUS
10
123.166
20
-109.884
11
123.114
21
-109.68
0
LINE
8
BLACK
6
CONTINUOUS
10
123.114
20
-109.68
11
123.1
21
-109.47
0
LINE
8
BLACK
6
CONTINUOUS
10
123.1
20
-109.47
11
123.125
21
-109.261
0
LINE
8
BLACK
6
CONTINUOUS
10
123.125
20
-109.261
11
123.188
21
-109.06
0
LINE
8
BLACK
6
CONTINUOUS
10
123.188
20
-109.06
11
123.286
21
-108.874
0
LINE
8
BLACK
6
CONTINUOUS
10
123.286
20
-108.874
11
123.416
21
-108.708
0
LINE
8
BLACK
6
CONTINUOUS
10
123.416
20
-108.708
11
123.574
21
-108.57
0
LINE
8
BLACK
6
CONTINUOUS
10
123.574
20
-108.57
11
123.755
21
-108.462
0
LINE
8
BLACK
6
CONTINUOUS
10
123.755
20
-108.462
11
123.952
21
-108.389
0
LINE
8
BLACK
6
CONTINUOUS
10
123.952
20
-108.389
11
124.16
21
-108.354
0
LINE
8
BLACK
6
CONTINUOUS
10
124.16
20
-108.354
11
124.37
21
-108.356
0
LINE
8
BLACK
6
CONTINUOUS
10
84.8702
20
-92.8563
11
85.0766
21
-92.8974
0
LINE
8
BLACK
6
CONTINUOUS
10
85.0766
20
-92.8974
11
85.2721
21
-92.9753
0
LINE
8
BLACK
6
CONTINUOUS
10
85.2721
20
-92.9753
11
85.4501
21
-93.0876
0
LINE
8
BLACK
6
CONTINUOUS
10
85.4501
20
-93.0876
11
85.6046
21
-93.2305
0
LINE
8
BLACK
6
CONTINUOUS
10
85.6046
20
-93.2305
11
85.7305
21
-93.3991
0
LINE
8
BLACK
6
CONTINUOUS
10
85.7305
20
-93.3991
11
85.8236
21
-93.5879
0
LINE
8
BLACK
6
CONTINUOUS
10
85.8236
20
-93.5879
11
85.8807
21
-93.7904
0
LINE
8
BLACK
6
CONTINUOUS
10
85.8807
20
-93.7904
11
85.9
21
-94
0
LINE
8
BLACK
6
CONTINUOUS
10
85.9
20
-94
11
85.8984
21
-94.0602
0
LINE
8
BLACK
6
CONTINUOUS
10
85.8984
20
-94.0602
11
85.8682
21
-94.2685
0
LINE
8
BLACK
6
CONTINUOUS
10
85.8682
20
-94.2685
11
85.8006
21
-94.4677
0
LINE
8
BLACK
6
CONTINUOUS
10
85.8006
20
-94.4677
11
85.6977
21
-94.6514
0
LINE
8
BLACK
6
CONTINUOUS
10
85.6977
20
-94.6514
11
85.5632
21
-94.8132
0
LINE
8
BLACK
6
CONTINUOUS
10
85.5632
20
-94.8132
11
85.4014
21
-94.9477
0
LINE
8
BLACK
6
CONTINUOUS
10
85.4014
20
-94.9477
11
85.2177
21
-95.0506
0
LINE
8
BLACK
6
CONTINUOUS
10
85.2177
20
-95.0506
11
85.0185
21
-95.1182
0
LINE
8
BLACK
6
CONTINUOUS
10
85.0185
20
-95.1182
11
84.8102
21
-95.1484
0
LINE
8
BLACK
6
CONTINUOUS
10
84.8102
20
-95.1484
11
84.5999
21
-95.1402
0
LINE
8
BLACK
6
CONTINUOUS
10
84.5999
20
-95.1402
11
84.3946
21
-95.0937
0
LINE
8
BLACK
6
CONTINUOUS
10
84.3946
20
-95.0937
11
84.2013
21
-95.0106
0
LINE
8
BLACK
6
CONTINUOUS
10
84.2013
20
-95.0106
11
84.0263
21
-94.8937
0
LINE
8
BLACK
6
CONTINUOUS
10
84.0263
20
-94.8937
11
83.8755
21
-94.7469
0
LINE
8
BLACK
6
CONTINUOUS
10
83.8755
20
-94.7469
11
83.7541
21
-94.575
0
LINE
8
BLACK
6
CONTINUOUS
10
83.7541
20
-94.575
11
83.666
21
-94.3839
0
LINE
8
BLACK
6
CONTINUOUS
10
83.666
20
-94.3839
11
83.6142
21
-94.1799
0
LINE
8
BLACK
6
CONTINUOUS
10
83.6142
20
-94.1799
11
83.6004
21
-93.9699
0
LINE
8
BLACK
6
CONTINUOUS
10
83.6004
20
-93.9699
11
83.6251
21
-93.7609
0
LINE
8
BLACK
6
CONTINUOUS
10
83.6251
20
-93.7609
11
83.6875
21
-93.5599
0
LINE
8
BLACK
6
CONTINUOUS
10
83.6875
20
-93.5599
11
83.7855
21
-93.3737
0
LINE
8
BLACK
6
CONTINUOUS
10
83.7855
20
-93.3737
11
83.9158
21
-93.2084
0
LINE
8
BLACK
6
CONTINUOUS
10
83.9158
20
-93.2084
11
84.074
21
-93.0696
0
LINE
8
BLACK
6
CONTINUOUS
10
84.074
20
-93.0696
11
84.2549
21
-92.962
0
LINE
8
BLACK
6
CONTINUOUS
10
84.2549
20
-92.962
11
84.4524
21
-92.8892
0
LINE
8
BLACK
6
CONTINUOUS
10
84.4524
20
-92.8892
11
84.6598
21
-92.8535
0
LINE
8
BLACK
6
CONTINUOUS
10
84.6598
20
-92.8535
11
84.8702
21
-92.8563
0
LINE
8
BLACK
6
CONTINUOUS
10
162.37
20
-76.3563
11
162.577
21
-76.3974
0
LINE
8
BLACK
6
CONTINUOUS
10
162.577
20
-76.3974
11
162.772
21
-76.4753
0
LINE
8
BLACK
6
CONTINUOUS
10
162.772
20
-76.4753
11
162.95
21
-76.5876
0
LINE
8
BLACK
6
CONTINUOUS
10
162.95
20
-76.5876
11
163.105
21
-76.7305
0
LINE
8
BLACK
6
CONTINUOUS
10
163.105
20
-76.7305
11
163.231
21
-76.8991
0
LINE
8
BLACK
6
CONTINUOUS
10
163.231
20
-76.8991
11
163.324
21
-77.0879
0
LINE
8
BLACK
6
CONTINUOUS
10
163.324
20
-77.0879
11
163.381
21
-77.2904
0
LINE
8
BLACK
6
CONTINUOUS
10
163.381
20
-77.2904
11
163.4
21
-77.5
0
LINE
8
BLACK
6
CONTINUOUS
10
163.4
20
-77.5
11
163.398
21
-77.5602
0
LINE
8
BLACK
6
CONTINUOUS
10
163.398
20
-77.5602
11
163.368
21
-77.7685
0
LINE
8
BLACK
6
CONTINUOUS
10
163.368
20
-77.7685
11
163.301
21
-77.9677
0
LINE
8
BLACK
6
CONTINUOUS
10
163.301
20
-77.9677
11
163.198
21
-78.1514
0
LINE
8
BLACK
6
CONTINUOUS
10
163.198
20
-78.1514
11
163.063
21
-78.3132
0
LINE
8
BLACK
6
CONTINUOUS
10
163.063
20
-78.3132
11
162.901
21
-78.4477
0
LINE
8
BLACK
6
CONTINUOUS
10
162.901
20
-78.4477
11
162.718
21
-78.5506
0
LINE
8
BLACK
6
CONTINUOUS
10
162.718
20
-78.5506
11
162.518
21
-78.6182
0
LINE
8
BLACK
6
CONTINUOUS
10
162.518
20
-78.6182
11
162.31
21
-78.6484
0
LINE
8
BLACK
6
CONTINUOUS
10
162.31
20
-78.6484
11
162.1
21
-78.6402
0
LINE
8
BLACK
6
CONTINUOUS
10
162.1
20
-78.6402
11
161.895
21
-78.5937
0
LINE
8
BLACK
6
CONTINUOUS
10
161.895
20
-78.5937
11
161.701
21
-78.5106
0
LINE
8
BLACK
6
CONTINUOUS
10
161.701
20
-78.5106
11
161.526
21
-78.3937
0
LINE
8
BLACK
6
CONTINUOUS
10
161.526
20
-78.3937
11
161.376
21
-78.2469
0
LINE
8
BLACK
6
CONTINUOUS
10
161.376
20
-78.2469
11
161.254
21
-78.075
0
LINE
8
BLACK
6
CONTINUOUS
10
161.254
20
-78.075
11
161.166
21
-77.8839
0
LINE
8
BLACK
6
CONTINUOUS
10
161.166
20
-77.8839
11
161.114
21
-77.6799
0
LINE
8
BLACK
6
CONTINUOUS
10
161.114
20
-77.6799
11
161.1
21
-77.4699
0
LINE
8
BLACK
6
CONTINUOUS
10
161.1
20
-77.4699
11
161.125
21
-77.2609
0
LINE
8
BLACK
6
CONTINUOUS
10
161.125
20
-77.2609
11
161.188
21
-77.0599
0
LINE
8
BLACK
6
CONTINUOUS
10
161.188
20
-77.0599
11
161.286
21
-76.8737
0
LINE
8
BLACK
6
CONTINUOUS
10
161.286
20
-76.8737
11
161.416
21
-76.7084
0
LINE
8
BLACK
6
CONTINUOUS
10
161.416
20
-76.7084
11
161.574
21
-76.5696
0
LINE
8
BLACK
6
CONTINUOUS
10
161.574
20
-76.5696
11
161.755
21
-76.462
0
LINE
8
BLACK
6
CONTINUOUS
10
161.755
20
-76.462
11
161.952
21
-76.3892
0
LINE
8
BLACK
6
CONTINUOUS
10
161.952
20
-76.3892
11
162.16
21
-76.3535
0
LINE
8
BLACK
6
CONTINUOUS
10
162.16
20
-76.3535
11
162.37
21
-76.3563
0
LINE
8
BLACK
6
CONTINUOUS
10
104.87
20
-73.8563
11
105.077
21
-73.8974
0
LINE
8
BLACK
6
CONTINUOUS
10
105.077
20
-73.8974
11
105.272
21
-73.9753
0
LINE
8
BLACK
6
CONTINUOUS
10
105.272
20
-73.9753
11
105.45
21
-74.0876
0
LINE
8
BLACK
6
CONTINUOUS
10
105.45
20
-74.0876
11
105.605
21
-74.2305
0
LINE
8
BLACK
6
CONTINUOUS
10
105.605
20
-74.2305
11
105.731
21
-74.3991
0
LINE
8
BLACK
6
CONTINUOUS
10
105.731
20
-74.3991
11
105.824
21
-74.5879
0
LINE
8
BLACK
6
CONTINUOUS
10
105.824
20
-74.5879
11
105.881
21
-74.7904
0
LINE
8
BLACK
6
CONTINUOUS
10
105.881
20
-74.7904
11
105.9
21
-75
0
LINE
8
BLACK
6
CONTINUOUS
10
105.9
20
-75
11
105.898
21
-75.0602
0
LINE
8
BLACK
6
CONTINUOUS
10
105.898
20
-75.0602
11
105.868
21
-75.2685
0
LINE
8
BLACK
6
CONTINUOUS
10
105.868
20
-75.2685
11
105.801
21
-75.4677
0
LINE
8
BLACK
6
CONTINUOUS
10
105.801
20
-75.4677
11
105.698
21
-75.6514
0
LINE
8
BLACK
6
CONTINUOUS
10
105.698
20
-75.6514
11
105.563
21
-75.8132
0
LINE
8
BLACK
6
CONTINUOUS
10
105.563
20
-75.8132
11
105.401
21
-75.9477
0
LINE
8
BLACK
6
CONTINUOUS
10
105.401
20
-75.9477
11
105.218
21
-76.0506
0
LINE
8
BLACK
6
CONTINUOUS
10
105.218
20
-76.0506
11
105.018
21
-76.1182
0
LINE
8
BLACK
6
CONTINUOUS
10
105.018
20
-76.1182
11
104.81
21
-76.1484
0
LINE
8
BLACK
6
CONTINUOUS
10
104.81
20
-76.1484
11
104.6
21
-76.1402
0
LINE
8
BLACK
6
CONTINUOUS
10
104.6
20
-76.1402
11
104.395
21
-76.0937
0
LINE
8
BLACK
6
CONTINUOUS
10
104.395
20
-76.0937
11
104.201
21
-76.0106
0
LINE
8
BLACK
6
CONTINUOUS
10
104.201
20
-76.0106
11
104.026
21
-75.8937
0
LINE
8
BLACK
6
CONTINUOUS
10
104.026
20
-75.8937
11
103.876
21
-75.7469
0
LINE
8
BLACK
6
CONTINUOUS
10
103.876
20
-75.7469
11
103.754
21
-75.575
0
LINE
8
BLACK
6
CONTINUOUS
10
103.754
20
-75.575
11
103.666
21
-75.3839
0
LINE
8
BLACK
6
CONTINUOUS
10
103.666
20
-75.3839
11
103.614
21
-75.1799
0
LINE
8
BLACK
6
CONTINUOUS
10
103.614
20
-75.1799
11
103.6
21
-74.9699
0
LINE
8
BLACK
6
CONTINUOUS
10
103.6
20
-74.9699
11
103.625
21
-74.7609
0
LINE
8
BLACK
6
CONTINUOUS
10
103.625
20
-74.7609
11
103.688
21
-74.5599
0
LINE
8
BLACK
6
CONTINUOUS
10
103.688
20
-74.5599
11
103.786
21
-74.3737
0
LINE
8
BLACK
6
CONTINUOUS
10
103.786
20
-74.3737
11
103.916
21
-74.2084
0
LINE
8
BLACK
6
CONTINUOUS
10
103.916
20
-74.2084
11
104.074
21
-74.0696
0
LINE
8
BLACK
6
CONTINUOUS
10
104.074
20
-74.0696
11
104.255
21
-73.962
0
LINE
8
BLACK
6
CONTINUOUS
10
104.255
20
-73.962
11
104.452
21
-73.8892
0
LINE
8
BLACK
6
CONTINUOUS
10
104.452
20
-73.8892
11
104.66
21
-73.8535
0
LINE
8
BLACK
6
CONTINUOUS
10
104.66
20
-73.8535
11
104.87
21
-73.8563
0
LINE
8
BLACK
6
CONTINUOUS
10
199.687
20
-55.5128
11
199.894
21
-55.5901
0
LINE
8
BLACK
6
CONTINUOUS
10
199.894
20
-55.5901
11
200.088
21
-55.6961
0
LINE
8
BLACK
6
CONTINUOUS
10
200.088
20
-55.6961
11
200.265
21
-55.8286
0
LINE
8
BLACK
6
CONTINUOUS
10
200.265
20
-55.8286
11
200.421
21
-55.985
0
LINE
8
BLACK
6
CONTINUOUS
10
200.421
20
-55.985
11
200.554
21
-56.162
0
LINE
8
BLACK
6
CONTINUOUS
10
200.554
20
-56.162
11
200.66
21
-56.3561
0
LINE
8
BLACK
6
CONTINUOUS
10
200.66
20
-56.3561
11
200.737
21
-56.5633
0
LINE
8
BLACK
6
CONTINUOUS
10
200.737
20
-56.5633
11
200.784
21
-56.7794
0
LINE
8
BLACK
6
CONTINUOUS
10
200.784
20
-56.7794
11
200.8
21
-57
0
LINE
8
BLACK
6
CONTINUOUS
10
200.8
20
-57
11
200.8
21
-123
0
LINE
8
BLACK
6
CONTINUOUS
10
200.8
20
-123
11
200.795
21
-123.012
0
LINE
8
BLACK
6
CONTINUOUS
10
200.795
20
-123.012
11
200.793
21
-123.025
0
LINE
8
BLACK
6
CONTINUOUS
10
200.793
20
-123.025
11
187.342
21
-146.476
0
LINE
8
BLACK
6
CONTINUOUS
10
187.342
20
-146.476
11
187.342
21
-146.476
0
LINE
8
BLACK
6
CONTINUOUS
10
187.342
20
-146.476
11
187.342
21
-146.476
0
LINE
8
BLACK
6
CONTINUOUS
10
187.342
20
-146.476
11
187.342
21
-146.476
0
LINE
8
BLACK
6
CONTINUOUS
10
187.342
20
-146.476
11
187.218
21
-146.659
0
LINE
8
BLACK
6
CONTINUOUS
10
187.218
20
-146.659
11
187.07
21
-146.823
0
LINE
8
BLACK
6
CONTINUOUS
10
187.07
20
-146.823
11
186.899
21
-146.964
0
LINE
8
BLACK
6
CONTINUOUS
10
186.899
20
-146.964
11
186.71
21
-147.079
0
LINE
8
BLACK
6
CONTINUOUS
10
186.71
20
-147.079
11
186.507
21
-147.166
0
LINE
8
BLACK
6
CONTINUOUS
10
186.507
20
-147.166
11
186.293
21
-147.223
0
LINE
8
BLACK
6
CONTINUOUS
10
186.293
20
-147.223
11
186.074
21
-147.249
0
LINE
8
BLACK
6
CONTINUOUS
10
186.074
20
-147.249
11
185.853
21
-147.244
0
LINE
8
BLACK
6
CONTINUOUS
10
185.853
20
-147.244
11
185.635
21
-147.207
0
LINE
8
BLACK
6
CONTINUOUS
10
185.635
20
-147.207
11
185.424
21
-147.14
0
LINE
8
BLACK
6
CONTINUOUS
10
185.424
20
-147.14
11
185.225
21
-147.043
0
LINE
8
BLACK
6
CONTINUOUS
10
185.225
20
-147.043
11
185.225
21
-147.043
0
LINE
8
BLACK
6
CONTINUOUS
10
185.225
20
-147.043
11
185.225
21
-147.043
0
LINE
8
BLACK
6
CONTINUOUS
10
185.225
20
-147.043
11
185.225
21
-147.043
0
LINE
8
BLACK
6
CONTINUOUS
10
185.225
20
-147.043
11
169.731
21
-138.047
0
LINE
8
BLACK
6
CONTINUOUS
10
169.731
20
-138.047
11
151.243
21
-133.05
0
LINE
8
BLACK
6
CONTINUOUS
10
151.243
20
-133.05
11
132.25
21
-133.05
0
LINE
8
BLACK
6
CONTINUOUS
10
132.25
20
-133.05
11
132.241
21
-133.046
0
LINE
8
BLACK
6
CONTINUOUS
10
132.241
20
-133.046
11
132.232
21
-133.047
0
LINE
8
BLACK
6
CONTINUOUS
10
132.232
20
-133.047
11
102.741
21
-121.55
0
LINE
8
BLACK
6
CONTINUOUS
10
102.741
20
-121.55
11
86.25
21
-121.55
0
LINE
8
BLACK
6
CONTINUOUS
10
86.25
20
-121.55
11
86.0294
21
-121.534
0
LINE
8
BLACK
6
CONTINUOUS
10
86.0294
20
-121.534
11
85.8133
21
-121.487
0
LINE
8
BLACK
6
CONTINUOUS
10
85.8133
20
-121.487
11
85.6061
21
-121.41
0
LINE
8
BLACK
6
CONTINUOUS
10
85.6061
20
-121.41
11
85.412
21
-121.304
0
LINE
8
BLACK
6
CONTINUOUS
10
85.412
20
-121.304
11
85.235
21
-121.171
0
LINE
8
BLACK
6
CONTINUOUS
10
85.235
20
-121.171
11
85.0786
21
-121.015
0
LINE
8
BLACK
6
CONTINUOUS
10
85.0786
20
-121.015
11
84.9461
21
-120.838
0
LINE
8
BLACK
6
CONTINUOUS
10
84.9461
20
-120.838
11
84.8401
21
-120.644
0
LINE
8
BLACK
6
CONTINUOUS
10
84.8401
20
-120.644
11
84.7628
21
-120.437
0
LINE
8
BLACK
6
CONTINUOUS
10
84.7628
20
-120.437
11
84.7158
21
-120.221
0
LINE
8
BLACK
6
CONTINUOUS
10
84.7158
20
-120.221
11
84.7
21
-120
0
LINE
8
BLACK
6
CONTINUOUS
10
84.7
20
-120
11
84.7
21
-115
0
LINE
8
BLACK
6
CONTINUOUS
10
84.7
20
-115
11
84.7038
21
-114.991
0
LINE
8
BLACK
6
CONTINUOUS
10
84.7038
20
-114.991
11
84.6866
21
-114.772
0
LINE
8
BLACK
6
CONTINUOUS
10
84.6866
20
-114.772
11
84.6333
21
-114.551
0
LINE
8
BLACK
6
CONTINUOUS
10
84.6333
20
-114.551
11
84.546
21
-114.34
0
LINE
8
BLACK
6
CONTINUOUS
10
84.546
20
-114.34
11
84.4267
21
-114.145
0
LINE
8
BLACK
6
CONTINUOUS
10
84.4267
20
-114.145
11
84.2785
21
-113.972
0
LINE
8
BLACK
6
CONTINUOUS
10
84.2785
20
-113.972
11
84.1049
21
-113.823
0
LINE
8
BLACK
6
CONTINUOUS
10
84.1049
20
-113.823
11
83.9103
21
-113.704
0
LINE
8
BLACK
6
CONTINUOUS
10
83.9103
20
-113.704
11
83.6995
21
-113.617
0
LINE
8
BLACK
6
CONTINUOUS
10
83.6995
20
-113.617
11
83.4775
21
-113.563
0
LINE
8
BLACK
6
CONTINUOUS
10
83.4775
20
-113.563
11
83.2591
21
-113.546
0
LINE
8
BLACK
6
CONTINUOUS
10
83.2591
20
-113.546
11
83.25
21
-113.55
0
LINE
8
BLACK
6
CONTINUOUS
10
83.25
20
-113.55
11
67.25
21
-113.55
0
LINE
8
BLACK
6
CONTINUOUS
10
67.25
20
-113.55
11
67.0294
21
-113.534
0
LINE
8
BLACK
6
CONTINUOUS
10
67.0294
20
-113.534
11
66.8133
21
-113.487
0
LINE
8
BLACK
6
CONTINUOUS
10
66.8133
20
-113.487
11
66.6061
21
-113.41
0
LINE
8
BLACK
6
CONTINUOUS
10
66.6061
20
-113.41
11
66.412
21
-113.304
0
LINE
8
BLACK
6
CONTINUOUS
10
66.412
20
-113.304
11
66.235
21
-113.171
0
LINE
8
BLACK
6
CONTINUOUS
10
66.235
20
-113.171
11
66.0786
21
-113.015
0
LINE
8
BLACK
6
CONTINUOUS
10
66.0786
20
-113.015
11
65.9461
21
-112.838
0
LINE
8
BLACK
6
CONTINUOUS
10
65.9461
20
-112.838
11
65.8401
21
-112.644
0
LINE
8
BLACK
6
CONTINUOUS
10
65.8401
20
-112.644
11
65.7628
21
-112.437
0
LINE
8
BLACK
6
CONTINUOUS
10
65.7628
20
-112.437
11
65.7158
21
-112.221
0
LINE
8
BLACK
6
CONTINUOUS
10
65.7158
20
-112.221
11
65.7
21
-112
0
LINE
8
BLACK
6
CONTINUOUS
10
65.7
20
-112
11
65.7
21
-76
0
LINE
8
BLACK
6
CONTINUOUS
10
65.7
20
-76
11
65.7158
21
-75.7794
0
LINE
8
BLACK
6
CONTINUOUS
10
65.7158
20
-75.7794
11
65.7628
21
-75.5633
0
LINE
8
BLACK
6
CONTINUOUS
10
65.7628
20
-75.5633
11
65.8401
21
-75.3561
0
LINE
8
BLACK
6
CONTINUOUS
10
65.8401
20
-75.3561
11
65.9461
21
-75.162
0
LINE
8
BLACK
6
CONTINUOUS
10
65.9461
20
-75.162
11
66.0786
21
-74.985
0
LINE
8
BLACK
6
CONTINUOUS
10
66.0786
20
-74.985
11
66.235
21
-74.8286
0
LINE
8
BLACK
6
CONTINUOUS
10
66.235
20
-74.8286
11
66.412
21
-74.6961
0
LINE
8
BLACK
6
CONTINUOUS
10
66.412
20
-74.6961
11
66.6061
21
-74.5901
0
LINE
8
BLACK
6
CONTINUOUS
10
66.6061
20
-74.5901
11
66.8133
21
-74.5128
0
LINE
8
BLACK
6
CONTINUOUS
10
66.8133
20
-74.5128
11
67.0294
21
-74.4658
0
LINE
8
BLACK
6
CONTINUOUS
10
67.0294
20
-74.4658
11
67.25
21
-74.45
0
LINE
8
BLACK
6
CONTINUOUS
10
67.25
20
-74.45
11
83.25
21
-74.45
0
LINE
8
BLACK
6
CONTINUOUS
10
83.25
20
-74.45
11
83.2591
21
-74.4538
0
LINE
8
BLACK
6
CONTINUOUS
10
83.2591
20
-74.4538
11
83.4775
21
-74.4366
0
LINE
8
BLACK
6
CONTINUOUS
10
83.4775
20
-74.4366
11
83.6995
21
-74.3833
0
LINE
8
BLACK
6
CONTINUOUS
10
83.6995
20
-74.3833
11
83.9103
21
-74.296
0
LINE
8
BLACK
6
CONTINUOUS
10
83.9103
20
-74.296
11
84.1049
21
-74.1767
0
LINE
8
BLACK
6
CONTINUOUS
10
84.1049
20
-74.1767
11
84.2785
21
-74.0285
0
LINE
8
BLACK
6
CONTINUOUS
10
84.2785
20
-74.0285
11
84.4267
21
-73.8549
0
LINE
8
BLACK
6
CONTINUOUS
10
84.4267
20
-73.8549
11
84.546
21
-73.6603
0
LINE
8
BLACK
6
CONTINUOUS
10
84.546
20
-73.6603
11
84.6333
21
-73.4495
0
LINE
8
BLACK
6
CONTINUOUS
10
84.6333
20
-73.4495
11
84.6866
21
-73.2275
0
LINE
8
BLACK
6
CONTINUOUS
10
84.6866
20
-73.2275
11
84.7038
21
-73.0091
0
LINE
8
BLACK
6
CONTINUOUS
10
84.7038
20
-73.0091
11
84.7
21
-73
0
LINE
8
BLACK
6
CONTINUOUS
10
84.7
20
-73
11
84.7
21
-65
0
LINE
8
BLACK
6
CONTINUOUS
10
84.7
20
-65
11
84.7158
21
-64.7794
0
LINE
8
BLACK
6
CONTINUOUS
10
84.7158
20
-64.7794
11
84.7628
21
-64.5633
0
LINE
8
BLACK
6
CONTINUOUS
10
84.7628
20
-64.5633
11
84.8401
21
-64.3561
0
LINE
8
BLACK
6
CONTINUOUS
10
84.8401
20
-64.3561
11
84.9461
21
-64.162
0
LINE
8
BLACK
6
CONTINUOUS
10
84.9461
20
-64.162
11
85.0786
21
-63.985
0
LINE
8
BLACK
6
CONTINUOUS
10
85.0786
20
-63.985
11
85.235
21
-63.8286
0
LINE
8
BLACK
6
CONTINUOUS
10
85.235
20
-63.8286
11
85.412
21
-63.6961
0
LINE
8
BLACK
6
CONTINUOUS
10
85.412
20
-63.6961
11
85.6061
21
-63.5901
0
LINE
8
BLACK
6
CONTINUOUS
10
85.6061
20
-63.5901
11
85.8133
21
-63.5128
0
LINE
8
BLACK
6
CONTINUOUS
10
85.8133
20
-63.5128
11
86.0294
21
-63.4658
0
LINE
8
BLACK
6
CONTINUOUS
10
86.0294
20
-63.4658
11
86.25
21
-63.45
0
LINE
8
BLACK
6
CONTINUOUS
10
86.25
20
-63.45
11
102.25
21
-63.45
0
LINE
8
BLACK
6
CONTINUOUS
10
102.25
20
-63.45
11
102.259
21
-63.4538
0
LINE
8
BLACK
6
CONTINUOUS
10
102.259
20
-63.4538
11
102.478
21
-63.4366
0
LINE
8
BLACK
6
CONTINUOUS
10
102.478
20
-63.4366
11
102.699
21
-63.3833
0
LINE
8
BLACK
6
CONTINUOUS
10
102.699
20
-63.3833
11
102.91
21
-63.296
0
LINE
8
BLACK
6
CONTINUOUS
10
102.91
20
-63.296
11
103.105
21
-63.1767
0
LINE
8
BLACK
6
CONTINUOUS
10
103.105
20
-63.1767
11
103.278
21
-63.0285
0
LINE
8
BLACK
6
CONTINUOUS
10
103.278
20
-63.0285
11
103.427
21
-62.8549
0
LINE
8
BLACK
6
CONTINUOUS
10
103.427
20
-62.8549
11
103.546
21
-62.6603
0
LINE
8
BLACK
6
CONTINUOUS
10
103.546
20
-62.6603
11
103.633
21
-62.4495
0
LINE
8
BLACK
6
CONTINUOUS
10
103.633
20
-62.4495
11
103.687
21
-62.2275
0
LINE
8
BLACK
6
CONTINUOUS
10
103.687
20
-62.2275
11
103.704
21
-62.0091
0
LINE
8
BLACK
6
CONTINUOUS
10
103.704
20
-62.0091
11
103.7
21
-62
0
LINE
8
BLACK
6
CONTINUOUS
10
103.7
20
-62
11
103.7
21
-57
0
LINE
8
BLACK
6
CONTINUOUS
10
103.7
20
-57
11
103.716
21
-56.7794
0
LINE
8
BLACK
6
CONTINUOUS
10
103.716
20
-56.7794
11
103.763
21
-56.5633
0
LINE
8
BLACK
6
CONTINUOUS
10
103.763
20
-56.5633
11
103.84
21
-56.3561
0
LINE
8
BLACK
6
CONTINUOUS
10
103.84
20
-56.3561
11
103.946
21
-56.162
0
LINE
8
BLACK
6
CONTINUOUS
10
103.946
20
-56.162
11
104.079
21
-55.985
0
LINE
8
BLACK
6
CONTINUOUS
10
104.079
20
-55.985
11
104.235
21
-55.8286
0
LINE
8
BLACK
6
CONTINUOUS
10
104.235
20
-55.8286
11
104.412
21
-55.6961
0
LINE
8
BLACK
6
CONTINUOUS
10
104.412
20
-55.6961
11
104.606
21
-55.5901
0
LINE
8
BLACK
6
CONTINUOUS
10
104.606
20
-55.5901
11
104.813
21
-55.5128
0
LINE
8
BLACK
6
CONTINUOUS
10
104.813
20
-55.5128
11
105.029
21
-55.4658
0
LINE
8
BLACK
6
CONTINUOUS
10
105.029
20
-55.4658
11
105.25
21
-55.45
0
LINE
8
BLACK
6
CONTINUOUS
10
105.25
20
-55.45
11
121.25
21
-55.45
0
LINE
8
BLACK
6
CONTINUOUS
10
121.25
20
-55.45
11
121.259
21
-55.4538
0
LINE
8
BLACK
6
CONTINUOUS
10
121.259
20
-55.4538
11
121.478
21
-55.4366
0
LINE
8
BLACK
6
CONTINUOUS
10
121.478
20
-55.4366
11
121.699
21
-55.3833
0
LINE
8
BLACK
6
CONTINUOUS
10
121.699
20
-55.3833
11
121.91
21
-55.296
0
LINE
8
BLACK
6
CONTINUOUS
10
121.91
20
-55.296
11
122.105
21
-55.1767
0
LINE
8
BLACK
6
CONTINUOUS
10
122.105
20
-55.1767
11
122.278
21
-55.0285
0
LINE
8
BLACK
6
CONTINUOUS
10
122.278
20
-55.0285
11
122.427
21
-54.8549
0
LINE
8
BLACK
6
CONTINUOUS
10
122.427
20
-54.8549
11
122.546
21
-54.6603
0
LINE
8
BLACK
6
CONTINUOUS
10
122.546
20
-54.6603
11
122.633
21
-54.4495
0
LINE
8
BLACK
6
CONTINUOUS
10
122.633
20
-54.4495
11
122.687
21
-54.2275
0
LINE
8
BLACK
6
CONTINUOUS
10
122.687
20
-54.2275
11
122.704
21
-54.0091
0
LINE
8
BLACK
6
CONTINUOUS
10
122.704
20
-54.0091
11
122.7
21
-54
0
LINE
8
BLACK
6
CONTINUOUS
10
122.7
20
-54
11
122.7
21
-53
0
LINE
8
BLACK
6
CONTINUOUS
10
122.7
20
-53
11
122.716
21
-52.7794
0
LINE
8
BLACK
6
CONTINUOUS
10
122.716
20
-52.7794
11
122.763
21
-52.5633
0
LINE
8
BLACK
6
CONTINUOUS
10
122.763
20
-52.5633
11
122.84
21
-52.3561
0
LINE
8
BLACK
6
CONTINUOUS
10
122.84
20
-52.3561
11
122.946
21
-52.162
0
LINE
8
BLACK
6
CONTINUOUS
10
122.946
20
-52.162
11
123.079
21
-51.985
0
LINE
8
BLACK
6
CONTINUOUS
10
123.079
20
-51.985
11
123.235
21
-51.8286
0
LINE
8
BLACK
6
CONTINUOUS
10
123.235
20
-51.8286
11
123.412
21
-51.6961
0
LINE
8
BLACK
6
CONTINUOUS
10
123.412
20
-51.6961
11
123.606
21
-51.5901
0
LINE
8
BLACK
6
CONTINUOUS
10
123.606
20
-51.5901
11
123.813
21
-51.5128
0
LINE
8
BLACK
6
CONTINUOUS
10
123.813
20
-51.5128
11
124.029
21
-51.4658
0
LINE
8
BLACK
6
CONTINUOUS
10
124.029
20
-51.4658
11
124.25
21
-51.45
0
LINE
8
BLACK
6
CONTINUOUS
10
124.25
20
-51.45
11
141.25
21
-51.45
0
LINE
8
BLACK
6
CONTINUOUS
10
141.25
20
-51.45
11
141.471
21
-51.4658
0
LINE
8
BLACK
6
CONTINUOUS
10
141.471
20
-51.4658
11
141.687
21
-51.5128
0
LINE
8
BLACK
6
CONTINUOUS
10
141.687
20
-51.5128
11
141.894
21
-51.5901
0
LINE
8
BLACK
6
CONTINUOUS
10
141.894
20
-51.5901
11
142.088
21
-51.6961
0
LINE
8
BLACK
6
CONTINUOUS
10
142.088
20
-51.6961
11
142.265
21
-51.8286
0
LINE
8
BLACK
6
CONTINUOUS
10
142.265
20
-51.8286
11
142.421
21
-51.985
0
LINE
8
BLACK
6
CONTINUOUS
10
142.421
20
-51.985
11
142.554
21
-52.162
0
LINE
8
BLACK
6
CONTINUOUS
10
142.554
20
-52.162
11
142.66
21
-52.3561
0
LINE
8
BLACK
6
CONTINUOUS
10
142.66
20
-52.3561
11
142.737
21
-52.5633
0
LINE
8
BLACK
6
CONTINUOUS
10
142.737
20
-52.5633
11
142.784
21
-52.7794
0
LINE
8
BLACK
6
CONTINUOUS
10
142.784
20
-52.7794
11
142.8
21
-53
0
LINE
8
BLACK
6
CONTINUOUS
10
142.8
20
-53
11
142.8
21
-54
0
LINE
8
BLACK
6
CONTINUOUS
10
142.8
20
-54
11
142.796
21
-54.0091
0
LINE
8
BLACK
6
CONTINUOUS
10
142.796
20
-54.0091
11
142.813
21
-54.2275
0
LINE
8
BLACK
6
CONTINUOUS
10
142.813
20
-54.2275
11
142.867
21
-54.4495
0
LINE
8
BLACK
6
CONTINUOUS
10
142.867
20
-54.4495
11
142.954
21
-54.6603
0
LINE
8
BLACK
6
CONTINUOUS
10
142.954
20
-54.6603
11
143.073
21
-54.8549
0
LINE
8
BLACK
6
CONTINUOUS
10
143.073
20
-54.8549
11
143.222
21
-55.0285
0
LINE
8
BLACK
6
CONTINUOUS
10
143.222
20
-55.0285
11
143.395
21
-55.1767
0
LINE
8
BLACK
6
CONTINUOUS
10
143.395
20
-55.1767
11
143.59
21
-55.296
0
LINE
8
BLACK
6
CONTINUOUS
10
143.59
20
-55.296
11
143.801
21
-55.3833
0
LINE
8
BLACK
6
CONTINUOUS
10
143.801
20
-55.3833
11
144.022
21
-55.4366
0
LINE
8
BLACK
6
CONTINUOUS
10
144.022
20
-55.4366
11
144.241
21
-55.4538
0
LINE
8
BLACK
6
CONTINUOUS
10
144.241
20
-55.4538
11
144.25
21
-55.45
0
LINE
8
BLACK
6
CONTINUOUS
10
144.25
20
-55.45
11
199.25
21
-55.45
0
LINE
8
BLACK
6
CONTINUOUS
10
199.25
20
-55.45
11
199.471
21
-55.4658
0
LINE
8
BLACK
6
CONTINUOUS
10
199.471
20
-55.4658
11
199.687
21
-55.5128
0
LINE
8
BLACK
6
CONTINUOUS
10
124.241
20
-51.5462
11
124.022
21
-51.5634
0
LINE
8
BLACK
6
CONTINUOUS
10
124.022
20
-51.5634
11
123.801
21
-51.6167
0
LINE
8
BLACK
6
CONTINUOUS
10
123.801
20
-51.6167
11
123.59
21
-51.704
0
LINE
8
BLACK
6
CONTINUOUS
10
123.59
20
-51.704
11
123.395
21
-51.8233
0
LINE
8
BLACK
6
CONTINUOUS
10
123.395
20
-51.8233
11
123.222
21
-51.9715
0
LINE
8
BLACK
6
CONTINUOUS
10
123.222
20
-51.9715
11
123.073
21
-52.1451
0
LINE
8
BLACK
6
CONTINUOUS
10
123.073
20
-52.1451
11
122.954
21
-52.3397
0
LINE
8
BLACK
6
CONTINUOUS
10
122.954
20
-52.3397
11
122.867
21
-52.5505
0
LINE
8
BLACK
6
CONTINUOUS
10
122.867
20
-52.5505
11
122.813
21
-52.7725
0
LINE
8
BLACK
6
CONTINUOUS
10
122.813
20
-52.7725
11
122.796
21
-52.9909
0
LINE
8
BLACK
6
CONTINUOUS
10
122.796
20
-52.9909
11
122.8
21
-53
0
LINE
8
BLACK
6
CONTINUOUS
10
122.8
20
-53
11
122.8
21
-54
0
LINE
8
BLACK
6
CONTINUOUS
10
122.8
20
-54
11
122.784
21
-54.2206
0
LINE
8
BLACK
6
CONTINUOUS
10
122.784
20
-54.2206
11
122.737
21
-54.4367
0
LINE
8
BLACK
6
CONTINUOUS
10
122.737
20
-54.4367
11
122.66
21
-54.6439
0
LINE
8
BLACK
6
CONTINUOUS
10
122.66
20
-54.6439
11
122.554
21
-54.838
0
LINE
8
BLACK
6
CONTINUOUS
10
122.554
20
-54.838
11
122.421
21
-55.015
0
LINE
8
BLACK
6
CONTINUOUS
10
122.421
20
-55.015
11
122.265
21
-55.1714
0
LINE
8
BLACK
6
CONTINUOUS
10
122.265
20
-55.1714
11
122.088
21
-55.3039
0
LINE
8
BLACK
6
CONTINUOUS
10
122.088
20
-55.3039
11
121.894
21
-55.4099
0
LINE
8
BLACK
6
CONTINUOUS
10
121.894
20
-55.4099
11
121.687
21
-55.4872
0
LINE
8
BLACK
6
CONTINUOUS
10
121.687
20
-55.4872
11
121.471
21
-55.5342
0
LINE
8
BLACK
6
CONTINUOUS
10
121.471
20
-55.5342
11
121.25
21
-55.55
0
LINE
8
BLACK
6
CONTINUOUS
10
121.25
20
-55.55
11
105.25
21
-55.55
0
LINE
8
BLACK
6
CONTINUOUS
10
105.25
20
-55.55
11
105.241
21
-55.5462
0
LINE
8
BLACK
6
CONTINUOUS
10
105.241
20
-55.5462
11
105.022
21
-55.5634
0
LINE
8
BLACK
6
CONTINUOUS
10
105.022
20
-55.5634
11
104.801
21
-55.6167
0
LINE
8
BLACK
6
CONTINUOUS
10
104.801
20
-55.6167
11
104.59
21
-55.704
0
LINE
8
BLACK
6
CONTINUOUS
10
104.59
20
-55.704
11
104.395
21
-55.8233
0
LINE
8
BLACK
6
CONTINUOUS
10
104.395
20
-55.8233
11
104.222
21
-55.9715
0
LINE
8
BLACK
6
CONTINUOUS
10
104.222
20
-55.9715
11
104.073
21
-56.1451
0
LINE
8
BLACK
6
CONTINUOUS
10
104.073
20
-56.1451
11
103.954
21
-56.3397
0
LINE
8
BLACK
6
CONTINUOUS
10
103.954
20
-56.3397
11
103.867
21
-56.5505
0
LINE
8
BLACK
6
CONTINUOUS
10
103.867
20
-56.5505
11
103.813
21
-56.7725
0
LINE
8
BLACK
6
CONTINUOUS
10
103.813
20
-56.7725
11
103.796
21
-56.9909
0
LINE
8
BLACK
6
CONTINUOUS
10
103.796
20
-56.9909
11
103.8
21
-57
0
LINE
8
BLACK
6
CONTINUOUS
10
103.8
20
-57
11
103.8
21
-62
0
LINE
8
BLACK
6
CONTINUOUS
10
103.8
20
-62
11
103.784
21
-62.2206
0
LINE
8
BLACK
6
CONTINUOUS
10
103.784
20
-62.2206
11
103.737
21
-62.4367
0
LINE
8
BLACK
6
CONTINUOUS
10
103.737
20
-62.4367
11
103.66
21
-62.6439
0
LINE
8
BLACK
6
CONTINUOUS
10
103.66
20
-62.6439
11
103.554
21
-62.838
0
LINE
8
BLACK
6
CONTINUOUS
10
103.554
20
-62.838
11
103.421
21
-63.015
0
LINE
8
BLACK
6
CONTINUOUS
10
103.421
20
-63.015
11
103.265
21
-63.1714
0
LINE
8
BLACK
6
CONTINUOUS
10
103.265
20
-63.1714
11
103.088
21
-63.3039
0
LINE
8
BLACK
6
CONTINUOUS
10
103.088
20
-63.3039
11
102.894
21
-63.4099
0
LINE
8
BLACK
6
CONTINUOUS
10
102.894
20
-63.4099
11
102.687
21
-63.4872
0
LINE
8
BLACK
6
CONTINUOUS
10
102.687
20
-63.4872
11
102.471
21
-63.5342
0
LINE
8
BLACK
6
CONTINUOUS
10
102.471
20
-63.5342
11
102.25
21
-63.55
0
LINE
8
BLACK
6
CONTINUOUS
10
102.25
20
-63.55
11
86.25
21
-63.55
0
LINE
8
BLACK
6
CONTINUOUS
10
86.25
20
-63.55
11
86.2409
21
-63.5462
0
LINE
8
BLACK
6
CONTINUOUS
10
86.2409
20
-63.5462
11
86.0225
21
-63.5634
0
LINE
8
BLACK
6
CONTINUOUS
10
86.0225
20
-63.5634
11
85.8005
21
-63.6167
0
LINE
8
BLACK
6
CONTINUOUS
10
85.8005
20
-63.6167
11
85.5897
21
-63.704
0
LINE
8
BLACK
6
CONTINUOUS
10
85.5897
20
-63.704
11
85.3951
21
-63.8233
0
LINE
8
BLACK
6
CONTINUOUS
10
85.3951
20
-63.8233
11
85.2215
21
-63.9715
0
LINE
8
BLACK
6
CONTINUOUS
10
85.2215
20
-63.9715
11
85.0733
21
-64.1451
0
LINE
8
BLACK
6
CONTINUOUS
10
85.0733
20
-64.1451
11
84.954
21
-64.3397
0
LINE
8
BLACK
6
CONTINUOUS
10
84.954
20
-64.3397
11
84.8667
21
-64.5505
0
LINE
8
BLACK
6
CONTINUOUS
10
84.8667
20
-64.5505
11
84.8134
21
-64.7725
0
LINE
8
BLACK
6
CONTINUOUS
10
84.8134
20
-64.7725
11
84.7962
21
-64.9909
0
LINE
8
BLACK
6
CONTINUOUS
10
84.7962
20
-64.9909
11
84.8
21
-65
0
LINE
8
BLACK
6
CONTINUOUS
10
84.8
20
-65
11
84.8
21
-73
0
LINE
8
BLACK
6
CONTINUOUS
10
84.8
20
-73
11
84.7842
21
-73.2206
0
LINE
8
BLACK
6
CONTINUOUS
10
84.7842
20
-73.2206
11
84.7372
21
-73.4367
0
LINE
8
BLACK
6
CONTINUOUS
10
84.7372
20
-73.4367
11
84.6599
21
-73.6439
0
LINE
8
BLACK
6
CONTINUOUS
10
84.6599
20
-73.6439
11
84.5539
21
-73.838
0
LINE
8
BLACK
6
CONTINUOUS
10
84.5539
20
-73.838
11
84.4214
21
-74.015
0
LINE
8
BLACK
6
CONTINUOUS
10
84.4214
20
-74.015
11
84.265
21
-74.1714
0
LINE
8
BLACK
6
CONTINUOUS
10
84.265
20
-74.1714
11
84.088
21
-74.3039
0
LINE
8
BLACK
6
CONTINUOUS
10
84.088
20
-74.3039
11
83.8939
21
-74.4099
0
LINE
8
BLACK
6
CONTINUOUS
10
83.8939
20
-74.4099
11
83.6867
21
-74.4872
0
LINE
8
BLACK
6
CONTINUOUS
10
83.6867
20
-74.4872
11
83.4706
21
-74.5342
0
LINE
8
BLACK
6
CONTINUOUS
10
83.4706
20
-74.5342
11
83.25
21
-74.55
0
LINE
8
BLACK
6
CONTINUOUS
10
83.25
20
-74.55
11
67.25
21
-74.55
0
LINE
8
BLACK
6
CONTINUOUS
10
67.25
20
-74.55
11
67.2409
21
-74.5462
0
LINE
8
BLACK
6
CONTINUOUS
10
67.2409
20
-74.5462
11
67.0225
21
-74.5634
0
LINE
8
BLACK
6
CONTINUOUS
10
67.0225
20
-74.5634
11
66.8005
21
-74.6167
0
LINE
8
BLACK
6
CONTINUOUS
10
66.8005
20
-74.6167
11
66.5897
21
-74.704
0
LINE
8
BLACK
6
CONTINUOUS
10
66.5897
20
-74.704
11
66.3951
21
-74.8233
0
LINE
8
BLACK
6
CONTINUOUS
10
66.3951
20
-74.8233
11
66.2215
21
-74.9715
0
LINE
8
BLACK
6
CONTINUOUS
10
66.2215
20
-74.9715
11
66.0733
21
-75.1451
0
LINE
8
BLACK
6
CONTINUOUS
10
66.0733
20
-75.1451
11
65.954
21
-75.3397
0
LINE
8
BLACK
6
CONTINUOUS
10
65.954
20
-75.3397
11
65.8667
21
-75.5505
0
LINE
8
BLACK
6
CONTINUOUS
10
65.8667
20
-75.5505
11
65.8134
21
-75.7725
0
LINE
8
BLACK
6
CONTINUOUS
10
65.8134
20
-75.7725
11
65.7962
21
-75.9909
0
LINE
8
BLACK
6
CONTINUOUS
10
65.7962
20
-75.9909
11
65.8
21
-76
0
LINE
8
BLACK
6
CONTINUOUS
10
65.8
20
-76
11
65.8
21
-112
0
LINE
8
BLACK
6
CONTINUOUS
10
65.8
20
-112
11
65.7962
21
-112.009
0
LINE
8
BLACK
6
CONTINUOUS
10
65.7962
20
-112.009
11
65.8134
21
-112.228
0
LINE
8
BLACK
6
CONTINUOUS
10
65.8134
20
-112.228
11
65.8667
21
-112.449
0
LINE
8
BLACK
6
CONTINUOUS
10
65.8667
20
-112.449
11
65.954
21
-112.66
0
LINE
8
BLACK
6
CONTINUOUS
10
65.954
20
-112.66
11
66.0733
21
-112.855
0
LINE
8
BLACK
6
CONTINUOUS
10
66.0733
20
-112.855
11
66.2215
21
-113.028
0
LINE
8
BLACK
6
CONTINUOUS
10
66.2215
20
-113.028
11
66.3951
21
-113.177
0
LINE
8
BLACK
6
CONTINUOUS
10
66.3951
20
-113.177
11
66.5897
21
-113.296
0
LINE
8
BLACK
6
CONTINUOUS
10
66.5897
20
-113.296
11
66.8005
21
-113.383
0
LINE
8
BLACK
6
CONTINUOUS
10
66.8005
20
-113.383
11
67.0225
21
-113.437
0
LINE
8
BLACK
6
CONTINUOUS
10
67.0225
20
-113.437
11
67.2409
21
-113.454
0
LINE
8
BLACK
6
CONTINUOUS
10
67.2409
20
-113.454
11
67.25
21
-113.45
0
LINE
8
BLACK
6
CONTINUOUS
10
67.25
20
-113.45
11
83.25
21
-113.45
0
LINE
8
BLACK
6
CONTINUOUS
10
83.25
20
-113.45
11
83.4706
21
-113.466
0
LINE
8
BLACK
6
CONTINUOUS
10
83.4706
20
-113.466
11
83.6867
21
-113.513
0
LINE
8
BLACK
6
CONTINUOUS
10
83.6867
20
-113.513
11
83.8939
21
-113.59
0
LINE
8
BLACK
6
CONTINUOUS
10
83.8939
20
-113.59
11
84.088
21
-113.696
0
LINE
8
BLACK
6
CONTINUOUS
10
84.088
20
-113.696
11
84.265
21
-113.829
0
LINE
8
BLACK
6
CONTINUOUS
10
84.265
20
-113.829
11
84.4214
21
-113.985
0
LINE
8
BLACK
6
CONTINUOUS
10
84.4214
20
-113.985
11
84.5539
21
-114.162
0
LINE
8
BLACK
6
CONTINUOUS
10
84.5539
20
-114.162
11
84.6599
21
-114.356
0
LINE
8
BLACK
6
CONTINUOUS
10
84.6599
20
-114.356
11
84.7372
21
-114.563
0
LINE
8
BLACK
6
CONTINUOUS
10
84.7372
20
-114.563
11
84.7842
21
-114.779
0
LINE
8
BLACK
6
CONTINUOUS
10
84.7842
20
-114.779
11
84.8
21
-115
0
LINE
8
BLACK
6
CONTINUOUS
10
84.8
20
-115
11
84.8
21
-120
0
LINE
8
BLACK
6
CONTINUOUS
10
84.8
20
-120
11
84.7962
21
-120.009
0
LINE
8
BLACK
6
CONTINUOUS
10
84.7962
20
-120.009
11
84.8134
21
-120.228
0
LINE
8
BLACK
6
CONTINUOUS
10
84.8134
20
-120.228
11
84.8667
21
-120.449
0
LINE
8
BLACK
6
CONTINUOUS
10
84.8667
20
-120.449
11
84.954
21
-120.66
0
LINE
8
BLACK
6
CONTINUOUS
10
84.954
20
-120.66
11
85.0733
21
-120.855
0
LINE
8
BLACK
6
CONTINUOUS
10
85.0733
20
-120.855
11
85.2215
21
-121.028
0
LINE
8
BLACK
6
CONTINUOUS
10
85.2215
20
-121.028
11
85.3951
21
-121.177
0
LINE
8
BLACK
6
CONTINUOUS
10
85.3951
20
-121.177
11
85.5897
21
-121.296
0
LINE
8
BLACK
6
CONTINUOUS
10
85.5897
20
-121.296
11
85.8005
21
-121.383
0
LINE
8
BLACK
6
CONTINUOUS
10
85.8005
20
-121.383
11
86.0225
21
-121.437
0
LINE
8
BLACK
6
CONTINUOUS
10
86.0225
20
-121.437
11
86.2409
21
-121.454
0
LINE
8
BLACK
6
CONTINUOUS
10
86.2409
20
-121.454
11
86.25
21
-121.45
0
LINE
8
BLACK
6
CONTINUOUS
10
86.25
20
-121.45
11
102.75
21
-121.45
0
LINE
8
BLACK
6
CONTINUOUS
10
102.75
20
-121.45
11
102.759
21
-121.454
0
LINE
8
BLACK
6
CONTINUOUS
10
102.759
20
-121.454
11
102.768
21
-121.453
0
LINE
8
BLACK
6
CONTINUOUS
10
102.768
20
-121.453
11
132.259
21
-132.95
0
LINE
8
BLACK
6
CONTINUOUS
10
132.259
20
-132.95
11
151.25
21
-132.95
0
LINE
8
BLACK
6
CONTINUOUS
10
151.25
20
-132.95
11
151.256
21
-132.953
0
LINE
8
BLACK
6
CONTINUOUS
10
151.256
20
-132.953
11
151.263
21
-132.952
0
LINE
8
BLACK
6
CONTINUOUS
10
151.263
20
-132.952
11
169.763
21
-137.952
0
LINE
8
BLACK
6
CONTINUOUS
10
169.763
20
-137.952
11
169.768
21
-137.956
0
LINE
8
BLACK
6
CONTINUOUS
10
169.768
20
-137.956
11
169.775
21
-137.957
0
LINE
8
BLACK
6
CONTINUOUS
10
169.775
20
-137.957
11
185.275
21
-146.957
0
LINE
8
BLACK
6
CONTINUOUS
10
185.275
20
-146.957
11
185.281
21
-146.965
0
LINE
8
BLACK
6
CONTINUOUS
10
185.281
20
-146.965
11
185.479
21
-147.059
0
LINE
8
BLACK
6
CONTINUOUS
10
185.479
20
-147.059
11
185.698
21
-147.124
0
LINE
8
BLACK
6
CONTINUOUS
10
185.698
20
-147.124
11
185.924
21
-147.153
0
LINE
8
BLACK
6
CONTINUOUS
10
185.924
20
-147.153
11
186.152
21
-147.147
0
LINE
8
BLACK
6
CONTINUOUS
10
186.152
20
-147.147
11
186.376
21
-147.106
0
LINE
8
BLACK
6
CONTINUOUS
10
186.376
20
-147.106
11
186.592
21
-147.03
0
LINE
8
BLACK
6
CONTINUOUS
10
186.592
20
-147.03
11
186.792
21
-146.921
0
LINE
8
BLACK
6
CONTINUOUS
10
186.792
20
-146.921
11
186.973
21
-146.782
0
LINE
8
BLACK
6
CONTINUOUS
10
186.973
20
-146.782
11
187.13
21
-146.616
0
LINE
8
BLACK
6
CONTINUOUS
10
187.13
20
-146.616
11
187.254
21
-146.436
0
LINE
8
BLACK
6
CONTINUOUS
10
187.254
20
-146.436
11
187.256
21
-146.426
0
LINE
8
BLACK
6
CONTINUOUS
10
187.256
20
-146.426
11
200.7
21
-122.987
0
LINE
8
BLACK
6
CONTINUOUS
10
200.7
20
-122.987
11
200.7
21
-57
0
LINE
8
BLACK
6
CONTINUOUS
10
200.7
20
-57
11
200.704
21
-56.9909
0
LINE
8
BLACK
6
CONTINUOUS
10
200.704
20
-56.9909
11
200.687
21
-56.7725
0
LINE
8
BLACK
6
CONTINUOUS
10
200.687
20
-56.7725
11
200.633
21
-56.5505
0
LINE
8
BLACK
6
CONTINUOUS
10
200.633
20
-56.5505
11
200.546
21
-56.3397
0
LINE
8
BLACK
6
CONTINUOUS
10
200.546
20
-56.3397
11
200.427
21
-56.1451
0
LINE
8
BLACK
6
CONTINUOUS
10
200.427
20
-56.1451
11
200.278
21
-55.9715
0
LINE
8
BLACK
6
CONTINUOUS
10
200.278
20
-55.9715
11
200.105
21
-55.8233
0
LINE
8
BLACK
6
CONTINUOUS
10
200.105
20
-55.8233
11
199.91
21
-55.704
0
LINE
8
BLACK
6
CONTINUOUS
10
199.91
20
-55.704
11
199.699
21
-55.6167
0
LINE
8
BLACK
6
CONTINUOUS
10
199.699
20
-55.6167
11
199.478
21
-55.5634
0
LINE
8
BLACK
6
CONTINUOUS
10
199.478
20
-55.5634
11
199.259
21
-55.5462
0
LINE
8
BLACK
6
CONTINUOUS
10
199.259
20
-55.5462
11
199.25
21
-55.55
0
LINE
8
BLACK
6
CONTINUOUS
10
199.25
20
-55.55
11
144.25
21
-55.55
0
LINE
8
BLACK
6
CONTINUOUS
10
144.25
20
-55.55
11
144.029
21
-55.5342
0
LINE
8
BLACK
6
CONTINUOUS
10
144.029
20
-55.5342
11
143.813
21
-55.4872
0
LINE
8
BLACK
6
CONTINUOUS
10
143.813
20
-55.4872
11
143.606
21
-55.4099
0
LINE
8
BLACK
6
CONTINUOUS
10
143.606
20
-55.4099
11
143.412
21
-55.3039
0
LINE
8
BLACK
6
CONTINUOUS
10
143.412
20
-55.3039
11
143.235
21
-55.1714
0
LINE
8
BLACK
6
CONTINUOUS
10
143.235
20
-55.1714
11
143.079
21
-55.015
0
LINE
8
BLACK
6
CONTINUOUS
10
143.079
20
-55.015
11
142.946
21
-54.838
0
LINE
8
BLACK
6
CONTINUOUS
10
142.946
20
-54.838
11
142.84
21
-54.6439
0
LINE
8
BLACK
6
CONTINUOUS
10
142.84
20
-54.6439
11
142.763
21
-54.4367
0
LINE
8
BLACK
6
CONTINUOUS
10
142.763
20
-54.4367
11
142.716
21
-54.2206
0
LINE
8
BLACK
6
CONTINUOUS
10
142.716
20
-54.2206
11
142.7
21
-54
0
LINE
8
BLACK
6
CONTINUOUS
10
142.7
20
-54
11
142.7
21
-53
0
LINE
8
BLACK
6
CONTINUOUS
10
142.7
20
-53
11
142.704
21
-52.9909
0
LINE
8
BLACK
6
CONTINUOUS
10
142.704
20
-52.9909
11
142.687
21
-52.7725
0
LINE
8
BLACK
6
CONTINUOUS
10
142.687
20
-52.7725
11
142.633
21
-52.5505
0
LINE
8
BLACK
6
CONTINUOUS
10
142.633
20
-52.5505
11
142.546
21
-52.3397
0
LINE
8
BLACK
6
CONTINUOUS
10
142.546
20
-52.3397
11
142.427
21
-52.1451
0
LINE
8
BLACK
6
CONTINUOUS
10
142.427
20
-52.1451
11
142.278
21
-51.9715
0
LINE
8
BLACK
6
CONTINUOUS
10
142.278
20
-51.9715
11
142.105
21
-51.8233
0
LINE
8
BLACK
6
CONTINUOUS
10
142.105
20
-51.8233
11
141.91
21
-51.704
0
LINE
8
BLACK
6
CONTINUOUS
10
141.91
20
-51.704
11
141.699
21
-51.6167
0
LINE
8
BLACK
6
CONTINUOUS
10
141.699
20
-51.6167
11
141.478
21
-51.5634
0
LINE
8
BLACK
6
CONTINUOUS
10
141.478
20
-51.5634
11
141.259
21
-51.5462
0
LINE
8
BLACK
6
CONTINUOUS
10
141.259
20
-51.5462
11
141.25
21
-51.55
0
LINE
8
BLACK
6
CONTINUOUS
10
141.25
20
-51.55
11
124.25
21
-51.55
0
LINE
8
BLACK
6
CONTINUOUS
10
124.25
20
-51.55
11
124.241
21
-51.5462
  0
ENDSEC
  0
EOF
