  0
SECTION
  2
HEADER
  9
$ANGBASE
  50
0.0
  9
$ANGDIR
  70
1
  9
$MEASUREMENT
  70
1
  0
ENDSEC
  0
SECTION
  2
TABLES
  0
TABLE
  2
LTYPE
  70
4
  0
LTYPE
  5
40F
  2
CONTINUOUS
  70
0
  3
Solid line
  72
65
  73
0
  40
0.0
  0
LTYPE
  5
410
  2
DASHDOT
 70
0
  3
Dash Dot ____ _ ____ _
 72
65
 73
4
 40
2.0
 49
1.25
 49
-0.25
 49
0.25
 49
-0.25
  0
LTYPE
  5
411
  2
DASHED
 70
0
  3
Dashed __ __ __ __ __
 72
65
 73
2
 40
0.75
 49
0.5
 49
-0.25
  0
LTYPE
  5
43B
  2
DOTTED
 70
0
  3
Dotted .  .  .  .
 72
65
 73
2
 40
0.2
 49
0.0
 49
-0.2
  0
ENDTAB
  0
TABLE
  2
STYLE
  70
4
  0
STYLE
  2
KICAD
  70
0
  40
0
  41
1
  42
1
  50
0
  71
0
  3
isocp.shx
  0
STYLE
  2
KICADB
  70
0
  40
0
  41
1
  42
1
  50
0
  71
0
  3
isocp.shx
  0
STYLE
  2
KICADI
  70
0
  40
0
  41
1
  42
1
  50
15
  71
0
  3
isocp.shx
  0
STYLE
  2
KICADBI
  70
0
  40
0
  41
1
  42
1
  50
15
  71
0
  3
isocp.shx
  0
ENDTAB
  0
TABLE
  2
LAYER
  70
1
  0
LAYER
  2
BLACK
  70
0
  62
7
  6
CONTINUOUS
  0
ENDTAB
  0
ENDSEC
  0
SECTION
  2
ENTITIES
0
LINE
8
BLACK
6
CONTINUOUS
10
206.694
20
-135.369
11
206.982
21
-135.427
0
LINE
8
BLACK
6
CONTINUOUS
10
206.982
20
-135.427
11
207.261
21
-135.521
0
LINE
8
BLACK
6
CONTINUOUS
10
207.261
20
-135.521
11
207.525
21
-135.651
0
LINE
8
BLACK
6
CONTINUOUS
10
207.525
20
-135.651
11
207.77
21
-135.815
0
LINE
8
BLACK
6
CONTINUOUS
10
207.77
20
-135.815
11
207.991
21
-136.009
0
LINE
8
BLACK
6
CONTINUOUS
10
207.991
20
-136.009
11
208.185
21
-136.23
0
LINE
8
BLACK
6
CONTINUOUS
10
208.185
20
-136.23
11
208.349
21
-136.475
0
LINE
8
BLACK
6
CONTINUOUS
10
208.349
20
-136.475
11
208.479
21
-136.739
0
LINE
8
BLACK
6
CONTINUOUS
10
208.479
20
-136.739
11
208.573
21
-137.018
0
LINE
8
BLACK
6
CONTINUOUS
10
208.573
20
-137.018
11
208.631
21
-137.306
0
LINE
8
BLACK
6
CONTINUOUS
10
208.631
20
-137.306
11
208.65
21
-137.6
0
LINE
8
BLACK
6
CONTINUOUS
10
208.65
20
-137.6
11
208.631
21
-137.894
0
LINE
8
BLACK
6
CONTINUOUS
10
208.631
20
-137.894
11
208.573
21
-138.182
0
LINE
8
BLACK
6
CONTINUOUS
10
208.573
20
-138.182
11
208.479
21
-138.461
0
LINE
8
BLACK
6
CONTINUOUS
10
208.479
20
-138.461
11
208.349
21
-138.725
0
LINE
8
BLACK
6
CONTINUOUS
10
208.349
20
-138.725
11
208.185
21
-138.97
0
LINE
8
BLACK
6
CONTINUOUS
10
208.185
20
-138.97
11
207.991
21
-139.191
0
LINE
8
BLACK
6
CONTINUOUS
10
207.991
20
-139.191
11
207.77
21
-139.385
0
LINE
8
BLACK
6
CONTINUOUS
10
207.77
20
-139.385
11
207.525
21
-139.549
0
LINE
8
BLACK
6
CONTINUOUS
10
207.525
20
-139.549
11
207.261
21
-139.679
0
LINE
8
BLACK
6
CONTINUOUS
10
207.261
20
-139.679
11
206.982
21
-139.773
0
LINE
8
BLACK
6
CONTINUOUS
10
206.982
20
-139.773
11
206.694
21
-139.831
0
LINE
8
BLACK
6
CONTINUOUS
10
206.694
20
-139.831
11
206.4
21
-139.85
0
LINE
8
BLACK
6
CONTINUOUS
10
206.4
20
-139.85
11
206.106
21
-139.831
0
LINE
8
BLACK
6
CONTINUOUS
10
206.106
20
-139.831
11
205.818
21
-139.773
0
LINE
8
BLACK
6
CONTINUOUS
10
205.818
20
-139.773
11
205.539
21
-139.679
0
LINE
8
BLACK
6
CONTINUOUS
10
205.539
20
-139.679
11
205.275
21
-139.549
0
LINE
8
BLACK
6
CONTINUOUS
10
205.275
20
-139.549
11
205.03
21
-139.385
0
LINE
8
BLACK
6
CONTINUOUS
10
205.03
20
-139.385
11
204.809
21
-139.191
0
LINE
8
BLACK
6
CONTINUOUS
10
204.809
20
-139.191
11
204.615
21
-138.97
0
LINE
8
BLACK
6
CONTINUOUS
10
204.615
20
-138.97
11
204.451
21
-138.725
0
LINE
8
BLACK
6
CONTINUOUS
10
204.451
20
-138.725
11
204.321
21
-138.461
0
LINE
8
BLACK
6
CONTINUOUS
10
204.321
20
-138.461
11
204.227
21
-138.182
0
LINE
8
BLACK
6
CONTINUOUS
10
204.227
20
-138.182
11
204.169
21
-137.894
0
LINE
8
BLACK
6
CONTINUOUS
10
204.169
20
-137.894
11
204.15
21
-137.6
0
LINE
8
BLACK
6
CONTINUOUS
10
204.15
20
-137.6
11
204.169
21
-137.306
0
LINE
8
BLACK
6
CONTINUOUS
10
204.169
20
-137.306
11
204.227
21
-137.018
0
LINE
8
BLACK
6
CONTINUOUS
10
204.227
20
-137.018
11
204.321
21
-136.739
0
LINE
8
BLACK
6
CONTINUOUS
10
204.321
20
-136.739
11
204.451
21
-136.475
0
LINE
8
BLACK
6
CONTINUOUS
10
204.451
20
-136.475
11
204.615
21
-136.23
0
LINE
8
BLACK
6
CONTINUOUS
10
204.615
20
-136.23
11
204.809
21
-136.009
0
LINE
8
BLACK
6
CONTINUOUS
10
204.809
20
-136.009
11
205.03
21
-135.815
0
LINE
8
BLACK
6
CONTINUOUS
10
205.03
20
-135.815
11
205.275
21
-135.651
0
LINE
8
BLACK
6
CONTINUOUS
10
205.275
20
-135.651
11
205.539
21
-135.521
0
LINE
8
BLACK
6
CONTINUOUS
10
205.539
20
-135.521
11
205.818
21
-135.427
0
LINE
8
BLACK
6
CONTINUOUS
10
205.818
20
-135.427
11
206.106
21
-135.369
0
LINE
8
BLACK
6
CONTINUOUS
10
206.106
20
-135.369
11
206.4
21
-135.35
0
LINE
8
BLACK
6
CONTINUOUS
10
206.4
20
-135.35
11
206.694
21
-135.369
0
LINE
8
BLACK
6
CONTINUOUS
10
85.1937
20
-117.269
11
85.4823
21
-117.327
0
LINE
8
BLACK
6
CONTINUOUS
10
85.4823
20
-117.327
11
85.761
21
-117.421
0
LINE
8
BLACK
6
CONTINUOUS
10
85.761
20
-117.421
11
86.025
21
-117.551
0
LINE
8
BLACK
6
CONTINUOUS
10
86.025
20
-117.551
11
86.2697
21
-117.715
0
LINE
8
BLACK
6
CONTINUOUS
10
86.2697
20
-117.715
11
86.491
21
-117.909
0
LINE
8
BLACK
6
CONTINUOUS
10
86.491
20
-117.909
11
86.685
21
-118.13
0
LINE
8
BLACK
6
CONTINUOUS
10
86.685
20
-118.13
11
86.8486
21
-118.375
0
LINE
8
BLACK
6
CONTINUOUS
10
86.8486
20
-118.375
11
86.9787
21
-118.639
0
LINE
8
BLACK
6
CONTINUOUS
10
86.9787
20
-118.639
11
87.0733
21
-118.918
0
LINE
8
BLACK
6
CONTINUOUS
10
87.0733
20
-118.918
11
87.1308
21
-119.206
0
LINE
8
BLACK
6
CONTINUOUS
10
87.1308
20
-119.206
11
87.15
21
-119.5
0
LINE
8
BLACK
6
CONTINUOUS
10
87.15
20
-119.5
11
87.1308
21
-119.794
0
LINE
8
BLACK
6
CONTINUOUS
10
87.1308
20
-119.794
11
87.0733
21
-120.082
0
LINE
8
BLACK
6
CONTINUOUS
10
87.0733
20
-120.082
11
86.9787
21
-120.361
0
LINE
8
BLACK
6
CONTINUOUS
10
86.9787
20
-120.361
11
86.8486
21
-120.625
0
LINE
8
BLACK
6
CONTINUOUS
10
86.8486
20
-120.625
11
86.685
21
-120.87
0
LINE
8
BLACK
6
CONTINUOUS
10
86.685
20
-120.87
11
86.491
21
-121.091
0
LINE
8
BLACK
6
CONTINUOUS
10
86.491
20
-121.091
11
86.2697
21
-121.285
0
LINE
8
BLACK
6
CONTINUOUS
10
86.2697
20
-121.285
11
86.025
21
-121.449
0
LINE
8
BLACK
6
CONTINUOUS
10
86.025
20
-121.449
11
85.761
21
-121.579
0
LINE
8
BLACK
6
CONTINUOUS
10
85.761
20
-121.579
11
85.4823
21
-121.673
0
LINE
8
BLACK
6
CONTINUOUS
10
85.4823
20
-121.673
11
85.1937
21
-121.731
0
LINE
8
BLACK
6
CONTINUOUS
10
85.1937
20
-121.731
11
84.9
21
-121.75
0
LINE
8
BLACK
6
CONTINUOUS
10
84.9
20
-121.75
11
84.6063
21
-121.731
0
LINE
8
BLACK
6
CONTINUOUS
10
84.6063
20
-121.731
11
84.3177
21
-121.673
0
LINE
8
BLACK
6
CONTINUOUS
10
84.3177
20
-121.673
11
84.039
21
-121.579
0
LINE
8
BLACK
6
CONTINUOUS
10
84.039
20
-121.579
11
83.775
21
-121.449
0
LINE
8
BLACK
6
CONTINUOUS
10
83.775
20
-121.449
11
83.5303
21
-121.285
0
LINE
8
BLACK
6
CONTINUOUS
10
83.5303
20
-121.285
11
83.309
21
-121.091
0
LINE
8
BLACK
6
CONTINUOUS
10
83.309
20
-121.091
11
83.115
21
-120.87
0
LINE
8
BLACK
6
CONTINUOUS
10
83.115
20
-120.87
11
82.9514
21
-120.625
0
LINE
8
BLACK
6
CONTINUOUS
10
82.9514
20
-120.625
11
82.8213
21
-120.361
0
LINE
8
BLACK
6
CONTINUOUS
10
82.8213
20
-120.361
11
82.7267
21
-120.082
0
LINE
8
BLACK
6
CONTINUOUS
10
82.7267
20
-120.082
11
82.6692
21
-119.794
0
LINE
8
BLACK
6
CONTINUOUS
10
82.6692
20
-119.794
11
82.65
21
-119.5
0
LINE
8
BLACK
6
CONTINUOUS
10
82.65
20
-119.5
11
82.6692
21
-119.206
0
LINE
8
BLACK
6
CONTINUOUS
10
82.6692
20
-119.206
11
82.7267
21
-118.918
0
LINE
8
BLACK
6
CONTINUOUS
10
82.7267
20
-118.918
11
82.8213
21
-118.639
0
LINE
8
BLACK
6
CONTINUOUS
10
82.8213
20
-118.639
11
82.9514
21
-118.375
0
LINE
8
BLACK
6
CONTINUOUS
10
82.9514
20
-118.375
11
83.115
21
-118.13
0
LINE
8
BLACK
6
CONTINUOUS
10
83.115
20
-118.13
11
83.309
21
-117.909
0
LINE
8
BLACK
6
CONTINUOUS
10
83.309
20
-117.909
11
83.5303
21
-117.715
0
LINE
8
BLACK
6
CONTINUOUS
10
83.5303
20
-117.715
11
83.775
21
-117.551
0
LINE
8
BLACK
6
CONTINUOUS
10
83.775
20
-117.551
11
84.039
21
-117.421
0
LINE
8
BLACK
6
CONTINUOUS
10
84.039
20
-117.421
11
84.3177
21
-117.327
0
LINE
8
BLACK
6
CONTINUOUS
10
84.3177
20
-117.327
11
84.6063
21
-117.269
0
LINE
8
BLACK
6
CONTINUOUS
10
84.6063
20
-117.269
11
84.9
21
-117.25
0
LINE
8
BLACK
6
CONTINUOUS
10
84.9
20
-117.25
11
85.1937
21
-117.269
0
LINE
8
BLACK
6
CONTINUOUS
10
187.62
20
-114.356
11
187.827
21
-114.397
0
LINE
8
BLACK
6
CONTINUOUS
10
187.827
20
-114.397
11
188.022
21
-114.475
0
LINE
8
BLACK
6
CONTINUOUS
10
188.022
20
-114.475
11
188.2
21
-114.588
0
LINE
8
BLACK
6
CONTINUOUS
10
188.2
20
-114.588
11
188.355
21
-114.73
0
LINE
8
BLACK
6
CONTINUOUS
10
188.355
20
-114.73
11
188.481
21
-114.899
0
LINE
8
BLACK
6
CONTINUOUS
10
188.481
20
-114.899
11
188.574
21
-115.088
0
LINE
8
BLACK
6
CONTINUOUS
10
188.574
20
-115.088
11
188.631
21
-115.29
0
LINE
8
BLACK
6
CONTINUOUS
10
188.631
20
-115.29
11
188.65
21
-115.5
0
LINE
8
BLACK
6
CONTINUOUS
10
188.65
20
-115.5
11
188.648
21
-115.56
0
LINE
8
BLACK
6
CONTINUOUS
10
188.648
20
-115.56
11
188.618
21
-115.768
0
LINE
8
BLACK
6
CONTINUOUS
10
188.618
20
-115.768
11
188.551
21
-115.968
0
LINE
8
BLACK
6
CONTINUOUS
10
188.551
20
-115.968
11
188.448
21
-116.151
0
LINE
8
BLACK
6
CONTINUOUS
10
188.448
20
-116.151
11
188.313
21
-116.313
0
LINE
8
BLACK
6
CONTINUOUS
10
188.313
20
-116.313
11
188.151
21
-116.448
0
LINE
8
BLACK
6
CONTINUOUS
10
188.151
20
-116.448
11
187.968
21
-116.551
0
LINE
8
BLACK
6
CONTINUOUS
10
187.968
20
-116.551
11
187.768
21
-116.618
0
LINE
8
BLACK
6
CONTINUOUS
10
187.768
20
-116.618
11
187.56
21
-116.648
0
LINE
8
BLACK
6
CONTINUOUS
10
187.56
20
-116.648
11
187.35
21
-116.64
0
LINE
8
BLACK
6
CONTINUOUS
10
187.35
20
-116.64
11
187.145
21
-116.594
0
LINE
8
BLACK
6
CONTINUOUS
10
187.145
20
-116.594
11
186.951
21
-116.511
0
LINE
8
BLACK
6
CONTINUOUS
10
186.951
20
-116.511
11
186.776
21
-116.394
0
LINE
8
BLACK
6
CONTINUOUS
10
186.776
20
-116.394
11
186.626
21
-116.247
0
LINE
8
BLACK
6
CONTINUOUS
10
186.626
20
-116.247
11
186.504
21
-116.075
0
LINE
8
BLACK
6
CONTINUOUS
10
186.504
20
-116.075
11
186.416
21
-115.884
0
LINE
8
BLACK
6
CONTINUOUS
10
186.416
20
-115.884
11
186.364
21
-115.68
0
LINE
8
BLACK
6
CONTINUOUS
10
186.364
20
-115.68
11
186.35
21
-115.47
0
LINE
8
BLACK
6
CONTINUOUS
10
186.35
20
-115.47
11
186.375
21
-115.261
0
LINE
8
BLACK
6
CONTINUOUS
10
186.375
20
-115.261
11
186.438
21
-115.06
0
LINE
8
BLACK
6
CONTINUOUS
10
186.438
20
-115.06
11
186.536
21
-114.874
0
LINE
8
BLACK
6
CONTINUOUS
10
186.536
20
-114.874
11
186.666
21
-114.708
0
LINE
8
BLACK
6
CONTINUOUS
10
186.666
20
-114.708
11
186.824
21
-114.57
0
LINE
8
BLACK
6
CONTINUOUS
10
186.824
20
-114.57
11
187.005
21
-114.462
0
LINE
8
BLACK
6
CONTINUOUS
10
187.005
20
-114.462
11
187.202
21
-114.389
0
LINE
8
BLACK
6
CONTINUOUS
10
187.202
20
-114.389
11
187.41
21
-114.354
0
LINE
8
BLACK
6
CONTINUOUS
10
187.41
20
-114.354
11
187.62
21
-114.356
0
LINE
8
BLACK
6
CONTINUOUS
10
136.12
20
-100.356
11
136.327
21
-100.397
0
LINE
8
BLACK
6
CONTINUOUS
10
136.327
20
-100.397
11
136.522
21
-100.475
0
LINE
8
BLACK
6
CONTINUOUS
10
136.522
20
-100.475
11
136.7
21
-100.588
0
LINE
8
BLACK
6
CONTINUOUS
10
136.7
20
-100.588
11
136.855
21
-100.73
0
LINE
8
BLACK
6
CONTINUOUS
10
136.855
20
-100.73
11
136.981
21
-100.899
0
LINE
8
BLACK
6
CONTINUOUS
10
136.981
20
-100.899
11
137.074
21
-101.088
0
LINE
8
BLACK
6
CONTINUOUS
10
137.074
20
-101.088
11
137.131
21
-101.29
0
LINE
8
BLACK
6
CONTINUOUS
10
137.131
20
-101.29
11
137.15
21
-101.5
0
LINE
8
BLACK
6
CONTINUOUS
10
137.15
20
-101.5
11
137.148
21
-101.56
0
LINE
8
BLACK
6
CONTINUOUS
10
137.148
20
-101.56
11
137.118
21
-101.768
0
LINE
8
BLACK
6
CONTINUOUS
10
137.118
20
-101.768
11
137.051
21
-101.968
0
LINE
8
BLACK
6
CONTINUOUS
10
137.051
20
-101.968
11
136.948
21
-102.151
0
LINE
8
BLACK
6
CONTINUOUS
10
136.948
20
-102.151
11
136.813
21
-102.313
0
LINE
8
BLACK
6
CONTINUOUS
10
136.813
20
-102.313
11
136.651
21
-102.448
0
LINE
8
BLACK
6
CONTINUOUS
10
136.651
20
-102.448
11
136.468
21
-102.551
0
LINE
8
BLACK
6
CONTINUOUS
10
136.468
20
-102.551
11
136.268
21
-102.618
0
LINE
8
BLACK
6
CONTINUOUS
10
136.268
20
-102.618
11
136.06
21
-102.648
0
LINE
8
BLACK
6
CONTINUOUS
10
136.06
20
-102.648
11
135.85
21
-102.64
0
LINE
8
BLACK
6
CONTINUOUS
10
135.85
20
-102.64
11
135.645
21
-102.594
0
LINE
8
BLACK
6
CONTINUOUS
10
135.645
20
-102.594
11
135.451
21
-102.511
0
LINE
8
BLACK
6
CONTINUOUS
10
135.451
20
-102.511
11
135.276
21
-102.394
0
LINE
8
BLACK
6
CONTINUOUS
10
135.276
20
-102.394
11
135.126
21
-102.247
0
LINE
8
BLACK
6
CONTINUOUS
10
135.126
20
-102.247
11
135.004
21
-102.075
0
LINE
8
BLACK
6
CONTINUOUS
10
135.004
20
-102.075
11
134.916
21
-101.884
0
LINE
8
BLACK
6
CONTINUOUS
10
134.916
20
-101.884
11
134.864
21
-101.68
0
LINE
8
BLACK
6
CONTINUOUS
10
134.864
20
-101.68
11
134.85
21
-101.47
0
LINE
8
BLACK
6
CONTINUOUS
10
134.85
20
-101.47
11
134.875
21
-101.261
0
LINE
8
BLACK
6
CONTINUOUS
10
134.875
20
-101.261
11
134.938
21
-101.06
0
LINE
8
BLACK
6
CONTINUOUS
10
134.938
20
-101.06
11
135.036
21
-100.874
0
LINE
8
BLACK
6
CONTINUOUS
10
135.036
20
-100.874
11
135.166
21
-100.708
0
LINE
8
BLACK
6
CONTINUOUS
10
135.166
20
-100.708
11
135.324
21
-100.57
0
LINE
8
BLACK
6
CONTINUOUS
10
135.324
20
-100.57
11
135.505
21
-100.462
0
LINE
8
BLACK
6
CONTINUOUS
10
135.505
20
-100.462
11
135.702
21
-100.389
0
LINE
8
BLACK
6
CONTINUOUS
10
135.702
20
-100.389
11
135.91
21
-100.354
0
LINE
8
BLACK
6
CONTINUOUS
10
135.91
20
-100.354
11
136.12
21
-100.356
0
LINE
8
BLACK
6
CONTINUOUS
10
95.3702
20
-92.1063
11
95.5766
21
-92.1474
0
LINE
8
BLACK
6
CONTINUOUS
10
95.5766
20
-92.1474
11
95.7721
21
-92.2253
0
LINE
8
BLACK
6
CONTINUOUS
10
95.7721
20
-92.2253
11
95.9501
21
-92.3376
0
LINE
8
BLACK
6
CONTINUOUS
10
95.9501
20
-92.3376
11
96.1046
21
-92.4805
0
LINE
8
BLACK
6
CONTINUOUS
10
96.1046
20
-92.4805
11
96.2305
21
-92.6491
0
LINE
8
BLACK
6
CONTINUOUS
10
96.2305
20
-92.6491
11
96.3236
21
-92.8379
0
LINE
8
BLACK
6
CONTINUOUS
10
96.3236
20
-92.8379
11
96.3807
21
-93.0404
0
LINE
8
BLACK
6
CONTINUOUS
10
96.3807
20
-93.0404
11
96.4
21
-93.25
0
LINE
8
BLACK
6
CONTINUOUS
10
96.4
20
-93.25
11
96.3984
21
-93.3102
0
LINE
8
BLACK
6
CONTINUOUS
10
96.3984
20
-93.3102
11
96.3682
21
-93.5185
0
LINE
8
BLACK
6
CONTINUOUS
10
96.3682
20
-93.5185
11
96.3006
21
-93.7177
0
LINE
8
BLACK
6
CONTINUOUS
10
96.3006
20
-93.7177
11
96.1977
21
-93.9014
0
LINE
8
BLACK
6
CONTINUOUS
10
96.1977
20
-93.9014
11
96.0632
21
-94.0632
0
LINE
8
BLACK
6
CONTINUOUS
10
96.0632
20
-94.0632
11
95.9014
21
-94.1977
0
LINE
8
BLACK
6
CONTINUOUS
10
95.9014
20
-94.1977
11
95.7177
21
-94.3006
0
LINE
8
BLACK
6
CONTINUOUS
10
95.7177
20
-94.3006
11
95.5185
21
-94.3682
0
LINE
8
BLACK
6
CONTINUOUS
10
95.5185
20
-94.3682
11
95.3102
21
-94.3984
0
LINE
8
BLACK
6
CONTINUOUS
10
95.3102
20
-94.3984
11
95.0999
21
-94.3902
0
LINE
8
BLACK
6
CONTINUOUS
10
95.0999
20
-94.3902
11
94.8946
21
-94.3437
0
LINE
8
BLACK
6
CONTINUOUS
10
94.8946
20
-94.3437
11
94.7013
21
-94.2606
0
LINE
8
BLACK
6
CONTINUOUS
10
94.7013
20
-94.2606
11
94.5263
21
-94.1437
0
LINE
8
BLACK
6
CONTINUOUS
10
94.5263
20
-94.1437
11
94.3755
21
-93.9969
0
LINE
8
BLACK
6
CONTINUOUS
10
94.3755
20
-93.9969
11
94.2541
21
-93.825
0
LINE
8
BLACK
6
CONTINUOUS
10
94.2541
20
-93.825
11
94.166
21
-93.6339
0
LINE
8
BLACK
6
CONTINUOUS
10
94.166
20
-93.6339
11
94.1142
21
-93.4299
0
LINE
8
BLACK
6
CONTINUOUS
10
94.1142
20
-93.4299
11
94.1004
21
-93.2199
0
LINE
8
BLACK
6
CONTINUOUS
10
94.1004
20
-93.2199
11
94.1251
21
-93.0109
0
LINE
8
BLACK
6
CONTINUOUS
10
94.1251
20
-93.0109
11
94.1875
21
-92.8099
0
LINE
8
BLACK
6
CONTINUOUS
10
94.1875
20
-92.8099
11
94.2855
21
-92.6237
0
LINE
8
BLACK
6
CONTINUOUS
10
94.2855
20
-92.6237
11
94.4158
21
-92.4584
0
LINE
8
BLACK
6
CONTINUOUS
10
94.4158
20
-92.4584
11
94.574
21
-92.3196
0
LINE
8
BLACK
6
CONTINUOUS
10
94.574
20
-92.3196
11
94.7549
21
-92.212
0
LINE
8
BLACK
6
CONTINUOUS
10
94.7549
20
-92.212
11
94.9524
21
-92.1392
0
LINE
8
BLACK
6
CONTINUOUS
10
94.9524
20
-92.1392
11
95.1598
21
-92.1035
0
LINE
8
BLACK
6
CONTINUOUS
10
95.1598
20
-92.1035
11
95.3702
21
-92.1063
0
LINE
8
BLACK
6
CONTINUOUS
10
196.62
20
-75.3563
11
196.827
21
-75.3974
0
LINE
8
BLACK
6
CONTINUOUS
10
196.827
20
-75.3974
11
197.022
21
-75.4753
0
LINE
8
BLACK
6
CONTINUOUS
10
197.022
20
-75.4753
11
197.2
21
-75.5876
0
LINE
8
BLACK
6
CONTINUOUS
10
197.2
20
-75.5876
11
197.355
21
-75.7305
0
LINE
8
BLACK
6
CONTINUOUS
10
197.355
20
-75.7305
11
197.481
21
-75.8991
0
LINE
8
BLACK
6
CONTINUOUS
10
197.481
20
-75.8991
11
197.574
21
-76.0879
0
LINE
8
BLACK
6
CONTINUOUS
10
197.574
20
-76.0879
11
197.631
21
-76.2904
0
LINE
8
BLACK
6
CONTINUOUS
10
197.631
20
-76.2904
11
197.65
21
-76.5
0
LINE
8
BLACK
6
CONTINUOUS
10
197.65
20
-76.5
11
197.648
21
-76.5602
0
LINE
8
BLACK
6
CONTINUOUS
10
197.648
20
-76.5602
11
197.618
21
-76.7685
0
LINE
8
BLACK
6
CONTINUOUS
10
197.618
20
-76.7685
11
197.551
21
-76.9677
0
LINE
8
BLACK
6
CONTINUOUS
10
197.551
20
-76.9677
11
197.448
21
-77.1514
0
LINE
8
BLACK
6
CONTINUOUS
10
197.448
20
-77.1514
11
197.313
21
-77.3132
0
LINE
8
BLACK
6
CONTINUOUS
10
197.313
20
-77.3132
11
197.151
21
-77.4477
0
LINE
8
BLACK
6
CONTINUOUS
10
197.151
20
-77.4477
11
196.968
21
-77.5506
0
LINE
8
BLACK
6
CONTINUOUS
10
196.968
20
-77.5506
11
196.768
21
-77.6182
0
LINE
8
BLACK
6
CONTINUOUS
10
196.768
20
-77.6182
11
196.56
21
-77.6484
0
LINE
8
BLACK
6
CONTINUOUS
10
196.56
20
-77.6484
11
196.35
21
-77.6402
0
LINE
8
BLACK
6
CONTINUOUS
10
196.35
20
-77.6402
11
196.145
21
-77.5937
0
LINE
8
BLACK
6
CONTINUOUS
10
196.145
20
-77.5937
11
195.951
21
-77.5106
0
LINE
8
BLACK
6
CONTINUOUS
10
195.951
20
-77.5106
11
195.776
21
-77.3937
0
LINE
8
BLACK
6
CONTINUOUS
10
195.776
20
-77.3937
11
195.626
21
-77.2469
0
LINE
8
BLACK
6
CONTINUOUS
10
195.626
20
-77.2469
11
195.504
21
-77.075
0
LINE
8
BLACK
6
CONTINUOUS
10
195.504
20
-77.075
11
195.416
21
-76.8839
0
LINE
8
BLACK
6
CONTINUOUS
10
195.416
20
-76.8839
11
195.364
21
-76.6799
0
LINE
8
BLACK
6
CONTINUOUS
10
195.364
20
-76.6799
11
195.35
21
-76.4699
0
LINE
8
BLACK
6
CONTINUOUS
10
195.35
20
-76.4699
11
195.375
21
-76.2609
0
LINE
8
BLACK
6
CONTINUOUS
10
195.375
20
-76.2609
11
195.438
21
-76.0599
0
LINE
8
BLACK
6
CONTINUOUS
10
195.438
20
-76.0599
11
195.536
21
-75.8737
0
LINE
8
BLACK
6
CONTINUOUS
10
195.536
20
-75.8737
11
195.666
21
-75.7084
0
LINE
8
BLACK
6
CONTINUOUS
10
195.666
20
-75.7084
11
195.824
21
-75.5696
0
LINE
8
BLACK
6
CONTINUOUS
10
195.824
20
-75.5696
11
196.005
21
-75.462
0
LINE
8
BLACK
6
CONTINUOUS
10
196.005
20
-75.462
11
196.202
21
-75.3892
0
LINE
8
BLACK
6
CONTINUOUS
10
196.202
20
-75.3892
11
196.41
21
-75.3535
0
LINE
8
BLACK
6
CONTINUOUS
10
196.41
20
-75.3535
11
196.62
21
-75.3563
0
LINE
8
BLACK
6
CONTINUOUS
10
205.37
20
-75.3563
11
205.577
21
-75.3974
0
LINE
8
BLACK
6
CONTINUOUS
10
205.577
20
-75.3974
11
205.772
21
-75.4753
0
LINE
8
BLACK
6
CONTINUOUS
10
205.772
20
-75.4753
11
205.95
21
-75.5876
0
LINE
8
BLACK
6
CONTINUOUS
10
205.95
20
-75.5876
11
206.105
21
-75.7305
0
LINE
8
BLACK
6
CONTINUOUS
10
206.105
20
-75.7305
11
206.231
21
-75.8991
0
LINE
8
BLACK
6
CONTINUOUS
10
206.231
20
-75.8991
11
206.324
21
-76.0879
0
LINE
8
BLACK
6
CONTINUOUS
10
206.324
20
-76.0879
11
206.381
21
-76.2904
0
LINE
8
BLACK
6
CONTINUOUS
10
206.381
20
-76.2904
11
206.4
21
-76.5
0
LINE
8
BLACK
6
CONTINUOUS
10
206.4
20
-76.5
11
206.398
21
-76.5602
0
LINE
8
BLACK
6
CONTINUOUS
10
206.398
20
-76.5602
11
206.368
21
-76.7685
0
LINE
8
BLACK
6
CONTINUOUS
10
206.368
20
-76.7685
11
206.301
21
-76.9677
0
LINE
8
BLACK
6
CONTINUOUS
10
206.301
20
-76.9677
11
206.198
21
-77.1514
0
LINE
8
BLACK
6
CONTINUOUS
10
206.198
20
-77.1514
11
206.063
21
-77.3132
0
LINE
8
BLACK
6
CONTINUOUS
10
206.063
20
-77.3132
11
205.901
21
-77.4477
0
LINE
8
BLACK
6
CONTINUOUS
10
205.901
20
-77.4477
11
205.718
21
-77.5506
0
LINE
8
BLACK
6
CONTINUOUS
10
205.718
20
-77.5506
11
205.518
21
-77.6182
0
LINE
8
BLACK
6
CONTINUOUS
10
205.518
20
-77.6182
11
205.31
21
-77.6484
0
LINE
8
BLACK
6
CONTINUOUS
10
205.31
20
-77.6484
11
205.1
21
-77.6402
0
LINE
8
BLACK
6
CONTINUOUS
10
205.1
20
-77.6402
11
204.895
21
-77.5937
0
LINE
8
BLACK
6
CONTINUOUS
10
204.895
20
-77.5937
11
204.701
21
-77.5106
0
LINE
8
BLACK
6
CONTINUOUS
10
204.701
20
-77.5106
11
204.526
21
-77.3937
0
LINE
8
BLACK
6
CONTINUOUS
10
204.526
20
-77.3937
11
204.376
21
-77.2469
0
LINE
8
BLACK
6
CONTINUOUS
10
204.376
20
-77.2469
11
204.254
21
-77.075
0
LINE
8
BLACK
6
CONTINUOUS
10
204.254
20
-77.075
11
204.166
21
-76.8839
0
LINE
8
BLACK
6
CONTINUOUS
10
204.166
20
-76.8839
11
204.114
21
-76.6799
0
LINE
8
BLACK
6
CONTINUOUS
10
204.114
20
-76.6799
11
204.1
21
-76.4699
0
LINE
8
BLACK
6
CONTINUOUS
10
204.1
20
-76.4699
11
204.125
21
-76.2609
0
LINE
8
BLACK
6
CONTINUOUS
10
204.125
20
-76.2609
11
204.188
21
-76.0599
0
LINE
8
BLACK
6
CONTINUOUS
10
204.188
20
-76.0599
11
204.286
21
-75.8737
0
LINE
8
BLACK
6
CONTINUOUS
10
204.286
20
-75.8737
11
204.416
21
-75.7084
0
LINE
8
BLACK
6
CONTINUOUS
10
204.416
20
-75.7084
11
204.574
21
-75.5696
0
LINE
8
BLACK
6
CONTINUOUS
10
204.574
20
-75.5696
11
204.755
21
-75.462
0
LINE
8
BLACK
6
CONTINUOUS
10
204.755
20
-75.462
11
204.952
21
-75.3892
0
LINE
8
BLACK
6
CONTINUOUS
10
204.952
20
-75.3892
11
205.16
21
-75.3535
0
LINE
8
BLACK
6
CONTINUOUS
10
205.16
20
-75.3535
11
205.37
21
-75.3563
0
LINE
8
BLACK
6
CONTINUOUS
10
174.12
20
-68.3563
11
174.327
21
-68.3974
0
LINE
8
BLACK
6
CONTINUOUS
10
174.327
20
-68.3974
11
174.522
21
-68.4753
0
LINE
8
BLACK
6
CONTINUOUS
10
174.522
20
-68.4753
11
174.7
21
-68.5876
0
LINE
8
BLACK
6
CONTINUOUS
10
174.7
20
-68.5876
11
174.855
21
-68.7305
0
LINE
8
BLACK
6
CONTINUOUS
10
174.855
20
-68.7305
11
174.981
21
-68.8991
0
LINE
8
BLACK
6
CONTINUOUS
10
174.981
20
-68.8991
11
175.074
21
-69.0879
0
LINE
8
BLACK
6
CONTINUOUS
10
175.074
20
-69.0879
11
175.131
21
-69.2904
0
LINE
8
BLACK
6
CONTINUOUS
10
175.131
20
-69.2904
11
175.15
21
-69.5
0
LINE
8
BLACK
6
CONTINUOUS
10
175.15
20
-69.5
11
175.148
21
-69.5602
0
LINE
8
BLACK
6
CONTINUOUS
10
175.148
20
-69.5602
11
175.118
21
-69.7685
0
LINE
8
BLACK
6
CONTINUOUS
10
175.118
20
-69.7685
11
175.051
21
-69.9677
0
LINE
8
BLACK
6
CONTINUOUS
10
175.051
20
-69.9677
11
174.948
21
-70.1514
0
LINE
8
BLACK
6
CONTINUOUS
10
174.948
20
-70.1514
11
174.813
21
-70.3132
0
LINE
8
BLACK
6
CONTINUOUS
10
174.813
20
-70.3132
11
174.651
21
-70.4477
0
LINE
8
BLACK
6
CONTINUOUS
10
174.651
20
-70.4477
11
174.468
21
-70.5506
0
LINE
8
BLACK
6
CONTINUOUS
10
174.468
20
-70.5506
11
174.268
21
-70.6182
0
LINE
8
BLACK
6
CONTINUOUS
10
174.268
20
-70.6182
11
174.06
21
-70.6484
0
LINE
8
BLACK
6
CONTINUOUS
10
174.06
20
-70.6484
11
173.85
21
-70.6402
0
LINE
8
BLACK
6
CONTINUOUS
10
173.85
20
-70.6402
11
173.645
21
-70.5937
0
LINE
8
BLACK
6
CONTINUOUS
10
173.645
20
-70.5937
11
173.451
21
-70.5106
0
LINE
8
BLACK
6
CONTINUOUS
10
173.451
20
-70.5106
11
173.276
21
-70.3937
0
LINE
8
BLACK
6
CONTINUOUS
10
173.276
20
-70.3937
11
173.126
21
-70.2469
0
LINE
8
BLACK
6
CONTINUOUS
10
173.126
20
-70.2469
11
173.004
21
-70.075
0
LINE
8
BLACK
6
CONTINUOUS
10
173.004
20
-70.075
11
172.916
21
-69.8839
0
LINE
8
BLACK
6
CONTINUOUS
10
172.916
20
-69.8839
11
172.864
21
-69.6799
0
LINE
8
BLACK
6
CONTINUOUS
10
172.864
20
-69.6799
11
172.85
21
-69.4699
0
LINE
8
BLACK
6
CONTINUOUS
10
172.85
20
-69.4699
11
172.875
21
-69.2609
0
LINE
8
BLACK
6
CONTINUOUS
10
172.875
20
-69.2609
11
172.938
21
-69.0599
0
LINE
8
BLACK
6
CONTINUOUS
10
172.938
20
-69.0599
11
173.036
21
-68.8737
0
LINE
8
BLACK
6
CONTINUOUS
10
173.036
20
-68.8737
11
173.166
21
-68.7084
0
LINE
8
BLACK
6
CONTINUOUS
10
173.166
20
-68.7084
11
173.324
21
-68.5696
0
LINE
8
BLACK
6
CONTINUOUS
10
173.324
20
-68.5696
11
173.505
21
-68.462
0
LINE
8
BLACK
6
CONTINUOUS
10
173.505
20
-68.462
11
173.702
21
-68.3892
0
LINE
8
BLACK
6
CONTINUOUS
10
173.702
20
-68.3892
11
173.91
21
-68.3535
0
LINE
8
BLACK
6
CONTINUOUS
10
173.91
20
-68.3535
11
174.12
21
-68.3563
0
LINE
8
BLACK
6
CONTINUOUS
10
80.3937
20
-65.2692
11
80.6823
21
-65.3267
0
LINE
8
BLACK
6
CONTINUOUS
10
80.6823
20
-65.3267
11
80.961
21
-65.4213
0
LINE
8
BLACK
6
CONTINUOUS
10
80.961
20
-65.4213
11
81.225
21
-65.5514
0
LINE
8
BLACK
6
CONTINUOUS
10
81.225
20
-65.5514
11
81.4697
21
-65.715
0
LINE
8
BLACK
6
CONTINUOUS
10
81.4697
20
-65.715
11
81.691
21
-65.909
0
LINE
8
BLACK
6
CONTINUOUS
10
81.691
20
-65.909
11
81.885
21
-66.1303
0
LINE
8
BLACK
6
CONTINUOUS
10
81.885
20
-66.1303
11
82.0486
21
-66.375
0
LINE
8
BLACK
6
CONTINUOUS
10
82.0486
20
-66.375
11
82.1787
21
-66.639
0
LINE
8
BLACK
6
CONTINUOUS
10
82.1787
20
-66.639
11
82.2733
21
-66.9177
0
LINE
8
BLACK
6
CONTINUOUS
10
82.2733
20
-66.9177
11
82.3308
21
-67.2063
0
LINE
8
BLACK
6
CONTINUOUS
10
82.3308
20
-67.2063
11
82.35
21
-67.5
0
LINE
8
BLACK
6
CONTINUOUS
10
82.35
20
-67.5
11
82.3308
21
-67.7937
0
LINE
8
BLACK
6
CONTINUOUS
10
82.3308
20
-67.7937
11
82.2733
21
-68.0823
0
LINE
8
BLACK
6
CONTINUOUS
10
82.2733
20
-68.0823
11
82.1787
21
-68.361
0
LINE
8
BLACK
6
CONTINUOUS
10
82.1787
20
-68.361
11
82.0486
21
-68.625
0
LINE
8
BLACK
6
CONTINUOUS
10
82.0486
20
-68.625
11
81.885
21
-68.8697
0
LINE
8
BLACK
6
CONTINUOUS
10
81.885
20
-68.8697
11
81.691
21
-69.091
0
LINE
8
BLACK
6
CONTINUOUS
10
81.691
20
-69.091
11
81.4697
21
-69.285
0
LINE
8
BLACK
6
CONTINUOUS
10
81.4697
20
-69.285
11
81.225
21
-69.4486
0
LINE
8
BLACK
6
CONTINUOUS
10
81.225
20
-69.4486
11
80.961
21
-69.5787
0
LINE
8
BLACK
6
CONTINUOUS
10
80.961
20
-69.5787
11
80.6823
21
-69.6733
0
LINE
8
BLACK
6
CONTINUOUS
10
80.6823
20
-69.6733
11
80.3937
21
-69.7308
0
LINE
8
BLACK
6
CONTINUOUS
10
80.3937
20
-69.7308
11
80.1
21
-69.75
0
LINE
8
BLACK
6
CONTINUOUS
10
80.1
20
-69.75
11
79.8063
21
-69.7308
0
LINE
8
BLACK
6
CONTINUOUS
10
79.8063
20
-69.7308
11
79.5177
21
-69.6733
0
LINE
8
BLACK
6
CONTINUOUS
10
79.5177
20
-69.6733
11
79.239
21
-69.5787
0
LINE
8
BLACK
6
CONTINUOUS
10
79.239
20
-69.5787
11
78.975
21
-69.4486
0
LINE
8
BLACK
6
CONTINUOUS
10
78.975
20
-69.4486
11
78.7303
21
-69.285
0
LINE
8
BLACK
6
CONTINUOUS
10
78.7303
20
-69.285
11
78.509
21
-69.091
0
LINE
8
BLACK
6
CONTINUOUS
10
78.509
20
-69.091
11
78.315
21
-68.8697
0
LINE
8
BLACK
6
CONTINUOUS
10
78.315
20
-68.8697
11
78.1514
21
-68.625
0
LINE
8
BLACK
6
CONTINUOUS
10
78.1514
20
-68.625
11
78.0213
21
-68.361
0
LINE
8
BLACK
6
CONTINUOUS
10
78.0213
20
-68.361
11
77.9267
21
-68.0823
0
LINE
8
BLACK
6
CONTINUOUS
10
77.9267
20
-68.0823
11
77.8692
21
-67.7937
0
LINE
8
BLACK
6
CONTINUOUS
10
77.8692
20
-67.7937
11
77.85
21
-67.5
0
LINE
8
BLACK
6
CONTINUOUS
10
77.85
20
-67.5
11
77.8692
21
-67.2063
0
LINE
8
BLACK
6
CONTINUOUS
10
77.8692
20
-67.2063
11
77.9267
21
-66.9177
0
LINE
8
BLACK
6
CONTINUOUS
10
77.9267
20
-66.9177
11
78.0213
21
-66.639
0
LINE
8
BLACK
6
CONTINUOUS
10
78.0213
20
-66.639
11
78.1514
21
-66.375
0
LINE
8
BLACK
6
CONTINUOUS
10
78.1514
20
-66.375
11
78.315
21
-66.1303
0
LINE
8
BLACK
6
CONTINUOUS
10
78.315
20
-66.1303
11
78.509
21
-65.909
0
LINE
8
BLACK
6
CONTINUOUS
10
78.509
20
-65.909
11
78.7303
21
-65.715
0
LINE
8
BLACK
6
CONTINUOUS
10
78.7303
20
-65.715
11
78.975
21
-65.5514
0
LINE
8
BLACK
6
CONTINUOUS
10
78.975
20
-65.5514
11
79.239
21
-65.4213
0
LINE
8
BLACK
6
CONTINUOUS
10
79.239
20
-65.4213
11
79.5177
21
-65.3267
0
LINE
8
BLACK
6
CONTINUOUS
10
79.5177
20
-65.3267
11
79.8063
21
-65.2692
0
LINE
8
BLACK
6
CONTINUOUS
10
79.8063
20
-65.2692
11
80.1
21
-65.25
0
LINE
8
BLACK
6
CONTINUOUS
10
80.1
20
-65.25
11
80.3937
21
-65.2692
0
LINE
8
BLACK
6
CONTINUOUS
10
114.92
20
-65.8563
11
115.127
21
-65.8974
0
LINE
8
BLACK
6
CONTINUOUS
10
115.127
20
-65.8974
11
115.322
21
-65.9753
0
LINE
8
BLACK
6
CONTINUOUS
10
115.322
20
-65.9753
11
115.5
21
-66.0876
0
LINE
8
BLACK
6
CONTINUOUS
10
115.5
20
-66.0876
11
115.655
21
-66.2305
0
LINE
8
BLACK
6
CONTINUOUS
10
115.655
20
-66.2305
11
115.781
21
-66.3991
0
LINE
8
BLACK
6
CONTINUOUS
10
115.781
20
-66.3991
11
115.874
21
-66.5879
0
LINE
8
BLACK
6
CONTINUOUS
10
115.874
20
-66.5879
11
115.931
21
-66.7904
0
LINE
8
BLACK
6
CONTINUOUS
10
115.931
20
-66.7904
11
115.95
21
-67
0
LINE
8
BLACK
6
CONTINUOUS
10
115.95
20
-67
11
115.948
21
-67.0602
0
LINE
8
BLACK
6
CONTINUOUS
10
115.948
20
-67.0602
11
115.918
21
-67.2685
0
LINE
8
BLACK
6
CONTINUOUS
10
115.918
20
-67.2685
11
115.851
21
-67.4677
0
LINE
8
BLACK
6
CONTINUOUS
10
115.851
20
-67.4677
11
115.748
21
-67.6514
0
LINE
8
BLACK
6
CONTINUOUS
10
115.748
20
-67.6514
11
115.613
21
-67.8132
0
LINE
8
BLACK
6
CONTINUOUS
10
115.613
20
-67.8132
11
115.451
21
-67.9477
0
LINE
8
BLACK
6
CONTINUOUS
10
115.451
20
-67.9477
11
115.268
21
-68.0506
0
LINE
8
BLACK
6
CONTINUOUS
10
115.268
20
-68.0506
11
115.068
21
-68.1182
0
LINE
8
BLACK
6
CONTINUOUS
10
115.068
20
-68.1182
11
114.86
21
-68.1484
0
LINE
8
BLACK
6
CONTINUOUS
10
114.86
20
-68.1484
11
114.65
21
-68.1402
0
LINE
8
BLACK
6
CONTINUOUS
10
114.65
20
-68.1402
11
114.445
21
-68.0937
0
LINE
8
BLACK
6
CONTINUOUS
10
114.445
20
-68.0937
11
114.251
21
-68.0106
0
LINE
8
BLACK
6
CONTINUOUS
10
114.251
20
-68.0106
11
114.076
21
-67.8937
0
LINE
8
BLACK
6
CONTINUOUS
10
114.076
20
-67.8937
11
113.926
21
-67.7469
0
LINE
8
BLACK
6
CONTINUOUS
10
113.926
20
-67.7469
11
113.804
21
-67.575
0
LINE
8
BLACK
6
CONTINUOUS
10
113.804
20
-67.575
11
113.716
21
-67.3839
0
LINE
8
BLACK
6
CONTINUOUS
10
113.716
20
-67.3839
11
113.664
21
-67.1799
0
LINE
8
BLACK
6
CONTINUOUS
10
113.664
20
-67.1799
11
113.65
21
-66.9699
0
LINE
8
BLACK
6
CONTINUOUS
10
113.65
20
-66.9699
11
113.675
21
-66.7609
0
LINE
8
BLACK
6
CONTINUOUS
10
113.675
20
-66.7609
11
113.738
21
-66.5599
0
LINE
8
BLACK
6
CONTINUOUS
10
113.738
20
-66.5599
11
113.836
21
-66.3737
0
LINE
8
BLACK
6
CONTINUOUS
10
113.836
20
-66.3737
11
113.966
21
-66.2084
0
LINE
8
BLACK
6
CONTINUOUS
10
113.966
20
-66.2084
11
114.124
21
-66.0696
0
LINE
8
BLACK
6
CONTINUOUS
10
114.124
20
-66.0696
11
114.305
21
-65.962
0
LINE
8
BLACK
6
CONTINUOUS
10
114.305
20
-65.962
11
114.502
21
-65.8892
0
LINE
8
BLACK
6
CONTINUOUS
10
114.502
20
-65.8892
11
114.71
21
-65.8535
0
LINE
8
BLACK
6
CONTINUOUS
10
114.71
20
-65.8535
11
114.92
21
-65.8563
0
LINE
8
BLACK
6
CONTINUOUS
10
206.794
20
-44.7692
11
207.082
21
-44.8267
0
LINE
8
BLACK
6
CONTINUOUS
10
207.082
20
-44.8267
11
207.361
21
-44.9213
0
LINE
8
BLACK
6
CONTINUOUS
10
207.361
20
-44.9213
11
207.625
21
-45.0514
0
LINE
8
BLACK
6
CONTINUOUS
10
207.625
20
-45.0514
11
207.87
21
-45.215
0
LINE
8
BLACK
6
CONTINUOUS
10
207.87
20
-45.215
11
208.091
21
-45.409
0
LINE
8
BLACK
6
CONTINUOUS
10
208.091
20
-45.409
11
208.285
21
-45.6303
0
LINE
8
BLACK
6
CONTINUOUS
10
208.285
20
-45.6303
11
208.449
21
-45.875
0
LINE
8
BLACK
6
CONTINUOUS
10
208.449
20
-45.875
11
208.579
21
-46.139
0
LINE
8
BLACK
6
CONTINUOUS
10
208.579
20
-46.139
11
208.673
21
-46.4177
0
LINE
8
BLACK
6
CONTINUOUS
10
208.673
20
-46.4177
11
208.731
21
-46.7063
0
LINE
8
BLACK
6
CONTINUOUS
10
208.731
20
-46.7063
11
208.75
21
-47
0
LINE
8
BLACK
6
CONTINUOUS
10
208.75
20
-47
11
208.731
21
-47.2937
0
LINE
8
BLACK
6
CONTINUOUS
10
208.731
20
-47.2937
11
208.673
21
-47.5823
0
LINE
8
BLACK
6
CONTINUOUS
10
208.673
20
-47.5823
11
208.579
21
-47.861
0
LINE
8
BLACK
6
CONTINUOUS
10
208.579
20
-47.861
11
208.449
21
-48.125
0
LINE
8
BLACK
6
CONTINUOUS
10
208.449
20
-48.125
11
208.285
21
-48.3697
0
LINE
8
BLACK
6
CONTINUOUS
10
208.285
20
-48.3697
11
208.091
21
-48.591
0
LINE
8
BLACK
6
CONTINUOUS
10
208.091
20
-48.591
11
207.87
21
-48.785
0
LINE
8
BLACK
6
CONTINUOUS
10
207.87
20
-48.785
11
207.625
21
-48.9486
0
LINE
8
BLACK
6
CONTINUOUS
10
207.625
20
-48.9486
11
207.361
21
-49.0787
0
LINE
8
BLACK
6
CONTINUOUS
10
207.361
20
-49.0787
11
207.082
21
-49.1733
0
LINE
8
BLACK
6
CONTINUOUS
10
207.082
20
-49.1733
11
206.794
21
-49.2308
0
LINE
8
BLACK
6
CONTINUOUS
10
206.794
20
-49.2308
11
206.5
21
-49.25
0
LINE
8
BLACK
6
CONTINUOUS
10
206.5
20
-49.25
11
206.206
21
-49.2308
0
LINE
8
BLACK
6
CONTINUOUS
10
206.206
20
-49.2308
11
205.918
21
-49.1733
0
LINE
8
BLACK
6
CONTINUOUS
10
205.918
20
-49.1733
11
205.639
21
-49.0787
0
LINE
8
BLACK
6
CONTINUOUS
10
205.639
20
-49.0787
11
205.375
21
-48.9486
0
LINE
8
BLACK
6
CONTINUOUS
10
205.375
20
-48.9486
11
205.13
21
-48.785
0
LINE
8
BLACK
6
CONTINUOUS
10
205.13
20
-48.785
11
204.909
21
-48.591
0
LINE
8
BLACK
6
CONTINUOUS
10
204.909
20
-48.591
11
204.715
21
-48.3697
0
LINE
8
BLACK
6
CONTINUOUS
10
204.715
20
-48.3697
11
204.551
21
-48.125
0
LINE
8
BLACK
6
CONTINUOUS
10
204.551
20
-48.125
11
204.421
21
-47.861
0
LINE
8
BLACK
6
CONTINUOUS
10
204.421
20
-47.861
11
204.327
21
-47.5823
0
LINE
8
BLACK
6
CONTINUOUS
10
204.327
20
-47.5823
11
204.269
21
-47.2937
0
LINE
8
BLACK
6
CONTINUOUS
10
204.269
20
-47.2937
11
204.25
21
-47
0
LINE
8
BLACK
6
CONTINUOUS
10
204.25
20
-47
11
204.269
21
-46.7063
0
LINE
8
BLACK
6
CONTINUOUS
10
204.269
20
-46.7063
11
204.327
21
-46.4177
0
LINE
8
BLACK
6
CONTINUOUS
10
204.327
20
-46.4177
11
204.421
21
-46.139
0
LINE
8
BLACK
6
CONTINUOUS
10
204.421
20
-46.139
11
204.551
21
-45.875
0
LINE
8
BLACK
6
CONTINUOUS
10
204.551
20
-45.875
11
204.715
21
-45.6303
0
LINE
8
BLACK
6
CONTINUOUS
10
204.715
20
-45.6303
11
204.909
21
-45.409
0
LINE
8
BLACK
6
CONTINUOUS
10
204.909
20
-45.409
11
205.13
21
-45.215
0
LINE
8
BLACK
6
CONTINUOUS
10
205.13
20
-45.215
11
205.375
21
-45.0514
0
LINE
8
BLACK
6
CONTINUOUS
10
205.375
20
-45.0514
11
205.639
21
-44.9213
0
LINE
8
BLACK
6
CONTINUOUS
10
205.639
20
-44.9213
11
205.918
21
-44.8267
0
LINE
8
BLACK
6
CONTINUOUS
10
205.918
20
-44.8267
11
206.206
21
-44.7692
0
LINE
8
BLACK
6
CONTINUOUS
10
206.206
20
-44.7692
11
206.5
21
-44.75
0
LINE
8
BLACK
6
CONTINUOUS
10
206.5
20
-44.75
11
206.794
21
-44.7692
0
LINE
8
BLACK
6
CONTINUOUS
10
153.437
20
-43.5128
11
153.644
21
-43.5901
0
LINE
8
BLACK
6
CONTINUOUS
10
153.644
20
-43.5901
11
153.838
21
-43.6961
0
LINE
8
BLACK
6
CONTINUOUS
10
153.838
20
-43.6961
11
154.015
21
-43.8286
0
LINE
8
BLACK
6
CONTINUOUS
10
154.015
20
-43.8286
11
154.171
21
-43.985
0
LINE
8
BLACK
6
CONTINUOUS
10
154.171
20
-43.985
11
154.304
21
-44.162
0
LINE
8
BLACK
6
CONTINUOUS
10
154.304
20
-44.162
11
154.41
21
-44.3561
0
LINE
8
BLACK
6
CONTINUOUS
10
154.41
20
-44.3561
11
154.487
21
-44.5633
0
LINE
8
BLACK
6
CONTINUOUS
10
154.487
20
-44.5633
11
154.534
21
-44.7794
0
LINE
8
BLACK
6
CONTINUOUS
10
154.534
20
-44.7794
11
154.55
21
-45
0
LINE
8
BLACK
6
CONTINUOUS
10
154.55
20
-45
11
154.55
21
-46.5
0
LINE
8
BLACK
6
CONTINUOUS
10
154.55
20
-46.5
11
154.546
21
-46.5091
0
LINE
8
BLACK
6
CONTINUOUS
10
154.546
20
-46.5091
11
154.563
21
-46.7275
0
LINE
8
BLACK
6
CONTINUOUS
10
154.563
20
-46.7275
11
154.617
21
-46.9495
0
LINE
8
BLACK
6
CONTINUOUS
10
154.617
20
-46.9495
11
154.704
21
-47.1603
0
LINE
8
BLACK
6
CONTINUOUS
10
154.704
20
-47.1603
11
154.823
21
-47.3549
0
LINE
8
BLACK
6
CONTINUOUS
10
154.823
20
-47.3549
11
154.972
21
-47.5285
0
LINE
8
BLACK
6
CONTINUOUS
10
154.972
20
-47.5285
11
155.145
21
-47.6767
0
LINE
8
BLACK
6
CONTINUOUS
10
155.145
20
-47.6767
11
155.34
21
-47.796
0
LINE
8
BLACK
6
CONTINUOUS
10
155.34
20
-47.796
11
155.551
21
-47.8833
0
LINE
8
BLACK
6
CONTINUOUS
10
155.551
20
-47.8833
11
155.772
21
-47.9366
0
LINE
8
BLACK
6
CONTINUOUS
10
155.772
20
-47.9366
11
155.991
21
-47.9538
0
LINE
8
BLACK
6
CONTINUOUS
10
155.991
20
-47.9538
11
156
21
-47.95
0
LINE
8
BLACK
6
CONTINUOUS
10
156
20
-47.95
11
172
21
-47.95
0
LINE
8
BLACK
6
CONTINUOUS
10
172
20
-47.95
11
172.218
21
-47.9643
0
LINE
8
BLACK
6
CONTINUOUS
10
172.218
20
-47.9643
11
172.433
21
-48.0069
0
LINE
8
BLACK
6
CONTINUOUS
10
172.433
20
-48.0069
11
172.64
21
-48.0771
0
LINE
8
BLACK
6
CONTINUOUS
10
172.64
20
-48.0771
11
172.836
21
-48.1736
0
LINE
8
BLACK
6
CONTINUOUS
10
172.836
20
-48.1736
11
173.018
21
-48.2949
0
LINE
8
BLACK
6
CONTINUOUS
10
173.018
20
-48.2949
11
173.183
21
-48.4389
0
LINE
8
BLACK
6
CONTINUOUS
10
173.183
20
-48.4389
11
173.327
21
-48.6032
0
LINE
8
BLACK
6
CONTINUOUS
10
173.327
20
-48.6032
11
173.449
21
-48.7848
0
LINE
8
BLACK
6
CONTINUOUS
10
173.449
20
-48.7848
11
173.546
21
-48.9808
0
LINE
8
BLACK
6
CONTINUOUS
10
173.546
20
-48.9808
11
173.546
21
-48.9901
0
LINE
8
BLACK
6
CONTINUOUS
10
173.546
20
-48.9901
11
173.647
21
-49.1894
0
LINE
8
BLACK
6
CONTINUOUS
10
173.647
20
-49.1894
11
173.781
21
-49.3788
0
LINE
8
BLACK
6
CONTINUOUS
10
173.781
20
-49.3788
11
173.941
21
-49.5465
0
LINE
8
BLACK
6
CONTINUOUS
10
173.941
20
-49.5465
11
174.124
21
-49.689
0
LINE
8
BLACK
6
CONTINUOUS
10
174.124
20
-49.689
11
174.326
21
-49.8031
0
LINE
8
BLACK
6
CONTINUOUS
10
174.326
20
-49.8031
11
174.542
21
-49.8865
0
LINE
8
BLACK
6
CONTINUOUS
10
174.542
20
-49.8865
11
174.769
21
-49.9372
0
LINE
8
BLACK
6
CONTINUOUS
10
174.769
20
-49.9372
11
174.991
21
-49.9536
0
LINE
8
BLACK
6
CONTINUOUS
10
174.991
20
-49.9536
11
175
21
-49.95
0
LINE
8
BLACK
6
CONTINUOUS
10
175
20
-49.95
11
191
21
-49.95
0
LINE
8
BLACK
6
CONTINUOUS
10
191
20
-49.95
11
191.218
21
-49.9652
0
LINE
8
BLACK
6
CONTINUOUS
10
191.218
20
-49.9652
11
191.432
21
-50.0104
0
LINE
8
BLACK
6
CONTINUOUS
10
191.432
20
-50.0104
11
191.638
21
-50.0849
0
LINE
8
BLACK
6
CONTINUOUS
10
191.638
20
-50.0849
11
191.831
21
-50.1871
0
LINE
8
BLACK
6
CONTINUOUS
10
191.831
20
-50.1871
11
192.008
21
-50.3151
0
LINE
8
BLACK
6
CONTINUOUS
10
192.008
20
-50.3151
11
192.166
21
-50.4664
0
LINE
8
BLACK
6
CONTINUOUS
10
192.166
20
-50.4664
11
192.302
21
-50.6381
0
LINE
8
BLACK
6
CONTINUOUS
10
192.302
20
-50.6381
11
192.412
21
-50.8269
0
LINE
8
BLACK
6
CONTINUOUS
10
192.412
20
-50.8269
11
192.495
21
-51.0292
0
LINE
8
BLACK
6
CONTINUOUS
10
192.495
20
-51.0292
11
192.549
21
-51.241
0
LINE
8
BLACK
6
CONTINUOUS
10
192.549
20
-51.241
11
192.547
21
-51.2503
0
LINE
8
BLACK
6
CONTINUOUS
10
192.547
20
-51.2503
11
192.603
21
-51.4623
0
LINE
8
BLACK
6
CONTINUOUS
10
192.603
20
-51.4623
11
192.695
21
-51.6713
0
LINE
8
BLACK
6
CONTINUOUS
10
192.695
20
-51.6713
11
192.817
21
-51.8638
0
LINE
8
BLACK
6
CONTINUOUS
10
192.817
20
-51.8638
11
192.968
21
-52.035
0
LINE
8
BLACK
6
CONTINUOUS
10
192.968
20
-52.035
11
193.143
21
-52.1811
0
LINE
8
BLACK
6
CONTINUOUS
10
193.143
20
-52.1811
11
193.339
21
-52.2985
0
LINE
8
BLACK
6
CONTINUOUS
10
193.339
20
-52.2985
11
193.55
21
-52.3844
0
LINE
8
BLACK
6
CONTINUOUS
10
193.55
20
-52.3844
11
193.773
21
-52.4367
0
LINE
8
BLACK
6
CONTINUOUS
10
193.773
20
-52.4367
11
193.991
21
-52.4537
0
LINE
8
BLACK
6
CONTINUOUS
10
193.991
20
-52.4537
11
194
21
-52.45
0
LINE
8
BLACK
6
CONTINUOUS
10
194
20
-52.45
11
199
21
-52.45
0
LINE
8
BLACK
6
CONTINUOUS
10
199
20
-52.45
11
199.009
21
-52.4538
0
LINE
8
BLACK
6
CONTINUOUS
10
199.009
20
-52.4538
11
199.228
21
-52.4366
0
LINE
8
BLACK
6
CONTINUOUS
10
199.228
20
-52.4366
11
199.449
21
-52.3833
0
LINE
8
BLACK
6
CONTINUOUS
10
199.449
20
-52.3833
11
199.66
21
-52.296
0
LINE
8
BLACK
6
CONTINUOUS
10
199.66
20
-52.296
11
199.855
21
-52.1767
0
LINE
8
BLACK
6
CONTINUOUS
10
199.855
20
-52.1767
11
200.028
21
-52.0285
0
LINE
8
BLACK
6
CONTINUOUS
10
200.028
20
-52.0285
11
200.177
21
-51.8549
0
LINE
8
BLACK
6
CONTINUOUS
10
200.177
20
-51.8549
11
200.296
21
-51.6603
0
LINE
8
BLACK
6
CONTINUOUS
10
200.296
20
-51.6603
11
200.383
21
-51.4495
0
LINE
8
BLACK
6
CONTINUOUS
10
200.383
20
-51.4495
11
200.437
21
-51.2275
0
LINE
8
BLACK
6
CONTINUOUS
10
200.437
20
-51.2275
11
200.454
21
-51.0091
0
LINE
8
BLACK
6
CONTINUOUS
10
200.454
20
-51.0091
11
200.45
21
-51
0
LINE
8
BLACK
6
CONTINUOUS
10
200.45
20
-51
11
200.45
21
-50.9997
0
LINE
8
BLACK
6
CONTINUOUS
10
200.45
20
-50.9997
11
200.45
21
-50.9994
0
LINE
8
BLACK
6
CONTINUOUS
10
200.45
20
-50.9994
11
200.499
21
-46.9994
0
LINE
8
BLACK
6
CONTINUOUS
10
200.499
20
-46.9994
11
200.499
21
-46.9993
0
LINE
8
BLACK
6
CONTINUOUS
10
200.499
20
-46.9993
11
200.518
21
-46.5253
0
LINE
8
BLACK
6
CONTINUOUS
10
200.518
20
-46.5253
11
200.574
21
-46.0536
0
LINE
8
BLACK
6
CONTINUOUS
10
200.574
20
-46.0536
11
200.666
21
-45.5877
0
LINE
8
BLACK
6
CONTINUOUS
10
200.666
20
-45.5877
11
200.795
21
-45.1304
0
LINE
8
BLACK
6
CONTINUOUS
10
200.795
20
-45.1304
11
200.96
21
-44.6848
0
LINE
8
BLACK
6
CONTINUOUS
10
200.96
20
-44.6848
11
201.158
21
-44.2534
0
LINE
8
BLACK
6
CONTINUOUS
10
201.158
20
-44.2534
11
201.391
21
-43.8389
0
LINE
8
BLACK
6
CONTINUOUS
10
201.391
20
-43.8389
11
201.654
21
-43.4439
0
LINE
8
BLACK
6
CONTINUOUS
10
201.654
20
-43.4439
11
201.949
21
-43.0708
0
LINE
8
BLACK
6
CONTINUOUS
10
201.949
20
-43.0708
11
202.271
21
-42.722
0
LINE
8
BLACK
6
CONTINUOUS
10
202.271
20
-42.722
11
202.62
21
-42.3995
0
LINE
8
BLACK
6
CONTINUOUS
10
202.62
20
-42.3995
11
202.993
21
-42.1054
0
LINE
8
BLACK
6
CONTINUOUS
10
202.993
20
-42.1054
11
203.388
21
-41.8415
0
LINE
8
BLACK
6
CONTINUOUS
10
203.388
20
-41.8415
11
203.802
21
-41.6094
0
LINE
8
BLACK
6
CONTINUOUS
10
203.802
20
-41.6094
11
204.234
21
-41.4105
0
LINE
8
BLACK
6
CONTINUOUS
10
204.234
20
-41.4105
11
204.679
21
-41.2461
0
LINE
8
BLACK
6
CONTINUOUS
10
204.679
20
-41.2461
11
205.137
21
-41.1172
0
LINE
8
BLACK
6
CONTINUOUS
10
205.137
20
-41.1172
11
205.603
21
-41.0245
0
LINE
8
BLACK
6
CONTINUOUS
10
205.603
20
-41.0245
11
206.074
21
-40.9686
0
LINE
8
BLACK
6
CONTINUOUS
10
206.074
20
-40.9686
11
206.549
21
-40.95
0
LINE
8
BLACK
6
CONTINUOUS
10
206.549
20
-40.95
11
207.024
21
-40.9686
0
LINE
8
BLACK
6
CONTINUOUS
10
207.024
20
-40.9686
11
207.495
21
-41.0245
0
LINE
8
BLACK
6
CONTINUOUS
10
207.495
20
-41.0245
11
207.961
21
-41.1172
0
LINE
8
BLACK
6
CONTINUOUS
10
207.961
20
-41.1172
11
208.419
21
-41.2461
0
LINE
8
BLACK
6
CONTINUOUS
10
208.419
20
-41.2461
11
208.864
21
-41.4105
0
LINE
8
BLACK
6
CONTINUOUS
10
208.864
20
-41.4105
11
209.296
21
-41.6094
0
LINE
8
BLACK
6
CONTINUOUS
10
209.296
20
-41.6094
11
209.71
21
-41.8415
0
LINE
8
BLACK
6
CONTINUOUS
10
209.71
20
-41.8415
11
210.105
21
-42.1054
0
LINE
8
BLACK
6
CONTINUOUS
10
210.105
20
-42.1054
11
210.478
21
-42.3995
0
LINE
8
BLACK
6
CONTINUOUS
10
210.478
20
-42.3995
11
210.827
21
-42.722
0
LINE
8
BLACK
6
CONTINUOUS
10
210.827
20
-42.722
11
211.149
21
-43.0708
0
LINE
8
BLACK
6
CONTINUOUS
10
211.149
20
-43.0708
11
211.444
21
-43.4439
0
LINE
8
BLACK
6
CONTINUOUS
10
211.444
20
-43.4439
11
211.708
21
-43.8389
0
LINE
8
BLACK
6
CONTINUOUS
10
211.708
20
-43.8389
11
211.94
21
-44.2534
0
LINE
8
BLACK
6
CONTINUOUS
10
211.94
20
-44.2534
11
212.139
21
-44.6848
0
LINE
8
BLACK
6
CONTINUOUS
10
212.139
20
-44.6848
11
212.303
21
-45.1304
0
LINE
8
BLACK
6
CONTINUOUS
10
212.303
20
-45.1304
11
212.432
21
-45.5877
0
LINE
8
BLACK
6
CONTINUOUS
10
212.432
20
-45.5877
11
212.525
21
-46.0536
0
LINE
8
BLACK
6
CONTINUOUS
10
212.525
20
-46.0536
11
212.58
21
-46.5253
0
LINE
8
BLACK
6
CONTINUOUS
10
212.58
20
-46.5253
11
212.599
21
-47
0
LINE
8
BLACK
6
CONTINUOUS
10
212.599
20
-47
11
212.599
21
-47
0
LINE
8
BLACK
6
CONTINUOUS
10
212.599
20
-47
11
212.599
21
-47
0
LINE
8
BLACK
6
CONTINUOUS
10
212.599
20
-47
11
212.599
21
-47
0
LINE
8
BLACK
6
CONTINUOUS
10
212.599
20
-47
11
212.55
21
-115
0
LINE
8
BLACK
6
CONTINUOUS
10
212.55
20
-115
11
212.545
21
-115.012
0
LINE
8
BLACK
6
CONTINUOUS
10
212.545
20
-115.012
11
212.543
21
-115.025
0
LINE
8
BLACK
6
CONTINUOUS
10
212.543
20
-115.025
11
205.023
21
-128.125
0
LINE
8
BLACK
6
CONTINUOUS
10
205.023
20
-128.125
11
205.023
21
-128.125
0
LINE
8
BLACK
6
CONTINUOUS
10
205.023
20
-128.125
11
205.022
21
-128.126
0
LINE
8
BLACK
6
CONTINUOUS
10
205.022
20
-128.126
11
205.015
21
-128.131
0
LINE
8
BLACK
6
CONTINUOUS
10
205.015
20
-128.131
11
204.922
21
-128.315
0
LINE
8
BLACK
6
CONTINUOUS
10
204.922
20
-128.315
11
204.856
21
-128.519
0
LINE
8
BLACK
6
CONTINUOUS
10
204.856
20
-128.519
11
204.82
21
-128.73
0
LINE
8
BLACK
6
CONTINUOUS
10
204.82
20
-128.73
11
204.816
21
-128.944
0
LINE
8
BLACK
6
CONTINUOUS
10
204.816
20
-128.944
11
204.845
21
-129.157
0
LINE
8
BLACK
6
CONTINUOUS
10
204.845
20
-129.157
11
204.905
21
-129.363
0
LINE
8
BLACK
6
CONTINUOUS
10
204.905
20
-129.363
11
204.995
21
-129.557
0
LINE
8
BLACK
6
CONTINUOUS
10
204.995
20
-129.557
11
205.113
21
-129.736
0
LINE
8
BLACK
6
CONTINUOUS
10
205.113
20
-129.736
11
205.257
21
-129.895
0
LINE
8
BLACK
6
CONTINUOUS
10
205.257
20
-129.895
11
205.415
21
-130.024
0
LINE
8
BLACK
6
CONTINUOUS
10
205.415
20
-130.024
11
205.422
21
-130.025
0
LINE
8
BLACK
6
CONTINUOUS
10
205.422
20
-130.025
11
209.425
21
-132.361
0
LINE
8
BLACK
6
CONTINUOUS
10
209.425
20
-132.361
11
209.425
21
-132.361
0
LINE
8
BLACK
6
CONTINUOUS
10
209.425
20
-132.361
11
209.825
21
-132.613
0
LINE
8
BLACK
6
CONTINUOUS
10
209.825
20
-132.613
11
210.204
21
-132.896
0
LINE
8
BLACK
6
CONTINUOUS
10
210.204
20
-132.896
11
210.56
21
-133.208
0
LINE
8
BLACK
6
CONTINUOUS
10
210.56
20
-133.208
11
210.89
21
-133.547
0
LINE
8
BLACK
6
CONTINUOUS
10
210.89
20
-133.547
11
211.193
21
-133.911
0
LINE
8
BLACK
6
CONTINUOUS
10
211.193
20
-133.911
11
211.466
21
-134.297
0
LINE
8
BLACK
6
CONTINUOUS
10
211.466
20
-134.297
11
211.708
21
-134.704
0
LINE
8
BLACK
6
CONTINUOUS
10
211.708
20
-134.704
11
211.917
21
-135.128
0
LINE
8
BLACK
6
CONTINUOUS
10
211.917
20
-135.128
11
212.092
21
-135.567
0
LINE
8
BLACK
6
CONTINUOUS
10
212.092
20
-135.567
11
212.232
21
-136.019
0
LINE
8
BLACK
6
CONTINUOUS
10
212.232
20
-136.019
11
212.337
21
-136.481
0
LINE
8
BLACK
6
CONTINUOUS
10
212.337
20
-136.481
11
212.405
21
-136.949
0
LINE
8
BLACK
6
CONTINUOUS
10
212.405
20
-136.949
11
212.436
21
-137.421
0
LINE
8
BLACK
6
CONTINUOUS
10
212.436
20
-137.421
11
212.429
21
-137.894
0
LINE
8
BLACK
6
CONTINUOUS
10
212.429
20
-137.894
11
212.386
21
-138.365
0
LINE
8
BLACK
6
CONTINUOUS
10
212.386
20
-138.365
11
212.306
21
-138.832
0
LINE
8
BLACK
6
CONTINUOUS
10
212.306
20
-138.832
11
212.19
21
-139.29
0
LINE
8
BLACK
6
CONTINUOUS
10
212.19
20
-139.29
11
212.038
21
-139.738
0
LINE
8
BLACK
6
CONTINUOUS
10
212.038
20
-139.738
11
211.851
21
-140.173
0
LINE
8
BLACK
6
CONTINUOUS
10
211.851
20
-140.173
11
211.63
21
-140.592
0
LINE
8
BLACK
6
CONTINUOUS
10
211.63
20
-140.592
11
211.378
21
-140.992
0
LINE
8
BLACK
6
CONTINUOUS
10
211.378
20
-140.992
11
211.095
21
-141.371
0
LINE
8
BLACK
6
CONTINUOUS
10
211.095
20
-141.371
11
210.783
21
-141.726
0
LINE
8
BLACK
6
CONTINUOUS
10
210.783
20
-141.726
11
210.444
21
-142.057
0
LINE
8
BLACK
6
CONTINUOUS
10
210.444
20
-142.057
11
210.08
21
-142.359
0
LINE
8
BLACK
6
CONTINUOUS
10
210.08
20
-142.359
11
209.694
21
-142.632
0
LINE
8
BLACK
6
CONTINUOUS
10
209.694
20
-142.632
11
209.287
21
-142.874
0
LINE
8
BLACK
6
CONTINUOUS
10
209.287
20
-142.874
11
208.863
21
-143.083
0
LINE
8
BLACK
6
CONTINUOUS
10
208.863
20
-143.083
11
208.424
21
-143.259
0
LINE
8
BLACK
6
CONTINUOUS
10
208.424
20
-143.259
11
207.972
21
-143.399
0
LINE
8
BLACK
6
CONTINUOUS
10
207.972
20
-143.399
11
207.51
21
-143.503
0
LINE
8
BLACK
6
CONTINUOUS
10
207.51
20
-143.503
11
207.042
21
-143.571
0
LINE
8
BLACK
6
CONTINUOUS
10
207.042
20
-143.571
11
206.57
21
-143.602
0
LINE
8
BLACK
6
CONTINUOUS
10
206.57
20
-143.602
11
206.097
21
-143.596
0
LINE
8
BLACK
6
CONTINUOUS
10
206.097
20
-143.596
11
205.626
21
-143.553
0
LINE
8
BLACK
6
CONTINUOUS
10
205.626
20
-143.553
11
205.159
21
-143.473
0
LINE
8
BLACK
6
CONTINUOUS
10
205.159
20
-143.473
11
204.701
21
-143.356
0
LINE
8
BLACK
6
CONTINUOUS
10
204.701
20
-143.356
11
204.253
21
-143.204
0
LINE
8
BLACK
6
CONTINUOUS
10
204.253
20
-143.204
11
203.818
21
-143.017
0
LINE
8
BLACK
6
CONTINUOUS
10
203.818
20
-143.017
11
203.4
21
-142.797
0
LINE
8
BLACK
6
CONTINUOUS
10
203.4
20
-142.797
11
203.4
21
-142.797
0
LINE
8
BLACK
6
CONTINUOUS
10
203.4
20
-142.797
11
203.399
21
-142.797
0
LINE
8
BLACK
6
CONTINUOUS
10
203.399
20
-142.797
11
203.399
21
-142.797
0
LINE
8
BLACK
6
CONTINUOUS
10
203.399
20
-142.797
11
181.481
21
-130.047
0
LINE
8
BLACK
6
CONTINUOUS
10
181.481
20
-130.047
11
162.993
21
-125.05
0
LINE
8
BLACK
6
CONTINUOUS
10
162.993
20
-125.05
11
144
21
-125.05
0
LINE
8
BLACK
6
CONTINUOUS
10
144
20
-125.05
11
143.993
21
-125.047
0
LINE
8
BLACK
6
CONTINUOUS
10
143.993
20
-125.047
11
143.985
21
-125.048
0
LINE
8
BLACK
6
CONTINUOUS
10
143.985
20
-125.048
11
116.994
21
-116.551
0
LINE
8
BLACK
6
CONTINUOUS
10
116.994
20
-116.551
11
98.7044
21
-118.15
0
LINE
8
BLACK
6
CONTINUOUS
10
98.7044
20
-118.15
11
98.6944
21
-118.147
0
LINE
8
BLACK
6
CONTINUOUS
10
98.6944
20
-118.147
11
98.0454
21
-118.234
0
LINE
8
BLACK
6
CONTINUOUS
10
98.0454
20
-118.234
11
97.3918
21
-118.358
0
LINE
8
BLACK
6
CONTINUOUS
10
97.3918
20
-118.358
11
96.7457
21
-118.517
0
LINE
8
BLACK
6
CONTINUOUS
10
96.7457
20
-118.517
11
96.1091
21
-118.71
0
LINE
8
BLACK
6
CONTINUOUS
10
96.1091
20
-118.71
11
95.4838
21
-118.937
0
LINE
8
BLACK
6
CONTINUOUS
10
95.4838
20
-118.937
11
94.8717
21
-119.198
0
LINE
8
BLACK
6
CONTINUOUS
10
94.8717
20
-119.198
11
94.2745
21
-119.491
0
LINE
8
BLACK
6
CONTINUOUS
10
94.2745
20
-119.491
11
93.6939
21
-119.816
0
LINE
8
BLACK
6
CONTINUOUS
10
93.6939
20
-119.816
11
93.1316
21
-120.172
0
LINE
8
BLACK
6
CONTINUOUS
10
93.1316
20
-120.172
11
92.5893
21
-120.557
0
LINE
8
BLACK
6
CONTINUOUS
10
92.5893
20
-120.557
11
92.0685
21
-120.971
0
LINE
8
BLACK
6
CONTINUOUS
10
92.0685
20
-120.971
11
91.5707
21
-121.413
0
LINE
8
BLACK
6
CONTINUOUS
10
91.5707
20
-121.413
11
91.0974
21
-121.88
0
LINE
8
BLACK
6
CONTINUOUS
10
91.0974
20
-121.88
11
90.6499
21
-122.373
0
LINE
8
BLACK
6
CONTINUOUS
10
90.6499
20
-122.373
11
90.2295
21
-122.888
0
LINE
8
BLACK
6
CONTINUOUS
10
90.2295
20
-122.888
11
89.8435
21
-123.418
0
LINE
8
BLACK
6
CONTINUOUS
10
89.8435
20
-123.418
11
89.8412
21
-123.428
0
LINE
8
BLACK
6
CONTINUOUS
10
89.8412
20
-123.428
11
89.8394
21
-123.429
0
LINE
8
BLACK
6
CONTINUOUS
10
89.8394
20
-123.429
11
89.8388
21
-123.431
0
LINE
8
BLACK
6
CONTINUOUS
10
89.8388
20
-123.431
11
89.8388
21
-123.431
0
LINE
8
BLACK
6
CONTINUOUS
10
89.8388
20
-123.431
11
89.514
21
-123.802
0
LINE
8
BLACK
6
CONTINUOUS
10
89.514
20
-123.802
11
89.1617
21
-124.147
0
LINE
8
BLACK
6
CONTINUOUS
10
89.1617
20
-124.147
11
88.784
21
-124.463
0
LINE
8
BLACK
6
CONTINUOUS
10
88.784
20
-124.463
11
88.3831
21
-124.75
0
LINE
8
BLACK
6
CONTINUOUS
10
88.3831
20
-124.75
11
87.9615
21
-125.005
0
LINE
8
BLACK
6
CONTINUOUS
10
87.9615
20
-125.005
11
87.5215
21
-125.227
0
LINE
8
BLACK
6
CONTINUOUS
10
87.5215
20
-125.227
11
87.0657
21
-125.415
0
LINE
8
BLACK
6
CONTINUOUS
10
87.0657
20
-125.415
11
86.597
21
-125.567
0
LINE
8
BLACK
6
CONTINUOUS
10
86.597
20
-125.567
11
86.1179
21
-125.683
0
LINE
8
BLACK
6
CONTINUOUS
10
86.1179
20
-125.683
11
85.6314
21
-125.761
0
LINE
8
BLACK
6
CONTINUOUS
10
85.6314
20
-125.761
11
85.1402
21
-125.802
0
LINE
8
BLACK
6
CONTINUOUS
10
85.1402
20
-125.802
11
84.6474
21
-125.806
0
LINE
8
BLACK
6
CONTINUOUS
10
84.6474
20
-125.806
11
84.1558
21
-125.771
0
LINE
8
BLACK
6
CONTINUOUS
10
84.1558
20
-125.771
11
83.6682
21
-125.699
0
LINE
8
BLACK
6
CONTINUOUS
10
83.6682
20
-125.699
11
83.1877
21
-125.59
0
LINE
8
BLACK
6
CONTINUOUS
10
83.1877
20
-125.59
11
82.7169
21
-125.444
0
LINE
8
BLACK
6
CONTINUOUS
10
82.7169
20
-125.444
11
82.2587
21
-125.263
0
LINE
8
BLACK
6
CONTINUOUS
10
82.2587
20
-125.263
11
81.8157
21
-125.046
0
LINE
8
BLACK
6
CONTINUOUS
10
81.8157
20
-125.046
11
81.3907
21
-124.797
0
LINE
8
BLACK
6
CONTINUOUS
10
81.3907
20
-124.797
11
80.986
21
-124.516
0
LINE
8
BLACK
6
CONTINUOUS
10
80.986
20
-124.516
11
80.6041
21
-124.204
0
LINE
8
BLACK
6
CONTINUOUS
10
80.6041
20
-124.204
11
80.2472
21
-123.864
0
LINE
8
BLACK
6
CONTINUOUS
10
80.2472
20
-123.864
11
79.9174
21
-123.498
0
LINE
8
BLACK
6
CONTINUOUS
10
79.9174
20
-123.498
11
79.6167
21
-123.108
0
LINE
8
BLACK
6
CONTINUOUS
10
79.6167
20
-123.108
11
79.3468
21
-122.695
0
LINE
8
BLACK
6
CONTINUOUS
10
79.3468
20
-122.695
11
79.1093
21
-122.263
0
LINE
8
BLACK
6
CONTINUOUS
10
79.1093
20
-122.263
11
78.9057
21
-121.815
0
LINE
8
BLACK
6
CONTINUOUS
10
78.9057
20
-121.815
11
78.7371
21
-121.351
0
LINE
8
BLACK
6
CONTINUOUS
10
78.7371
20
-121.351
11
78.6044
21
-120.877
0
LINE
8
BLACK
6
CONTINUOUS
10
78.6044
20
-120.877
11
78.5086
21
-120.393
0
LINE
8
BLACK
6
CONTINUOUS
10
78.5086
20
-120.393
11
78.4502
21
-119.904
0
LINE
8
BLACK
6
CONTINUOUS
10
78.4502
20
-119.904
11
78.4502
21
-119.904
0
LINE
8
BLACK
6
CONTINUOUS
10
78.4502
20
-119.904
11
78.4502
21
-119.904
0
LINE
8
BLACK
6
CONTINUOUS
10
78.4502
20
-119.904
11
78.4502
21
-119.904
0
LINE
8
BLACK
6
CONTINUOUS
10
78.4502
20
-119.904
11
78.4502
21
-119.904
0
LINE
8
BLACK
6
CONTINUOUS
10
78.4502
20
-119.904
11
73.4049
21
-63.3993
0
LINE
8
BLACK
6
CONTINUOUS
10
73.4049
20
-63.3993
11
73.4049
21
-63.3993
0
LINE
8
BLACK
6
CONTINUOUS
10
73.4049
20
-63.3993
11
73.4049
21
-63.3992
0
LINE
8
BLACK
6
CONTINUOUS
10
73.4049
20
-63.3992
11
73.4014
21
-63.1781
0
LINE
8
BLACK
6
CONTINUOUS
10
73.4014
20
-63.1781
11
73.4294
21
-62.9587
0
LINE
8
BLACK
6
CONTINUOUS
10
73.4294
20
-62.9587
11
73.4884
21
-62.7456
0
LINE
8
BLACK
6
CONTINUOUS
10
73.4884
20
-62.7456
11
73.5771
21
-62.543
0
LINE
8
BLACK
6
CONTINUOUS
10
73.5771
20
-62.543
11
73.6937
21
-62.3551
0
LINE
8
BLACK
6
CONTINUOUS
10
73.6937
20
-62.3551
11
73.8358
21
-62.1857
0
LINE
8
BLACK
6
CONTINUOUS
10
73.8358
20
-62.1857
11
74.0006
21
-62.0382
0
LINE
8
BLACK
6
CONTINUOUS
10
74.0006
20
-62.0382
11
74.1847
21
-61.9157
0
LINE
8
BLACK
6
CONTINUOUS
10
74.1847
20
-61.9157
11
74.3844
21
-61.8207
0
LINE
8
BLACK
6
CONTINUOUS
10
74.3844
20
-61.8207
11
74.5956
21
-61.755
0
LINE
8
BLACK
6
CONTINUOUS
10
74.5956
20
-61.755
11
74.8139
21
-61.72
0
LINE
8
BLACK
6
CONTINUOUS
10
74.8139
20
-61.72
11
74.8139
21
-61.72
0
LINE
8
BLACK
6
CONTINUOUS
10
74.8139
20
-61.72
11
74.814
21
-61.72
0
LINE
8
BLACK
6
CONTINUOUS
10
74.814
20
-61.72
11
74.814
21
-61.72
0
LINE
8
BLACK
6
CONTINUOUS
10
74.814
20
-61.72
11
113.922
21
-58.3504
0
LINE
8
BLACK
6
CONTINUOUS
10
113.922
20
-58.3504
11
113.922
21
-58.3507
0
LINE
8
BLACK
6
CONTINUOUS
10
113.922
20
-58.3507
11
113.923
21
-58.3503
0
LINE
8
BLACK
6
CONTINUOUS
10
113.923
20
-58.3503
11
113.932
21
-58.3533
0
LINE
8
BLACK
6
CONTINUOUS
10
113.932
20
-58.3533
11
114.144
21
-58.3284
0
LINE
8
BLACK
6
CONTINUOUS
10
114.144
20
-58.3284
11
114.359
21
-58.2724
0
LINE
8
BLACK
6
CONTINUOUS
10
114.359
20
-58.2724
11
114.565
21
-58.1871
0
LINE
8
BLACK
6
CONTINUOUS
10
114.565
20
-58.1871
11
114.756
21
-58.0744
0
LINE
8
BLACK
6
CONTINUOUS
10
114.756
20
-58.0744
11
114.93
21
-57.9363
0
LINE
8
BLACK
6
CONTINUOUS
10
114.93
20
-57.9363
11
115.084
21
-57.7755
0
LINE
8
BLACK
6
CONTINUOUS
10
115.084
20
-57.7755
11
115.214
21
-57.595
0
LINE
8
BLACK
6
CONTINUOUS
10
115.214
20
-57.595
11
115.317
21
-57.3983
0
LINE
8
BLACK
6
CONTINUOUS
10
115.317
20
-57.3983
11
115.393
21
-57.1892
0
LINE
8
BLACK
6
CONTINUOUS
10
115.393
20
-57.1892
11
115.439
21
-56.9717
0
LINE
8
BLACK
6
CONTINUOUS
10
115.439
20
-56.9717
11
115.453
21
-56.7581
0
LINE
8
BLACK
6
CONTINUOUS
10
115.453
20
-56.7581
11
115.45
21
-56.75
0
LINE
8
BLACK
6
CONTINUOUS
10
115.45
20
-56.75
11
115.45
21
-49
0
LINE
8
BLACK
6
CONTINUOUS
10
115.45
20
-49
11
115.45
21
-49
0
LINE
8
BLACK
6
CONTINUOUS
10
115.45
20
-49
11
115.45
21
-49
0
LINE
8
BLACK
6
CONTINUOUS
10
115.45
20
-49
11
115.466
21
-48.7794
0
LINE
8
BLACK
6
CONTINUOUS
10
115.466
20
-48.7794
11
115.513
21
-48.5633
0
LINE
8
BLACK
6
CONTINUOUS
10
115.513
20
-48.5633
11
115.59
21
-48.3561
0
LINE
8
BLACK
6
CONTINUOUS
10
115.59
20
-48.3561
11
115.696
21
-48.162
0
LINE
8
BLACK
6
CONTINUOUS
10
115.696
20
-48.162
11
115.829
21
-47.985
0
LINE
8
BLACK
6
CONTINUOUS
10
115.829
20
-47.985
11
115.985
21
-47.8286
0
LINE
8
BLACK
6
CONTINUOUS
10
115.985
20
-47.8286
11
116.162
21
-47.6961
0
LINE
8
BLACK
6
CONTINUOUS
10
116.162
20
-47.6961
11
116.356
21
-47.5901
0
LINE
8
BLACK
6
CONTINUOUS
10
116.356
20
-47.5901
11
116.563
21
-47.5128
0
LINE
8
BLACK
6
CONTINUOUS
10
116.563
20
-47.5128
11
116.779
21
-47.4658
0
LINE
8
BLACK
6
CONTINUOUS
10
116.779
20
-47.4658
11
117
21
-47.45
0
LINE
8
BLACK
6
CONTINUOUS
10
117
20
-47.45
11
117
21
-47.45
0
LINE
8
BLACK
6
CONTINUOUS
10
117
20
-47.45
11
117
21
-47.45
0
LINE
8
BLACK
6
CONTINUOUS
10
117
20
-47.45
11
133
21
-47.45
0
LINE
8
BLACK
6
CONTINUOUS
10
133
20
-47.45
11
133
21
-47.45
0
LINE
8
BLACK
6
CONTINUOUS
10
133
20
-47.45
11
133
21
-47.45
0
LINE
8
BLACK
6
CONTINUOUS
10
133
20
-47.45
11
133.009
21
-47.4538
0
LINE
8
BLACK
6
CONTINUOUS
10
133.009
20
-47.4538
11
133.228
21
-47.4366
0
LINE
8
BLACK
6
CONTINUOUS
10
133.228
20
-47.4366
11
133.449
21
-47.3833
0
LINE
8
BLACK
6
CONTINUOUS
10
133.449
20
-47.3833
11
133.66
21
-47.296
0
LINE
8
BLACK
6
CONTINUOUS
10
133.66
20
-47.296
11
133.855
21
-47.1767
0
LINE
8
BLACK
6
CONTINUOUS
10
133.855
20
-47.1767
11
134.029
21
-47.0285
0
LINE
8
BLACK
6
CONTINUOUS
10
134.029
20
-47.0285
11
134.177
21
-46.8549
0
LINE
8
BLACK
6
CONTINUOUS
10
134.177
20
-46.8549
11
134.296
21
-46.6603
0
LINE
8
BLACK
6
CONTINUOUS
10
134.296
20
-46.6603
11
134.383
21
-46.4495
0
LINE
8
BLACK
6
CONTINUOUS
10
134.383
20
-46.4495
11
134.437
21
-46.2275
0
LINE
8
BLACK
6
CONTINUOUS
10
134.437
20
-46.2275
11
134.454
21
-46.0091
0
LINE
8
BLACK
6
CONTINUOUS
10
134.454
20
-46.0091
11
134.45
21
-46
0
LINE
8
BLACK
6
CONTINUOUS
10
134.45
20
-46
11
134.45
21
-46
0
LINE
8
BLACK
6
CONTINUOUS
10
134.45
20
-46
11
134.45
21
-46
0
LINE
8
BLACK
6
CONTINUOUS
10
134.45
20
-46
11
134.45
21
-45
0
LINE
8
BLACK
6
CONTINUOUS
10
134.45
20
-45
11
134.45
21
-45
0
LINE
8
BLACK
6
CONTINUOUS
10
134.45
20
-45
11
134.45
21
-45
0
LINE
8
BLACK
6
CONTINUOUS
10
134.45
20
-45
11
134.466
21
-44.7794
0
LINE
8
BLACK
6
CONTINUOUS
10
134.466
20
-44.7794
11
134.513
21
-44.5633
0
LINE
8
BLACK
6
CONTINUOUS
10
134.513
20
-44.5633
11
134.59
21
-44.3561
0
LINE
8
BLACK
6
CONTINUOUS
10
134.59
20
-44.3561
11
134.696
21
-44.162
0
LINE
8
BLACK
6
CONTINUOUS
10
134.696
20
-44.162
11
134.829
21
-43.985
0
LINE
8
BLACK
6
CONTINUOUS
10
134.829
20
-43.985
11
134.985
21
-43.8286
0
LINE
8
BLACK
6
CONTINUOUS
10
134.985
20
-43.8286
11
135.162
21
-43.6961
0
LINE
8
BLACK
6
CONTINUOUS
10
135.162
20
-43.6961
11
135.356
21
-43.5901
0
LINE
8
BLACK
6
CONTINUOUS
10
135.356
20
-43.5901
11
135.563
21
-43.5128
0
LINE
8
BLACK
6
CONTINUOUS
10
135.563
20
-43.5128
11
135.779
21
-43.4658
0
LINE
8
BLACK
6
CONTINUOUS
10
135.779
20
-43.4658
11
136
21
-43.45
0
LINE
8
BLACK
6
CONTINUOUS
10
136
20
-43.45
11
136
21
-43.45
0
LINE
8
BLACK
6
CONTINUOUS
10
136
20
-43.45
11
136
21
-43.45
0
LINE
8
BLACK
6
CONTINUOUS
10
136
20
-43.45
11
153
21
-43.45
0
LINE
8
BLACK
6
CONTINUOUS
10
153
20
-43.45
11
153.221
21
-43.4658
0
LINE
8
BLACK
6
CONTINUOUS
10
153.221
20
-43.4658
11
153.437
21
-43.5128
0
LINE
8
BLACK
6
CONTINUOUS
10
193.782
20
-52.5348
11
193.568
21
-52.4896
0
LINE
8
BLACK
6
CONTINUOUS
10
193.568
20
-52.4896
11
193.362
21
-52.4151
0
LINE
8
BLACK
6
CONTINUOUS
10
193.362
20
-52.4151
11
193.169
21
-52.3129
0
LINE
8
BLACK
6
CONTINUOUS
10
193.169
20
-52.3129
11
192.992
21
-52.1849
0
LINE
8
BLACK
6
CONTINUOUS
10
192.992
20
-52.1849
11
192.834
21
-52.0336
0
LINE
8
BLACK
6
CONTINUOUS
10
192.834
20
-52.0336
11
192.698
21
-51.8619
0
LINE
8
BLACK
6
CONTINUOUS
10
192.698
20
-51.8619
11
192.588
21
-51.6731
0
LINE
8
BLACK
6
CONTINUOUS
10
192.588
20
-51.6731
11
192.505
21
-51.4708
0
LINE
8
BLACK
6
CONTINUOUS
10
192.505
20
-51.4708
11
192.451
21
-51.259
0
LINE
8
BLACK
6
CONTINUOUS
10
192.451
20
-51.259
11
192.453
21
-51.2497
0
LINE
8
BLACK
6
CONTINUOUS
10
192.453
20
-51.2497
11
192.397
21
-51.0377
0
LINE
8
BLACK
6
CONTINUOUS
10
192.397
20
-51.0377
11
192.305
21
-50.8287
0
LINE
8
BLACK
6
CONTINUOUS
10
192.305
20
-50.8287
11
192.183
21
-50.6362
0
LINE
8
BLACK
6
CONTINUOUS
10
192.183
20
-50.6362
11
192.032
21
-50.465
0
LINE
8
BLACK
6
CONTINUOUS
10
192.032
20
-50.465
11
191.857
21
-50.3189
0
LINE
8
BLACK
6
CONTINUOUS
10
191.857
20
-50.3189
11
191.661
21
-50.2015
0
LINE
8
BLACK
6
CONTINUOUS
10
191.661
20
-50.2015
11
191.45
21
-50.1156
0
LINE
8
BLACK
6
CONTINUOUS
10
191.45
20
-50.1156
11
191.227
21
-50.0633
0
LINE
8
BLACK
6
CONTINUOUS
10
191.227
20
-50.0633
11
191.009
21
-50.0463
0
LINE
8
BLACK
6
CONTINUOUS
10
191.009
20
-50.0463
11
191
21
-50.05
0
LINE
8
BLACK
6
CONTINUOUS
10
191
20
-50.05
11
175
21
-50.05
0
LINE
8
BLACK
6
CONTINUOUS
10
175
20
-50.05
11
174.782
21
-50.0357
0
LINE
8
BLACK
6
CONTINUOUS
10
174.782
20
-50.0357
11
174.567
21
-49.9931
0
LINE
8
BLACK
6
CONTINUOUS
10
174.567
20
-49.9931
11
174.36
21
-49.9229
0
LINE
8
BLACK
6
CONTINUOUS
10
174.36
20
-49.9229
11
174.164
21
-49.8264
0
LINE
8
BLACK
6
CONTINUOUS
10
174.164
20
-49.8264
11
173.982
21
-49.7051
0
LINE
8
BLACK
6
CONTINUOUS
10
173.982
20
-49.7051
11
173.817
21
-49.5611
0
LINE
8
BLACK
6
CONTINUOUS
10
173.817
20
-49.5611
11
173.673
21
-49.3968
0
LINE
8
BLACK
6
CONTINUOUS
10
173.673
20
-49.3968
11
173.551
21
-49.2152
0
LINE
8
BLACK
6
CONTINUOUS
10
173.551
20
-49.2152
11
173.454
21
-49.0192
0
LINE
8
BLACK
6
CONTINUOUS
10
173.454
20
-49.0192
11
173.454
21
-49.0099
0
LINE
8
BLACK
6
CONTINUOUS
10
173.454
20
-49.0099
11
173.353
21
-48.8106
0
LINE
8
BLACK
6
CONTINUOUS
10
173.353
20
-48.8106
11
173.219
21
-48.6212
0
LINE
8
BLACK
6
CONTINUOUS
10
173.219
20
-48.6212
11
173.059
21
-48.4535
0
LINE
8
BLACK
6
CONTINUOUS
10
173.059
20
-48.4535
11
172.876
21
-48.311
0
LINE
8
BLACK
6
CONTINUOUS
10
172.876
20
-48.311
11
172.674
21
-48.1969
0
LINE
8
BLACK
6
CONTINUOUS
10
172.674
20
-48.1969
11
172.458
21
-48.1135
0
LINE
8
BLACK
6
CONTINUOUS
10
172.458
20
-48.1135
11
172.231
21
-48.0628
0
LINE
8
BLACK
6
CONTINUOUS
10
172.231
20
-48.0628
11
172.009
21
-48.0464
0
LINE
8
BLACK
6
CONTINUOUS
10
172.009
20
-48.0464
11
172
21
-48.05
0
LINE
8
BLACK
6
CONTINUOUS
10
172
20
-48.05
11
156
21
-48.05
0
LINE
8
BLACK
6
CONTINUOUS
10
156
20
-48.05
11
155.779
21
-48.0342
0
LINE
8
BLACK
6
CONTINUOUS
10
155.779
20
-48.0342
11
155.563
21
-47.9872
0
LINE
8
BLACK
6
CONTINUOUS
10
155.563
20
-47.9872
11
155.356
21
-47.9099
0
LINE
8
BLACK
6
CONTINUOUS
10
155.356
20
-47.9099
11
155.162
21
-47.8039
0
LINE
8
BLACK
6
CONTINUOUS
10
155.162
20
-47.8039
11
154.985
21
-47.6714
0
LINE
8
BLACK
6
CONTINUOUS
10
154.985
20
-47.6714
11
154.829
21
-47.515
0
LINE
8
BLACK
6
CONTINUOUS
10
154.829
20
-47.515
11
154.696
21
-47.338
0
LINE
8
BLACK
6
CONTINUOUS
10
154.696
20
-47.338
11
154.59
21
-47.1439
0
LINE
8
BLACK
6
CONTINUOUS
10
154.59
20
-47.1439
11
154.513
21
-46.9367
0
LINE
8
BLACK
6
CONTINUOUS
10
154.513
20
-46.9367
11
154.466
21
-46.7206
0
LINE
8
BLACK
6
CONTINUOUS
10
154.466
20
-46.7206
11
154.45
21
-46.5
0
LINE
8
BLACK
6
CONTINUOUS
10
154.45
20
-46.5
11
154.45
21
-45
0
LINE
8
BLACK
6
CONTINUOUS
10
154.45
20
-45
11
154.454
21
-44.9909
0
LINE
8
BLACK
6
CONTINUOUS
10
154.454
20
-44.9909
11
154.437
21
-44.7725
0
LINE
8
BLACK
6
CONTINUOUS
10
154.437
20
-44.7725
11
154.383
21
-44.5505
0
LINE
8
BLACK
6
CONTINUOUS
10
154.383
20
-44.5505
11
154.296
21
-44.3397
0
LINE
8
BLACK
6
CONTINUOUS
10
154.296
20
-44.3397
11
154.177
21
-44.1451
0
LINE
8
BLACK
6
CONTINUOUS
10
154.177
20
-44.1451
11
154.028
21
-43.9715
0
LINE
8
BLACK
6
CONTINUOUS
10
154.028
20
-43.9715
11
153.855
21
-43.8233
0
LINE
8
BLACK
6
CONTINUOUS
10
153.855
20
-43.8233
11
153.66
21
-43.704
0
LINE
8
BLACK
6
CONTINUOUS
10
153.66
20
-43.704
11
153.449
21
-43.6167
0
LINE
8
BLACK
6
CONTINUOUS
10
153.449
20
-43.6167
11
153.228
21
-43.5634
0
LINE
8
BLACK
6
CONTINUOUS
10
153.228
20
-43.5634
11
153.009
21
-43.5462
0
LINE
8
BLACK
6
CONTINUOUS
10
153.009
20
-43.5462
11
153
21
-43.55
0
LINE
8
BLACK
6
CONTINUOUS
10
153
20
-43.55
11
136
21
-43.55
0
LINE
8
BLACK
6
CONTINUOUS
10
136
20
-43.55
11
135.991
21
-43.5462
0
LINE
8
BLACK
6
CONTINUOUS
10
135.991
20
-43.5462
11
135.772
21
-43.5634
0
LINE
8
BLACK
6
CONTINUOUS
10
135.772
20
-43.5634
11
135.551
21
-43.6167
0
LINE
8
BLACK
6
CONTINUOUS
10
135.551
20
-43.6167
11
135.34
21
-43.7041
0
LINE
8
BLACK
6
CONTINUOUS
10
135.34
20
-43.7041
11
135.145
21
-43.8233
0
LINE
8
BLACK
6
CONTINUOUS
10
135.145
20
-43.8233
11
134.972
21
-43.9716
0
LINE
8
BLACK
6
CONTINUOUS
10
134.972
20
-43.9716
11
134.823
21
-44.1451
0
LINE
8
BLACK
6
CONTINUOUS
10
134.823
20
-44.1451
11
134.704
21
-44.3397
0
LINE
8
BLACK
6
CONTINUOUS
10
134.704
20
-44.3397
11
134.617
21
-44.5506
0
LINE
8
BLACK
6
CONTINUOUS
10
134.617
20
-44.5506
11
134.563
21
-44.7725
0
LINE
8
BLACK
6
CONTINUOUS
10
134.563
20
-44.7725
11
134.546
21
-44.9909
0
LINE
8
BLACK
6
CONTINUOUS
10
134.546
20
-44.9909
11
134.55
21
-45
0
LINE
8
BLACK
6
CONTINUOUS
10
134.55
20
-45
11
134.55
21
-46
0
LINE
8
BLACK
6
CONTINUOUS
10
134.55
20
-46
11
134.534
21
-46.2206
0
LINE
8
BLACK
6
CONTINUOUS
10
134.534
20
-46.2206
11
134.487
21
-46.4367
0
LINE
8
BLACK
6
CONTINUOUS
10
134.487
20
-46.4367
11
134.41
21
-46.6439
0
LINE
8
BLACK
6
CONTINUOUS
10
134.41
20
-46.6439
11
134.304
21
-46.838
0
LINE
8
BLACK
6
CONTINUOUS
10
134.304
20
-46.838
11
134.171
21
-47.0151
0
LINE
8
BLACK
6
CONTINUOUS
10
134.171
20
-47.0151
11
134.015
21
-47.1714
0
LINE
8
BLACK
6
CONTINUOUS
10
134.015
20
-47.1714
11
133.838
21
-47.304
0
LINE
8
BLACK
6
CONTINUOUS
10
133.838
20
-47.304
11
133.644
21
-47.41
0
LINE
8
BLACK
6
CONTINUOUS
10
133.644
20
-47.41
11
133.437
21
-47.4872
0
LINE
8
BLACK
6
CONTINUOUS
10
133.437
20
-47.4872
11
133.221
21
-47.5342
0
LINE
8
BLACK
6
CONTINUOUS
10
133.221
20
-47.5342
11
133
21
-47.55
0
LINE
8
BLACK
6
CONTINUOUS
10
133
20
-47.55
11
117
21
-47.55
0
LINE
8
BLACK
6
CONTINUOUS
10
117
20
-47.55
11
116.991
21
-47.5462
0
LINE
8
BLACK
6
CONTINUOUS
10
116.991
20
-47.5462
11
116.772
21
-47.5634
0
LINE
8
BLACK
6
CONTINUOUS
10
116.772
20
-47.5634
11
116.551
21
-47.6167
0
LINE
8
BLACK
6
CONTINUOUS
10
116.551
20
-47.6167
11
116.34
21
-47.7041
0
LINE
8
BLACK
6
CONTINUOUS
10
116.34
20
-47.7041
11
116.145
21
-47.8233
0
LINE
8
BLACK
6
CONTINUOUS
10
116.145
20
-47.8233
11
115.972
21
-47.9716
0
LINE
8
BLACK
6
CONTINUOUS
10
115.972
20
-47.9716
11
115.823
21
-48.1451
0
LINE
8
BLACK
6
CONTINUOUS
10
115.823
20
-48.1451
11
115.704
21
-48.3397
0
LINE
8
BLACK
6
CONTINUOUS
10
115.704
20
-48.3397
11
115.617
21
-48.5506
0
LINE
8
BLACK
6
CONTINUOUS
10
115.617
20
-48.5506
11
115.563
21
-48.7725
0
LINE
8
BLACK
6
CONTINUOUS
10
115.563
20
-48.7725
11
115.546
21
-48.9909
0
LINE
8
BLACK
6
CONTINUOUS
10
115.546
20
-48.9909
11
115.55
21
-49
0
LINE
8
BLACK
6
CONTINUOUS
10
115.55
20
-49
11
115.55
21
-56.75
0
LINE
8
BLACK
6
CONTINUOUS
10
115.55
20
-56.75
11
115.534
21
-56.985
0
LINE
8
BLACK
6
CONTINUOUS
10
115.534
20
-56.985
11
115.485
21
-57.2155
0
LINE
8
BLACK
6
CONTINUOUS
10
115.485
20
-57.2155
11
115.405
21
-57.4371
0
LINE
8
BLACK
6
CONTINUOUS
10
115.405
20
-57.4371
11
115.295
21
-57.6455
0
LINE
8
BLACK
6
CONTINUOUS
10
115.295
20
-57.6455
11
115.158
21
-57.8368
0
LINE
8
BLACK
6
CONTINUOUS
10
115.158
20
-57.8368
11
114.995
21
-58.0073
0
LINE
8
BLACK
6
CONTINUOUS
10
114.995
20
-58.0073
11
114.811
21
-58.1536
0
LINE
8
BLACK
6
CONTINUOUS
10
114.811
20
-58.1536
11
114.608
21
-58.2731
0
LINE
8
BLACK
6
CONTINUOUS
10
114.608
20
-58.2731
11
114.39
21
-58.3634
0
LINE
8
BLACK
6
CONTINUOUS
10
114.39
20
-58.3634
11
114.162
21
-58.4228
0
LINE
8
BLACK
6
CONTINUOUS
10
114.162
20
-58.4228
11
113.93
21
-58.45
0
LINE
8
BLACK
6
CONTINUOUS
10
113.93
20
-58.45
11
113.93
21
-58.45
0
LINE
8
BLACK
6
CONTINUOUS
10
113.93
20
-58.45
11
74.8226
21
-61.8197
0
LINE
8
BLACK
6
CONTINUOUS
10
74.8226
20
-61.8197
11
74.8226
21
-61.8197
0
LINE
8
BLACK
6
CONTINUOUS
10
74.8226
20
-61.8197
11
74.8132
21
-61.8167
0
LINE
8
BLACK
6
CONTINUOUS
10
74.8132
20
-61.8167
11
74.5972
21
-61.8529
0
LINE
8
BLACK
6
CONTINUOUS
10
74.5972
20
-61.8529
11
74.3807
21
-61.9253
0
LINE
8
BLACK
6
CONTINUOUS
10
74.3807
20
-61.9253
11
74.1783
21
-62.0307
0
LINE
8
BLACK
6
CONTINUOUS
10
74.1783
20
-62.0307
11
73.9948
21
-62.1665
0
LINE
8
BLACK
6
CONTINUOUS
10
73.9948
20
-62.1665
11
73.8349
21
-62.3293
0
LINE
8
BLACK
6
CONTINUOUS
10
73.8349
20
-62.3293
11
73.7023
21
-62.5151
0
LINE
8
BLACK
6
CONTINUOUS
10
73.7023
20
-62.5151
11
73.6005
21
-62.7193
0
LINE
8
BLACK
6
CONTINUOUS
10
73.6005
20
-62.7193
11
73.5319
21
-62.937
0
LINE
8
BLACK
6
CONTINUOUS
10
73.5319
20
-62.937
11
73.4981
21
-63.1627
0
LINE
8
BLACK
6
CONTINUOUS
10
73.4981
20
-63.1627
11
73.5
21
-63.3817
0
LINE
8
BLACK
6
CONTINUOUS
10
73.5
20
-63.3817
11
73.5045
21
-63.3904
0
LINE
8
BLACK
6
CONTINUOUS
10
73.5045
20
-63.3904
11
78.5498
21
-119.896
0
LINE
8
BLACK
6
CONTINUOUS
10
78.5498
20
-119.896
11
78.5497
21
-119.896
0
LINE
8
BLACK
6
CONTINUOUS
10
78.5497
20
-119.896
11
78.5498
21
-119.896
0
LINE
8
BLACK
6
CONTINUOUS
10
78.5498
20
-119.896
11
78.5464
21
-119.907
0
LINE
8
BLACK
6
CONTINUOUS
10
78.5464
20
-119.907
11
78.6028
21
-120.378
0
LINE
8
BLACK
6
CONTINUOUS
10
78.6028
20
-120.378
11
78.6972
21
-120.855
0
LINE
8
BLACK
6
CONTINUOUS
10
78.6972
20
-120.855
11
78.8278
21
-121.322
0
LINE
8
BLACK
6
CONTINUOUS
10
78.8278
20
-121.322
11
78.994
21
-121.779
0
LINE
8
BLACK
6
CONTINUOUS
10
78.994
20
-121.779
11
79.1946
21
-122.221
0
LINE
8
BLACK
6
CONTINUOUS
10
79.1946
20
-122.221
11
79.4285
21
-122.646
0
LINE
8
BLACK
6
CONTINUOUS
10
79.4285
20
-122.646
11
79.6944
21
-123.052
0
LINE
8
BLACK
6
CONTINUOUS
10
79.6944
20
-123.052
11
79.9907
21
-123.437
0
LINE
8
BLACK
6
CONTINUOUS
10
79.9907
20
-123.437
11
80.3155
21
-123.798
0
LINE
8
BLACK
6
CONTINUOUS
10
80.3155
20
-123.798
11
80.6671
21
-124.133
0
LINE
8
BLACK
6
CONTINUOUS
10
80.6671
20
-124.133
11
81.0434
21
-124.44
0
LINE
8
BLACK
6
CONTINUOUS
10
81.0434
20
-124.44
11
81.4421
21
-124.717
0
LINE
8
BLACK
6
CONTINUOUS
10
81.4421
20
-124.717
11
81.8608
21
-124.962
0
LINE
8
BLACK
6
CONTINUOUS
10
81.8608
20
-124.962
11
82.2972
21
-125.175
0
LINE
8
BLACK
6
CONTINUOUS
10
82.2972
20
-125.175
11
82.7486
21
-125.354
0
LINE
8
BLACK
6
CONTINUOUS
10
82.7486
20
-125.354
11
83.2124
21
-125.498
0
LINE
8
BLACK
6
CONTINUOUS
10
83.2124
20
-125.498
11
83.6858
21
-125.605
0
LINE
8
BLACK
6
CONTINUOUS
10
83.6858
20
-125.605
11
84.1661
21
-125.676
0
LINE
8
BLACK
6
CONTINUOUS
10
84.1661
20
-125.676
11
84.6504
21
-125.71
0
LINE
8
BLACK
6
CONTINUOUS
10
84.6504
20
-125.71
11
85.1359
21
-125.707
0
LINE
8
BLACK
6
CONTINUOUS
10
85.1359
20
-125.707
11
85.6198
21
-125.667
0
LINE
8
BLACK
6
CONTINUOUS
10
85.6198
20
-125.667
11
86.0991
21
-125.589
0
LINE
8
BLACK
6
CONTINUOUS
10
86.0991
20
-125.589
11
86.571
21
-125.475
0
LINE
8
BLACK
6
CONTINUOUS
10
86.571
20
-125.475
11
87.0328
21
-125.325
0
LINE
8
BLACK
6
CONTINUOUS
10
87.0328
20
-125.325
11
87.4818
21
-125.141
0
LINE
8
BLACK
6
CONTINUOUS
10
87.4818
20
-125.141
11
87.9153
21
-124.922
0
LINE
8
BLACK
6
CONTINUOUS
10
87.9153
20
-124.922
11
88.3307
21
-124.67
0
LINE
8
BLACK
6
CONTINUOUS
10
88.3307
20
-124.67
11
88.7256
21
-124.388
0
LINE
8
BLACK
6
CONTINUOUS
10
88.7256
20
-124.388
11
89.0977
21
-124.076
0
LINE
8
BLACK
6
CONTINUOUS
10
89.0977
20
-124.076
11
89.4448
21
-123.737
0
LINE
8
BLACK
6
CONTINUOUS
10
89.4448
20
-123.737
11
89.757
21
-123.38
0
LINE
8
BLACK
6
CONTINUOUS
10
89.757
20
-123.38
11
89.7588
21
-123.372
0
LINE
8
BLACK
6
CONTINUOUS
10
89.7588
20
-123.372
11
90.1539
21
-122.83
0
LINE
8
BLACK
6
CONTINUOUS
10
90.1539
20
-122.83
11
90.5775
21
-122.31
0
LINE
8
BLACK
6
CONTINUOUS
10
90.5775
20
-122.31
11
91.0284
21
-121.814
0
LINE
8
BLACK
6
CONTINUOUS
10
91.0284
20
-121.814
11
91.5054
21
-121.343
0
LINE
8
BLACK
6
CONTINUOUS
10
91.5054
20
-121.343
11
92.007
21
-120.898
0
LINE
8
BLACK
6
CONTINUOUS
10
92.007
20
-120.898
11
92.5319
21
-120.481
0
LINE
8
BLACK
6
CONTINUOUS
10
92.5319
20
-120.481
11
93.0784
21
-120.092
0
LINE
8
BLACK
6
CONTINUOUS
10
93.0784
20
-120.092
11
93.645
21
-119.734
0
LINE
8
BLACK
6
CONTINUOUS
10
93.645
20
-119.734
11
94.2301
21
-119.407
0
LINE
8
BLACK
6
CONTINUOUS
10
94.2301
20
-119.407
11
94.8319
21
-119.111
0
LINE
8
BLACK
6
CONTINUOUS
10
94.8319
20
-119.111
11
95.4488
21
-118.848
0
LINE
8
BLACK
6
CONTINUOUS
10
95.4488
20
-118.848
11
96.0789
21
-118.619
0
LINE
8
BLACK
6
CONTINUOUS
10
96.0789
20
-118.619
11
96.7204
21
-118.424
0
LINE
8
BLACK
6
CONTINUOUS
10
96.7204
20
-118.424
11
97.3714
21
-118.264
0
LINE
8
BLACK
6
CONTINUOUS
10
97.3714
20
-118.264
11
98.0302
21
-118.14
0
LINE
8
BLACK
6
CONTINUOUS
10
98.0302
20
-118.14
11
98.6947
21
-118.05
0
LINE
8
BLACK
6
CONTINUOUS
10
98.6947
20
-118.05
11
98.6947
21
-118.05
0
LINE
8
BLACK
6
CONTINUOUS
10
98.6947
20
-118.05
11
98.6952
21
-118.05
0
LINE
8
BLACK
6
CONTINUOUS
10
98.6952
20
-118.05
11
98.6956
21
-118.05
0
LINE
8
BLACK
6
CONTINUOUS
10
98.6956
20
-118.05
11
116.996
21
-116.45
0
LINE
8
BLACK
6
CONTINUOUS
10
116.996
20
-116.45
11
117.005
21
-116.453
0
LINE
8
BLACK
6
CONTINUOUS
10
117.005
20
-116.453
11
117.015
21
-116.452
0
LINE
8
BLACK
6
CONTINUOUS
10
117.015
20
-116.452
11
144.008
21
-124.95
0
LINE
8
BLACK
6
CONTINUOUS
10
144.008
20
-124.95
11
163
21
-124.95
0
LINE
8
BLACK
6
CONTINUOUS
10
163
20
-124.95
11
163.006
21
-124.953
0
LINE
8
BLACK
6
CONTINUOUS
10
163.006
20
-124.953
11
163.013
21
-124.952
0
LINE
8
BLACK
6
CONTINUOUS
10
163.013
20
-124.952
11
181.513
21
-129.952
0
LINE
8
BLACK
6
CONTINUOUS
10
181.513
20
-129.952
11
181.518
21
-129.956
0
LINE
8
BLACK
6
CONTINUOUS
10
181.518
20
-129.956
11
181.525
21
-129.957
0
LINE
8
BLACK
6
CONTINUOUS
10
181.525
20
-129.957
11
203.45
21
-142.71
0
LINE
8
BLACK
6
CONTINUOUS
10
203.45
20
-142.71
11
203.457
21
-142.72
0
LINE
8
BLACK
6
CONTINUOUS
10
203.457
20
-142.72
11
203.87
21
-142.936
0
LINE
8
BLACK
6
CONTINUOUS
10
203.87
20
-142.936
11
204.309
21
-143.124
0
LINE
8
BLACK
6
CONTINUOUS
10
204.309
20
-143.124
11
204.762
21
-143.275
0
LINE
8
BLACK
6
CONTINUOUS
10
204.762
20
-143.275
11
205.226
21
-143.389
0
LINE
8
BLACK
6
CONTINUOUS
10
205.226
20
-143.389
11
205.697
21
-143.466
0
LINE
8
BLACK
6
CONTINUOUS
10
205.697
20
-143.466
11
206.173
21
-143.504
0
LINE
8
BLACK
6
CONTINUOUS
10
206.173
20
-143.504
11
206.651
21
-143.504
0
LINE
8
BLACK
6
CONTINUOUS
10
206.651
20
-143.504
11
207.127
21
-143.466
0
LINE
8
BLACK
6
CONTINUOUS
10
207.127
20
-143.466
11
207.598
21
-143.389
0
LINE
8
BLACK
6
CONTINUOUS
10
207.598
20
-143.389
11
208.062
21
-143.275
0
LINE
8
BLACK
6
CONTINUOUS
10
208.062
20
-143.275
11
208.515
21
-143.124
0
LINE
8
BLACK
6
CONTINUOUS
10
208.515
20
-143.124
11
208.955
21
-142.936
0
LINE
8
BLACK
6
CONTINUOUS
10
208.955
20
-142.936
11
209.377
21
-142.715
0
LINE
8
BLACK
6
CONTINUOUS
10
209.377
20
-142.715
11
209.781
21
-142.459
0
LINE
8
BLACK
6
CONTINUOUS
10
209.781
20
-142.459
11
210.163
21
-142.172
0
LINE
8
BLACK
6
CONTINUOUS
10
210.163
20
-142.172
11
210.52
21
-141.856
0
LINE
8
BLACK
6
CONTINUOUS
10
210.52
20
-141.856
11
210.851
21
-141.511
0
LINE
8
BLACK
6
CONTINUOUS
10
210.851
20
-141.511
11
211.153
21
-141.141
0
LINE
8
BLACK
6
CONTINUOUS
10
211.153
20
-141.141
11
211.424
21
-140.748
0
LINE
8
BLACK
6
CONTINUOUS
10
211.424
20
-140.748
11
211.663
21
-140.335
0
LINE
8
BLACK
6
CONTINUOUS
10
211.663
20
-140.335
11
211.868
21
-139.903
0
LINE
8
BLACK
6
CONTINUOUS
10
211.868
20
-139.903
11
212.037
21
-139.457
0
LINE
8
BLACK
6
CONTINUOUS
10
212.037
20
-139.457
11
212.17
21
-138.998
0
LINE
8
BLACK
6
CONTINUOUS
10
212.17
20
-138.998
11
212.266
21
-138.53
0
LINE
8
BLACK
6
CONTINUOUS
10
212.266
20
-138.53
11
212.323
21
-138.056
0
LINE
8
BLACK
6
CONTINUOUS
10
212.323
20
-138.056
11
212.343
21
-137.579
0
LINE
8
BLACK
6
CONTINUOUS
10
212.343
20
-137.579
11
212.323
21
-137.102
0
LINE
8
BLACK
6
CONTINUOUS
10
212.323
20
-137.102
11
212.266
21
-136.627
0
LINE
8
BLACK
6
CONTINUOUS
10
212.266
20
-136.627
11
212.17
21
-136.16
0
LINE
8
BLACK
6
CONTINUOUS
10
212.17
20
-136.16
11
212.037
21
-135.701
0
LINE
8
BLACK
6
CONTINUOUS
10
212.037
20
-135.701
11
211.868
21
-135.254
0
LINE
8
BLACK
6
CONTINUOUS
10
211.868
20
-135.254
11
211.663
21
-134.823
0
LINE
8
BLACK
6
CONTINUOUS
10
211.663
20
-134.823
11
211.424
21
-134.409
0
LINE
8
BLACK
6
CONTINUOUS
10
211.424
20
-134.409
11
211.153
21
-134.016
0
LINE
8
BLACK
6
CONTINUOUS
10
211.153
20
-134.016
11
210.851
21
-133.646
0
LINE
8
BLACK
6
CONTINUOUS
10
210.851
20
-133.646
11
210.52
21
-133.302
0
LINE
8
BLACK
6
CONTINUOUS
10
210.52
20
-133.302
11
210.163
21
-132.985
0
LINE
8
BLACK
6
CONTINUOUS
10
210.163
20
-132.985
11
209.781
21
-132.698
0
LINE
8
BLACK
6
CONTINUOUS
10
209.781
20
-132.698
11
209.386
21
-132.449
0
LINE
8
BLACK
6
CONTINUOUS
10
209.386
20
-132.449
11
209.375
21
-132.447
0
LINE
8
BLACK
6
CONTINUOUS
10
209.375
20
-132.447
11
209.375
21
-132.447
0
LINE
8
BLACK
6
CONTINUOUS
10
209.375
20
-132.447
11
209.375
21
-132.447
0
LINE
8
BLACK
6
CONTINUOUS
10
209.375
20
-132.447
11
205.371
21
-130.111
0
LINE
8
BLACK
6
CONTINUOUS
10
205.371
20
-130.111
11
205.37
21
-130.11
0
LINE
8
BLACK
6
CONTINUOUS
10
205.37
20
-130.11
11
205.368
21
-130.109
0
LINE
8
BLACK
6
CONTINUOUS
10
205.368
20
-130.109
11
205.191
21
-129.964
0
LINE
8
BLACK
6
CONTINUOUS
10
205.191
20
-129.964
11
205.038
21
-129.795
0
LINE
8
BLACK
6
CONTINUOUS
10
205.038
20
-129.795
11
204.911
21
-129.604
0
LINE
8
BLACK
6
CONTINUOUS
10
204.911
20
-129.604
11
204.815
21
-129.396
0
LINE
8
BLACK
6
CONTINUOUS
10
204.815
20
-129.396
11
204.751
21
-129.177
0
LINE
8
BLACK
6
CONTINUOUS
10
204.751
20
-129.177
11
204.721
21
-128.95
0
LINE
8
BLACK
6
CONTINUOUS
10
204.721
20
-128.95
11
204.724
21
-128.721
0
LINE
8
BLACK
6
CONTINUOUS
10
204.724
20
-128.721
11
204.762
21
-128.496
0
LINE
8
BLACK
6
CONTINUOUS
10
204.762
20
-128.496
11
204.834
21
-128.278
0
LINE
8
BLACK
6
CONTINUOUS
10
204.834
20
-128.278
11
204.937
21
-128.074
0
LINE
8
BLACK
6
CONTINUOUS
10
204.937
20
-128.074
11
204.937
21
-128.074
0
LINE
8
BLACK
6
CONTINUOUS
10
204.937
20
-128.074
11
212.45
21
-114.987
0
LINE
8
BLACK
6
CONTINUOUS
10
212.45
20
-114.987
11
212.499
21
-47
0
LINE
8
BLACK
6
CONTINUOUS
10
212.499
20
-47
11
212.503
21
-46.9893
0
LINE
8
BLACK
6
CONTINUOUS
10
212.503
20
-46.9893
11
212.485
21
-46.5208
0
LINE
8
BLACK
6
CONTINUOUS
10
212.485
20
-46.5208
11
212.427
21
-46.0448
0
LINE
8
BLACK
6
CONTINUOUS
10
212.427
20
-46.0448
11
212.331
21
-45.5749
0
LINE
8
BLACK
6
CONTINUOUS
10
212.331
20
-45.5749
11
212.197
21
-45.1143
0
LINE
8
BLACK
6
CONTINUOUS
10
212.197
20
-45.1143
11
212.027
21
-44.6659
0
LINE
8
BLACK
6
CONTINUOUS
10
212.027
20
-44.6659
11
211.822
21
-44.2326
0
LINE
8
BLACK
6
CONTINUOUS
10
211.822
20
-44.2326
11
211.582
21
-43.8173
0
LINE
8
BLACK
6
CONTINUOUS
10
211.582
20
-43.8173
11
211.31
21
-43.4227
0
LINE
8
BLACK
6
CONTINUOUS
10
211.31
20
-43.4227
11
211.006
21
-43.0512
0
LINE
8
BLACK
6
CONTINUOUS
10
211.006
20
-43.0512
11
210.674
21
-42.7054
0
LINE
8
BLACK
6
CONTINUOUS
10
210.674
20
-42.7054
11
210.315
21
-42.3874
0
LINE
8
BLACK
6
CONTINUOUS
10
210.315
20
-42.3874
11
209.932
21
-42.0993
0
LINE
8
BLACK
6
CONTINUOUS
10
209.932
20
-42.0993
11
209.526
21
-41.843
0
LINE
8
BLACK
6
CONTINUOUS
10
209.526
20
-41.843
11
209.102
21
-41.6201
0
LINE
8
BLACK
6
CONTINUOUS
10
209.102
20
-41.6201
11
208.661
21
-41.4321
0
LINE
8
BLACK
6
CONTINUOUS
10
208.661
20
-41.4321
11
208.206
21
-41.2803
0
LINE
8
BLACK
6
CONTINUOUS
10
208.206
20
-41.2803
11
207.74
21
-41.1655
0
LINE
8
BLACK
6
CONTINUOUS
10
207.74
20
-41.1655
11
207.267
21
-41.0886
0
LINE
8
BLACK
6
CONTINUOUS
10
207.267
20
-41.0886
11
206.789
21
-41.05
0
LINE
8
BLACK
6
CONTINUOUS
10
206.789
20
-41.05
11
206.309
21
-41.05
0
LINE
8
BLACK
6
CONTINUOUS
10
206.309
20
-41.05
11
205.831
21
-41.0886
0
LINE
8
BLACK
6
CONTINUOUS
10
205.831
20
-41.0886
11
205.358
21
-41.1655
0
LINE
8
BLACK
6
CONTINUOUS
10
205.358
20
-41.1655
11
204.892
21
-41.2803
0
LINE
8
BLACK
6
CONTINUOUS
10
204.892
20
-41.2803
11
204.437
21
-41.4321
0
LINE
8
BLACK
6
CONTINUOUS
10
204.437
20
-41.4321
11
203.996
21
-41.6201
0
LINE
8
BLACK
6
CONTINUOUS
10
203.996
20
-41.6201
11
203.572
21
-41.843
0
LINE
8
BLACK
6
CONTINUOUS
10
203.572
20
-41.843
11
203.166
21
-42.0993
0
LINE
8
BLACK
6
CONTINUOUS
10
203.166
20
-42.0993
11
202.783
21
-42.3874
0
LINE
8
BLACK
6
CONTINUOUS
10
202.783
20
-42.3874
11
202.424
21
-42.7054
0
LINE
8
BLACK
6
CONTINUOUS
10
202.424
20
-42.7054
11
202.092
21
-43.0512
0
LINE
8
BLACK
6
CONTINUOUS
10
202.092
20
-43.0512
11
201.788
21
-43.4227
0
LINE
8
BLACK
6
CONTINUOUS
10
201.788
20
-43.4227
11
201.516
21
-43.8173
0
LINE
8
BLACK
6
CONTINUOUS
10
201.516
20
-43.8173
11
201.276
21
-44.2327
0
LINE
8
BLACK
6
CONTINUOUS
10
201.276
20
-44.2327
11
201.071
21
-44.6659
0
LINE
8
BLACK
6
CONTINUOUS
10
201.071
20
-44.6659
11
200.901
21
-45.1143
0
LINE
8
BLACK
6
CONTINUOUS
10
200.901
20
-45.1143
11
200.767
21
-45.5749
0
LINE
8
BLACK
6
CONTINUOUS
10
200.767
20
-45.5749
11
200.671
21
-46.0448
0
LINE
8
BLACK
6
CONTINUOUS
10
200.671
20
-46.0448
11
200.614
21
-46.5208
0
LINE
8
BLACK
6
CONTINUOUS
10
200.614
20
-46.5208
11
200.595
21
-46.9894
0
LINE
8
BLACK
6
CONTINUOUS
10
200.595
20
-46.9894
11
200.599
21
-47
0
LINE
8
BLACK
6
CONTINUOUS
10
200.599
20
-47
11
200.599
21
-47.0003
0
LINE
8
BLACK
6
CONTINUOUS
10
200.599
20
-47.0003
11
200.599
21
-47.0006
0
LINE
8
BLACK
6
CONTINUOUS
10
200.599
20
-47.0006
11
200.55
21
-51.0006
0
LINE
8
BLACK
6
CONTINUOUS
10
200.55
20
-51.0006
11
200.55
21
-51.0007
0
LINE
8
BLACK
6
CONTINUOUS
10
200.55
20
-51.0007
11
200.534
21
-51.2206
0
LINE
8
BLACK
6
CONTINUOUS
10
200.534
20
-51.2206
11
200.487
21
-51.4367
0
LINE
8
BLACK
6
CONTINUOUS
10
200.487
20
-51.4367
11
200.41
21
-51.6439
0
LINE
8
BLACK
6
CONTINUOUS
10
200.41
20
-51.6439
11
200.304
21
-51.838
0
LINE
8
BLACK
6
CONTINUOUS
10
200.304
20
-51.838
11
200.171
21
-52.015
0
LINE
8
BLACK
6
CONTINUOUS
10
200.171
20
-52.015
11
200.015
21
-52.1714
0
LINE
8
BLACK
6
CONTINUOUS
10
200.015
20
-52.1714
11
199.838
21
-52.3039
0
LINE
8
BLACK
6
CONTINUOUS
10
199.838
20
-52.3039
11
199.644
21
-52.4099
0
LINE
8
BLACK
6
CONTINUOUS
10
199.644
20
-52.4099
11
199.437
21
-52.4872
0
LINE
8
BLACK
6
CONTINUOUS
10
199.437
20
-52.4872
11
199.221
21
-52.5342
0
LINE
8
BLACK
6
CONTINUOUS
10
199.221
20
-52.5342
11
199
21
-52.55
0
LINE
8
BLACK
6
CONTINUOUS
10
199
20
-52.55
11
194
21
-52.55
0
LINE
8
BLACK
6
CONTINUOUS
10
194
20
-52.55
11
193.782
21
-52.5348
  0
ENDSEC
  0
EOF
