  0
SECTION
  2
HEADER
  9
$ANGBASE
  50
0.0
  9
$ANGDIR
  70
1
  9
$MEASUREMENT
  70
1
  0
ENDSEC
  0
SECTION
  2
TABLES
  0
TABLE
  2
LTYPE
  70
4
  0
LTYPE
  5
40F
  2
CONTINUOUS
  70
0
  3
Solid line
  72
65
  73
0
  40
0.0
  0
LTYPE
  5
410
  2
DASHDOT
 70
0
  3
Dash Dot ____ _ ____ _
 72
65
 73
4
 40
2.0
 49
1.25
 49
-0.25
 49
0.25
 49
-0.25
  0
LTYPE
  5
411
  2
DASHED
 70
0
  3
Dashed __ __ __ __ __
 72
65
 73
2
 40
0.75
 49
0.5
 49
-0.25
  0
LTYPE
  5
43B
  2
DOTTED
 70
0
  3
Dotted .  .  .  .
 72
65
 73
2
 40
0.2
 49
0.0
 49
-0.2
  0
ENDTAB
  0
TABLE
  2
STYLE
  70
4
  0
STYLE
  2
KICAD
  70
0
  40
0
  41
1
  42
1
  50
0
  71
0
  3
isocp.shx
  0
STYLE
  2
KICADB
  70
0
  40
0
  41
1
  42
1
  50
0
  71
0
  3
isocp.shx
  0
STYLE
  2
KICADI
  70
0
  40
0
  41
1
  42
1
  50
15
  71
0
  3
isocp.shx
  0
STYLE
  2
KICADBI
  70
0
  40
0
  41
1
  42
1
  50
15
  71
0
  3
isocp.shx
  0
ENDTAB
  0
TABLE
  2
LAYER
  70
1
  0
LAYER
  2
BLACK
  70
0
  62
7
  6
CONTINUOUS
  0
ENDTAB
  0
ENDSEC
  0
SECTION
  2
ENTITIES
0
LINE
8
BLACK
6
CONTINUOUS
10
127
20
-126.5
11
154
21
-135
0
ARC
8
BLACK
10
166
20
-56.5
40
1.5
50
-180
51
-90
0
LINE
8
BLACK
6
CONTINUOUS
10
166
20
-58
11
182
21
-58
0
LINE
8
BLACK
6
CONTINUOUS
10
108.7
20
-128.1
11
127
21
-126.5
0
LINE
8
BLACK
6
CONTINUOUS
10
102.007
20
-83.7994
11
86.0183
21
-85.275
0
LINE
8
BLACK
6
CONTINUOUS
10
185
20
-60
11
201
21
-60
0
ARC
8
BLACK
10
105.631
20
-124.494
40
1.50001
50
5.00024
51
94.9987
0
LINE
8
BLACK
6
CONTINUOUS
10
123.926
20
-68.4002
11
103.864
21
-70.0998
0
ARC
8
BLACK
10
201
20
-61.525
40
1.525
50
10.3889
51
90
0
ARC
8
BLACK
10
101.876
20
-82.3051
40
1.49992
50
-85.003
51
5.00081
0
ARC
8
BLACK
10
123.848
20
-66.75
40
1.652
50
-87.3009
51
-0
0
ARC
8
BLACK
10
108.749
20
-126.643
40
1.45763
50
-173.825
51
-91.9343
0
LINE
8
BLACK
6
CONTINUOUS
10
173
20
-135
11
191.5
21
-140
0
LINE
8
BLACK
6
CONTINUOUS
10
163
20
-53.5
11
146
21
-53.5
0
ARC
8
BLACK
10
163
20
-55
40
1.5
50
-0
51
90
0
LINE
8
BLACK
6
CONTINUOUS
10
221
20
-62.5
11
204
21
-62.5
0
ARC
8
BLACK
10
204
20
-60.975
40
1.525
50
-169.611
51
-90
0
ARC
8
BLACK
10
207.75
20
-147.701
40
1.49993
50
-120.003
51
-29.9954
0
ARC
8
BLACK
10
103.994
20
-71.5941
40
1.5001
50
-264.996
51
-175.002
0
LINE
8
BLACK
6
CONTINUOUS
10
89.5
20
-124.445
11
105.5
21
-123
0
LINE
8
BLACK
6
CONTINUOUS
10
107.125
20
-124.364
11
107.3
21
-126.8
0
LINE
8
BLACK
6
CONTINUOUS
10
102.5
20
-71.7248
11
103.37
21
-82.1744
0
ARC
8
BLACK
10
89.3692
20
-122.951
40
1.4999
50
-175.004
51
-84.9971
0
LINE
8
BLACK
6
CONTINUOUS
10
209.049
20
-148.451
11
222.5
21
-125
0
LINE
8
BLACK
6
CONTINUOUS
10
222.5
20
-64
11
222.5
21
-125
0
ARC
8
BLACK
10
221
20
-63.9999
40
1.4999
50
-0.00381997
51
90.0038
0
LINE
8
BLACK
6
CONTINUOUS
10
144.5
20
-55
11
144.5
21
-56
0
ARC
8
BLACK
10
185
20
-58.375
40
1.625
50
-157.38
51
-90
0
ARC
8
BLACK
10
182
20
-59.625
40
1.625
50
22.6199
51
90
0
ARC
8
BLACK
10
143
20
-56.0001
40
1.4999
50
-90.0038
51
0.00381997
0
LINE
8
BLACK
6
CONTINUOUS
10
164.5
20
-56.5
11
164.5
21
-55
0
LINE
8
BLACK
6
CONTINUOUS
10
207
20
-149
11
191.5
21
-140
0
ARC
8
BLACK
10
146
20
-55.0001
40
1.5001
50
90.0038
51
179.996
0
LINE
8
BLACK
6
CONTINUOUS
10
173
20
-135
11
154
21
-135
0
LINE
8
BLACK
6
CONTINUOUS
10
84.6548
20
-86.9
11
87.875
21
-123.082
0
LINE
8
BLACK
6
CONTINUOUS
10
125.5
20
-59
11
125.5
21
-66.75
0
ARC
8
BLACK
10
86.1492
20
-86.7694
40
1.50012
50
-264.995
51
-175.006
0
LINE
8
BLACK
6
CONTINUOUS
10
127
20
-57.5
11
143
21
-57.5
0
ARC
8
BLACK
10
127
20
-59.0001
40
1.5001
50
90.0038
51
179.996
0
CIRCLE
8
BLACK
10
215.25
20
-86.5
40
1.15
0
CIRCLE
8
BLACK
10
105.25
20
-103.25
40
1.15
0
CIRCLE
8
BLACK
10
124.8
20
-77
40
1.15
0
CIRCLE
8
BLACK
10
184
20
-79.5
40
1.15
0
CIRCLE
8
BLACK
10
206.5
20
-86.5
40
1.15
0
CIRCLE
8
BLACK
10
146
20
-111.5
40
1.15
0
CIRCLE
8
BLACK
10
197.5
20
-125.5
40
1.15
  0
ENDSEC
  0
EOF
