  0
SECTION
  2
HEADER
  9
$ANGBASE
  50
0.0
  9
$ANGDIR
  70
1
  9
$MEASUREMENT
  70
1
  0
ENDSEC
  0
SECTION
  2
TABLES
  0
TABLE
  2
LTYPE
  70
4
  0
LTYPE
  5
40F
  2
CONTINUOUS
  70
0
  3
Solid line
  72
65
  73
0
  40
0.0
  0
LTYPE
  5
410
  2
DASHDOT
 70
0
  3
Dash Dot ____ _ ____ _
 72
65
 73
4
 40
2.0
 49
1.25
 49
-0.25
 49
0.25
 49
-0.25
  0
LTYPE
  5
411
  2
DASHED
 70
0
  3
Dashed __ __ __ __ __
 72
65
 73
2
 40
0.75
 49
0.5
 49
-0.25
  0
LTYPE
  5
43B
  2
DOTTED
 70
0
  3
Dotted .  .  .  .
 72
65
 73
2
 40
0.2
 49
0.0
 49
-0.2
  0
ENDTAB
  0
TABLE
  2
STYLE
  70
4
  0
STYLE
  2
KICAD
  70
0
  40
0
  41
1
  42
1
  50
0
  71
0
  3
isocp.shx
  0
STYLE
  2
KICADB
  70
0
  40
0
  41
1
  42
1
  50
0
  71
0
  3
isocp.shx
  0
STYLE
  2
KICADI
  70
0
  40
0
  41
1
  42
1
  50
15
  71
0
  3
isocp.shx
  0
STYLE
  2
KICADBI
  70
0
  40
0
  41
1
  42
1
  50
15
  71
0
  3
isocp.shx
  0
ENDTAB
  0
TABLE
  2
LAYER
  70
1
  0
LAYER
  2
BLACK
  70
0
  62
7
  6
CONTINUOUS
  0
ENDTAB
  0
ENDSEC
  0
SECTION
  2
ENTITIES
0
LINE
8
BLACK
6
CONTINUOUS
10
205.669
20
-140.216
11
205.958
21
-140.273
0
LINE
8
BLACK
6
CONTINUOUS
10
205.958
20
-140.273
11
206.237
21
-140.368
0
LINE
8
BLACK
6
CONTINUOUS
10
206.237
20
-140.368
11
206.5
21
-140.498
0
LINE
8
BLACK
6
CONTINUOUS
10
206.5
20
-140.498
11
206.745
21
-140.661
0
LINE
8
BLACK
6
CONTINUOUS
10
206.745
20
-140.661
11
206.966
21
-140.855
0
LINE
8
BLACK
6
CONTINUOUS
10
206.966
20
-140.855
11
207.161
21
-141.077
0
LINE
8
BLACK
6
CONTINUOUS
10
207.161
20
-141.077
11
207.324
21
-141.321
0
LINE
8
BLACK
6
CONTINUOUS
10
207.324
20
-141.321
11
207.454
21
-141.585
0
LINE
8
BLACK
6
CONTINUOUS
10
207.454
20
-141.585
11
207.549
21
-141.864
0
LINE
8
BLACK
6
CONTINUOUS
10
207.549
20
-141.864
11
207.606
21
-142.153
0
LINE
8
BLACK
6
CONTINUOUS
10
207.606
20
-142.153
11
207.625
21
-142.446
0
LINE
8
BLACK
6
CONTINUOUS
10
207.625
20
-142.446
11
207.606
21
-142.74
0
LINE
8
BLACK
6
CONTINUOUS
10
207.606
20
-142.74
11
207.549
21
-143.029
0
LINE
8
BLACK
6
CONTINUOUS
10
207.549
20
-143.029
11
207.454
21
-143.307
0
LINE
8
BLACK
6
CONTINUOUS
10
207.454
20
-143.307
11
207.324
21
-143.571
0
LINE
8
BLACK
6
CONTINUOUS
10
207.324
20
-143.571
11
207.161
21
-143.816
0
LINE
8
BLACK
6
CONTINUOUS
10
207.161
20
-143.816
11
206.966
21
-144.037
0
LINE
8
BLACK
6
CONTINUOUS
10
206.966
20
-144.037
11
206.745
21
-144.231
0
LINE
8
BLACK
6
CONTINUOUS
10
206.745
20
-144.231
11
206.5
21
-144.395
0
LINE
8
BLACK
6
CONTINUOUS
10
206.5
20
-144.395
11
206.237
21
-144.525
0
LINE
8
BLACK
6
CONTINUOUS
10
206.237
20
-144.525
11
205.958
21
-144.62
0
LINE
8
BLACK
6
CONTINUOUS
10
205.958
20
-144.62
11
205.669
21
-144.677
0
LINE
8
BLACK
6
CONTINUOUS
10
205.669
20
-144.677
11
205.375
21
-144.696
0
LINE
8
BLACK
6
CONTINUOUS
10
205.375
20
-144.696
11
205.082
21
-144.677
0
LINE
8
BLACK
6
CONTINUOUS
10
205.082
20
-144.677
11
204.793
21
-144.62
0
LINE
8
BLACK
6
CONTINUOUS
10
204.793
20
-144.62
11
204.514
21
-144.525
0
LINE
8
BLACK
6
CONTINUOUS
10
204.514
20
-144.525
11
204.25
21
-144.395
0
LINE
8
BLACK
6
CONTINUOUS
10
204.25
20
-144.395
11
204.006
21
-144.231
0
LINE
8
BLACK
6
CONTINUOUS
10
204.006
20
-144.231
11
203.784
21
-144.037
0
LINE
8
BLACK
6
CONTINUOUS
10
203.784
20
-144.037
11
203.59
21
-143.816
0
LINE
8
BLACK
6
CONTINUOUS
10
203.59
20
-143.816
11
203.427
21
-143.571
0
LINE
8
BLACK
6
CONTINUOUS
10
203.427
20
-143.571
11
203.297
21
-143.307
0
LINE
8
BLACK
6
CONTINUOUS
10
203.297
20
-143.307
11
203.202
21
-143.029
0
LINE
8
BLACK
6
CONTINUOUS
10
203.202
20
-143.029
11
203.145
21
-142.74
0
LINE
8
BLACK
6
CONTINUOUS
10
203.145
20
-142.74
11
203.125
21
-142.446
0
LINE
8
BLACK
6
CONTINUOUS
10
203.125
20
-142.446
11
203.145
21
-142.153
0
LINE
8
BLACK
6
CONTINUOUS
10
203.145
20
-142.153
11
203.202
21
-141.864
0
LINE
8
BLACK
6
CONTINUOUS
10
203.202
20
-141.864
11
203.297
21
-141.585
0
LINE
8
BLACK
6
CONTINUOUS
10
203.297
20
-141.585
11
203.427
21
-141.321
0
LINE
8
BLACK
6
CONTINUOUS
10
203.427
20
-141.321
11
203.59
21
-141.077
0
LINE
8
BLACK
6
CONTINUOUS
10
203.59
20
-141.077
11
203.784
21
-140.855
0
LINE
8
BLACK
6
CONTINUOUS
10
203.784
20
-140.855
11
204.006
21
-140.661
0
LINE
8
BLACK
6
CONTINUOUS
10
204.006
20
-140.661
11
204.25
21
-140.498
0
LINE
8
BLACK
6
CONTINUOUS
10
204.25
20
-140.498
11
204.514
21
-140.368
0
LINE
8
BLACK
6
CONTINUOUS
10
204.514
20
-140.368
11
204.793
21
-140.273
0
LINE
8
BLACK
6
CONTINUOUS
10
204.793
20
-140.273
11
205.082
21
-140.216
0
LINE
8
BLACK
6
CONTINUOUS
10
205.082
20
-140.216
11
205.375
21
-140.196
0
LINE
8
BLACK
6
CONTINUOUS
10
205.375
20
-140.196
11
205.669
21
-140.216
0
LINE
8
BLACK
6
CONTINUOUS
10
186.12
20
-118.905
11
186.327
21
-118.946
0
LINE
8
BLACK
6
CONTINUOUS
10
186.327
20
-118.946
11
186.522
21
-119.024
0
LINE
8
BLACK
6
CONTINUOUS
10
186.522
20
-119.024
11
186.7
21
-119.137
0
LINE
8
BLACK
6
CONTINUOUS
10
186.7
20
-119.137
11
186.855
21
-119.28
0
LINE
8
BLACK
6
CONTINUOUS
10
186.855
20
-119.28
11
186.981
21
-119.448
0
LINE
8
BLACK
6
CONTINUOUS
10
186.981
20
-119.448
11
187.074
21
-119.637
0
LINE
8
BLACK
6
CONTINUOUS
10
187.074
20
-119.637
11
187.131
21
-119.839
0
LINE
8
BLACK
6
CONTINUOUS
10
187.131
20
-119.839
11
187.15
21
-120.049
0
LINE
8
BLACK
6
CONTINUOUS
10
187.15
20
-120.049
11
187.148
21
-120.109
0
LINE
8
BLACK
6
CONTINUOUS
10
187.148
20
-120.109
11
187.118
21
-120.317
0
LINE
8
BLACK
6
CONTINUOUS
10
187.118
20
-120.317
11
187.051
21
-120.517
0
LINE
8
BLACK
6
CONTINUOUS
10
187.051
20
-120.517
11
186.948
21
-120.7
0
LINE
8
BLACK
6
CONTINUOUS
10
186.948
20
-120.7
11
186.813
21
-120.862
0
LINE
8
BLACK
6
CONTINUOUS
10
186.813
20
-120.862
11
186.651
21
-120.997
0
LINE
8
BLACK
6
CONTINUOUS
10
186.651
20
-120.997
11
186.468
21
-121.1
0
LINE
8
BLACK
6
CONTINUOUS
10
186.468
20
-121.1
11
186.268
21
-121.167
0
LINE
8
BLACK
6
CONTINUOUS
10
186.268
20
-121.167
11
186.06
21
-121.197
0
LINE
8
BLACK
6
CONTINUOUS
10
186.06
20
-121.197
11
185.85
21
-121.189
0
LINE
8
BLACK
6
CONTINUOUS
10
185.85
20
-121.189
11
185.645
21
-121.143
0
LINE
8
BLACK
6
CONTINUOUS
10
185.645
20
-121.143
11
185.451
21
-121.06
0
LINE
8
BLACK
6
CONTINUOUS
10
185.451
20
-121.06
11
185.276
21
-120.943
0
LINE
8
BLACK
6
CONTINUOUS
10
185.276
20
-120.943
11
185.126
21
-120.796
0
LINE
8
BLACK
6
CONTINUOUS
10
185.126
20
-120.796
11
185.004
21
-120.624
0
LINE
8
BLACK
6
CONTINUOUS
10
185.004
20
-120.624
11
184.916
21
-120.433
0
LINE
8
BLACK
6
CONTINUOUS
10
184.916
20
-120.433
11
184.864
21
-120.229
0
LINE
8
BLACK
6
CONTINUOUS
10
184.864
20
-120.229
11
184.85
21
-120.019
0
LINE
8
BLACK
6
CONTINUOUS
10
184.85
20
-120.019
11
184.875
21
-119.81
0
LINE
8
BLACK
6
CONTINUOUS
10
184.875
20
-119.81
11
184.938
21
-119.609
0
LINE
8
BLACK
6
CONTINUOUS
10
184.938
20
-119.609
11
185.036
21
-119.423
0
LINE
8
BLACK
6
CONTINUOUS
10
185.036
20
-119.423
11
185.166
21
-119.257
0
LINE
8
BLACK
6
CONTINUOUS
10
185.166
20
-119.257
11
185.324
21
-119.119
0
LINE
8
BLACK
6
CONTINUOUS
10
185.324
20
-119.119
11
185.505
21
-119.011
0
LINE
8
BLACK
6
CONTINUOUS
10
185.505
20
-119.011
11
185.702
21
-118.938
0
LINE
8
BLACK
6
CONTINUOUS
10
185.702
20
-118.938
11
185.91
21
-118.903
0
LINE
8
BLACK
6
CONTINUOUS
10
185.91
20
-118.903
11
186.12
21
-118.905
0
LINE
8
BLACK
6
CONTINUOUS
10
82.2851
20
-114.818
11
82.5737
21
-114.876
0
LINE
8
BLACK
6
CONTINUOUS
10
82.5737
20
-114.876
11
82.8524
21
-114.97
0
LINE
8
BLACK
6
CONTINUOUS
10
82.8524
20
-114.97
11
83.1164
21
-115.1
0
LINE
8
BLACK
6
CONTINUOUS
10
83.1164
20
-115.1
11
83.3611
21
-115.264
0
LINE
8
BLACK
6
CONTINUOUS
10
83.3611
20
-115.264
11
83.5824
21
-115.458
0
LINE
8
BLACK
6
CONTINUOUS
10
83.5824
20
-115.458
11
83.7764
21
-115.679
0
LINE
8
BLACK
6
CONTINUOUS
10
83.7764
20
-115.679
11
83.9399
21
-115.924
0
LINE
8
BLACK
6
CONTINUOUS
10
83.9399
20
-115.924
11
84.0701
21
-116.188
0
LINE
8
BLACK
6
CONTINUOUS
10
84.0701
20
-116.188
11
84.1647
21
-116.467
0
LINE
8
BLACK
6
CONTINUOUS
10
84.1647
20
-116.467
11
84.2221
21
-116.755
0
LINE
8
BLACK
6
CONTINUOUS
10
84.2221
20
-116.755
11
84.2414
21
-117.049
0
LINE
8
BLACK
6
CONTINUOUS
10
84.2414
20
-117.049
11
84.2221
21
-117.343
0
LINE
8
BLACK
6
CONTINUOUS
10
84.2221
20
-117.343
11
84.1647
21
-117.631
0
LINE
8
BLACK
6
CONTINUOUS
10
84.1647
20
-117.631
11
84.0701
21
-117.91
0
LINE
8
BLACK
6
CONTINUOUS
10
84.0701
20
-117.91
11
83.9399
21
-118.174
0
LINE
8
BLACK
6
CONTINUOUS
10
83.9399
20
-118.174
11
83.7764
21
-118.419
0
LINE
8
BLACK
6
CONTINUOUS
10
83.7764
20
-118.419
11
83.5824
21
-118.64
0
LINE
8
BLACK
6
CONTINUOUS
10
83.5824
20
-118.64
11
83.3611
21
-118.834
0
LINE
8
BLACK
6
CONTINUOUS
10
83.3611
20
-118.834
11
83.1164
21
-118.998
0
LINE
8
BLACK
6
CONTINUOUS
10
83.1164
20
-118.998
11
82.8524
21
-119.128
0
LINE
8
BLACK
6
CONTINUOUS
10
82.8524
20
-119.128
11
82.5737
21
-119.222
0
LINE
8
BLACK
6
CONTINUOUS
10
82.5737
20
-119.222
11
82.2851
21
-119.28
0
LINE
8
BLACK
6
CONTINUOUS
10
82.2851
20
-119.28
11
81.9914
21
-119.299
0
LINE
8
BLACK
6
CONTINUOUS
10
81.9914
20
-119.299
11
81.6977
21
-119.28
0
LINE
8
BLACK
6
CONTINUOUS
10
81.6977
20
-119.28
11
81.409
21
-119.222
0
LINE
8
BLACK
6
CONTINUOUS
10
81.409
20
-119.222
11
81.1303
21
-119.128
0
LINE
8
BLACK
6
CONTINUOUS
10
81.1303
20
-119.128
11
80.8664
21
-118.998
0
LINE
8
BLACK
6
CONTINUOUS
10
80.8664
20
-118.998
11
80.6217
21
-118.834
0
LINE
8
BLACK
6
CONTINUOUS
10
80.6217
20
-118.834
11
80.4004
21
-118.64
0
LINE
8
BLACK
6
CONTINUOUS
10
80.4004
20
-118.64
11
80.2063
21
-118.419
0
LINE
8
BLACK
6
CONTINUOUS
10
80.2063
20
-118.419
11
80.0428
21
-118.174
0
LINE
8
BLACK
6
CONTINUOUS
10
80.0428
20
-118.174
11
79.9126
21
-117.91
0
LINE
8
BLACK
6
CONTINUOUS
10
79.9126
20
-117.91
11
79.818
21
-117.631
0
LINE
8
BLACK
6
CONTINUOUS
10
79.818
20
-117.631
11
79.7606
21
-117.343
0
LINE
8
BLACK
6
CONTINUOUS
10
79.7606
20
-117.343
11
79.7414
21
-117.049
0
LINE
8
BLACK
6
CONTINUOUS
10
79.7414
20
-117.049
11
79.7606
21
-116.755
0
LINE
8
BLACK
6
CONTINUOUS
10
79.7606
20
-116.755
11
79.818
21
-116.467
0
LINE
8
BLACK
6
CONTINUOUS
10
79.818
20
-116.467
11
79.9126
21
-116.188
0
LINE
8
BLACK
6
CONTINUOUS
10
79.9126
20
-116.188
11
80.0428
21
-115.924
0
LINE
8
BLACK
6
CONTINUOUS
10
80.0428
20
-115.924
11
80.2063
21
-115.679
0
LINE
8
BLACK
6
CONTINUOUS
10
80.2063
20
-115.679
11
80.4004
21
-115.458
0
LINE
8
BLACK
6
CONTINUOUS
10
80.4004
20
-115.458
11
80.6217
21
-115.264
0
LINE
8
BLACK
6
CONTINUOUS
10
80.6217
20
-115.264
11
80.8664
21
-115.1
0
LINE
8
BLACK
6
CONTINUOUS
10
80.8664
20
-115.1
11
81.1303
21
-114.97
0
LINE
8
BLACK
6
CONTINUOUS
10
81.1303
20
-114.97
11
81.409
21
-114.876
0
LINE
8
BLACK
6
CONTINUOUS
10
81.409
20
-114.876
11
81.6977
21
-114.818
0
LINE
8
BLACK
6
CONTINUOUS
10
81.6977
20
-114.818
11
81.9914
21
-114.799
0
LINE
8
BLACK
6
CONTINUOUS
10
81.9914
20
-114.799
11
82.2851
21
-114.818
0
LINE
8
BLACK
6
CONTINUOUS
10
134.62
20
-104.905
11
134.827
21
-104.946
0
LINE
8
BLACK
6
CONTINUOUS
10
134.827
20
-104.946
11
135.022
21
-105.024
0
LINE
8
BLACK
6
CONTINUOUS
10
135.022
20
-105.024
11
135.2
21
-105.137
0
LINE
8
BLACK
6
CONTINUOUS
10
135.2
20
-105.137
11
135.355
21
-105.28
0
LINE
8
BLACK
6
CONTINUOUS
10
135.355
20
-105.28
11
135.481
21
-105.448
0
LINE
8
BLACK
6
CONTINUOUS
10
135.481
20
-105.448
11
135.574
21
-105.637
0
LINE
8
BLACK
6
CONTINUOUS
10
135.574
20
-105.637
11
135.631
21
-105.839
0
LINE
8
BLACK
6
CONTINUOUS
10
135.631
20
-105.839
11
135.65
21
-106.049
0
LINE
8
BLACK
6
CONTINUOUS
10
135.65
20
-106.049
11
135.648
21
-106.109
0
LINE
8
BLACK
6
CONTINUOUS
10
135.648
20
-106.109
11
135.618
21
-106.317
0
LINE
8
BLACK
6
CONTINUOUS
10
135.618
20
-106.317
11
135.551
21
-106.517
0
LINE
8
BLACK
6
CONTINUOUS
10
135.551
20
-106.517
11
135.448
21
-106.7
0
LINE
8
BLACK
6
CONTINUOUS
10
135.448
20
-106.7
11
135.313
21
-106.862
0
LINE
8
BLACK
6
CONTINUOUS
10
135.313
20
-106.862
11
135.151
21
-106.997
0
LINE
8
BLACK
6
CONTINUOUS
10
135.151
20
-106.997
11
134.968
21
-107.1
0
LINE
8
BLACK
6
CONTINUOUS
10
134.968
20
-107.1
11
134.768
21
-107.167
0
LINE
8
BLACK
6
CONTINUOUS
10
134.768
20
-107.167
11
134.56
21
-107.197
0
LINE
8
BLACK
6
CONTINUOUS
10
134.56
20
-107.197
11
134.35
21
-107.189
0
LINE
8
BLACK
6
CONTINUOUS
10
134.35
20
-107.189
11
134.145
21
-107.143
0
LINE
8
BLACK
6
CONTINUOUS
10
134.145
20
-107.143
11
133.951
21
-107.06
0
LINE
8
BLACK
6
CONTINUOUS
10
133.951
20
-107.06
11
133.776
21
-106.943
0
LINE
8
BLACK
6
CONTINUOUS
10
133.776
20
-106.943
11
133.626
21
-106.796
0
LINE
8
BLACK
6
CONTINUOUS
10
133.626
20
-106.796
11
133.504
21
-106.624
0
LINE
8
BLACK
6
CONTINUOUS
10
133.504
20
-106.624
11
133.416
21
-106.433
0
LINE
8
BLACK
6
CONTINUOUS
10
133.416
20
-106.433
11
133.364
21
-106.229
0
LINE
8
BLACK
6
CONTINUOUS
10
133.364
20
-106.229
11
133.35
21
-106.019
0
LINE
8
BLACK
6
CONTINUOUS
10
133.35
20
-106.019
11
133.375
21
-105.81
0
LINE
8
BLACK
6
CONTINUOUS
10
133.375
20
-105.81
11
133.438
21
-105.609
0
LINE
8
BLACK
6
CONTINUOUS
10
133.438
20
-105.609
11
133.536
21
-105.423
0
LINE
8
BLACK
6
CONTINUOUS
10
133.536
20
-105.423
11
133.666
21
-105.257
0
LINE
8
BLACK
6
CONTINUOUS
10
133.666
20
-105.257
11
133.824
21
-105.119
0
LINE
8
BLACK
6
CONTINUOUS
10
133.824
20
-105.119
11
134.005
21
-105.011
0
LINE
8
BLACK
6
CONTINUOUS
10
134.005
20
-105.011
11
134.202
21
-104.938
0
LINE
8
BLACK
6
CONTINUOUS
10
134.202
20
-104.938
11
134.41
21
-104.903
0
LINE
8
BLACK
6
CONTINUOUS
10
134.41
20
-104.903
11
134.62
21
-104.905
0
LINE
8
BLACK
6
CONTINUOUS
10
95.1202
20
-89.4053
11
95.3266
21
-89.4464
0
LINE
8
BLACK
6
CONTINUOUS
10
95.3266
20
-89.4464
11
95.5221
21
-89.5244
0
LINE
8
BLACK
6
CONTINUOUS
10
95.5221
20
-89.5244
11
95.7001
21
-89.6367
0
LINE
8
BLACK
6
CONTINUOUS
10
95.7001
20
-89.6367
11
95.8546
21
-89.7795
0
LINE
8
BLACK
6
CONTINUOUS
10
95.8546
20
-89.7795
11
95.9805
21
-89.9482
0
LINE
8
BLACK
6
CONTINUOUS
10
95.9805
20
-89.9482
11
96.0736
21
-90.1369
0
LINE
8
BLACK
6
CONTINUOUS
10
96.0736
20
-90.1369
11
96.1307
21
-90.3395
0
LINE
8
BLACK
6
CONTINUOUS
10
96.1307
20
-90.3395
11
96.15
21
-90.549
0
LINE
8
BLACK
6
CONTINUOUS
10
96.15
20
-90.549
11
96.1484
21
-90.6092
0
LINE
8
BLACK
6
CONTINUOUS
10
96.1484
20
-90.6092
11
96.1182
21
-90.8175
0
LINE
8
BLACK
6
CONTINUOUS
10
96.1182
20
-90.8175
11
96.0506
21
-91.0168
0
LINE
8
BLACK
6
CONTINUOUS
10
96.0506
20
-91.0168
11
95.9477
21
-91.2004
0
LINE
8
BLACK
6
CONTINUOUS
10
95.9477
20
-91.2004
11
95.8132
21
-91.3622
0
LINE
8
BLACK
6
CONTINUOUS
10
95.8132
20
-91.3622
11
95.6514
21
-91.4968
0
LINE
8
BLACK
6
CONTINUOUS
10
95.6514
20
-91.4968
11
95.4677
21
-91.5996
0
LINE
8
BLACK
6
CONTINUOUS
10
95.4677
20
-91.5996
11
95.2685
21
-91.6673
0
LINE
8
BLACK
6
CONTINUOUS
10
95.2685
20
-91.6673
11
95.0602
21
-91.6975
0
LINE
8
BLACK
6
CONTINUOUS
10
95.0602
20
-91.6975
11
94.8499
21
-91.6892
0
LINE
8
BLACK
6
CONTINUOUS
10
94.8499
20
-91.6892
11
94.6446
21
-91.6428
0
LINE
8
BLACK
6
CONTINUOUS
10
94.6446
20
-91.6428
11
94.4513
21
-91.5597
0
LINE
8
BLACK
6
CONTINUOUS
10
94.4513
20
-91.5597
11
94.2763
21
-91.4428
0
LINE
8
BLACK
6
CONTINUOUS
10
94.2763
20
-91.4428
11
94.1255
21
-91.2959
0
LINE
8
BLACK
6
CONTINUOUS
10
94.1255
20
-91.2959
11
94.0041
21
-91.124
0
LINE
8
BLACK
6
CONTINUOUS
10
94.0041
20
-91.124
11
93.916
21
-90.9329
0
LINE
8
BLACK
6
CONTINUOUS
10
93.916
20
-90.9329
11
93.8642
21
-90.7289
0
LINE
8
BLACK
6
CONTINUOUS
10
93.8642
20
-90.7289
11
93.8504
21
-90.5189
0
LINE
8
BLACK
6
CONTINUOUS
10
93.8504
20
-90.5189
11
93.8751
21
-90.3099
0
LINE
8
BLACK
6
CONTINUOUS
10
93.8751
20
-90.3099
11
93.9375
21
-90.109
0
LINE
8
BLACK
6
CONTINUOUS
10
93.9375
20
-90.109
11
94.0355
21
-89.9227
0
LINE
8
BLACK
6
CONTINUOUS
10
94.0355
20
-89.9227
11
94.1658
21
-89.7574
0
LINE
8
BLACK
6
CONTINUOUS
10
94.1658
20
-89.7574
11
94.324
21
-89.6187
0
LINE
8
BLACK
6
CONTINUOUS
10
94.324
20
-89.6187
11
94.5049
21
-89.5111
0
LINE
8
BLACK
6
CONTINUOUS
10
94.5049
20
-89.5111
11
94.7024
21
-89.4382
0
LINE
8
BLACK
6
CONTINUOUS
10
94.7024
20
-89.4382
11
94.9098
21
-89.4026
0
LINE
8
BLACK
6
CONTINUOUS
10
94.9098
20
-89.4026
11
95.1202
21
-89.4053
0
LINE
8
BLACK
6
CONTINUOUS
10
172.62
20
-72.9053
11
172.827
21
-72.9464
0
LINE
8
BLACK
6
CONTINUOUS
10
172.827
20
-72.9464
11
173.022
21
-73.0244
0
LINE
8
BLACK
6
CONTINUOUS
10
173.022
20
-73.0244
11
173.2
21
-73.1367
0
LINE
8
BLACK
6
CONTINUOUS
10
173.2
20
-73.1367
11
173.355
21
-73.2795
0
LINE
8
BLACK
6
CONTINUOUS
10
173.355
20
-73.2795
11
173.481
21
-73.4482
0
LINE
8
BLACK
6
CONTINUOUS
10
173.481
20
-73.4482
11
173.574
21
-73.6369
0
LINE
8
BLACK
6
CONTINUOUS
10
173.574
20
-73.6369
11
173.631
21
-73.8395
0
LINE
8
BLACK
6
CONTINUOUS
10
173.631
20
-73.8395
11
173.65
21
-74.049
0
LINE
8
BLACK
6
CONTINUOUS
10
173.65
20
-74.049
11
173.648
21
-74.1092
0
LINE
8
BLACK
6
CONTINUOUS
10
173.648
20
-74.1092
11
173.618
21
-74.3175
0
LINE
8
BLACK
6
CONTINUOUS
10
173.618
20
-74.3175
11
173.551
21
-74.5168
0
LINE
8
BLACK
6
CONTINUOUS
10
173.551
20
-74.5168
11
173.448
21
-74.7004
0
LINE
8
BLACK
6
CONTINUOUS
10
173.448
20
-74.7004
11
173.313
21
-74.8622
0
LINE
8
BLACK
6
CONTINUOUS
10
173.313
20
-74.8622
11
173.151
21
-74.9968
0
LINE
8
BLACK
6
CONTINUOUS
10
173.151
20
-74.9968
11
172.968
21
-75.0996
0
LINE
8
BLACK
6
CONTINUOUS
10
172.968
20
-75.0996
11
172.768
21
-75.1673
0
LINE
8
BLACK
6
CONTINUOUS
10
172.768
20
-75.1673
11
172.56
21
-75.1975
0
LINE
8
BLACK
6
CONTINUOUS
10
172.56
20
-75.1975
11
172.35
21
-75.1892
0
LINE
8
BLACK
6
CONTINUOUS
10
172.35
20
-75.1892
11
172.145
21
-75.1428
0
LINE
8
BLACK
6
CONTINUOUS
10
172.145
20
-75.1428
11
171.951
21
-75.0597
0
LINE
8
BLACK
6
CONTINUOUS
10
171.951
20
-75.0597
11
171.776
21
-74.9428
0
LINE
8
BLACK
6
CONTINUOUS
10
171.776
20
-74.9428
11
171.626
21
-74.7959
0
LINE
8
BLACK
6
CONTINUOUS
10
171.626
20
-74.7959
11
171.504
21
-74.624
0
LINE
8
BLACK
6
CONTINUOUS
10
171.504
20
-74.624
11
171.416
21
-74.4329
0
LINE
8
BLACK
6
CONTINUOUS
10
171.416
20
-74.4329
11
171.364
21
-74.2289
0
LINE
8
BLACK
6
CONTINUOUS
10
171.364
20
-74.2289
11
171.35
21
-74.0189
0
LINE
8
BLACK
6
CONTINUOUS
10
171.35
20
-74.0189
11
171.375
21
-73.8099
0
LINE
8
BLACK
6
CONTINUOUS
10
171.375
20
-73.8099
11
171.438
21
-73.609
0
LINE
8
BLACK
6
CONTINUOUS
10
171.438
20
-73.609
11
171.536
21
-73.4227
0
LINE
8
BLACK
6
CONTINUOUS
10
171.536
20
-73.4227
11
171.666
21
-73.2574
0
LINE
8
BLACK
6
CONTINUOUS
10
171.666
20
-73.2574
11
171.824
21
-73.1187
0
LINE
8
BLACK
6
CONTINUOUS
10
171.824
20
-73.1187
11
172.005
21
-73.0111
0
LINE
8
BLACK
6
CONTINUOUS
10
172.005
20
-73.0111
11
172.202
21
-72.9382
0
LINE
8
BLACK
6
CONTINUOUS
10
172.202
20
-72.9382
11
172.41
21
-72.9026
0
LINE
8
BLACK
6
CONTINUOUS
10
172.41
20
-72.9026
11
172.62
21
-72.9053
0
LINE
8
BLACK
6
CONTINUOUS
10
115.12
20
-70.4053
11
115.327
21
-70.4464
0
LINE
8
BLACK
6
CONTINUOUS
10
115.327
20
-70.4464
11
115.522
21
-70.5244
0
LINE
8
BLACK
6
CONTINUOUS
10
115.522
20
-70.5244
11
115.7
21
-70.6367
0
LINE
8
BLACK
6
CONTINUOUS
10
115.7
20
-70.6367
11
115.855
21
-70.7795
0
LINE
8
BLACK
6
CONTINUOUS
10
115.855
20
-70.7795
11
115.981
21
-70.9482
0
LINE
8
BLACK
6
CONTINUOUS
10
115.981
20
-70.9482
11
116.074
21
-71.1369
0
LINE
8
BLACK
6
CONTINUOUS
10
116.074
20
-71.1369
11
116.131
21
-71.3395
0
LINE
8
BLACK
6
CONTINUOUS
10
116.131
20
-71.3395
11
116.15
21
-71.549
0
LINE
8
BLACK
6
CONTINUOUS
10
116.15
20
-71.549
11
116.148
21
-71.6092
0
LINE
8
BLACK
6
CONTINUOUS
10
116.148
20
-71.6092
11
116.118
21
-71.8175
0
LINE
8
BLACK
6
CONTINUOUS
10
116.118
20
-71.8175
11
116.051
21
-72.0168
0
LINE
8
BLACK
6
CONTINUOUS
10
116.051
20
-72.0168
11
115.948
21
-72.2004
0
LINE
8
BLACK
6
CONTINUOUS
10
115.948
20
-72.2004
11
115.813
21
-72.3622
0
LINE
8
BLACK
6
CONTINUOUS
10
115.813
20
-72.3622
11
115.651
21
-72.4968
0
LINE
8
BLACK
6
CONTINUOUS
10
115.651
20
-72.4968
11
115.468
21
-72.5996
0
LINE
8
BLACK
6
CONTINUOUS
10
115.468
20
-72.5996
11
115.268
21
-72.6673
0
LINE
8
BLACK
6
CONTINUOUS
10
115.268
20
-72.6673
11
115.06
21
-72.6975
0
LINE
8
BLACK
6
CONTINUOUS
10
115.06
20
-72.6975
11
114.85
21
-72.6892
0
LINE
8
BLACK
6
CONTINUOUS
10
114.85
20
-72.6892
11
114.645
21
-72.6428
0
LINE
8
BLACK
6
CONTINUOUS
10
114.645
20
-72.6428
11
114.451
21
-72.5597
0
LINE
8
BLACK
6
CONTINUOUS
10
114.451
20
-72.5597
11
114.276
21
-72.4428
0
LINE
8
BLACK
6
CONTINUOUS
10
114.276
20
-72.4428
11
114.126
21
-72.2959
0
LINE
8
BLACK
6
CONTINUOUS
10
114.126
20
-72.2959
11
114.004
21
-72.124
0
LINE
8
BLACK
6
CONTINUOUS
10
114.004
20
-72.124
11
113.916
21
-71.9329
0
LINE
8
BLACK
6
CONTINUOUS
10
113.916
20
-71.9329
11
113.864
21
-71.7289
0
LINE
8
BLACK
6
CONTINUOUS
10
113.864
20
-71.7289
11
113.85
21
-71.5189
0
LINE
8
BLACK
6
CONTINUOUS
10
113.85
20
-71.5189
11
113.875
21
-71.3099
0
LINE
8
BLACK
6
CONTINUOUS
10
113.875
20
-71.3099
11
113.938
21
-71.109
0
LINE
8
BLACK
6
CONTINUOUS
10
113.938
20
-71.109
11
114.036
21
-70.9227
0
LINE
8
BLACK
6
CONTINUOUS
10
114.036
20
-70.9227
11
114.166
21
-70.7574
0
LINE
8
BLACK
6
CONTINUOUS
10
114.166
20
-70.7574
11
114.324
21
-70.6187
0
LINE
8
BLACK
6
CONTINUOUS
10
114.324
20
-70.6187
11
114.505
21
-70.5111
0
LINE
8
BLACK
6
CONTINUOUS
10
114.505
20
-70.5111
11
114.702
21
-70.4382
0
LINE
8
BLACK
6
CONTINUOUS
10
114.702
20
-70.4382
11
114.91
21
-70.4026
0
LINE
8
BLACK
6
CONTINUOUS
10
114.91
20
-70.4026
11
115.12
21
-70.4053
0
LINE
8
BLACK
6
CONTINUOUS
10
82.2446
20
-61.8183
11
82.5333
21
-61.8757
0
LINE
8
BLACK
6
CONTINUOUS
10
82.5333
20
-61.8757
11
82.812
21
-61.9703
0
LINE
8
BLACK
6
CONTINUOUS
10
82.812
20
-61.9703
11
83.076
21
-62.1005
0
LINE
8
BLACK
6
CONTINUOUS
10
83.076
20
-62.1005
11
83.3207
21
-62.264
0
LINE
8
BLACK
6
CONTINUOUS
10
83.3207
20
-62.264
11
83.542
21
-62.458
0
LINE
8
BLACK
6
CONTINUOUS
10
83.542
20
-62.458
11
83.736
21
-62.6793
0
LINE
8
BLACK
6
CONTINUOUS
10
83.736
20
-62.6793
11
83.8995
21
-62.924
0
LINE
8
BLACK
6
CONTINUOUS
10
83.8995
20
-62.924
11
84.0297
21
-63.188
0
LINE
8
BLACK
6
CONTINUOUS
10
84.0297
20
-63.188
11
84.1243
21
-63.4667
0
LINE
8
BLACK
6
CONTINUOUS
10
84.1243
20
-63.4667
11
84.1817
21
-63.7554
0
LINE
8
BLACK
6
CONTINUOUS
10
84.1817
20
-63.7554
11
84.201
21
-64.049
0
LINE
8
BLACK
6
CONTINUOUS
10
84.201
20
-64.049
11
84.1817
21
-64.3427
0
LINE
8
BLACK
6
CONTINUOUS
10
84.1817
20
-64.3427
11
84.1243
21
-64.6314
0
LINE
8
BLACK
6
CONTINUOUS
10
84.1243
20
-64.6314
11
84.0297
21
-64.9101
0
LINE
8
BLACK
6
CONTINUOUS
10
84.0297
20
-64.9101
11
83.8995
21
-65.174
0
LINE
8
BLACK
6
CONTINUOUS
10
83.8995
20
-65.174
11
83.736
21
-65.4188
0
LINE
8
BLACK
6
CONTINUOUS
10
83.736
20
-65.4188
11
83.542
21
-65.64
0
LINE
8
BLACK
6
CONTINUOUS
10
83.542
20
-65.64
11
83.3207
21
-65.8341
0
LINE
8
BLACK
6
CONTINUOUS
10
83.3207
20
-65.8341
11
83.076
21
-65.9976
0
LINE
8
BLACK
6
CONTINUOUS
10
83.076
20
-65.9976
11
82.812
21
-66.1278
0
LINE
8
BLACK
6
CONTINUOUS
10
82.812
20
-66.1278
11
82.5333
21
-66.2224
0
LINE
8
BLACK
6
CONTINUOUS
10
82.5333
20
-66.2224
11
82.2446
21
-66.2798
0
LINE
8
BLACK
6
CONTINUOUS
10
82.2446
20
-66.2798
11
81.951
21
-66.299
0
LINE
8
BLACK
6
CONTINUOUS
10
81.951
20
-66.299
11
81.6573
21
-66.2798
0
LINE
8
BLACK
6
CONTINUOUS
10
81.6573
20
-66.2798
11
81.3686
21
-66.2224
0
LINE
8
BLACK
6
CONTINUOUS
10
81.3686
20
-66.2224
11
81.0899
21
-66.1278
0
LINE
8
BLACK
6
CONTINUOUS
10
81.0899
20
-66.1278
11
80.826
21
-65.9976
0
LINE
8
BLACK
6
CONTINUOUS
10
80.826
20
-65.9976
11
80.5812
21
-65.8341
0
LINE
8
BLACK
6
CONTINUOUS
10
80.5812
20
-65.8341
11
80.36
21
-65.64
0
LINE
8
BLACK
6
CONTINUOUS
10
80.36
20
-65.64
11
80.1659
21
-65.4188
0
LINE
8
BLACK
6
CONTINUOUS
10
80.1659
20
-65.4188
11
80.0024
21
-65.174
0
LINE
8
BLACK
6
CONTINUOUS
10
80.0024
20
-65.174
11
79.8722
21
-64.9101
0
LINE
8
BLACK
6
CONTINUOUS
10
79.8722
20
-64.9101
11
79.7776
21
-64.6314
0
LINE
8
BLACK
6
CONTINUOUS
10
79.7776
20
-64.6314
11
79.7202
21
-64.3427
0
LINE
8
BLACK
6
CONTINUOUS
10
79.7202
20
-64.3427
11
79.701
21
-64.049
0
LINE
8
BLACK
6
CONTINUOUS
10
79.701
20
-64.049
11
79.7202
21
-63.7554
0
LINE
8
BLACK
6
CONTINUOUS
10
79.7202
20
-63.7554
11
79.7776
21
-63.4667
0
LINE
8
BLACK
6
CONTINUOUS
10
79.7776
20
-63.4667
11
79.8722
21
-63.188
0
LINE
8
BLACK
6
CONTINUOUS
10
79.8722
20
-63.188
11
80.0024
21
-62.924
0
LINE
8
BLACK
6
CONTINUOUS
10
80.0024
20
-62.924
11
80.1659
21
-62.6793
0
LINE
8
BLACK
6
CONTINUOUS
10
80.1659
20
-62.6793
11
80.36
21
-62.458
0
LINE
8
BLACK
6
CONTINUOUS
10
80.36
20
-62.458
11
80.5812
21
-62.264
0
LINE
8
BLACK
6
CONTINUOUS
10
80.5812
20
-62.264
11
80.826
21
-62.1005
0
LINE
8
BLACK
6
CONTINUOUS
10
80.826
20
-62.1005
11
81.0899
21
-61.9703
0
LINE
8
BLACK
6
CONTINUOUS
10
81.0899
20
-61.9703
11
81.3686
21
-61.8757
0
LINE
8
BLACK
6
CONTINUOUS
10
81.3686
20
-61.8757
11
81.6573
21
-61.8183
0
LINE
8
BLACK
6
CONTINUOUS
10
81.6573
20
-61.8183
11
81.951
21
-61.799
0
LINE
8
BLACK
6
CONTINUOUS
10
81.951
20
-61.799
11
82.2446
21
-61.8183
0
LINE
8
BLACK
6
CONTINUOUS
10
218.294
20
-55.7692
11
218.582
21
-55.8267
0
LINE
8
BLACK
6
CONTINUOUS
10
218.582
20
-55.8267
11
218.861
21
-55.9213
0
LINE
8
BLACK
6
CONTINUOUS
10
218.861
20
-55.9213
11
219.125
21
-56.0514
0
LINE
8
BLACK
6
CONTINUOUS
10
219.125
20
-56.0514
11
219.37
21
-56.215
0
LINE
8
BLACK
6
CONTINUOUS
10
219.37
20
-56.215
11
219.591
21
-56.409
0
LINE
8
BLACK
6
CONTINUOUS
10
219.591
20
-56.409
11
219.785
21
-56.6303
0
LINE
8
BLACK
6
CONTINUOUS
10
219.785
20
-56.6303
11
219.949
21
-56.875
0
LINE
8
BLACK
6
CONTINUOUS
10
219.949
20
-56.875
11
220.079
21
-57.139
0
LINE
8
BLACK
6
CONTINUOUS
10
220.079
20
-57.139
11
220.173
21
-57.4177
0
LINE
8
BLACK
6
CONTINUOUS
10
220.173
20
-57.4177
11
220.231
21
-57.7063
0
LINE
8
BLACK
6
CONTINUOUS
10
220.231
20
-57.7063
11
220.25
21
-58
0
LINE
8
BLACK
6
CONTINUOUS
10
220.25
20
-58
11
220.231
21
-58.2937
0
LINE
8
BLACK
6
CONTINUOUS
10
220.231
20
-58.2937
11
220.173
21
-58.5823
0
LINE
8
BLACK
6
CONTINUOUS
10
220.173
20
-58.5823
11
220.079
21
-58.861
0
LINE
8
BLACK
6
CONTINUOUS
10
220.079
20
-58.861
11
219.949
21
-59.125
0
LINE
8
BLACK
6
CONTINUOUS
10
219.949
20
-59.125
11
219.785
21
-59.3697
0
LINE
8
BLACK
6
CONTINUOUS
10
219.785
20
-59.3697
11
219.591
21
-59.591
0
LINE
8
BLACK
6
CONTINUOUS
10
219.591
20
-59.591
11
219.37
21
-59.785
0
LINE
8
BLACK
6
CONTINUOUS
10
219.37
20
-59.785
11
219.125
21
-59.9486
0
LINE
8
BLACK
6
CONTINUOUS
10
219.125
20
-59.9486
11
218.861
21
-60.0787
0
LINE
8
BLACK
6
CONTINUOUS
10
218.861
20
-60.0787
11
218.582
21
-60.1733
0
LINE
8
BLACK
6
CONTINUOUS
10
218.582
20
-60.1733
11
218.294
21
-60.2308
0
LINE
8
BLACK
6
CONTINUOUS
10
218.294
20
-60.2308
11
218
21
-60.25
0
LINE
8
BLACK
6
CONTINUOUS
10
218
20
-60.25
11
217.706
21
-60.2308
0
LINE
8
BLACK
6
CONTINUOUS
10
217.706
20
-60.2308
11
217.418
21
-60.1733
0
LINE
8
BLACK
6
CONTINUOUS
10
217.418
20
-60.1733
11
217.139
21
-60.0787
0
LINE
8
BLACK
6
CONTINUOUS
10
217.139
20
-60.0787
11
216.875
21
-59.9486
0
LINE
8
BLACK
6
CONTINUOUS
10
216.875
20
-59.9486
11
216.63
21
-59.785
0
LINE
8
BLACK
6
CONTINUOUS
10
216.63
20
-59.785
11
216.409
21
-59.591
0
LINE
8
BLACK
6
CONTINUOUS
10
216.409
20
-59.591
11
216.215
21
-59.3697
0
LINE
8
BLACK
6
CONTINUOUS
10
216.215
20
-59.3697
11
216.051
21
-59.125
0
LINE
8
BLACK
6
CONTINUOUS
10
216.051
20
-59.125
11
215.921
21
-58.861
0
LINE
8
BLACK
6
CONTINUOUS
10
215.921
20
-58.861
11
215.827
21
-58.5823
0
LINE
8
BLACK
6
CONTINUOUS
10
215.827
20
-58.5823
11
215.769
21
-58.2937
0
LINE
8
BLACK
6
CONTINUOUS
10
215.769
20
-58.2937
11
215.75
21
-58
0
LINE
8
BLACK
6
CONTINUOUS
10
215.75
20
-58
11
215.769
21
-57.7063
0
LINE
8
BLACK
6
CONTINUOUS
10
215.769
20
-57.7063
11
215.827
21
-57.4177
0
LINE
8
BLACK
6
CONTINUOUS
10
215.827
20
-57.4177
11
215.921
21
-57.139
0
LINE
8
BLACK
6
CONTINUOUS
10
215.921
20
-57.139
11
216.051
21
-56.875
0
LINE
8
BLACK
6
CONTINUOUS
10
216.051
20
-56.875
11
216.215
21
-56.6303
0
LINE
8
BLACK
6
CONTINUOUS
10
216.215
20
-56.6303
11
216.409
21
-56.409
0
LINE
8
BLACK
6
CONTINUOUS
10
216.409
20
-56.409
11
216.63
21
-56.215
0
LINE
8
BLACK
6
CONTINUOUS
10
216.63
20
-56.215
11
216.875
21
-56.0514
0
LINE
8
BLACK
6
CONTINUOUS
10
216.875
20
-56.0514
11
217.139
21
-55.9213
0
LINE
8
BLACK
6
CONTINUOUS
10
217.139
20
-55.9213
11
217.418
21
-55.8267
0
LINE
8
BLACK
6
CONTINUOUS
10
217.418
20
-55.8267
11
217.706
21
-55.7692
0
LINE
8
BLACK
6
CONTINUOUS
10
217.706
20
-55.7692
11
218
21
-55.75
0
LINE
8
BLACK
6
CONTINUOUS
10
218
20
-55.75
11
218.294
21
-55.7692
0
LINE
8
BLACK
6
CONTINUOUS
10
205.12
20
-56.8563
11
205.327
21
-56.8974
0
LINE
8
BLACK
6
CONTINUOUS
10
205.327
20
-56.8974
11
205.522
21
-56.9753
0
LINE
8
BLACK
6
CONTINUOUS
10
205.522
20
-56.9753
11
205.7
21
-57.0876
0
LINE
8
BLACK
6
CONTINUOUS
10
205.7
20
-57.0876
11
205.855
21
-57.2305
0
LINE
8
BLACK
6
CONTINUOUS
10
205.855
20
-57.2305
11
205.981
21
-57.3991
0
LINE
8
BLACK
6
CONTINUOUS
10
205.981
20
-57.3991
11
206.074
21
-57.5879
0
LINE
8
BLACK
6
CONTINUOUS
10
206.074
20
-57.5879
11
206.131
21
-57.7904
0
LINE
8
BLACK
6
CONTINUOUS
10
206.131
20
-57.7904
11
206.15
21
-58
0
LINE
8
BLACK
6
CONTINUOUS
10
206.15
20
-58
11
206.148
21
-58.0602
0
LINE
8
BLACK
6
CONTINUOUS
10
206.148
20
-58.0602
11
206.118
21
-58.2685
0
LINE
8
BLACK
6
CONTINUOUS
10
206.118
20
-58.2685
11
206.051
21
-58.4677
0
LINE
8
BLACK
6
CONTINUOUS
10
206.051
20
-58.4677
11
205.948
21
-58.6514
0
LINE
8
BLACK
6
CONTINUOUS
10
205.948
20
-58.6514
11
205.813
21
-58.8132
0
LINE
8
BLACK
6
CONTINUOUS
10
205.813
20
-58.8132
11
205.651
21
-58.9477
0
LINE
8
BLACK
6
CONTINUOUS
10
205.651
20
-58.9477
11
205.468
21
-59.0506
0
LINE
8
BLACK
6
CONTINUOUS
10
205.468
20
-59.0506
11
205.268
21
-59.1182
0
LINE
8
BLACK
6
CONTINUOUS
10
205.268
20
-59.1182
11
205.06
21
-59.1484
0
LINE
8
BLACK
6
CONTINUOUS
10
205.06
20
-59.1484
11
204.85
21
-59.1402
0
LINE
8
BLACK
6
CONTINUOUS
10
204.85
20
-59.1402
11
204.645
21
-59.0937
0
LINE
8
BLACK
6
CONTINUOUS
10
204.645
20
-59.0937
11
204.451
21
-59.0106
0
LINE
8
BLACK
6
CONTINUOUS
10
204.451
20
-59.0106
11
204.276
21
-58.8937
0
LINE
8
BLACK
6
CONTINUOUS
10
204.276
20
-58.8937
11
204.126
21
-58.7469
0
LINE
8
BLACK
6
CONTINUOUS
10
204.126
20
-58.7469
11
204.004
21
-58.575
0
LINE
8
BLACK
6
CONTINUOUS
10
204.004
20
-58.575
11
203.916
21
-58.3839
0
LINE
8
BLACK
6
CONTINUOUS
10
203.916
20
-58.3839
11
203.864
21
-58.1799
0
LINE
8
BLACK
6
CONTINUOUS
10
203.864
20
-58.1799
11
203.85
21
-57.9699
0
LINE
8
BLACK
6
CONTINUOUS
10
203.85
20
-57.9699
11
203.875
21
-57.7609
0
LINE
8
BLACK
6
CONTINUOUS
10
203.875
20
-57.7609
11
203.938
21
-57.5599
0
LINE
8
BLACK
6
CONTINUOUS
10
203.938
20
-57.5599
11
204.036
21
-57.3737
0
LINE
8
BLACK
6
CONTINUOUS
10
204.036
20
-57.3737
11
204.166
21
-57.2084
0
LINE
8
BLACK
6
CONTINUOUS
10
204.166
20
-57.2084
11
204.324
21
-57.0696
0
LINE
8
BLACK
6
CONTINUOUS
10
204.324
20
-57.0696
11
204.505
21
-56.962
0
LINE
8
BLACK
6
CONTINUOUS
10
204.505
20
-56.962
11
204.702
21
-56.8892
0
LINE
8
BLACK
6
CONTINUOUS
10
204.702
20
-56.8892
11
204.91
21
-56.8535
0
LINE
8
BLACK
6
CONTINUOUS
10
204.91
20
-56.8535
11
205.12
21
-56.8563
0
LINE
8
BLACK
6
CONTINUOUS
10
153.046
20
-50.558
11
153.063
21
-50.7766
0
LINE
8
BLACK
6
CONTINUOUS
10
153.063
20
-50.7766
11
153.117
21
-50.9985
0
LINE
8
BLACK
6
CONTINUOUS
10
153.117
20
-50.9985
11
153.204
21
-51.2094
0
LINE
8
BLACK
6
CONTINUOUS
10
153.204
20
-51.2094
11
153.323
21
-51.404
0
LINE
8
BLACK
6
CONTINUOUS
10
153.323
20
-51.404
11
153.472
21
-51.5775
0
LINE
8
BLACK
6
CONTINUOUS
10
153.472
20
-51.5775
11
153.645
21
-51.7257
0
LINE
8
BLACK
6
CONTINUOUS
10
153.645
20
-51.7257
11
153.84
21
-51.845
0
LINE
8
BLACK
6
CONTINUOUS
10
153.84
20
-51.845
11
154.051
21
-51.9323
0
LINE
8
BLACK
6
CONTINUOUS
10
154.051
20
-51.9323
11
154.272
21
-51.9856
0
LINE
8
BLACK
6
CONTINUOUS
10
154.272
20
-51.9856
11
154.491
21
-52.0028
0
LINE
8
BLACK
6
CONTINUOUS
10
154.491
20
-52.0028
11
154.5
21
-51.999
0
LINE
8
BLACK
6
CONTINUOUS
10
154.5
20
-51.999
11
218
21
-51.999
0
LINE
8
BLACK
6
CONTINUOUS
10
218
20
-51.999
11
218.475
21
-52.0177
0
LINE
8
BLACK
6
CONTINUOUS
10
218.475
20
-52.0177
11
218.946
21
-52.0735
0
LINE
8
BLACK
6
CONTINUOUS
10
218.946
20
-52.0735
11
219.412
21
-52.1662
0
LINE
8
BLACK
6
CONTINUOUS
10
219.412
20
-52.1662
11
219.87
21
-52.2951
0
LINE
8
BLACK
6
CONTINUOUS
10
219.87
20
-52.2951
11
220.315
21
-52.4596
0
LINE
8
BLACK
6
CONTINUOUS
10
220.315
20
-52.4596
11
220.747
21
-52.6584
0
LINE
8
BLACK
6
CONTINUOUS
10
220.747
20
-52.6584
11
221.161
21
-52.8906
0
LINE
8
BLACK
6
CONTINUOUS
10
221.161
20
-52.8906
11
221.556
21
-53.1545
0
LINE
8
BLACK
6
CONTINUOUS
10
221.556
20
-53.1545
11
221.929
21
-53.4486
0
LINE
8
BLACK
6
CONTINUOUS
10
221.929
20
-53.4486
11
222.278
21
-53.771
0
LINE
8
BLACK
6
CONTINUOUS
10
222.278
20
-53.771
11
222.6
21
-54.1199
0
LINE
8
BLACK
6
CONTINUOUS
10
222.6
20
-54.1199
11
222.895
21
-54.4929
0
LINE
8
BLACK
6
CONTINUOUS
10
222.895
20
-54.4929
11
223.158
21
-54.8879
0
LINE
8
BLACK
6
CONTINUOUS
10
223.158
20
-54.8879
11
223.391
21
-55.3024
0
LINE
8
BLACK
6
CONTINUOUS
10
223.391
20
-55.3024
11
223.589
21
-55.7338
0
LINE
8
BLACK
6
CONTINUOUS
10
223.589
20
-55.7338
11
223.754
21
-56.1795
0
LINE
8
BLACK
6
CONTINUOUS
10
223.754
20
-56.1795
11
223.883
21
-56.6367
0
LINE
8
BLACK
6
CONTINUOUS
10
223.883
20
-56.6367
11
223.976
21
-57.1026
0
LINE
8
BLACK
6
CONTINUOUS
10
223.976
20
-57.1026
11
224.031
21
-57.5744
0
LINE
8
BLACK
6
CONTINUOUS
10
224.031
20
-57.5744
11
224.05
21
-58.049
0
LINE
8
BLACK
6
CONTINUOUS
10
224.05
20
-58.049
11
224.031
21
-58.5237
0
LINE
8
BLACK
6
CONTINUOUS
10
224.031
20
-58.5237
11
223.976
21
-58.9955
0
LINE
8
BLACK
6
CONTINUOUS
10
223.976
20
-58.9955
11
223.883
21
-59.4614
0
LINE
8
BLACK
6
CONTINUOUS
10
223.883
20
-59.4614
11
223.754
21
-59.9186
0
LINE
8
BLACK
6
CONTINUOUS
10
223.754
20
-59.9186
11
223.589
21
-60.3643
0
LINE
8
BLACK
6
CONTINUOUS
10
223.589
20
-60.3643
11
223.391
21
-60.7957
0
LINE
8
BLACK
6
CONTINUOUS
10
223.391
20
-60.7957
11
223.158
21
-61.2102
0
LINE
8
BLACK
6
CONTINUOUS
10
223.158
20
-61.2102
11
222.895
21
-61.6051
0
LINE
8
BLACK
6
CONTINUOUS
10
222.895
20
-61.6051
11
222.6
21
-61.9782
0
LINE
8
BLACK
6
CONTINUOUS
10
222.6
20
-61.9782
11
222.278
21
-62.327
0
LINE
8
BLACK
6
CONTINUOUS
10
222.278
20
-62.327
11
221.929
21
-62.6495
0
LINE
8
BLACK
6
CONTINUOUS
10
221.929
20
-62.6495
11
221.556
21
-62.9436
0
LINE
8
BLACK
6
CONTINUOUS
10
221.556
20
-62.9436
11
221.161
21
-63.2075
0
LINE
8
BLACK
6
CONTINUOUS
10
221.161
20
-63.2075
11
220.747
21
-63.4396
0
LINE
8
BLACK
6
CONTINUOUS
10
220.747
20
-63.4396
11
220.315
21
-63.6385
0
LINE
8
BLACK
6
CONTINUOUS
10
220.315
20
-63.6385
11
219.87
21
-63.8029
0
LINE
8
BLACK
6
CONTINUOUS
10
219.87
20
-63.8029
11
219.412
21
-63.9319
0
LINE
8
BLACK
6
CONTINUOUS
10
219.412
20
-63.9319
11
218.946
21
-64.0246
0
LINE
8
BLACK
6
CONTINUOUS
10
218.946
20
-64.0246
11
218.475
21
-64.0804
0
LINE
8
BLACK
6
CONTINUOUS
10
218.475
20
-64.0804
11
218
21
-64.099
0
LINE
8
BLACK
6
CONTINUOUS
10
218
20
-64.099
11
218
21
-64.099
0
LINE
8
BLACK
6
CONTINUOUS
10
218
20
-64.099
11
212.5
21
-64.099
0
LINE
8
BLACK
6
CONTINUOUS
10
212.5
20
-64.099
11
212.5
21
-64.099
0
LINE
8
BLACK
6
CONTINUOUS
10
212.5
20
-64.099
11
212.5
21
-64.099
0
LINE
8
BLACK
6
CONTINUOUS
10
212.5
20
-64.099
11
212.491
21
-64.0953
0
LINE
8
BLACK
6
CONTINUOUS
10
212.491
20
-64.0953
11
212.272
21
-64.1125
0
LINE
8
BLACK
6
CONTINUOUS
10
212.272
20
-64.1125
11
212.051
21
-64.1658
0
LINE
8
BLACK
6
CONTINUOUS
10
212.051
20
-64.1658
11
211.84
21
-64.2531
0
LINE
8
BLACK
6
CONTINUOUS
10
211.84
20
-64.2531
11
211.645
21
-64.3724
0
LINE
8
BLACK
6
CONTINUOUS
10
211.645
20
-64.3724
11
211.472
21
-64.5206
0
LINE
8
BLACK
6
CONTINUOUS
10
211.472
20
-64.5206
11
211.323
21
-64.6941
0
LINE
8
BLACK
6
CONTINUOUS
10
211.323
20
-64.6941
11
211.204
21
-64.8887
0
LINE
8
BLACK
6
CONTINUOUS
10
211.204
20
-64.8887
11
211.117
21
-65.0996
0
LINE
8
BLACK
6
CONTINUOUS
10
211.117
20
-65.0996
11
211.063
21
-65.3215
0
LINE
8
BLACK
6
CONTINUOUS
10
211.063
20
-65.3215
11
211.046
21
-65.5399
0
LINE
8
BLACK
6
CONTINUOUS
10
211.046
20
-65.5399
11
211.05
21
-65.549
0
LINE
8
BLACK
6
CONTINUOUS
10
211.05
20
-65.549
11
211.05
21
-119.549
0
LINE
8
BLACK
6
CONTINUOUS
10
211.05
20
-119.549
11
211.045
21
-119.561
0
LINE
8
BLACK
6
CONTINUOUS
10
211.045
20
-119.561
11
211.043
21
-119.574
0
LINE
8
BLACK
6
CONTINUOUS
10
211.043
20
-119.574
11
203.443
21
-132.825
0
LINE
8
BLACK
6
CONTINUOUS
10
203.443
20
-132.825
11
203.443
21
-132.825
0
LINE
8
BLACK
6
CONTINUOUS
10
203.443
20
-132.825
11
203.443
21
-132.825
0
LINE
8
BLACK
6
CONTINUOUS
10
203.443
20
-132.825
11
203.435
21
-132.831
0
LINE
8
BLACK
6
CONTINUOUS
10
203.435
20
-132.831
11
203.341
21
-133.029
0
LINE
8
BLACK
6
CONTINUOUS
10
203.341
20
-133.029
11
203.276
21
-133.248
0
LINE
8
BLACK
6
CONTINUOUS
10
203.276
20
-133.248
11
203.247
21
-133.474
0
LINE
8
BLACK
6
CONTINUOUS
10
203.247
20
-133.474
11
203.253
21
-133.702
0
LINE
8
BLACK
6
CONTINUOUS
10
203.253
20
-133.702
11
203.294
21
-133.926
0
LINE
8
BLACK
6
CONTINUOUS
10
203.294
20
-133.926
11
203.37
21
-134.142
0
LINE
8
BLACK
6
CONTINUOUS
10
203.37
20
-134.142
11
203.479
21
-134.342
0
LINE
8
BLACK
6
CONTINUOUS
10
203.479
20
-134.342
11
203.618
21
-134.523
0
LINE
8
BLACK
6
CONTINUOUS
10
203.618
20
-134.523
11
203.784
21
-134.68
0
LINE
8
BLACK
6
CONTINUOUS
10
203.784
20
-134.68
11
203.964
21
-134.804
0
LINE
8
BLACK
6
CONTINUOUS
10
203.964
20
-134.804
11
203.973
21
-134.805
0
LINE
8
BLACK
6
CONTINUOUS
10
203.973
20
-134.805
11
208.399
21
-137.206
0
LINE
8
BLACK
6
CONTINUOUS
10
208.399
20
-137.206
11
208.4
21
-137.207
0
LINE
8
BLACK
6
CONTINUOUS
10
208.4
20
-137.207
11
208.4
21
-137.207
0
LINE
8
BLACK
6
CONTINUOUS
10
208.4
20
-137.207
11
208.801
21
-137.459
0
LINE
8
BLACK
6
CONTINUOUS
10
208.801
20
-137.459
11
209.18
21
-137.742
0
LINE
8
BLACK
6
CONTINUOUS
10
209.18
20
-137.742
11
209.535
21
-138.054
0
LINE
8
BLACK
6
CONTINUOUS
10
209.535
20
-138.054
11
209.866
21
-138.393
0
LINE
8
BLACK
6
CONTINUOUS
10
209.866
20
-138.393
11
210.168
21
-138.757
0
LINE
8
BLACK
6
CONTINUOUS
10
210.168
20
-138.757
11
210.441
21
-139.143
0
LINE
8
BLACK
6
CONTINUOUS
10
210.441
20
-139.143
11
210.683
21
-139.55
0
LINE
8
BLACK
6
CONTINUOUS
10
210.683
20
-139.55
11
210.892
21
-139.974
0
LINE
8
BLACK
6
CONTINUOUS
10
210.892
20
-139.974
11
211.068
21
-140.414
0
LINE
8
BLACK
6
CONTINUOUS
10
211.068
20
-140.414
11
211.208
21
-140.866
0
LINE
8
BLACK
6
CONTINUOUS
10
211.208
20
-140.866
11
211.312
21
-141.327
0
LINE
8
BLACK
6
CONTINUOUS
10
211.312
20
-141.327
11
211.38
21
-141.795
0
LINE
8
BLACK
6
CONTINUOUS
10
211.38
20
-141.795
11
211.411
21
-142.267
0
LINE
8
BLACK
6
CONTINUOUS
10
211.411
20
-142.267
11
211.405
21
-142.74
0
LINE
8
BLACK
6
CONTINUOUS
10
211.405
20
-142.74
11
211.362
21
-143.212
0
LINE
8
BLACK
6
CONTINUOUS
10
211.362
20
-143.212
11
211.282
21
-143.678
0
LINE
8
BLACK
6
CONTINUOUS
10
211.282
20
-143.678
11
211.165
21
-144.136
0
LINE
8
BLACK
6
CONTINUOUS
10
211.165
20
-144.136
11
211.013
21
-144.584
0
LINE
8
BLACK
6
CONTINUOUS
10
211.013
20
-144.584
11
210.826
21
-145.019
0
LINE
8
BLACK
6
CONTINUOUS
10
210.826
20
-145.019
11
210.606
21
-145.438
0
LINE
8
BLACK
6
CONTINUOUS
10
210.606
20
-145.438
11
210.353
21
-145.838
0
LINE
8
BLACK
6
CONTINUOUS
10
210.353
20
-145.838
11
210.07
21
-146.217
0
LINE
8
BLACK
6
CONTINUOUS
10
210.07
20
-146.217
11
209.758
21
-146.573
0
LINE
8
BLACK
6
CONTINUOUS
10
209.758
20
-146.573
11
209.42
21
-146.903
0
LINE
8
BLACK
6
CONTINUOUS
10
209.42
20
-146.903
11
209.056
21
-147.205
0
LINE
8
BLACK
6
CONTINUOUS
10
209.056
20
-147.205
11
208.669
21
-147.478
0
LINE
8
BLACK
6
CONTINUOUS
10
208.669
20
-147.478
11
208.263
21
-147.72
0
LINE
8
BLACK
6
CONTINUOUS
10
208.263
20
-147.72
11
207.839
21
-147.93
0
LINE
8
BLACK
6
CONTINUOUS
10
207.839
20
-147.93
11
207.399
21
-148.105
0
LINE
8
BLACK
6
CONTINUOUS
10
207.399
20
-148.105
11
206.947
21
-148.245
0
LINE
8
BLACK
6
CONTINUOUS
10
206.947
20
-148.245
11
206.486
21
-148.35
0
LINE
8
BLACK
6
CONTINUOUS
10
206.486
20
-148.35
11
206.018
21
-148.418
0
LINE
8
BLACK
6
CONTINUOUS
10
206.018
20
-148.418
11
205.545
21
-148.448
0
LINE
8
BLACK
6
CONTINUOUS
10
205.545
20
-148.448
11
205.072
21
-148.442
0
LINE
8
BLACK
6
CONTINUOUS
10
205.072
20
-148.442
11
204.601
21
-148.399
0
LINE
8
BLACK
6
CONTINUOUS
10
204.601
20
-148.399
11
204.135
21
-148.319
0
LINE
8
BLACK
6
CONTINUOUS
10
204.135
20
-148.319
11
203.676
21
-148.202
0
LINE
8
BLACK
6
CONTINUOUS
10
203.676
20
-148.202
11
203.228
21
-148.05
0
LINE
8
BLACK
6
CONTINUOUS
10
203.228
20
-148.05
11
202.794
21
-147.864
0
LINE
8
BLACK
6
CONTINUOUS
10
202.794
20
-147.864
11
202.375
21
-147.643
0
LINE
8
BLACK
6
CONTINUOUS
10
202.375
20
-147.643
11
202.375
21
-147.643
0
LINE
8
BLACK
6
CONTINUOUS
10
202.375
20
-147.643
11
202.375
21
-147.643
0
LINE
8
BLACK
6
CONTINUOUS
10
202.375
20
-147.643
11
202.375
21
-147.643
0
LINE
8
BLACK
6
CONTINUOUS
10
202.375
20
-147.643
11
179.981
21
-134.596
0
LINE
8
BLACK
6
CONTINUOUS
10
179.981
20
-134.596
11
161.493
21
-129.599
0
LINE
8
BLACK
6
CONTINUOUS
10
161.493
20
-129.599
11
142.5
21
-129.599
0
LINE
8
BLACK
6
CONTINUOUS
10
142.5
20
-129.599
11
142.491
21
-129.595
0
LINE
8
BLACK
6
CONTINUOUS
10
142.491
20
-129.595
11
142.482
21
-129.596
0
LINE
8
BLACK
6
CONTINUOUS
10
142.482
20
-129.596
11
112.991
21
-118.099
0
LINE
8
BLACK
6
CONTINUOUS
10
112.991
20
-118.099
11
96.5
21
-118.099
0
LINE
8
BLACK
6
CONTINUOUS
10
96.5
20
-118.099
11
96.2794
21
-118.083
0
LINE
8
BLACK
6
CONTINUOUS
10
96.2794
20
-118.083
11
96.0633
21
-118.036
0
LINE
8
BLACK
6
CONTINUOUS
10
96.0633
20
-118.036
11
95.8561
21
-117.959
0
LINE
8
BLACK
6
CONTINUOUS
10
95.8561
20
-117.959
11
95.662
21
-117.853
0
LINE
8
BLACK
6
CONTINUOUS
10
95.662
20
-117.853
11
95.485
21
-117.72
0
LINE
8
BLACK
6
CONTINUOUS
10
95.485
20
-117.72
11
95.3286
21
-117.564
0
LINE
8
BLACK
6
CONTINUOUS
10
95.3286
20
-117.564
11
95.1961
21
-117.387
0
LINE
8
BLACK
6
CONTINUOUS
10
95.1961
20
-117.387
11
95.0901
21
-117.193
0
LINE
8
BLACK
6
CONTINUOUS
10
95.0901
20
-117.193
11
95.0128
21
-116.986
0
LINE
8
BLACK
6
CONTINUOUS
10
95.0128
20
-116.986
11
94.9658
21
-116.77
0
LINE
8
BLACK
6
CONTINUOUS
10
94.9658
20
-116.77
11
94.9501
21
-116.549
0
LINE
8
BLACK
6
CONTINUOUS
10
94.9501
20
-116.549
11
94.95
21
-116.549
0
LINE
8
BLACK
6
CONTINUOUS
10
94.95
20
-116.549
11
94.95
21
-111.549
0
LINE
8
BLACK
6
CONTINUOUS
10
94.95
20
-111.549
11
94.9538
21
-111.54
0
LINE
8
BLACK
6
CONTINUOUS
10
94.9538
20
-111.54
11
94.9366
21
-111.322
0
LINE
8
BLACK
6
CONTINUOUS
10
94.9366
20
-111.322
11
94.8833
21
-111.1
0
LINE
8
BLACK
6
CONTINUOUS
10
94.8833
20
-111.1
11
94.796
21
-110.889
0
LINE
8
BLACK
6
CONTINUOUS
10
94.796
20
-110.889
11
94.6767
21
-110.694
0
LINE
8
BLACK
6
CONTINUOUS
10
94.6767
20
-110.694
11
94.5285
21
-110.521
0
LINE
8
BLACK
6
CONTINUOUS
10
94.5285
20
-110.521
11
94.3549
21
-110.372
0
LINE
8
BLACK
6
CONTINUOUS
10
94.3549
20
-110.372
11
94.1603
21
-110.253
0
LINE
8
BLACK
6
CONTINUOUS
10
94.1603
20
-110.253
11
93.9495
21
-110.166
0
LINE
8
BLACK
6
CONTINUOUS
10
93.9495
20
-110.166
11
93.7275
21
-110.112
0
LINE
8
BLACK
6
CONTINUOUS
10
93.7275
20
-110.112
11
93.5091
21
-110.095
0
LINE
8
BLACK
6
CONTINUOUS
10
93.5091
20
-110.095
11
93.5
21
-110.099
0
LINE
8
BLACK
6
CONTINUOUS
10
93.5
20
-110.099
11
89.4914
21
-110.099
0
LINE
8
BLACK
6
CONTINUOUS
10
89.4914
20
-110.099
11
89.4824
21
-110.095
0
LINE
8
BLACK
6
CONTINUOUS
10
89.4824
20
-110.095
11
89.2638
21
-110.112
0
LINE
8
BLACK
6
CONTINUOUS
10
89.2638
20
-110.112
11
89.0419
21
-110.166
0
LINE
8
BLACK
6
CONTINUOUS
10
89.0419
20
-110.166
11
88.831
21
-110.253
0
LINE
8
BLACK
6
CONTINUOUS
10
88.831
20
-110.253
11
88.6364
21
-110.372
0
LINE
8
BLACK
6
CONTINUOUS
10
88.6364
20
-110.372
11
88.4629
21
-110.521
0
LINE
8
BLACK
6
CONTINUOUS
10
88.4629
20
-110.521
11
88.3147
21
-110.694
0
LINE
8
BLACK
6
CONTINUOUS
10
88.3147
20
-110.694
11
88.1954
21
-110.889
0
LINE
8
BLACK
6
CONTINUOUS
10
88.1954
20
-110.889
11
88.1081
21
-111.1
0
LINE
8
BLACK
6
CONTINUOUS
10
88.1081
20
-111.1
11
88.0548
21
-111.322
0
LINE
8
BLACK
6
CONTINUOUS
10
88.0548
20
-111.322
11
88.0376
21
-111.54
0
LINE
8
BLACK
6
CONTINUOUS
10
88.0376
20
-111.54
11
88.0414
21
-111.549
0
LINE
8
BLACK
6
CONTINUOUS
10
88.0414
20
-111.549
11
88.0414
21
-111.549
0
LINE
8
BLACK
6
CONTINUOUS
10
88.0414
20
-111.549
11
88.0414
21
-117.049
0
LINE
8
BLACK
6
CONTINUOUS
10
88.0414
20
-117.049
11
88.0414
21
-117.049
0
LINE
8
BLACK
6
CONTINUOUS
10
88.0414
20
-117.049
11
88.0264
21
-117.526
0
LINE
8
BLACK
6
CONTINUOUS
10
88.0264
20
-117.526
11
87.9739
21
-118
0
LINE
8
BLACK
6
CONTINUOUS
10
87.9739
20
-118
11
87.8842
21
-118.469
0
LINE
8
BLACK
6
CONTINUOUS
10
87.8842
20
-118.469
11
87.7578
21
-118.929
0
LINE
8
BLACK
6
CONTINUOUS
10
87.7578
20
-118.929
11
87.5954
21
-119.377
0
LINE
8
BLACK
6
CONTINUOUS
10
87.5954
20
-119.377
11
87.3982
21
-119.812
0
LINE
8
BLACK
6
CONTINUOUS
10
87.3982
20
-119.812
11
87.1674
21
-120.23
0
LINE
8
BLACK
6
CONTINUOUS
10
87.1674
20
-120.23
11
86.9043
21
-120.628
0
LINE
8
BLACK
6
CONTINUOUS
10
86.9043
20
-120.628
11
86.6106
21
-121.004
0
LINE
8
BLACK
6
CONTINUOUS
10
86.6106
20
-121.004
11
86.2882
21
-121.356
0
LINE
8
BLACK
6
CONTINUOUS
10
86.2882
20
-121.356
11
85.9391
21
-121.681
0
LINE
8
BLACK
6
CONTINUOUS
10
85.9391
20
-121.681
11
85.5654
21
-121.978
0
LINE
8
BLACK
6
CONTINUOUS
10
85.5654
20
-121.978
11
85.1694
21
-122.244
0
LINE
8
BLACK
6
CONTINUOUS
10
85.1694
20
-122.244
11
84.7537
21
-122.478
0
LINE
8
BLACK
6
CONTINUOUS
10
84.7537
20
-122.478
11
84.3208
21
-122.679
0
LINE
8
BLACK
6
CONTINUOUS
10
84.3208
20
-122.679
11
83.8734
21
-122.845
0
LINE
8
BLACK
6
CONTINUOUS
10
83.8734
20
-122.845
11
83.4143
21
-122.975
0
LINE
8
BLACK
6
CONTINUOUS
10
83.4143
20
-122.975
11
82.9464
21
-123.069
0
LINE
8
BLACK
6
CONTINUOUS
10
82.9464
20
-123.069
11
82.4725
21
-123.125
0
LINE
8
BLACK
6
CONTINUOUS
10
82.4725
20
-123.125
11
81.9957
21
-123.144
0
LINE
8
BLACK
6
CONTINUOUS
10
81.9957
20
-123.144
11
81.5189
21
-123.125
0
LINE
8
BLACK
6
CONTINUOUS
10
81.5189
20
-123.125
11
81.045
21
-123.069
0
LINE
8
BLACK
6
CONTINUOUS
10
81.045
20
-123.069
11
80.5771
21
-122.975
0
LINE
8
BLACK
6
CONTINUOUS
10
80.5771
20
-122.975
11
80.118
21
-122.845
0
LINE
8
BLACK
6
CONTINUOUS
10
80.118
20
-122.845
11
79.6706
21
-122.679
0
LINE
8
BLACK
6
CONTINUOUS
10
79.6706
20
-122.679
11
79.2377
21
-122.478
0
LINE
8
BLACK
6
CONTINUOUS
10
79.2377
20
-122.478
11
78.822
21
-122.244
0
LINE
8
BLACK
6
CONTINUOUS
10
78.822
20
-122.244
11
78.426
21
-121.978
0
LINE
8
BLACK
6
CONTINUOUS
10
78.426
20
-121.978
11
78.0523
21
-121.681
0
LINE
8
BLACK
6
CONTINUOUS
10
78.0523
20
-121.681
11
77.7032
21
-121.356
0
LINE
8
BLACK
6
CONTINUOUS
10
77.7032
20
-121.356
11
77.3807
21
-121.004
0
LINE
8
BLACK
6
CONTINUOUS
10
77.3807
20
-121.004
11
77.0871
21
-120.628
0
LINE
8
BLACK
6
CONTINUOUS
10
77.0871
20
-120.628
11
76.824
21
-120.23
0
LINE
8
BLACK
6
CONTINUOUS
10
76.824
20
-120.23
11
76.5931
21
-119.812
0
LINE
8
BLACK
6
CONTINUOUS
10
76.5931
20
-119.812
11
76.3959
21
-119.377
0
LINE
8
BLACK
6
CONTINUOUS
10
76.3959
20
-119.377
11
76.2336
21
-118.929
0
LINE
8
BLACK
6
CONTINUOUS
10
76.2336
20
-118.929
11
76.1072
21
-118.469
0
LINE
8
BLACK
6
CONTINUOUS
10
76.1072
20
-118.469
11
76.0174
21
-118
0
LINE
8
BLACK
6
CONTINUOUS
10
76.0174
20
-118
11
75.9649
21
-117.526
0
LINE
8
BLACK
6
CONTINUOUS
10
75.9649
20
-117.526
11
75.95
21
-117.049
0
LINE
8
BLACK
6
CONTINUOUS
10
75.95
20
-117.049
11
75.95
21
-117.049
0
LINE
8
BLACK
6
CONTINUOUS
10
75.95
20
-117.049
11
75.95
21
-64
0
LINE
8
BLACK
6
CONTINUOUS
10
75.95
20
-64
11
75.9686
21
-63.529
0
LINE
8
BLACK
6
CONTINUOUS
10
75.9686
20
-63.529
11
76.0241
21
-63.0609
0
LINE
8
BLACK
6
CONTINUOUS
10
76.0241
20
-63.0609
11
76.1163
21
-62.5986
0
LINE
8
BLACK
6
CONTINUOUS
10
76.1163
20
-62.5986
11
76.2446
21
-62.145
0
LINE
8
BLACK
6
CONTINUOUS
10
76.2446
20
-62.145
11
76.4082
21
-61.7028
0
LINE
8
BLACK
6
CONTINUOUS
10
76.4082
20
-61.7028
11
76.606
21
-61.275
0
LINE
8
BLACK
6
CONTINUOUS
10
76.606
20
-61.275
11
76.8369
21
-60.864
0
LINE
8
BLACK
6
CONTINUOUS
10
76.8369
20
-60.864
11
77.0994
21
-60.4724
0
LINE
8
BLACK
6
CONTINUOUS
10
77.0994
20
-60.4724
11
77.3919
21
-60.1028
0
LINE
8
BLACK
6
CONTINUOUS
10
77.3919
20
-60.1028
11
77.7125
21
-59.7572
0
LINE
8
BLACK
6
CONTINUOUS
10
77.7125
20
-59.7572
11
78.0594
21
-59.438
0
LINE
8
BLACK
6
CONTINUOUS
10
78.0594
20
-59.438
11
78.4303
21
-59.147
0
LINE
8
BLACK
6
CONTINUOUS
10
78.4303
20
-59.147
11
78.8229
21
-58.8862
0
LINE
8
BLACK
6
CONTINUOUS
10
78.8229
20
-58.8862
11
79.2349
21
-58.657
0
LINE
8
BLACK
6
CONTINUOUS
10
79.2349
20
-58.657
11
79.6635
21
-58.4609
0
LINE
8
BLACK
6
CONTINUOUS
10
79.6635
20
-58.4609
11
80.1063
21
-58.2991
0
LINE
8
BLACK
6
CONTINUOUS
10
80.1063
20
-58.2991
11
80.5605
21
-58.1727
0
LINE
8
BLACK
6
CONTINUOUS
10
80.5605
20
-58.1727
11
81.0231
21
-58.0824
0
LINE
8
BLACK
6
CONTINUOUS
10
81.0231
20
-58.0824
11
81.4915
21
-58.0288
0
LINE
8
BLACK
6
CONTINUOUS
10
81.4915
20
-58.0288
11
81.9626
21
-58.0122
0
LINE
8
BLACK
6
CONTINUOUS
10
81.9626
20
-58.0122
11
82.4335
21
-58.0327
0
LINE
8
BLACK
6
CONTINUOUS
10
82.4335
20
-58.0327
11
82.9014
21
-58.0902
0
LINE
8
BLACK
6
CONTINUOUS
10
82.9014
20
-58.0902
11
83.3633
21
-58.1843
0
LINE
8
BLACK
6
CONTINUOUS
10
83.3633
20
-58.1843
11
83.8164
21
-58.3145
0
LINE
8
BLACK
6
CONTINUOUS
10
83.8164
20
-58.3145
11
84.2578
21
-58.4799
0
LINE
8
BLACK
6
CONTINUOUS
10
84.2578
20
-58.4799
11
84.6849
21
-58.6795
0
LINE
8
BLACK
6
CONTINUOUS
10
84.6849
20
-58.6795
11
85.0949
21
-58.912
0
LINE
8
BLACK
6
CONTINUOUS
10
85.0949
20
-58.912
11
85.4853
21
-59.1762
0
LINE
8
BLACK
6
CONTINUOUS
10
85.4853
20
-59.1762
11
85.8538
21
-59.4702
0
LINE
8
BLACK
6
CONTINUOUS
10
85.8538
20
-59.4702
11
86.198
21
-59.7923
0
LINE
8
BLACK
6
CONTINUOUS
10
86.198
20
-59.7923
11
86.5158
21
-60.1404
0
LINE
8
BLACK
6
CONTINUOUS
10
86.5158
20
-60.1404
11
86.8053
21
-60.5125
0
LINE
8
BLACK
6
CONTINUOUS
10
86.8053
20
-60.5125
11
87.0645
21
-60.9062
0
LINE
8
BLACK
6
CONTINUOUS
10
87.0645
20
-60.9062
11
87.292
21
-61.3191
0
LINE
8
BLACK
6
CONTINUOUS
10
87.292
20
-61.3191
11
87.4863
21
-61.7486
0
LINE
8
BLACK
6
CONTINUOUS
10
87.4863
20
-61.7486
11
87.6462
21
-62.192
0
LINE
8
BLACK
6
CONTINUOUS
10
87.6462
20
-62.192
11
87.7707
21
-62.6467
0
LINE
8
BLACK
6
CONTINUOUS
10
87.7707
20
-62.6467
11
87.8591
21
-63.1097
0
LINE
8
BLACK
6
CONTINUOUS
10
87.8591
20
-63.1097
11
87.9108
21
-63.5783
0
LINE
8
BLACK
6
CONTINUOUS
10
87.9108
20
-63.5783
11
87.9255
21
-64.049
0
LINE
8
BLACK
6
CONTINUOUS
10
87.9255
20
-64.049
11
87.9255
21
-64.049
0
LINE
8
BLACK
6
CONTINUOUS
10
87.9255
20
-64.049
11
87.9255
21
-69.549
0
LINE
8
BLACK
6
CONTINUOUS
10
87.9255
20
-69.549
11
87.9217
21
-69.5581
0
LINE
8
BLACK
6
CONTINUOUS
10
87.9217
20
-69.5581
11
87.9217
21
-69.5582
0
LINE
8
BLACK
6
CONTINUOUS
10
87.9217
20
-69.5582
11
87.9389
21
-69.7766
0
LINE
8
BLACK
6
CONTINUOUS
10
87.9389
20
-69.7766
11
87.9922
21
-69.9985
0
LINE
8
BLACK
6
CONTINUOUS
10
87.9922
20
-69.9985
11
88.0795
21
-70.2094
0
LINE
8
BLACK
6
CONTINUOUS
10
88.0795
20
-70.2094
11
88.1988
21
-70.404
0
LINE
8
BLACK
6
CONTINUOUS
10
88.1988
20
-70.404
11
88.347
21
-70.5775
0
LINE
8
BLACK
6
CONTINUOUS
10
88.347
20
-70.5775
11
88.5206
21
-70.7257
0
LINE
8
BLACK
6
CONTINUOUS
10
88.5206
20
-70.7257
11
88.7152
21
-70.845
0
LINE
8
BLACK
6
CONTINUOUS
10
88.7152
20
-70.845
11
88.926
21
-70.9323
0
LINE
8
BLACK
6
CONTINUOUS
10
88.926
20
-70.9323
11
89.1479
21
-70.9856
0
LINE
8
BLACK
6
CONTINUOUS
10
89.1479
20
-70.9856
11
89.3664
21
-71.0028
0
LINE
8
BLACK
6
CONTINUOUS
10
89.3664
20
-71.0028
11
89.3755
21
-70.999
0
LINE
8
BLACK
6
CONTINUOUS
10
89.3755
20
-70.999
11
93.5
21
-70.999
0
LINE
8
BLACK
6
CONTINUOUS
10
93.5
20
-70.999
11
93.5092
21
-71.0029
0
LINE
8
BLACK
6
CONTINUOUS
10
93.5092
20
-71.0029
11
93.7275
21
-70.9857
0
LINE
8
BLACK
6
CONTINUOUS
10
93.7275
20
-70.9857
11
93.9495
21
-70.9324
0
LINE
8
BLACK
6
CONTINUOUS
10
93.9495
20
-70.9324
11
94.1603
21
-70.845
0
LINE
8
BLACK
6
CONTINUOUS
10
94.1603
20
-70.845
11
94.3549
21
-70.7258
0
LINE
8
BLACK
6
CONTINUOUS
10
94.3549
20
-70.7258
11
94.5285
21
-70.5775
0
LINE
8
BLACK
6
CONTINUOUS
10
94.5285
20
-70.5775
11
94.6767
21
-70.404
0
LINE
8
BLACK
6
CONTINUOUS
10
94.6767
20
-70.404
11
94.7959
21
-70.2094
0
LINE
8
BLACK
6
CONTINUOUS
10
94.7959
20
-70.2094
11
94.8833
21
-69.9985
0
LINE
8
BLACK
6
CONTINUOUS
10
94.8833
20
-69.9985
11
94.9366
21
-69.7766
0
LINE
8
BLACK
6
CONTINUOUS
10
94.9366
20
-69.7766
11
94.9538
21
-69.5581
0
LINE
8
BLACK
6
CONTINUOUS
10
94.9538
20
-69.5581
11
94.95
21
-69.549
0
LINE
8
BLACK
6
CONTINUOUS
10
94.95
20
-69.549
11
94.95
21
-61.549
0
LINE
8
BLACK
6
CONTINUOUS
10
94.95
20
-61.549
11
94.9658
21
-61.3285
0
LINE
8
BLACK
6
CONTINUOUS
10
94.9658
20
-61.3285
11
95.0128
21
-61.1124
0
LINE
8
BLACK
6
CONTINUOUS
10
95.0128
20
-61.1124
11
95.0901
21
-60.9051
0
LINE
8
BLACK
6
CONTINUOUS
10
95.0901
20
-60.9051
11
95.196
21
-60.7111
0
LINE
8
BLACK
6
CONTINUOUS
10
95.196
20
-60.7111
11
95.3286
21
-60.534
0
LINE
8
BLACK
6
CONTINUOUS
10
95.3286
20
-60.534
11
95.485
21
-60.3776
0
LINE
8
BLACK
6
CONTINUOUS
10
95.485
20
-60.3776
11
95.662
21
-60.2451
0
LINE
8
BLACK
6
CONTINUOUS
10
95.662
20
-60.2451
11
95.8561
21
-60.1391
0
LINE
8
BLACK
6
CONTINUOUS
10
95.8561
20
-60.1391
11
96.0633
21
-60.0619
0
LINE
8
BLACK
6
CONTINUOUS
10
96.0633
20
-60.0619
11
96.2794
21
-60.0149
0
LINE
8
BLACK
6
CONTINUOUS
10
96.2794
20
-60.0149
11
96.4998
21
-59.9991
0
LINE
8
BLACK
6
CONTINUOUS
10
96.4998
20
-59.9991
11
96.5
21
-59.999
0
LINE
8
BLACK
6
CONTINUOUS
10
96.5
20
-59.999
11
112.5
21
-59.999
0
LINE
8
BLACK
6
CONTINUOUS
10
112.5
20
-59.999
11
112.509
21
-60.0029
0
LINE
8
BLACK
6
CONTINUOUS
10
112.509
20
-60.0029
11
112.728
21
-59.9857
0
LINE
8
BLACK
6
CONTINUOUS
10
112.728
20
-59.9857
11
112.949
21
-59.9324
0
LINE
8
BLACK
6
CONTINUOUS
10
112.949
20
-59.9324
11
113.16
21
-59.845
0
LINE
8
BLACK
6
CONTINUOUS
10
113.16
20
-59.845
11
113.355
21
-59.7258
0
LINE
8
BLACK
6
CONTINUOUS
10
113.355
20
-59.7258
11
113.528
21
-59.5775
0
LINE
8
BLACK
6
CONTINUOUS
10
113.528
20
-59.5775
11
113.677
21
-59.404
0
LINE
8
BLACK
6
CONTINUOUS
10
113.677
20
-59.404
11
113.796
21
-59.2094
0
LINE
8
BLACK
6
CONTINUOUS
10
113.796
20
-59.2094
11
113.883
21
-58.9985
0
LINE
8
BLACK
6
CONTINUOUS
10
113.883
20
-58.9985
11
113.937
21
-58.7766
0
LINE
8
BLACK
6
CONTINUOUS
10
113.937
20
-58.7766
11
113.954
21
-58.5581
0
LINE
8
BLACK
6
CONTINUOUS
10
113.954
20
-58.5581
11
113.95
21
-58.549
0
LINE
8
BLACK
6
CONTINUOUS
10
113.95
20
-58.549
11
113.95
21
-53.549
0
LINE
8
BLACK
6
CONTINUOUS
10
113.95
20
-53.549
11
113.966
21
-53.3285
0
LINE
8
BLACK
6
CONTINUOUS
10
113.966
20
-53.3285
11
114.013
21
-53.1124
0
LINE
8
BLACK
6
CONTINUOUS
10
114.013
20
-53.1124
11
114.09
21
-52.9051
0
LINE
8
BLACK
6
CONTINUOUS
10
114.09
20
-52.9051
11
114.196
21
-52.7111
0
LINE
8
BLACK
6
CONTINUOUS
10
114.196
20
-52.7111
11
114.329
21
-52.534
0
LINE
8
BLACK
6
CONTINUOUS
10
114.329
20
-52.534
11
114.485
21
-52.3776
0
LINE
8
BLACK
6
CONTINUOUS
10
114.485
20
-52.3776
11
114.662
21
-52.2451
0
LINE
8
BLACK
6
CONTINUOUS
10
114.662
20
-52.2451
11
114.856
21
-52.1391
0
LINE
8
BLACK
6
CONTINUOUS
10
114.856
20
-52.1391
11
115.063
21
-52.0619
0
LINE
8
BLACK
6
CONTINUOUS
10
115.063
20
-52.0619
11
115.279
21
-52.0149
0
LINE
8
BLACK
6
CONTINUOUS
10
115.279
20
-52.0149
11
115.5
21
-51.9991
0
LINE
8
BLACK
6
CONTINUOUS
10
115.5
20
-51.9991
11
115.5
21
-51.999
0
LINE
8
BLACK
6
CONTINUOUS
10
115.5
20
-51.999
11
131.5
21
-51.999
0
LINE
8
BLACK
6
CONTINUOUS
10
131.5
20
-51.999
11
131.509
21
-52.0029
0
LINE
8
BLACK
6
CONTINUOUS
10
131.509
20
-52.0029
11
131.728
21
-51.9857
0
LINE
8
BLACK
6
CONTINUOUS
10
131.728
20
-51.9857
11
131.949
21
-51.9324
0
LINE
8
BLACK
6
CONTINUOUS
10
131.949
20
-51.9324
11
132.16
21
-51.845
0
LINE
8
BLACK
6
CONTINUOUS
10
132.16
20
-51.845
11
132.355
21
-51.7258
0
LINE
8
BLACK
6
CONTINUOUS
10
132.355
20
-51.7258
11
132.528
21
-51.5775
0
LINE
8
BLACK
6
CONTINUOUS
10
132.528
20
-51.5775
11
132.677
21
-51.404
0
LINE
8
BLACK
6
CONTINUOUS
10
132.677
20
-51.404
11
132.796
21
-51.2094
0
LINE
8
BLACK
6
CONTINUOUS
10
132.796
20
-51.2094
11
132.883
21
-50.9985
0
LINE
8
BLACK
6
CONTINUOUS
10
132.883
20
-50.9985
11
132.937
21
-50.7766
0
LINE
8
BLACK
6
CONTINUOUS
10
132.937
20
-50.7766
11
132.954
21
-50.5581
0
LINE
8
BLACK
6
CONTINUOUS
10
132.954
20
-50.5581
11
132.95
21
-50.549
0
LINE
8
BLACK
6
CONTINUOUS
10
132.95
20
-50.549
11
132.95
21
-50.549
0
LINE
8
BLACK
6
CONTINUOUS
10
132.95
20
-50.549
11
132.95
21
-49.549
0
LINE
8
BLACK
6
CONTINUOUS
10
132.95
20
-49.549
11
132.966
21
-49.3285
0
LINE
8
BLACK
6
CONTINUOUS
10
132.966
20
-49.3285
11
133.013
21
-49.1124
0
LINE
8
BLACK
6
CONTINUOUS
10
133.013
20
-49.1124
11
133.09
21
-48.9051
0
LINE
8
BLACK
6
CONTINUOUS
10
133.09
20
-48.9051
11
133.196
21
-48.7111
0
LINE
8
BLACK
6
CONTINUOUS
10
133.196
20
-48.7111
11
133.329
21
-48.534
0
LINE
8
BLACK
6
CONTINUOUS
10
133.329
20
-48.534
11
133.485
21
-48.3776
0
LINE
8
BLACK
6
CONTINUOUS
10
133.485
20
-48.3776
11
133.662
21
-48.2451
0
LINE
8
BLACK
6
CONTINUOUS
10
133.662
20
-48.2451
11
133.856
21
-48.1391
0
LINE
8
BLACK
6
CONTINUOUS
10
133.856
20
-48.1391
11
134.063
21
-48.0619
0
LINE
8
BLACK
6
CONTINUOUS
10
134.063
20
-48.0619
11
134.279
21
-48.0149
0
LINE
8
BLACK
6
CONTINUOUS
10
134.279
20
-48.0149
11
134.5
21
-47.9991
0
LINE
8
BLACK
6
CONTINUOUS
10
134.5
20
-47.9991
11
134.5
21
-47.999
0
LINE
8
BLACK
6
CONTINUOUS
10
134.5
20
-47.999
11
151.5
21
-47.999
0
LINE
8
BLACK
6
CONTINUOUS
10
151.5
20
-47.999
11
151.721
21
-48.0148
0
LINE
8
BLACK
6
CONTINUOUS
10
151.721
20
-48.0148
11
151.937
21
-48.0618
0
LINE
8
BLACK
6
CONTINUOUS
10
151.937
20
-48.0618
11
152.144
21
-48.1391
0
LINE
8
BLACK
6
CONTINUOUS
10
152.144
20
-48.1391
11
152.338
21
-48.2451
0
LINE
8
BLACK
6
CONTINUOUS
10
152.338
20
-48.2451
11
152.515
21
-48.3776
0
LINE
8
BLACK
6
CONTINUOUS
10
152.515
20
-48.3776
11
152.671
21
-48.534
0
LINE
8
BLACK
6
CONTINUOUS
10
152.671
20
-48.534
11
152.804
21
-48.711
0
LINE
8
BLACK
6
CONTINUOUS
10
152.804
20
-48.711
11
152.91
21
-48.9051
0
LINE
8
BLACK
6
CONTINUOUS
10
152.91
20
-48.9051
11
152.987
21
-49.1123
0
LINE
8
BLACK
6
CONTINUOUS
10
152.987
20
-49.1123
11
153.034
21
-49.3284
0
LINE
8
BLACK
6
CONTINUOUS
10
153.034
20
-49.3284
11
153.05
21
-49.549
0
LINE
8
BLACK
6
CONTINUOUS
10
153.05
20
-49.549
11
153.05
21
-49.549
0
LINE
8
BLACK
6
CONTINUOUS
10
153.05
20
-49.549
11
153.05
21
-50.549
0
LINE
8
BLACK
6
CONTINUOUS
10
153.05
20
-50.549
11
153.046
21
-50.558
0
LINE
8
BLACK
6
CONTINUOUS
10
134.5
20
-48.099
11
134.5
21
-48.099
0
LINE
8
BLACK
6
CONTINUOUS
10
134.5
20
-48.099
11
134.491
21
-48.0953
0
LINE
8
BLACK
6
CONTINUOUS
10
134.491
20
-48.0953
11
134.272
21
-48.1125
0
LINE
8
BLACK
6
CONTINUOUS
10
134.272
20
-48.1125
11
134.051
21
-48.1658
0
LINE
8
BLACK
6
CONTINUOUS
10
134.051
20
-48.1658
11
133.84
21
-48.2531
0
LINE
8
BLACK
6
CONTINUOUS
10
133.84
20
-48.2531
11
133.645
21
-48.3724
0
LINE
8
BLACK
6
CONTINUOUS
10
133.645
20
-48.3724
11
133.472
21
-48.5206
0
LINE
8
BLACK
6
CONTINUOUS
10
133.472
20
-48.5206
11
133.323
21
-48.6941
0
LINE
8
BLACK
6
CONTINUOUS
10
133.323
20
-48.6941
11
133.204
21
-48.8887
0
LINE
8
BLACK
6
CONTINUOUS
10
133.204
20
-48.8887
11
133.117
21
-49.0996
0
LINE
8
BLACK
6
CONTINUOUS
10
133.117
20
-49.0996
11
133.063
21
-49.3215
0
LINE
8
BLACK
6
CONTINUOUS
10
133.063
20
-49.3215
11
133.046
21
-49.5399
0
LINE
8
BLACK
6
CONTINUOUS
10
133.046
20
-49.5399
11
133.05
21
-49.549
0
LINE
8
BLACK
6
CONTINUOUS
10
133.05
20
-49.549
11
133.05
21
-50.549
0
LINE
8
BLACK
6
CONTINUOUS
10
133.05
20
-50.549
11
133.034
21
-50.7696
0
LINE
8
BLACK
6
CONTINUOUS
10
133.034
20
-50.7696
11
132.987
21
-50.9857
0
LINE
8
BLACK
6
CONTINUOUS
10
132.987
20
-50.9857
11
132.91
21
-51.1929
0
LINE
8
BLACK
6
CONTINUOUS
10
132.91
20
-51.1929
11
132.804
21
-51.387
0
LINE
8
BLACK
6
CONTINUOUS
10
132.804
20
-51.387
11
132.671
21
-51.5641
0
LINE
8
BLACK
6
CONTINUOUS
10
132.671
20
-51.5641
11
132.515
21
-51.7205
0
LINE
8
BLACK
6
CONTINUOUS
10
132.515
20
-51.7205
11
132.338
21
-51.853
0
LINE
8
BLACK
6
CONTINUOUS
10
132.338
20
-51.853
11
132.144
21
-51.959
0
LINE
8
BLACK
6
CONTINUOUS
10
132.144
20
-51.959
11
131.937
21
-52.0363
0
LINE
8
BLACK
6
CONTINUOUS
10
131.937
20
-52.0363
11
131.721
21
-52.0833
0
LINE
8
BLACK
6
CONTINUOUS
10
131.721
20
-52.0833
11
131.5
21
-52.0991
0
LINE
8
BLACK
6
CONTINUOUS
10
131.5
20
-52.0991
11
131.5
21
-52.099
0
LINE
8
BLACK
6
CONTINUOUS
10
131.5
20
-52.099
11
131.5
21
-52.099
0
LINE
8
BLACK
6
CONTINUOUS
10
131.5
20
-52.099
11
131.5
21
-52.099
0
LINE
8
BLACK
6
CONTINUOUS
10
131.5
20
-52.099
11
115.5
21
-52.099
0
LINE
8
BLACK
6
CONTINUOUS
10
115.5
20
-52.099
11
115.5
21
-52.099
0
LINE
8
BLACK
6
CONTINUOUS
10
115.5
20
-52.099
11
115.5
21
-52.099
0
LINE
8
BLACK
6
CONTINUOUS
10
115.5
20
-52.099
11
115.491
21
-52.0953
0
LINE
8
BLACK
6
CONTINUOUS
10
115.491
20
-52.0953
11
115.272
21
-52.1125
0
LINE
8
BLACK
6
CONTINUOUS
10
115.272
20
-52.1125
11
115.051
21
-52.1658
0
LINE
8
BLACK
6
CONTINUOUS
10
115.051
20
-52.1658
11
114.84
21
-52.2531
0
LINE
8
BLACK
6
CONTINUOUS
10
114.84
20
-52.2531
11
114.645
21
-52.3724
0
LINE
8
BLACK
6
CONTINUOUS
10
114.645
20
-52.3724
11
114.472
21
-52.5206
0
LINE
8
BLACK
6
CONTINUOUS
10
114.472
20
-52.5206
11
114.323
21
-52.6941
0
LINE
8
BLACK
6
CONTINUOUS
10
114.323
20
-52.6941
11
114.204
21
-52.8887
0
LINE
8
BLACK
6
CONTINUOUS
10
114.204
20
-52.8887
11
114.117
21
-53.0996
0
LINE
8
BLACK
6
CONTINUOUS
10
114.117
20
-53.0996
11
114.063
21
-53.3215
0
LINE
8
BLACK
6
CONTINUOUS
10
114.063
20
-53.3215
11
114.046
21
-53.5399
0
LINE
8
BLACK
6
CONTINUOUS
10
114.046
20
-53.5399
11
114.05
21
-53.549
0
LINE
8
BLACK
6
CONTINUOUS
10
114.05
20
-53.549
11
114.05
21
-58.549
0
LINE
8
BLACK
6
CONTINUOUS
10
114.05
20
-58.549
11
114.034
21
-58.7696
0
LINE
8
BLACK
6
CONTINUOUS
10
114.034
20
-58.7696
11
113.987
21
-58.9857
0
LINE
8
BLACK
6
CONTINUOUS
10
113.987
20
-58.9857
11
113.91
21
-59.1929
0
LINE
8
BLACK
6
CONTINUOUS
10
113.91
20
-59.1929
11
113.804
21
-59.387
0
LINE
8
BLACK
6
CONTINUOUS
10
113.804
20
-59.387
11
113.671
21
-59.5641
0
LINE
8
BLACK
6
CONTINUOUS
10
113.671
20
-59.5641
11
113.515
21
-59.7205
0
LINE
8
BLACK
6
CONTINUOUS
10
113.515
20
-59.7205
11
113.338
21
-59.853
0
LINE
8
BLACK
6
CONTINUOUS
10
113.338
20
-59.853
11
113.144
21
-59.959
0
LINE
8
BLACK
6
CONTINUOUS
10
113.144
20
-59.959
11
112.937
21
-60.0363
0
LINE
8
BLACK
6
CONTINUOUS
10
112.937
20
-60.0363
11
112.721
21
-60.0833
0
LINE
8
BLACK
6
CONTINUOUS
10
112.721
20
-60.0833
11
112.5
21
-60.0991
0
LINE
8
BLACK
6
CONTINUOUS
10
112.5
20
-60.0991
11
112.5
21
-60.099
0
LINE
8
BLACK
6
CONTINUOUS
10
112.5
20
-60.099
11
112.5
21
-60.099
0
LINE
8
BLACK
6
CONTINUOUS
10
112.5
20
-60.099
11
112.5
21
-60.099
0
LINE
8
BLACK
6
CONTINUOUS
10
112.5
20
-60.099
11
96.5
21
-60.099
0
LINE
8
BLACK
6
CONTINUOUS
10
96.5
20
-60.099
11
96.5
21
-60.099
0
LINE
8
BLACK
6
CONTINUOUS
10
96.5
20
-60.099
11
96.5
21
-60.099
0
LINE
8
BLACK
6
CONTINUOUS
10
96.5
20
-60.099
11
96.491
21
-60.0953
0
LINE
8
BLACK
6
CONTINUOUS
10
96.491
20
-60.0953
11
96.2725
21
-60.1125
0
LINE
8
BLACK
6
CONTINUOUS
10
96.2725
20
-60.1125
11
96.0505
21
-60.1658
0
LINE
8
BLACK
6
CONTINUOUS
10
96.0505
20
-60.1658
11
95.8397
21
-60.2531
0
LINE
8
BLACK
6
CONTINUOUS
10
95.8397
20
-60.2531
11
95.6451
21
-60.3724
0
LINE
8
BLACK
6
CONTINUOUS
10
95.6451
20
-60.3724
11
95.4715
21
-60.5206
0
LINE
8
BLACK
6
CONTINUOUS
10
95.4715
20
-60.5206
11
95.3233
21
-60.6941
0
LINE
8
BLACK
6
CONTINUOUS
10
95.3233
20
-60.6941
11
95.204
21
-60.8887
0
LINE
8
BLACK
6
CONTINUOUS
10
95.204
20
-60.8887
11
95.1167
21
-61.0996
0
LINE
8
BLACK
6
CONTINUOUS
10
95.1167
20
-61.0996
11
95.0634
21
-61.3215
0
LINE
8
BLACK
6
CONTINUOUS
10
95.0634
20
-61.3215
11
95.0462
21
-61.5399
0
LINE
8
BLACK
6
CONTINUOUS
10
95.0462
20
-61.5399
11
95.05
21
-61.549
0
LINE
8
BLACK
6
CONTINUOUS
10
95.05
20
-61.549
11
95.05
21
-69.549
0
LINE
8
BLACK
6
CONTINUOUS
10
95.05
20
-69.549
11
95.0342
21
-69.7696
0
LINE
8
BLACK
6
CONTINUOUS
10
95.0342
20
-69.7696
11
94.9872
21
-69.9857
0
LINE
8
BLACK
6
CONTINUOUS
10
94.9872
20
-69.9857
11
94.9099
21
-70.1929
0
LINE
8
BLACK
6
CONTINUOUS
10
94.9099
20
-70.1929
11
94.8039
21
-70.387
0
LINE
8
BLACK
6
CONTINUOUS
10
94.8039
20
-70.387
11
94.6714
21
-70.5641
0
LINE
8
BLACK
6
CONTINUOUS
10
94.6714
20
-70.5641
11
94.515
21
-70.7205
0
LINE
8
BLACK
6
CONTINUOUS
10
94.515
20
-70.7205
11
94.338
21
-70.853
0
LINE
8
BLACK
6
CONTINUOUS
10
94.338
20
-70.853
11
94.1439
21
-70.959
0
LINE
8
BLACK
6
CONTINUOUS
10
94.1439
20
-70.959
11
93.9367
21
-71.0363
0
LINE
8
BLACK
6
CONTINUOUS
10
93.9367
20
-71.0363
11
93.7206
21
-71.0833
0
LINE
8
BLACK
6
CONTINUOUS
10
93.7206
20
-71.0833
11
93.5
21
-71.0991
0
LINE
8
BLACK
6
CONTINUOUS
10
93.5
20
-71.0991
11
93.5
21
-71.099
0
LINE
8
BLACK
6
CONTINUOUS
10
93.5
20
-71.099
11
93.5
21
-71.099
0
LINE
8
BLACK
6
CONTINUOUS
10
93.5
20
-71.099
11
93.5
21
-71.099
0
LINE
8
BLACK
6
CONTINUOUS
10
93.5
20
-71.099
11
89.3755
21
-71.099
0
LINE
8
BLACK
6
CONTINUOUS
10
89.3755
20
-71.099
11
89.1549
21
-71.0833
0
LINE
8
BLACK
6
CONTINUOUS
10
89.1549
20
-71.0833
11
88.9388
21
-71.0362
0
LINE
8
BLACK
6
CONTINUOUS
10
88.9388
20
-71.0362
11
88.7316
21
-70.959
0
LINE
8
BLACK
6
CONTINUOUS
10
88.7316
20
-70.959
11
88.5375
21
-70.853
0
LINE
8
BLACK
6
CONTINUOUS
10
88.5375
20
-70.853
11
88.3604
21
-70.7204
0
LINE
8
BLACK
6
CONTINUOUS
10
88.3604
20
-70.7204
11
88.2041
21
-70.5641
0
LINE
8
BLACK
6
CONTINUOUS
10
88.2041
20
-70.5641
11
88.0715
21
-70.387
0
LINE
8
BLACK
6
CONTINUOUS
10
88.0715
20
-70.387
11
87.9655
21
-70.1929
0
LINE
8
BLACK
6
CONTINUOUS
10
87.9655
20
-70.1929
11
87.8883
21
-69.9857
0
LINE
8
BLACK
6
CONTINUOUS
10
87.8883
20
-69.9857
11
87.8412
21
-69.7696
0
LINE
8
BLACK
6
CONTINUOUS
10
87.8412
20
-69.7696
11
87.8255
21
-69.549
0
LINE
8
BLACK
6
CONTINUOUS
10
87.8255
20
-69.549
11
87.8255
21
-69.549
0
LINE
8
BLACK
6
CONTINUOUS
10
87.8255
20
-69.549
11
87.8255
21
-69.549
0
LINE
8
BLACK
6
CONTINUOUS
10
87.8255
20
-69.549
11
87.8255
21
-64.049
0
LINE
8
BLACK
6
CONTINUOUS
10
87.8255
20
-64.049
11
87.8256
21
-64.0488
0
LINE
8
BLACK
6
CONTINUOUS
10
87.8256
20
-64.0488
11
87.8255
21
-64.0486
0
LINE
8
BLACK
6
CONTINUOUS
10
87.8255
20
-64.0486
11
87.8299
21
-64.0382
0
LINE
8
BLACK
6
CONTINUOUS
10
87.8299
20
-64.0382
11
87.815
21
-63.5731
0
LINE
8
BLACK
6
CONTINUOUS
10
87.815
20
-63.5731
11
87.7614
21
-63.1004
0
LINE
8
BLACK
6
CONTINUOUS
10
87.7614
20
-63.1004
11
87.6698
21
-62.6335
0
LINE
8
BLACK
6
CONTINUOUS
10
87.6698
20
-62.6335
11
87.5409
21
-62.1755
0
LINE
8
BLACK
6
CONTINUOUS
10
87.5409
20
-62.1755
11
87.3754
21
-61.7294
0
LINE
8
BLACK
6
CONTINUOUS
10
87.3754
20
-61.7294
11
87.1745
21
-61.2981
0
LINE
8
BLACK
6
CONTINUOUS
10
87.1745
20
-61.2981
11
86.9394
21
-60.8844
0
LINE
8
BLACK
6
CONTINUOUS
10
86.9394
20
-60.8844
11
86.6718
21
-60.4911
0
LINE
8
BLACK
6
CONTINUOUS
10
86.6718
20
-60.4911
11
86.3733
21
-60.1206
0
LINE
8
BLACK
6
CONTINUOUS
10
86.3733
20
-60.1206
11
86.0458
21
-59.7754
0
LINE
8
BLACK
6
CONTINUOUS
10
86.0458
20
-59.7754
11
85.6916
21
-59.4577
0
LINE
8
BLACK
6
CONTINUOUS
10
85.6916
20
-59.4577
11
85.3129
21
-59.1697
0
LINE
8
BLACK
6
CONTINUOUS
10
85.3129
20
-59.1697
11
84.9122
21
-58.9131
0
LINE
8
BLACK
6
CONTINUOUS
10
84.9122
20
-58.9131
11
84.4921
21
-58.6898
0
LINE
8
BLACK
6
CONTINUOUS
10
84.4921
20
-58.6898
11
84.0554
21
-58.501
0
LINE
8
BLACK
6
CONTINUOUS
10
84.0554
20
-58.501
11
83.6048
21
-58.3481
0
LINE
8
BLACK
6
CONTINUOUS
10
83.6048
20
-58.3481
11
83.1434
21
-58.232
0
LINE
8
BLACK
6
CONTINUOUS
10
83.1434
20
-58.232
11
82.6741
21
-58.1536
0
LINE
8
BLACK
6
CONTINUOUS
10
82.6741
20
-58.1536
11
82.2
21
-58.1132
0
LINE
8
BLACK
6
CONTINUOUS
10
82.2
20
-58.1132
11
81.7243
21
-58.1113
0
LINE
8
BLACK
6
CONTINUOUS
10
81.7243
20
-58.1113
11
81.2499
21
-58.1477
0
LINE
8
BLACK
6
CONTINUOUS
10
81.2499
20
-58.1477
11
80.78
21
-58.2223
0
LINE
8
BLACK
6
CONTINUOUS
10
80.78
20
-58.2223
11
80.3176
21
-58.3345
0
LINE
8
BLACK
6
CONTINUOUS
10
80.3176
20
-58.3345
11
79.8658
21
-58.4837
0
LINE
8
BLACK
6
CONTINUOUS
10
79.8658
20
-58.4837
11
79.4275
21
-58.6688
0
LINE
8
BLACK
6
CONTINUOUS
10
79.4275
20
-58.6688
11
79.0056
21
-58.8888
0
LINE
8
BLACK
6
CONTINUOUS
10
79.0056
20
-58.8888
11
78.6028
21
-59.142
0
LINE
8
BLACK
6
CONTINUOUS
10
78.6028
20
-59.142
11
78.2217
21
-59.4269
0
LINE
8
BLACK
6
CONTINUOUS
10
78.2217
20
-59.4269
11
77.8649
21
-59.7416
0
LINE
8
BLACK
6
CONTINUOUS
10
77.8649
20
-59.7416
11
77.5346
21
-60.0841
0
LINE
8
BLACK
6
CONTINUOUS
10
77.5346
20
-60.0841
11
77.233
21
-60.4521
0
LINE
8
BLACK
6
CONTINUOUS
10
77.233
20
-60.4521
11
76.9621
21
-60.8432
0
LINE
8
BLACK
6
CONTINUOUS
10
76.9621
20
-60.8432
11
76.7237
21
-61.2549
0
LINE
8
BLACK
6
CONTINUOUS
10
76.7237
20
-61.2549
11
76.5192
21
-61.6846
0
LINE
8
BLACK
6
CONTINUOUS
10
76.5192
20
-61.6846
11
76.3501
21
-62.1293
0
LINE
8
BLACK
6
CONTINUOUS
10
76.3501
20
-62.1293
11
76.2173
21
-62.5862
0
LINE
8
BLACK
6
CONTINUOUS
10
76.2173
20
-62.5862
11
76.1219
21
-63.0523
0
LINE
8
BLACK
6
CONTINUOUS
10
76.1219
20
-63.0523
11
76.0644
21
-63.5246
0
LINE
8
BLACK
6
CONTINUOUS
10
76.0644
20
-63.5246
11
76.0456
21
-63.9895
0
LINE
8
BLACK
6
CONTINUOUS
10
76.0456
20
-63.9895
11
76.0496
21
-63.999
0
LINE
8
BLACK
6
CONTINUOUS
10
76.0496
20
-63.999
11
76.05
21
-64
0
LINE
8
BLACK
6
CONTINUOUS
10
76.05
20
-64
11
76.05
21
-117.049
0
LINE
8
BLACK
6
CONTINUOUS
10
76.05
20
-117.049
11
76.0499
21
-117.049
0
LINE
8
BLACK
6
CONTINUOUS
10
76.0499
20
-117.049
11
76.05
21
-117.049
0
LINE
8
BLACK
6
CONTINUOUS
10
76.05
20
-117.049
11
76.0455
21
-117.06
0
LINE
8
BLACK
6
CONTINUOUS
10
76.0455
20
-117.06
11
76.0607
21
-117.531
0
LINE
8
BLACK
6
CONTINUOUS
10
76.0607
20
-117.531
11
76.1152
21
-118.009
0
LINE
8
BLACK
6
CONTINUOUS
10
76.1152
20
-118.009
11
76.2082
21
-118.482
0
LINE
8
BLACK
6
CONTINUOUS
10
76.2082
20
-118.482
11
76.3391
21
-118.946
0
LINE
8
BLACK
6
CONTINUOUS
10
76.3391
20
-118.946
11
76.5071
21
-119.397
0
LINE
8
BLACK
6
CONTINUOUS
10
76.5071
20
-119.397
11
76.711
21
-119.834
0
LINE
8
BLACK
6
CONTINUOUS
10
76.711
20
-119.834
11
76.9496
21
-120.252
0
LINE
8
BLACK
6
CONTINUOUS
10
76.9496
20
-120.252
11
77.2212
21
-120.65
0
LINE
8
BLACK
6
CONTINUOUS
10
77.2212
20
-120.65
11
77.5242
21
-121.024
0
LINE
8
BLACK
6
CONTINUOUS
10
77.5242
20
-121.024
11
77.8564
21
-121.373
0
LINE
8
BLACK
6
CONTINUOUS
10
77.8564
20
-121.373
11
78.2158
21
-121.694
0
LINE
8
BLACK
6
CONTINUOUS
10
78.2158
20
-121.694
11
78.5999
21
-121.985
0
LINE
8
BLACK
6
CONTINUOUS
10
78.5999
20
-121.985
11
79.0063
21
-122.243
0
LINE
8
BLACK
6
CONTINUOUS
10
79.0063
20
-122.243
11
79.4323
21
-122.468
0
LINE
8
BLACK
6
CONTINUOUS
10
79.4323
20
-122.468
11
79.875
21
-122.658
0
LINE
8
BLACK
6
CONTINUOUS
10
79.875
20
-122.658
11
80.3317
21
-122.811
0
LINE
8
BLACK
6
CONTINUOUS
10
80.3317
20
-122.811
11
80.7993
21
-122.927
0
LINE
8
BLACK
6
CONTINUOUS
10
80.7993
20
-122.927
11
81.2747
21
-123.005
0
LINE
8
BLACK
6
CONTINUOUS
10
81.2747
20
-123.005
11
81.7548
21
-123.044
0
LINE
8
BLACK
6
CONTINUOUS
10
81.7548
20
-123.044
11
82.2365
21
-123.044
0
LINE
8
BLACK
6
CONTINUOUS
10
82.2365
20
-123.044
11
82.7167
21
-123.005
0
LINE
8
BLACK
6
CONTINUOUS
10
82.7167
20
-123.005
11
83.1921
21
-122.927
0
LINE
8
BLACK
6
CONTINUOUS
10
83.1921
20
-122.927
11
83.6597
21
-122.811
0
LINE
8
BLACK
6
CONTINUOUS
10
83.6597
20
-122.811
11
84.1163
21
-122.658
0
LINE
8
BLACK
6
CONTINUOUS
10
84.1163
20
-122.658
11
84.5591
21
-122.468
0
LINE
8
BLACK
6
CONTINUOUS
10
84.5591
20
-122.468
11
84.9851
21
-122.243
0
LINE
8
BLACK
6
CONTINUOUS
10
84.9851
20
-122.243
11
85.3915
21
-121.985
0
LINE
8
BLACK
6
CONTINUOUS
10
85.3915
20
-121.985
11
85.7756
21
-121.694
0
LINE
8
BLACK
6
CONTINUOUS
10
85.7756
20
-121.694
11
86.135
21
-121.373
0
LINE
8
BLACK
6
CONTINUOUS
10
86.135
20
-121.373
11
86.4672
21
-121.024
0
LINE
8
BLACK
6
CONTINUOUS
10
86.4672
20
-121.024
11
86.7701
21
-120.65
0
LINE
8
BLACK
6
CONTINUOUS
10
86.7701
20
-120.65
11
87.0418
21
-120.252
0
LINE
8
BLACK
6
CONTINUOUS
10
87.0418
20
-120.252
11
87.2804
21
-119.834
0
LINE
8
BLACK
6
CONTINUOUS
10
87.2804
20
-119.834
11
87.4843
21
-119.397
0
LINE
8
BLACK
6
CONTINUOUS
10
87.4843
20
-119.397
11
87.6523
21
-118.946
0
LINE
8
BLACK
6
CONTINUOUS
10
87.6523
20
-118.946
11
87.7832
21
-118.482
0
LINE
8
BLACK
6
CONTINUOUS
10
87.7832
20
-118.482
11
87.8762
21
-118.009
0
LINE
8
BLACK
6
CONTINUOUS
10
87.8762
20
-118.009
11
87.9306
21
-117.531
0
LINE
8
BLACK
6
CONTINUOUS
10
87.9306
20
-117.531
11
87.9459
21
-117.06
0
LINE
8
BLACK
6
CONTINUOUS
10
87.9459
20
-117.06
11
87.9414
21
-117.049
0
LINE
8
BLACK
6
CONTINUOUS
10
87.9414
20
-117.049
11
87.9415
21
-117.049
0
LINE
8
BLACK
6
CONTINUOUS
10
87.9415
20
-117.049
11
87.9414
21
-117.049
0
LINE
8
BLACK
6
CONTINUOUS
10
87.9414
20
-117.049
11
87.9414
21
-111.549
0
LINE
8
BLACK
6
CONTINUOUS
10
87.9414
20
-111.549
11
87.9414
21
-111.549
0
LINE
8
BLACK
6
CONTINUOUS
10
87.9414
20
-111.549
11
87.9571
21
-111.328
0
LINE
8
BLACK
6
CONTINUOUS
10
87.9571
20
-111.328
11
88.0042
21
-111.112
0
LINE
8
BLACK
6
CONTINUOUS
10
88.0042
20
-111.112
11
88.0814
21
-110.905
0
LINE
8
BLACK
6
CONTINUOUS
10
88.0814
20
-110.905
11
88.1874
21
-110.711
0
LINE
8
BLACK
6
CONTINUOUS
10
88.1874
20
-110.711
11
88.32
21
-110.534
0
LINE
8
BLACK
6
CONTINUOUS
10
88.32
20
-110.534
11
88.4763
21
-110.378
0
LINE
8
BLACK
6
CONTINUOUS
10
88.4763
20
-110.378
11
88.6534
21
-110.245
0
LINE
8
BLACK
6
CONTINUOUS
10
88.6534
20
-110.245
11
88.8475
21
-110.139
0
LINE
8
BLACK
6
CONTINUOUS
10
88.8475
20
-110.139
11
89.0547
21
-110.062
0
LINE
8
BLACK
6
CONTINUOUS
10
89.0547
20
-110.062
11
89.2708
21
-110.015
0
LINE
8
BLACK
6
CONTINUOUS
10
89.2708
20
-110.015
11
89.4913
21
-109.999
0
LINE
8
BLACK
6
CONTINUOUS
10
89.4913
20
-109.999
11
89.4914
21
-109.999
0
LINE
8
BLACK
6
CONTINUOUS
10
89.4914
20
-109.999
11
93.5
21
-109.999
0
LINE
8
BLACK
6
CONTINUOUS
10
93.5
20
-109.999
11
93.7206
21
-110.015
0
LINE
8
BLACK
6
CONTINUOUS
10
93.7206
20
-110.015
11
93.9367
21
-110.062
0
LINE
8
BLACK
6
CONTINUOUS
10
93.9367
20
-110.062
11
94.1439
21
-110.139
0
LINE
8
BLACK
6
CONTINUOUS
10
94.1439
20
-110.139
11
94.338
21
-110.245
0
LINE
8
BLACK
6
CONTINUOUS
10
94.338
20
-110.245
11
94.5151
21
-110.378
0
LINE
8
BLACK
6
CONTINUOUS
10
94.5151
20
-110.378
11
94.6714
21
-110.534
0
LINE
8
BLACK
6
CONTINUOUS
10
94.6714
20
-110.534
11
94.804
21
-110.711
0
LINE
8
BLACK
6
CONTINUOUS
10
94.804
20
-110.711
11
94.91
21
-110.905
0
LINE
8
BLACK
6
CONTINUOUS
10
94.91
20
-110.905
11
94.9873
21
-111.112
0
LINE
8
BLACK
6
CONTINUOUS
10
94.9873
20
-111.112
11
95.0343
21
-111.328
0
LINE
8
BLACK
6
CONTINUOUS
10
95.0343
20
-111.328
11
95.0501
21
-111.549
0
LINE
8
BLACK
6
CONTINUOUS
10
95.0501
20
-111.549
11
95.05
21
-111.549
0
LINE
8
BLACK
6
CONTINUOUS
10
95.05
20
-111.549
11
95.05
21
-116.549
0
LINE
8
BLACK
6
CONTINUOUS
10
95.05
20
-116.549
11
95.0463
21
-116.558
0
LINE
8
BLACK
6
CONTINUOUS
10
95.0463
20
-116.558
11
95.0635
21
-116.777
0
LINE
8
BLACK
6
CONTINUOUS
10
95.0635
20
-116.777
11
95.1167
21
-116.998
0
LINE
8
BLACK
6
CONTINUOUS
10
95.1167
20
-116.998
11
95.2041
21
-117.209
0
LINE
8
BLACK
6
CONTINUOUS
10
95.2041
20
-117.209
11
95.3233
21
-117.404
0
LINE
8
BLACK
6
CONTINUOUS
10
95.3233
20
-117.404
11
95.4715
21
-117.578
0
LINE
8
BLACK
6
CONTINUOUS
10
95.4715
20
-117.578
11
95.6451
21
-117.726
0
LINE
8
BLACK
6
CONTINUOUS
10
95.6451
20
-117.726
11
95.8397
21
-117.845
0
LINE
8
BLACK
6
CONTINUOUS
10
95.8397
20
-117.845
11
96.0505
21
-117.932
0
LINE
8
BLACK
6
CONTINUOUS
10
96.0505
20
-117.932
11
96.2725
21
-117.986
0
LINE
8
BLACK
6
CONTINUOUS
10
96.2725
20
-117.986
11
96.4909
21
-118.003
0
LINE
8
BLACK
6
CONTINUOUS
10
96.4909
20
-118.003
11
96.5
21
-117.999
0
LINE
8
BLACK
6
CONTINUOUS
10
96.5
20
-117.999
11
113
21
-117.999
0
LINE
8
BLACK
6
CONTINUOUS
10
113
20
-117.999
11
113.009
21
-118.003
0
LINE
8
BLACK
6
CONTINUOUS
10
113.009
20
-118.003
11
113.018
21
-118.002
0
LINE
8
BLACK
6
CONTINUOUS
10
113.018
20
-118.002
11
142.509
21
-129.499
0
LINE
8
BLACK
6
CONTINUOUS
10
142.509
20
-129.499
11
161.5
21
-129.499
0
LINE
8
BLACK
6
CONTINUOUS
10
161.5
20
-129.499
11
161.506
21
-129.502
0
LINE
8
BLACK
6
CONTINUOUS
10
161.506
20
-129.502
11
161.513
21
-129.501
0
LINE
8
BLACK
6
CONTINUOUS
10
161.513
20
-129.501
11
180.013
21
-134.501
0
LINE
8
BLACK
6
CONTINUOUS
10
180.013
20
-134.501
11
180.018
21
-134.505
0
LINE
8
BLACK
6
CONTINUOUS
10
180.018
20
-134.505
11
180.025
21
-134.506
0
LINE
8
BLACK
6
CONTINUOUS
10
180.025
20
-134.506
11
202.425
21
-147.557
0
LINE
8
BLACK
6
CONTINUOUS
10
202.425
20
-147.557
11
202.432
21
-147.566
0
LINE
8
BLACK
6
CONTINUOUS
10
202.432
20
-147.566
11
202.845
21
-147.783
0
LINE
8
BLACK
6
CONTINUOUS
10
202.845
20
-147.783
11
203.285
21
-147.97
0
LINE
8
BLACK
6
CONTINUOUS
10
203.285
20
-147.97
11
203.738
21
-148.121
0
LINE
8
BLACK
6
CONTINUOUS
10
203.738
20
-148.121
11
204.202
21
-148.236
0
LINE
8
BLACK
6
CONTINUOUS
10
204.202
20
-148.236
11
204.673
21
-148.312
0
LINE
8
BLACK
6
CONTINUOUS
10
204.673
20
-148.312
11
205.149
21
-148.351
0
LINE
8
BLACK
6
CONTINUOUS
10
205.149
20
-148.351
11
205.627
21
-148.351
0
LINE
8
BLACK
6
CONTINUOUS
10
205.627
20
-148.351
11
206.103
21
-148.312
0
LINE
8
BLACK
6
CONTINUOUS
10
206.103
20
-148.312
11
206.574
21
-148.236
0
LINE
8
BLACK
6
CONTINUOUS
10
206.574
20
-148.236
11
207.038
21
-148.121
0
LINE
8
BLACK
6
CONTINUOUS
10
207.038
20
-148.121
11
207.491
21
-147.97
0
LINE
8
BLACK
6
CONTINUOUS
10
207.491
20
-147.97
11
207.93
21
-147.783
0
LINE
8
BLACK
6
CONTINUOUS
10
207.93
20
-147.783
11
208.353
21
-147.561
0
LINE
8
BLACK
6
CONTINUOUS
10
208.353
20
-147.561
11
208.757
21
-147.306
0
LINE
8
BLACK
6
CONTINUOUS
10
208.757
20
-147.306
11
209.138
21
-147.019
0
LINE
8
BLACK
6
CONTINUOUS
10
209.138
20
-147.019
11
209.496
21
-146.702
0
LINE
8
BLACK
6
CONTINUOUS
10
209.496
20
-146.702
11
209.827
21
-146.358
0
LINE
8
BLACK
6
CONTINUOUS
10
209.827
20
-146.358
11
210.129
21
-145.988
0
LINE
8
BLACK
6
CONTINUOUS
10
210.129
20
-145.988
11
210.4
21
-145.595
0
LINE
8
BLACK
6
CONTINUOUS
10
210.4
20
-145.595
11
210.639
21
-145.181
0
LINE
8
BLACK
6
CONTINUOUS
10
210.639
20
-145.181
11
210.843
21
-144.75
0
LINE
8
BLACK
6
CONTINUOUS
10
210.843
20
-144.75
11
211.013
21
-144.303
0
LINE
8
BLACK
6
CONTINUOUS
10
211.013
20
-144.303
11
211.146
21
-143.844
0
LINE
8
BLACK
6
CONTINUOUS
10
211.146
20
-143.844
11
211.241
21
-143.376
0
LINE
8
BLACK
6
CONTINUOUS
10
211.241
20
-143.376
11
211.299
21
-142.902
0
LINE
8
BLACK
6
CONTINUOUS
10
211.299
20
-142.902
11
211.318
21
-142.425
0
LINE
8
BLACK
6
CONTINUOUS
10
211.318
20
-142.425
11
211.299
21
-141.948
0
LINE
8
BLACK
6
CONTINUOUS
10
211.299
20
-141.948
11
211.241
21
-141.474
0
LINE
8
BLACK
6
CONTINUOUS
10
211.241
20
-141.474
11
211.146
21
-141.006
0
LINE
8
BLACK
6
CONTINUOUS
10
211.146
20
-141.006
11
211.013
21
-140.547
0
LINE
8
BLACK
6
CONTINUOUS
10
211.013
20
-140.547
11
210.843
21
-140.101
0
LINE
8
BLACK
6
CONTINUOUS
10
210.843
20
-140.101
11
210.639
21
-139.669
0
LINE
8
BLACK
6
CONTINUOUS
10
210.639
20
-139.669
11
210.4
21
-139.256
0
LINE
8
BLACK
6
CONTINUOUS
10
210.4
20
-139.256
11
210.129
21
-138.863
0
LINE
8
BLACK
6
CONTINUOUS
10
210.129
20
-138.863
11
209.827
21
-138.493
0
LINE
8
BLACK
6
CONTINUOUS
10
209.827
20
-138.493
11
209.496
21
-138.148
0
LINE
8
BLACK
6
CONTINUOUS
10
209.496
20
-138.148
11
209.138
21
-137.831
0
LINE
8
BLACK
6
CONTINUOUS
10
209.138
20
-137.831
11
208.757
21
-137.545
0
LINE
8
BLACK
6
CONTINUOUS
10
208.757
20
-137.545
11
208.362
21
-137.295
0
LINE
8
BLACK
6
CONTINUOUS
10
208.362
20
-137.295
11
208.352
21
-137.294
0
LINE
8
BLACK
6
CONTINUOUS
10
208.352
20
-137.294
11
203.925
21
-134.893
0
LINE
8
BLACK
6
CONTINUOUS
10
203.925
20
-134.893
11
203.925
21
-134.892
0
LINE
8
BLACK
6
CONTINUOUS
10
203.925
20
-134.892
11
203.924
21
-134.892
0
LINE
8
BLACK
6
CONTINUOUS
10
203.924
20
-134.892
11
203.924
21
-134.892
0
LINE
8
BLACK
6
CONTINUOUS
10
203.924
20
-134.892
11
203.741
21
-134.768
0
LINE
8
BLACK
6
CONTINUOUS
10
203.741
20
-134.768
11
203.577
21
-134.62
0
LINE
8
BLACK
6
CONTINUOUS
10
203.577
20
-134.62
11
203.436
21
-134.449
0
LINE
8
BLACK
6
CONTINUOUS
10
203.436
20
-134.449
11
203.321
21
-134.26
0
LINE
8
BLACK
6
CONTINUOUS
10
203.321
20
-134.26
11
203.234
21
-134.057
0
LINE
8
BLACK
6
CONTINUOUS
10
203.234
20
-134.057
11
203.177
21
-133.843
0
LINE
8
BLACK
6
CONTINUOUS
10
203.177
20
-133.843
11
203.151
21
-133.624
0
LINE
8
BLACK
6
CONTINUOUS
10
203.151
20
-133.624
11
203.156
21
-133.403
0
LINE
8
BLACK
6
CONTINUOUS
10
203.156
20
-133.403
11
203.193
21
-133.185
0
LINE
8
BLACK
6
CONTINUOUS
10
203.193
20
-133.185
11
203.26
21
-132.974
0
LINE
8
BLACK
6
CONTINUOUS
10
203.26
20
-132.974
11
203.357
21
-132.775
0
LINE
8
BLACK
6
CONTINUOUS
10
203.357
20
-132.775
11
203.357
21
-132.775
0
LINE
8
BLACK
6
CONTINUOUS
10
203.357
20
-132.775
11
210.95
21
-119.536
0
LINE
8
BLACK
6
CONTINUOUS
10
210.95
20
-119.536
11
210.95
21
-65.549
0
LINE
8
BLACK
6
CONTINUOUS
10
210.95
20
-65.549
11
210.95
21
-65.549
0
LINE
8
BLACK
6
CONTINUOUS
10
210.95
20
-65.549
11
210.966
21
-65.3285
0
LINE
8
BLACK
6
CONTINUOUS
10
210.966
20
-65.3285
11
211.013
21
-65.1124
0
LINE
8
BLACK
6
CONTINUOUS
10
211.013
20
-65.1124
11
211.09
21
-64.9051
0
LINE
8
BLACK
6
CONTINUOUS
10
211.09
20
-64.9051
11
211.196
21
-64.7111
0
LINE
8
BLACK
6
CONTINUOUS
10
211.196
20
-64.7111
11
211.329
21
-64.534
0
LINE
8
BLACK
6
CONTINUOUS
10
211.329
20
-64.534
11
211.485
21
-64.3776
0
LINE
8
BLACK
6
CONTINUOUS
10
211.485
20
-64.3776
11
211.662
21
-64.2451
0
LINE
8
BLACK
6
CONTINUOUS
10
211.662
20
-64.2451
11
211.856
21
-64.1391
0
LINE
8
BLACK
6
CONTINUOUS
10
211.856
20
-64.1391
11
212.063
21
-64.0619
0
LINE
8
BLACK
6
CONTINUOUS
10
212.063
20
-64.0619
11
212.279
21
-64.0149
0
LINE
8
BLACK
6
CONTINUOUS
10
212.279
20
-64.0149
11
212.5
21
-63.9991
0
LINE
8
BLACK
6
CONTINUOUS
10
212.5
20
-63.9991
11
212.5
21
-63.999
0
LINE
8
BLACK
6
CONTINUOUS
10
212.5
20
-63.999
11
218
21
-63.999
0
LINE
8
BLACK
6
CONTINUOUS
10
218
20
-63.999
11
218.011
21
-64.0034
0
LINE
8
BLACK
6
CONTINUOUS
10
218.011
20
-64.0034
11
218.479
21
-63.9846
0
LINE
8
BLACK
6
CONTINUOUS
10
218.479
20
-63.9846
11
218.955
21
-63.9268
0
LINE
8
BLACK
6
CONTINUOUS
10
218.955
20
-63.9268
11
219.425
21
-63.8308
0
LINE
8
BLACK
6
CONTINUOUS
10
219.425
20
-63.8308
11
219.886
21
-63.6974
0
LINE
8
BLACK
6
CONTINUOUS
10
219.886
20
-63.6974
11
220.334
21
-63.5274
0
LINE
8
BLACK
6
CONTINUOUS
10
220.334
20
-63.5274
11
220.767
21
-63.3218
0
LINE
8
BLACK
6
CONTINUOUS
10
220.767
20
-63.3218
11
221.183
21
-63.082
0
LINE
8
BLACK
6
CONTINUOUS
10
221.183
20
-63.082
11
221.577
21
-62.8096
0
LINE
8
BLACK
6
CONTINUOUS
10
221.577
20
-62.8096
11
221.949
21
-62.5063
0
LINE
8
BLACK
6
CONTINUOUS
10
221.949
20
-62.5063
11
222.295
21
-62.1741
0
LINE
8
BLACK
6
CONTINUOUS
10
222.295
20
-62.1741
11
222.613
21
-61.8151
0
LINE
8
BLACK
6
CONTINUOUS
10
222.613
20
-61.8151
11
222.901
21
-61.4318
0
LINE
8
BLACK
6
CONTINUOUS
10
222.901
20
-61.4318
11
223.157
21
-61.0265
0
LINE
8
BLACK
6
CONTINUOUS
10
223.157
20
-61.0265
11
223.38
21
-60.6018
0
LINE
8
BLACK
6
CONTINUOUS
10
223.38
20
-60.6018
11
223.568
21
-60.1607
0
LINE
8
BLACK
6
CONTINUOUS
10
223.568
20
-60.1607
11
223.72
21
-59.7058
0
LINE
8
BLACK
6
CONTINUOUS
10
223.72
20
-59.7058
11
223.834
21
-59.2402
0
LINE
8
BLACK
6
CONTINUOUS
10
223.834
20
-59.2402
11
223.911
21
-58.7668
0
LINE
8
BLACK
6
CONTINUOUS
10
223.911
20
-58.7668
11
223.95
21
-58.2888
0
LINE
8
BLACK
6
CONTINUOUS
10
223.95
20
-58.2888
11
223.95
21
-57.8093
0
LINE
8
BLACK
6
CONTINUOUS
10
223.95
20
-57.8093
11
223.911
21
-57.3313
0
LINE
8
BLACK
6
CONTINUOUS
10
223.911
20
-57.3313
11
223.834
21
-56.8579
0
LINE
8
BLACK
6
CONTINUOUS
10
223.834
20
-56.8579
11
223.72
21
-56.3923
0
LINE
8
BLACK
6
CONTINUOUS
10
223.72
20
-56.3923
11
223.568
21
-55.9374
0
LINE
8
BLACK
6
CONTINUOUS
10
223.568
20
-55.9374
11
223.38
21
-55.4962
0
LINE
8
BLACK
6
CONTINUOUS
10
223.38
20
-55.4962
11
223.157
21
-55.0716
0
LINE
8
BLACK
6
CONTINUOUS
10
223.157
20
-55.0716
11
222.901
21
-54.6663
0
LINE
8
BLACK
6
CONTINUOUS
10
222.901
20
-54.6663
11
222.613
21
-54.2829
0
LINE
8
BLACK
6
CONTINUOUS
10
222.613
20
-54.2829
11
222.295
21
-53.924
0
LINE
8
BLACK
6
CONTINUOUS
10
222.295
20
-53.924
11
221.949
21
-53.5918
0
LINE
8
BLACK
6
CONTINUOUS
10
221.949
20
-53.5918
11
221.577
21
-53.2885
0
LINE
8
BLACK
6
CONTINUOUS
10
221.577
20
-53.2885
11
221.183
21
-53.0161
0
LINE
8
BLACK
6
CONTINUOUS
10
221.183
20
-53.0161
11
220.767
21
-52.7763
0
LINE
8
BLACK
6
CONTINUOUS
10
220.767
20
-52.7763
11
220.334
21
-52.5707
0
LINE
8
BLACK
6
CONTINUOUS
10
220.334
20
-52.5707
11
219.886
21
-52.4007
0
LINE
8
BLACK
6
CONTINUOUS
10
219.886
20
-52.4007
11
219.425
21
-52.2672
0
LINE
8
BLACK
6
CONTINUOUS
10
219.425
20
-52.2672
11
218.955
21
-52.1713
0
LINE
8
BLACK
6
CONTINUOUS
10
218.955
20
-52.1713
11
218.479
21
-52.1135
0
LINE
8
BLACK
6
CONTINUOUS
10
218.479
20
-52.1135
11
218.011
21
-52.0946
0
LINE
8
BLACK
6
CONTINUOUS
10
218.011
20
-52.0946
11
218
21
-52.099
0
LINE
8
BLACK
6
CONTINUOUS
10
218
20
-52.099
11
154.5
21
-52.099
0
LINE
8
BLACK
6
CONTINUOUS
10
154.5
20
-52.099
11
154.279
21
-52.0833
0
LINE
8
BLACK
6
CONTINUOUS
10
154.279
20
-52.0833
11
154.063
21
-52.0363
0
LINE
8
BLACK
6
CONTINUOUS
10
154.063
20
-52.0363
11
153.856
21
-51.959
0
LINE
8
BLACK
6
CONTINUOUS
10
153.856
20
-51.959
11
153.662
21
-51.853
0
LINE
8
BLACK
6
CONTINUOUS
10
153.662
20
-51.853
11
153.485
21
-51.7204
0
LINE
8
BLACK
6
CONTINUOUS
10
153.485
20
-51.7204
11
153.329
21
-51.5641
0
LINE
8
BLACK
6
CONTINUOUS
10
153.329
20
-51.5641
11
153.196
21
-51.387
0
LINE
8
BLACK
6
CONTINUOUS
10
153.196
20
-51.387
11
153.09
21
-51.1929
0
LINE
8
BLACK
6
CONTINUOUS
10
153.09
20
-51.1929
11
153.013
21
-50.9857
0
LINE
8
BLACK
6
CONTINUOUS
10
153.013
20
-50.9857
11
152.966
21
-50.7696
0
LINE
8
BLACK
6
CONTINUOUS
10
152.966
20
-50.7696
11
152.95
21
-50.5492
0
LINE
8
BLACK
6
CONTINUOUS
10
152.95
20
-50.5492
11
152.95
21
-50.549
0
LINE
8
BLACK
6
CONTINUOUS
10
152.95
20
-50.549
11
152.95
21
-49.549
0
LINE
8
BLACK
6
CONTINUOUS
10
152.95
20
-49.549
11
152.954
21
-49.5398
0
LINE
8
BLACK
6
CONTINUOUS
10
152.954
20
-49.5398
11
152.937
21
-49.3215
0
LINE
8
BLACK
6
CONTINUOUS
10
152.937
20
-49.3215
11
152.883
21
-49.0996
0
LINE
8
BLACK
6
CONTINUOUS
10
152.883
20
-49.0996
11
152.796
21
-48.8887
0
LINE
8
BLACK
6
CONTINUOUS
10
152.796
20
-48.8887
11
152.677
21
-48.6941
0
LINE
8
BLACK
6
CONTINUOUS
10
152.677
20
-48.6941
11
152.528
21
-48.5206
0
LINE
8
BLACK
6
CONTINUOUS
10
152.528
20
-48.5206
11
152.355
21
-48.3723
0
LINE
8
BLACK
6
CONTINUOUS
10
152.355
20
-48.3723
11
152.16
21
-48.2531
0
LINE
8
BLACK
6
CONTINUOUS
10
152.16
20
-48.2531
11
151.949
21
-48.1657
0
LINE
8
BLACK
6
CONTINUOUS
10
151.949
20
-48.1657
11
151.728
21
-48.1125
0
LINE
8
BLACK
6
CONTINUOUS
10
151.728
20
-48.1125
11
151.509
21
-48.0953
0
LINE
8
BLACK
6
CONTINUOUS
10
151.509
20
-48.0953
11
151.5
21
-48.099
0
LINE
8
BLACK
6
CONTINUOUS
10
151.5
20
-48.099
11
134.5
21
-48.099
0
LINE
8
BLACK
6
CONTINUOUS
10
134.5
20
-48.099
11
134.5
21
-48.099
  0
ENDSEC
  0
EOF
