  0
SECTION
  2
HEADER
  9
$ANGBASE
  50
0.0
  9
$ANGDIR
  70
1
  9
$MEASUREMENT
  70
1
  0
ENDSEC
  0
SECTION
  2
TABLES
  0
TABLE
  2
LTYPE
  70
4
  0
LTYPE
  5
40F
  2
CONTINUOUS
  70
0
  3
Solid line
  72
65
  73
0
  40
0.0
  0
LTYPE
  5
410
  2
DASHDOT
 70
0
  3
Dash Dot ____ _ ____ _
 72
65
 73
4
 40
2.0
 49
1.25
 49
-0.25
 49
0.25
 49
-0.25
  0
LTYPE
  5
411
  2
DASHED
 70
0
  3
Dashed __ __ __ __ __
 72
65
 73
2
 40
0.75
 49
0.5
 49
-0.25
  0
LTYPE
  5
43B
  2
DOTTED
 70
0
  3
Dotted .  .  .  .
 72
65
 73
2
 40
0.2
 49
0.0
 49
-0.2
  0
ENDTAB
  0
TABLE
  2
STYLE
  70
4
  0
STYLE
  2
KICAD
  70
0
  40
0
  41
1
  42
1
  50
0
  71
0
  3
isocp.shx
  0
STYLE
  2
KICADB
  70
0
  40
0
  41
1
  42
1
  50
0
  71
0
  3
isocp.shx
  0
STYLE
  2
KICADI
  70
0
  40
0
  41
1
  42
1
  50
15
  71
0
  3
isocp.shx
  0
STYLE
  2
KICADBI
  70
0
  40
0
  41
1
  42
1
  50
15
  71
0
  3
isocp.shx
  0
ENDTAB
  0
TABLE
  2
LAYER
  70
1
  0
LAYER
  2
BLACK
  70
0
  62
7
  6
CONTINUOUS
  0
ENDTAB
  0
ENDSEC
  0
SECTION
  2
ENTITIES
0
LINE
8
BLACK
6
CONTINUOUS
10
198.044
20
-142.269
11
198.332
21
-142.327
0
LINE
8
BLACK
6
CONTINUOUS
10
198.332
20
-142.327
11
198.611
21
-142.421
0
LINE
8
BLACK
6
CONTINUOUS
10
198.611
20
-142.421
11
198.875
21
-142.551
0
LINE
8
BLACK
6
CONTINUOUS
10
198.875
20
-142.551
11
199.12
21
-142.715
0
LINE
8
BLACK
6
CONTINUOUS
10
199.12
20
-142.715
11
199.341
21
-142.909
0
LINE
8
BLACK
6
CONTINUOUS
10
199.341
20
-142.909
11
199.535
21
-143.13
0
LINE
8
BLACK
6
CONTINUOUS
10
199.535
20
-143.13
11
199.699
21
-143.375
0
LINE
8
BLACK
6
CONTINUOUS
10
199.699
20
-143.375
11
199.829
21
-143.639
0
LINE
8
BLACK
6
CONTINUOUS
10
199.829
20
-143.639
11
199.923
21
-143.918
0
LINE
8
BLACK
6
CONTINUOUS
10
199.923
20
-143.918
11
199.981
21
-144.206
0
LINE
8
BLACK
6
CONTINUOUS
10
199.981
20
-144.206
11
200
21
-144.5
0
LINE
8
BLACK
6
CONTINUOUS
10
200
20
-144.5
11
199.981
21
-144.794
0
LINE
8
BLACK
6
CONTINUOUS
10
199.981
20
-144.794
11
199.923
21
-145.082
0
LINE
8
BLACK
6
CONTINUOUS
10
199.923
20
-145.082
11
199.829
21
-145.361
0
LINE
8
BLACK
6
CONTINUOUS
10
199.829
20
-145.361
11
199.699
21
-145.625
0
LINE
8
BLACK
6
CONTINUOUS
10
199.699
20
-145.625
11
199.535
21
-145.87
0
LINE
8
BLACK
6
CONTINUOUS
10
199.535
20
-145.87
11
199.341
21
-146.091
0
LINE
8
BLACK
6
CONTINUOUS
10
199.341
20
-146.091
11
199.12
21
-146.285
0
LINE
8
BLACK
6
CONTINUOUS
10
199.12
20
-146.285
11
198.875
21
-146.449
0
LINE
8
BLACK
6
CONTINUOUS
10
198.875
20
-146.449
11
198.611
21
-146.579
0
LINE
8
BLACK
6
CONTINUOUS
10
198.611
20
-146.579
11
198.332
21
-146.673
0
LINE
8
BLACK
6
CONTINUOUS
10
198.332
20
-146.673
11
198.044
21
-146.731
0
LINE
8
BLACK
6
CONTINUOUS
10
198.044
20
-146.731
11
197.75
21
-146.75
0
LINE
8
BLACK
6
CONTINUOUS
10
197.75
20
-146.75
11
197.456
21
-146.731
0
LINE
8
BLACK
6
CONTINUOUS
10
197.456
20
-146.731
11
197.168
21
-146.673
0
LINE
8
BLACK
6
CONTINUOUS
10
197.168
20
-146.673
11
196.889
21
-146.579
0
LINE
8
BLACK
6
CONTINUOUS
10
196.889
20
-146.579
11
196.625
21
-146.449
0
LINE
8
BLACK
6
CONTINUOUS
10
196.625
20
-146.449
11
196.38
21
-146.285
0
LINE
8
BLACK
6
CONTINUOUS
10
196.38
20
-146.285
11
196.159
21
-146.091
0
LINE
8
BLACK
6
CONTINUOUS
10
196.159
20
-146.091
11
195.965
21
-145.87
0
LINE
8
BLACK
6
CONTINUOUS
10
195.965
20
-145.87
11
195.801
21
-145.625
0
LINE
8
BLACK
6
CONTINUOUS
10
195.801
20
-145.625
11
195.671
21
-145.361
0
LINE
8
BLACK
6
CONTINUOUS
10
195.671
20
-145.361
11
195.577
21
-145.082
0
LINE
8
BLACK
6
CONTINUOUS
10
195.577
20
-145.082
11
195.519
21
-144.794
0
LINE
8
BLACK
6
CONTINUOUS
10
195.519
20
-144.794
11
195.5
21
-144.5
0
LINE
8
BLACK
6
CONTINUOUS
10
195.5
20
-144.5
11
195.519
21
-144.206
0
LINE
8
BLACK
6
CONTINUOUS
10
195.519
20
-144.206
11
195.577
21
-143.918
0
LINE
8
BLACK
6
CONTINUOUS
10
195.577
20
-143.918
11
195.671
21
-143.639
0
LINE
8
BLACK
6
CONTINUOUS
10
195.671
20
-143.639
11
195.801
21
-143.375
0
LINE
8
BLACK
6
CONTINUOUS
10
195.801
20
-143.375
11
195.965
21
-143.13
0
LINE
8
BLACK
6
CONTINUOUS
10
195.965
20
-143.13
11
196.159
21
-142.909
0
LINE
8
BLACK
6
CONTINUOUS
10
196.159
20
-142.909
11
196.38
21
-142.715
0
LINE
8
BLACK
6
CONTINUOUS
10
196.38
20
-142.715
11
196.625
21
-142.551
0
LINE
8
BLACK
6
CONTINUOUS
10
196.625
20
-142.551
11
196.889
21
-142.421
0
LINE
8
BLACK
6
CONTINUOUS
10
196.889
20
-142.421
11
197.168
21
-142.327
0
LINE
8
BLACK
6
CONTINUOUS
10
197.168
20
-142.327
11
197.456
21
-142.269
0
LINE
8
BLACK
6
CONTINUOUS
10
197.456
20
-142.269
11
197.75
21
-142.25
0
LINE
8
BLACK
6
CONTINUOUS
10
197.75
20
-142.25
11
198.044
21
-142.269
0
LINE
8
BLACK
6
CONTINUOUS
10
178.62
20
-121.856
11
178.827
21
-121.897
0
LINE
8
BLACK
6
CONTINUOUS
10
178.827
20
-121.897
11
179.022
21
-121.975
0
LINE
8
BLACK
6
CONTINUOUS
10
179.022
20
-121.975
11
179.2
21
-122.088
0
LINE
8
BLACK
6
CONTINUOUS
10
179.2
20
-122.088
11
179.355
21
-122.23
0
LINE
8
BLACK
6
CONTINUOUS
10
179.355
20
-122.23
11
179.481
21
-122.399
0
LINE
8
BLACK
6
CONTINUOUS
10
179.481
20
-122.399
11
179.574
21
-122.588
0
LINE
8
BLACK
6
CONTINUOUS
10
179.574
20
-122.588
11
179.631
21
-122.79
0
LINE
8
BLACK
6
CONTINUOUS
10
179.631
20
-122.79
11
179.65
21
-123
0
LINE
8
BLACK
6
CONTINUOUS
10
179.65
20
-123
11
179.648
21
-123.06
0
LINE
8
BLACK
6
CONTINUOUS
10
179.648
20
-123.06
11
179.618
21
-123.268
0
LINE
8
BLACK
6
CONTINUOUS
10
179.618
20
-123.268
11
179.551
21
-123.468
0
LINE
8
BLACK
6
CONTINUOUS
10
179.551
20
-123.468
11
179.448
21
-123.651
0
LINE
8
BLACK
6
CONTINUOUS
10
179.448
20
-123.651
11
179.313
21
-123.813
0
LINE
8
BLACK
6
CONTINUOUS
10
179.313
20
-123.813
11
179.151
21
-123.948
0
LINE
8
BLACK
6
CONTINUOUS
10
179.151
20
-123.948
11
178.968
21
-124.051
0
LINE
8
BLACK
6
CONTINUOUS
10
178.968
20
-124.051
11
178.768
21
-124.118
0
LINE
8
BLACK
6
CONTINUOUS
10
178.768
20
-124.118
11
178.56
21
-124.148
0
LINE
8
BLACK
6
CONTINUOUS
10
178.56
20
-124.148
11
178.35
21
-124.14
0
LINE
8
BLACK
6
CONTINUOUS
10
178.35
20
-124.14
11
178.145
21
-124.094
0
LINE
8
BLACK
6
CONTINUOUS
10
178.145
20
-124.094
11
177.951
21
-124.011
0
LINE
8
BLACK
6
CONTINUOUS
10
177.951
20
-124.011
11
177.776
21
-123.894
0
LINE
8
BLACK
6
CONTINUOUS
10
177.776
20
-123.894
11
177.626
21
-123.747
0
LINE
8
BLACK
6
CONTINUOUS
10
177.626
20
-123.747
11
177.504
21
-123.575
0
LINE
8
BLACK
6
CONTINUOUS
10
177.504
20
-123.575
11
177.416
21
-123.384
0
LINE
8
BLACK
6
CONTINUOUS
10
177.416
20
-123.384
11
177.364
21
-123.18
0
LINE
8
BLACK
6
CONTINUOUS
10
177.364
20
-123.18
11
177.35
21
-122.97
0
LINE
8
BLACK
6
CONTINUOUS
10
177.35
20
-122.97
11
177.375
21
-122.761
0
LINE
8
BLACK
6
CONTINUOUS
10
177.375
20
-122.761
11
177.438
21
-122.56
0
LINE
8
BLACK
6
CONTINUOUS
10
177.438
20
-122.56
11
177.536
21
-122.374
0
LINE
8
BLACK
6
CONTINUOUS
10
177.536
20
-122.374
11
177.666
21
-122.208
0
LINE
8
BLACK
6
CONTINUOUS
10
177.666
20
-122.208
11
177.824
21
-122.07
0
LINE
8
BLACK
6
CONTINUOUS
10
177.824
20
-122.07
11
178.005
21
-121.962
0
LINE
8
BLACK
6
CONTINUOUS
10
178.005
20
-121.962
11
178.202
21
-121.889
0
LINE
8
BLACK
6
CONTINUOUS
10
178.202
20
-121.889
11
178.41
21
-121.854
0
LINE
8
BLACK
6
CONTINUOUS
10
178.41
20
-121.854
11
178.62
21
-121.856
0
LINE
8
BLACK
6
CONTINUOUS
10
74.7937
20
-117.269
11
75.0823
21
-117.327
0
LINE
8
BLACK
6
CONTINUOUS
10
75.0823
20
-117.327
11
75.361
21
-117.421
0
LINE
8
BLACK
6
CONTINUOUS
10
75.361
20
-117.421
11
75.625
21
-117.551
0
LINE
8
BLACK
6
CONTINUOUS
10
75.625
20
-117.551
11
75.8697
21
-117.715
0
LINE
8
BLACK
6
CONTINUOUS
10
75.8697
20
-117.715
11
76.091
21
-117.909
0
LINE
8
BLACK
6
CONTINUOUS
10
76.091
20
-117.909
11
76.285
21
-118.13
0
LINE
8
BLACK
6
CONTINUOUS
10
76.285
20
-118.13
11
76.4486
21
-118.375
0
LINE
8
BLACK
6
CONTINUOUS
10
76.4486
20
-118.375
11
76.5787
21
-118.639
0
LINE
8
BLACK
6
CONTINUOUS
10
76.5787
20
-118.639
11
76.6733
21
-118.918
0
LINE
8
BLACK
6
CONTINUOUS
10
76.6733
20
-118.918
11
76.7308
21
-119.206
0
LINE
8
BLACK
6
CONTINUOUS
10
76.7308
20
-119.206
11
76.75
21
-119.5
0
LINE
8
BLACK
6
CONTINUOUS
10
76.75
20
-119.5
11
76.7308
21
-119.794
0
LINE
8
BLACK
6
CONTINUOUS
10
76.7308
20
-119.794
11
76.6733
21
-120.082
0
LINE
8
BLACK
6
CONTINUOUS
10
76.6733
20
-120.082
11
76.5787
21
-120.361
0
LINE
8
BLACK
6
CONTINUOUS
10
76.5787
20
-120.361
11
76.4486
21
-120.625
0
LINE
8
BLACK
6
CONTINUOUS
10
76.4486
20
-120.625
11
76.285
21
-120.87
0
LINE
8
BLACK
6
CONTINUOUS
10
76.285
20
-120.87
11
76.091
21
-121.091
0
LINE
8
BLACK
6
CONTINUOUS
10
76.091
20
-121.091
11
75.8697
21
-121.285
0
LINE
8
BLACK
6
CONTINUOUS
10
75.8697
20
-121.285
11
75.625
21
-121.449
0
LINE
8
BLACK
6
CONTINUOUS
10
75.625
20
-121.449
11
75.361
21
-121.579
0
LINE
8
BLACK
6
CONTINUOUS
10
75.361
20
-121.579
11
75.0823
21
-121.673
0
LINE
8
BLACK
6
CONTINUOUS
10
75.0823
20
-121.673
11
74.7937
21
-121.731
0
LINE
8
BLACK
6
CONTINUOUS
10
74.7937
20
-121.731
11
74.5
21
-121.75
0
LINE
8
BLACK
6
CONTINUOUS
10
74.5
20
-121.75
11
74.2063
21
-121.731
0
LINE
8
BLACK
6
CONTINUOUS
10
74.2063
20
-121.731
11
73.9177
21
-121.673
0
LINE
8
BLACK
6
CONTINUOUS
10
73.9177
20
-121.673
11
73.639
21
-121.579
0
LINE
8
BLACK
6
CONTINUOUS
10
73.639
20
-121.579
11
73.375
21
-121.449
0
LINE
8
BLACK
6
CONTINUOUS
10
73.375
20
-121.449
11
73.1303
21
-121.285
0
LINE
8
BLACK
6
CONTINUOUS
10
73.1303
20
-121.285
11
72.909
21
-121.091
0
LINE
8
BLACK
6
CONTINUOUS
10
72.909
20
-121.091
11
72.715
21
-120.87
0
LINE
8
BLACK
6
CONTINUOUS
10
72.715
20
-120.87
11
72.5514
21
-120.625
0
LINE
8
BLACK
6
CONTINUOUS
10
72.5514
20
-120.625
11
72.4213
21
-120.361
0
LINE
8
BLACK
6
CONTINUOUS
10
72.4213
20
-120.361
11
72.3267
21
-120.082
0
LINE
8
BLACK
6
CONTINUOUS
10
72.3267
20
-120.082
11
72.2692
21
-119.794
0
LINE
8
BLACK
6
CONTINUOUS
10
72.2692
20
-119.794
11
72.25
21
-119.5
0
LINE
8
BLACK
6
CONTINUOUS
10
72.25
20
-119.5
11
72.2692
21
-119.206
0
LINE
8
BLACK
6
CONTINUOUS
10
72.2692
20
-119.206
11
72.3267
21
-118.918
0
LINE
8
BLACK
6
CONTINUOUS
10
72.3267
20
-118.918
11
72.4213
21
-118.639
0
LINE
8
BLACK
6
CONTINUOUS
10
72.4213
20
-118.639
11
72.5514
21
-118.375
0
LINE
8
BLACK
6
CONTINUOUS
10
72.5514
20
-118.375
11
72.715
21
-118.13
0
LINE
8
BLACK
6
CONTINUOUS
10
72.715
20
-118.13
11
72.909
21
-117.909
0
LINE
8
BLACK
6
CONTINUOUS
10
72.909
20
-117.909
11
73.1303
21
-117.715
0
LINE
8
BLACK
6
CONTINUOUS
10
73.1303
20
-117.715
11
73.375
21
-117.551
0
LINE
8
BLACK
6
CONTINUOUS
10
73.375
20
-117.551
11
73.639
21
-117.421
0
LINE
8
BLACK
6
CONTINUOUS
10
73.639
20
-117.421
11
73.9177
21
-117.327
0
LINE
8
BLACK
6
CONTINUOUS
10
73.9177
20
-117.327
11
74.2063
21
-117.269
0
LINE
8
BLACK
6
CONTINUOUS
10
74.2063
20
-117.269
11
74.5
21
-117.25
0
LINE
8
BLACK
6
CONTINUOUS
10
74.5
20
-117.25
11
74.7937
21
-117.269
0
LINE
8
BLACK
6
CONTINUOUS
10
127.12
20
-107.856
11
127.327
21
-107.897
0
LINE
8
BLACK
6
CONTINUOUS
10
127.327
20
-107.897
11
127.522
21
-107.975
0
LINE
8
BLACK
6
CONTINUOUS
10
127.522
20
-107.975
11
127.7
21
-108.088
0
LINE
8
BLACK
6
CONTINUOUS
10
127.7
20
-108.088
11
127.855
21
-108.23
0
LINE
8
BLACK
6
CONTINUOUS
10
127.855
20
-108.23
11
127.981
21
-108.399
0
LINE
8
BLACK
6
CONTINUOUS
10
127.981
20
-108.399
11
128.074
21
-108.588
0
LINE
8
BLACK
6
CONTINUOUS
10
128.074
20
-108.588
11
128.131
21
-108.79
0
LINE
8
BLACK
6
CONTINUOUS
10
128.131
20
-108.79
11
128.15
21
-109
0
LINE
8
BLACK
6
CONTINUOUS
10
128.15
20
-109
11
128.148
21
-109.06
0
LINE
8
BLACK
6
CONTINUOUS
10
128.148
20
-109.06
11
128.118
21
-109.268
0
LINE
8
BLACK
6
CONTINUOUS
10
128.118
20
-109.268
11
128.051
21
-109.468
0
LINE
8
BLACK
6
CONTINUOUS
10
128.051
20
-109.468
11
127.948
21
-109.651
0
LINE
8
BLACK
6
CONTINUOUS
10
127.948
20
-109.651
11
127.813
21
-109.813
0
LINE
8
BLACK
6
CONTINUOUS
10
127.813
20
-109.813
11
127.651
21
-109.948
0
LINE
8
BLACK
6
CONTINUOUS
10
127.651
20
-109.948
11
127.468
21
-110.051
0
LINE
8
BLACK
6
CONTINUOUS
10
127.468
20
-110.051
11
127.268
21
-110.118
0
LINE
8
BLACK
6
CONTINUOUS
10
127.268
20
-110.118
11
127.06
21
-110.148
0
LINE
8
BLACK
6
CONTINUOUS
10
127.06
20
-110.148
11
126.85
21
-110.14
0
LINE
8
BLACK
6
CONTINUOUS
10
126.85
20
-110.14
11
126.645
21
-110.094
0
LINE
8
BLACK
6
CONTINUOUS
10
126.645
20
-110.094
11
126.451
21
-110.011
0
LINE
8
BLACK
6
CONTINUOUS
10
126.451
20
-110.011
11
126.276
21
-109.894
0
LINE
8
BLACK
6
CONTINUOUS
10
126.276
20
-109.894
11
126.126
21
-109.747
0
LINE
8
BLACK
6
CONTINUOUS
10
126.126
20
-109.747
11
126.004
21
-109.575
0
LINE
8
BLACK
6
CONTINUOUS
10
126.004
20
-109.575
11
125.916
21
-109.384
0
LINE
8
BLACK
6
CONTINUOUS
10
125.916
20
-109.384
11
125.864
21
-109.18
0
LINE
8
BLACK
6
CONTINUOUS
10
125.864
20
-109.18
11
125.85
21
-108.97
0
LINE
8
BLACK
6
CONTINUOUS
10
125.85
20
-108.97
11
125.875
21
-108.761
0
LINE
8
BLACK
6
CONTINUOUS
10
125.875
20
-108.761
11
125.938
21
-108.56
0
LINE
8
BLACK
6
CONTINUOUS
10
125.938
20
-108.56
11
126.036
21
-108.374
0
LINE
8
BLACK
6
CONTINUOUS
10
126.036
20
-108.374
11
126.166
21
-108.208
0
LINE
8
BLACK
6
CONTINUOUS
10
126.166
20
-108.208
11
126.324
21
-108.07
0
LINE
8
BLACK
6
CONTINUOUS
10
126.324
20
-108.07
11
126.505
21
-107.962
0
LINE
8
BLACK
6
CONTINUOUS
10
126.505
20
-107.962
11
126.702
21
-107.889
0
LINE
8
BLACK
6
CONTINUOUS
10
126.702
20
-107.889
11
126.91
21
-107.854
0
LINE
8
BLACK
6
CONTINUOUS
10
126.91
20
-107.854
11
127.12
21
-107.856
0
LINE
8
BLACK
6
CONTINUOUS
10
87.6202
20
-92.3563
11
87.8266
21
-92.3974
0
LINE
8
BLACK
6
CONTINUOUS
10
87.8266
20
-92.3974
11
88.0221
21
-92.4753
0
LINE
8
BLACK
6
CONTINUOUS
10
88.0221
20
-92.4753
11
88.2001
21
-92.5876
0
LINE
8
BLACK
6
CONTINUOUS
10
88.2001
20
-92.5876
11
88.3546
21
-92.7305
0
LINE
8
BLACK
6
CONTINUOUS
10
88.3546
20
-92.7305
11
88.4805
21
-92.8991
0
LINE
8
BLACK
6
CONTINUOUS
10
88.4805
20
-92.8991
11
88.5736
21
-93.0879
0
LINE
8
BLACK
6
CONTINUOUS
10
88.5736
20
-93.0879
11
88.6307
21
-93.2904
0
LINE
8
BLACK
6
CONTINUOUS
10
88.6307
20
-93.2904
11
88.65
21
-93.5
0
LINE
8
BLACK
6
CONTINUOUS
10
88.65
20
-93.5
11
88.6484
21
-93.5602
0
LINE
8
BLACK
6
CONTINUOUS
10
88.6484
20
-93.5602
11
88.6182
21
-93.7685
0
LINE
8
BLACK
6
CONTINUOUS
10
88.6182
20
-93.7685
11
88.5506
21
-93.9677
0
LINE
8
BLACK
6
CONTINUOUS
10
88.5506
20
-93.9677
11
88.4477
21
-94.1514
0
LINE
8
BLACK
6
CONTINUOUS
10
88.4477
20
-94.1514
11
88.3132
21
-94.3132
0
LINE
8
BLACK
6
CONTINUOUS
10
88.3132
20
-94.3132
11
88.1514
21
-94.4477
0
LINE
8
BLACK
6
CONTINUOUS
10
88.1514
20
-94.4477
11
87.9677
21
-94.5506
0
LINE
8
BLACK
6
CONTINUOUS
10
87.9677
20
-94.5506
11
87.7685
21
-94.6182
0
LINE
8
BLACK
6
CONTINUOUS
10
87.7685
20
-94.6182
11
87.5602
21
-94.6484
0
LINE
8
BLACK
6
CONTINUOUS
10
87.5602
20
-94.6484
11
87.3499
21
-94.6402
0
LINE
8
BLACK
6
CONTINUOUS
10
87.3499
20
-94.6402
11
87.1446
21
-94.5937
0
LINE
8
BLACK
6
CONTINUOUS
10
87.1446
20
-94.5937
11
86.9513
21
-94.5106
0
LINE
8
BLACK
6
CONTINUOUS
10
86.9513
20
-94.5106
11
86.7763
21
-94.3937
0
LINE
8
BLACK
6
CONTINUOUS
10
86.7763
20
-94.3937
11
86.6255
21
-94.2469
0
LINE
8
BLACK
6
CONTINUOUS
10
86.6255
20
-94.2469
11
86.5041
21
-94.075
0
LINE
8
BLACK
6
CONTINUOUS
10
86.5041
20
-94.075
11
86.416
21
-93.8839
0
LINE
8
BLACK
6
CONTINUOUS
10
86.416
20
-93.8839
11
86.3642
21
-93.6799
0
LINE
8
BLACK
6
CONTINUOUS
10
86.3642
20
-93.6799
11
86.3504
21
-93.4699
0
LINE
8
BLACK
6
CONTINUOUS
10
86.3504
20
-93.4699
11
86.3751
21
-93.2609
0
LINE
8
BLACK
6
CONTINUOUS
10
86.3751
20
-93.2609
11
86.4375
21
-93.0599
0
LINE
8
BLACK
6
CONTINUOUS
10
86.4375
20
-93.0599
11
86.5355
21
-92.8737
0
LINE
8
BLACK
6
CONTINUOUS
10
86.5355
20
-92.8737
11
86.6658
21
-92.7084
0
LINE
8
BLACK
6
CONTINUOUS
10
86.6658
20
-92.7084
11
86.824
21
-92.5696
0
LINE
8
BLACK
6
CONTINUOUS
10
86.824
20
-92.5696
11
87.0049
21
-92.462
0
LINE
8
BLACK
6
CONTINUOUS
10
87.0049
20
-92.462
11
87.2024
21
-92.3892
0
LINE
8
BLACK
6
CONTINUOUS
10
87.2024
20
-92.3892
11
87.4098
21
-92.3535
0
LINE
8
BLACK
6
CONTINUOUS
10
87.4098
20
-92.3535
11
87.6202
21
-92.3563
0
LINE
8
BLACK
6
CONTINUOUS
10
165.12
20
-75.8563
11
165.327
21
-75.8974
0
LINE
8
BLACK
6
CONTINUOUS
10
165.327
20
-75.8974
11
165.522
21
-75.9753
0
LINE
8
BLACK
6
CONTINUOUS
10
165.522
20
-75.9753
11
165.7
21
-76.0876
0
LINE
8
BLACK
6
CONTINUOUS
10
165.7
20
-76.0876
11
165.855
21
-76.2305
0
LINE
8
BLACK
6
CONTINUOUS
10
165.855
20
-76.2305
11
165.981
21
-76.3991
0
LINE
8
BLACK
6
CONTINUOUS
10
165.981
20
-76.3991
11
166.074
21
-76.5879
0
LINE
8
BLACK
6
CONTINUOUS
10
166.074
20
-76.5879
11
166.131
21
-76.7904
0
LINE
8
BLACK
6
CONTINUOUS
10
166.131
20
-76.7904
11
166.15
21
-77
0
LINE
8
BLACK
6
CONTINUOUS
10
166.15
20
-77
11
166.148
21
-77.0602
0
LINE
8
BLACK
6
CONTINUOUS
10
166.148
20
-77.0602
11
166.118
21
-77.2685
0
LINE
8
BLACK
6
CONTINUOUS
10
166.118
20
-77.2685
11
166.051
21
-77.4677
0
LINE
8
BLACK
6
CONTINUOUS
10
166.051
20
-77.4677
11
165.948
21
-77.6514
0
LINE
8
BLACK
6
CONTINUOUS
10
165.948
20
-77.6514
11
165.813
21
-77.8132
0
LINE
8
BLACK
6
CONTINUOUS
10
165.813
20
-77.8132
11
165.651
21
-77.9477
0
LINE
8
BLACK
6
CONTINUOUS
10
165.651
20
-77.9477
11
165.468
21
-78.0506
0
LINE
8
BLACK
6
CONTINUOUS
10
165.468
20
-78.0506
11
165.268
21
-78.1182
0
LINE
8
BLACK
6
CONTINUOUS
10
165.268
20
-78.1182
11
165.06
21
-78.1484
0
LINE
8
BLACK
6
CONTINUOUS
10
165.06
20
-78.1484
11
164.85
21
-78.1402
0
LINE
8
BLACK
6
CONTINUOUS
10
164.85
20
-78.1402
11
164.645
21
-78.0937
0
LINE
8
BLACK
6
CONTINUOUS
10
164.645
20
-78.0937
11
164.451
21
-78.0106
0
LINE
8
BLACK
6
CONTINUOUS
10
164.451
20
-78.0106
11
164.276
21
-77.8937
0
LINE
8
BLACK
6
CONTINUOUS
10
164.276
20
-77.8937
11
164.126
21
-77.7469
0
LINE
8
BLACK
6
CONTINUOUS
10
164.126
20
-77.7469
11
164.004
21
-77.575
0
LINE
8
BLACK
6
CONTINUOUS
10
164.004
20
-77.575
11
163.916
21
-77.3839
0
LINE
8
BLACK
6
CONTINUOUS
10
163.916
20
-77.3839
11
163.864
21
-77.1799
0
LINE
8
BLACK
6
CONTINUOUS
10
163.864
20
-77.1799
11
163.85
21
-76.9699
0
LINE
8
BLACK
6
CONTINUOUS
10
163.85
20
-76.9699
11
163.875
21
-76.7609
0
LINE
8
BLACK
6
CONTINUOUS
10
163.875
20
-76.7609
11
163.938
21
-76.5599
0
LINE
8
BLACK
6
CONTINUOUS
10
163.938
20
-76.5599
11
164.036
21
-76.3737
0
LINE
8
BLACK
6
CONTINUOUS
10
164.036
20
-76.3737
11
164.166
21
-76.2084
0
LINE
8
BLACK
6
CONTINUOUS
10
164.166
20
-76.2084
11
164.324
21
-76.0696
0
LINE
8
BLACK
6
CONTINUOUS
10
164.324
20
-76.0696
11
164.505
21
-75.962
0
LINE
8
BLACK
6
CONTINUOUS
10
164.505
20
-75.962
11
164.702
21
-75.8892
0
LINE
8
BLACK
6
CONTINUOUS
10
164.702
20
-75.8892
11
164.91
21
-75.8535
0
LINE
8
BLACK
6
CONTINUOUS
10
164.91
20
-75.8535
11
165.12
21
-75.8563
0
LINE
8
BLACK
6
CONTINUOUS
10
107.62
20
-73.3563
11
107.827
21
-73.3974
0
LINE
8
BLACK
6
CONTINUOUS
10
107.827
20
-73.3974
11
108.022
21
-73.4753
0
LINE
8
BLACK
6
CONTINUOUS
10
108.022
20
-73.4753
11
108.2
21
-73.5876
0
LINE
8
BLACK
6
CONTINUOUS
10
108.2
20
-73.5876
11
108.355
21
-73.7305
0
LINE
8
BLACK
6
CONTINUOUS
10
108.355
20
-73.7305
11
108.481
21
-73.8991
0
LINE
8
BLACK
6
CONTINUOUS
10
108.481
20
-73.8991
11
108.574
21
-74.0879
0
LINE
8
BLACK
6
CONTINUOUS
10
108.574
20
-74.0879
11
108.631
21
-74.2904
0
LINE
8
BLACK
6
CONTINUOUS
10
108.631
20
-74.2904
11
108.65
21
-74.5
0
LINE
8
BLACK
6
CONTINUOUS
10
108.65
20
-74.5
11
108.648
21
-74.5602
0
LINE
8
BLACK
6
CONTINUOUS
10
108.648
20
-74.5602
11
108.618
21
-74.7685
0
LINE
8
BLACK
6
CONTINUOUS
10
108.618
20
-74.7685
11
108.551
21
-74.9677
0
LINE
8
BLACK
6
CONTINUOUS
10
108.551
20
-74.9677
11
108.448
21
-75.1514
0
LINE
8
BLACK
6
CONTINUOUS
10
108.448
20
-75.1514
11
108.313
21
-75.3132
0
LINE
8
BLACK
6
CONTINUOUS
10
108.313
20
-75.3132
11
108.151
21
-75.4477
0
LINE
8
BLACK
6
CONTINUOUS
10
108.151
20
-75.4477
11
107.968
21
-75.5506
0
LINE
8
BLACK
6
CONTINUOUS
10
107.968
20
-75.5506
11
107.768
21
-75.6182
0
LINE
8
BLACK
6
CONTINUOUS
10
107.768
20
-75.6182
11
107.56
21
-75.6484
0
LINE
8
BLACK
6
CONTINUOUS
10
107.56
20
-75.6484
11
107.35
21
-75.6402
0
LINE
8
BLACK
6
CONTINUOUS
10
107.35
20
-75.6402
11
107.145
21
-75.5937
0
LINE
8
BLACK
6
CONTINUOUS
10
107.145
20
-75.5937
11
106.951
21
-75.5106
0
LINE
8
BLACK
6
CONTINUOUS
10
106.951
20
-75.5106
11
106.776
21
-75.3937
0
LINE
8
BLACK
6
CONTINUOUS
10
106.776
20
-75.3937
11
106.626
21
-75.2469
0
LINE
8
BLACK
6
CONTINUOUS
10
106.626
20
-75.2469
11
106.504
21
-75.075
0
LINE
8
BLACK
6
CONTINUOUS
10
106.504
20
-75.075
11
106.416
21
-74.8839
0
LINE
8
BLACK
6
CONTINUOUS
10
106.416
20
-74.8839
11
106.364
21
-74.6799
0
LINE
8
BLACK
6
CONTINUOUS
10
106.364
20
-74.6799
11
106.35
21
-74.4699
0
LINE
8
BLACK
6
CONTINUOUS
10
106.35
20
-74.4699
11
106.375
21
-74.2609
0
LINE
8
BLACK
6
CONTINUOUS
10
106.375
20
-74.2609
11
106.438
21
-74.0599
0
LINE
8
BLACK
6
CONTINUOUS
10
106.438
20
-74.0599
11
106.536
21
-73.8737
0
LINE
8
BLACK
6
CONTINUOUS
10
106.536
20
-73.8737
11
106.666
21
-73.7084
0
LINE
8
BLACK
6
CONTINUOUS
10
106.666
20
-73.7084
11
106.824
21
-73.5696
0
LINE
8
BLACK
6
CONTINUOUS
10
106.824
20
-73.5696
11
107.005
21
-73.462
0
LINE
8
BLACK
6
CONTINUOUS
10
107.005
20
-73.462
11
107.202
21
-73.3892
0
LINE
8
BLACK
6
CONTINUOUS
10
107.202
20
-73.3892
11
107.41
21
-73.3535
0
LINE
8
BLACK
6
CONTINUOUS
10
107.41
20
-73.3535
11
107.62
21
-73.3563
0
LINE
8
BLACK
6
CONTINUOUS
10
74.7937
20
-65.2692
11
75.0823
21
-65.3267
0
LINE
8
BLACK
6
CONTINUOUS
10
75.0823
20
-65.3267
11
75.361
21
-65.4213
0
LINE
8
BLACK
6
CONTINUOUS
10
75.361
20
-65.4213
11
75.625
21
-65.5514
0
LINE
8
BLACK
6
CONTINUOUS
10
75.625
20
-65.5514
11
75.8697
21
-65.715
0
LINE
8
BLACK
6
CONTINUOUS
10
75.8697
20
-65.715
11
76.091
21
-65.909
0
LINE
8
BLACK
6
CONTINUOUS
10
76.091
20
-65.909
11
76.285
21
-66.1303
0
LINE
8
BLACK
6
CONTINUOUS
10
76.285
20
-66.1303
11
76.4486
21
-66.375
0
LINE
8
BLACK
6
CONTINUOUS
10
76.4486
20
-66.375
11
76.5787
21
-66.639
0
LINE
8
BLACK
6
CONTINUOUS
10
76.5787
20
-66.639
11
76.6733
21
-66.9177
0
LINE
8
BLACK
6
CONTINUOUS
10
76.6733
20
-66.9177
11
76.7308
21
-67.2063
0
LINE
8
BLACK
6
CONTINUOUS
10
76.7308
20
-67.2063
11
76.75
21
-67.5
0
LINE
8
BLACK
6
CONTINUOUS
10
76.75
20
-67.5
11
76.7308
21
-67.7937
0
LINE
8
BLACK
6
CONTINUOUS
10
76.7308
20
-67.7937
11
76.6733
21
-68.0823
0
LINE
8
BLACK
6
CONTINUOUS
10
76.6733
20
-68.0823
11
76.5787
21
-68.361
0
LINE
8
BLACK
6
CONTINUOUS
10
76.5787
20
-68.361
11
76.4486
21
-68.625
0
LINE
8
BLACK
6
CONTINUOUS
10
76.4486
20
-68.625
11
76.285
21
-68.8697
0
LINE
8
BLACK
6
CONTINUOUS
10
76.285
20
-68.8697
11
76.091
21
-69.091
0
LINE
8
BLACK
6
CONTINUOUS
10
76.091
20
-69.091
11
75.8697
21
-69.285
0
LINE
8
BLACK
6
CONTINUOUS
10
75.8697
20
-69.285
11
75.625
21
-69.4486
0
LINE
8
BLACK
6
CONTINUOUS
10
75.625
20
-69.4486
11
75.361
21
-69.5787
0
LINE
8
BLACK
6
CONTINUOUS
10
75.361
20
-69.5787
11
75.0823
21
-69.6733
0
LINE
8
BLACK
6
CONTINUOUS
10
75.0823
20
-69.6733
11
74.7937
21
-69.7308
0
LINE
8
BLACK
6
CONTINUOUS
10
74.7937
20
-69.7308
11
74.5
21
-69.75
0
LINE
8
BLACK
6
CONTINUOUS
10
74.5
20
-69.75
11
74.2063
21
-69.7308
0
LINE
8
BLACK
6
CONTINUOUS
10
74.2063
20
-69.7308
11
73.9177
21
-69.6733
0
LINE
8
BLACK
6
CONTINUOUS
10
73.9177
20
-69.6733
11
73.639
21
-69.5787
0
LINE
8
BLACK
6
CONTINUOUS
10
73.639
20
-69.5787
11
73.375
21
-69.4486
0
LINE
8
BLACK
6
CONTINUOUS
10
73.375
20
-69.4486
11
73.1303
21
-69.285
0
LINE
8
BLACK
6
CONTINUOUS
10
73.1303
20
-69.285
11
72.909
21
-69.091
0
LINE
8
BLACK
6
CONTINUOUS
10
72.909
20
-69.091
11
72.715
21
-68.8697
0
LINE
8
BLACK
6
CONTINUOUS
10
72.715
20
-68.8697
11
72.5514
21
-68.625
0
LINE
8
BLACK
6
CONTINUOUS
10
72.5514
20
-68.625
11
72.4213
21
-68.361
0
LINE
8
BLACK
6
CONTINUOUS
10
72.4213
20
-68.361
11
72.3267
21
-68.0823
0
LINE
8
BLACK
6
CONTINUOUS
10
72.3267
20
-68.0823
11
72.2692
21
-67.7937
0
LINE
8
BLACK
6
CONTINUOUS
10
72.2692
20
-67.7937
11
72.25
21
-67.5
0
LINE
8
BLACK
6
CONTINUOUS
10
72.25
20
-67.5
11
72.2692
21
-67.2063
0
LINE
8
BLACK
6
CONTINUOUS
10
72.2692
20
-67.2063
11
72.3267
21
-66.9177
0
LINE
8
BLACK
6
CONTINUOUS
10
72.3267
20
-66.9177
11
72.4213
21
-66.639
0
LINE
8
BLACK
6
CONTINUOUS
10
72.4213
20
-66.639
11
72.5514
21
-66.375
0
LINE
8
BLACK
6
CONTINUOUS
10
72.5514
20
-66.375
11
72.715
21
-66.1303
0
LINE
8
BLACK
6
CONTINUOUS
10
72.715
20
-66.1303
11
72.909
21
-65.909
0
LINE
8
BLACK
6
CONTINUOUS
10
72.909
20
-65.909
11
73.1303
21
-65.715
0
LINE
8
BLACK
6
CONTINUOUS
10
73.1303
20
-65.715
11
73.375
21
-65.5514
0
LINE
8
BLACK
6
CONTINUOUS
10
73.375
20
-65.5514
11
73.639
21
-65.4213
0
LINE
8
BLACK
6
CONTINUOUS
10
73.639
20
-65.4213
11
73.9177
21
-65.3267
0
LINE
8
BLACK
6
CONTINUOUS
10
73.9177
20
-65.3267
11
74.2063
21
-65.2692
0
LINE
8
BLACK
6
CONTINUOUS
10
74.2063
20
-65.2692
11
74.5
21
-65.25
0
LINE
8
BLACK
6
CONTINUOUS
10
74.5
20
-65.25
11
74.7937
21
-65.2692
0
LINE
8
BLACK
6
CONTINUOUS
10
210.794
20
-61.7692
11
211.082
21
-61.8267
0
LINE
8
BLACK
6
CONTINUOUS
10
211.082
20
-61.8267
11
211.361
21
-61.9213
0
LINE
8
BLACK
6
CONTINUOUS
10
211.361
20
-61.9213
11
211.625
21
-62.0514
0
LINE
8
BLACK
6
CONTINUOUS
10
211.625
20
-62.0514
11
211.87
21
-62.215
0
LINE
8
BLACK
6
CONTINUOUS
10
211.87
20
-62.215
11
212.091
21
-62.409
0
LINE
8
BLACK
6
CONTINUOUS
10
212.091
20
-62.409
11
212.285
21
-62.6303
0
LINE
8
BLACK
6
CONTINUOUS
10
212.285
20
-62.6303
11
212.449
21
-62.875
0
LINE
8
BLACK
6
CONTINUOUS
10
212.449
20
-62.875
11
212.579
21
-63.139
0
LINE
8
BLACK
6
CONTINUOUS
10
212.579
20
-63.139
11
212.673
21
-63.4177
0
LINE
8
BLACK
6
CONTINUOUS
10
212.673
20
-63.4177
11
212.731
21
-63.7063
0
LINE
8
BLACK
6
CONTINUOUS
10
212.731
20
-63.7063
11
212.75
21
-64
0
LINE
8
BLACK
6
CONTINUOUS
10
212.75
20
-64
11
212.731
21
-64.2937
0
LINE
8
BLACK
6
CONTINUOUS
10
212.731
20
-64.2937
11
212.673
21
-64.5823
0
LINE
8
BLACK
6
CONTINUOUS
10
212.673
20
-64.5823
11
212.579
21
-64.861
0
LINE
8
BLACK
6
CONTINUOUS
10
212.579
20
-64.861
11
212.449
21
-65.125
0
LINE
8
BLACK
6
CONTINUOUS
10
212.449
20
-65.125
11
212.285
21
-65.3697
0
LINE
8
BLACK
6
CONTINUOUS
10
212.285
20
-65.3697
11
212.091
21
-65.591
0
LINE
8
BLACK
6
CONTINUOUS
10
212.091
20
-65.591
11
211.87
21
-65.785
0
LINE
8
BLACK
6
CONTINUOUS
10
211.87
20
-65.785
11
211.625
21
-65.9486
0
LINE
8
BLACK
6
CONTINUOUS
10
211.625
20
-65.9486
11
211.361
21
-66.0787
0
LINE
8
BLACK
6
CONTINUOUS
10
211.361
20
-66.0787
11
211.082
21
-66.1733
0
LINE
8
BLACK
6
CONTINUOUS
10
211.082
20
-66.1733
11
210.794
21
-66.2308
0
LINE
8
BLACK
6
CONTINUOUS
10
210.794
20
-66.2308
11
210.5
21
-66.25
0
LINE
8
BLACK
6
CONTINUOUS
10
210.5
20
-66.25
11
210.206
21
-66.2308
0
LINE
8
BLACK
6
CONTINUOUS
10
210.206
20
-66.2308
11
209.918
21
-66.1733
0
LINE
8
BLACK
6
CONTINUOUS
10
209.918
20
-66.1733
11
209.639
21
-66.0787
0
LINE
8
BLACK
6
CONTINUOUS
10
209.639
20
-66.0787
11
209.375
21
-65.9486
0
LINE
8
BLACK
6
CONTINUOUS
10
209.375
20
-65.9486
11
209.13
21
-65.785
0
LINE
8
BLACK
6
CONTINUOUS
10
209.13
20
-65.785
11
208.909
21
-65.591
0
LINE
8
BLACK
6
CONTINUOUS
10
208.909
20
-65.591
11
208.715
21
-65.3697
0
LINE
8
BLACK
6
CONTINUOUS
10
208.715
20
-65.3697
11
208.551
21
-65.125
0
LINE
8
BLACK
6
CONTINUOUS
10
208.551
20
-65.125
11
208.421
21
-64.861
0
LINE
8
BLACK
6
CONTINUOUS
10
208.421
20
-64.861
11
208.327
21
-64.5823
0
LINE
8
BLACK
6
CONTINUOUS
10
208.327
20
-64.5823
11
208.269
21
-64.2937
0
LINE
8
BLACK
6
CONTINUOUS
10
208.269
20
-64.2937
11
208.25
21
-64
0
LINE
8
BLACK
6
CONTINUOUS
10
208.25
20
-64
11
208.269
21
-63.7063
0
LINE
8
BLACK
6
CONTINUOUS
10
208.269
20
-63.7063
11
208.327
21
-63.4177
0
LINE
8
BLACK
6
CONTINUOUS
10
208.327
20
-63.4177
11
208.421
21
-63.139
0
LINE
8
BLACK
6
CONTINUOUS
10
208.421
20
-63.139
11
208.551
21
-62.875
0
LINE
8
BLACK
6
CONTINUOUS
10
208.551
20
-62.875
11
208.715
21
-62.6303
0
LINE
8
BLACK
6
CONTINUOUS
10
208.715
20
-62.6303
11
208.909
21
-62.409
0
LINE
8
BLACK
6
CONTINUOUS
10
208.909
20
-62.409
11
209.13
21
-62.215
0
LINE
8
BLACK
6
CONTINUOUS
10
209.13
20
-62.215
11
209.375
21
-62.0514
0
LINE
8
BLACK
6
CONTINUOUS
10
209.375
20
-62.0514
11
209.639
21
-61.9213
0
LINE
8
BLACK
6
CONTINUOUS
10
209.639
20
-61.9213
11
209.918
21
-61.8267
0
LINE
8
BLACK
6
CONTINUOUS
10
209.918
20
-61.8267
11
210.206
21
-61.7692
0
LINE
8
BLACK
6
CONTINUOUS
10
210.206
20
-61.7692
11
210.5
21
-61.75
0
LINE
8
BLACK
6
CONTINUOUS
10
210.5
20
-61.75
11
210.794
21
-61.7692
0
LINE
8
BLACK
6
CONTINUOUS
10
162.937
20
-55.0128
11
163.144
21
-55.0901
0
LINE
8
BLACK
6
CONTINUOUS
10
163.144
20
-55.0901
11
163.338
21
-55.1961
0
LINE
8
BLACK
6
CONTINUOUS
10
163.338
20
-55.1961
11
163.515
21
-55.3286
0
LINE
8
BLACK
6
CONTINUOUS
10
163.515
20
-55.3286
11
163.671
21
-55.485
0
LINE
8
BLACK
6
CONTINUOUS
10
163.671
20
-55.485
11
163.804
21
-55.662
0
LINE
8
BLACK
6
CONTINUOUS
10
163.804
20
-55.662
11
163.91
21
-55.8561
0
LINE
8
BLACK
6
CONTINUOUS
10
163.91
20
-55.8561
11
163.987
21
-56.0633
0
LINE
8
BLACK
6
CONTINUOUS
10
163.987
20
-56.0633
11
164.034
21
-56.2794
0
LINE
8
BLACK
6
CONTINUOUS
10
164.034
20
-56.2794
11
164.05
21
-56.5
0
LINE
8
BLACK
6
CONTINUOUS
10
164.05
20
-56.5
11
164.046
21
-56.5091
0
LINE
8
BLACK
6
CONTINUOUS
10
164.046
20
-56.5091
11
164.063
21
-56.7275
0
LINE
8
BLACK
6
CONTINUOUS
10
164.063
20
-56.7275
11
164.117
21
-56.9495
0
LINE
8
BLACK
6
CONTINUOUS
10
164.117
20
-56.9495
11
164.204
21
-57.1603
0
LINE
8
BLACK
6
CONTINUOUS
10
164.204
20
-57.1603
11
164.323
21
-57.3549
0
LINE
8
BLACK
6
CONTINUOUS
10
164.323
20
-57.3549
11
164.472
21
-57.5285
0
LINE
8
BLACK
6
CONTINUOUS
10
164.472
20
-57.5285
11
164.645
21
-57.6767
0
LINE
8
BLACK
6
CONTINUOUS
10
164.645
20
-57.6767
11
164.84
21
-57.796
0
LINE
8
BLACK
6
CONTINUOUS
10
164.84
20
-57.796
11
165.051
21
-57.8833
0
LINE
8
BLACK
6
CONTINUOUS
10
165.051
20
-57.8833
11
165.272
21
-57.9366
0
LINE
8
BLACK
6
CONTINUOUS
10
165.272
20
-57.9366
11
165.491
21
-57.9538
0
LINE
8
BLACK
6
CONTINUOUS
10
165.491
20
-57.9538
11
165.5
21
-57.95
0
LINE
8
BLACK
6
CONTINUOUS
10
165.5
20
-57.95
11
210.5
21
-57.95
0
LINE
8
BLACK
6
CONTINUOUS
10
210.5
20
-57.95
11
210.975
21
-57.9686
0
LINE
8
BLACK
6
CONTINUOUS
10
210.975
20
-57.9686
11
211.446
21
-58.0245
0
LINE
8
BLACK
6
CONTINUOUS
10
211.446
20
-58.0245
11
211.912
21
-58.1172
0
LINE
8
BLACK
6
CONTINUOUS
10
211.912
20
-58.1172
11
212.37
21
-58.2461
0
LINE
8
BLACK
6
CONTINUOUS
10
212.37
20
-58.2461
11
212.815
21
-58.4105
0
LINE
8
BLACK
6
CONTINUOUS
10
212.815
20
-58.4105
11
213.247
21
-58.6094
0
LINE
8
BLACK
6
CONTINUOUS
10
213.247
20
-58.6094
11
213.661
21
-58.8415
0
LINE
8
BLACK
6
CONTINUOUS
10
213.661
20
-58.8415
11
214.056
21
-59.1054
0
LINE
8
BLACK
6
CONTINUOUS
10
214.056
20
-59.1054
11
214.429
21
-59.3995
0
LINE
8
BLACK
6
CONTINUOUS
10
214.429
20
-59.3995
11
214.778
21
-59.722
0
LINE
8
BLACK
6
CONTINUOUS
10
214.778
20
-59.722
11
215.1
21
-60.0708
0
LINE
8
BLACK
6
CONTINUOUS
10
215.1
20
-60.0708
11
215.395
21
-60.4439
0
LINE
8
BLACK
6
CONTINUOUS
10
215.395
20
-60.4439
11
215.658
21
-60.8389
0
LINE
8
BLACK
6
CONTINUOUS
10
215.658
20
-60.8389
11
215.891
21
-61.2534
0
LINE
8
BLACK
6
CONTINUOUS
10
215.891
20
-61.2534
11
216.089
21
-61.6848
0
LINE
8
BLACK
6
CONTINUOUS
10
216.089
20
-61.6848
11
216.254
21
-62.1304
0
LINE
8
BLACK
6
CONTINUOUS
10
216.254
20
-62.1304
11
216.383
21
-62.5877
0
LINE
8
BLACK
6
CONTINUOUS
10
216.383
20
-62.5877
11
216.476
21
-63.0536
0
LINE
8
BLACK
6
CONTINUOUS
10
216.476
20
-63.0536
11
216.531
21
-63.5253
0
LINE
8
BLACK
6
CONTINUOUS
10
216.531
20
-63.5253
11
216.55
21
-64
0
LINE
8
BLACK
6
CONTINUOUS
10
216.55
20
-64
11
216.531
21
-64.4747
0
LINE
8
BLACK
6
CONTINUOUS
10
216.531
20
-64.4747
11
216.476
21
-64.9464
0
LINE
8
BLACK
6
CONTINUOUS
10
216.476
20
-64.9464
11
216.383
21
-65.4123
0
LINE
8
BLACK
6
CONTINUOUS
10
216.383
20
-65.4123
11
216.254
21
-65.8696
0
LINE
8
BLACK
6
CONTINUOUS
10
216.254
20
-65.8696
11
216.089
21
-66.3152
0
LINE
8
BLACK
6
CONTINUOUS
10
216.089
20
-66.3152
11
215.891
21
-66.7466
0
LINE
8
BLACK
6
CONTINUOUS
10
215.891
20
-66.7466
11
215.658
21
-67.1611
0
LINE
8
BLACK
6
CONTINUOUS
10
215.658
20
-67.1611
11
215.395
21
-67.5561
0
LINE
8
BLACK
6
CONTINUOUS
10
215.395
20
-67.5561
11
215.1
21
-67.9292
0
LINE
8
BLACK
6
CONTINUOUS
10
215.1
20
-67.9292
11
214.778
21
-68.278
0
LINE
8
BLACK
6
CONTINUOUS
10
214.778
20
-68.278
11
214.429
21
-68.6005
0
LINE
8
BLACK
6
CONTINUOUS
10
214.429
20
-68.6005
11
214.056
21
-68.8946
0
LINE
8
BLACK
6
CONTINUOUS
10
214.056
20
-68.8946
11
213.661
21
-69.1585
0
LINE
8
BLACK
6
CONTINUOUS
10
213.661
20
-69.1585
11
213.247
21
-69.3906
0
LINE
8
BLACK
6
CONTINUOUS
10
213.247
20
-69.3906
11
212.815
21
-69.5895
0
LINE
8
BLACK
6
CONTINUOUS
10
212.815
20
-69.5895
11
212.37
21
-69.7539
0
LINE
8
BLACK
6
CONTINUOUS
10
212.37
20
-69.7539
11
211.912
21
-69.8828
0
LINE
8
BLACK
6
CONTINUOUS
10
211.912
20
-69.8828
11
211.446
21
-69.9755
0
LINE
8
BLACK
6
CONTINUOUS
10
211.446
20
-69.9755
11
210.975
21
-70.0314
0
LINE
8
BLACK
6
CONTINUOUS
10
210.975
20
-70.0314
11
210.5
21
-70.05
0
LINE
8
BLACK
6
CONTINUOUS
10
210.5
20
-70.05
11
205
21
-70.05
0
LINE
8
BLACK
6
CONTINUOUS
10
205
20
-70.05
11
204.991
21
-70.0462
0
LINE
8
BLACK
6
CONTINUOUS
10
204.991
20
-70.0462
11
204.772
21
-70.0634
0
LINE
8
BLACK
6
CONTINUOUS
10
204.772
20
-70.0634
11
204.551
21
-70.1167
0
LINE
8
BLACK
6
CONTINUOUS
10
204.551
20
-70.1167
11
204.34
21
-70.204
0
LINE
8
BLACK
6
CONTINUOUS
10
204.34
20
-70.204
11
204.145
21
-70.3233
0
LINE
8
BLACK
6
CONTINUOUS
10
204.145
20
-70.3233
11
203.972
21
-70.4715
0
LINE
8
BLACK
6
CONTINUOUS
10
203.972
20
-70.4715
11
203.823
21
-70.6451
0
LINE
8
BLACK
6
CONTINUOUS
10
203.823
20
-70.6451
11
203.704
21
-70.8397
0
LINE
8
BLACK
6
CONTINUOUS
10
203.704
20
-70.8397
11
203.617
21
-71.0505
0
LINE
8
BLACK
6
CONTINUOUS
10
203.617
20
-71.0505
11
203.563
21
-71.2725
0
LINE
8
BLACK
6
CONTINUOUS
10
203.563
20
-71.2725
11
203.546
21
-71.4909
0
LINE
8
BLACK
6
CONTINUOUS
10
203.546
20
-71.4909
11
203.55
21
-71.5
0
LINE
8
BLACK
6
CONTINUOUS
10
203.55
20
-71.5
11
203.55
21
-121.5
0
LINE
8
BLACK
6
CONTINUOUS
10
203.55
20
-121.5
11
203.545
21
-121.512
0
LINE
8
BLACK
6
CONTINUOUS
10
203.545
20
-121.512
11
203.543
21
-121.525
0
LINE
8
BLACK
6
CONTINUOUS
10
203.543
20
-121.525
11
196.184
21
-134.22
0
LINE
8
BLACK
6
CONTINUOUS
10
196.184
20
-134.22
11
196.177
21
-134.225
0
LINE
8
BLACK
6
CONTINUOUS
10
196.177
20
-134.225
11
196.07
21
-134.477
0
LINE
8
BLACK
6
CONTINUOUS
10
196.07
20
-134.477
11
195.992
21
-134.751
0
LINE
8
BLACK
6
CONTINUOUS
10
195.992
20
-134.751
11
195.947
21
-135.031
0
LINE
8
BLACK
6
CONTINUOUS
10
195.947
20
-135.031
11
195.938
21
-135.315
0
LINE
8
BLACK
6
CONTINUOUS
10
195.938
20
-135.315
11
195.964
21
-135.599
0
LINE
8
BLACK
6
CONTINUOUS
10
195.964
20
-135.599
11
196.024
21
-135.876
0
LINE
8
BLACK
6
CONTINUOUS
10
196.024
20
-135.876
11
196.117
21
-136.145
0
LINE
8
BLACK
6
CONTINUOUS
10
196.117
20
-136.145
11
196.243
21
-136.4
0
LINE
8
BLACK
6
CONTINUOUS
10
196.243
20
-136.4
11
196.399
21
-136.637
0
LINE
8
BLACK
6
CONTINUOUS
10
196.399
20
-136.637
11
196.583
21
-136.854
0
LINE
8
BLACK
6
CONTINUOUS
10
196.583
20
-136.854
11
196.793
21
-137.046
0
LINE
8
BLACK
6
CONTINUOUS
10
196.793
20
-137.046
11
197.015
21
-137.205
0
LINE
8
BLACK
6
CONTINUOUS
10
197.015
20
-137.205
11
197.022
21
-137.205
0
LINE
8
BLACK
6
CONTINUOUS
10
197.022
20
-137.205
11
200.522
21
-138.955
0
LINE
8
BLACK
6
CONTINUOUS
10
200.522
20
-138.955
11
200.522
21
-138.955
0
LINE
8
BLACK
6
CONTINUOUS
10
200.522
20
-138.955
11
200.949
21
-139.19
0
LINE
8
BLACK
6
CONTINUOUS
10
200.949
20
-139.19
11
201.356
21
-139.457
0
LINE
8
BLACK
6
CONTINUOUS
10
201.356
20
-139.457
11
201.74
21
-139.756
0
LINE
8
BLACK
6
CONTINUOUS
10
201.74
20
-139.756
11
202.1
21
-140.083
0
LINE
8
BLACK
6
CONTINUOUS
10
202.1
20
-140.083
11
202.433
21
-140.438
0
LINE
8
BLACK
6
CONTINUOUS
10
202.433
20
-140.438
11
202.737
21
-140.818
0
LINE
8
BLACK
6
CONTINUOUS
10
202.737
20
-140.818
11
203.011
21
-141.221
0
LINE
8
BLACK
6
CONTINUOUS
10
203.011
20
-141.221
11
203.252
21
-141.644
0
LINE
8
BLACK
6
CONTINUOUS
10
203.252
20
-141.644
11
203.459
21
-142.084
0
LINE
8
BLACK
6
CONTINUOUS
10
203.459
20
-142.084
11
203.631
21
-142.54
0
LINE
8
BLACK
6
CONTINUOUS
10
203.631
20
-142.54
11
203.767
21
-143.007
0
LINE
8
BLACK
6
CONTINUOUS
10
203.767
20
-143.007
11
203.865
21
-143.484
0
LINE
8
BLACK
6
CONTINUOUS
10
203.865
20
-143.484
11
203.926
21
-143.967
0
LINE
8
BLACK
6
CONTINUOUS
10
203.926
20
-143.967
11
203.949
21
-144.453
0
LINE
8
BLACK
6
CONTINUOUS
10
203.949
20
-144.453
11
203.934
21
-144.939
0
LINE
8
BLACK
6
CONTINUOUS
10
203.934
20
-144.939
11
203.88
21
-145.423
0
LINE
8
BLACK
6
CONTINUOUS
10
203.88
20
-145.423
11
203.789
21
-145.901
0
LINE
8
BLACK
6
CONTINUOUS
10
203.789
20
-145.901
11
203.66
21
-146.371
0
LINE
8
BLACK
6
CONTINUOUS
10
203.66
20
-146.371
11
203.495
21
-146.829
0
LINE
8
BLACK
6
CONTINUOUS
10
203.495
20
-146.829
11
203.295
21
-147.272
0
LINE
8
BLACK
6
CONTINUOUS
10
203.295
20
-147.272
11
203.06
21
-147.699
0
LINE
8
BLACK
6
CONTINUOUS
10
203.06
20
-147.699
11
202.793
21
-148.106
0
LINE
8
BLACK
6
CONTINUOUS
10
202.793
20
-148.106
11
202.494
21
-148.49
0
LINE
8
BLACK
6
CONTINUOUS
10
202.494
20
-148.49
11
202.167
21
-148.85
0
LINE
8
BLACK
6
CONTINUOUS
10
202.167
20
-148.85
11
201.812
21
-149.183
0
LINE
8
BLACK
6
CONTINUOUS
10
201.812
20
-149.183
11
201.432
21
-149.487
0
LINE
8
BLACK
6
CONTINUOUS
10
201.432
20
-149.487
11
201.029
21
-149.761
0
LINE
8
BLACK
6
CONTINUOUS
10
201.029
20
-149.761
11
200.606
21
-150.002
0
LINE
8
BLACK
6
CONTINUOUS
10
200.606
20
-150.002
11
200.166
21
-150.209
0
LINE
8
BLACK
6
CONTINUOUS
10
200.166
20
-150.209
11
199.71
21
-150.381
0
LINE
8
BLACK
6
CONTINUOUS
10
199.71
20
-150.381
11
199.243
21
-150.517
0
LINE
8
BLACK
6
CONTINUOUS
10
199.243
20
-150.517
11
198.766
21
-150.615
0
LINE
8
BLACK
6
CONTINUOUS
10
198.766
20
-150.615
11
198.283
21
-150.676
0
LINE
8
BLACK
6
CONTINUOUS
10
198.283
20
-150.676
11
197.797
21
-150.699
0
LINE
8
BLACK
6
CONTINUOUS
10
197.797
20
-150.699
11
197.311
21
-150.684
0
LINE
8
BLACK
6
CONTINUOUS
10
197.311
20
-150.684
11
196.827
21
-150.63
0
LINE
8
BLACK
6
CONTINUOUS
10
196.827
20
-150.63
11
196.349
21
-150.539
0
LINE
8
BLACK
6
CONTINUOUS
10
196.349
20
-150.539
11
195.879
21
-150.41
0
LINE
8
BLACK
6
CONTINUOUS
10
195.879
20
-150.41
11
195.421
21
-150.245
0
LINE
8
BLACK
6
CONTINUOUS
10
195.421
20
-150.245
11
194.978
21
-150.045
0
LINE
8
BLACK
6
CONTINUOUS
10
194.978
20
-150.045
11
194.977
21
-150.044
0
LINE
8
BLACK
6
CONTINUOUS
10
194.977
20
-150.044
11
194.976
21
-150.044
0
LINE
8
BLACK
6
CONTINUOUS
10
194.976
20
-150.044
11
172.481
21
-137.547
0
LINE
8
BLACK
6
CONTINUOUS
10
172.481
20
-137.547
11
153.993
21
-132.55
0
LINE
8
BLACK
6
CONTINUOUS
10
153.993
20
-132.55
11
135
21
-132.55
0
LINE
8
BLACK
6
CONTINUOUS
10
135
20
-132.55
11
134.991
21
-132.546
0
LINE
8
BLACK
6
CONTINUOUS
10
134.991
20
-132.546
11
134.98
21
-132.546
0
LINE
8
BLACK
6
CONTINUOUS
10
134.98
20
-132.546
11
106.99
21
-120.55
0
LINE
8
BLACK
6
CONTINUOUS
10
106.99
20
-120.55
11
89.5
21
-120.55
0
LINE
8
BLACK
6
CONTINUOUS
10
89.5
20
-120.55
11
89.2794
21
-120.534
0
LINE
8
BLACK
6
CONTINUOUS
10
89.2794
20
-120.534
11
89.0633
21
-120.487
0
LINE
8
BLACK
6
CONTINUOUS
10
89.0633
20
-120.487
11
88.8561
21
-120.41
0
LINE
8
BLACK
6
CONTINUOUS
10
88.8561
20
-120.41
11
88.662
21
-120.304
0
LINE
8
BLACK
6
CONTINUOUS
10
88.662
20
-120.304
11
88.485
21
-120.171
0
LINE
8
BLACK
6
CONTINUOUS
10
88.485
20
-120.171
11
88.3286
21
-120.015
0
LINE
8
BLACK
6
CONTINUOUS
10
88.3286
20
-120.015
11
88.1961
21
-119.838
0
LINE
8
BLACK
6
CONTINUOUS
10
88.1961
20
-119.838
11
88.0901
21
-119.644
0
LINE
8
BLACK
6
CONTINUOUS
10
88.0901
20
-119.644
11
88.0128
21
-119.437
0
LINE
8
BLACK
6
CONTINUOUS
10
88.0128
20
-119.437
11
87.9658
21
-119.221
0
LINE
8
BLACK
6
CONTINUOUS
10
87.9658
20
-119.221
11
87.95
21
-119
0
LINE
8
BLACK
6
CONTINUOUS
10
87.95
20
-119
11
87.95
21
-114
0
LINE
8
BLACK
6
CONTINUOUS
10
87.95
20
-114
11
87.9538
21
-113.991
0
LINE
8
BLACK
6
CONTINUOUS
10
87.9538
20
-113.991
11
87.9366
21
-113.772
0
LINE
8
BLACK
6
CONTINUOUS
10
87.9366
20
-113.772
11
87.8833
21
-113.551
0
LINE
8
BLACK
6
CONTINUOUS
10
87.8833
20
-113.551
11
87.796
21
-113.34
0
LINE
8
BLACK
6
CONTINUOUS
10
87.796
20
-113.34
11
87.6767
21
-113.145
0
LINE
8
BLACK
6
CONTINUOUS
10
87.6767
20
-113.145
11
87.5285
21
-112.972
0
LINE
8
BLACK
6
CONTINUOUS
10
87.5285
20
-112.972
11
87.3549
21
-112.823
0
LINE
8
BLACK
6
CONTINUOUS
10
87.3549
20
-112.823
11
87.1603
21
-112.704
0
LINE
8
BLACK
6
CONTINUOUS
10
87.1603
20
-112.704
11
86.9495
21
-112.617
0
LINE
8
BLACK
6
CONTINUOUS
10
86.9495
20
-112.617
11
86.7275
21
-112.563
0
LINE
8
BLACK
6
CONTINUOUS
10
86.7275
20
-112.563
11
86.5091
21
-112.546
0
LINE
8
BLACK
6
CONTINUOUS
10
86.5091
20
-112.546
11
86.5
21
-112.55
0
LINE
8
BLACK
6
CONTINUOUS
10
86.5
20
-112.55
11
82
21
-112.55
0
LINE
8
BLACK
6
CONTINUOUS
10
82
20
-112.55
11
81.9909
21
-112.546
0
LINE
8
BLACK
6
CONTINUOUS
10
81.9909
20
-112.546
11
81.7725
21
-112.563
0
LINE
8
BLACK
6
CONTINUOUS
10
81.7725
20
-112.563
11
81.5505
21
-112.617
0
LINE
8
BLACK
6
CONTINUOUS
10
81.5505
20
-112.617
11
81.3397
21
-112.704
0
LINE
8
BLACK
6
CONTINUOUS
10
81.3397
20
-112.704
11
81.1451
21
-112.823
0
LINE
8
BLACK
6
CONTINUOUS
10
81.1451
20
-112.823
11
80.9715
21
-112.972
0
LINE
8
BLACK
6
CONTINUOUS
10
80.9715
20
-112.972
11
80.8233
21
-113.145
0
LINE
8
BLACK
6
CONTINUOUS
10
80.8233
20
-113.145
11
80.704
21
-113.34
0
LINE
8
BLACK
6
CONTINUOUS
10
80.704
20
-113.34
11
80.6167
21
-113.551
0
LINE
8
BLACK
6
CONTINUOUS
10
80.6167
20
-113.551
11
80.5634
21
-113.772
0
LINE
8
BLACK
6
CONTINUOUS
10
80.5634
20
-113.772
11
80.5462
21
-113.991
0
LINE
8
BLACK
6
CONTINUOUS
10
80.5462
20
-113.991
11
80.55
21
-114
0
LINE
8
BLACK
6
CONTINUOUS
10
80.55
20
-114
11
80.55
21
-119.5
0
LINE
8
BLACK
6
CONTINUOUS
10
80.55
20
-119.5
11
80.5314
21
-119.975
0
LINE
8
BLACK
6
CONTINUOUS
10
80.5314
20
-119.975
11
80.4755
21
-120.446
0
LINE
8
BLACK
6
CONTINUOUS
10
80.4755
20
-120.446
11
80.3828
21
-120.912
0
LINE
8
BLACK
6
CONTINUOUS
10
80.3828
20
-120.912
11
80.2539
21
-121.37
0
LINE
8
BLACK
6
CONTINUOUS
10
80.2539
20
-121.37
11
80.0895
21
-121.815
0
LINE
8
BLACK
6
CONTINUOUS
10
80.0895
20
-121.815
11
79.8906
21
-122.247
0
LINE
8
BLACK
6
CONTINUOUS
10
79.8906
20
-122.247
11
79.6585
21
-122.661
0
LINE
8
BLACK
6
CONTINUOUS
10
79.6585
20
-122.661
11
79.3946
21
-123.056
0
LINE
8
BLACK
6
CONTINUOUS
10
79.3946
20
-123.056
11
79.1005
21
-123.429
0
LINE
8
BLACK
6
CONTINUOUS
10
79.1005
20
-123.429
11
78.778
21
-123.778
0
LINE
8
BLACK
6
CONTINUOUS
10
78.778
20
-123.778
11
78.4292
21
-124.1
0
LINE
8
BLACK
6
CONTINUOUS
10
78.4292
20
-124.1
11
78.0561
21
-124.395
0
LINE
8
BLACK
6
CONTINUOUS
10
78.0561
20
-124.395
11
77.6611
21
-124.658
0
LINE
8
BLACK
6
CONTINUOUS
10
77.6611
20
-124.658
11
77.2466
21
-124.891
0
LINE
8
BLACK
6
CONTINUOUS
10
77.2466
20
-124.891
11
76.8152
21
-125.089
0
LINE
8
BLACK
6
CONTINUOUS
10
76.8152
20
-125.089
11
76.3696
21
-125.254
0
LINE
8
BLACK
6
CONTINUOUS
10
76.3696
20
-125.254
11
75.9123
21
-125.383
0
LINE
8
BLACK
6
CONTINUOUS
10
75.9123
20
-125.383
11
75.4464
21
-125.476
0
LINE
8
BLACK
6
CONTINUOUS
10
75.4464
20
-125.476
11
74.9747
21
-125.531
0
LINE
8
BLACK
6
CONTINUOUS
10
74.9747
20
-125.531
11
74.5
21
-125.55
0
LINE
8
BLACK
6
CONTINUOUS
10
74.5
20
-125.55
11
74.0253
21
-125.531
0
LINE
8
BLACK
6
CONTINUOUS
10
74.0253
20
-125.531
11
73.5536
21
-125.476
0
LINE
8
BLACK
6
CONTINUOUS
10
73.5536
20
-125.476
11
73.0877
21
-125.383
0
LINE
8
BLACK
6
CONTINUOUS
10
73.0877
20
-125.383
11
72.6304
21
-125.254
0
LINE
8
BLACK
6
CONTINUOUS
10
72.6304
20
-125.254
11
72.1848
21
-125.089
0
LINE
8
BLACK
6
CONTINUOUS
10
72.1848
20
-125.089
11
71.7534
21
-124.891
0
LINE
8
BLACK
6
CONTINUOUS
10
71.7534
20
-124.891
11
71.3389
21
-124.658
0
LINE
8
BLACK
6
CONTINUOUS
10
71.3389
20
-124.658
11
70.9439
21
-124.395
0
LINE
8
BLACK
6
CONTINUOUS
10
70.9439
20
-124.395
11
70.5708
21
-124.1
0
LINE
8
BLACK
6
CONTINUOUS
10
70.5708
20
-124.1
11
70.222
21
-123.778
0
LINE
8
BLACK
6
CONTINUOUS
10
70.222
20
-123.778
11
69.8995
21
-123.429
0
LINE
8
BLACK
6
CONTINUOUS
10
69.8995
20
-123.429
11
69.6054
21
-123.056
0
LINE
8
BLACK
6
CONTINUOUS
10
69.6054
20
-123.056
11
69.3415
21
-122.661
0
LINE
8
BLACK
6
CONTINUOUS
10
69.3415
20
-122.661
11
69.1094
21
-122.247
0
LINE
8
BLACK
6
CONTINUOUS
10
69.1094
20
-122.247
11
68.9105
21
-121.815
0
LINE
8
BLACK
6
CONTINUOUS
10
68.9105
20
-121.815
11
68.7461
21
-121.37
0
LINE
8
BLACK
6
CONTINUOUS
10
68.7461
20
-121.37
11
68.6172
21
-120.912
0
LINE
8
BLACK
6
CONTINUOUS
10
68.6172
20
-120.912
11
68.5245
21
-120.446
0
LINE
8
BLACK
6
CONTINUOUS
10
68.5245
20
-120.446
11
68.4686
21
-119.975
0
LINE
8
BLACK
6
CONTINUOUS
10
68.4686
20
-119.975
11
68.45
21
-119.5
0
LINE
8
BLACK
6
CONTINUOUS
10
68.45
20
-119.5
11
68.45
21
-67.5
0
LINE
8
BLACK
6
CONTINUOUS
10
68.45
20
-67.5
11
68.4686
21
-67.0253
0
LINE
8
BLACK
6
CONTINUOUS
10
68.4686
20
-67.0253
11
68.5245
21
-66.5536
0
LINE
8
BLACK
6
CONTINUOUS
10
68.5245
20
-66.5536
11
68.6172
21
-66.0877
0
LINE
8
BLACK
6
CONTINUOUS
10
68.6172
20
-66.0877
11
68.7461
21
-65.6304
0
LINE
8
BLACK
6
CONTINUOUS
10
68.7461
20
-65.6304
11
68.9105
21
-65.1848
0
LINE
8
BLACK
6
CONTINUOUS
10
68.9105
20
-65.1848
11
69.1094
21
-64.7534
0
LINE
8
BLACK
6
CONTINUOUS
10
69.1094
20
-64.7534
11
69.3415
21
-64.3389
0
LINE
8
BLACK
6
CONTINUOUS
10
69.3415
20
-64.3389
11
69.6054
21
-63.9439
0
LINE
8
BLACK
6
CONTINUOUS
10
69.6054
20
-63.9439
11
69.8995
21
-63.5708
0
LINE
8
BLACK
6
CONTINUOUS
10
69.8995
20
-63.5708
11
70.222
21
-63.222
0
LINE
8
BLACK
6
CONTINUOUS
10
70.222
20
-63.222
11
70.5708
21
-62.8995
0
LINE
8
BLACK
6
CONTINUOUS
10
70.5708
20
-62.8995
11
70.9439
21
-62.6054
0
LINE
8
BLACK
6
CONTINUOUS
10
70.9439
20
-62.6054
11
71.3389
21
-62.3415
0
LINE
8
BLACK
6
CONTINUOUS
10
71.3389
20
-62.3415
11
71.7534
21
-62.1094
0
LINE
8
BLACK
6
CONTINUOUS
10
71.7534
20
-62.1094
11
72.1848
21
-61.9105
0
LINE
8
BLACK
6
CONTINUOUS
10
72.1848
20
-61.9105
11
72.6304
21
-61.7461
0
LINE
8
BLACK
6
CONTINUOUS
10
72.6304
20
-61.7461
11
73.0877
21
-61.6172
0
LINE
8
BLACK
6
CONTINUOUS
10
73.0877
20
-61.6172
11
73.5536
21
-61.5245
0
LINE
8
BLACK
6
CONTINUOUS
10
73.5536
20
-61.5245
11
74.0253
21
-61.4686
0
LINE
8
BLACK
6
CONTINUOUS
10
74.0253
20
-61.4686
11
74.5
21
-61.45
0
LINE
8
BLACK
6
CONTINUOUS
10
74.5
20
-61.45
11
74.9747
21
-61.4686
0
LINE
8
BLACK
6
CONTINUOUS
10
74.9747
20
-61.4686
11
75.4464
21
-61.5245
0
LINE
8
BLACK
6
CONTINUOUS
10
75.4464
20
-61.5245
11
75.9123
21
-61.6172
0
LINE
8
BLACK
6
CONTINUOUS
10
75.9123
20
-61.6172
11
76.3696
21
-61.7461
0
LINE
8
BLACK
6
CONTINUOUS
10
76.3696
20
-61.7461
11
76.8152
21
-61.9105
0
LINE
8
BLACK
6
CONTINUOUS
10
76.8152
20
-61.9105
11
77.2466
21
-62.1094
0
LINE
8
BLACK
6
CONTINUOUS
10
77.2466
20
-62.1094
11
77.6611
21
-62.3415
0
LINE
8
BLACK
6
CONTINUOUS
10
77.6611
20
-62.3415
11
78.0561
21
-62.6054
0
LINE
8
BLACK
6
CONTINUOUS
10
78.0561
20
-62.6054
11
78.4292
21
-62.8995
0
LINE
8
BLACK
6
CONTINUOUS
10
78.4292
20
-62.8995
11
78.778
21
-63.222
0
LINE
8
BLACK
6
CONTINUOUS
10
78.778
20
-63.222
11
79.1005
21
-63.5708
0
LINE
8
BLACK
6
CONTINUOUS
10
79.1005
20
-63.5708
11
79.3946
21
-63.9439
0
LINE
8
BLACK
6
CONTINUOUS
10
79.3946
20
-63.9439
11
79.6585
21
-64.3389
0
LINE
8
BLACK
6
CONTINUOUS
10
79.6585
20
-64.3389
11
79.8906
21
-64.7534
0
LINE
8
BLACK
6
CONTINUOUS
10
79.8906
20
-64.7534
11
80.0895
21
-65.1848
0
LINE
8
BLACK
6
CONTINUOUS
10
80.0895
20
-65.1848
11
80.2539
21
-65.6304
0
LINE
8
BLACK
6
CONTINUOUS
10
80.2539
20
-65.6304
11
80.3828
21
-66.0877
0
LINE
8
BLACK
6
CONTINUOUS
10
80.3828
20
-66.0877
11
80.4755
21
-66.5536
0
LINE
8
BLACK
6
CONTINUOUS
10
80.4755
20
-66.5536
11
80.5314
21
-67.0253
0
LINE
8
BLACK
6
CONTINUOUS
10
80.5314
20
-67.0253
11
80.55
21
-67.5
0
LINE
8
BLACK
6
CONTINUOUS
10
80.55
20
-67.5
11
80.55
21
-73
0
LINE
8
BLACK
6
CONTINUOUS
10
80.55
20
-73
11
80.5462
21
-73.0091
0
LINE
8
BLACK
6
CONTINUOUS
10
80.5462
20
-73.0091
11
80.5634
21
-73.2275
0
LINE
8
BLACK
6
CONTINUOUS
10
80.5634
20
-73.2275
11
80.6167
21
-73.4495
0
LINE
8
BLACK
6
CONTINUOUS
10
80.6167
20
-73.4495
11
80.704
21
-73.6603
0
LINE
8
BLACK
6
CONTINUOUS
10
80.704
20
-73.6603
11
80.8233
21
-73.8549
0
LINE
8
BLACK
6
CONTINUOUS
10
80.8233
20
-73.8549
11
80.9715
21
-74.0285
0
LINE
8
BLACK
6
CONTINUOUS
10
80.9715
20
-74.0285
11
81.1451
21
-74.1767
0
LINE
8
BLACK
6
CONTINUOUS
10
81.1451
20
-74.1767
11
81.3397
21
-74.296
0
LINE
8
BLACK
6
CONTINUOUS
10
81.3397
20
-74.296
11
81.5505
21
-74.3833
0
LINE
8
BLACK
6
CONTINUOUS
10
81.5505
20
-74.3833
11
81.7725
21
-74.4366
0
LINE
8
BLACK
6
CONTINUOUS
10
81.7725
20
-74.4366
11
81.9909
21
-74.4538
0
LINE
8
BLACK
6
CONTINUOUS
10
81.9909
20
-74.4538
11
82
21
-74.45
0
LINE
8
BLACK
6
CONTINUOUS
10
82
20
-74.45
11
86
21
-74.45
0
LINE
8
BLACK
6
CONTINUOUS
10
86
20
-74.45
11
86.0091
21
-74.4538
0
LINE
8
BLACK
6
CONTINUOUS
10
86.0091
20
-74.4538
11
86.2275
21
-74.4366
0
LINE
8
BLACK
6
CONTINUOUS
10
86.2275
20
-74.4366
11
86.4495
21
-74.3833
0
LINE
8
BLACK
6
CONTINUOUS
10
86.4495
20
-74.3833
11
86.6603
21
-74.296
0
LINE
8
BLACK
6
CONTINUOUS
10
86.6603
20
-74.296
11
86.8549
21
-74.1767
0
LINE
8
BLACK
6
CONTINUOUS
10
86.8549
20
-74.1767
11
87.0285
21
-74.0285
0
LINE
8
BLACK
6
CONTINUOUS
10
87.0285
20
-74.0285
11
87.1767
21
-73.8549
0
LINE
8
BLACK
6
CONTINUOUS
10
87.1767
20
-73.8549
11
87.296
21
-73.6603
0
LINE
8
BLACK
6
CONTINUOUS
10
87.296
20
-73.6603
11
87.3833
21
-73.4495
0
LINE
8
BLACK
6
CONTINUOUS
10
87.3833
20
-73.4495
11
87.4366
21
-73.2275
0
LINE
8
BLACK
6
CONTINUOUS
10
87.4366
20
-73.2275
11
87.4538
21
-73.0091
0
LINE
8
BLACK
6
CONTINUOUS
10
87.4538
20
-73.0091
11
87.45
21
-73
0
LINE
8
BLACK
6
CONTINUOUS
10
87.45
20
-73
11
87.45
21
-65
0
LINE
8
BLACK
6
CONTINUOUS
10
87.45
20
-65
11
87.4658
21
-64.7794
0
LINE
8
BLACK
6
CONTINUOUS
10
87.4658
20
-64.7794
11
87.5128
21
-64.5633
0
LINE
8
BLACK
6
CONTINUOUS
10
87.5128
20
-64.5633
11
87.5901
21
-64.3561
0
LINE
8
BLACK
6
CONTINUOUS
10
87.5901
20
-64.3561
11
87.6961
21
-64.162
0
LINE
8
BLACK
6
CONTINUOUS
10
87.6961
20
-64.162
11
87.8286
21
-63.985
0
LINE
8
BLACK
6
CONTINUOUS
10
87.8286
20
-63.985
11
87.985
21
-63.8286
0
LINE
8
BLACK
6
CONTINUOUS
10
87.985
20
-63.8286
11
88.162
21
-63.6961
0
LINE
8
BLACK
6
CONTINUOUS
10
88.162
20
-63.6961
11
88.3561
21
-63.5901
0
LINE
8
BLACK
6
CONTINUOUS
10
88.3561
20
-63.5901
11
88.5633
21
-63.5128
0
LINE
8
BLACK
6
CONTINUOUS
10
88.5633
20
-63.5128
11
88.7794
21
-63.4658
0
LINE
8
BLACK
6
CONTINUOUS
10
88.7794
20
-63.4658
11
89
21
-63.45
0
LINE
8
BLACK
6
CONTINUOUS
10
89
20
-63.45
11
105
21
-63.45
0
LINE
8
BLACK
6
CONTINUOUS
10
105
20
-63.45
11
105.009
21
-63.4538
0
LINE
8
BLACK
6
CONTINUOUS
10
105.009
20
-63.4538
11
105.228
21
-63.4366
0
LINE
8
BLACK
6
CONTINUOUS
10
105.228
20
-63.4366
11
105.449
21
-63.3833
0
LINE
8
BLACK
6
CONTINUOUS
10
105.449
20
-63.3833
11
105.66
21
-63.296
0
LINE
8
BLACK
6
CONTINUOUS
10
105.66
20
-63.296
11
105.855
21
-63.1767
0
LINE
8
BLACK
6
CONTINUOUS
10
105.855
20
-63.1767
11
106.028
21
-63.0285
0
LINE
8
BLACK
6
CONTINUOUS
10
106.028
20
-63.0285
11
106.177
21
-62.8549
0
LINE
8
BLACK
6
CONTINUOUS
10
106.177
20
-62.8549
11
106.296
21
-62.6603
0
LINE
8
BLACK
6
CONTINUOUS
10
106.296
20
-62.6603
11
106.383
21
-62.4495
0
LINE
8
BLACK
6
CONTINUOUS
10
106.383
20
-62.4495
11
106.437
21
-62.2275
0
LINE
8
BLACK
6
CONTINUOUS
10
106.437
20
-62.2275
11
106.454
21
-62.0091
0
LINE
8
BLACK
6
CONTINUOUS
10
106.454
20
-62.0091
11
106.45
21
-62
0
LINE
8
BLACK
6
CONTINUOUS
10
106.45
20
-62
11
106.45
21
-56.5
0
LINE
8
BLACK
6
CONTINUOUS
10
106.45
20
-56.5
11
106.466
21
-56.2794
0
LINE
8
BLACK
6
CONTINUOUS
10
106.466
20
-56.2794
11
106.513
21
-56.0633
0
LINE
8
BLACK
6
CONTINUOUS
10
106.513
20
-56.0633
11
106.59
21
-55.8561
0
LINE
8
BLACK
6
CONTINUOUS
10
106.59
20
-55.8561
11
106.696
21
-55.662
0
LINE
8
BLACK
6
CONTINUOUS
10
106.696
20
-55.662
11
106.829
21
-55.485
0
LINE
8
BLACK
6
CONTINUOUS
10
106.829
20
-55.485
11
106.985
21
-55.3286
0
LINE
8
BLACK
6
CONTINUOUS
10
106.985
20
-55.3286
11
107.162
21
-55.1961
0
LINE
8
BLACK
6
CONTINUOUS
10
107.162
20
-55.1961
11
107.356
21
-55.0901
0
LINE
8
BLACK
6
CONTINUOUS
10
107.356
20
-55.0901
11
107.563
21
-55.0128
0
LINE
8
BLACK
6
CONTINUOUS
10
107.563
20
-55.0128
11
107.779
21
-54.9658
0
LINE
8
BLACK
6
CONTINUOUS
10
107.779
20
-54.9658
11
108
21
-54.95
0
LINE
8
BLACK
6
CONTINUOUS
10
108
20
-54.95
11
124.5
21
-54.95
0
LINE
8
BLACK
6
CONTINUOUS
10
124.5
20
-54.95
11
124.509
21
-54.9538
0
LINE
8
BLACK
6
CONTINUOUS
10
124.509
20
-54.9538
11
124.728
21
-54.9366
0
LINE
8
BLACK
6
CONTINUOUS
10
124.728
20
-54.9366
11
124.949
21
-54.8833
0
LINE
8
BLACK
6
CONTINUOUS
10
124.949
20
-54.8833
11
125.16
21
-54.796
0
LINE
8
BLACK
6
CONTINUOUS
10
125.16
20
-54.796
11
125.355
21
-54.6767
0
LINE
8
BLACK
6
CONTINUOUS
10
125.355
20
-54.6767
11
125.528
21
-54.5285
0
LINE
8
BLACK
6
CONTINUOUS
10
125.528
20
-54.5285
11
125.677
21
-54.3549
0
LINE
8
BLACK
6
CONTINUOUS
10
125.677
20
-54.3549
11
125.796
21
-54.1603
0
LINE
8
BLACK
6
CONTINUOUS
10
125.796
20
-54.1603
11
125.883
21
-53.9495
0
LINE
8
BLACK
6
CONTINUOUS
10
125.883
20
-53.9495
11
125.937
21
-53.7275
0
LINE
8
BLACK
6
CONTINUOUS
10
125.937
20
-53.7275
11
125.954
21
-53.5091
0
LINE
8
BLACK
6
CONTINUOUS
10
125.954
20
-53.5091
11
125.95
21
-53.5
0
LINE
8
BLACK
6
CONTINUOUS
10
125.95
20
-53.5
11
125.95
21
-53
0
LINE
8
BLACK
6
CONTINUOUS
10
125.95
20
-53
11
125.966
21
-52.7794
0
LINE
8
BLACK
6
CONTINUOUS
10
125.966
20
-52.7794
11
126.013
21
-52.5633
0
LINE
8
BLACK
6
CONTINUOUS
10
126.013
20
-52.5633
11
126.09
21
-52.3561
0
LINE
8
BLACK
6
CONTINUOUS
10
126.09
20
-52.3561
11
126.196
21
-52.162
0
LINE
8
BLACK
6
CONTINUOUS
10
126.196
20
-52.162
11
126.329
21
-51.985
0
LINE
8
BLACK
6
CONTINUOUS
10
126.329
20
-51.985
11
126.485
21
-51.8286
0
LINE
8
BLACK
6
CONTINUOUS
10
126.485
20
-51.8286
11
126.662
21
-51.6961
0
LINE
8
BLACK
6
CONTINUOUS
10
126.662
20
-51.6961
11
126.856
21
-51.5901
0
LINE
8
BLACK
6
CONTINUOUS
10
126.856
20
-51.5901
11
127.063
21
-51.5128
0
LINE
8
BLACK
6
CONTINUOUS
10
127.063
20
-51.5128
11
127.279
21
-51.4658
0
LINE
8
BLACK
6
CONTINUOUS
10
127.279
20
-51.4658
11
127.5
21
-51.45
0
LINE
8
BLACK
6
CONTINUOUS
10
127.5
20
-51.45
11
143.5
21
-51.45
0
LINE
8
BLACK
6
CONTINUOUS
10
143.5
20
-51.45
11
143.721
21
-51.4658
0
LINE
8
BLACK
6
CONTINUOUS
10
143.721
20
-51.4658
11
143.937
21
-51.5128
0
LINE
8
BLACK
6
CONTINUOUS
10
143.937
20
-51.5128
11
144.144
21
-51.5901
0
LINE
8
BLACK
6
CONTINUOUS
10
144.144
20
-51.5901
11
144.338
21
-51.6961
0
LINE
8
BLACK
6
CONTINUOUS
10
144.338
20
-51.6961
11
144.515
21
-51.8286
0
LINE
8
BLACK
6
CONTINUOUS
10
144.515
20
-51.8286
11
144.671
21
-51.985
0
LINE
8
BLACK
6
CONTINUOUS
10
144.671
20
-51.985
11
144.804
21
-52.162
0
LINE
8
BLACK
6
CONTINUOUS
10
144.804
20
-52.162
11
144.91
21
-52.3561
0
LINE
8
BLACK
6
CONTINUOUS
10
144.91
20
-52.3561
11
144.987
21
-52.5633
0
LINE
8
BLACK
6
CONTINUOUS
10
144.987
20
-52.5633
11
145.034
21
-52.7794
0
LINE
8
BLACK
6
CONTINUOUS
10
145.034
20
-52.7794
11
145.05
21
-53
0
LINE
8
BLACK
6
CONTINUOUS
10
145.05
20
-53
11
145.05
21
-53.5
0
LINE
8
BLACK
6
CONTINUOUS
10
145.05
20
-53.5
11
145.046
21
-53.5091
0
LINE
8
BLACK
6
CONTINUOUS
10
145.046
20
-53.5091
11
145.063
21
-53.7275
0
LINE
8
BLACK
6
CONTINUOUS
10
145.063
20
-53.7275
11
145.117
21
-53.9495
0
LINE
8
BLACK
6
CONTINUOUS
10
145.117
20
-53.9495
11
145.204
21
-54.1603
0
LINE
8
BLACK
6
CONTINUOUS
10
145.204
20
-54.1603
11
145.323
21
-54.3549
0
LINE
8
BLACK
6
CONTINUOUS
10
145.323
20
-54.3549
11
145.472
21
-54.5285
0
LINE
8
BLACK
6
CONTINUOUS
10
145.472
20
-54.5285
11
145.645
21
-54.6767
0
LINE
8
BLACK
6
CONTINUOUS
10
145.645
20
-54.6767
11
145.84
21
-54.796
0
LINE
8
BLACK
6
CONTINUOUS
10
145.84
20
-54.796
11
146.051
21
-54.8833
0
LINE
8
BLACK
6
CONTINUOUS
10
146.051
20
-54.8833
11
146.272
21
-54.9366
0
LINE
8
BLACK
6
CONTINUOUS
10
146.272
20
-54.9366
11
146.491
21
-54.9538
0
LINE
8
BLACK
6
CONTINUOUS
10
146.491
20
-54.9538
11
146.5
21
-54.95
0
LINE
8
BLACK
6
CONTINUOUS
10
146.5
20
-54.95
11
162.5
21
-54.95
0
LINE
8
BLACK
6
CONTINUOUS
10
162.5
20
-54.95
11
162.721
21
-54.9658
0
LINE
8
BLACK
6
CONTINUOUS
10
162.721
20
-54.9658
11
162.937
21
-55.0128
0
LINE
8
BLACK
6
CONTINUOUS
10
127.491
20
-51.5462
11
127.272
21
-51.5634
0
LINE
8
BLACK
6
CONTINUOUS
10
127.272
20
-51.5634
11
127.051
21
-51.6167
0
LINE
8
BLACK
6
CONTINUOUS
10
127.051
20
-51.6167
11
126.84
21
-51.704
0
LINE
8
BLACK
6
CONTINUOUS
10
126.84
20
-51.704
11
126.645
21
-51.8233
0
LINE
8
BLACK
6
CONTINUOUS
10
126.645
20
-51.8233
11
126.472
21
-51.9715
0
LINE
8
BLACK
6
CONTINUOUS
10
126.472
20
-51.9715
11
126.323
21
-52.1451
0
LINE
8
BLACK
6
CONTINUOUS
10
126.323
20
-52.1451
11
126.204
21
-52.3397
0
LINE
8
BLACK
6
CONTINUOUS
10
126.204
20
-52.3397
11
126.117
21
-52.5505
0
LINE
8
BLACK
6
CONTINUOUS
10
126.117
20
-52.5505
11
126.063
21
-52.7725
0
LINE
8
BLACK
6
CONTINUOUS
10
126.063
20
-52.7725
11
126.046
21
-52.9909
0
LINE
8
BLACK
6
CONTINUOUS
10
126.046
20
-52.9909
11
126.05
21
-53
0
LINE
8
BLACK
6
CONTINUOUS
10
126.05
20
-53
11
126.05
21
-53.5
0
LINE
8
BLACK
6
CONTINUOUS
10
126.05
20
-53.5
11
126.034
21
-53.7206
0
LINE
8
BLACK
6
CONTINUOUS
10
126.034
20
-53.7206
11
125.987
21
-53.9367
0
LINE
8
BLACK
6
CONTINUOUS
10
125.987
20
-53.9367
11
125.91
21
-54.1439
0
LINE
8
BLACK
6
CONTINUOUS
10
125.91
20
-54.1439
11
125.804
21
-54.338
0
LINE
8
BLACK
6
CONTINUOUS
10
125.804
20
-54.338
11
125.671
21
-54.515
0
LINE
8
BLACK
6
CONTINUOUS
10
125.671
20
-54.515
11
125.515
21
-54.6714
0
LINE
8
BLACK
6
CONTINUOUS
10
125.515
20
-54.6714
11
125.338
21
-54.8039
0
LINE
8
BLACK
6
CONTINUOUS
10
125.338
20
-54.8039
11
125.144
21
-54.9099
0
LINE
8
BLACK
6
CONTINUOUS
10
125.144
20
-54.9099
11
124.937
21
-54.9872
0
LINE
8
BLACK
6
CONTINUOUS
10
124.937
20
-54.9872
11
124.721
21
-55.0342
0
LINE
8
BLACK
6
CONTINUOUS
10
124.721
20
-55.0342
11
124.5
21
-55.05
0
LINE
8
BLACK
6
CONTINUOUS
10
124.5
20
-55.05
11
108
21
-55.05
0
LINE
8
BLACK
6
CONTINUOUS
10
108
20
-55.05
11
107.991
21
-55.0462
0
LINE
8
BLACK
6
CONTINUOUS
10
107.991
20
-55.0462
11
107.772
21
-55.0634
0
LINE
8
BLACK
6
CONTINUOUS
10
107.772
20
-55.0634
11
107.551
21
-55.1167
0
LINE
8
BLACK
6
CONTINUOUS
10
107.551
20
-55.1167
11
107.34
21
-55.204
0
LINE
8
BLACK
6
CONTINUOUS
10
107.34
20
-55.204
11
107.145
21
-55.3233
0
LINE
8
BLACK
6
CONTINUOUS
10
107.145
20
-55.3233
11
106.972
21
-55.4715
0
LINE
8
BLACK
6
CONTINUOUS
10
106.972
20
-55.4715
11
106.823
21
-55.6451
0
LINE
8
BLACK
6
CONTINUOUS
10
106.823
20
-55.6451
11
106.704
21
-55.8397
0
LINE
8
BLACK
6
CONTINUOUS
10
106.704
20
-55.8397
11
106.617
21
-56.0505
0
LINE
8
BLACK
6
CONTINUOUS
10
106.617
20
-56.0505
11
106.563
21
-56.2725
0
LINE
8
BLACK
6
CONTINUOUS
10
106.563
20
-56.2725
11
106.546
21
-56.4909
0
LINE
8
BLACK
6
CONTINUOUS
10
106.546
20
-56.4909
11
106.55
21
-56.5
0
LINE
8
BLACK
6
CONTINUOUS
10
106.55
20
-56.5
11
106.55
21
-62
0
LINE
8
BLACK
6
CONTINUOUS
10
106.55
20
-62
11
106.534
21
-62.2206
0
LINE
8
BLACK
6
CONTINUOUS
10
106.534
20
-62.2206
11
106.487
21
-62.4367
0
LINE
8
BLACK
6
CONTINUOUS
10
106.487
20
-62.4367
11
106.41
21
-62.6439
0
LINE
8
BLACK
6
CONTINUOUS
10
106.41
20
-62.6439
11
106.304
21
-62.838
0
LINE
8
BLACK
6
CONTINUOUS
10
106.304
20
-62.838
11
106.171
21
-63.015
0
LINE
8
BLACK
6
CONTINUOUS
10
106.171
20
-63.015
11
106.015
21
-63.1714
0
LINE
8
BLACK
6
CONTINUOUS
10
106.015
20
-63.1714
11
105.838
21
-63.3039
0
LINE
8
BLACK
6
CONTINUOUS
10
105.838
20
-63.3039
11
105.644
21
-63.4099
0
LINE
8
BLACK
6
CONTINUOUS
10
105.644
20
-63.4099
11
105.437
21
-63.4872
0
LINE
8
BLACK
6
CONTINUOUS
10
105.437
20
-63.4872
11
105.221
21
-63.5342
0
LINE
8
BLACK
6
CONTINUOUS
10
105.221
20
-63.5342
11
105
21
-63.55
0
LINE
8
BLACK
6
CONTINUOUS
10
105
20
-63.55
11
89
21
-63.55
0
LINE
8
BLACK
6
CONTINUOUS
10
89
20
-63.55
11
88.9909
21
-63.5462
0
LINE
8
BLACK
6
CONTINUOUS
10
88.9909
20
-63.5462
11
88.7725
21
-63.5634
0
LINE
8
BLACK
6
CONTINUOUS
10
88.7725
20
-63.5634
11
88.5505
21
-63.6167
0
LINE
8
BLACK
6
CONTINUOUS
10
88.5505
20
-63.6167
11
88.3397
21
-63.704
0
LINE
8
BLACK
6
CONTINUOUS
10
88.3397
20
-63.704
11
88.1451
21
-63.8233
0
LINE
8
BLACK
6
CONTINUOUS
10
88.1451
20
-63.8233
11
87.9715
21
-63.9715
0
LINE
8
BLACK
6
CONTINUOUS
10
87.9715
20
-63.9715
11
87.8233
21
-64.1451
0
LINE
8
BLACK
6
CONTINUOUS
10
87.8233
20
-64.1451
11
87.704
21
-64.3397
0
LINE
8
BLACK
6
CONTINUOUS
10
87.704
20
-64.3397
11
87.6167
21
-64.5505
0
LINE
8
BLACK
6
CONTINUOUS
10
87.6167
20
-64.5505
11
87.5634
21
-64.7725
0
LINE
8
BLACK
6
CONTINUOUS
10
87.5634
20
-64.7725
11
87.5462
21
-64.9909
0
LINE
8
BLACK
6
CONTINUOUS
10
87.5462
20
-64.9909
11
87.55
21
-65
0
LINE
8
BLACK
6
CONTINUOUS
10
87.55
20
-65
11
87.55
21
-73
0
LINE
8
BLACK
6
CONTINUOUS
10
87.55
20
-73
11
87.5342
21
-73.2206
0
LINE
8
BLACK
6
CONTINUOUS
10
87.5342
20
-73.2206
11
87.4872
21
-73.4367
0
LINE
8
BLACK
6
CONTINUOUS
10
87.4872
20
-73.4367
11
87.4099
21
-73.6439
0
LINE
8
BLACK
6
CONTINUOUS
10
87.4099
20
-73.6439
11
87.3039
21
-73.838
0
LINE
8
BLACK
6
CONTINUOUS
10
87.3039
20
-73.838
11
87.1714
21
-74.015
0
LINE
8
BLACK
6
CONTINUOUS
10
87.1714
20
-74.015
11
87.015
21
-74.1714
0
LINE
8
BLACK
6
CONTINUOUS
10
87.015
20
-74.1714
11
86.838
21
-74.3039
0
LINE
8
BLACK
6
CONTINUOUS
10
86.838
20
-74.3039
11
86.6439
21
-74.4099
0
LINE
8
BLACK
6
CONTINUOUS
10
86.6439
20
-74.4099
11
86.4367
21
-74.4872
0
LINE
8
BLACK
6
CONTINUOUS
10
86.4367
20
-74.4872
11
86.2206
21
-74.5342
0
LINE
8
BLACK
6
CONTINUOUS
10
86.2206
20
-74.5342
11
86
21
-74.55
0
LINE
8
BLACK
6
CONTINUOUS
10
86
20
-74.55
11
82
21
-74.55
0
LINE
8
BLACK
6
CONTINUOUS
10
82
20
-74.55
11
81.7794
21
-74.5342
0
LINE
8
BLACK
6
CONTINUOUS
10
81.7794
20
-74.5342
11
81.5633
21
-74.4872
0
LINE
8
BLACK
6
CONTINUOUS
10
81.5633
20
-74.4872
11
81.3561
21
-74.4099
0
LINE
8
BLACK
6
CONTINUOUS
10
81.3561
20
-74.4099
11
81.162
21
-74.3039
0
LINE
8
BLACK
6
CONTINUOUS
10
81.162
20
-74.3039
11
80.985
21
-74.1714
0
LINE
8
BLACK
6
CONTINUOUS
10
80.985
20
-74.1714
11
80.8286
21
-74.015
0
LINE
8
BLACK
6
CONTINUOUS
10
80.8286
20
-74.015
11
80.6961
21
-73.838
0
LINE
8
BLACK
6
CONTINUOUS
10
80.6961
20
-73.838
11
80.5901
21
-73.6439
0
LINE
8
BLACK
6
CONTINUOUS
10
80.5901
20
-73.6439
11
80.5128
21
-73.4367
0
LINE
8
BLACK
6
CONTINUOUS
10
80.5128
20
-73.4367
11
80.4658
21
-73.2206
0
LINE
8
BLACK
6
CONTINUOUS
10
80.4658
20
-73.2206
11
80.45
21
-73
0
LINE
8
BLACK
6
CONTINUOUS
10
80.45
20
-73
11
80.45
21
-67.5
0
LINE
8
BLACK
6
CONTINUOUS
10
80.45
20
-67.5
11
80.4544
21
-67.4894
0
LINE
8
BLACK
6
CONTINUOUS
10
80.4544
20
-67.4894
11
80.4355
21
-67.0208
0
LINE
8
BLACK
6
CONTINUOUS
10
80.4355
20
-67.0208
11
80.3777
21
-66.5448
0
LINE
8
BLACK
6
CONTINUOUS
10
80.3777
20
-66.5448
11
80.2818
21
-66.0749
0
LINE
8
BLACK
6
CONTINUOUS
10
80.2818
20
-66.0749
11
80.1484
21
-65.6143
0
LINE
8
BLACK
6
CONTINUOUS
10
80.1484
20
-65.6143
11
79.9783
21
-65.1659
0
LINE
8
BLACK
6
CONTINUOUS
10
79.9783
20
-65.1659
11
79.7727
21
-64.7327
0
LINE
8
BLACK
6
CONTINUOUS
10
79.7727
20
-64.7327
11
79.533
21
-64.3173
0
LINE
8
BLACK
6
CONTINUOUS
10
79.533
20
-64.3173
11
79.2605
21
-63.9227
0
LINE
8
BLACK
6
CONTINUOUS
10
79.2605
20
-63.9227
11
78.9573
21
-63.5512
0
LINE
8
BLACK
6
CONTINUOUS
10
78.9573
20
-63.5512
11
78.6251
21
-63.2054
0
LINE
8
BLACK
6
CONTINUOUS
10
78.6251
20
-63.2054
11
78.2661
21
-62.8874
0
LINE
8
BLACK
6
CONTINUOUS
10
78.2661
20
-62.8874
11
77.8827
21
-62.5993
0
LINE
8
BLACK
6
CONTINUOUS
10
77.8827
20
-62.5993
11
77.4774
21
-62.343
0
LINE
8
BLACK
6
CONTINUOUS
10
77.4774
20
-62.343
11
77.0528
21
-62.1201
0
LINE
8
BLACK
6
CONTINUOUS
10
77.0528
20
-62.1201
11
76.6116
21
-61.9321
0
LINE
8
BLACK
6
CONTINUOUS
10
76.6116
20
-61.9321
11
76.1567
21
-61.7803
0
LINE
8
BLACK
6
CONTINUOUS
10
76.1567
20
-61.7803
11
75.6911
21
-61.6655
0
LINE
8
BLACK
6
CONTINUOUS
10
75.6911
20
-61.6655
11
75.2178
21
-61.5886
0
LINE
8
BLACK
6
CONTINUOUS
10
75.2178
20
-61.5886
11
74.7398
21
-61.55
0
LINE
8
BLACK
6
CONTINUOUS
10
74.7398
20
-61.55
11
74.2602
21
-61.55
0
LINE
8
BLACK
6
CONTINUOUS
10
74.2602
20
-61.55
11
73.7822
21
-61.5886
0
LINE
8
BLACK
6
CONTINUOUS
10
73.7822
20
-61.5886
11
73.3089
21
-61.6655
0
LINE
8
BLACK
6
CONTINUOUS
10
73.3089
20
-61.6655
11
72.8433
21
-61.7803
0
LINE
8
BLACK
6
CONTINUOUS
10
72.8433
20
-61.7803
11
72.3884
21
-61.9321
0
LINE
8
BLACK
6
CONTINUOUS
10
72.3884
20
-61.9321
11
71.9472
21
-62.1201
0
LINE
8
BLACK
6
CONTINUOUS
10
71.9472
20
-62.1201
11
71.5226
21
-62.343
0
LINE
8
BLACK
6
CONTINUOUS
10
71.5226
20
-62.343
11
71.1173
21
-62.5993
0
LINE
8
BLACK
6
CONTINUOUS
10
71.1173
20
-62.5993
11
70.7339
21
-62.8874
0
LINE
8
BLACK
6
CONTINUOUS
10
70.7339
20
-62.8874
11
70.3749
21
-63.2054
0
LINE
8
BLACK
6
CONTINUOUS
10
70.3749
20
-63.2054
11
70.0427
21
-63.5512
0
LINE
8
BLACK
6
CONTINUOUS
10
70.0427
20
-63.5512
11
69.7395
21
-63.9227
0
LINE
8
BLACK
6
CONTINUOUS
10
69.7395
20
-63.9227
11
69.467
21
-64.3173
0
LINE
8
BLACK
6
CONTINUOUS
10
69.467
20
-64.3173
11
69.2273
21
-64.7327
0
LINE
8
BLACK
6
CONTINUOUS
10
69.2273
20
-64.7327
11
69.0217
21
-65.1659
0
LINE
8
BLACK
6
CONTINUOUS
10
69.0217
20
-65.1659
11
68.8516
21
-65.6143
0
LINE
8
BLACK
6
CONTINUOUS
10
68.8516
20
-65.6143
11
68.7182
21
-66.0749
0
LINE
8
BLACK
6
CONTINUOUS
10
68.7182
20
-66.0749
11
68.6223
21
-66.5448
0
LINE
8
BLACK
6
CONTINUOUS
10
68.6223
20
-66.5448
11
68.5645
21
-67.0208
0
LINE
8
BLACK
6
CONTINUOUS
10
68.5645
20
-67.0208
11
68.5456
21
-67.4894
0
LINE
8
BLACK
6
CONTINUOUS
10
68.5456
20
-67.4894
11
68.55
21
-67.5
0
LINE
8
BLACK
6
CONTINUOUS
10
68.55
20
-67.5
11
68.55
21
-119.5
0
LINE
8
BLACK
6
CONTINUOUS
10
68.55
20
-119.5
11
68.5456
21
-119.511
0
LINE
8
BLACK
6
CONTINUOUS
10
68.5456
20
-119.511
11
68.5645
21
-119.979
0
LINE
8
BLACK
6
CONTINUOUS
10
68.5645
20
-119.979
11
68.6223
21
-120.455
0
LINE
8
BLACK
6
CONTINUOUS
10
68.6223
20
-120.455
11
68.7182
21
-120.925
0
LINE
8
BLACK
6
CONTINUOUS
10
68.7182
20
-120.925
11
68.8516
21
-121.386
0
LINE
8
BLACK
6
CONTINUOUS
10
68.8516
20
-121.386
11
69.0217
21
-121.834
0
LINE
8
BLACK
6
CONTINUOUS
10
69.0217
20
-121.834
11
69.2273
21
-122.267
0
LINE
8
BLACK
6
CONTINUOUS
10
69.2273
20
-122.267
11
69.467
21
-122.683
0
LINE
8
BLACK
6
CONTINUOUS
10
69.467
20
-122.683
11
69.7395
21
-123.077
0
LINE
8
BLACK
6
CONTINUOUS
10
69.7395
20
-123.077
11
70.0427
21
-123.449
0
LINE
8
BLACK
6
CONTINUOUS
10
70.0427
20
-123.449
11
70.3749
21
-123.795
0
LINE
8
BLACK
6
CONTINUOUS
10
70.3749
20
-123.795
11
70.7339
21
-124.113
0
LINE
8
BLACK
6
CONTINUOUS
10
70.7339
20
-124.113
11
71.1173
21
-124.401
0
LINE
8
BLACK
6
CONTINUOUS
10
71.1173
20
-124.401
11
71.5226
21
-124.657
0
LINE
8
BLACK
6
CONTINUOUS
10
71.5226
20
-124.657
11
71.9472
21
-124.88
0
LINE
8
BLACK
6
CONTINUOUS
10
71.9472
20
-124.88
11
72.3884
21
-125.068
0
LINE
8
BLACK
6
CONTINUOUS
10
72.3884
20
-125.068
11
72.8433
21
-125.22
0
LINE
8
BLACK
6
CONTINUOUS
10
72.8433
20
-125.22
11
73.3089
21
-125.334
0
LINE
8
BLACK
6
CONTINUOUS
10
73.3089
20
-125.334
11
73.7822
21
-125.411
0
LINE
8
BLACK
6
CONTINUOUS
10
73.7822
20
-125.411
11
74.2602
21
-125.45
0
LINE
8
BLACK
6
CONTINUOUS
10
74.2602
20
-125.45
11
74.7398
21
-125.45
0
LINE
8
BLACK
6
CONTINUOUS
10
74.7398
20
-125.45
11
75.2178
21
-125.411
0
LINE
8
BLACK
6
CONTINUOUS
10
75.2178
20
-125.411
11
75.6911
21
-125.334
0
LINE
8
BLACK
6
CONTINUOUS
10
75.6911
20
-125.334
11
76.1567
21
-125.22
0
LINE
8
BLACK
6
CONTINUOUS
10
76.1567
20
-125.22
11
76.6116
21
-125.068
0
LINE
8
BLACK
6
CONTINUOUS
10
76.6116
20
-125.068
11
77.0528
21
-124.88
0
LINE
8
BLACK
6
CONTINUOUS
10
77.0528
20
-124.88
11
77.4774
21
-124.657
0
LINE
8
BLACK
6
CONTINUOUS
10
77.4774
20
-124.657
11
77.8827
21
-124.401
0
LINE
8
BLACK
6
CONTINUOUS
10
77.8827
20
-124.401
11
78.2661
21
-124.113
0
LINE
8
BLACK
6
CONTINUOUS
10
78.2661
20
-124.113
11
78.6251
21
-123.795
0
LINE
8
BLACK
6
CONTINUOUS
10
78.6251
20
-123.795
11
78.9573
21
-123.449
0
LINE
8
BLACK
6
CONTINUOUS
10
78.9573
20
-123.449
11
79.2605
21
-123.077
0
LINE
8
BLACK
6
CONTINUOUS
10
79.2605
20
-123.077
11
79.533
21
-122.683
0
LINE
8
BLACK
6
CONTINUOUS
10
79.533
20
-122.683
11
79.7727
21
-122.267
0
LINE
8
BLACK
6
CONTINUOUS
10
79.7727
20
-122.267
11
79.9783
21
-121.834
0
LINE
8
BLACK
6
CONTINUOUS
10
79.9783
20
-121.834
11
80.1484
21
-121.386
0
LINE
8
BLACK
6
CONTINUOUS
10
80.1484
20
-121.386
11
80.2818
21
-120.925
0
LINE
8
BLACK
6
CONTINUOUS
10
80.2818
20
-120.925
11
80.3777
21
-120.455
0
LINE
8
BLACK
6
CONTINUOUS
10
80.3777
20
-120.455
11
80.4355
21
-119.979
0
LINE
8
BLACK
6
CONTINUOUS
10
80.4355
20
-119.979
11
80.4544
21
-119.511
0
LINE
8
BLACK
6
CONTINUOUS
10
80.4544
20
-119.511
11
80.45
21
-119.5
0
LINE
8
BLACK
6
CONTINUOUS
10
80.45
20
-119.5
11
80.45
21
-114
0
LINE
8
BLACK
6
CONTINUOUS
10
80.45
20
-114
11
80.4658
21
-113.779
0
LINE
8
BLACK
6
CONTINUOUS
10
80.4658
20
-113.779
11
80.5128
21
-113.563
0
LINE
8
BLACK
6
CONTINUOUS
10
80.5128
20
-113.563
11
80.5901
21
-113.356
0
LINE
8
BLACK
6
CONTINUOUS
10
80.5901
20
-113.356
11
80.6961
21
-113.162
0
LINE
8
BLACK
6
CONTINUOUS
10
80.6961
20
-113.162
11
80.8286
21
-112.985
0
LINE
8
BLACK
6
CONTINUOUS
10
80.8286
20
-112.985
11
80.985
21
-112.829
0
LINE
8
BLACK
6
CONTINUOUS
10
80.985
20
-112.829
11
81.162
21
-112.696
0
LINE
8
BLACK
6
CONTINUOUS
10
81.162
20
-112.696
11
81.3561
21
-112.59
0
LINE
8
BLACK
6
CONTINUOUS
10
81.3561
20
-112.59
11
81.5633
21
-112.513
0
LINE
8
BLACK
6
CONTINUOUS
10
81.5633
20
-112.513
11
81.7794
21
-112.466
0
LINE
8
BLACK
6
CONTINUOUS
10
81.7794
20
-112.466
11
82
21
-112.45
0
LINE
8
BLACK
6
CONTINUOUS
10
82
20
-112.45
11
86.5
21
-112.45
0
LINE
8
BLACK
6
CONTINUOUS
10
86.5
20
-112.45
11
86.7206
21
-112.466
0
LINE
8
BLACK
6
CONTINUOUS
10
86.7206
20
-112.466
11
86.9367
21
-112.513
0
LINE
8
BLACK
6
CONTINUOUS
10
86.9367
20
-112.513
11
87.1439
21
-112.59
0
LINE
8
BLACK
6
CONTINUOUS
10
87.1439
20
-112.59
11
87.338
21
-112.696
0
LINE
8
BLACK
6
CONTINUOUS
10
87.338
20
-112.696
11
87.515
21
-112.829
0
LINE
8
BLACK
6
CONTINUOUS
10
87.515
20
-112.829
11
87.6714
21
-112.985
0
LINE
8
BLACK
6
CONTINUOUS
10
87.6714
20
-112.985
11
87.8039
21
-113.162
0
LINE
8
BLACK
6
CONTINUOUS
10
87.8039
20
-113.162
11
87.9099
21
-113.356
0
LINE
8
BLACK
6
CONTINUOUS
10
87.9099
20
-113.356
11
87.9872
21
-113.563
0
LINE
8
BLACK
6
CONTINUOUS
10
87.9872
20
-113.563
11
88.0342
21
-113.779
0
LINE
8
BLACK
6
CONTINUOUS
10
88.0342
20
-113.779
11
88.05
21
-114
0
LINE
8
BLACK
6
CONTINUOUS
10
88.05
20
-114
11
88.05
21
-119
0
LINE
8
BLACK
6
CONTINUOUS
10
88.05
20
-119
11
88.0462
21
-119.009
0
LINE
8
BLACK
6
CONTINUOUS
10
88.0462
20
-119.009
11
88.0634
21
-119.228
0
LINE
8
BLACK
6
CONTINUOUS
10
88.0634
20
-119.228
11
88.1167
21
-119.449
0
LINE
8
BLACK
6
CONTINUOUS
10
88.1167
20
-119.449
11
88.204
21
-119.66
0
LINE
8
BLACK
6
CONTINUOUS
10
88.204
20
-119.66
11
88.3233
21
-119.855
0
LINE
8
BLACK
6
CONTINUOUS
10
88.3233
20
-119.855
11
88.4715
21
-120.028
0
LINE
8
BLACK
6
CONTINUOUS
10
88.4715
20
-120.028
11
88.6451
21
-120.177
0
LINE
8
BLACK
6
CONTINUOUS
10
88.6451
20
-120.177
11
88.8397
21
-120.296
0
LINE
8
BLACK
6
CONTINUOUS
10
88.8397
20
-120.296
11
89.0505
21
-120.383
0
LINE
8
BLACK
6
CONTINUOUS
10
89.0505
20
-120.383
11
89.2725
21
-120.437
0
LINE
8
BLACK
6
CONTINUOUS
10
89.2725
20
-120.437
11
89.4909
21
-120.454
0
LINE
8
BLACK
6
CONTINUOUS
10
89.4909
20
-120.454
11
89.5
21
-120.45
0
LINE
8
BLACK
6
CONTINUOUS
10
89.5
20
-120.45
11
107
21
-120.45
0
LINE
8
BLACK
6
CONTINUOUS
10
107
20
-120.45
11
107.009
21
-120.454
0
LINE
8
BLACK
6
CONTINUOUS
10
107.009
20
-120.454
11
107.02
21
-120.454
0
LINE
8
BLACK
6
CONTINUOUS
10
107.02
20
-120.454
11
135.01
21
-132.45
0
LINE
8
BLACK
6
CONTINUOUS
10
135.01
20
-132.45
11
154
21
-132.45
0
LINE
8
BLACK
6
CONTINUOUS
10
154
20
-132.45
11
154.006
21
-132.453
0
LINE
8
BLACK
6
CONTINUOUS
10
154.006
20
-132.453
11
154.013
21
-132.452
0
LINE
8
BLACK
6
CONTINUOUS
10
154.013
20
-132.452
11
172.513
21
-137.452
0
LINE
8
BLACK
6
CONTINUOUS
10
172.513
20
-137.452
11
172.518
21
-137.456
0
LINE
8
BLACK
6
CONTINUOUS
10
172.518
20
-137.456
11
172.524
21
-137.456
0
LINE
8
BLACK
6
CONTINUOUS
10
172.524
20
-137.456
11
195.024
21
-149.956
0
LINE
8
BLACK
6
CONTINUOUS
10
195.024
20
-149.956
11
195.03
21
-149.964
0
LINE
8
BLACK
6
CONTINUOUS
10
195.03
20
-149.964
11
195.457
21
-150.157
0
LINE
8
BLACK
6
CONTINUOUS
10
195.457
20
-150.157
11
195.908
21
-150.319
0
LINE
8
BLACK
6
CONTINUOUS
10
195.908
20
-150.319
11
196.37
21
-150.446
0
LINE
8
BLACK
6
CONTINUOUS
10
196.37
20
-150.446
11
196.841
21
-150.536
0
LINE
8
BLACK
6
CONTINUOUS
10
196.841
20
-150.536
11
197.317
21
-150.589
0
LINE
8
BLACK
6
CONTINUOUS
10
197.317
20
-150.589
11
197.796
21
-150.604
0
LINE
8
BLACK
6
CONTINUOUS
10
197.796
20
-150.604
11
198.275
21
-150.581
0
LINE
8
BLACK
6
CONTINUOUS
10
198.275
20
-150.581
11
198.751
21
-150.521
0
LINE
8
BLACK
6
CONTINUOUS
10
198.751
20
-150.521
11
199.22
21
-150.424
0
LINE
8
BLACK
6
CONTINUOUS
10
199.22
20
-150.424
11
199.68
21
-150.291
0
LINE
8
BLACK
6
CONTINUOUS
10
199.68
20
-150.291
11
200.129
21
-150.121
0
LINE
8
BLACK
6
CONTINUOUS
10
200.129
20
-150.121
11
200.562
21
-149.917
0
LINE
8
BLACK
6
CONTINUOUS
10
200.562
20
-149.917
11
200.979
21
-149.68
0
LINE
8
BLACK
6
CONTINUOUS
10
200.979
20
-149.68
11
201.375
21
-149.411
0
LINE
8
BLACK
6
CONTINUOUS
10
201.375
20
-149.411
11
201.749
21
-149.111
0
LINE
8
BLACK
6
CONTINUOUS
10
201.749
20
-149.111
11
202.099
21
-148.783
0
LINE
8
BLACK
6
CONTINUOUS
10
202.099
20
-148.783
11
202.421
21
-148.429
0
LINE
8
BLACK
6
CONTINUOUS
10
202.421
20
-148.429
11
202.715
21
-148.05
0
LINE
8
BLACK
6
CONTINUOUS
10
202.715
20
-148.05
11
202.978
21
-147.65
0
LINE
8
BLACK
6
CONTINUOUS
10
202.978
20
-147.65
11
203.209
21
-147.23
0
LINE
8
BLACK
6
CONTINUOUS
10
203.209
20
-147.23
11
203.407
21
-146.793
0
LINE
8
BLACK
6
CONTINUOUS
10
203.407
20
-146.793
11
203.569
21
-146.342
0
LINE
8
BLACK
6
CONTINUOUS
10
203.569
20
-146.342
11
203.696
21
-145.88
0
LINE
8
BLACK
6
CONTINUOUS
10
203.696
20
-145.88
11
203.786
21
-145.409
0
LINE
8
BLACK
6
CONTINUOUS
10
203.786
20
-145.409
11
203.839
21
-144.933
0
LINE
8
BLACK
6
CONTINUOUS
10
203.839
20
-144.933
11
203.854
21
-144.454
0
LINE
8
BLACK
6
CONTINUOUS
10
203.854
20
-144.454
11
203.831
21
-143.975
0
LINE
8
BLACK
6
CONTINUOUS
10
203.831
20
-143.975
11
203.771
21
-143.499
0
LINE
8
BLACK
6
CONTINUOUS
10
203.771
20
-143.499
11
203.674
21
-143.03
0
LINE
8
BLACK
6
CONTINUOUS
10
203.674
20
-143.03
11
203.541
21
-142.57
0
LINE
8
BLACK
6
CONTINUOUS
10
203.541
20
-142.57
11
203.371
21
-142.121
0
LINE
8
BLACK
6
CONTINUOUS
10
203.371
20
-142.121
11
203.167
21
-141.688
0
LINE
8
BLACK
6
CONTINUOUS
10
203.167
20
-141.688
11
202.93
21
-141.271
0
LINE
8
BLACK
6
CONTINUOUS
10
202.93
20
-141.271
11
202.661
21
-140.875
0
LINE
8
BLACK
6
CONTINUOUS
10
202.661
20
-140.875
11
202.361
21
-140.501
0
LINE
8
BLACK
6
CONTINUOUS
10
202.361
20
-140.501
11
202.033
21
-140.151
0
LINE
8
BLACK
6
CONTINUOUS
10
202.033
20
-140.151
11
201.679
21
-139.829
0
LINE
8
BLACK
6
CONTINUOUS
10
201.679
20
-139.829
11
201.3
21
-139.535
0
LINE
8
BLACK
6
CONTINUOUS
10
201.3
20
-139.535
11
200.9
21
-139.272
0
LINE
8
BLACK
6
CONTINUOUS
10
200.9
20
-139.272
11
200.489
21
-139.046
0
LINE
8
BLACK
6
CONTINUOUS
10
200.489
20
-139.046
11
200.478
21
-139.045
0
LINE
8
BLACK
6
CONTINUOUS
10
200.478
20
-139.045
11
196.978
21
-137.295
0
LINE
8
BLACK
6
CONTINUOUS
10
196.978
20
-137.295
11
196.976
21
-137.293
0
LINE
8
BLACK
6
CONTINUOUS
10
196.976
20
-137.293
11
196.974
21
-137.292
0
LINE
8
BLACK
6
CONTINUOUS
10
196.974
20
-137.292
11
196.733
21
-137.12
0
LINE
8
BLACK
6
CONTINUOUS
10
196.733
20
-137.12
11
196.515
21
-136.92
0
LINE
8
BLACK
6
CONTINUOUS
10
196.515
20
-136.92
11
196.323
21
-136.695
0
LINE
8
BLACK
6
CONTINUOUS
10
196.323
20
-136.695
11
196.16
21
-136.447
0
LINE
8
BLACK
6
CONTINUOUS
10
196.16
20
-136.447
11
196.029
21
-136.182
0
LINE
8
BLACK
6
CONTINUOUS
10
196.029
20
-136.182
11
195.932
21
-135.902
0
LINE
8
BLACK
6
CONTINUOUS
10
195.932
20
-135.902
11
195.869
21
-135.613
0
LINE
8
BLACK
6
CONTINUOUS
10
195.869
20
-135.613
11
195.842
21
-135.318
0
LINE
8
BLACK
6
CONTINUOUS
10
195.842
20
-135.318
11
195.852
21
-135.022
0
LINE
8
BLACK
6
CONTINUOUS
10
195.852
20
-135.022
11
195.898
21
-134.73
0
LINE
8
BLACK
6
CONTINUOUS
10
195.898
20
-134.73
11
195.98
21
-134.445
0
LINE
8
BLACK
6
CONTINUOUS
10
195.98
20
-134.445
11
196.096
21
-134.173
0
LINE
8
BLACK
6
CONTINUOUS
10
196.096
20
-134.173
11
196.097
21
-134.172
0
LINE
8
BLACK
6
CONTINUOUS
10
196.097
20
-134.172
11
196.097
21
-134.17
0
LINE
8
BLACK
6
CONTINUOUS
10
196.097
20
-134.17
11
203.45
21
-121.487
0
LINE
8
BLACK
6
CONTINUOUS
10
203.45
20
-121.487
11
203.45
21
-71.5
0
LINE
8
BLACK
6
CONTINUOUS
10
203.45
20
-71.5
11
203.466
21
-71.2794
0
LINE
8
BLACK
6
CONTINUOUS
10
203.466
20
-71.2794
11
203.513
21
-71.0633
0
LINE
8
BLACK
6
CONTINUOUS
10
203.513
20
-71.0633
11
203.59
21
-70.8561
0
LINE
8
BLACK
6
CONTINUOUS
10
203.59
20
-70.8561
11
203.696
21
-70.662
0
LINE
8
BLACK
6
CONTINUOUS
10
203.696
20
-70.662
11
203.829
21
-70.485
0
LINE
8
BLACK
6
CONTINUOUS
10
203.829
20
-70.485
11
203.985
21
-70.3286
0
LINE
8
BLACK
6
CONTINUOUS
10
203.985
20
-70.3286
11
204.162
21
-70.1961
0
LINE
8
BLACK
6
CONTINUOUS
10
204.162
20
-70.1961
11
204.356
21
-70.0901
0
LINE
8
BLACK
6
CONTINUOUS
10
204.356
20
-70.0901
11
204.563
21
-70.0128
0
LINE
8
BLACK
6
CONTINUOUS
10
204.563
20
-70.0128
11
204.779
21
-69.9658
0
LINE
8
BLACK
6
CONTINUOUS
10
204.779
20
-69.9658
11
205
21
-69.95
0
LINE
8
BLACK
6
CONTINUOUS
10
205
20
-69.95
11
210.5
21
-69.95
0
LINE
8
BLACK
6
CONTINUOUS
10
210.5
20
-69.95
11
210.511
21
-69.9544
0
LINE
8
BLACK
6
CONTINUOUS
10
210.511
20
-69.9544
11
210.979
21
-69.9355
0
LINE
8
BLACK
6
CONTINUOUS
10
210.979
20
-69.9355
11
211.455
21
-69.8777
0
LINE
8
BLACK
6
CONTINUOUS
10
211.455
20
-69.8777
11
211.925
21
-69.7818
0
LINE
8
BLACK
6
CONTINUOUS
10
211.925
20
-69.7818
11
212.386
21
-69.6484
0
LINE
8
BLACK
6
CONTINUOUS
10
212.386
20
-69.6484
11
212.834
21
-69.4783
0
LINE
8
BLACK
6
CONTINUOUS
10
212.834
20
-69.4783
11
213.267
21
-69.2727
0
LINE
8
BLACK
6
CONTINUOUS
10
213.267
20
-69.2727
11
213.683
21
-69.033
0
LINE
8
BLACK
6
CONTINUOUS
10
213.683
20
-69.033
11
214.077
21
-68.7605
0
LINE
8
BLACK
6
CONTINUOUS
10
214.077
20
-68.7605
11
214.449
21
-68.4573
0
LINE
8
BLACK
6
CONTINUOUS
10
214.449
20
-68.4573
11
214.795
21
-68.1251
0
LINE
8
BLACK
6
CONTINUOUS
10
214.795
20
-68.1251
11
215.113
21
-67.7661
0
LINE
8
BLACK
6
CONTINUOUS
10
215.113
20
-67.7661
11
215.401
21
-67.3827
0
LINE
8
BLACK
6
CONTINUOUS
10
215.401
20
-67.3827
11
215.657
21
-66.9774
0
LINE
8
BLACK
6
CONTINUOUS
10
215.657
20
-66.9774
11
215.88
21
-66.5528
0
LINE
8
BLACK
6
CONTINUOUS
10
215.88
20
-66.5528
11
216.068
21
-66.1116
0
LINE
8
BLACK
6
CONTINUOUS
10
216.068
20
-66.1116
11
216.22
21
-65.6567
0
LINE
8
BLACK
6
CONTINUOUS
10
216.22
20
-65.6567
11
216.334
21
-65.1911
0
LINE
8
BLACK
6
CONTINUOUS
10
216.334
20
-65.1911
11
216.411
21
-64.7178
0
LINE
8
BLACK
6
CONTINUOUS
10
216.411
20
-64.7178
11
216.45
21
-64.2398
0
LINE
8
BLACK
6
CONTINUOUS
10
216.45
20
-64.2398
11
216.45
21
-63.7602
0
LINE
8
BLACK
6
CONTINUOUS
10
216.45
20
-63.7602
11
216.411
21
-63.2822
0
LINE
8
BLACK
6
CONTINUOUS
10
216.411
20
-63.2822
11
216.334
21
-62.8089
0
LINE
8
BLACK
6
CONTINUOUS
10
216.334
20
-62.8089
11
216.22
21
-62.3433
0
LINE
8
BLACK
6
CONTINUOUS
10
216.22
20
-62.3433
11
216.068
21
-61.8884
0
LINE
8
BLACK
6
CONTINUOUS
10
216.068
20
-61.8884
11
215.88
21
-61.4472
0
LINE
8
BLACK
6
CONTINUOUS
10
215.88
20
-61.4472
11
215.657
21
-61.0226
0
LINE
8
BLACK
6
CONTINUOUS
10
215.657
20
-61.0226
11
215.401
21
-60.6173
0
LINE
8
BLACK
6
CONTINUOUS
10
215.401
20
-60.6173
11
215.113
21
-60.2339
0
LINE
8
BLACK
6
CONTINUOUS
10
215.113
20
-60.2339
11
214.795
21
-59.8749
0
LINE
8
BLACK
6
CONTINUOUS
10
214.795
20
-59.8749
11
214.449
21
-59.5427
0
LINE
8
BLACK
6
CONTINUOUS
10
214.449
20
-59.5427
11
214.077
21
-59.2395
0
LINE
8
BLACK
6
CONTINUOUS
10
214.077
20
-59.2395
11
213.683
21
-58.967
0
LINE
8
BLACK
6
CONTINUOUS
10
213.683
20
-58.967
11
213.267
21
-58.7273
0
LINE
8
BLACK
6
CONTINUOUS
10
213.267
20
-58.7273
11
212.834
21
-58.5217
0
LINE
8
BLACK
6
CONTINUOUS
10
212.834
20
-58.5217
11
212.386
21
-58.3516
0
LINE
8
BLACK
6
CONTINUOUS
10
212.386
20
-58.3516
11
211.925
21
-58.2182
0
LINE
8
BLACK
6
CONTINUOUS
10
211.925
20
-58.2182
11
211.455
21
-58.1223
0
LINE
8
BLACK
6
CONTINUOUS
10
211.455
20
-58.1223
11
210.979
21
-58.0645
0
LINE
8
BLACK
6
CONTINUOUS
10
210.979
20
-58.0645
11
210.511
21
-58.0456
0
LINE
8
BLACK
6
CONTINUOUS
10
210.511
20
-58.0456
11
210.5
21
-58.05
0
LINE
8
BLACK
6
CONTINUOUS
10
210.5
20
-58.05
11
165.5
21
-58.05
0
LINE
8
BLACK
6
CONTINUOUS
10
165.5
20
-58.05
11
165.279
21
-58.0342
0
LINE
8
BLACK
6
CONTINUOUS
10
165.279
20
-58.0342
11
165.063
21
-57.9872
0
LINE
8
BLACK
6
CONTINUOUS
10
165.063
20
-57.9872
11
164.856
21
-57.9099
0
LINE
8
BLACK
6
CONTINUOUS
10
164.856
20
-57.9099
11
164.662
21
-57.8039
0
LINE
8
BLACK
6
CONTINUOUS
10
164.662
20
-57.8039
11
164.485
21
-57.6714
0
LINE
8
BLACK
6
CONTINUOUS
10
164.485
20
-57.6714
11
164.329
21
-57.515
0
LINE
8
BLACK
6
CONTINUOUS
10
164.329
20
-57.515
11
164.196
21
-57.338
0
LINE
8
BLACK
6
CONTINUOUS
10
164.196
20
-57.338
11
164.09
21
-57.1439
0
LINE
8
BLACK
6
CONTINUOUS
10
164.09
20
-57.1439
11
164.013
21
-56.9367
0
LINE
8
BLACK
6
CONTINUOUS
10
164.013
20
-56.9367
11
163.966
21
-56.7206
0
LINE
8
BLACK
6
CONTINUOUS
10
163.966
20
-56.7206
11
163.95
21
-56.5
0
LINE
8
BLACK
6
CONTINUOUS
10
163.95
20
-56.5
11
163.954
21
-56.4909
0
LINE
8
BLACK
6
CONTINUOUS
10
163.954
20
-56.4909
11
163.937
21
-56.2725
0
LINE
8
BLACK
6
CONTINUOUS
10
163.937
20
-56.2725
11
163.883
21
-56.0505
0
LINE
8
BLACK
6
CONTINUOUS
10
163.883
20
-56.0505
11
163.796
21
-55.8397
0
LINE
8
BLACK
6
CONTINUOUS
10
163.796
20
-55.8397
11
163.677
21
-55.6451
0
LINE
8
BLACK
6
CONTINUOUS
10
163.677
20
-55.6451
11
163.528
21
-55.4715
0
LINE
8
BLACK
6
CONTINUOUS
10
163.528
20
-55.4715
11
163.355
21
-55.3233
0
LINE
8
BLACK
6
CONTINUOUS
10
163.355
20
-55.3233
11
163.16
21
-55.204
0
LINE
8
BLACK
6
CONTINUOUS
10
163.16
20
-55.204
11
162.949
21
-55.1167
0
LINE
8
BLACK
6
CONTINUOUS
10
162.949
20
-55.1167
11
162.728
21
-55.0634
0
LINE
8
BLACK
6
CONTINUOUS
10
162.728
20
-55.0634
11
162.509
21
-55.0462
0
LINE
8
BLACK
6
CONTINUOUS
10
162.509
20
-55.0462
11
162.5
21
-55.05
0
LINE
8
BLACK
6
CONTINUOUS
10
162.5
20
-55.05
11
146.5
21
-55.05
0
LINE
8
BLACK
6
CONTINUOUS
10
146.5
20
-55.05
11
146.279
21
-55.0342
0
LINE
8
BLACK
6
CONTINUOUS
10
146.279
20
-55.0342
11
146.063
21
-54.9872
0
LINE
8
BLACK
6
CONTINUOUS
10
146.063
20
-54.9872
11
145.856
21
-54.9099
0
LINE
8
BLACK
6
CONTINUOUS
10
145.856
20
-54.9099
11
145.662
21
-54.8039
0
LINE
8
BLACK
6
CONTINUOUS
10
145.662
20
-54.8039
11
145.485
21
-54.6714
0
LINE
8
BLACK
6
CONTINUOUS
10
145.485
20
-54.6714
11
145.329
21
-54.515
0
LINE
8
BLACK
6
CONTINUOUS
10
145.329
20
-54.515
11
145.196
21
-54.338
0
LINE
8
BLACK
6
CONTINUOUS
10
145.196
20
-54.338
11
145.09
21
-54.1439
0
LINE
8
BLACK
6
CONTINUOUS
10
145.09
20
-54.1439
11
145.013
21
-53.9367
0
LINE
8
BLACK
6
CONTINUOUS
10
145.013
20
-53.9367
11
144.966
21
-53.7206
0
LINE
8
BLACK
6
CONTINUOUS
10
144.966
20
-53.7206
11
144.95
21
-53.5
0
LINE
8
BLACK
6
CONTINUOUS
10
144.95
20
-53.5
11
144.95
21
-53
0
LINE
8
BLACK
6
CONTINUOUS
10
144.95
20
-53
11
144.954
21
-52.9909
0
LINE
8
BLACK
6
CONTINUOUS
10
144.954
20
-52.9909
11
144.937
21
-52.7725
0
LINE
8
BLACK
6
CONTINUOUS
10
144.937
20
-52.7725
11
144.883
21
-52.5505
0
LINE
8
BLACK
6
CONTINUOUS
10
144.883
20
-52.5505
11
144.796
21
-52.3397
0
LINE
8
BLACK
6
CONTINUOUS
10
144.796
20
-52.3397
11
144.677
21
-52.1451
0
LINE
8
BLACK
6
CONTINUOUS
10
144.677
20
-52.1451
11
144.528
21
-51.9715
0
LINE
8
BLACK
6
CONTINUOUS
10
144.528
20
-51.9715
11
144.355
21
-51.8233
0
LINE
8
BLACK
6
CONTINUOUS
10
144.355
20
-51.8233
11
144.16
21
-51.704
0
LINE
8
BLACK
6
CONTINUOUS
10
144.16
20
-51.704
11
143.949
21
-51.6167
0
LINE
8
BLACK
6
CONTINUOUS
10
143.949
20
-51.6167
11
143.728
21
-51.5634
0
LINE
8
BLACK
6
CONTINUOUS
10
143.728
20
-51.5634
11
143.509
21
-51.5462
0
LINE
8
BLACK
6
CONTINUOUS
10
143.509
20
-51.5462
11
143.5
21
-51.55
0
LINE
8
BLACK
6
CONTINUOUS
10
143.5
20
-51.55
11
127.5
21
-51.55
0
LINE
8
BLACK
6
CONTINUOUS
10
127.5
20
-51.55
11
127.491
21
-51.5462
  0
ENDSEC
  0
EOF
