  0
SECTION
  2
HEADER
  9
$ANGBASE
  50
0.0
  9
$ANGDIR
  70
1
  9
$MEASUREMENT
  70
1
  0
ENDSEC
  0
SECTION
  2
TABLES
  0
TABLE
  2
LTYPE
  70
4
  0
LTYPE
  5
40F
  2
CONTINUOUS
  70
0
  3
Solid line
  72
65
  73
0
  40
0.0
  0
LTYPE
  5
410
  2
DASHDOT
 70
0
  3
Dash Dot ____ _ ____ _
 72
65
 73
4
 40
2.0
 49
1.25
 49
-0.25
 49
0.25
 49
-0.25
  0
LTYPE
  5
411
  2
DASHED
 70
0
  3
Dashed __ __ __ __ __
 72
65
 73
2
 40
0.75
 49
0.5
 49
-0.25
  0
LTYPE
  5
43B
  2
DOTTED
 70
0
  3
Dotted .  .  .  .
 72
65
 73
2
 40
0.2
 49
0.0
 49
-0.2
  0
ENDTAB
  0
TABLE
  2
STYLE
  70
4
  0
STYLE
  2
KICAD
  70
0
  40
0
  41
1
  42
1
  50
0
  71
0
  3
isocp.shx
  0
STYLE
  2
KICADB
  70
0
  40
0
  41
1
  42
1
  50
0
  71
0
  3
isocp.shx
  0
STYLE
  2
KICADI
  70
0
  40
0
  41
1
  42
1
  50
15
  71
0
  3
isocp.shx
  0
STYLE
  2
KICADBI
  70
0
  40
0
  41
1
  42
1
  50
15
  71
0
  3
isocp.shx
  0
ENDTAB
  0
TABLE
  2
LAYER
  70
1
  0
LAYER
  2
BLACK
  70
0
  62
7
  6
CONTINUOUS
  0
ENDTAB
  0
ENDSEC
  0
SECTION
  2
ENTITIES
0
LINE
8
BLACK
6
CONTINUOUS
10
200.62
20
-115.106
11
200.827
21
-115.147
0
LINE
8
BLACK
6
CONTINUOUS
10
200.827
20
-115.147
11
201.022
21
-115.225
0
LINE
8
BLACK
6
CONTINUOUS
10
201.022
20
-115.225
11
201.2
21
-115.338
0
LINE
8
BLACK
6
CONTINUOUS
10
201.2
20
-115.338
11
201.355
21
-115.48
0
LINE
8
BLACK
6
CONTINUOUS
10
201.355
20
-115.48
11
201.481
21
-115.649
0
LINE
8
BLACK
6
CONTINUOUS
10
201.481
20
-115.649
11
201.574
21
-115.838
0
LINE
8
BLACK
6
CONTINUOUS
10
201.574
20
-115.838
11
201.631
21
-116.04
0
LINE
8
BLACK
6
CONTINUOUS
10
201.631
20
-116.04
11
201.65
21
-116.25
0
LINE
8
BLACK
6
CONTINUOUS
10
201.65
20
-116.25
11
201.648
21
-116.31
0
LINE
8
BLACK
6
CONTINUOUS
10
201.648
20
-116.31
11
201.618
21
-116.518
0
LINE
8
BLACK
6
CONTINUOUS
10
201.618
20
-116.518
11
201.551
21
-116.718
0
LINE
8
BLACK
6
CONTINUOUS
10
201.551
20
-116.718
11
201.448
21
-116.901
0
LINE
8
BLACK
6
CONTINUOUS
10
201.448
20
-116.901
11
201.313
21
-117.063
0
LINE
8
BLACK
6
CONTINUOUS
10
201.313
20
-117.063
11
201.151
21
-117.198
0
LINE
8
BLACK
6
CONTINUOUS
10
201.151
20
-117.198
11
200.968
21
-117.301
0
LINE
8
BLACK
6
CONTINUOUS
10
200.968
20
-117.301
11
200.768
21
-117.368
0
LINE
8
BLACK
6
CONTINUOUS
10
200.768
20
-117.368
11
200.56
21
-117.398
0
LINE
8
BLACK
6
CONTINUOUS
10
200.56
20
-117.398
11
200.35
21
-117.39
0
LINE
8
BLACK
6
CONTINUOUS
10
200.35
20
-117.39
11
200.145
21
-117.344
0
LINE
8
BLACK
6
CONTINUOUS
10
200.145
20
-117.344
11
199.951
21
-117.261
0
LINE
8
BLACK
6
CONTINUOUS
10
199.951
20
-117.261
11
199.776
21
-117.144
0
LINE
8
BLACK
6
CONTINUOUS
10
199.776
20
-117.144
11
199.626
21
-116.997
0
LINE
8
BLACK
6
CONTINUOUS
10
199.626
20
-116.997
11
199.504
21
-116.825
0
LINE
8
BLACK
6
CONTINUOUS
10
199.504
20
-116.825
11
199.416
21
-116.634
0
LINE
8
BLACK
6
CONTINUOUS
10
199.416
20
-116.634
11
199.364
21
-116.43
0
LINE
8
BLACK
6
CONTINUOUS
10
199.364
20
-116.43
11
199.35
21
-116.22
0
LINE
8
BLACK
6
CONTINUOUS
10
199.35
20
-116.22
11
199.375
21
-116.011
0
LINE
8
BLACK
6
CONTINUOUS
10
199.375
20
-116.011
11
199.438
21
-115.81
0
LINE
8
BLACK
6
CONTINUOUS
10
199.438
20
-115.81
11
199.536
21
-115.624
0
LINE
8
BLACK
6
CONTINUOUS
10
199.536
20
-115.624
11
199.666
21
-115.458
0
LINE
8
BLACK
6
CONTINUOUS
10
199.666
20
-115.458
11
199.824
21
-115.32
0
LINE
8
BLACK
6
CONTINUOUS
10
199.824
20
-115.32
11
200.005
21
-115.212
0
LINE
8
BLACK
6
CONTINUOUS
10
200.005
20
-115.212
11
200.202
21
-115.139
0
LINE
8
BLACK
6
CONTINUOUS
10
200.202
20
-115.139
11
200.41
21
-115.104
0
LINE
8
BLACK
6
CONTINUOUS
10
200.41
20
-115.104
11
200.62
21
-115.106
0
LINE
8
BLACK
6
CONTINUOUS
10
187.62
20
-107.856
11
187.827
21
-107.897
0
LINE
8
BLACK
6
CONTINUOUS
10
187.827
20
-107.897
11
188.022
21
-107.975
0
LINE
8
BLACK
6
CONTINUOUS
10
188.022
20
-107.975
11
188.2
21
-108.088
0
LINE
8
BLACK
6
CONTINUOUS
10
188.2
20
-108.088
11
188.355
21
-108.23
0
LINE
8
BLACK
6
CONTINUOUS
10
188.355
20
-108.23
11
188.481
21
-108.399
0
LINE
8
BLACK
6
CONTINUOUS
10
188.481
20
-108.399
11
188.574
21
-108.588
0
LINE
8
BLACK
6
CONTINUOUS
10
188.574
20
-108.588
11
188.631
21
-108.79
0
LINE
8
BLACK
6
CONTINUOUS
10
188.631
20
-108.79
11
188.65
21
-109
0
LINE
8
BLACK
6
CONTINUOUS
10
188.65
20
-109
11
188.648
21
-109.06
0
LINE
8
BLACK
6
CONTINUOUS
10
188.648
20
-109.06
11
188.618
21
-109.268
0
LINE
8
BLACK
6
CONTINUOUS
10
188.618
20
-109.268
11
188.551
21
-109.468
0
LINE
8
BLACK
6
CONTINUOUS
10
188.551
20
-109.468
11
188.448
21
-109.651
0
LINE
8
BLACK
6
CONTINUOUS
10
188.448
20
-109.651
11
188.313
21
-109.813
0
LINE
8
BLACK
6
CONTINUOUS
10
188.313
20
-109.813
11
188.151
21
-109.948
0
LINE
8
BLACK
6
CONTINUOUS
10
188.151
20
-109.948
11
187.968
21
-110.051
0
LINE
8
BLACK
6
CONTINUOUS
10
187.968
20
-110.051
11
187.768
21
-110.118
0
LINE
8
BLACK
6
CONTINUOUS
10
187.768
20
-110.118
11
187.56
21
-110.148
0
LINE
8
BLACK
6
CONTINUOUS
10
187.56
20
-110.148
11
187.35
21
-110.14
0
LINE
8
BLACK
6
CONTINUOUS
10
187.35
20
-110.14
11
187.145
21
-110.094
0
LINE
8
BLACK
6
CONTINUOUS
10
187.145
20
-110.094
11
186.951
21
-110.011
0
LINE
8
BLACK
6
CONTINUOUS
10
186.951
20
-110.011
11
186.776
21
-109.894
0
LINE
8
BLACK
6
CONTINUOUS
10
186.776
20
-109.894
11
186.626
21
-109.747
0
LINE
8
BLACK
6
CONTINUOUS
10
186.626
20
-109.747
11
186.504
21
-109.575
0
LINE
8
BLACK
6
CONTINUOUS
10
186.504
20
-109.575
11
186.416
21
-109.384
0
LINE
8
BLACK
6
CONTINUOUS
10
186.416
20
-109.384
11
186.364
21
-109.18
0
LINE
8
BLACK
6
CONTINUOUS
10
186.364
20
-109.18
11
186.35
21
-108.97
0
LINE
8
BLACK
6
CONTINUOUS
10
186.35
20
-108.97
11
186.375
21
-108.761
0
LINE
8
BLACK
6
CONTINUOUS
10
186.375
20
-108.761
11
186.438
21
-108.56
0
LINE
8
BLACK
6
CONTINUOUS
10
186.438
20
-108.56
11
186.536
21
-108.374
0
LINE
8
BLACK
6
CONTINUOUS
10
186.536
20
-108.374
11
186.666
21
-108.208
0
LINE
8
BLACK
6
CONTINUOUS
10
186.666
20
-108.208
11
186.824
21
-108.07
0
LINE
8
BLACK
6
CONTINUOUS
10
186.824
20
-108.07
11
187.005
21
-107.962
0
LINE
8
BLACK
6
CONTINUOUS
10
187.005
20
-107.962
11
187.202
21
-107.889
0
LINE
8
BLACK
6
CONTINUOUS
10
187.202
20
-107.889
11
187.41
21
-107.854
0
LINE
8
BLACK
6
CONTINUOUS
10
187.41
20
-107.854
11
187.62
21
-107.856
0
LINE
8
BLACK
6
CONTINUOUS
10
202.221
20
-57.9658
11
202.437
21
-58.0128
0
LINE
8
BLACK
6
CONTINUOUS
10
202.437
20
-58.0128
11
202.644
21
-58.0901
0
LINE
8
BLACK
6
CONTINUOUS
10
202.644
20
-58.0901
11
202.838
21
-58.1961
0
LINE
8
BLACK
6
CONTINUOUS
10
202.838
20
-58.1961
11
203.015
21
-58.3286
0
LINE
8
BLACK
6
CONTINUOUS
10
203.015
20
-58.3286
11
203.171
21
-58.485
0
LINE
8
BLACK
6
CONTINUOUS
10
203.171
20
-58.485
11
203.304
21
-58.662
0
LINE
8
BLACK
6
CONTINUOUS
10
203.304
20
-58.662
11
203.41
21
-58.8561
0
LINE
8
BLACK
6
CONTINUOUS
10
203.41
20
-58.8561
11
203.487
21
-59.0633
0
LINE
8
BLACK
6
CONTINUOUS
10
203.487
20
-59.0633
11
203.534
21
-59.2794
0
LINE
8
BLACK
6
CONTINUOUS
10
203.534
20
-59.2794
11
203.55
21
-59.5
0
LINE
8
BLACK
6
CONTINUOUS
10
203.55
20
-59.5
11
203.55
21
-119.75
0
LINE
8
BLACK
6
CONTINUOUS
10
203.55
20
-119.75
11
203.547
21
-119.756
0
LINE
8
BLACK
6
CONTINUOUS
10
203.547
20
-119.756
11
203.548
21
-119.763
0
LINE
8
BLACK
6
CONTINUOUS
10
203.548
20
-119.763
11
203.548
21
-119.763
0
LINE
8
BLACK
6
CONTINUOUS
10
203.548
20
-119.763
11
203.489
21
-119.932
0
LINE
8
BLACK
6
CONTINUOUS
10
203.489
20
-119.932
11
203.402
21
-120.088
0
LINE
8
BLACK
6
CONTINUOUS
10
203.402
20
-120.088
11
203.291
21
-120.229
0
LINE
8
BLACK
6
CONTINUOUS
10
203.291
20
-120.229
11
203.158
21
-120.348
0
LINE
8
BLACK
6
CONTINUOUS
10
203.158
20
-120.348
11
203.007
21
-120.444
0
LINE
8
BLACK
6
CONTINUOUS
10
203.007
20
-120.444
11
202.842
21
-120.514
0
LINE
8
BLACK
6
CONTINUOUS
10
202.842
20
-120.514
11
202.667
21
-120.555
0
LINE
8
BLACK
6
CONTINUOUS
10
202.667
20
-120.555
11
202.488
21
-120.567
0
LINE
8
BLACK
6
CONTINUOUS
10
202.488
20
-120.567
11
202.31
21
-120.548
0
LINE
8
BLACK
6
CONTINUOUS
10
202.31
20
-120.548
11
202.138
21
-120.501
0
LINE
8
BLACK
6
CONTINUOUS
10
202.138
20
-120.501
11
201.976
21
-120.426
0
LINE
8
BLACK
6
CONTINUOUS
10
201.976
20
-120.426
11
201.975
21
-120.426
0
LINE
8
BLACK
6
CONTINUOUS
10
201.975
20
-120.426
11
184.575
21
-110.644
0
LINE
8
BLACK
6
CONTINUOUS
10
184.575
20
-110.644
11
184.575
21
-110.642
0
LINE
8
BLACK
6
CONTINUOUS
10
184.575
20
-110.642
11
184.573
21
-110.642
0
LINE
8
BLACK
6
CONTINUOUS
10
184.573
20
-110.642
11
184.573
21
-110.642
0
LINE
8
BLACK
6
CONTINUOUS
10
184.573
20
-110.642
11
184.332
21
-110.469
0
LINE
8
BLACK
6
CONTINUOUS
10
184.332
20
-110.469
11
184.112
21
-110.271
0
LINE
8
BLACK
6
CONTINUOUS
10
184.112
20
-110.271
11
183.916
21
-110.049
0
LINE
8
BLACK
6
CONTINUOUS
10
183.916
20
-110.049
11
183.745
21
-109.807
0
LINE
8
BLACK
6
CONTINUOUS
10
183.745
20
-109.807
11
183.603
21
-109.547
0
LINE
8
BLACK
6
CONTINUOUS
10
183.603
20
-109.547
11
183.49
21
-109.273
0
LINE
8
BLACK
6
CONTINUOUS
10
183.49
20
-109.273
11
183.408
21
-108.988
0
LINE
8
BLACK
6
CONTINUOUS
10
183.408
20
-108.988
11
183.359
21
-108.696
0
LINE
8
BLACK
6
CONTINUOUS
10
183.359
20
-108.696
11
183.342
21
-108.4
0
LINE
8
BLACK
6
CONTINUOUS
10
183.342
20
-108.4
11
183.342
21
-108.4
0
LINE
8
BLACK
6
CONTINUOUS
10
183.342
20
-108.4
11
183.342
21
-108.4
0
LINE
8
BLACK
6
CONTINUOUS
10
183.342
20
-108.4
11
183.342
21
-108.4
0
LINE
8
BLACK
6
CONTINUOUS
10
183.342
20
-108.4
11
183.35
21
-89.45
0
LINE
8
BLACK
6
CONTINUOUS
10
183.35
20
-89.45
11
183.35
21
-58.75
0
LINE
8
BLACK
6
CONTINUOUS
10
183.35
20
-58.75
11
183.365
21
-58.5939
0
LINE
8
BLACK
6
CONTINUOUS
10
183.365
20
-58.5939
11
183.411
21
-58.4439
0
LINE
8
BLACK
6
CONTINUOUS
10
183.411
20
-58.4439
11
183.485
21
-58.3055
0
LINE
8
BLACK
6
CONTINUOUS
10
183.485
20
-58.3055
11
183.584
21
-58.1843
0
LINE
8
BLACK
6
CONTINUOUS
10
183.584
20
-58.1843
11
183.706
21
-58.0848
0
LINE
8
BLACK
6
CONTINUOUS
10
183.706
20
-58.0848
11
183.844
21
-58.0109
0
LINE
8
BLACK
6
CONTINUOUS
10
183.844
20
-58.0109
11
183.994
21
-57.9654
0
LINE
8
BLACK
6
CONTINUOUS
10
183.994
20
-57.9654
11
184.15
21
-57.95
0
LINE
8
BLACK
6
CONTINUOUS
10
184.15
20
-57.95
11
202
21
-57.95
0
LINE
8
BLACK
6
CONTINUOUS
10
202
20
-57.95
11
202.221
21
-57.9658
0
LINE
8
BLACK
6
CONTINUOUS
10
184.143
20
-58.0473
11
184.013
21
-58.0601
0
LINE
8
BLACK
6
CONTINUOUS
10
184.013
20
-58.0601
11
183.881
21
-58.1002
0
LINE
8
BLACK
6
CONTINUOUS
10
183.881
20
-58.1002
11
183.759
21
-58.1652
0
LINE
8
BLACK
6
CONTINUOUS
10
183.759
20
-58.1652
11
183.653
21
-58.2526
0
LINE
8
BLACK
6
CONTINUOUS
10
183.653
20
-58.2526
11
183.565
21
-58.3592
0
LINE
8
BLACK
6
CONTINUOUS
10
183.565
20
-58.3592
11
183.5
21
-58.4808
0
LINE
8
BLACK
6
CONTINUOUS
10
183.5
20
-58.4808
11
183.46
21
-58.6128
0
LINE
8
BLACK
6
CONTINUOUS
10
183.46
20
-58.6128
11
183.447
21
-58.7434
0
LINE
8
BLACK
6
CONTINUOUS
10
183.447
20
-58.7434
11
183.45
21
-58.75
0
LINE
8
BLACK
6
CONTINUOUS
10
183.45
20
-58.75
11
183.45
21
-89.45
0
LINE
8
BLACK
6
CONTINUOUS
10
183.45
20
-89.45
11
183.45
21
-89.45
0
LINE
8
BLACK
6
CONTINUOUS
10
183.45
20
-89.45
11
183.45
21
-89.45
0
LINE
8
BLACK
6
CONTINUOUS
10
183.45
20
-89.45
11
183.442
21
-108.4
0
LINE
8
BLACK
6
CONTINUOUS
10
183.442
20
-108.4
11
183.439
21
-108.409
0
LINE
8
BLACK
6
CONTINUOUS
10
183.439
20
-108.409
11
183.454
21
-108.685
0
LINE
8
BLACK
6
CONTINUOUS
10
183.454
20
-108.685
11
183.502
21
-108.967
0
LINE
8
BLACK
6
CONTINUOUS
10
183.502
20
-108.967
11
183.58
21
-109.241
0
LINE
8
BLACK
6
CONTINUOUS
10
183.58
20
-109.241
11
183.689
21
-109.506
0
LINE
8
BLACK
6
CONTINUOUS
10
183.689
20
-109.506
11
183.827
21
-109.756
0
LINE
8
BLACK
6
CONTINUOUS
10
183.827
20
-109.756
11
183.991
21
-109.99
0
LINE
8
BLACK
6
CONTINUOUS
10
183.991
20
-109.99
11
184.181
21
-110.203
0
LINE
8
BLACK
6
CONTINUOUS
10
184.181
20
-110.203
11
184.393
21
-110.395
0
LINE
8
BLACK
6
CONTINUOUS
10
184.393
20
-110.395
11
184.617
21
-110.555
0
LINE
8
BLACK
6
CONTINUOUS
10
184.617
20
-110.555
11
184.625
21
-110.556
0
LINE
8
BLACK
6
CONTINUOUS
10
184.625
20
-110.556
11
202.025
21
-120.338
0
LINE
8
BLACK
6
CONTINUOUS
10
202.025
20
-120.338
11
202.025
21
-120.338
0
LINE
8
BLACK
6
CONTINUOUS
10
202.025
20
-120.338
11
202.025
21
-120.339
0
LINE
8
BLACK
6
CONTINUOUS
10
202.025
20
-120.339
11
202.03
21
-120.346
0
LINE
8
BLACK
6
CONTINUOUS
10
202.03
20
-120.346
11
202.186
21
-120.416
0
LINE
8
BLACK
6
CONTINUOUS
10
202.186
20
-120.416
11
202.36
21
-120.46
0
LINE
8
BLACK
6
CONTINUOUS
10
202.36
20
-120.46
11
202.539
21
-120.471
0
LINE
8
BLACK
6
CONTINUOUS
10
202.539
20
-120.471
11
202.717
21
-120.448
0
LINE
8
BLACK
6
CONTINUOUS
10
202.717
20
-120.448
11
202.888
21
-120.394
0
LINE
8
BLACK
6
CONTINUOUS
10
202.888
20
-120.394
11
203.047
21
-120.31
0
LINE
8
BLACK
6
CONTINUOUS
10
203.047
20
-120.31
11
203.187
21
-120.198
0
LINE
8
BLACK
6
CONTINUOUS
10
203.187
20
-120.198
11
203.304
21
-120.062
0
LINE
8
BLACK
6
CONTINUOUS
10
203.304
20
-120.062
11
203.395
21
-119.907
0
LINE
8
BLACK
6
CONTINUOUS
10
203.395
20
-119.907
11
203.451
21
-119.752
0
LINE
8
BLACK
6
CONTINUOUS
10
203.451
20
-119.752
11
203.45
21
-119.75
0
LINE
8
BLACK
6
CONTINUOUS
10
203.45
20
-119.75
11
203.45
21
-59.5
0
LINE
8
BLACK
6
CONTINUOUS
10
203.45
20
-59.5
11
203.454
21
-59.4909
0
LINE
8
BLACK
6
CONTINUOUS
10
203.454
20
-59.4909
11
203.437
21
-59.2725
0
LINE
8
BLACK
6
CONTINUOUS
10
203.437
20
-59.2725
11
203.383
21
-59.0505
0
LINE
8
BLACK
6
CONTINUOUS
10
203.383
20
-59.0505
11
203.296
21
-58.8397
0
LINE
8
BLACK
6
CONTINUOUS
10
203.296
20
-58.8397
11
203.177
21
-58.6451
0
LINE
8
BLACK
6
CONTINUOUS
10
203.177
20
-58.6451
11
203.028
21
-58.4715
0
LINE
8
BLACK
6
CONTINUOUS
10
203.028
20
-58.4715
11
202.855
21
-58.3233
0
LINE
8
BLACK
6
CONTINUOUS
10
202.855
20
-58.3233
11
202.66
21
-58.204
0
LINE
8
BLACK
6
CONTINUOUS
10
202.66
20
-58.204
11
202.449
21
-58.1167
0
LINE
8
BLACK
6
CONTINUOUS
10
202.449
20
-58.1167
11
202.228
21
-58.0634
0
LINE
8
BLACK
6
CONTINUOUS
10
202.228
20
-58.0634
11
202.009
21
-58.0462
0
LINE
8
BLACK
6
CONTINUOUS
10
202.009
20
-58.0462
11
202
21
-58.05
0
LINE
8
BLACK
6
CONTINUOUS
10
202
20
-58.05
11
184.15
21
-58.05
0
LINE
8
BLACK
6
CONTINUOUS
10
184.15
20
-58.05
11
184.143
21
-58.0473
  0
ENDSEC
  0
EOF
