  0
SECTION
  2
HEADER
  9
$ANGBASE
  50
0.0
  9
$ANGDIR
  70
1
  9
$MEASUREMENT
  70
1
  0
ENDSEC
  0
SECTION
  2
TABLES
  0
TABLE
  2
LTYPE
  70
4
  0
LTYPE
  5
40F
  2
CONTINUOUS
  70
0
  3
Solid line
  72
65
  73
0
  40
0.0
  0
LTYPE
  5
410
  2
DASHDOT
 70
0
  3
Dash Dot ____ _ ____ _
 72
65
 73
4
 40
2.0
 49
1.25
 49
-0.25
 49
0.25
 49
-0.25
  0
LTYPE
  5
411
  2
DASHED
 70
0
  3
Dashed __ __ __ __ __
 72
65
 73
2
 40
0.75
 49
0.5
 49
-0.25
  0
LTYPE
  5
43B
  2
DOTTED
 70
0
  3
Dotted .  .  .  .
 72
65
 73
2
 40
0.2
 49
0.0
 49
-0.2
  0
ENDTAB
  0
TABLE
  2
STYLE
  70
4
  0
STYLE
  2
KICAD
  70
0
  40
0
  41
1
  42
1
  50
0
  71
0
  3
isocp.shx
  0
STYLE
  2
KICADB
  70
0
  40
0
  41
1
  42
1
  50
0
  71
0
  3
isocp.shx
  0
STYLE
  2
KICADI
  70
0
  40
0
  41
1
  42
1
  50
15
  71
0
  3
isocp.shx
  0
STYLE
  2
KICADBI
  70
0
  40
0
  41
1
  42
1
  50
15
  71
0
  3
isocp.shx
  0
ENDTAB
  0
TABLE
  2
LAYER
  70
1
  0
LAYER
  2
BLACK
  70
0
  62
7
  6
CONTINUOUS
  0
ENDTAB
  0
ENDSEC
  0
SECTION
  2
ENTITIES
0
LINE
8
BLACK
6
CONTINUOUS
10
138.87
20
-82.8563
11
139.077
21
-82.8974
0
LINE
8
BLACK
6
CONTINUOUS
10
139.077
20
-82.8974
11
139.272
21
-82.9753
0
LINE
8
BLACK
6
CONTINUOUS
10
139.272
20
-82.9753
11
139.45
21
-83.0876
0
LINE
8
BLACK
6
CONTINUOUS
10
139.45
20
-83.0876
11
139.605
21
-83.2305
0
LINE
8
BLACK
6
CONTINUOUS
10
139.605
20
-83.2305
11
139.731
21
-83.3991
0
LINE
8
BLACK
6
CONTINUOUS
10
139.731
20
-83.3991
11
139.824
21
-83.5879
0
LINE
8
BLACK
6
CONTINUOUS
10
139.824
20
-83.5879
11
139.881
21
-83.7904
0
LINE
8
BLACK
6
CONTINUOUS
10
139.881
20
-83.7904
11
139.9
21
-84
0
LINE
8
BLACK
6
CONTINUOUS
10
139.9
20
-84
11
139.898
21
-84.0602
0
LINE
8
BLACK
6
CONTINUOUS
10
139.898
20
-84.0602
11
139.868
21
-84.2685
0
LINE
8
BLACK
6
CONTINUOUS
10
139.868
20
-84.2685
11
139.801
21
-84.4677
0
LINE
8
BLACK
6
CONTINUOUS
10
139.801
20
-84.4677
11
139.698
21
-84.6514
0
LINE
8
BLACK
6
CONTINUOUS
10
139.698
20
-84.6514
11
139.563
21
-84.8132
0
LINE
8
BLACK
6
CONTINUOUS
10
139.563
20
-84.8132
11
139.401
21
-84.9477
0
LINE
8
BLACK
6
CONTINUOUS
10
139.401
20
-84.9477
11
139.218
21
-85.0506
0
LINE
8
BLACK
6
CONTINUOUS
10
139.218
20
-85.0506
11
139.018
21
-85.1182
0
LINE
8
BLACK
6
CONTINUOUS
10
139.018
20
-85.1182
11
138.81
21
-85.1484
0
LINE
8
BLACK
6
CONTINUOUS
10
138.81
20
-85.1484
11
138.6
21
-85.1402
0
LINE
8
BLACK
6
CONTINUOUS
10
138.6
20
-85.1402
11
138.395
21
-85.0937
0
LINE
8
BLACK
6
CONTINUOUS
10
138.395
20
-85.0937
11
138.201
21
-85.0106
0
LINE
8
BLACK
6
CONTINUOUS
10
138.201
20
-85.0106
11
138.026
21
-84.8937
0
LINE
8
BLACK
6
CONTINUOUS
10
138.026
20
-84.8937
11
137.876
21
-84.7469
0
LINE
8
BLACK
6
CONTINUOUS
10
137.876
20
-84.7469
11
137.754
21
-84.575
0
LINE
8
BLACK
6
CONTINUOUS
10
137.754
20
-84.575
11
137.666
21
-84.3839
0
LINE
8
BLACK
6
CONTINUOUS
10
137.666
20
-84.3839
11
137.614
21
-84.1799
0
LINE
8
BLACK
6
CONTINUOUS
10
137.614
20
-84.1799
11
137.6
21
-83.9699
0
LINE
8
BLACK
6
CONTINUOUS
10
137.6
20
-83.9699
11
137.625
21
-83.7609
0
LINE
8
BLACK
6
CONTINUOUS
10
137.625
20
-83.7609
11
137.688
21
-83.5599
0
LINE
8
BLACK
6
CONTINUOUS
10
137.688
20
-83.5599
11
137.786
21
-83.3737
0
LINE
8
BLACK
6
CONTINUOUS
10
137.786
20
-83.3737
11
137.916
21
-83.2084
0
LINE
8
BLACK
6
CONTINUOUS
10
137.916
20
-83.2084
11
138.074
21
-83.0696
0
LINE
8
BLACK
6
CONTINUOUS
10
138.074
20
-83.0696
11
138.255
21
-82.962
0
LINE
8
BLACK
6
CONTINUOUS
10
138.255
20
-82.962
11
138.452
21
-82.8892
0
LINE
8
BLACK
6
CONTINUOUS
10
138.452
20
-82.8892
11
138.66
21
-82.8535
0
LINE
8
BLACK
6
CONTINUOUS
10
138.66
20
-82.8535
11
138.87
21
-82.8563
0
LINE
8
BLACK
6
CONTINUOUS
10
130.12
20
-82.8563
11
130.327
21
-82.8974
0
LINE
8
BLACK
6
CONTINUOUS
10
130.327
20
-82.8974
11
130.522
21
-82.9753
0
LINE
8
BLACK
6
CONTINUOUS
10
130.522
20
-82.9753
11
130.7
21
-83.0876
0
LINE
8
BLACK
6
CONTINUOUS
10
130.7
20
-83.0876
11
130.855
21
-83.2305
0
LINE
8
BLACK
6
CONTINUOUS
10
130.855
20
-83.2305
11
130.981
21
-83.3991
0
LINE
8
BLACK
6
CONTINUOUS
10
130.981
20
-83.3991
11
131.074
21
-83.5879
0
LINE
8
BLACK
6
CONTINUOUS
10
131.074
20
-83.5879
11
131.131
21
-83.7904
0
LINE
8
BLACK
6
CONTINUOUS
10
131.131
20
-83.7904
11
131.15
21
-84
0
LINE
8
BLACK
6
CONTINUOUS
10
131.15
20
-84
11
131.148
21
-84.0602
0
LINE
8
BLACK
6
CONTINUOUS
10
131.148
20
-84.0602
11
131.118
21
-84.2685
0
LINE
8
BLACK
6
CONTINUOUS
10
131.118
20
-84.2685
11
131.051
21
-84.4677
0
LINE
8
BLACK
6
CONTINUOUS
10
131.051
20
-84.4677
11
130.948
21
-84.6514
0
LINE
8
BLACK
6
CONTINUOUS
10
130.948
20
-84.6514
11
130.813
21
-84.8132
0
LINE
8
BLACK
6
CONTINUOUS
10
130.813
20
-84.8132
11
130.651
21
-84.9477
0
LINE
8
BLACK
6
CONTINUOUS
10
130.651
20
-84.9477
11
130.468
21
-85.0506
0
LINE
8
BLACK
6
CONTINUOUS
10
130.468
20
-85.0506
11
130.268
21
-85.1182
0
LINE
8
BLACK
6
CONTINUOUS
10
130.268
20
-85.1182
11
130.06
21
-85.1484
0
LINE
8
BLACK
6
CONTINUOUS
10
130.06
20
-85.1484
11
129.85
21
-85.1402
0
LINE
8
BLACK
6
CONTINUOUS
10
129.85
20
-85.1402
11
129.645
21
-85.0937
0
LINE
8
BLACK
6
CONTINUOUS
10
129.645
20
-85.0937
11
129.451
21
-85.0106
0
LINE
8
BLACK
6
CONTINUOUS
10
129.451
20
-85.0106
11
129.276
21
-84.8937
0
LINE
8
BLACK
6
CONTINUOUS
10
129.276
20
-84.8937
11
129.126
21
-84.7469
0
LINE
8
BLACK
6
CONTINUOUS
10
129.126
20
-84.7469
11
129.004
21
-84.575
0
LINE
8
BLACK
6
CONTINUOUS
10
129.004
20
-84.575
11
128.916
21
-84.3839
0
LINE
8
BLACK
6
CONTINUOUS
10
128.916
20
-84.3839
11
128.864
21
-84.1799
0
LINE
8
BLACK
6
CONTINUOUS
10
128.864
20
-84.1799
11
128.85
21
-83.9699
0
LINE
8
BLACK
6
CONTINUOUS
10
128.85
20
-83.9699
11
128.875
21
-83.7609
0
LINE
8
BLACK
6
CONTINUOUS
10
128.875
20
-83.7609
11
128.938
21
-83.5599
0
LINE
8
BLACK
6
CONTINUOUS
10
128.938
20
-83.5599
11
129.036
21
-83.3737
0
LINE
8
BLACK
6
CONTINUOUS
10
129.036
20
-83.3737
11
129.166
21
-83.2084
0
LINE
8
BLACK
6
CONTINUOUS
10
129.166
20
-83.2084
11
129.324
21
-83.0696
0
LINE
8
BLACK
6
CONTINUOUS
10
129.324
20
-83.0696
11
129.505
21
-82.962
0
LINE
8
BLACK
6
CONTINUOUS
10
129.505
20
-82.962
11
129.702
21
-82.8892
0
LINE
8
BLACK
6
CONTINUOUS
10
129.702
20
-82.8892
11
129.91
21
-82.8535
0
LINE
8
BLACK
6
CONTINUOUS
10
129.91
20
-82.8535
11
130.12
21
-82.8563
0
LINE
8
BLACK
6
CONTINUOUS
10
144.721
20
-59.9658
11
144.937
21
-60.0128
0
LINE
8
BLACK
6
CONTINUOUS
10
144.937
20
-60.0128
11
145.144
21
-60.0901
0
LINE
8
BLACK
6
CONTINUOUS
10
145.144
20
-60.0901
11
145.338
21
-60.1961
0
LINE
8
BLACK
6
CONTINUOUS
10
145.338
20
-60.1961
11
145.515
21
-60.3286
0
LINE
8
BLACK
6
CONTINUOUS
10
145.515
20
-60.3286
11
145.671
21
-60.485
0
LINE
8
BLACK
6
CONTINUOUS
10
145.671
20
-60.485
11
145.804
21
-60.662
0
LINE
8
BLACK
6
CONTINUOUS
10
145.804
20
-60.662
11
145.91
21
-60.8561
0
LINE
8
BLACK
6
CONTINUOUS
10
145.91
20
-60.8561
11
145.987
21
-61.0633
0
LINE
8
BLACK
6
CONTINUOUS
10
145.987
20
-61.0633
11
146.034
21
-61.2794
0
LINE
8
BLACK
6
CONTINUOUS
10
146.034
20
-61.2794
11
146.05
21
-61.5
0
LINE
8
BLACK
6
CONTINUOUS
10
146.05
20
-61.5
11
146.05
21
-117
0
LINE
8
BLACK
6
CONTINUOUS
10
146.05
20
-117
11
146.05
21
-117
0
LINE
8
BLACK
6
CONTINUOUS
10
146.05
20
-117
11
146.037
21
-117.232
0
LINE
8
BLACK
6
CONTINUOUS
10
146.037
20
-117.232
11
145.988
21
-117.459
0
LINE
8
BLACK
6
CONTINUOUS
10
145.988
20
-117.459
11
145.904
21
-117.677
0
LINE
8
BLACK
6
CONTINUOUS
10
145.904
20
-117.677
11
145.788
21
-117.879
0
LINE
8
BLACK
6
CONTINUOUS
10
145.788
20
-117.879
11
145.642
21
-118.06
0
LINE
8
BLACK
6
CONTINUOUS
10
145.642
20
-118.06
11
145.47
21
-118.217
0
LINE
8
BLACK
6
CONTINUOUS
10
145.47
20
-118.217
11
145.275
21
-118.346
0
LINE
8
BLACK
6
CONTINUOUS
10
145.275
20
-118.346
11
145.064
21
-118.443
0
LINE
8
BLACK
6
CONTINUOUS
10
145.064
20
-118.443
11
144.839
21
-118.506
0
LINE
8
BLACK
6
CONTINUOUS
10
144.839
20
-118.506
11
144.608
21
-118.534
0
LINE
8
BLACK
6
CONTINUOUS
10
144.608
20
-118.534
11
144.375
21
-118.526
0
LINE
8
BLACK
6
CONTINUOUS
10
144.375
20
-118.526
11
144.147
21
-118.482
0
LINE
8
BLACK
6
CONTINUOUS
10
144.147
20
-118.482
11
143.927
21
-118.403
0
LINE
8
BLACK
6
CONTINUOUS
10
143.927
20
-118.403
11
143.725
21
-118.293
0
LINE
8
BLACK
6
CONTINUOUS
10
143.725
20
-118.293
11
143.725
21
-118.293
0
LINE
8
BLACK
6
CONTINUOUS
10
143.725
20
-118.293
11
126.975
21
-108.543
0
LINE
8
BLACK
6
CONTINUOUS
10
126.975
20
-108.543
11
126.975
21
-108.543
0
LINE
8
BLACK
6
CONTINUOUS
10
126.975
20
-108.543
11
126.975
21
-108.543
0
LINE
8
BLACK
6
CONTINUOUS
10
126.975
20
-108.543
11
126.975
21
-108.543
0
LINE
8
BLACK
6
CONTINUOUS
10
126.975
20
-108.543
11
126.717
21
-108.373
0
LINE
8
BLACK
6
CONTINUOUS
10
126.717
20
-108.373
11
126.477
21
-108.179
0
LINE
8
BLACK
6
CONTINUOUS
10
126.477
20
-108.179
11
126.257
21
-107.961
0
LINE
8
BLACK
6
CONTINUOUS
10
126.257
20
-107.961
11
126.061
21
-107.723
0
LINE
8
BLACK
6
CONTINUOUS
10
126.061
20
-107.723
11
125.889
21
-107.467
0
LINE
8
BLACK
6
CONTINUOUS
10
125.889
20
-107.467
11
125.743
21
-107.194
0
LINE
8
BLACK
6
CONTINUOUS
10
125.743
20
-107.194
11
125.626
21
-106.909
0
LINE
8
BLACK
6
CONTINUOUS
10
125.626
20
-106.909
11
125.537
21
-106.613
0
LINE
8
BLACK
6
CONTINUOUS
10
125.537
20
-106.613
11
125.478
21
-106.31
0
LINE
8
BLACK
6
CONTINUOUS
10
125.478
20
-106.31
11
125.45
21
-106.002
0
LINE
8
BLACK
6
CONTINUOUS
10
125.45
20
-106.002
11
125.45
21
-106.002
0
LINE
8
BLACK
6
CONTINUOUS
10
125.45
20
-106.002
11
125.45
21
-106.001
0
LINE
8
BLACK
6
CONTINUOUS
10
125.45
20
-106.001
11
125.45
21
-106
0
LINE
8
BLACK
6
CONTINUOUS
10
125.45
20
-106
11
125.45
21
-60
0
LINE
8
BLACK
6
CONTINUOUS
10
125.45
20
-60
11
125.465
21
-59.9646
0
LINE
8
BLACK
6
CONTINUOUS
10
125.465
20
-59.9646
11
125.5
21
-59.95
0
LINE
8
BLACK
6
CONTINUOUS
10
125.5
20
-59.95
11
144.5
21
-59.95
0
LINE
8
BLACK
6
CONTINUOUS
10
144.5
20
-59.95
11
144.721
21
-59.9658
0
LINE
8
BLACK
6
CONTINUOUS
10
125.55
20
-106
11
125.547
21
-106.007
0
LINE
8
BLACK
6
CONTINUOUS
10
125.547
20
-106.007
11
125.574
21
-106.296
0
LINE
8
BLACK
6
CONTINUOUS
10
125.574
20
-106.296
11
125.631
21
-106.59
0
LINE
8
BLACK
6
CONTINUOUS
10
125.631
20
-106.59
11
125.716
21
-106.876
0
LINE
8
BLACK
6
CONTINUOUS
10
125.716
20
-106.876
11
125.831
21
-107.153
0
LINE
8
BLACK
6
CONTINUOUS
10
125.831
20
-107.153
11
125.971
21
-107.417
0
LINE
8
BLACK
6
CONTINUOUS
10
125.971
20
-107.417
11
126.138
21
-107.666
0
LINE
8
BLACK
6
CONTINUOUS
10
126.138
20
-107.666
11
126.329
21
-107.897
0
LINE
8
BLACK
6
CONTINUOUS
10
126.329
20
-107.897
11
126.541
21
-108.107
0
LINE
8
BLACK
6
CONTINUOUS
10
126.541
20
-108.107
11
126.773
21
-108.296
0
LINE
8
BLACK
6
CONTINUOUS
10
126.773
20
-108.296
11
127.017
21
-108.456
0
LINE
8
BLACK
6
CONTINUOUS
10
127.017
20
-108.456
11
127.025
21
-108.457
0
LINE
8
BLACK
6
CONTINUOUS
10
127.025
20
-108.457
11
127.025
21
-108.457
0
LINE
8
BLACK
6
CONTINUOUS
10
127.025
20
-108.457
11
127.025
21
-108.457
0
LINE
8
BLACK
6
CONTINUOUS
10
127.025
20
-108.457
11
127.025
21
-108.457
0
LINE
8
BLACK
6
CONTINUOUS
10
127.025
20
-108.457
11
143.775
21
-118.207
0
LINE
8
BLACK
6
CONTINUOUS
10
143.775
20
-118.207
11
143.776
21
-118.208
0
LINE
8
BLACK
6
CONTINUOUS
10
143.776
20
-118.208
11
143.777
21
-118.208
0
LINE
8
BLACK
6
CONTINUOUS
10
143.777
20
-118.208
11
143.782
21
-118.215
0
LINE
8
BLACK
6
CONTINUOUS
10
143.782
20
-118.215
11
143.967
21
-118.316
0
LINE
8
BLACK
6
CONTINUOUS
10
143.967
20
-118.316
11
144.172
21
-118.39
0
LINE
8
BLACK
6
CONTINUOUS
10
144.172
20
-118.39
11
144.386
21
-118.431
0
LINE
8
BLACK
6
CONTINUOUS
10
144.386
20
-118.431
11
144.604
21
-118.438
0
LINE
8
BLACK
6
CONTINUOUS
10
144.604
20
-118.438
11
144.821
21
-118.412
0
LINE
8
BLACK
6
CONTINUOUS
10
144.821
20
-118.412
11
145.031
21
-118.353
0
LINE
8
BLACK
6
CONTINUOUS
10
145.031
20
-118.353
11
145.229
21
-118.262
0
LINE
8
BLACK
6
CONTINUOUS
10
145.229
20
-118.262
11
145.411
21
-118.142
0
LINE
8
BLACK
6
CONTINUOUS
10
145.411
20
-118.142
11
145.572
21
-117.995
0
LINE
8
BLACK
6
CONTINUOUS
10
145.572
20
-117.995
11
145.709
21
-117.825
0
LINE
8
BLACK
6
CONTINUOUS
10
145.709
20
-117.825
11
145.817
21
-117.636
0
LINE
8
BLACK
6
CONTINUOUS
10
145.817
20
-117.636
11
145.896
21
-117.432
0
LINE
8
BLACK
6
CONTINUOUS
10
145.896
20
-117.432
11
145.942
21
-117.219
0
LINE
8
BLACK
6
CONTINUOUS
10
145.942
20
-117.219
11
145.954
21
-117.009
0
LINE
8
BLACK
6
CONTINUOUS
10
145.954
20
-117.009
11
145.95
21
-117.001
0
LINE
8
BLACK
6
CONTINUOUS
10
145.95
20
-117.001
11
145.95
21
-117
0
LINE
8
BLACK
6
CONTINUOUS
10
145.95
20
-117
11
145.95
21
-117
0
LINE
8
BLACK
6
CONTINUOUS
10
145.95
20
-117
11
145.95
21
-61.5
0
LINE
8
BLACK
6
CONTINUOUS
10
145.95
20
-61.5
11
145.954
21
-61.4909
0
LINE
8
BLACK
6
CONTINUOUS
10
145.954
20
-61.4909
11
145.937
21
-61.2725
0
LINE
8
BLACK
6
CONTINUOUS
10
145.937
20
-61.2725
11
145.883
21
-61.0505
0
LINE
8
BLACK
6
CONTINUOUS
10
145.883
20
-61.0505
11
145.796
21
-60.8397
0
LINE
8
BLACK
6
CONTINUOUS
10
145.796
20
-60.8397
11
145.677
21
-60.6451
0
LINE
8
BLACK
6
CONTINUOUS
10
145.677
20
-60.6451
11
145.528
21
-60.4715
0
LINE
8
BLACK
6
CONTINUOUS
10
145.528
20
-60.4715
11
145.355
21
-60.3233
0
LINE
8
BLACK
6
CONTINUOUS
10
145.355
20
-60.3233
11
145.16
21
-60.204
0
LINE
8
BLACK
6
CONTINUOUS
10
145.16
20
-60.204
11
144.949
21
-60.1167
0
LINE
8
BLACK
6
CONTINUOUS
10
144.949
20
-60.1167
11
144.728
21
-60.0634
0
LINE
8
BLACK
6
CONTINUOUS
10
144.728
20
-60.0634
11
144.509
21
-60.0462
0
LINE
8
BLACK
6
CONTINUOUS
10
144.509
20
-60.0462
11
144.5
21
-60.05
0
LINE
8
BLACK
6
CONTINUOUS
10
144.5
20
-60.05
11
125.55
21
-60.05
0
LINE
8
BLACK
6
CONTINUOUS
10
125.55
20
-60.05
11
125.55
21
-106
0
LINE
8
BLACK
6
CONTINUOUS
10
131.975
20
-102.799
11
132.039
21
-102.408
0
LINE
8
BLACK
6
CONTINUOUS
10
132.039
20
-102.408
11
132.14
21
-102.025
0
LINE
8
BLACK
6
CONTINUOUS
10
132.14
20
-102.025
11
132.278
21
-101.655
0
LINE
8
BLACK
6
CONTINUOUS
10
132.278
20
-101.655
11
132.451
21
-101.299
0
LINE
8
BLACK
6
CONTINUOUS
10
132.451
20
-101.299
11
132.658
21
-100.962
0
LINE
8
BLACK
6
CONTINUOUS
10
132.658
20
-100.962
11
132.898
21
-100.647
0
LINE
8
BLACK
6
CONTINUOUS
10
132.898
20
-100.647
11
133.166
21
-100.356
0
LINE
8
BLACK
6
CONTINUOUS
10
133.166
20
-100.356
11
133.462
21
-100.094
0
LINE
8
BLACK
6
CONTINUOUS
10
133.462
20
-100.094
11
133.782
21
-99.8611
0
LINE
8
BLACK
6
CONTINUOUS
10
133.782
20
-99.8611
11
134.124
21
-99.6609
0
LINE
8
BLACK
6
CONTINUOUS
10
134.124
20
-99.6609
11
134.483
21
-99.4949
0
LINE
8
BLACK
6
CONTINUOUS
10
134.483
20
-99.4949
11
134.857
21
-99.3648
0
LINE
8
BLACK
6
CONTINUOUS
10
134.857
20
-99.3648
11
135.241
21
-99.2717
0
LINE
8
BLACK
6
CONTINUOUS
10
135.241
20
-99.2717
11
135.633
21
-99.2167
0
LINE
8
BLACK
6
CONTINUOUS
10
135.633
20
-99.2167
11
136.028
21
-99.2001
0
LINE
8
BLACK
6
CONTINUOUS
10
136.028
20
-99.2001
11
136.423
21
-99.2222
0
LINE
8
BLACK
6
CONTINUOUS
10
136.423
20
-99.2222
11
136.814
21
-99.2827
0
LINE
8
BLACK
6
CONTINUOUS
10
136.814
20
-99.2827
11
137.198
21
-99.3811
0
LINE
8
BLACK
6
CONTINUOUS
10
137.198
20
-99.3811
11
137.569
21
-99.5165
0
LINE
8
BLACK
6
CONTINUOUS
10
137.569
20
-99.5165
11
137.926
21
-99.6874
0
LINE
8
BLACK
6
CONTINUOUS
10
137.926
20
-99.6874
11
138.265
21
-99.8924
0
LINE
8
BLACK
6
CONTINUOUS
10
138.265
20
-99.8924
11
138.582
21
-100.129
0
LINE
8
BLACK
6
CONTINUOUS
10
138.582
20
-100.129
11
138.874
21
-100.396
0
LINE
8
BLACK
6
CONTINUOUS
10
138.874
20
-100.396
11
139.139
21
-100.69
0
LINE
8
BLACK
6
CONTINUOUS
10
139.139
20
-100.69
11
139.373
21
-101.009
0
LINE
8
BLACK
6
CONTINUOUS
10
139.373
20
-101.009
11
139.576
21
-101.349
0
LINE
8
BLACK
6
CONTINUOUS
10
139.576
20
-101.349
11
139.744
21
-101.707
0
LINE
8
BLACK
6
CONTINUOUS
10
139.744
20
-101.707
11
139.877
21
-102.079
0
LINE
8
BLACK
6
CONTINUOUS
10
139.877
20
-102.079
11
139.973
21
-102.463
0
LINE
8
BLACK
6
CONTINUOUS
10
139.973
20
-102.463
11
140.031
21
-102.855
0
LINE
8
BLACK
6
CONTINUOUS
10
140.031
20
-102.855
11
140.05
21
-103.25
0
LINE
8
BLACK
6
CONTINUOUS
10
140.05
20
-103.25
11
140.048
21
-103.363
0
LINE
8
BLACK
6
CONTINUOUS
10
140.048
20
-103.363
11
140.018
21
-103.758
0
LINE
8
BLACK
6
CONTINUOUS
10
140.018
20
-103.758
11
139.949
21
-104.147
0
LINE
8
BLACK
6
CONTINUOUS
10
139.949
20
-104.147
11
139.843
21
-104.528
0
LINE
8
BLACK
6
CONTINUOUS
10
139.843
20
-104.528
11
139.7
21
-104.897
0
LINE
8
BLACK
6
CONTINUOUS
10
139.7
20
-104.897
11
139.521
21
-105.25
0
LINE
8
BLACK
6
CONTINUOUS
10
139.521
20
-105.25
11
139.309
21
-105.585
0
LINE
8
BLACK
6
CONTINUOUS
10
139.309
20
-105.585
11
139.066
21
-105.896
0
LINE
8
BLACK
6
CONTINUOUS
10
139.066
20
-105.896
11
138.793
21
-106.183
0
LINE
8
BLACK
6
CONTINUOUS
10
138.793
20
-106.183
11
138.493
21
-106.441
0
LINE
8
BLACK
6
CONTINUOUS
10
138.493
20
-106.441
11
138.17
21
-106.67
0
LINE
8
BLACK
6
CONTINUOUS
10
138.17
20
-106.67
11
137.826
21
-106.865
0
LINE
8
BLACK
6
CONTINUOUS
10
137.826
20
-106.865
11
137.465
21
-107.026
0
LINE
8
BLACK
6
CONTINUOUS
10
137.465
20
-107.026
11
137.089
21
-107.151
0
LINE
8
BLACK
6
CONTINUOUS
10
137.089
20
-107.151
11
136.703
21
-107.238
0
LINE
8
BLACK
6
CONTINUOUS
10
136.703
20
-107.238
11
136.311
21
-107.288
0
LINE
8
BLACK
6
CONTINUOUS
10
136.311
20
-107.288
11
135.915
21
-107.299
0
LINE
8
BLACK
6
CONTINUOUS
10
135.915
20
-107.299
11
135.52
21
-107.272
0
LINE
8
BLACK
6
CONTINUOUS
10
135.52
20
-107.272
11
135.13
21
-107.206
0
LINE
8
BLACK
6
CONTINUOUS
10
135.13
20
-107.206
11
134.748
21
-107.102
0
LINE
8
BLACK
6
CONTINUOUS
10
134.748
20
-107.102
11
134.379
21
-106.961
0
LINE
8
BLACK
6
CONTINUOUS
10
134.379
20
-106.961
11
134.024
21
-106.785
0
LINE
8
BLACK
6
CONTINUOUS
10
134.024
20
-106.785
11
133.689
21
-106.576
0
LINE
8
BLACK
6
CONTINUOUS
10
133.689
20
-106.576
11
133.375
21
-106.334
0
LINE
8
BLACK
6
CONTINUOUS
10
133.375
20
-106.334
11
133.087
21
-106.063
0
LINE
8
BLACK
6
CONTINUOUS
10
133.087
20
-106.063
11
132.826
21
-105.766
0
LINE
8
BLACK
6
CONTINUOUS
10
132.826
20
-105.766
11
132.596
21
-105.444
0
LINE
8
BLACK
6
CONTINUOUS
10
132.596
20
-105.444
11
132.398
21
-105.101
0
LINE
8
BLACK
6
CONTINUOUS
10
132.398
20
-105.101
11
132.234
21
-104.741
0
LINE
8
BLACK
6
CONTINUOUS
10
132.234
20
-104.741
11
132.107
21
-104.366
0
LINE
8
BLACK
6
CONTINUOUS
10
132.107
20
-104.366
11
132.017
21
-103.981
0
LINE
8
BLACK
6
CONTINUOUS
10
132.017
20
-103.981
11
131.964
21
-103.589
0
LINE
8
BLACK
6
CONTINUOUS
10
131.964
20
-103.589
11
131.952
21
-103.236
0
LINE
8
BLACK
6
CONTINUOUS
10
131.952
20
-103.236
11
131.95
21
-103.193
0
LINE
8
BLACK
6
CONTINUOUS
10
131.95
20
-103.193
11
131.975
21
-102.799
0
LINE
8
BLACK
6
CONTINUOUS
10
132.123
20
-104.032
11
132.222
21
-104.42
0
LINE
8
BLACK
6
CONTINUOUS
10
132.222
20
-104.42
11
132.359
21
-104.795
0
LINE
8
BLACK
6
CONTINUOUS
10
132.359
20
-104.795
11
132.534
21
-105.155
0
LINE
8
BLACK
6
CONTINUOUS
10
132.534
20
-105.155
11
132.744
21
-105.496
0
LINE
8
BLACK
6
CONTINUOUS
10
132.744
20
-105.496
11
132.988
21
-105.813
0
LINE
8
BLACK
6
CONTINUOUS
10
132.988
20
-105.813
11
133.263
21
-106.105
0
LINE
8
BLACK
6
CONTINUOUS
10
133.263
20
-106.105
11
133.565
21
-106.367
0
LINE
8
BLACK
6
CONTINUOUS
10
133.565
20
-106.367
11
133.892
21
-106.597
0
LINE
8
BLACK
6
CONTINUOUS
10
133.892
20
-106.597
11
134.241
21
-106.793
0
LINE
8
BLACK
6
CONTINUOUS
10
134.241
20
-106.793
11
134.608
21
-106.952
0
LINE
8
BLACK
6
CONTINUOUS
10
134.608
20
-106.952
11
134.99
21
-107.074
0
LINE
8
BLACK
6
CONTINUOUS
10
134.99
20
-107.074
11
135.381
21
-107.156
0
LINE
8
BLACK
6
CONTINUOUS
10
135.381
20
-107.156
11
135.779
21
-107.199
0
LINE
8
BLACK
6
CONTINUOUS
10
135.779
20
-107.199
11
136.179
21
-107.201
0
LINE
8
BLACK
6
CONTINUOUS
10
136.179
20
-107.201
11
136.578
21
-107.163
0
LINE
8
BLACK
6
CONTINUOUS
10
136.578
20
-107.163
11
136.97
21
-107.084
0
LINE
8
BLACK
6
CONTINUOUS
10
136.97
20
-107.084
11
137.353
21
-106.967
0
LINE
8
BLACK
6
CONTINUOUS
10
137.353
20
-106.967
11
137.721
21
-106.811
0
LINE
8
BLACK
6
CONTINUOUS
10
137.721
20
-106.811
11
138.072
21
-106.619
0
LINE
8
BLACK
6
CONTINUOUS
10
138.072
20
-106.619
11
138.402
21
-106.392
0
LINE
8
BLACK
6
CONTINUOUS
10
138.402
20
-106.392
11
138.707
21
-106.133
0
LINE
8
BLACK
6
CONTINUOUS
10
138.707
20
-106.133
11
138.985
21
-105.845
0
LINE
8
BLACK
6
CONTINUOUS
10
138.985
20
-105.845
11
139.232
21
-105.53
0
LINE
8
BLACK
6
CONTINUOUS
10
139.232
20
-105.53
11
139.446
21
-105.192
0
LINE
8
BLACK
6
CONTINUOUS
10
139.446
20
-105.192
11
139.624
21
-104.833
0
LINE
8
BLACK
6
CONTINUOUS
10
139.624
20
-104.833
11
139.766
21
-104.459
0
LINE
8
BLACK
6
CONTINUOUS
10
139.766
20
-104.459
11
139.869
21
-104.072
0
LINE
8
BLACK
6
CONTINUOUS
10
139.869
20
-104.072
11
139.932
21
-103.677
0
LINE
8
BLACK
6
CONTINUOUS
10
139.932
20
-103.677
11
139.955
21
-103.278
0
LINE
8
BLACK
6
CONTINUOUS
10
139.955
20
-103.278
11
139.955
21
-103.25
0
LINE
8
BLACK
6
CONTINUOUS
10
139.955
20
-103.25
11
139.935
21
-102.85
0
LINE
8
BLACK
6
CONTINUOUS
10
139.935
20
-102.85
11
139.874
21
-102.455
0
LINE
8
BLACK
6
CONTINUOUS
10
139.874
20
-102.455
11
139.774
21
-102.067
0
LINE
8
BLACK
6
CONTINUOUS
10
139.774
20
-102.067
11
139.635
21
-101.692
0
LINE
8
BLACK
6
CONTINUOUS
10
139.635
20
-101.692
11
139.459
21
-101.333
0
LINE
8
BLACK
6
CONTINUOUS
10
139.459
20
-101.333
11
139.248
21
-100.993
0
LINE
8
BLACK
6
CONTINUOUS
10
139.248
20
-100.993
11
139.003
21
-100.676
0
LINE
8
BLACK
6
CONTINUOUS
10
139.003
20
-100.676
11
138.727
21
-100.386
0
LINE
8
BLACK
6
CONTINUOUS
10
138.727
20
-100.386
11
138.424
21
-100.125
0
LINE
8
BLACK
6
CONTINUOUS
10
138.424
20
-100.125
11
138.096
21
-99.8959
0
LINE
8
BLACK
6
CONTINUOUS
10
138.096
20
-99.8959
11
137.746
21
-99.7013
0
LINE
8
BLACK
6
CONTINUOUS
10
137.746
20
-99.7013
11
137.379
21
-99.543
0
LINE
8
BLACK
6
CONTINUOUS
10
137.379
20
-99.543
11
136.997
21
-99.4226
0
LINE
8
BLACK
6
CONTINUOUS
10
136.997
20
-99.4226
11
136.605
21
-99.3415
0
LINE
8
BLACK
6
CONTINUOUS
10
136.605
20
-99.3415
11
136.207
21
-99.3003
0
LINE
8
BLACK
6
CONTINUOUS
10
136.207
20
-99.3003
11
135.807
21
-99.2996
0
LINE
8
BLACK
6
CONTINUOUS
10
135.807
20
-99.2996
11
135.409
21
-99.3394
0
LINE
8
BLACK
6
CONTINUOUS
10
135.409
20
-99.3394
11
135.016
21
-99.4192
0
LINE
8
BLACK
6
CONTINUOUS
10
135.016
20
-99.4192
11
134.634
21
-99.5382
0
LINE
8
BLACK
6
CONTINUOUS
10
134.634
20
-99.5382
11
134.266
21
-99.6952
0
LINE
8
BLACK
6
CONTINUOUS
10
134.266
20
-99.6952
11
133.916
21
-99.8886
0
LINE
8
BLACK
6
CONTINUOUS
10
133.916
20
-99.8886
11
133.587
21
-100.116
0
LINE
8
BLACK
6
CONTINUOUS
10
133.587
20
-100.116
11
133.283
21
-100.376
0
LINE
8
BLACK
6
CONTINUOUS
10
133.283
20
-100.376
11
133.006
21
-100.666
0
LINE
8
BLACK
6
CONTINUOUS
10
133.006
20
-100.666
11
132.76
21
-100.981
0
LINE
8
BLACK
6
CONTINUOUS
10
132.76
20
-100.981
11
132.548
21
-101.32
0
LINE
8
BLACK
6
CONTINUOUS
10
132.548
20
-101.32
11
132.37
21
-101.679
0
LINE
8
BLACK
6
CONTINUOUS
10
132.37
20
-101.679
11
132.23
21
-102.054
0
LINE
8
BLACK
6
CONTINUOUS
10
132.23
20
-102.054
11
132.129
21
-102.441
0
LINE
8
BLACK
6
CONTINUOUS
10
132.129
20
-102.441
11
132.067
21
-102.837
0
LINE
8
BLACK
6
CONTINUOUS
10
132.067
20
-102.837
11
132.045
21
-103.236
0
LINE
8
BLACK
6
CONTINUOUS
10
132.045
20
-103.236
11
132.064
21
-103.636
0
LINE
8
BLACK
6
CONTINUOUS
10
132.064
20
-103.636
11
132.123
21
-104.032
  0
ENDSEC
  0
EOF
