  0
SECTION
  2
HEADER
  9
$ANGBASE
  50
0.0
  9
$ANGDIR
  70
1
  9
$MEASUREMENT
  70
1
  0
ENDSEC
  0
SECTION
  2
TABLES
  0
TABLE
  2
LTYPE
  70
4
  0
LTYPE
  5
40F
  2
CONTINUOUS
  70
0
  3
Solid line
  72
65
  73
0
  40
0.0
  0
LTYPE
  5
410
  2
DASHDOT
 70
0
  3
Dash Dot ____ _ ____ _
 72
65
 73
4
 40
2.0
 49
1.25
 49
-0.25
 49
0.25
 49
-0.25
  0
LTYPE
  5
411
  2
DASHED
 70
0
  3
Dashed __ __ __ __ __
 72
65
 73
2
 40
0.75
 49
0.5
 49
-0.25
  0
LTYPE
  5
43B
  2
DOTTED
 70
0
  3
Dotted .  .  .  .
 72
65
 73
2
 40
0.2
 49
0.0
 49
-0.2
  0
ENDTAB
  0
TABLE
  2
STYLE
  70
4
  0
STYLE
  2
KICAD
  70
0
  40
0
  41
1
  42
1
  50
0
  71
0
  3
isocp.shx
  0
STYLE
  2
KICADB
  70
0
  40
0
  41
1
  42
1
  50
0
  71
0
  3
isocp.shx
  0
STYLE
  2
KICADI
  70
0
  40
0
  41
1
  42
1
  50
15
  71
0
  3
isocp.shx
  0
STYLE
  2
KICADBI
  70
0
  40
0
  41
1
  42
1
  50
15
  71
0
  3
isocp.shx
  0
ENDTAB
  0
TABLE
  2
LAYER
  70
1
  0
LAYER
  2
BLACK
  70
0
  62
7
  6
CONTINUOUS
  0
ENDTAB
  0
ENDSEC
  0
SECTION
  2
ENTITIES
0
LINE
8
BLACK
6
CONTINUOUS
10
138.87
20
-82.8563
11
139.077
21
-82.8974
0
LINE
8
BLACK
6
CONTINUOUS
10
139.077
20
-82.8974
11
139.272
21
-82.9753
0
LINE
8
BLACK
6
CONTINUOUS
10
139.272
20
-82.9753
11
139.45
21
-83.0876
0
LINE
8
BLACK
6
CONTINUOUS
10
139.45
20
-83.0876
11
139.605
21
-83.2305
0
LINE
8
BLACK
6
CONTINUOUS
10
139.605
20
-83.2305
11
139.731
21
-83.3991
0
LINE
8
BLACK
6
CONTINUOUS
10
139.731
20
-83.3991
11
139.824
21
-83.5879
0
LINE
8
BLACK
6
CONTINUOUS
10
139.824
20
-83.5879
11
139.881
21
-83.7904
0
LINE
8
BLACK
6
CONTINUOUS
10
139.881
20
-83.7904
11
139.9
21
-84
0
LINE
8
BLACK
6
CONTINUOUS
10
139.9
20
-84
11
139.898
21
-84.0602
0
LINE
8
BLACK
6
CONTINUOUS
10
139.898
20
-84.0602
11
139.868
21
-84.2685
0
LINE
8
BLACK
6
CONTINUOUS
10
139.868
20
-84.2685
11
139.801
21
-84.4677
0
LINE
8
BLACK
6
CONTINUOUS
10
139.801
20
-84.4677
11
139.698
21
-84.6514
0
LINE
8
BLACK
6
CONTINUOUS
10
139.698
20
-84.6514
11
139.563
21
-84.8132
0
LINE
8
BLACK
6
CONTINUOUS
10
139.563
20
-84.8132
11
139.401
21
-84.9477
0
LINE
8
BLACK
6
CONTINUOUS
10
139.401
20
-84.9477
11
139.218
21
-85.0506
0
LINE
8
BLACK
6
CONTINUOUS
10
139.218
20
-85.0506
11
139.018
21
-85.1182
0
LINE
8
BLACK
6
CONTINUOUS
10
139.018
20
-85.1182
11
138.81
21
-85.1484
0
LINE
8
BLACK
6
CONTINUOUS
10
138.81
20
-85.1484
11
138.6
21
-85.1402
0
LINE
8
BLACK
6
CONTINUOUS
10
138.6
20
-85.1402
11
138.395
21
-85.0937
0
LINE
8
BLACK
6
CONTINUOUS
10
138.395
20
-85.0937
11
138.201
21
-85.0106
0
LINE
8
BLACK
6
CONTINUOUS
10
138.201
20
-85.0106
11
138.026
21
-84.8937
0
LINE
8
BLACK
6
CONTINUOUS
10
138.026
20
-84.8937
11
137.876
21
-84.7469
0
LINE
8
BLACK
6
CONTINUOUS
10
137.876
20
-84.7469
11
137.754
21
-84.575
0
LINE
8
BLACK
6
CONTINUOUS
10
137.754
20
-84.575
11
137.666
21
-84.3839
0
LINE
8
BLACK
6
CONTINUOUS
10
137.666
20
-84.3839
11
137.614
21
-84.1799
0
LINE
8
BLACK
6
CONTINUOUS
10
137.614
20
-84.1799
11
137.6
21
-83.9699
0
LINE
8
BLACK
6
CONTINUOUS
10
137.6
20
-83.9699
11
137.625
21
-83.7609
0
LINE
8
BLACK
6
CONTINUOUS
10
137.625
20
-83.7609
11
137.688
21
-83.5599
0
LINE
8
BLACK
6
CONTINUOUS
10
137.688
20
-83.5599
11
137.786
21
-83.3737
0
LINE
8
BLACK
6
CONTINUOUS
10
137.786
20
-83.3737
11
137.916
21
-83.2084
0
LINE
8
BLACK
6
CONTINUOUS
10
137.916
20
-83.2084
11
138.074
21
-83.0696
0
LINE
8
BLACK
6
CONTINUOUS
10
138.074
20
-83.0696
11
138.255
21
-82.962
0
LINE
8
BLACK
6
CONTINUOUS
10
138.255
20
-82.962
11
138.452
21
-82.8892
0
LINE
8
BLACK
6
CONTINUOUS
10
138.452
20
-82.8892
11
138.66
21
-82.8535
0
LINE
8
BLACK
6
CONTINUOUS
10
138.66
20
-82.8535
11
138.87
21
-82.8563
0
LINE
8
BLACK
6
CONTINUOUS
10
130.12
20
-82.8563
11
130.327
21
-82.8974
0
LINE
8
BLACK
6
CONTINUOUS
10
130.327
20
-82.8974
11
130.522
21
-82.9753
0
LINE
8
BLACK
6
CONTINUOUS
10
130.522
20
-82.9753
11
130.7
21
-83.0876
0
LINE
8
BLACK
6
CONTINUOUS
10
130.7
20
-83.0876
11
130.855
21
-83.2305
0
LINE
8
BLACK
6
CONTINUOUS
10
130.855
20
-83.2305
11
130.981
21
-83.3991
0
LINE
8
BLACK
6
CONTINUOUS
10
130.981
20
-83.3991
11
131.074
21
-83.5879
0
LINE
8
BLACK
6
CONTINUOUS
10
131.074
20
-83.5879
11
131.131
21
-83.7904
0
LINE
8
BLACK
6
CONTINUOUS
10
131.131
20
-83.7904
11
131.15
21
-84
0
LINE
8
BLACK
6
CONTINUOUS
10
131.15
20
-84
11
131.148
21
-84.0602
0
LINE
8
BLACK
6
CONTINUOUS
10
131.148
20
-84.0602
11
131.118
21
-84.2685
0
LINE
8
BLACK
6
CONTINUOUS
10
131.118
20
-84.2685
11
131.051
21
-84.4677
0
LINE
8
BLACK
6
CONTINUOUS
10
131.051
20
-84.4677
11
130.948
21
-84.6514
0
LINE
8
BLACK
6
CONTINUOUS
10
130.948
20
-84.6514
11
130.813
21
-84.8132
0
LINE
8
BLACK
6
CONTINUOUS
10
130.813
20
-84.8132
11
130.651
21
-84.9477
0
LINE
8
BLACK
6
CONTINUOUS
10
130.651
20
-84.9477
11
130.468
21
-85.0506
0
LINE
8
BLACK
6
CONTINUOUS
10
130.468
20
-85.0506
11
130.268
21
-85.1182
0
LINE
8
BLACK
6
CONTINUOUS
10
130.268
20
-85.1182
11
130.06
21
-85.1484
0
LINE
8
BLACK
6
CONTINUOUS
10
130.06
20
-85.1484
11
129.85
21
-85.1402
0
LINE
8
BLACK
6
CONTINUOUS
10
129.85
20
-85.1402
11
129.645
21
-85.0937
0
LINE
8
BLACK
6
CONTINUOUS
10
129.645
20
-85.0937
11
129.451
21
-85.0106
0
LINE
8
BLACK
6
CONTINUOUS
10
129.451
20
-85.0106
11
129.276
21
-84.8937
0
LINE
8
BLACK
6
CONTINUOUS
10
129.276
20
-84.8937
11
129.126
21
-84.7469
0
LINE
8
BLACK
6
CONTINUOUS
10
129.126
20
-84.7469
11
129.004
21
-84.575
0
LINE
8
BLACK
6
CONTINUOUS
10
129.004
20
-84.575
11
128.916
21
-84.3839
0
LINE
8
BLACK
6
CONTINUOUS
10
128.916
20
-84.3839
11
128.864
21
-84.1799
0
LINE
8
BLACK
6
CONTINUOUS
10
128.864
20
-84.1799
11
128.85
21
-83.9699
0
LINE
8
BLACK
6
CONTINUOUS
10
128.85
20
-83.9699
11
128.875
21
-83.7609
0
LINE
8
BLACK
6
CONTINUOUS
10
128.875
20
-83.7609
11
128.938
21
-83.5599
0
LINE
8
BLACK
6
CONTINUOUS
10
128.938
20
-83.5599
11
129.036
21
-83.3737
0
LINE
8
BLACK
6
CONTINUOUS
10
129.036
20
-83.3737
11
129.166
21
-83.2084
0
LINE
8
BLACK
6
CONTINUOUS
10
129.166
20
-83.2084
11
129.324
21
-83.0696
0
LINE
8
BLACK
6
CONTINUOUS
10
129.324
20
-83.0696
11
129.505
21
-82.962
0
LINE
8
BLACK
6
CONTINUOUS
10
129.505
20
-82.962
11
129.702
21
-82.8892
0
LINE
8
BLACK
6
CONTINUOUS
10
129.702
20
-82.8892
11
129.91
21
-82.8535
0
LINE
8
BLACK
6
CONTINUOUS
10
129.91
20
-82.8535
11
130.12
21
-82.8563
0
LINE
8
BLACK
6
CONTINUOUS
10
125.465
20
-97.0354
11
125.45
21
-97
0
LINE
8
BLACK
6
CONTINUOUS
10
125.45
20
-97
11
125.45
21
-60
0
LINE
8
BLACK
6
CONTINUOUS
10
125.45
20
-60
11
125.465
21
-59.9646
0
LINE
8
BLACK
6
CONTINUOUS
10
125.465
20
-59.9646
11
125.5
21
-59.95
0
LINE
8
BLACK
6
CONTINUOUS
10
125.5
20
-59.95
11
144.5
21
-59.95
0
LINE
8
BLACK
6
CONTINUOUS
10
144.5
20
-59.95
11
144.721
21
-59.9658
0
LINE
8
BLACK
6
CONTINUOUS
10
144.721
20
-59.9658
11
144.937
21
-60.0128
0
LINE
8
BLACK
6
CONTINUOUS
10
144.937
20
-60.0128
11
145.144
21
-60.0901
0
LINE
8
BLACK
6
CONTINUOUS
10
145.144
20
-60.0901
11
145.338
21
-60.1961
0
LINE
8
BLACK
6
CONTINUOUS
10
145.338
20
-60.1961
11
145.515
21
-60.3286
0
LINE
8
BLACK
6
CONTINUOUS
10
145.515
20
-60.3286
11
145.671
21
-60.485
0
LINE
8
BLACK
6
CONTINUOUS
10
145.671
20
-60.485
11
145.804
21
-60.662
0
LINE
8
BLACK
6
CONTINUOUS
10
145.804
20
-60.662
11
145.91
21
-60.8561
0
LINE
8
BLACK
6
CONTINUOUS
10
145.91
20
-60.8561
11
145.987
21
-61.0633
0
LINE
8
BLACK
6
CONTINUOUS
10
145.987
20
-61.0633
11
146.034
21
-61.2794
0
LINE
8
BLACK
6
CONTINUOUS
10
146.034
20
-61.2794
11
146.05
21
-61.5
0
LINE
8
BLACK
6
CONTINUOUS
10
146.05
20
-61.5
11
146.05
21
-97
0
LINE
8
BLACK
6
CONTINUOUS
10
146.05
20
-97
11
146.035
21
-97.0354
0
LINE
8
BLACK
6
CONTINUOUS
10
146.035
20
-97.0354
11
146
21
-97.05
0
LINE
8
BLACK
6
CONTINUOUS
10
146
20
-97.05
11
125.5
21
-97.05
0
LINE
8
BLACK
6
CONTINUOUS
10
125.5
20
-97.05
11
125.465
21
-97.0354
0
LINE
8
BLACK
6
CONTINUOUS
10
125.55
20
-96.95
11
145.95
21
-96.95
0
LINE
8
BLACK
6
CONTINUOUS
10
145.95
20
-96.95
11
145.95
21
-61.5
0
LINE
8
BLACK
6
CONTINUOUS
10
145.95
20
-61.5
11
145.954
21
-61.4909
0
LINE
8
BLACK
6
CONTINUOUS
10
145.954
20
-61.4909
11
145.937
21
-61.2725
0
LINE
8
BLACK
6
CONTINUOUS
10
145.937
20
-61.2725
11
145.883
21
-61.0505
0
LINE
8
BLACK
6
CONTINUOUS
10
145.883
20
-61.0505
11
145.796
21
-60.8397
0
LINE
8
BLACK
6
CONTINUOUS
10
145.796
20
-60.8397
11
145.677
21
-60.6451
0
LINE
8
BLACK
6
CONTINUOUS
10
145.677
20
-60.6451
11
145.528
21
-60.4715
0
LINE
8
BLACK
6
CONTINUOUS
10
145.528
20
-60.4715
11
145.355
21
-60.3233
0
LINE
8
BLACK
6
CONTINUOUS
10
145.355
20
-60.3233
11
145.16
21
-60.204
0
LINE
8
BLACK
6
CONTINUOUS
10
145.16
20
-60.204
11
144.949
21
-60.1167
0
LINE
8
BLACK
6
CONTINUOUS
10
144.949
20
-60.1167
11
144.728
21
-60.0634
0
LINE
8
BLACK
6
CONTINUOUS
10
144.728
20
-60.0634
11
144.509
21
-60.0462
0
LINE
8
BLACK
6
CONTINUOUS
10
144.509
20
-60.0462
11
144.5
21
-60.05
0
LINE
8
BLACK
6
CONTINUOUS
10
144.5
20
-60.05
11
125.55
21
-60.05
0
LINE
8
BLACK
6
CONTINUOUS
10
125.55
20
-60.05
11
125.55
21
-96.95
  0
ENDSEC
  0
EOF
