  0
SECTION
  2
HEADER
  9
$ANGBASE
  50
0.0
  9
$ANGDIR
  70
1
  9
$MEASUREMENT
  70
1
  0
ENDSEC
  0
SECTION
  2
TABLES
  0
TABLE
  2
LTYPE
  70
4
  0
LTYPE
  5
40F
  2
CONTINUOUS
  70
0
  3
Solid line
  72
65
  73
0
  40
0.0
  0
LTYPE
  5
410
  2
DASHDOT
 70
0
  3
Dash Dot ____ _ ____ _
 72
65
 73
4
 40
2.0
 49
1.25
 49
-0.25
 49
0.25
 49
-0.25
  0
LTYPE
  5
411
  2
DASHED
 70
0
  3
Dashed __ __ __ __ __
 72
65
 73
2
 40
0.75
 49
0.5
 49
-0.25
  0
LTYPE
  5
43B
  2
DOTTED
 70
0
  3
Dotted .  .  .  .
 72
65
 73
2
 40
0.2
 49
0.0
 49
-0.2
  0
ENDTAB
  0
TABLE
  2
STYLE
  70
4
  0
STYLE
  2
KICAD
  70
0
  40
0
  41
1
  42
1
  50
0
  71
0
  3
isocp.shx
  0
STYLE
  2
KICADB
  70
0
  40
0
  41
1
  42
1
  50
0
  71
0
  3
isocp.shx
  0
STYLE
  2
KICADI
  70
0
  40
0
  41
1
  42
1
  50
15
  71
0
  3
isocp.shx
  0
STYLE
  2
KICADBI
  70
0
  40
0
  41
1
  42
1
  50
15
  71
0
  3
isocp.shx
  0
ENDTAB
  0
TABLE
  2
LAYER
  70
1
  0
LAYER
  2
BLACK
  70
0
  62
7
  6
CONTINUOUS
  0
ENDTAB
  0
ENDSEC
  0
SECTION
  2
ENTITIES
0
LINE
8
BLACK
6
CONTINUOUS
10
104.12
20
-75.3563
11
104.327
21
-75.3974
0
LINE
8
BLACK
6
CONTINUOUS
10
104.327
20
-75.3974
11
104.522
21
-75.4753
0
LINE
8
BLACK
6
CONTINUOUS
10
104.522
20
-75.4753
11
104.7
21
-75.5876
0
LINE
8
BLACK
6
CONTINUOUS
10
104.7
20
-75.5876
11
104.855
21
-75.7305
0
LINE
8
BLACK
6
CONTINUOUS
10
104.855
20
-75.7305
11
104.981
21
-75.8991
0
LINE
8
BLACK
6
CONTINUOUS
10
104.981
20
-75.8991
11
105.074
21
-76.0879
0
LINE
8
BLACK
6
CONTINUOUS
10
105.074
20
-76.0879
11
105.131
21
-76.2904
0
LINE
8
BLACK
6
CONTINUOUS
10
105.131
20
-76.2904
11
105.15
21
-76.5
0
LINE
8
BLACK
6
CONTINUOUS
10
105.15
20
-76.5
11
105.148
21
-76.5602
0
LINE
8
BLACK
6
CONTINUOUS
10
105.148
20
-76.5602
11
105.118
21
-76.7685
0
LINE
8
BLACK
6
CONTINUOUS
10
105.118
20
-76.7685
11
105.051
21
-76.9677
0
LINE
8
BLACK
6
CONTINUOUS
10
105.051
20
-76.9677
11
104.948
21
-77.1514
0
LINE
8
BLACK
6
CONTINUOUS
10
104.948
20
-77.1514
11
104.813
21
-77.3132
0
LINE
8
BLACK
6
CONTINUOUS
10
104.813
20
-77.3132
11
104.651
21
-77.4477
0
LINE
8
BLACK
6
CONTINUOUS
10
104.651
20
-77.4477
11
104.468
21
-77.5506
0
LINE
8
BLACK
6
CONTINUOUS
10
104.468
20
-77.5506
11
104.268
21
-77.6182
0
LINE
8
BLACK
6
CONTINUOUS
10
104.268
20
-77.6182
11
104.06
21
-77.6484
0
LINE
8
BLACK
6
CONTINUOUS
10
104.06
20
-77.6484
11
103.85
21
-77.6402
0
LINE
8
BLACK
6
CONTINUOUS
10
103.85
20
-77.6402
11
103.645
21
-77.5937
0
LINE
8
BLACK
6
CONTINUOUS
10
103.645
20
-77.5937
11
103.451
21
-77.5106
0
LINE
8
BLACK
6
CONTINUOUS
10
103.451
20
-77.5106
11
103.276
21
-77.3937
0
LINE
8
BLACK
6
CONTINUOUS
10
103.276
20
-77.3937
11
103.126
21
-77.2469
0
LINE
8
BLACK
6
CONTINUOUS
10
103.126
20
-77.2469
11
103.004
21
-77.075
0
LINE
8
BLACK
6
CONTINUOUS
10
103.004
20
-77.075
11
102.916
21
-76.8839
0
LINE
8
BLACK
6
CONTINUOUS
10
102.916
20
-76.8839
11
102.864
21
-76.6799
0
LINE
8
BLACK
6
CONTINUOUS
10
102.864
20
-76.6799
11
102.85
21
-76.4699
0
LINE
8
BLACK
6
CONTINUOUS
10
102.85
20
-76.4699
11
102.875
21
-76.2609
0
LINE
8
BLACK
6
CONTINUOUS
10
102.875
20
-76.2609
11
102.938
21
-76.0599
0
LINE
8
BLACK
6
CONTINUOUS
10
102.938
20
-76.0599
11
103.036
21
-75.8737
0
LINE
8
BLACK
6
CONTINUOUS
10
103.036
20
-75.8737
11
103.166
21
-75.7084
0
LINE
8
BLACK
6
CONTINUOUS
10
103.166
20
-75.7084
11
103.324
21
-75.5696
0
LINE
8
BLACK
6
CONTINUOUS
10
103.324
20
-75.5696
11
103.505
21
-75.462
0
LINE
8
BLACK
6
CONTINUOUS
10
103.505
20
-75.462
11
103.702
21
-75.3892
0
LINE
8
BLACK
6
CONTINUOUS
10
103.702
20
-75.3892
11
103.91
21
-75.3535
0
LINE
8
BLACK
6
CONTINUOUS
10
103.91
20
-75.3535
11
104.12
21
-75.3563
0
LINE
8
BLACK
6
CONTINUOUS
10
112.87
20
-75.3563
11
113.077
21
-75.3974
0
LINE
8
BLACK
6
CONTINUOUS
10
113.077
20
-75.3974
11
113.272
21
-75.4753
0
LINE
8
BLACK
6
CONTINUOUS
10
113.272
20
-75.4753
11
113.45
21
-75.5876
0
LINE
8
BLACK
6
CONTINUOUS
10
113.45
20
-75.5876
11
113.605
21
-75.7305
0
LINE
8
BLACK
6
CONTINUOUS
10
113.605
20
-75.7305
11
113.731
21
-75.8991
0
LINE
8
BLACK
6
CONTINUOUS
10
113.731
20
-75.8991
11
113.824
21
-76.0879
0
LINE
8
BLACK
6
CONTINUOUS
10
113.824
20
-76.0879
11
113.881
21
-76.2904
0
LINE
8
BLACK
6
CONTINUOUS
10
113.881
20
-76.2904
11
113.9
21
-76.5
0
LINE
8
BLACK
6
CONTINUOUS
10
113.9
20
-76.5
11
113.898
21
-76.5602
0
LINE
8
BLACK
6
CONTINUOUS
10
113.898
20
-76.5602
11
113.868
21
-76.7685
0
LINE
8
BLACK
6
CONTINUOUS
10
113.868
20
-76.7685
11
113.801
21
-76.9677
0
LINE
8
BLACK
6
CONTINUOUS
10
113.801
20
-76.9677
11
113.698
21
-77.1514
0
LINE
8
BLACK
6
CONTINUOUS
10
113.698
20
-77.1514
11
113.563
21
-77.3132
0
LINE
8
BLACK
6
CONTINUOUS
10
113.563
20
-77.3132
11
113.401
21
-77.4477
0
LINE
8
BLACK
6
CONTINUOUS
10
113.401
20
-77.4477
11
113.218
21
-77.5506
0
LINE
8
BLACK
6
CONTINUOUS
10
113.218
20
-77.5506
11
113.018
21
-77.6182
0
LINE
8
BLACK
6
CONTINUOUS
10
113.018
20
-77.6182
11
112.81
21
-77.6484
0
LINE
8
BLACK
6
CONTINUOUS
10
112.81
20
-77.6484
11
112.6
21
-77.6402
0
LINE
8
BLACK
6
CONTINUOUS
10
112.6
20
-77.6402
11
112.395
21
-77.5937
0
LINE
8
BLACK
6
CONTINUOUS
10
112.395
20
-77.5937
11
112.201
21
-77.5106
0
LINE
8
BLACK
6
CONTINUOUS
10
112.201
20
-77.5106
11
112.026
21
-77.3937
0
LINE
8
BLACK
6
CONTINUOUS
10
112.026
20
-77.3937
11
111.876
21
-77.2469
0
LINE
8
BLACK
6
CONTINUOUS
10
111.876
20
-77.2469
11
111.754
21
-77.075
0
LINE
8
BLACK
6
CONTINUOUS
10
111.754
20
-77.075
11
111.666
21
-76.8839
0
LINE
8
BLACK
6
CONTINUOUS
10
111.666
20
-76.8839
11
111.614
21
-76.6799
0
LINE
8
BLACK
6
CONTINUOUS
10
111.614
20
-76.6799
11
111.6
21
-76.4699
0
LINE
8
BLACK
6
CONTINUOUS
10
111.6
20
-76.4699
11
111.625
21
-76.2609
0
LINE
8
BLACK
6
CONTINUOUS
10
111.625
20
-76.2609
11
111.688
21
-76.0599
0
LINE
8
BLACK
6
CONTINUOUS
10
111.688
20
-76.0599
11
111.786
21
-75.8737
0
LINE
8
BLACK
6
CONTINUOUS
10
111.786
20
-75.8737
11
111.916
21
-75.7084
0
LINE
8
BLACK
6
CONTINUOUS
10
111.916
20
-75.7084
11
112.074
21
-75.5696
0
LINE
8
BLACK
6
CONTINUOUS
10
112.074
20
-75.5696
11
112.255
21
-75.462
0
LINE
8
BLACK
6
CONTINUOUS
10
112.255
20
-75.462
11
112.452
21
-75.3892
0
LINE
8
BLACK
6
CONTINUOUS
10
112.452
20
-75.3892
11
112.66
21
-75.3535
0
LINE
8
BLACK
6
CONTINUOUS
10
112.66
20
-75.3535
11
112.87
21
-75.3563
0
LINE
8
BLACK
6
CONTINUOUS
10
101.279
20
-81.0342
11
101.063
21
-80.9872
0
LINE
8
BLACK
6
CONTINUOUS
10
101.063
20
-80.9872
11
100.856
21
-80.9099
0
LINE
8
BLACK
6
CONTINUOUS
10
100.856
20
-80.9099
11
100.662
21
-80.8039
0
LINE
8
BLACK
6
CONTINUOUS
10
100.662
20
-80.8039
11
100.485
21
-80.6714
0
LINE
8
BLACK
6
CONTINUOUS
10
100.485
20
-80.6714
11
100.329
21
-80.515
0
LINE
8
BLACK
6
CONTINUOUS
10
100.329
20
-80.515
11
100.196
21
-80.338
0
LINE
8
BLACK
6
CONTINUOUS
10
100.196
20
-80.338
11
100.09
21
-80.1439
0
LINE
8
BLACK
6
CONTINUOUS
10
100.09
20
-80.1439
11
100.013
21
-79.9367
0
LINE
8
BLACK
6
CONTINUOUS
10
100.013
20
-79.9367
11
99.9658
21
-79.7206
0
LINE
8
BLACK
6
CONTINUOUS
10
99.9658
20
-79.7206
11
99.95
21
-79.5
0
LINE
8
BLACK
6
CONTINUOUS
10
99.95
20
-79.5
11
99.95
21
-54
0
LINE
8
BLACK
6
CONTINUOUS
10
99.95
20
-54
11
99.9658
21
-53.7794
0
LINE
8
BLACK
6
CONTINUOUS
10
99.9658
20
-53.7794
11
100.013
21
-53.5633
0
LINE
8
BLACK
6
CONTINUOUS
10
100.013
20
-53.5633
11
100.09
21
-53.3561
0
LINE
8
BLACK
6
CONTINUOUS
10
100.09
20
-53.3561
11
100.196
21
-53.162
0
LINE
8
BLACK
6
CONTINUOUS
10
100.196
20
-53.162
11
100.329
21
-52.985
0
LINE
8
BLACK
6
CONTINUOUS
10
100.329
20
-52.985
11
100.485
21
-52.8286
0
LINE
8
BLACK
6
CONTINUOUS
10
100.485
20
-52.8286
11
100.662
21
-52.6961
0
LINE
8
BLACK
6
CONTINUOUS
10
100.662
20
-52.6961
11
100.856
21
-52.5901
0
LINE
8
BLACK
6
CONTINUOUS
10
100.856
20
-52.5901
11
101.063
21
-52.5128
0
LINE
8
BLACK
6
CONTINUOUS
10
101.063
20
-52.5128
11
101.279
21
-52.4658
0
LINE
8
BLACK
6
CONTINUOUS
10
101.279
20
-52.4658
11
101.5
21
-52.45
0
LINE
8
BLACK
6
CONTINUOUS
10
101.5
20
-52.45
11
118.5
21
-52.45
0
LINE
8
BLACK
6
CONTINUOUS
10
118.5
20
-52.45
11
118.721
21
-52.4658
0
LINE
8
BLACK
6
CONTINUOUS
10
118.721
20
-52.4658
11
118.937
21
-52.5128
0
LINE
8
BLACK
6
CONTINUOUS
10
118.937
20
-52.5128
11
119.144
21
-52.5901
0
LINE
8
BLACK
6
CONTINUOUS
10
119.144
20
-52.5901
11
119.338
21
-52.6961
0
LINE
8
BLACK
6
CONTINUOUS
10
119.338
20
-52.6961
11
119.515
21
-52.8286
0
LINE
8
BLACK
6
CONTINUOUS
10
119.515
20
-52.8286
11
119.671
21
-52.985
0
LINE
8
BLACK
6
CONTINUOUS
10
119.671
20
-52.985
11
119.804
21
-53.162
0
LINE
8
BLACK
6
CONTINUOUS
10
119.804
20
-53.162
11
119.91
21
-53.3561
0
LINE
8
BLACK
6
CONTINUOUS
10
119.91
20
-53.3561
11
119.987
21
-53.5633
0
LINE
8
BLACK
6
CONTINUOUS
10
119.987
20
-53.5633
11
120.034
21
-53.7794
0
LINE
8
BLACK
6
CONTINUOUS
10
120.034
20
-53.7794
11
120.05
21
-54
0
LINE
8
BLACK
6
CONTINUOUS
10
120.05
20
-54
11
120.05
21
-79.5
0
LINE
8
BLACK
6
CONTINUOUS
10
120.05
20
-79.5
11
120.034
21
-79.7206
0
LINE
8
BLACK
6
CONTINUOUS
10
120.034
20
-79.7206
11
119.987
21
-79.9367
0
LINE
8
BLACK
6
CONTINUOUS
10
119.987
20
-79.9367
11
119.91
21
-80.1439
0
LINE
8
BLACK
6
CONTINUOUS
10
119.91
20
-80.1439
11
119.804
21
-80.338
0
LINE
8
BLACK
6
CONTINUOUS
10
119.804
20
-80.338
11
119.671
21
-80.515
0
LINE
8
BLACK
6
CONTINUOUS
10
119.671
20
-80.515
11
119.515
21
-80.6714
0
LINE
8
BLACK
6
CONTINUOUS
10
119.515
20
-80.6714
11
119.338
21
-80.8039
0
LINE
8
BLACK
6
CONTINUOUS
10
119.338
20
-80.8039
11
119.144
21
-80.9099
0
LINE
8
BLACK
6
CONTINUOUS
10
119.144
20
-80.9099
11
118.937
21
-80.9872
0
LINE
8
BLACK
6
CONTINUOUS
10
118.937
20
-80.9872
11
118.721
21
-81.0342
0
LINE
8
BLACK
6
CONTINUOUS
10
118.721
20
-81.0342
11
118.5
21
-81.05
0
LINE
8
BLACK
6
CONTINUOUS
10
118.5
20
-81.05
11
101.5
21
-81.05
0
LINE
8
BLACK
6
CONTINUOUS
10
101.5
20
-81.05
11
101.279
21
-81.0342
0
LINE
8
BLACK
6
CONTINUOUS
10
101.491
20
-52.5462
11
101.272
21
-52.5634
0
LINE
8
BLACK
6
CONTINUOUS
10
101.272
20
-52.5634
11
101.051
21
-52.6167
0
LINE
8
BLACK
6
CONTINUOUS
10
101.051
20
-52.6167
11
100.84
21
-52.704
0
LINE
8
BLACK
6
CONTINUOUS
10
100.84
20
-52.704
11
100.645
21
-52.8233
0
LINE
8
BLACK
6
CONTINUOUS
10
100.645
20
-52.8233
11
100.472
21
-52.9715
0
LINE
8
BLACK
6
CONTINUOUS
10
100.472
20
-52.9715
11
100.323
21
-53.1451
0
LINE
8
BLACK
6
CONTINUOUS
10
100.323
20
-53.1451
11
100.204
21
-53.3397
0
LINE
8
BLACK
6
CONTINUOUS
10
100.204
20
-53.3397
11
100.117
21
-53.5505
0
LINE
8
BLACK
6
CONTINUOUS
10
100.117
20
-53.5505
11
100.063
21
-53.7725
0
LINE
8
BLACK
6
CONTINUOUS
10
100.063
20
-53.7725
11
100.046
21
-53.9909
0
LINE
8
BLACK
6
CONTINUOUS
10
100.046
20
-53.9909
11
100.05
21
-54
0
LINE
8
BLACK
6
CONTINUOUS
10
100.05
20
-54
11
100.05
21
-79.5
0
LINE
8
BLACK
6
CONTINUOUS
10
100.05
20
-79.5
11
100.046
21
-79.5091
0
LINE
8
BLACK
6
CONTINUOUS
10
100.046
20
-79.5091
11
100.063
21
-79.7275
0
LINE
8
BLACK
6
CONTINUOUS
10
100.063
20
-79.7275
11
100.117
21
-79.9495
0
LINE
8
BLACK
6
CONTINUOUS
10
100.117
20
-79.9495
11
100.204
21
-80.1603
0
LINE
8
BLACK
6
CONTINUOUS
10
100.204
20
-80.1603
11
100.323
21
-80.3549
0
LINE
8
BLACK
6
CONTINUOUS
10
100.323
20
-80.3549
11
100.472
21
-80.5285
0
LINE
8
BLACK
6
CONTINUOUS
10
100.472
20
-80.5285
11
100.645
21
-80.6767
0
LINE
8
BLACK
6
CONTINUOUS
10
100.645
20
-80.6767
11
100.84
21
-80.796
0
LINE
8
BLACK
6
CONTINUOUS
10
100.84
20
-80.796
11
101.051
21
-80.8833
0
LINE
8
BLACK
6
CONTINUOUS
10
101.051
20
-80.8833
11
101.272
21
-80.9366
0
LINE
8
BLACK
6
CONTINUOUS
10
101.272
20
-80.9366
11
101.491
21
-80.9538
0
LINE
8
BLACK
6
CONTINUOUS
10
101.491
20
-80.9538
11
101.5
21
-80.95
0
LINE
8
BLACK
6
CONTINUOUS
10
101.5
20
-80.95
11
118.5
21
-80.95
0
LINE
8
BLACK
6
CONTINUOUS
10
118.5
20
-80.95
11
118.509
21
-80.9538
0
LINE
8
BLACK
6
CONTINUOUS
10
118.509
20
-80.9538
11
118.728
21
-80.9366
0
LINE
8
BLACK
6
CONTINUOUS
10
118.728
20
-80.9366
11
118.949
21
-80.8833
0
LINE
8
BLACK
6
CONTINUOUS
10
118.949
20
-80.8833
11
119.16
21
-80.796
0
LINE
8
BLACK
6
CONTINUOUS
10
119.16
20
-80.796
11
119.355
21
-80.6767
0
LINE
8
BLACK
6
CONTINUOUS
10
119.355
20
-80.6767
11
119.528
21
-80.5285
0
LINE
8
BLACK
6
CONTINUOUS
10
119.528
20
-80.5285
11
119.677
21
-80.3549
0
LINE
8
BLACK
6
CONTINUOUS
10
119.677
20
-80.3549
11
119.796
21
-80.1603
0
LINE
8
BLACK
6
CONTINUOUS
10
119.796
20
-80.1603
11
119.883
21
-79.9495
0
LINE
8
BLACK
6
CONTINUOUS
10
119.883
20
-79.9495
11
119.937
21
-79.7275
0
LINE
8
BLACK
6
CONTINUOUS
10
119.937
20
-79.7275
11
119.954
21
-79.5091
0
LINE
8
BLACK
6
CONTINUOUS
10
119.954
20
-79.5091
11
119.95
21
-79.5
0
LINE
8
BLACK
6
CONTINUOUS
10
119.95
20
-79.5
11
119.95
21
-54
0
LINE
8
BLACK
6
CONTINUOUS
10
119.95
20
-54
11
119.954
21
-53.9909
0
LINE
8
BLACK
6
CONTINUOUS
10
119.954
20
-53.9909
11
119.937
21
-53.7725
0
LINE
8
BLACK
6
CONTINUOUS
10
119.937
20
-53.7725
11
119.883
21
-53.5505
0
LINE
8
BLACK
6
CONTINUOUS
10
119.883
20
-53.5505
11
119.796
21
-53.3397
0
LINE
8
BLACK
6
CONTINUOUS
10
119.796
20
-53.3397
11
119.677
21
-53.1451
0
LINE
8
BLACK
6
CONTINUOUS
10
119.677
20
-53.1451
11
119.528
21
-52.9715
0
LINE
8
BLACK
6
CONTINUOUS
10
119.528
20
-52.9715
11
119.355
21
-52.8233
0
LINE
8
BLACK
6
CONTINUOUS
10
119.355
20
-52.8233
11
119.16
21
-52.704
0
LINE
8
BLACK
6
CONTINUOUS
10
119.16
20
-52.704
11
118.949
21
-52.6167
0
LINE
8
BLACK
6
CONTINUOUS
10
118.949
20
-52.6167
11
118.728
21
-52.5634
0
LINE
8
BLACK
6
CONTINUOUS
10
118.728
20
-52.5634
11
118.509
21
-52.5462
0
LINE
8
BLACK
6
CONTINUOUS
10
118.509
20
-52.5462
11
118.5
21
-52.55
0
LINE
8
BLACK
6
CONTINUOUS
10
118.5
20
-52.55
11
101.5
21
-52.55
0
LINE
8
BLACK
6
CONTINUOUS
10
101.5
20
-52.55
11
101.491
21
-52.5462
  0
ENDSEC
  0
EOF
