  0
SECTION
  2
HEADER
  9
$ANGBASE
  50
0.0
  9
$ANGDIR
  70
1
  9
$MEASUREMENT
  70
1
  0
ENDSEC
  0
SECTION
  2
TABLES
  0
TABLE
  2
LTYPE
  70
4
  0
LTYPE
  5
40F
  2
CONTINUOUS
  70
0
  3
Solid line
  72
65
  73
0
  40
0.0
  0
LTYPE
  5
410
  2
DASHDOT
 70
0
  3
Dash Dot ____ _ ____ _
 72
65
 73
4
 40
2.0
 49
1.25
 49
-0.25
 49
0.25
 49
-0.25
  0
LTYPE
  5
411
  2
DASHED
 70
0
  3
Dashed __ __ __ __ __
 72
65
 73
2
 40
0.75
 49
0.5
 49
-0.25
  0
LTYPE
  5
43B
  2
DOTTED
 70
0
  3
Dotted .  .  .  .
 72
65
 73
2
 40
0.2
 49
0.0
 49
-0.2
  0
ENDTAB
  0
TABLE
  2
STYLE
  70
4
  0
STYLE
  2
KICAD
  70
0
  40
0
  41
1
  42
1
  50
0
  71
0
  3
isocp.shx
  0
STYLE
  2
KICADB
  70
0
  40
0
  41
1
  42
1
  50
0
  71
0
  3
isocp.shx
  0
STYLE
  2
KICADI
  70
0
  40
0
  41
1
  42
1
  50
15
  71
0
  3
isocp.shx
  0
STYLE
  2
KICADBI
  70
0
  40
0
  41
1
  42
1
  50
15
  71
0
  3
isocp.shx
  0
ENDTAB
  0
TABLE
  2
LAYER
  70
1
  0
LAYER
  2
BLACK
  70
0
  62
7
  6
CONTINUOUS
  0
ENDTAB
  0
ENDSEC
  0
SECTION
  2
ENTITIES
0
LINE
8
BLACK
6
CONTINUOUS
10
139.057
20
-116.556
11
139.264
21
-116.597
0
LINE
8
BLACK
6
CONTINUOUS
10
139.264
20
-116.597
11
139.459
21
-116.675
0
LINE
8
BLACK
6
CONTINUOUS
10
139.459
20
-116.675
11
139.637
21
-116.788
0
LINE
8
BLACK
6
CONTINUOUS
10
139.637
20
-116.788
11
139.792
21
-116.93
0
LINE
8
BLACK
6
CONTINUOUS
10
139.792
20
-116.93
11
139.918
21
-117.099
0
LINE
8
BLACK
6
CONTINUOUS
10
139.918
20
-117.099
11
140.011
21
-117.288
0
LINE
8
BLACK
6
CONTINUOUS
10
140.011
20
-117.288
11
140.068
21
-117.49
0
LINE
8
BLACK
6
CONTINUOUS
10
140.068
20
-117.49
11
140.087
21
-117.7
0
LINE
8
BLACK
6
CONTINUOUS
10
140.087
20
-117.7
11
140.085
21
-117.76
0
LINE
8
BLACK
6
CONTINUOUS
10
140.085
20
-117.76
11
140.055
21
-117.968
0
LINE
8
BLACK
6
CONTINUOUS
10
140.055
20
-117.968
11
139.988
21
-118.168
0
LINE
8
BLACK
6
CONTINUOUS
10
139.988
20
-118.168
11
139.885
21
-118.351
0
LINE
8
BLACK
6
CONTINUOUS
10
139.885
20
-118.351
11
139.75
21
-118.513
0
LINE
8
BLACK
6
CONTINUOUS
10
139.75
20
-118.513
11
139.588
21
-118.648
0
LINE
8
BLACK
6
CONTINUOUS
10
139.588
20
-118.648
11
139.405
21
-118.751
0
LINE
8
BLACK
6
CONTINUOUS
10
139.405
20
-118.751
11
139.205
21
-118.818
0
LINE
8
BLACK
6
CONTINUOUS
10
139.205
20
-118.818
11
138.997
21
-118.848
0
LINE
8
BLACK
6
CONTINUOUS
10
138.997
20
-118.848
11
138.787
21
-118.84
0
LINE
8
BLACK
6
CONTINUOUS
10
138.787
20
-118.84
11
138.582
21
-118.794
0
LINE
8
BLACK
6
CONTINUOUS
10
138.582
20
-118.794
11
138.388
21
-118.711
0
LINE
8
BLACK
6
CONTINUOUS
10
138.388
20
-118.711
11
138.213
21
-118.594
0
LINE
8
BLACK
6
CONTINUOUS
10
138.213
20
-118.594
11
138.063
21
-118.447
0
LINE
8
BLACK
6
CONTINUOUS
10
138.063
20
-118.447
11
137.941
21
-118.275
0
LINE
8
BLACK
6
CONTINUOUS
10
137.941
20
-118.275
11
137.853
21
-118.084
0
LINE
8
BLACK
6
CONTINUOUS
10
137.853
20
-118.084
11
137.801
21
-117.88
0
LINE
8
BLACK
6
CONTINUOUS
10
137.801
20
-117.88
11
137.787
21
-117.67
0
LINE
8
BLACK
6
CONTINUOUS
10
137.787
20
-117.67
11
137.812
21
-117.461
0
LINE
8
BLACK
6
CONTINUOUS
10
137.812
20
-117.461
11
137.875
21
-117.26
0
LINE
8
BLACK
6
CONTINUOUS
10
137.875
20
-117.26
11
137.973
21
-117.074
0
LINE
8
BLACK
6
CONTINUOUS
10
137.973
20
-117.074
11
138.103
21
-116.908
0
LINE
8
BLACK
6
CONTINUOUS
10
138.103
20
-116.908
11
138.261
21
-116.77
0
LINE
8
BLACK
6
CONTINUOUS
10
138.261
20
-116.77
11
138.442
21
-116.662
0
LINE
8
BLACK
6
CONTINUOUS
10
138.442
20
-116.662
11
138.639
21
-116.589
0
LINE
8
BLACK
6
CONTINUOUS
10
138.639
20
-116.589
11
138.847
21
-116.554
0
LINE
8
BLACK
6
CONTINUOUS
10
138.847
20
-116.554
11
139.057
21
-116.556
0
LINE
8
BLACK
6
CONTINUOUS
10
126.957
20
-116.556
11
127.164
21
-116.597
0
LINE
8
BLACK
6
CONTINUOUS
10
127.164
20
-116.597
11
127.359
21
-116.675
0
LINE
8
BLACK
6
CONTINUOUS
10
127.359
20
-116.675
11
127.537
21
-116.788
0
LINE
8
BLACK
6
CONTINUOUS
10
127.537
20
-116.788
11
127.692
21
-116.93
0
LINE
8
BLACK
6
CONTINUOUS
10
127.692
20
-116.93
11
127.818
21
-117.099
0
LINE
8
BLACK
6
CONTINUOUS
10
127.818
20
-117.099
11
127.911
21
-117.288
0
LINE
8
BLACK
6
CONTINUOUS
10
127.911
20
-117.288
11
127.968
21
-117.49
0
LINE
8
BLACK
6
CONTINUOUS
10
127.968
20
-117.49
11
127.987
21
-117.7
0
LINE
8
BLACK
6
CONTINUOUS
10
127.987
20
-117.7
11
127.985
21
-117.76
0
LINE
8
BLACK
6
CONTINUOUS
10
127.985
20
-117.76
11
127.955
21
-117.968
0
LINE
8
BLACK
6
CONTINUOUS
10
127.955
20
-117.968
11
127.888
21
-118.168
0
LINE
8
BLACK
6
CONTINUOUS
10
127.888
20
-118.168
11
127.785
21
-118.351
0
LINE
8
BLACK
6
CONTINUOUS
10
127.785
20
-118.351
11
127.65
21
-118.513
0
LINE
8
BLACK
6
CONTINUOUS
10
127.65
20
-118.513
11
127.488
21
-118.648
0
LINE
8
BLACK
6
CONTINUOUS
10
127.488
20
-118.648
11
127.305
21
-118.751
0
LINE
8
BLACK
6
CONTINUOUS
10
127.305
20
-118.751
11
127.105
21
-118.818
0
LINE
8
BLACK
6
CONTINUOUS
10
127.105
20
-118.818
11
126.897
21
-118.848
0
LINE
8
BLACK
6
CONTINUOUS
10
126.897
20
-118.848
11
126.687
21
-118.84
0
LINE
8
BLACK
6
CONTINUOUS
10
126.687
20
-118.84
11
126.482
21
-118.794
0
LINE
8
BLACK
6
CONTINUOUS
10
126.482
20
-118.794
11
126.288
21
-118.711
0
LINE
8
BLACK
6
CONTINUOUS
10
126.288
20
-118.711
11
126.113
21
-118.594
0
LINE
8
BLACK
6
CONTINUOUS
10
126.113
20
-118.594
11
125.963
21
-118.447
0
LINE
8
BLACK
6
CONTINUOUS
10
125.963
20
-118.447
11
125.841
21
-118.275
0
LINE
8
BLACK
6
CONTINUOUS
10
125.841
20
-118.275
11
125.753
21
-118.084
0
LINE
8
BLACK
6
CONTINUOUS
10
125.753
20
-118.084
11
125.701
21
-117.88
0
LINE
8
BLACK
6
CONTINUOUS
10
125.701
20
-117.88
11
125.687
21
-117.67
0
LINE
8
BLACK
6
CONTINUOUS
10
125.687
20
-117.67
11
125.712
21
-117.461
0
LINE
8
BLACK
6
CONTINUOUS
10
125.712
20
-117.461
11
125.775
21
-117.26
0
LINE
8
BLACK
6
CONTINUOUS
10
125.775
20
-117.26
11
125.873
21
-117.074
0
LINE
8
BLACK
6
CONTINUOUS
10
125.873
20
-117.074
11
126.003
21
-116.908
0
LINE
8
BLACK
6
CONTINUOUS
10
126.003
20
-116.908
11
126.161
21
-116.77
0
LINE
8
BLACK
6
CONTINUOUS
10
126.161
20
-116.77
11
126.342
21
-116.662
0
LINE
8
BLACK
6
CONTINUOUS
10
126.342
20
-116.662
11
126.539
21
-116.589
0
LINE
8
BLACK
6
CONTINUOUS
10
126.539
20
-116.589
11
126.747
21
-116.554
0
LINE
8
BLACK
6
CONTINUOUS
10
126.747
20
-116.554
11
126.957
21
-116.556
0
LINE
8
BLACK
6
CONTINUOUS
10
125
20
-121.05
11
124.779
21
-121.034
0
LINE
8
BLACK
6
CONTINUOUS
10
124.779
20
-121.034
11
124.563
21
-120.987
0
LINE
8
BLACK
6
CONTINUOUS
10
124.563
20
-120.987
11
124.356
21
-120.91
0
LINE
8
BLACK
6
CONTINUOUS
10
124.356
20
-120.91
11
124.162
21
-120.804
0
LINE
8
BLACK
6
CONTINUOUS
10
124.162
20
-120.804
11
123.985
21
-120.671
0
LINE
8
BLACK
6
CONTINUOUS
10
123.985
20
-120.671
11
123.829
21
-120.515
0
LINE
8
BLACK
6
CONTINUOUS
10
123.829
20
-120.515
11
123.696
21
-120.338
0
LINE
8
BLACK
6
CONTINUOUS
10
123.696
20
-120.338
11
123.59
21
-120.144
0
LINE
8
BLACK
6
CONTINUOUS
10
123.59
20
-120.144
11
123.513
21
-119.937
0
LINE
8
BLACK
6
CONTINUOUS
10
123.513
20
-119.937
11
123.466
21
-119.721
0
LINE
8
BLACK
6
CONTINUOUS
10
123.466
20
-119.721
11
123.45
21
-119.5
0
LINE
8
BLACK
6
CONTINUOUS
10
123.45
20
-119.5
11
123.45
21
-119.5
0
LINE
8
BLACK
6
CONTINUOUS
10
123.45
20
-119.5
11
123.45
21
-67.5
0
LINE
8
BLACK
6
CONTINUOUS
10
123.45
20
-67.5
11
123.466
21
-67.2794
0
LINE
8
BLACK
6
CONTINUOUS
10
123.466
20
-67.2794
11
123.513
21
-67.0633
0
LINE
8
BLACK
6
CONTINUOUS
10
123.513
20
-67.0633
11
123.59
21
-66.8561
0
LINE
8
BLACK
6
CONTINUOUS
10
123.59
20
-66.8561
11
123.696
21
-66.662
0
LINE
8
BLACK
6
CONTINUOUS
10
123.696
20
-66.662
11
123.829
21
-66.485
0
LINE
8
BLACK
6
CONTINUOUS
10
123.829
20
-66.485
11
123.985
21
-66.3286
0
LINE
8
BLACK
6
CONTINUOUS
10
123.985
20
-66.3286
11
124.162
21
-66.1961
0
LINE
8
BLACK
6
CONTINUOUS
10
124.162
20
-66.1961
11
124.356
21
-66.0901
0
LINE
8
BLACK
6
CONTINUOUS
10
124.356
20
-66.0901
11
124.563
21
-66.0128
0
LINE
8
BLACK
6
CONTINUOUS
10
124.563
20
-66.0128
11
124.779
21
-65.9658
0
LINE
8
BLACK
6
CONTINUOUS
10
124.779
20
-65.9658
11
125
21
-65.95
0
LINE
8
BLACK
6
CONTINUOUS
10
125
20
-65.95
11
142.037
21
-65.95
0
LINE
8
BLACK
6
CONTINUOUS
10
142.037
20
-65.95
11
142.258
21
-65.9658
0
LINE
8
BLACK
6
CONTINUOUS
10
142.258
20
-65.9658
11
142.474
21
-66.0128
0
LINE
8
BLACK
6
CONTINUOUS
10
142.474
20
-66.0128
11
142.681
21
-66.0901
0
LINE
8
BLACK
6
CONTINUOUS
10
142.681
20
-66.0901
11
142.875
21
-66.1961
0
LINE
8
BLACK
6
CONTINUOUS
10
142.875
20
-66.1961
11
143.052
21
-66.3286
0
LINE
8
BLACK
6
CONTINUOUS
10
143.052
20
-66.3286
11
143.208
21
-66.485
0
LINE
8
BLACK
6
CONTINUOUS
10
143.208
20
-66.485
11
143.341
21
-66.662
0
LINE
8
BLACK
6
CONTINUOUS
10
143.341
20
-66.662
11
143.447
21
-66.8561
0
LINE
8
BLACK
6
CONTINUOUS
10
143.447
20
-66.8561
11
143.524
21
-67.0633
0
LINE
8
BLACK
6
CONTINUOUS
10
143.524
20
-67.0633
11
143.571
21
-67.2794
0
LINE
8
BLACK
6
CONTINUOUS
10
143.571
20
-67.2794
11
143.587
21
-67.4999
0
LINE
8
BLACK
6
CONTINUOUS
10
143.587
20
-67.4999
11
143.587
21
-67.5
0
LINE
8
BLACK
6
CONTINUOUS
10
143.587
20
-67.5
11
143.587
21
-119.5
0
LINE
8
BLACK
6
CONTINUOUS
10
143.587
20
-119.5
11
143.571
21
-119.721
0
LINE
8
BLACK
6
CONTINUOUS
10
143.571
20
-119.721
11
143.524
21
-119.937
0
LINE
8
BLACK
6
CONTINUOUS
10
143.524
20
-119.937
11
143.447
21
-120.144
0
LINE
8
BLACK
6
CONTINUOUS
10
143.447
20
-120.144
11
143.341
21
-120.338
0
LINE
8
BLACK
6
CONTINUOUS
10
143.341
20
-120.338
11
143.208
21
-120.515
0
LINE
8
BLACK
6
CONTINUOUS
10
143.208
20
-120.515
11
143.052
21
-120.671
0
LINE
8
BLACK
6
CONTINUOUS
10
143.052
20
-120.671
11
142.875
21
-120.804
0
LINE
8
BLACK
6
CONTINUOUS
10
142.875
20
-120.804
11
142.681
21
-120.91
0
LINE
8
BLACK
6
CONTINUOUS
10
142.681
20
-120.91
11
142.474
21
-120.987
0
LINE
8
BLACK
6
CONTINUOUS
10
142.474
20
-120.987
11
142.258
21
-121.034
0
LINE
8
BLACK
6
CONTINUOUS
10
142.258
20
-121.034
11
142.037
21
-121.05
0
LINE
8
BLACK
6
CONTINUOUS
10
142.037
20
-121.05
11
142.037
21
-121.05
0
LINE
8
BLACK
6
CONTINUOUS
10
142.037
20
-121.05
11
125
21
-121.05
0
LINE
8
BLACK
6
CONTINUOUS
10
125
20
-121.05
11
125
21
-121.05
0
LINE
8
BLACK
6
CONTINUOUS
10
124.991
20
-66.0462
11
124.772
21
-66.0634
0
LINE
8
BLACK
6
CONTINUOUS
10
124.772
20
-66.0634
11
124.551
21
-66.1167
0
LINE
8
BLACK
6
CONTINUOUS
10
124.551
20
-66.1167
11
124.34
21
-66.204
0
LINE
8
BLACK
6
CONTINUOUS
10
124.34
20
-66.204
11
124.145
21
-66.3233
0
LINE
8
BLACK
6
CONTINUOUS
10
124.145
20
-66.3233
11
123.972
21
-66.4715
0
LINE
8
BLACK
6
CONTINUOUS
10
123.972
20
-66.4715
11
123.823
21
-66.6451
0
LINE
8
BLACK
6
CONTINUOUS
10
123.823
20
-66.6451
11
123.704
21
-66.8397
0
LINE
8
BLACK
6
CONTINUOUS
10
123.704
20
-66.8397
11
123.617
21
-67.0505
0
LINE
8
BLACK
6
CONTINUOUS
10
123.617
20
-67.0505
11
123.563
21
-67.2725
0
LINE
8
BLACK
6
CONTINUOUS
10
123.563
20
-67.2725
11
123.546
21
-67.4909
0
LINE
8
BLACK
6
CONTINUOUS
10
123.546
20
-67.4909
11
123.55
21
-67.4999
0
LINE
8
BLACK
6
CONTINUOUS
10
123.55
20
-67.4999
11
123.55
21
-67.5
0
LINE
8
BLACK
6
CONTINUOUS
10
123.55
20
-67.5
11
123.55
21
-119.5
0
LINE
8
BLACK
6
CONTINUOUS
10
123.55
20
-119.5
11
123.546
21
-119.509
0
LINE
8
BLACK
6
CONTINUOUS
10
123.546
20
-119.509
11
123.563
21
-119.728
0
LINE
8
BLACK
6
CONTINUOUS
10
123.563
20
-119.728
11
123.617
21
-119.949
0
LINE
8
BLACK
6
CONTINUOUS
10
123.617
20
-119.949
11
123.704
21
-120.16
0
LINE
8
BLACK
6
CONTINUOUS
10
123.704
20
-120.16
11
123.823
21
-120.355
0
LINE
8
BLACK
6
CONTINUOUS
10
123.823
20
-120.355
11
123.972
21
-120.528
0
LINE
8
BLACK
6
CONTINUOUS
10
123.972
20
-120.528
11
124.145
21
-120.677
0
LINE
8
BLACK
6
CONTINUOUS
10
124.145
20
-120.677
11
124.34
21
-120.796
0
LINE
8
BLACK
6
CONTINUOUS
10
124.34
20
-120.796
11
124.551
21
-120.883
0
LINE
8
BLACK
6
CONTINUOUS
10
124.551
20
-120.883
11
124.772
21
-120.937
0
LINE
8
BLACK
6
CONTINUOUS
10
124.772
20
-120.937
11
124.991
21
-120.954
0
LINE
8
BLACK
6
CONTINUOUS
10
124.991
20
-120.954
11
125
21
-120.95
0
LINE
8
BLACK
6
CONTINUOUS
10
125
20
-120.95
11
125
21
-120.95
0
LINE
8
BLACK
6
CONTINUOUS
10
125
20
-120.95
11
142.037
21
-120.95
0
LINE
8
BLACK
6
CONTINUOUS
10
142.037
20
-120.95
11
142.042
21
-120.952
0
LINE
8
BLACK
6
CONTINUOUS
10
142.042
20
-120.952
11
142.046
21
-120.954
0
LINE
8
BLACK
6
CONTINUOUS
10
142.046
20
-120.954
11
142.265
21
-120.937
0
LINE
8
BLACK
6
CONTINUOUS
10
142.265
20
-120.937
11
142.486
21
-120.883
0
LINE
8
BLACK
6
CONTINUOUS
10
142.486
20
-120.883
11
142.697
21
-120.796
0
LINE
8
BLACK
6
CONTINUOUS
10
142.697
20
-120.796
11
142.892
21
-120.677
0
LINE
8
BLACK
6
CONTINUOUS
10
142.892
20
-120.677
11
143.066
21
-120.528
0
LINE
8
BLACK
6
CONTINUOUS
10
143.066
20
-120.528
11
143.214
21
-120.355
0
LINE
8
BLACK
6
CONTINUOUS
10
143.214
20
-120.355
11
143.333
21
-120.16
0
LINE
8
BLACK
6
CONTINUOUS
10
143.333
20
-120.16
11
143.42
21
-119.949
0
LINE
8
BLACK
6
CONTINUOUS
10
143.42
20
-119.949
11
143.474
21
-119.728
0
LINE
8
BLACK
6
CONTINUOUS
10
143.474
20
-119.728
11
143.491
21
-119.509
0
LINE
8
BLACK
6
CONTINUOUS
10
143.491
20
-119.509
11
143.487
21
-119.5
0
LINE
8
BLACK
6
CONTINUOUS
10
143.487
20
-119.5
11
143.487
21
-67.5
0
LINE
8
BLACK
6
CONTINUOUS
10
143.487
20
-67.5
11
143.491
21
-67.491
0
LINE
8
BLACK
6
CONTINUOUS
10
143.491
20
-67.491
11
143.474
21
-67.2725
0
LINE
8
BLACK
6
CONTINUOUS
10
143.474
20
-67.2725
11
143.42
21
-67.0505
0
LINE
8
BLACK
6
CONTINUOUS
10
143.42
20
-67.0505
11
143.333
21
-66.8397
0
LINE
8
BLACK
6
CONTINUOUS
10
143.333
20
-66.8397
11
143.214
21
-66.6451
0
LINE
8
BLACK
6
CONTINUOUS
10
143.214
20
-66.6451
11
143.065
21
-66.4715
0
LINE
8
BLACK
6
CONTINUOUS
10
143.065
20
-66.4715
11
142.892
21
-66.3233
0
LINE
8
BLACK
6
CONTINUOUS
10
142.892
20
-66.3233
11
142.697
21
-66.2041
0
LINE
8
BLACK
6
CONTINUOUS
10
142.697
20
-66.2041
11
142.486
21
-66.1167
0
LINE
8
BLACK
6
CONTINUOUS
10
142.486
20
-66.1167
11
142.265
21
-66.0634
0
LINE
8
BLACK
6
CONTINUOUS
10
142.265
20
-66.0634
11
142.046
21
-66.0462
0
LINE
8
BLACK
6
CONTINUOUS
10
142.046
20
-66.0462
11
142.037
21
-66.05
0
LINE
8
BLACK
6
CONTINUOUS
10
142.037
20
-66.05
11
125
21
-66.05
0
LINE
8
BLACK
6
CONTINUOUS
10
125
20
-66.05
11
124.991
21
-66.0462
  0
ENDSEC
  0
EOF
