  0
SECTION
  2
HEADER
  9
$ANGBASE
  50
0.0
  9
$ANGDIR
  70
1
  9
$MEASUREMENT
  70
1
  0
ENDSEC
  0
SECTION
  2
TABLES
  0
TABLE
  2
LTYPE
  70
4
  0
LTYPE
  5
40F
  2
CONTINUOUS
  70
0
  3
Solid line
  72
65
  73
0
  40
0.0
  0
LTYPE
  5
410
  2
DASHDOT
 70
0
  3
Dash Dot ____ _ ____ _
 72
65
 73
4
 40
2.0
 49
1.25
 49
-0.25
 49
0.25
 49
-0.25
  0
LTYPE
  5
411
  2
DASHED
 70
0
  3
Dashed __ __ __ __ __
 72
65
 73
2
 40
0.75
 49
0.5
 49
-0.25
  0
LTYPE
  5
43B
  2
DOTTED
 70
0
  3
Dotted .  .  .  .
 72
65
 73
2
 40
0.2
 49
0.0
 49
-0.2
  0
ENDTAB
  0
TABLE
  2
STYLE
  70
4
  0
STYLE
  2
KICAD
  70
0
  40
0
  41
1
  42
1
  50
0
  71
0
  3
isocp.shx
  0
STYLE
  2
KICADB
  70
0
  40
0
  41
1
  42
1
  50
0
  71
0
  3
isocp.shx
  0
STYLE
  2
KICADI
  70
0
  40
0
  41
1
  42
1
  50
15
  71
0
  3
isocp.shx
  0
STYLE
  2
KICADBI
  70
0
  40
0
  41
1
  42
1
  50
15
  71
0
  3
isocp.shx
  0
ENDTAB
  0
TABLE
  2
LAYER
  70
1
  0
LAYER
  2
BLACK
  70
0
  62
7
  6
CONTINUOUS
  0
ENDTAB
  0
ENDSEC
  0
SECTION
  2
ENTITIES
0
LINE
8
BLACK
6
CONTINUOUS
10
185.157
20
-118.106
11
185.364
21
-118.147
0
LINE
8
BLACK
6
CONTINUOUS
10
185.364
20
-118.147
11
185.559
21
-118.225
0
LINE
8
BLACK
6
CONTINUOUS
10
185.559
20
-118.225
11
185.737
21
-118.338
0
LINE
8
BLACK
6
CONTINUOUS
10
185.737
20
-118.338
11
185.892
21
-118.48
0
LINE
8
BLACK
6
CONTINUOUS
10
185.892
20
-118.48
11
186.018
21
-118.649
0
LINE
8
BLACK
6
CONTINUOUS
10
186.018
20
-118.649
11
186.111
21
-118.838
0
LINE
8
BLACK
6
CONTINUOUS
10
186.111
20
-118.838
11
186.168
21
-119.04
0
LINE
8
BLACK
6
CONTINUOUS
10
186.168
20
-119.04
11
186.187
21
-119.25
0
LINE
8
BLACK
6
CONTINUOUS
10
186.187
20
-119.25
11
186.185
21
-119.31
0
LINE
8
BLACK
6
CONTINUOUS
10
186.185
20
-119.31
11
186.155
21
-119.518
0
LINE
8
BLACK
6
CONTINUOUS
10
186.155
20
-119.518
11
186.088
21
-119.718
0
LINE
8
BLACK
6
CONTINUOUS
10
186.088
20
-119.718
11
185.985
21
-119.901
0
LINE
8
BLACK
6
CONTINUOUS
10
185.985
20
-119.901
11
185.85
21
-120.063
0
LINE
8
BLACK
6
CONTINUOUS
10
185.85
20
-120.063
11
185.688
21
-120.198
0
LINE
8
BLACK
6
CONTINUOUS
10
185.688
20
-120.198
11
185.505
21
-120.301
0
LINE
8
BLACK
6
CONTINUOUS
10
185.505
20
-120.301
11
185.305
21
-120.368
0
LINE
8
BLACK
6
CONTINUOUS
10
185.305
20
-120.368
11
185.097
21
-120.398
0
LINE
8
BLACK
6
CONTINUOUS
10
185.097
20
-120.398
11
184.887
21
-120.39
0
LINE
8
BLACK
6
CONTINUOUS
10
184.887
20
-120.39
11
184.682
21
-120.344
0
LINE
8
BLACK
6
CONTINUOUS
10
184.682
20
-120.344
11
184.488
21
-120.261
0
LINE
8
BLACK
6
CONTINUOUS
10
184.488
20
-120.261
11
184.313
21
-120.144
0
LINE
8
BLACK
6
CONTINUOUS
10
184.313
20
-120.144
11
184.163
21
-119.997
0
LINE
8
BLACK
6
CONTINUOUS
10
184.163
20
-119.997
11
184.041
21
-119.825
0
LINE
8
BLACK
6
CONTINUOUS
10
184.041
20
-119.825
11
183.953
21
-119.634
0
LINE
8
BLACK
6
CONTINUOUS
10
183.953
20
-119.634
11
183.901
21
-119.43
0
LINE
8
BLACK
6
CONTINUOUS
10
183.901
20
-119.43
11
183.887
21
-119.22
0
LINE
8
BLACK
6
CONTINUOUS
10
183.887
20
-119.22
11
183.912
21
-119.011
0
LINE
8
BLACK
6
CONTINUOUS
10
183.912
20
-119.011
11
183.975
21
-118.81
0
LINE
8
BLACK
6
CONTINUOUS
10
183.975
20
-118.81
11
184.073
21
-118.624
0
LINE
8
BLACK
6
CONTINUOUS
10
184.073
20
-118.624
11
184.203
21
-118.458
0
LINE
8
BLACK
6
CONTINUOUS
10
184.203
20
-118.458
11
184.361
21
-118.32
0
LINE
8
BLACK
6
CONTINUOUS
10
184.361
20
-118.32
11
184.542
21
-118.212
0
LINE
8
BLACK
6
CONTINUOUS
10
184.542
20
-118.212
11
184.739
21
-118.139
0
LINE
8
BLACK
6
CONTINUOUS
10
184.739
20
-118.139
11
184.947
21
-118.104
0
LINE
8
BLACK
6
CONTINUOUS
10
184.947
20
-118.104
11
185.157
21
-118.106
0
LINE
8
BLACK
6
CONTINUOUS
10
133.657
20
-104.106
11
133.864
21
-104.147
0
LINE
8
BLACK
6
CONTINUOUS
10
133.864
20
-104.147
11
134.059
21
-104.225
0
LINE
8
BLACK
6
CONTINUOUS
10
134.059
20
-104.225
11
134.237
21
-104.338
0
LINE
8
BLACK
6
CONTINUOUS
10
134.237
20
-104.338
11
134.392
21
-104.48
0
LINE
8
BLACK
6
CONTINUOUS
10
134.392
20
-104.48
11
134.518
21
-104.649
0
LINE
8
BLACK
6
CONTINUOUS
10
134.518
20
-104.649
11
134.611
21
-104.838
0
LINE
8
BLACK
6
CONTINUOUS
10
134.611
20
-104.838
11
134.668
21
-105.04
0
LINE
8
BLACK
6
CONTINUOUS
10
134.668
20
-105.04
11
134.687
21
-105.25
0
LINE
8
BLACK
6
CONTINUOUS
10
134.687
20
-105.25
11
134.685
21
-105.31
0
LINE
8
BLACK
6
CONTINUOUS
10
134.685
20
-105.31
11
134.655
21
-105.518
0
LINE
8
BLACK
6
CONTINUOUS
10
134.655
20
-105.518
11
134.588
21
-105.718
0
LINE
8
BLACK
6
CONTINUOUS
10
134.588
20
-105.718
11
134.485
21
-105.901
0
LINE
8
BLACK
6
CONTINUOUS
10
134.485
20
-105.901
11
134.35
21
-106.063
0
LINE
8
BLACK
6
CONTINUOUS
10
134.35
20
-106.063
11
134.188
21
-106.198
0
LINE
8
BLACK
6
CONTINUOUS
10
134.188
20
-106.198
11
134.005
21
-106.301
0
LINE
8
BLACK
6
CONTINUOUS
10
134.005
20
-106.301
11
133.805
21
-106.368
0
LINE
8
BLACK
6
CONTINUOUS
10
133.805
20
-106.368
11
133.597
21
-106.398
0
LINE
8
BLACK
6
CONTINUOUS
10
133.597
20
-106.398
11
133.387
21
-106.39
0
LINE
8
BLACK
6
CONTINUOUS
10
133.387
20
-106.39
11
133.182
21
-106.344
0
LINE
8
BLACK
6
CONTINUOUS
10
133.182
20
-106.344
11
132.988
21
-106.261
0
LINE
8
BLACK
6
CONTINUOUS
10
132.988
20
-106.261
11
132.813
21
-106.144
0
LINE
8
BLACK
6
CONTINUOUS
10
132.813
20
-106.144
11
132.663
21
-105.997
0
LINE
8
BLACK
6
CONTINUOUS
10
132.663
20
-105.997
11
132.541
21
-105.825
0
LINE
8
BLACK
6
CONTINUOUS
10
132.541
20
-105.825
11
132.453
21
-105.634
0
LINE
8
BLACK
6
CONTINUOUS
10
132.453
20
-105.634
11
132.401
21
-105.43
0
LINE
8
BLACK
6
CONTINUOUS
10
132.401
20
-105.43
11
132.387
21
-105.22
0
LINE
8
BLACK
6
CONTINUOUS
10
132.387
20
-105.22
11
132.412
21
-105.011
0
LINE
8
BLACK
6
CONTINUOUS
10
132.412
20
-105.011
11
132.475
21
-104.81
0
LINE
8
BLACK
6
CONTINUOUS
10
132.475
20
-104.81
11
132.573
21
-104.624
0
LINE
8
BLACK
6
CONTINUOUS
10
132.573
20
-104.624
11
132.703
21
-104.458
0
LINE
8
BLACK
6
CONTINUOUS
10
132.703
20
-104.458
11
132.861
21
-104.32
0
LINE
8
BLACK
6
CONTINUOUS
10
132.861
20
-104.32
11
133.042
21
-104.212
0
LINE
8
BLACK
6
CONTINUOUS
10
133.042
20
-104.212
11
133.239
21
-104.139
0
LINE
8
BLACK
6
CONTINUOUS
10
133.239
20
-104.139
11
133.447
21
-104.104
0
LINE
8
BLACK
6
CONTINUOUS
10
133.447
20
-104.104
11
133.657
21
-104.106
0
LINE
8
BLACK
6
CONTINUOUS
10
94.1572
20
-88.6063
11
94.3637
21
-88.6474
0
LINE
8
BLACK
6
CONTINUOUS
10
94.3637
20
-88.6474
11
94.5591
21
-88.7253
0
LINE
8
BLACK
6
CONTINUOUS
10
94.5591
20
-88.7253
11
94.7371
21
-88.8376
0
LINE
8
BLACK
6
CONTINUOUS
10
94.7371
20
-88.8376
11
94.8917
21
-88.9805
0
LINE
8
BLACK
6
CONTINUOUS
10
94.8917
20
-88.9805
11
95.0176
21
-89.1491
0
LINE
8
BLACK
6
CONTINUOUS
10
95.0176
20
-89.1491
11
95.1107
21
-89.3379
0
LINE
8
BLACK
6
CONTINUOUS
10
95.1107
20
-89.3379
11
95.1678
21
-89.5404
0
LINE
8
BLACK
6
CONTINUOUS
10
95.1678
20
-89.5404
11
95.187
21
-89.75
0
LINE
8
BLACK
6
CONTINUOUS
10
95.187
20
-89.75
11
95.1855
21
-89.8102
0
LINE
8
BLACK
6
CONTINUOUS
10
95.1855
20
-89.8102
11
95.1553
21
-90.0185
0
LINE
8
BLACK
6
CONTINUOUS
10
95.1553
20
-90.0185
11
95.0876
21
-90.2177
0
LINE
8
BLACK
6
CONTINUOUS
10
95.0876
20
-90.2177
11
94.9848
21
-90.4014
0
LINE
8
BLACK
6
CONTINUOUS
10
94.9848
20
-90.4014
11
94.8502
21
-90.5632
0
LINE
8
BLACK
6
CONTINUOUS
10
94.8502
20
-90.5632
11
94.6884
21
-90.6977
0
LINE
8
BLACK
6
CONTINUOUS
10
94.6884
20
-90.6977
11
94.5048
21
-90.8006
0
LINE
8
BLACK
6
CONTINUOUS
10
94.5048
20
-90.8006
11
94.3055
21
-90.8682
0
LINE
8
BLACK
6
CONTINUOUS
10
94.3055
20
-90.8682
11
94.0972
21
-90.8984
0
LINE
8
BLACK
6
CONTINUOUS
10
94.0972
20
-90.8984
11
93.8869
21
-90.8902
0
LINE
8
BLACK
6
CONTINUOUS
10
93.8869
20
-90.8902
11
93.6817
21
-90.8437
0
LINE
8
BLACK
6
CONTINUOUS
10
93.6817
20
-90.8437
11
93.4883
21
-90.7606
0
LINE
8
BLACK
6
CONTINUOUS
10
93.4883
20
-90.7606
11
93.3133
21
-90.6437
0
LINE
8
BLACK
6
CONTINUOUS
10
93.3133
20
-90.6437
11
93.1626
21
-90.4969
0
LINE
8
BLACK
6
CONTINUOUS
10
93.1626
20
-90.4969
11
93.0411
21
-90.325
0
LINE
8
BLACK
6
CONTINUOUS
10
93.0411
20
-90.325
11
92.953
21
-90.1339
0
LINE
8
BLACK
6
CONTINUOUS
10
92.953
20
-90.1339
11
92.9012
21
-89.9299
0
LINE
8
BLACK
6
CONTINUOUS
10
92.9012
20
-89.9299
11
92.8874
21
-89.7199
0
LINE
8
BLACK
6
CONTINUOUS
10
92.8874
20
-89.7199
11
92.9122
21
-89.5109
0
LINE
8
BLACK
6
CONTINUOUS
10
92.9122
20
-89.5109
11
92.9746
21
-89.3099
0
LINE
8
BLACK
6
CONTINUOUS
10
92.9746
20
-89.3099
11
93.0726
21
-89.1237
0
LINE
8
BLACK
6
CONTINUOUS
10
93.0726
20
-89.1237
11
93.2029
21
-88.9584
0
LINE
8
BLACK
6
CONTINUOUS
10
93.2029
20
-88.9584
11
93.3611
21
-88.8196
0
LINE
8
BLACK
6
CONTINUOUS
10
93.3611
20
-88.8196
11
93.5419
21
-88.712
0
LINE
8
BLACK
6
CONTINUOUS
10
93.5419
20
-88.712
11
93.7394
21
-88.6392
0
LINE
8
BLACK
6
CONTINUOUS
10
93.7394
20
-88.6392
11
93.9468
21
-88.6035
0
LINE
8
BLACK
6
CONTINUOUS
10
93.9468
20
-88.6035
11
94.1572
21
-88.6063
0
LINE
8
BLACK
6
CONTINUOUS
10
171.657
20
-72.1063
11
171.864
21
-72.1474
0
LINE
8
BLACK
6
CONTINUOUS
10
171.864
20
-72.1474
11
172.059
21
-72.2253
0
LINE
8
BLACK
6
CONTINUOUS
10
172.059
20
-72.2253
11
172.237
21
-72.3376
0
LINE
8
BLACK
6
CONTINUOUS
10
172.237
20
-72.3376
11
172.392
21
-72.4805
0
LINE
8
BLACK
6
CONTINUOUS
10
172.392
20
-72.4805
11
172.518
21
-72.6491
0
LINE
8
BLACK
6
CONTINUOUS
10
172.518
20
-72.6491
11
172.611
21
-72.8379
0
LINE
8
BLACK
6
CONTINUOUS
10
172.611
20
-72.8379
11
172.668
21
-73.0404
0
LINE
8
BLACK
6
CONTINUOUS
10
172.668
20
-73.0404
11
172.687
21
-73.25
0
LINE
8
BLACK
6
CONTINUOUS
10
172.687
20
-73.25
11
172.685
21
-73.3102
0
LINE
8
BLACK
6
CONTINUOUS
10
172.685
20
-73.3102
11
172.655
21
-73.5185
0
LINE
8
BLACK
6
CONTINUOUS
10
172.655
20
-73.5185
11
172.588
21
-73.7177
0
LINE
8
BLACK
6
CONTINUOUS
10
172.588
20
-73.7177
11
172.485
21
-73.9014
0
LINE
8
BLACK
6
CONTINUOUS
10
172.485
20
-73.9014
11
172.35
21
-74.0632
0
LINE
8
BLACK
6
CONTINUOUS
10
172.35
20
-74.0632
11
172.188
21
-74.1977
0
LINE
8
BLACK
6
CONTINUOUS
10
172.188
20
-74.1977
11
172.005
21
-74.3006
0
LINE
8
BLACK
6
CONTINUOUS
10
172.005
20
-74.3006
11
171.805
21
-74.3682
0
LINE
8
BLACK
6
CONTINUOUS
10
171.805
20
-74.3682
11
171.597
21
-74.3984
0
LINE
8
BLACK
6
CONTINUOUS
10
171.597
20
-74.3984
11
171.387
21
-74.3902
0
LINE
8
BLACK
6
CONTINUOUS
10
171.387
20
-74.3902
11
171.182
21
-74.3437
0
LINE
8
BLACK
6
CONTINUOUS
10
171.182
20
-74.3437
11
170.988
21
-74.2606
0
LINE
8
BLACK
6
CONTINUOUS
10
170.988
20
-74.2606
11
170.813
21
-74.1437
0
LINE
8
BLACK
6
CONTINUOUS
10
170.813
20
-74.1437
11
170.663
21
-73.9969
0
LINE
8
BLACK
6
CONTINUOUS
10
170.663
20
-73.9969
11
170.541
21
-73.825
0
LINE
8
BLACK
6
CONTINUOUS
10
170.541
20
-73.825
11
170.453
21
-73.6339
0
LINE
8
BLACK
6
CONTINUOUS
10
170.453
20
-73.6339
11
170.401
21
-73.4299
0
LINE
8
BLACK
6
CONTINUOUS
10
170.401
20
-73.4299
11
170.387
21
-73.2199
0
LINE
8
BLACK
6
CONTINUOUS
10
170.387
20
-73.2199
11
170.412
21
-73.0109
0
LINE
8
BLACK
6
CONTINUOUS
10
170.412
20
-73.0109
11
170.475
21
-72.8099
0
LINE
8
BLACK
6
CONTINUOUS
10
170.475
20
-72.8099
11
170.573
21
-72.6237
0
LINE
8
BLACK
6
CONTINUOUS
10
170.573
20
-72.6237
11
170.703
21
-72.4584
0
LINE
8
BLACK
6
CONTINUOUS
10
170.703
20
-72.4584
11
170.861
21
-72.3196
0
LINE
8
BLACK
6
CONTINUOUS
10
170.861
20
-72.3196
11
171.042
21
-72.212
0
LINE
8
BLACK
6
CONTINUOUS
10
171.042
20
-72.212
11
171.239
21
-72.1392
0
LINE
8
BLACK
6
CONTINUOUS
10
171.239
20
-72.1392
11
171.447
21
-72.1035
0
LINE
8
BLACK
6
CONTINUOUS
10
171.447
20
-72.1035
11
171.657
21
-72.1063
0
LINE
8
BLACK
6
CONTINUOUS
10
114.157
20
-69.6063
11
114.364
21
-69.6474
0
LINE
8
BLACK
6
CONTINUOUS
10
114.364
20
-69.6474
11
114.559
21
-69.7253
0
LINE
8
BLACK
6
CONTINUOUS
10
114.559
20
-69.7253
11
114.737
21
-69.8376
0
LINE
8
BLACK
6
CONTINUOUS
10
114.737
20
-69.8376
11
114.892
21
-69.9805
0
LINE
8
BLACK
6
CONTINUOUS
10
114.892
20
-69.9805
11
115.018
21
-70.1491
0
LINE
8
BLACK
6
CONTINUOUS
10
115.018
20
-70.1491
11
115.111
21
-70.3379
0
LINE
8
BLACK
6
CONTINUOUS
10
115.111
20
-70.3379
11
115.168
21
-70.5404
0
LINE
8
BLACK
6
CONTINUOUS
10
115.168
20
-70.5404
11
115.187
21
-70.75
0
LINE
8
BLACK
6
CONTINUOUS
10
115.187
20
-70.75
11
115.185
21
-70.8102
0
LINE
8
BLACK
6
CONTINUOUS
10
115.185
20
-70.8102
11
115.155
21
-71.0185
0
LINE
8
BLACK
6
CONTINUOUS
10
115.155
20
-71.0185
11
115.088
21
-71.2177
0
LINE
8
BLACK
6
CONTINUOUS
10
115.088
20
-71.2177
11
114.985
21
-71.4014
0
LINE
8
BLACK
6
CONTINUOUS
10
114.985
20
-71.4014
11
114.85
21
-71.5632
0
LINE
8
BLACK
6
CONTINUOUS
10
114.85
20
-71.5632
11
114.688
21
-71.6977
0
LINE
8
BLACK
6
CONTINUOUS
10
114.688
20
-71.6977
11
114.505
21
-71.8006
0
LINE
8
BLACK
6
CONTINUOUS
10
114.505
20
-71.8006
11
114.305
21
-71.8682
0
LINE
8
BLACK
6
CONTINUOUS
10
114.305
20
-71.8682
11
114.097
21
-71.8984
0
LINE
8
BLACK
6
CONTINUOUS
10
114.097
20
-71.8984
11
113.887
21
-71.8902
0
LINE
8
BLACK
6
CONTINUOUS
10
113.887
20
-71.8902
11
113.682
21
-71.8437
0
LINE
8
BLACK
6
CONTINUOUS
10
113.682
20
-71.8437
11
113.488
21
-71.7606
0
LINE
8
BLACK
6
CONTINUOUS
10
113.488
20
-71.7606
11
113.313
21
-71.6437
0
LINE
8
BLACK
6
CONTINUOUS
10
113.313
20
-71.6437
11
113.163
21
-71.4969
0
LINE
8
BLACK
6
CONTINUOUS
10
113.163
20
-71.4969
11
113.041
21
-71.325
0
LINE
8
BLACK
6
CONTINUOUS
10
113.041
20
-71.325
11
112.953
21
-71.1339
0
LINE
8
BLACK
6
CONTINUOUS
10
112.953
20
-71.1339
11
112.901
21
-70.9299
0
LINE
8
BLACK
6
CONTINUOUS
10
112.901
20
-70.9299
11
112.887
21
-70.7199
0
LINE
8
BLACK
6
CONTINUOUS
10
112.887
20
-70.7199
11
112.912
21
-70.5109
0
LINE
8
BLACK
6
CONTINUOUS
10
112.912
20
-70.5109
11
112.975
21
-70.3099
0
LINE
8
BLACK
6
CONTINUOUS
10
112.975
20
-70.3099
11
113.073
21
-70.1237
0
LINE
8
BLACK
6
CONTINUOUS
10
113.073
20
-70.1237
11
113.203
21
-69.9584
0
LINE
8
BLACK
6
CONTINUOUS
10
113.203
20
-69.9584
11
113.361
21
-69.8196
0
LINE
8
BLACK
6
CONTINUOUS
10
113.361
20
-69.8196
11
113.542
21
-69.712
0
LINE
8
BLACK
6
CONTINUOUS
10
113.542
20
-69.712
11
113.739
21
-69.6392
0
LINE
8
BLACK
6
CONTINUOUS
10
113.739
20
-69.6392
11
113.947
21
-69.6035
0
LINE
8
BLACK
6
CONTINUOUS
10
113.947
20
-69.6035
11
114.157
21
-69.6063
0
LINE
8
BLACK
6
CONTINUOUS
10
188.721
20
-51.2158
11
188.937
21
-51.2628
0
LINE
8
BLACK
6
CONTINUOUS
10
188.937
20
-51.2628
11
189.144
21
-51.34
0
LINE
8
BLACK
6
CONTINUOUS
10
189.144
20
-51.34
11
189.338
21
-51.446
0
LINE
8
BLACK
6
CONTINUOUS
10
189.338
20
-51.446
11
189.515
21
-51.5786
0
LINE
8
BLACK
6
CONTINUOUS
10
189.515
20
-51.5786
11
189.671
21
-51.7349
0
LINE
8
BLACK
6
CONTINUOUS
10
189.671
20
-51.7349
11
189.804
21
-51.912
0
LINE
8
BLACK
6
CONTINUOUS
10
189.804
20
-51.912
11
189.91
21
-52.1061
0
LINE
8
BLACK
6
CONTINUOUS
10
189.91
20
-52.1061
11
189.987
21
-52.3133
0
LINE
8
BLACK
6
CONTINUOUS
10
189.987
20
-52.3133
11
190.034
21
-52.5294
0
LINE
8
BLACK
6
CONTINUOUS
10
190.034
20
-52.5294
11
190.05
21
-52.75
0
LINE
8
BLACK
6
CONTINUOUS
10
190.05
20
-52.75
11
190.05
21
-104.75
0
LINE
8
BLACK
6
CONTINUOUS
10
190.05
20
-104.75
11
190.046
21
-104.759
0
LINE
8
BLACK
6
CONTINUOUS
10
190.046
20
-104.759
11
190.063
21
-104.978
0
LINE
8
BLACK
6
CONTINUOUS
10
190.063
20
-104.978
11
190.117
21
-105.199
0
LINE
8
BLACK
6
CONTINUOUS
10
190.117
20
-105.199
11
190.204
21
-105.41
0
LINE
8
BLACK
6
CONTINUOUS
10
190.204
20
-105.41
11
190.323
21
-105.605
0
LINE
8
BLACK
6
CONTINUOUS
10
190.323
20
-105.605
11
190.472
21
-105.778
0
LINE
8
BLACK
6
CONTINUOUS
10
190.472
20
-105.778
11
190.645
21
-105.927
0
LINE
8
BLACK
6
CONTINUOUS
10
190.645
20
-105.927
11
190.84
21
-106.046
0
LINE
8
BLACK
6
CONTINUOUS
10
190.84
20
-106.046
11
191.051
21
-106.133
0
LINE
8
BLACK
6
CONTINUOUS
10
191.051
20
-106.133
11
191.272
21
-106.187
0
LINE
8
BLACK
6
CONTINUOUS
10
191.272
20
-106.187
11
191.491
21
-106.204
0
LINE
8
BLACK
6
CONTINUOUS
10
191.491
20
-106.204
11
191.5
21
-106.2
0
LINE
8
BLACK
6
CONTINUOUS
10
191.5
20
-106.2
11
191.5
21
-106.2
0
LINE
8
BLACK
6
CONTINUOUS
10
191.5
20
-106.2
11
191.5
21
-106.2
0
LINE
8
BLACK
6
CONTINUOUS
10
191.5
20
-106.2
11
191.5
21
-106.2
0
LINE
8
BLACK
6
CONTINUOUS
10
191.5
20
-106.2
11
208.537
21
-106.2
0
LINE
8
BLACK
6
CONTINUOUS
10
208.537
20
-106.2
11
208.758
21
-106.216
0
LINE
8
BLACK
6
CONTINUOUS
10
208.758
20
-106.216
11
208.974
21
-106.263
0
LINE
8
BLACK
6
CONTINUOUS
10
208.974
20
-106.263
11
209.181
21
-106.34
0
LINE
8
BLACK
6
CONTINUOUS
10
209.181
20
-106.34
11
209.375
21
-106.446
0
LINE
8
BLACK
6
CONTINUOUS
10
209.375
20
-106.446
11
209.552
21
-106.579
0
LINE
8
BLACK
6
CONTINUOUS
10
209.552
20
-106.579
11
209.708
21
-106.735
0
LINE
8
BLACK
6
CONTINUOUS
10
209.708
20
-106.735
11
209.841
21
-106.912
0
LINE
8
BLACK
6
CONTINUOUS
10
209.841
20
-106.912
11
209.947
21
-107.106
0
LINE
8
BLACK
6
CONTINUOUS
10
209.947
20
-107.106
11
210.024
21
-107.313
0
LINE
8
BLACK
6
CONTINUOUS
10
210.024
20
-107.313
11
210.071
21
-107.529
0
LINE
8
BLACK
6
CONTINUOUS
10
210.071
20
-107.529
11
210.087
21
-107.75
0
LINE
8
BLACK
6
CONTINUOUS
10
210.087
20
-107.75
11
210.087
21
-107.75
0
LINE
8
BLACK
6
CONTINUOUS
10
210.087
20
-107.75
11
210.087
21
-118.75
0
LINE
8
BLACK
6
CONTINUOUS
10
210.087
20
-118.75
11
210.082
21
-118.762
0
LINE
8
BLACK
6
CONTINUOUS
10
210.082
20
-118.762
11
210.08
21
-118.775
0
LINE
8
BLACK
6
CONTINUOUS
10
210.08
20
-118.775
11
196.629
21
-142.226
0
LINE
8
BLACK
6
CONTINUOUS
10
196.629
20
-142.226
11
196.629
21
-142.226
0
LINE
8
BLACK
6
CONTINUOUS
10
196.629
20
-142.226
11
196.629
21
-142.226
0
LINE
8
BLACK
6
CONTINUOUS
10
196.629
20
-142.226
11
196.629
21
-142.226
0
LINE
8
BLACK
6
CONTINUOUS
10
196.629
20
-142.226
11
196.505
21
-142.409
0
LINE
8
BLACK
6
CONTINUOUS
10
196.505
20
-142.409
11
196.357
21
-142.573
0
LINE
8
BLACK
6
CONTINUOUS
10
196.357
20
-142.573
11
196.186
21
-142.714
0
LINE
8
BLACK
6
CONTINUOUS
10
196.186
20
-142.714
11
195.997
21
-142.829
0
LINE
8
BLACK
6
CONTINUOUS
10
195.997
20
-142.829
11
195.794
21
-142.916
0
LINE
8
BLACK
6
CONTINUOUS
10
195.794
20
-142.916
11
195.58
21
-142.973
0
LINE
8
BLACK
6
CONTINUOUS
10
195.58
20
-142.973
11
195.361
21
-142.999
0
LINE
8
BLACK
6
CONTINUOUS
10
195.361
20
-142.999
11
195.14
21
-142.994
0
LINE
8
BLACK
6
CONTINUOUS
10
195.14
20
-142.994
11
194.922
21
-142.957
0
LINE
8
BLACK
6
CONTINUOUS
10
194.922
20
-142.957
11
194.711
21
-142.89
0
LINE
8
BLACK
6
CONTINUOUS
10
194.711
20
-142.89
11
194.512
21
-142.793
0
LINE
8
BLACK
6
CONTINUOUS
10
194.512
20
-142.793
11
194.512
21
-142.793
0
LINE
8
BLACK
6
CONTINUOUS
10
194.512
20
-142.793
11
194.512
21
-142.793
0
LINE
8
BLACK
6
CONTINUOUS
10
194.512
20
-142.793
11
194.512
21
-142.793
0
LINE
8
BLACK
6
CONTINUOUS
10
194.512
20
-142.793
11
179.018
21
-133.797
0
LINE
8
BLACK
6
CONTINUOUS
10
179.018
20
-133.797
11
160.53
21
-128.8
0
LINE
8
BLACK
6
CONTINUOUS
10
160.53
20
-128.8
11
141.537
21
-128.8
0
LINE
8
BLACK
6
CONTINUOUS
10
141.537
20
-128.8
11
141.528
21
-128.796
0
LINE
8
BLACK
6
CONTINUOUS
10
141.528
20
-128.796
11
141.519
21
-128.797
0
LINE
8
BLACK
6
CONTINUOUS
10
141.519
20
-128.797
11
112.028
21
-117.3
0
LINE
8
BLACK
6
CONTINUOUS
10
112.028
20
-117.3
11
95.537
21
-117.3
0
LINE
8
BLACK
6
CONTINUOUS
10
95.537
20
-117.3
11
95.3164
21
-117.284
0
LINE
8
BLACK
6
CONTINUOUS
10
95.3164
20
-117.284
11
95.1003
21
-117.237
0
LINE
8
BLACK
6
CONTINUOUS
10
95.1003
20
-117.237
11
94.8931
21
-117.16
0
LINE
8
BLACK
6
CONTINUOUS
10
94.8931
20
-117.16
11
94.699
21
-117.054
0
LINE
8
BLACK
6
CONTINUOUS
10
94.699
20
-117.054
11
94.522
21
-116.921
0
LINE
8
BLACK
6
CONTINUOUS
10
94.522
20
-116.921
11
94.3656
21
-116.765
0
LINE
8
BLACK
6
CONTINUOUS
10
94.3656
20
-116.765
11
94.2331
21
-116.588
0
LINE
8
BLACK
6
CONTINUOUS
10
94.2331
20
-116.588
11
94.1271
21
-116.394
0
LINE
8
BLACK
6
CONTINUOUS
10
94.1271
20
-116.394
11
94.0498
21
-116.187
0
LINE
8
BLACK
6
CONTINUOUS
10
94.0498
20
-116.187
11
94.0028
21
-115.971
0
LINE
8
BLACK
6
CONTINUOUS
10
94.0028
20
-115.971
11
93.987
21
-115.75
0
LINE
8
BLACK
6
CONTINUOUS
10
93.987
20
-115.75
11
93.987
21
-115.75
0
LINE
8
BLACK
6
CONTINUOUS
10
93.987
20
-115.75
11
93.987
21
-110.75
0
LINE
8
BLACK
6
CONTINUOUS
10
93.987
20
-110.75
11
93.9908
21
-110.741
0
LINE
8
BLACK
6
CONTINUOUS
10
93.9908
20
-110.741
11
93.9736
21
-110.522
0
LINE
8
BLACK
6
CONTINUOUS
10
93.9736
20
-110.522
11
93.9203
21
-110.301
0
LINE
8
BLACK
6
CONTINUOUS
10
93.9203
20
-110.301
11
93.833
21
-110.09
0
LINE
8
BLACK
6
CONTINUOUS
10
93.833
20
-110.09
11
93.7137
21
-109.895
0
LINE
8
BLACK
6
CONTINUOUS
10
93.7137
20
-109.895
11
93.5655
21
-109.722
0
LINE
8
BLACK
6
CONTINUOUS
10
93.5655
20
-109.722
11
93.3919
21
-109.573
0
LINE
8
BLACK
6
CONTINUOUS
10
93.3919
20
-109.573
11
93.1973
21
-109.454
0
LINE
8
BLACK
6
CONTINUOUS
10
93.1973
20
-109.454
11
92.9865
21
-109.367
0
LINE
8
BLACK
6
CONTINUOUS
10
92.9865
20
-109.367
11
92.7646
21
-109.313
0
LINE
8
BLACK
6
CONTINUOUS
10
92.7646
20
-109.313
11
92.5461
21
-109.296
0
LINE
8
BLACK
6
CONTINUOUS
10
92.5461
20
-109.296
11
92.537
21
-109.3
0
LINE
8
BLACK
6
CONTINUOUS
10
92.537
20
-109.3
11
76.537
21
-109.3
0
LINE
8
BLACK
6
CONTINUOUS
10
76.537
20
-109.3
11
76.3164
21
-109.284
0
LINE
8
BLACK
6
CONTINUOUS
10
76.3164
20
-109.284
11
76.1003
21
-109.237
0
LINE
8
BLACK
6
CONTINUOUS
10
76.1003
20
-109.237
11
75.8931
21
-109.16
0
LINE
8
BLACK
6
CONTINUOUS
10
75.8931
20
-109.16
11
75.699
21
-109.054
0
LINE
8
BLACK
6
CONTINUOUS
10
75.699
20
-109.054
11
75.522
21
-108.921
0
LINE
8
BLACK
6
CONTINUOUS
10
75.522
20
-108.921
11
75.3656
21
-108.765
0
LINE
8
BLACK
6
CONTINUOUS
10
75.3656
20
-108.765
11
75.2331
21
-108.588
0
LINE
8
BLACK
6
CONTINUOUS
10
75.2331
20
-108.588
11
75.1271
21
-108.394
0
LINE
8
BLACK
6
CONTINUOUS
10
75.1271
20
-108.394
11
75.0498
21
-108.187
0
LINE
8
BLACK
6
CONTINUOUS
10
75.0498
20
-108.187
11
75.0028
21
-107.971
0
LINE
8
BLACK
6
CONTINUOUS
10
75.0028
20
-107.971
11
74.987
21
-107.75
0
LINE
8
BLACK
6
CONTINUOUS
10
74.987
20
-107.75
11
74.987
21
-107.75
0
LINE
8
BLACK
6
CONTINUOUS
10
74.987
20
-107.75
11
74.987
21
-71.75
0
LINE
8
BLACK
6
CONTINUOUS
10
74.987
20
-71.75
11
75.0028
21
-71.5294
0
LINE
8
BLACK
6
CONTINUOUS
10
75.0028
20
-71.5294
11
75.0498
21
-71.3133
0
LINE
8
BLACK
6
CONTINUOUS
10
75.0498
20
-71.3133
11
75.1271
21
-71.1061
0
LINE
8
BLACK
6
CONTINUOUS
10
75.1271
20
-71.1061
11
75.2331
21
-70.912
0
LINE
8
BLACK
6
CONTINUOUS
10
75.2331
20
-70.912
11
75.3656
21
-70.735
0
LINE
8
BLACK
6
CONTINUOUS
10
75.3656
20
-70.735
11
75.522
21
-70.5786
0
LINE
8
BLACK
6
CONTINUOUS
10
75.522
20
-70.5786
11
75.699
21
-70.4461
0
LINE
8
BLACK
6
CONTINUOUS
10
75.699
20
-70.4461
11
75.8931
21
-70.3401
0
LINE
8
BLACK
6
CONTINUOUS
10
75.8931
20
-70.3401
11
76.1004
21
-70.2628
0
LINE
8
BLACK
6
CONTINUOUS
10
76.1004
20
-70.2628
11
76.3164
21
-70.2158
0
LINE
8
BLACK
6
CONTINUOUS
10
76.3164
20
-70.2158
11
76.5369
21
-70.2
0
LINE
8
BLACK
6
CONTINUOUS
10
76.5369
20
-70.2
11
76.537
21
-70.2
0
LINE
8
BLACK
6
CONTINUOUS
10
76.537
20
-70.2
11
92.537
21
-70.2
0
LINE
8
BLACK
6
CONTINUOUS
10
92.537
20
-70.2
11
92.5417
21
-70.202
0
LINE
8
BLACK
6
CONTINUOUS
10
92.5417
20
-70.202
11
92.5462
21
-70.2038
0
LINE
8
BLACK
6
CONTINUOUS
10
92.5462
20
-70.2038
11
92.7646
21
-70.1866
0
LINE
8
BLACK
6
CONTINUOUS
10
92.7646
20
-70.1866
11
92.9865
21
-70.1333
0
LINE
8
BLACK
6
CONTINUOUS
10
92.9865
20
-70.1333
11
93.1974
21
-70.046
0
LINE
8
BLACK
6
CONTINUOUS
10
93.1974
20
-70.046
11
93.392
21
-69.9267
0
LINE
8
BLACK
6
CONTINUOUS
10
93.392
20
-69.9267
11
93.5655
21
-69.7785
0
LINE
8
BLACK
6
CONTINUOUS
10
93.5655
20
-69.7785
11
93.7137
21
-69.6049
0
LINE
8
BLACK
6
CONTINUOUS
10
93.7137
20
-69.6049
11
93.833
21
-69.4103
0
LINE
8
BLACK
6
CONTINUOUS
10
93.833
20
-69.4103
11
93.9203
21
-69.1995
0
LINE
8
BLACK
6
CONTINUOUS
10
93.9203
20
-69.1995
11
93.9736
21
-68.9775
0
LINE
8
BLACK
6
CONTINUOUS
10
93.9736
20
-68.9775
11
93.9908
21
-68.7591
0
LINE
8
BLACK
6
CONTINUOUS
10
93.9908
20
-68.7591
11
93.987
21
-68.75
0
LINE
8
BLACK
6
CONTINUOUS
10
93.987
20
-68.75
11
93.987
21
-60.75
0
LINE
8
BLACK
6
CONTINUOUS
10
93.987
20
-60.75
11
94.0028
21
-60.5294
0
LINE
8
BLACK
6
CONTINUOUS
10
94.0028
20
-60.5294
11
94.0498
21
-60.3133
0
LINE
8
BLACK
6
CONTINUOUS
10
94.0498
20
-60.3133
11
94.1271
21
-60.1061
0
LINE
8
BLACK
6
CONTINUOUS
10
94.1271
20
-60.1061
11
94.2331
21
-59.912
0
LINE
8
BLACK
6
CONTINUOUS
10
94.2331
20
-59.912
11
94.3656
21
-59.735
0
LINE
8
BLACK
6
CONTINUOUS
10
94.3656
20
-59.735
11
94.522
21
-59.5786
0
LINE
8
BLACK
6
CONTINUOUS
10
94.522
20
-59.5786
11
94.699
21
-59.4461
0
LINE
8
BLACK
6
CONTINUOUS
10
94.699
20
-59.4461
11
94.8931
21
-59.3401
0
LINE
8
BLACK
6
CONTINUOUS
10
94.8931
20
-59.3401
11
95.1004
21
-59.2628
0
LINE
8
BLACK
6
CONTINUOUS
10
95.1004
20
-59.2628
11
95.3164
21
-59.2158
0
LINE
8
BLACK
6
CONTINUOUS
10
95.3164
20
-59.2158
11
95.5369
21
-59.2
0
LINE
8
BLACK
6
CONTINUOUS
10
95.5369
20
-59.2
11
95.537
21
-59.2
0
LINE
8
BLACK
6
CONTINUOUS
10
95.537
20
-59.2
11
111.537
21
-59.2
0
LINE
8
BLACK
6
CONTINUOUS
10
111.537
20
-59.2
11
111.542
21
-59.202
0
LINE
8
BLACK
6
CONTINUOUS
10
111.542
20
-59.202
11
111.546
21
-59.2038
0
LINE
8
BLACK
6
CONTINUOUS
10
111.546
20
-59.2038
11
111.765
21
-59.1866
0
LINE
8
BLACK
6
CONTINUOUS
10
111.765
20
-59.1866
11
111.986
21
-59.1333
0
LINE
8
BLACK
6
CONTINUOUS
10
111.986
20
-59.1333
11
112.197
21
-59.046
0
LINE
8
BLACK
6
CONTINUOUS
10
112.197
20
-59.046
11
112.392
21
-58.9267
0
LINE
8
BLACK
6
CONTINUOUS
10
112.392
20
-58.9267
11
112.566
21
-58.7785
0
LINE
8
BLACK
6
CONTINUOUS
10
112.566
20
-58.7785
11
112.714
21
-58.6049
0
LINE
8
BLACK
6
CONTINUOUS
10
112.714
20
-58.6049
11
112.833
21
-58.4103
0
LINE
8
BLACK
6
CONTINUOUS
10
112.833
20
-58.4103
11
112.92
21
-58.1995
0
LINE
8
BLACK
6
CONTINUOUS
10
112.92
20
-58.1995
11
112.974
21
-57.9775
0
LINE
8
BLACK
6
CONTINUOUS
10
112.974
20
-57.9775
11
112.991
21
-57.7591
0
LINE
8
BLACK
6
CONTINUOUS
10
112.991
20
-57.7591
11
112.987
21
-57.75
0
LINE
8
BLACK
6
CONTINUOUS
10
112.987
20
-57.75
11
112.987
21
-52.75
0
LINE
8
BLACK
6
CONTINUOUS
10
112.987
20
-52.75
11
113.003
21
-52.5294
0
LINE
8
BLACK
6
CONTINUOUS
10
113.003
20
-52.5294
11
113.05
21
-52.3133
0
LINE
8
BLACK
6
CONTINUOUS
10
113.05
20
-52.3133
11
113.127
21
-52.1061
0
LINE
8
BLACK
6
CONTINUOUS
10
113.127
20
-52.1061
11
113.233
21
-51.912
0
LINE
8
BLACK
6
CONTINUOUS
10
113.233
20
-51.912
11
113.366
21
-51.735
0
LINE
8
BLACK
6
CONTINUOUS
10
113.366
20
-51.735
11
113.522
21
-51.5786
0
LINE
8
BLACK
6
CONTINUOUS
10
113.522
20
-51.5786
11
113.699
21
-51.4461
0
LINE
8
BLACK
6
CONTINUOUS
10
113.699
20
-51.4461
11
113.893
21
-51.3401
0
LINE
8
BLACK
6
CONTINUOUS
10
113.893
20
-51.3401
11
114.1
21
-51.2628
0
LINE
8
BLACK
6
CONTINUOUS
10
114.1
20
-51.2628
11
114.316
21
-51.2158
0
LINE
8
BLACK
6
CONTINUOUS
10
114.316
20
-51.2158
11
114.537
21
-51.2
0
LINE
8
BLACK
6
CONTINUOUS
10
114.537
20
-51.2
11
114.537
21
-51.2
0
LINE
8
BLACK
6
CONTINUOUS
10
114.537
20
-51.2
11
130.537
21
-51.2
0
LINE
8
BLACK
6
CONTINUOUS
10
130.537
20
-51.2
11
130.542
21
-51.202
0
LINE
8
BLACK
6
CONTINUOUS
10
130.542
20
-51.202
11
130.546
21
-51.2038
0
LINE
8
BLACK
6
CONTINUOUS
10
130.546
20
-51.2038
11
130.765
21
-51.1866
0
LINE
8
BLACK
6
CONTINUOUS
10
130.765
20
-51.1866
11
130.986
21
-51.1333
0
LINE
8
BLACK
6
CONTINUOUS
10
130.986
20
-51.1333
11
131.197
21
-51.046
0
LINE
8
BLACK
6
CONTINUOUS
10
131.197
20
-51.046
11
131.392
21
-50.9267
0
LINE
8
BLACK
6
CONTINUOUS
10
131.392
20
-50.9267
11
131.566
21
-50.7785
0
LINE
8
BLACK
6
CONTINUOUS
10
131.566
20
-50.7785
11
131.714
21
-50.6049
0
LINE
8
BLACK
6
CONTINUOUS
10
131.714
20
-50.6049
11
131.833
21
-50.4103
0
LINE
8
BLACK
6
CONTINUOUS
10
131.833
20
-50.4103
11
131.92
21
-50.1995
0
LINE
8
BLACK
6
CONTINUOUS
10
131.92
20
-50.1995
11
131.974
21
-49.9775
0
LINE
8
BLACK
6
CONTINUOUS
10
131.974
20
-49.9775
11
131.991
21
-49.7591
0
LINE
8
BLACK
6
CONTINUOUS
10
131.991
20
-49.7591
11
131.987
21
-49.75
0
LINE
8
BLACK
6
CONTINUOUS
10
131.987
20
-49.75
11
131.987
21
-48.75
0
LINE
8
BLACK
6
CONTINUOUS
10
131.987
20
-48.75
11
132.003
21
-48.5294
0
LINE
8
BLACK
6
CONTINUOUS
10
132.003
20
-48.5294
11
132.05
21
-48.3133
0
LINE
8
BLACK
6
CONTINUOUS
10
132.05
20
-48.3133
11
132.127
21
-48.1061
0
LINE
8
BLACK
6
CONTINUOUS
10
132.127
20
-48.1061
11
132.233
21
-47.912
0
LINE
8
BLACK
6
CONTINUOUS
10
132.233
20
-47.912
11
132.366
21
-47.735
0
LINE
8
BLACK
6
CONTINUOUS
10
132.366
20
-47.735
11
132.522
21
-47.5786
0
LINE
8
BLACK
6
CONTINUOUS
10
132.522
20
-47.5786
11
132.699
21
-47.4461
0
LINE
8
BLACK
6
CONTINUOUS
10
132.699
20
-47.4461
11
132.893
21
-47.3401
0
LINE
8
BLACK
6
CONTINUOUS
10
132.893
20
-47.3401
11
133.1
21
-47.2628
0
LINE
8
BLACK
6
CONTINUOUS
10
133.1
20
-47.2628
11
133.316
21
-47.2158
0
LINE
8
BLACK
6
CONTINUOUS
10
133.316
20
-47.2158
11
133.537
21
-47.2
0
LINE
8
BLACK
6
CONTINUOUS
10
133.537
20
-47.2
11
133.537
21
-47.2
0
LINE
8
BLACK
6
CONTINUOUS
10
133.537
20
-47.2
11
150.537
21
-47.2
0
LINE
8
BLACK
6
CONTINUOUS
10
150.537
20
-47.2
11
150.758
21
-47.2158
0
LINE
8
BLACK
6
CONTINUOUS
10
150.758
20
-47.2158
11
150.974
21
-47.2628
0
LINE
8
BLACK
6
CONTINUOUS
10
150.974
20
-47.2628
11
151.181
21
-47.3401
0
LINE
8
BLACK
6
CONTINUOUS
10
151.181
20
-47.3401
11
151.375
21
-47.4461
0
LINE
8
BLACK
6
CONTINUOUS
10
151.375
20
-47.4461
11
151.552
21
-47.5786
0
LINE
8
BLACK
6
CONTINUOUS
10
151.552
20
-47.5786
11
151.708
21
-47.735
0
LINE
8
BLACK
6
CONTINUOUS
10
151.708
20
-47.735
11
151.841
21
-47.912
0
LINE
8
BLACK
6
CONTINUOUS
10
151.841
20
-47.912
11
151.947
21
-48.1061
0
LINE
8
BLACK
6
CONTINUOUS
10
151.947
20
-48.1061
11
152.024
21
-48.3133
0
LINE
8
BLACK
6
CONTINUOUS
10
152.024
20
-48.3133
11
152.071
21
-48.5294
0
LINE
8
BLACK
6
CONTINUOUS
10
152.071
20
-48.5294
11
152.087
21
-48.7499
0
LINE
8
BLACK
6
CONTINUOUS
10
152.087
20
-48.7499
11
152.087
21
-48.75
0
LINE
8
BLACK
6
CONTINUOUS
10
152.087
20
-48.75
11
152.087
21
-49.75
0
LINE
8
BLACK
6
CONTINUOUS
10
152.087
20
-49.75
11
152.083
21
-49.7592
0
LINE
8
BLACK
6
CONTINUOUS
10
152.083
20
-49.7592
11
152.1
21
-49.9775
0
LINE
8
BLACK
6
CONTINUOUS
10
152.1
20
-49.9775
11
152.154
21
-50.1995
0
LINE
8
BLACK
6
CONTINUOUS
10
152.154
20
-50.1995
11
152.241
21
-50.4103
0
LINE
8
BLACK
6
CONTINUOUS
10
152.241
20
-50.4103
11
152.36
21
-50.6049
0
LINE
8
BLACK
6
CONTINUOUS
10
152.36
20
-50.6049
11
152.509
21
-50.7785
0
LINE
8
BLACK
6
CONTINUOUS
10
152.509
20
-50.7785
11
152.682
21
-50.9267
0
LINE
8
BLACK
6
CONTINUOUS
10
152.682
20
-50.9267
11
152.877
21
-51.046
0
LINE
8
BLACK
6
CONTINUOUS
10
152.877
20
-51.046
11
153.088
21
-51.1333
0
LINE
8
BLACK
6
CONTINUOUS
10
153.088
20
-51.1333
11
153.309
21
-51.1866
0
LINE
8
BLACK
6
CONTINUOUS
10
153.309
20
-51.1866
11
153.528
21
-51.2038
0
LINE
8
BLACK
6
CONTINUOUS
10
153.528
20
-51.2038
11
153.537
21
-51.2
0
LINE
8
BLACK
6
CONTINUOUS
10
153.537
20
-51.2
11
188.5
21
-51.2
0
LINE
8
BLACK
6
CONTINUOUS
10
188.5
20
-51.2
11
188.721
21
-51.2158
0
LINE
8
BLACK
6
CONTINUOUS
10
133.528
20
-47.2963
11
133.31
21
-47.3135
0
LINE
8
BLACK
6
CONTINUOUS
10
133.31
20
-47.3135
11
133.088
21
-47.3667
0
LINE
8
BLACK
6
CONTINUOUS
10
133.088
20
-47.3667
11
132.877
21
-47.4541
0
LINE
8
BLACK
6
CONTINUOUS
10
132.877
20
-47.4541
11
132.682
21
-47.5733
0
LINE
8
BLACK
6
CONTINUOUS
10
132.682
20
-47.5733
11
132.509
21
-47.7215
0
LINE
8
BLACK
6
CONTINUOUS
10
132.509
20
-47.7215
11
132.36
21
-47.8951
0
LINE
8
BLACK
6
CONTINUOUS
10
132.36
20
-47.8951
11
132.241
21
-48.0897
0
LINE
8
BLACK
6
CONTINUOUS
10
132.241
20
-48.0897
11
132.154
21
-48.3005
0
LINE
8
BLACK
6
CONTINUOUS
10
132.154
20
-48.3005
11
132.1
21
-48.5225
0
LINE
8
BLACK
6
CONTINUOUS
10
132.1
20
-48.5225
11
132.083
21
-48.7409
0
LINE
8
BLACK
6
CONTINUOUS
10
132.083
20
-48.7409
11
132.087
21
-48.7499
0
LINE
8
BLACK
6
CONTINUOUS
10
132.087
20
-48.7499
11
132.087
21
-48.75
0
LINE
8
BLACK
6
CONTINUOUS
10
132.087
20
-48.75
11
132.087
21
-49.75
0
LINE
8
BLACK
6
CONTINUOUS
10
132.087
20
-49.75
11
132.071
21
-49.9706
0
LINE
8
BLACK
6
CONTINUOUS
10
132.071
20
-49.9706
11
132.024
21
-50.1867
0
LINE
8
BLACK
6
CONTINUOUS
10
132.024
20
-50.1867
11
131.947
21
-50.3939
0
LINE
8
BLACK
6
CONTINUOUS
10
131.947
20
-50.3939
11
131.841
21
-50.588
0
LINE
8
BLACK
6
CONTINUOUS
10
131.841
20
-50.588
11
131.708
21
-50.765
0
LINE
8
BLACK
6
CONTINUOUS
10
131.708
20
-50.765
11
131.552
21
-50.9214
0
LINE
8
BLACK
6
CONTINUOUS
10
131.552
20
-50.9214
11
131.375
21
-51.054
0
LINE
8
BLACK
6
CONTINUOUS
10
131.375
20
-51.054
11
131.181
21
-51.1599
0
LINE
8
BLACK
6
CONTINUOUS
10
131.181
20
-51.1599
11
130.974
21
-51.2372
0
LINE
8
BLACK
6
CONTINUOUS
10
130.974
20
-51.2372
11
130.758
21
-51.2843
0
LINE
8
BLACK
6
CONTINUOUS
10
130.758
20
-51.2843
11
130.537
21
-51.3
0
LINE
8
BLACK
6
CONTINUOUS
10
130.537
20
-51.3
11
130.537
21
-51.3
0
LINE
8
BLACK
6
CONTINUOUS
10
130.537
20
-51.3
11
114.537
21
-51.3
0
LINE
8
BLACK
6
CONTINUOUS
10
114.537
20
-51.3
11
114.528
21
-51.2963
0
LINE
8
BLACK
6
CONTINUOUS
10
114.528
20
-51.2963
11
114.31
21
-51.3135
0
LINE
8
BLACK
6
CONTINUOUS
10
114.31
20
-51.3135
11
114.088
21
-51.3667
0
LINE
8
BLACK
6
CONTINUOUS
10
114.088
20
-51.3667
11
113.877
21
-51.4541
0
LINE
8
BLACK
6
CONTINUOUS
10
113.877
20
-51.4541
11
113.682
21
-51.5733
0
LINE
8
BLACK
6
CONTINUOUS
10
113.682
20
-51.5733
11
113.509
21
-51.7215
0
LINE
8
BLACK
6
CONTINUOUS
10
113.509
20
-51.7215
11
113.36
21
-51.8951
0
LINE
8
BLACK
6
CONTINUOUS
10
113.36
20
-51.8951
11
113.241
21
-52.0897
0
LINE
8
BLACK
6
CONTINUOUS
10
113.241
20
-52.0897
11
113.154
21
-52.3005
0
LINE
8
BLACK
6
CONTINUOUS
10
113.154
20
-52.3005
11
113.1
21
-52.5225
0
LINE
8
BLACK
6
CONTINUOUS
10
113.1
20
-52.5225
11
113.083
21
-52.7409
0
LINE
8
BLACK
6
CONTINUOUS
10
113.083
20
-52.7409
11
113.087
21
-52.75
0
LINE
8
BLACK
6
CONTINUOUS
10
113.087
20
-52.75
11
113.087
21
-57.75
0
LINE
8
BLACK
6
CONTINUOUS
10
113.087
20
-57.75
11
113.071
21
-57.9706
0
LINE
8
BLACK
6
CONTINUOUS
10
113.071
20
-57.9706
11
113.024
21
-58.1867
0
LINE
8
BLACK
6
CONTINUOUS
10
113.024
20
-58.1867
11
112.947
21
-58.3939
0
LINE
8
BLACK
6
CONTINUOUS
10
112.947
20
-58.3939
11
112.841
21
-58.588
0
LINE
8
BLACK
6
CONTINUOUS
10
112.841
20
-58.588
11
112.708
21
-58.765
0
LINE
8
BLACK
6
CONTINUOUS
10
112.708
20
-58.765
11
112.552
21
-58.9214
0
LINE
8
BLACK
6
CONTINUOUS
10
112.552
20
-58.9214
11
112.375
21
-59.054
0
LINE
8
BLACK
6
CONTINUOUS
10
112.375
20
-59.054
11
112.181
21
-59.1599
0
LINE
8
BLACK
6
CONTINUOUS
10
112.181
20
-59.1599
11
111.974
21
-59.2372
0
LINE
8
BLACK
6
CONTINUOUS
10
111.974
20
-59.2372
11
111.758
21
-59.2843
0
LINE
8
BLACK
6
CONTINUOUS
10
111.758
20
-59.2843
11
111.537
21
-59.3
0
LINE
8
BLACK
6
CONTINUOUS
10
111.537
20
-59.3
11
111.537
21
-59.3
0
LINE
8
BLACK
6
CONTINUOUS
10
111.537
20
-59.3
11
95.537
21
-59.3
0
LINE
8
BLACK
6
CONTINUOUS
10
95.537
20
-59.3
11
95.528
21
-59.2963
0
LINE
8
BLACK
6
CONTINUOUS
10
95.528
20
-59.2963
11
95.3095
21
-59.3135
0
LINE
8
BLACK
6
CONTINUOUS
10
95.3095
20
-59.3135
11
95.0876
21
-59.3667
0
LINE
8
BLACK
6
CONTINUOUS
10
95.0876
20
-59.3667
11
94.8767
21
-59.4541
0
LINE
8
BLACK
6
CONTINUOUS
10
94.8767
20
-59.4541
11
94.6821
21
-59.5733
0
LINE
8
BLACK
6
CONTINUOUS
10
94.6821
20
-59.5733
11
94.5086
21
-59.7215
0
LINE
8
BLACK
6
CONTINUOUS
10
94.5086
20
-59.7215
11
94.3603
21
-59.8951
0
LINE
8
BLACK
6
CONTINUOUS
10
94.3603
20
-59.8951
11
94.2411
21
-60.0897
0
LINE
8
BLACK
6
CONTINUOUS
10
94.2411
20
-60.0897
11
94.1537
21
-60.3005
0
LINE
8
BLACK
6
CONTINUOUS
10
94.1537
20
-60.3005
11
94.1005
21
-60.5225
0
LINE
8
BLACK
6
CONTINUOUS
10
94.1005
20
-60.5225
11
94.0833
21
-60.7409
0
LINE
8
BLACK
6
CONTINUOUS
10
94.0833
20
-60.7409
11
94.087
21
-60.75
0
LINE
8
BLACK
6
CONTINUOUS
10
94.087
20
-60.75
11
94.087
21
-68.75
0
LINE
8
BLACK
6
CONTINUOUS
10
94.087
20
-68.75
11
94.0713
21
-68.9706
0
LINE
8
BLACK
6
CONTINUOUS
10
94.0713
20
-68.9706
11
94.0242
21
-69.1867
0
LINE
8
BLACK
6
CONTINUOUS
10
94.0242
20
-69.1867
11
93.947
21
-69.3939
0
LINE
8
BLACK
6
CONTINUOUS
10
93.947
20
-69.3939
11
93.841
21
-69.588
0
LINE
8
BLACK
6
CONTINUOUS
10
93.841
20
-69.588
11
93.7084
21
-69.765
0
LINE
8
BLACK
6
CONTINUOUS
10
93.7084
20
-69.765
11
93.5521
21
-69.9214
0
LINE
8
BLACK
6
CONTINUOUS
10
93.5521
20
-69.9214
11
93.375
21
-70.054
0
LINE
8
BLACK
6
CONTINUOUS
10
93.375
20
-70.054
11
93.1809
21
-70.1599
0
LINE
8
BLACK
6
CONTINUOUS
10
93.1809
20
-70.1599
11
92.9737
21
-70.2372
0
LINE
8
BLACK
6
CONTINUOUS
10
92.9737
20
-70.2372
11
92.7576
21
-70.2843
0
LINE
8
BLACK
6
CONTINUOUS
10
92.7576
20
-70.2843
11
92.537
21
-70.3
0
LINE
8
BLACK
6
CONTINUOUS
10
92.537
20
-70.3
11
92.537
21
-70.3
0
LINE
8
BLACK
6
CONTINUOUS
10
92.537
20
-70.3
11
76.537
21
-70.3
0
LINE
8
BLACK
6
CONTINUOUS
10
76.537
20
-70.3
11
76.528
21
-70.2963
0
LINE
8
BLACK
6
CONTINUOUS
10
76.528
20
-70.2963
11
76.3095
21
-70.3135
0
LINE
8
BLACK
6
CONTINUOUS
10
76.3095
20
-70.3135
11
76.0876
21
-70.3667
0
LINE
8
BLACK
6
CONTINUOUS
10
76.0876
20
-70.3667
11
75.8767
21
-70.4541
0
LINE
8
BLACK
6
CONTINUOUS
10
75.8767
20
-70.4541
11
75.6821
21
-70.5733
0
LINE
8
BLACK
6
CONTINUOUS
10
75.6821
20
-70.5733
11
75.5086
21
-70.7215
0
LINE
8
BLACK
6
CONTINUOUS
10
75.5086
20
-70.7215
11
75.3603
21
-70.8951
0
LINE
8
BLACK
6
CONTINUOUS
10
75.3603
20
-70.8951
11
75.2411
21
-71.0897
0
LINE
8
BLACK
6
CONTINUOUS
10
75.2411
20
-71.0897
11
75.1537
21
-71.3005
0
LINE
8
BLACK
6
CONTINUOUS
10
75.1537
20
-71.3005
11
75.1005
21
-71.5225
0
LINE
8
BLACK
6
CONTINUOUS
10
75.1005
20
-71.5225
11
75.0833
21
-71.7409
0
LINE
8
BLACK
6
CONTINUOUS
10
75.0833
20
-71.7409
11
75.087
21
-71.75
0
LINE
8
BLACK
6
CONTINUOUS
10
75.087
20
-71.75
11
75.087
21
-107.75
0
LINE
8
BLACK
6
CONTINUOUS
10
75.087
20
-107.75
11
75.0832
21
-107.759
0
LINE
8
BLACK
6
CONTINUOUS
10
75.0832
20
-107.759
11
75.1004
21
-107.978
0
LINE
8
BLACK
6
CONTINUOUS
10
75.1004
20
-107.978
11
75.1537
21
-108.199
0
LINE
8
BLACK
6
CONTINUOUS
10
75.1537
20
-108.199
11
75.2411
21
-108.41
0
LINE
8
BLACK
6
CONTINUOUS
10
75.2411
20
-108.41
11
75.3603
21
-108.605
0
LINE
8
BLACK
6
CONTINUOUS
10
75.3603
20
-108.605
11
75.5085
21
-108.778
0
LINE
8
BLACK
6
CONTINUOUS
10
75.5085
20
-108.778
11
75.6821
21
-108.927
0
LINE
8
BLACK
6
CONTINUOUS
10
75.6821
20
-108.927
11
75.8767
21
-109.046
0
LINE
8
BLACK
6
CONTINUOUS
10
75.8767
20
-109.046
11
76.0876
21
-109.133
0
LINE
8
BLACK
6
CONTINUOUS
10
76.0876
20
-109.133
11
76.3095
21
-109.187
0
LINE
8
BLACK
6
CONTINUOUS
10
76.3095
20
-109.187
11
76.5279
21
-109.204
0
LINE
8
BLACK
6
CONTINUOUS
10
76.5279
20
-109.204
11
76.537
21
-109.2
0
LINE
8
BLACK
6
CONTINUOUS
10
76.537
20
-109.2
11
92.537
21
-109.2
0
LINE
8
BLACK
6
CONTINUOUS
10
92.537
20
-109.2
11
92.7576
21
-109.216
0
LINE
8
BLACK
6
CONTINUOUS
10
92.7576
20
-109.216
11
92.9737
21
-109.263
0
LINE
8
BLACK
6
CONTINUOUS
10
92.9737
20
-109.263
11
93.1809
21
-109.34
0
LINE
8
BLACK
6
CONTINUOUS
10
93.1809
20
-109.34
11
93.375
21
-109.446
0
LINE
8
BLACK
6
CONTINUOUS
10
93.375
20
-109.446
11
93.552
21
-109.579
0
LINE
8
BLACK
6
CONTINUOUS
10
93.552
20
-109.579
11
93.7084
21
-109.735
0
LINE
8
BLACK
6
CONTINUOUS
10
93.7084
20
-109.735
11
93.8409
21
-109.912
0
LINE
8
BLACK
6
CONTINUOUS
10
93.8409
20
-109.912
11
93.9469
21
-110.106
0
LINE
8
BLACK
6
CONTINUOUS
10
93.9469
20
-110.106
11
94.0242
21
-110.313
0
LINE
8
BLACK
6
CONTINUOUS
10
94.0242
20
-110.313
11
94.0712
21
-110.529
0
LINE
8
BLACK
6
CONTINUOUS
10
94.0712
20
-110.529
11
94.087
21
-110.75
0
LINE
8
BLACK
6
CONTINUOUS
10
94.087
20
-110.75
11
94.087
21
-110.75
0
LINE
8
BLACK
6
CONTINUOUS
10
94.087
20
-110.75
11
94.087
21
-115.75
0
LINE
8
BLACK
6
CONTINUOUS
10
94.087
20
-115.75
11
94.0832
21
-115.759
0
LINE
8
BLACK
6
CONTINUOUS
10
94.0832
20
-115.759
11
94.1004
21
-115.978
0
LINE
8
BLACK
6
CONTINUOUS
10
94.1004
20
-115.978
11
94.1537
21
-116.199
0
LINE
8
BLACK
6
CONTINUOUS
10
94.1537
20
-116.199
11
94.2411
21
-116.41
0
LINE
8
BLACK
6
CONTINUOUS
10
94.2411
20
-116.41
11
94.3603
21
-116.605
0
LINE
8
BLACK
6
CONTINUOUS
10
94.3603
20
-116.605
11
94.5085
21
-116.778
0
LINE
8
BLACK
6
CONTINUOUS
10
94.5085
20
-116.778
11
94.6821
21
-116.927
0
LINE
8
BLACK
6
CONTINUOUS
10
94.6821
20
-116.927
11
94.8767
21
-117.046
0
LINE
8
BLACK
6
CONTINUOUS
10
94.8767
20
-117.046
11
95.0876
21
-117.133
0
LINE
8
BLACK
6
CONTINUOUS
10
95.0876
20
-117.133
11
95.3095
21
-117.187
0
LINE
8
BLACK
6
CONTINUOUS
10
95.3095
20
-117.187
11
95.5279
21
-117.204
0
LINE
8
BLACK
6
CONTINUOUS
10
95.5279
20
-117.204
11
95.537
21
-117.2
0
LINE
8
BLACK
6
CONTINUOUS
10
95.537
20
-117.2
11
112.037
21
-117.2
0
LINE
8
BLACK
6
CONTINUOUS
10
112.037
20
-117.2
11
112.046
21
-117.204
0
LINE
8
BLACK
6
CONTINUOUS
10
112.046
20
-117.204
11
112.055
21
-117.203
0
LINE
8
BLACK
6
CONTINUOUS
10
112.055
20
-117.203
11
141.546
21
-128.7
0
LINE
8
BLACK
6
CONTINUOUS
10
141.546
20
-128.7
11
160.537
21
-128.7
0
LINE
8
BLACK
6
CONTINUOUS
10
160.537
20
-128.7
11
160.543
21
-128.703
0
LINE
8
BLACK
6
CONTINUOUS
10
160.543
20
-128.703
11
160.55
21
-128.702
0
LINE
8
BLACK
6
CONTINUOUS
10
160.55
20
-128.702
11
179.05
21
-133.702
0
LINE
8
BLACK
6
CONTINUOUS
10
179.05
20
-133.702
11
179.055
21
-133.706
0
LINE
8
BLACK
6
CONTINUOUS
10
179.055
20
-133.706
11
179.062
21
-133.707
0
LINE
8
BLACK
6
CONTINUOUS
10
179.062
20
-133.707
11
194.562
21
-142.707
0
LINE
8
BLACK
6
CONTINUOUS
10
194.562
20
-142.707
11
194.568
21
-142.715
0
LINE
8
BLACK
6
CONTINUOUS
10
194.568
20
-142.715
11
194.766
21
-142.809
0
LINE
8
BLACK
6
CONTINUOUS
10
194.766
20
-142.809
11
194.985
21
-142.874
0
LINE
8
BLACK
6
CONTINUOUS
10
194.985
20
-142.874
11
195.211
21
-142.904
0
LINE
8
BLACK
6
CONTINUOUS
10
195.211
20
-142.904
11
195.439
21
-142.898
0
LINE
8
BLACK
6
CONTINUOUS
10
195.439
20
-142.898
11
195.663
21
-142.856
0
LINE
8
BLACK
6
CONTINUOUS
10
195.663
20
-142.856
11
195.879
21
-142.78
0
LINE
8
BLACK
6
CONTINUOUS
10
195.879
20
-142.78
11
196.079
21
-142.671
0
LINE
8
BLACK
6
CONTINUOUS
10
196.079
20
-142.671
11
196.26
21
-142.532
0
LINE
8
BLACK
6
CONTINUOUS
10
196.26
20
-142.532
11
196.417
21
-142.366
0
LINE
8
BLACK
6
CONTINUOUS
10
196.417
20
-142.366
11
196.541
21
-142.186
0
LINE
8
BLACK
6
CONTINUOUS
10
196.541
20
-142.186
11
196.543
21
-142.176
0
LINE
8
BLACK
6
CONTINUOUS
10
196.543
20
-142.176
11
209.987
21
-118.737
0
LINE
8
BLACK
6
CONTINUOUS
10
209.987
20
-118.737
11
209.987
21
-107.75
0
LINE
8
BLACK
6
CONTINUOUS
10
209.987
20
-107.75
11
209.991
21
-107.741
0
LINE
8
BLACK
6
CONTINUOUS
10
209.991
20
-107.741
11
209.974
21
-107.522
0
LINE
8
BLACK
6
CONTINUOUS
10
209.974
20
-107.522
11
209.92
21
-107.301
0
LINE
8
BLACK
6
CONTINUOUS
10
209.92
20
-107.301
11
209.833
21
-107.09
0
LINE
8
BLACK
6
CONTINUOUS
10
209.833
20
-107.09
11
209.714
21
-106.895
0
LINE
8
BLACK
6
CONTINUOUS
10
209.714
20
-106.895
11
209.565
21
-106.722
0
LINE
8
BLACK
6
CONTINUOUS
10
209.565
20
-106.722
11
209.392
21
-106.573
0
LINE
8
BLACK
6
CONTINUOUS
10
209.392
20
-106.573
11
209.197
21
-106.454
0
LINE
8
BLACK
6
CONTINUOUS
10
209.197
20
-106.454
11
208.986
21
-106.367
0
LINE
8
BLACK
6
CONTINUOUS
10
208.986
20
-106.367
11
208.765
21
-106.313
0
LINE
8
BLACK
6
CONTINUOUS
10
208.765
20
-106.313
11
208.546
21
-106.296
0
LINE
8
BLACK
6
CONTINUOUS
10
208.546
20
-106.296
11
208.537
21
-106.3
0
LINE
8
BLACK
6
CONTINUOUS
10
208.537
20
-106.3
11
191.5
21
-106.3
0
LINE
8
BLACK
6
CONTINUOUS
10
191.5
20
-106.3
11
191.5
21
-106.3
0
LINE
8
BLACK
6
CONTINUOUS
10
191.5
20
-106.3
11
191.279
21
-106.284
0
LINE
8
BLACK
6
CONTINUOUS
10
191.279
20
-106.284
11
191.063
21
-106.237
0
LINE
8
BLACK
6
CONTINUOUS
10
191.063
20
-106.237
11
190.856
21
-106.16
0
LINE
8
BLACK
6
CONTINUOUS
10
190.856
20
-106.16
11
190.662
21
-106.054
0
LINE
8
BLACK
6
CONTINUOUS
10
190.662
20
-106.054
11
190.485
21
-105.921
0
LINE
8
BLACK
6
CONTINUOUS
10
190.485
20
-105.921
11
190.329
21
-105.765
0
LINE
8
BLACK
6
CONTINUOUS
10
190.329
20
-105.765
11
190.196
21
-105.588
0
LINE
8
BLACK
6
CONTINUOUS
10
190.196
20
-105.588
11
190.09
21
-105.394
0
LINE
8
BLACK
6
CONTINUOUS
10
190.09
20
-105.394
11
190.013
21
-105.187
0
LINE
8
BLACK
6
CONTINUOUS
10
190.013
20
-105.187
11
189.966
21
-104.971
0
LINE
8
BLACK
6
CONTINUOUS
10
189.966
20
-104.971
11
189.95
21
-104.75
0
LINE
8
BLACK
6
CONTINUOUS
10
189.95
20
-104.75
11
189.95
21
-104.75
0
LINE
8
BLACK
6
CONTINUOUS
10
189.95
20
-104.75
11
189.95
21
-104.75
0
LINE
8
BLACK
6
CONTINUOUS
10
189.95
20
-104.75
11
189.95
21
-104.75
0
LINE
8
BLACK
6
CONTINUOUS
10
189.95
20
-104.75
11
189.95
21
-52.75
0
LINE
8
BLACK
6
CONTINUOUS
10
189.95
20
-52.75
11
189.95
21
-52.75
0
LINE
8
BLACK
6
CONTINUOUS
10
189.95
20
-52.75
11
189.95
21
-52.75
0
LINE
8
BLACK
6
CONTINUOUS
10
189.95
20
-52.75
11
189.954
21
-52.7409
0
LINE
8
BLACK
6
CONTINUOUS
10
189.954
20
-52.7409
11
189.937
21
-52.5225
0
LINE
8
BLACK
6
CONTINUOUS
10
189.937
20
-52.5225
11
189.883
21
-52.3005
0
LINE
8
BLACK
6
CONTINUOUS
10
189.883
20
-52.3005
11
189.796
21
-52.0897
0
LINE
8
BLACK
6
CONTINUOUS
10
189.796
20
-52.0897
11
189.677
21
-51.8951
0
LINE
8
BLACK
6
CONTINUOUS
10
189.677
20
-51.8951
11
189.529
21
-51.7215
0
LINE
8
BLACK
6
CONTINUOUS
10
189.529
20
-51.7215
11
189.355
21
-51.5733
0
LINE
8
BLACK
6
CONTINUOUS
10
189.355
20
-51.5733
11
189.16
21
-51.454
0
LINE
8
BLACK
6
CONTINUOUS
10
189.16
20
-51.454
11
188.949
21
-51.3667
0
LINE
8
BLACK
6
CONTINUOUS
10
188.949
20
-51.3667
11
188.728
21
-51.3134
0
LINE
8
BLACK
6
CONTINUOUS
10
188.728
20
-51.3134
11
188.509
21
-51.2962
0
LINE
8
BLACK
6
CONTINUOUS
10
188.509
20
-51.2962
11
188.5
21
-51.3
0
LINE
8
BLACK
6
CONTINUOUS
10
188.5
20
-51.3
11
188.5
21
-51.3
0
LINE
8
BLACK
6
CONTINUOUS
10
188.5
20
-51.3
11
188.5
21
-51.3
0
LINE
8
BLACK
6
CONTINUOUS
10
188.5
20
-51.3
11
153.537
21
-51.3
0
LINE
8
BLACK
6
CONTINUOUS
10
153.537
20
-51.3
11
153.316
21
-51.2842
0
LINE
8
BLACK
6
CONTINUOUS
10
153.316
20
-51.2842
11
153.1
21
-51.2372
0
LINE
8
BLACK
6
CONTINUOUS
10
153.1
20
-51.2372
11
152.893
21
-51.1599
0
LINE
8
BLACK
6
CONTINUOUS
10
152.893
20
-51.1599
11
152.699
21
-51.054
0
LINE
8
BLACK
6
CONTINUOUS
10
152.699
20
-51.054
11
152.522
21
-50.9214
0
LINE
8
BLACK
6
CONTINUOUS
10
152.522
20
-50.9214
11
152.366
21
-50.765
0
LINE
8
BLACK
6
CONTINUOUS
10
152.366
20
-50.765
11
152.233
21
-50.588
0
LINE
8
BLACK
6
CONTINUOUS
10
152.233
20
-50.588
11
152.127
21
-50.3939
0
LINE
8
BLACK
6
CONTINUOUS
10
152.127
20
-50.3939
11
152.05
21
-50.1867
0
LINE
8
BLACK
6
CONTINUOUS
10
152.05
20
-50.1867
11
152.003
21
-49.9706
0
LINE
8
BLACK
6
CONTINUOUS
10
152.003
20
-49.9706
11
151.987
21
-49.75
0
LINE
8
BLACK
6
CONTINUOUS
10
151.987
20
-49.75
11
151.987
21
-49.75
0
LINE
8
BLACK
6
CONTINUOUS
10
151.987
20
-49.75
11
151.987
21
-48.75
0
LINE
8
BLACK
6
CONTINUOUS
10
151.987
20
-48.75
11
151.991
21
-48.741
0
LINE
8
BLACK
6
CONTINUOUS
10
151.991
20
-48.741
11
151.974
21
-48.5225
0
LINE
8
BLACK
6
CONTINUOUS
10
151.974
20
-48.5225
11
151.92
21
-48.3005
0
LINE
8
BLACK
6
CONTINUOUS
10
151.92
20
-48.3005
11
151.833
21
-48.0897
0
LINE
8
BLACK
6
CONTINUOUS
10
151.833
20
-48.0897
11
151.714
21
-47.8951
0
LINE
8
BLACK
6
CONTINUOUS
10
151.714
20
-47.8951
11
151.565
21
-47.7215
0
LINE
8
BLACK
6
CONTINUOUS
10
151.565
20
-47.7215
11
151.392
21
-47.5733
0
LINE
8
BLACK
6
CONTINUOUS
10
151.392
20
-47.5733
11
151.197
21
-47.4541
0
LINE
8
BLACK
6
CONTINUOUS
10
151.197
20
-47.4541
11
150.986
21
-47.3667
0
LINE
8
BLACK
6
CONTINUOUS
10
150.986
20
-47.3667
11
150.765
21
-47.3134
0
LINE
8
BLACK
6
CONTINUOUS
10
150.765
20
-47.3134
11
150.546
21
-47.2962
0
LINE
8
BLACK
6
CONTINUOUS
10
150.546
20
-47.2962
11
150.537
21
-47.3
0
LINE
8
BLACK
6
CONTINUOUS
10
150.537
20
-47.3
11
133.537
21
-47.3
0
LINE
8
BLACK
6
CONTINUOUS
10
133.537
20
-47.3
11
133.528
21
-47.2963
0
LINE
8
BLACK
6
CONTINUOUS
10
192.005
20
-115.636
11
204.129
21
-122.636
0
LINE
8
BLACK
6
CONTINUOUS
10
204.129
20
-122.636
11
204.146
21
-122.658
0
LINE
8
BLACK
6
CONTINUOUS
10
204.146
20
-122.658
11
204.157
21
-122.672
0
LINE
8
BLACK
6
CONTINUOUS
10
204.157
20
-122.672
11
204.151
21
-122.718
0
LINE
8
BLACK
6
CONTINUOUS
10
204.151
20
-122.718
11
197.151
21
-134.842
0
LINE
8
BLACK
6
CONTINUOUS
10
197.151
20
-134.842
11
197.115
21
-134.87
0
LINE
8
BLACK
6
CONTINUOUS
10
197.115
20
-134.87
11
197.069
21
-134.864
0
LINE
8
BLACK
6
CONTINUOUS
10
197.069
20
-134.864
11
197.069
21
-134.864
0
LINE
8
BLACK
6
CONTINUOUS
10
197.069
20
-134.864
11
184.945
21
-127.864
0
LINE
8
BLACK
6
CONTINUOUS
10
184.945
20
-127.864
11
184.917
21
-127.828
0
LINE
8
BLACK
6
CONTINUOUS
10
184.917
20
-127.828
11
184.923
21
-127.782
0
LINE
8
BLACK
6
CONTINUOUS
10
184.923
20
-127.782
11
191.923
21
-115.658
0
LINE
8
BLACK
6
CONTINUOUS
10
191.923
20
-115.658
11
191.959
21
-115.63
0
LINE
8
BLACK
6
CONTINUOUS
10
191.959
20
-115.63
11
192.005
21
-115.636
0
LINE
8
BLACK
6
CONTINUOUS
10
185.057
20
-127.79
11
197.077
21
-134.73
0
LINE
8
BLACK
6
CONTINUOUS
10
197.077
20
-134.73
11
204.017
21
-122.71
0
LINE
8
BLACK
6
CONTINUOUS
10
204.017
20
-122.71
11
191.997
21
-115.77
0
LINE
8
BLACK
6
CONTINUOUS
10
191.997
20
-115.77
11
185.057
21
-127.79
0
LINE
8
BLACK
6
CONTINUOUS
10
180.876
20
-116.492
11
180.876
21
-116.492
0
LINE
8
BLACK
6
CONTINUOUS
10
180.876
20
-116.492
11
180.912
21
-116.52
0
LINE
8
BLACK
6
CONTINUOUS
10
180.912
20
-116.52
11
180.918
21
-116.566
0
LINE
8
BLACK
6
CONTINUOUS
10
180.918
20
-116.566
11
177.295
21
-130.089
0
LINE
8
BLACK
6
CONTINUOUS
10
177.295
20
-130.089
11
177.267
21
-130.125
0
LINE
8
BLACK
6
CONTINUOUS
10
177.267
20
-130.125
11
177.221
21
-130.131
0
LINE
8
BLACK
6
CONTINUOUS
10
177.221
20
-130.131
11
163.698
21
-126.508
0
LINE
8
BLACK
6
CONTINUOUS
10
163.698
20
-126.508
11
163.662
21
-126.48
0
LINE
8
BLACK
6
CONTINUOUS
10
163.662
20
-126.48
11
163.656
21
-126.434
0
LINE
8
BLACK
6
CONTINUOUS
10
163.656
20
-126.434
11
167.279
21
-112.911
0
LINE
8
BLACK
6
CONTINUOUS
10
167.279
20
-112.911
11
167.279
21
-112.911
0
LINE
8
BLACK
6
CONTINUOUS
10
167.279
20
-112.911
11
167.307
21
-112.875
0
LINE
8
BLACK
6
CONTINUOUS
10
167.307
20
-112.875
11
167.353
21
-112.869
0
LINE
8
BLACK
6
CONTINUOUS
10
167.353
20
-112.869
11
180.876
21
-116.492
0
LINE
8
BLACK
6
CONTINUOUS
10
163.787
20
-126.407
11
177.194
21
-130
0
LINE
8
BLACK
6
CONTINUOUS
10
177.194
20
-130
11
180.787
21
-116.593
0
LINE
8
BLACK
6
CONTINUOUS
10
180.787
20
-116.593
11
167.38
21
-113
0
LINE
8
BLACK
6
CONTINUOUS
10
167.38
20
-113
11
163.787
21
-126.407
0
LINE
8
BLACK
6
CONTINUOUS
10
143.995
20
-125.792
11
143.977
21
-125.75
0
LINE
8
BLACK
6
CONTINUOUS
10
143.977
20
-125.75
11
143.977
21
-111.75
0
LINE
8
BLACK
6
CONTINUOUS
10
143.977
20
-111.75
11
143.995
21
-111.708
0
LINE
8
BLACK
6
CONTINUOUS
10
143.995
20
-111.708
11
144.037
21
-111.69
0
LINE
8
BLACK
6
CONTINUOUS
10
144.037
20
-111.69
11
158.037
21
-111.69
0
LINE
8
BLACK
6
CONTINUOUS
10
158.037
20
-111.69
11
158.079
21
-111.708
0
LINE
8
BLACK
6
CONTINUOUS
10
158.079
20
-111.708
11
158.097
21
-111.75
0
LINE
8
BLACK
6
CONTINUOUS
10
158.097
20
-111.75
11
158.097
21
-125.75
0
LINE
8
BLACK
6
CONTINUOUS
10
158.097
20
-125.75
11
158.079
21
-125.792
0
LINE
8
BLACK
6
CONTINUOUS
10
158.079
20
-125.792
11
158.037
21
-125.81
0
LINE
8
BLACK
6
CONTINUOUS
10
158.037
20
-125.81
11
144.037
21
-125.81
0
LINE
8
BLACK
6
CONTINUOUS
10
144.037
20
-125.81
11
143.995
21
-125.792
0
LINE
8
BLACK
6
CONTINUOUS
10
144.097
20
-111.81
11
144.097
21
-125.69
0
LINE
8
BLACK
6
CONTINUOUS
10
144.097
20
-125.69
11
157.977
21
-125.69
0
LINE
8
BLACK
6
CONTINUOUS
10
157.977
20
-125.69
11
157.977
21
-111.81
0
LINE
8
BLACK
6
CONTINUOUS
10
157.977
20
-111.81
11
144.097
21
-111.81
0
LINE
8
BLACK
6
CONTINUOUS
10
96.9946
20
-114.292
11
96.977
21
-114.25
0
LINE
8
BLACK
6
CONTINUOUS
10
96.977
20
-114.25
11
96.977
21
-100.25
0
LINE
8
BLACK
6
CONTINUOUS
10
96.977
20
-100.25
11
96.9946
21
-100.208
0
LINE
8
BLACK
6
CONTINUOUS
10
96.9946
20
-100.208
11
97.037
21
-100.19
0
LINE
8
BLACK
6
CONTINUOUS
10
97.037
20
-100.19
11
111.037
21
-100.19
0
LINE
8
BLACK
6
CONTINUOUS
10
111.037
20
-100.19
11
111.079
21
-100.208
0
LINE
8
BLACK
6
CONTINUOUS
10
111.079
20
-100.208
11
111.097
21
-100.25
0
LINE
8
BLACK
6
CONTINUOUS
10
111.097
20
-100.25
11
111.097
21
-114.25
0
LINE
8
BLACK
6
CONTINUOUS
10
111.097
20
-114.25
11
111.079
21
-114.292
0
LINE
8
BLACK
6
CONTINUOUS
10
111.079
20
-114.292
11
111.037
21
-114.31
0
LINE
8
BLACK
6
CONTINUOUS
10
111.037
20
-114.31
11
97.037
21
-114.31
0
LINE
8
BLACK
6
CONTINUOUS
10
97.037
20
-114.31
11
96.9946
21
-114.292
0
LINE
8
BLACK
6
CONTINUOUS
10
97.097
20
-100.31
11
97.097
21
-114.19
0
LINE
8
BLACK
6
CONTINUOUS
10
97.097
20
-114.19
11
110.977
21
-114.19
0
LINE
8
BLACK
6
CONTINUOUS
10
110.977
20
-114.19
11
110.977
21
-100.31
0
LINE
8
BLACK
6
CONTINUOUS
10
110.977
20
-100.31
11
97.097
21
-100.31
0
LINE
8
BLACK
6
CONTINUOUS
10
172.995
20
-108.792
11
172.977
21
-108.75
0
LINE
8
BLACK
6
CONTINUOUS
10
172.977
20
-108.75
11
172.977
21
-94.75
0
LINE
8
BLACK
6
CONTINUOUS
10
172.977
20
-94.75
11
172.995
21
-94.7076
0
LINE
8
BLACK
6
CONTINUOUS
10
172.995
20
-94.7076
11
173.037
21
-94.69
0
LINE
8
BLACK
6
CONTINUOUS
10
173.037
20
-94.69
11
187.037
21
-94.69
0
LINE
8
BLACK
6
CONTINUOUS
10
187.037
20
-94.69
11
187.079
21
-94.7076
0
LINE
8
BLACK
6
CONTINUOUS
10
187.079
20
-94.7076
11
187.097
21
-94.75
0
LINE
8
BLACK
6
CONTINUOUS
10
187.097
20
-94.75
11
187.097
21
-108.75
0
LINE
8
BLACK
6
CONTINUOUS
10
187.097
20
-108.75
11
187.079
21
-108.792
0
LINE
8
BLACK
6
CONTINUOUS
10
187.079
20
-108.792
11
187.037
21
-108.81
0
LINE
8
BLACK
6
CONTINUOUS
10
187.037
20
-108.81
11
173.037
21
-108.81
0
LINE
8
BLACK
6
CONTINUOUS
10
173.037
20
-108.81
11
172.995
21
-108.792
0
LINE
8
BLACK
6
CONTINUOUS
10
173.097
20
-94.81
11
173.097
21
-108.69
0
LINE
8
BLACK
6
CONTINUOUS
10
173.097
20
-108.69
11
186.977
21
-108.69
0
LINE
8
BLACK
6
CONTINUOUS
10
186.977
20
-108.69
11
186.977
21
-94.81
0
LINE
8
BLACK
6
CONTINUOUS
10
186.977
20
-94.81
11
173.097
21
-94.81
0
LINE
8
BLACK
6
CONTINUOUS
10
130.079
20
-106.292
11
130.037
21
-106.31
0
LINE
8
BLACK
6
CONTINUOUS
10
130.037
20
-106.31
11
116.037
21
-106.31
0
LINE
8
BLACK
6
CONTINUOUS
10
116.037
20
-106.31
11
115.995
21
-106.292
0
LINE
8
BLACK
6
CONTINUOUS
10
115.995
20
-106.292
11
115.977
21
-106.25
0
LINE
8
BLACK
6
CONTINUOUS
10
115.977
20
-106.25
11
115.977
21
-92.25
0
LINE
8
BLACK
6
CONTINUOUS
10
115.977
20
-92.25
11
115.995
21
-92.2076
0
LINE
8
BLACK
6
CONTINUOUS
10
115.995
20
-92.2076
11
116.037
21
-92.19
0
LINE
8
BLACK
6
CONTINUOUS
10
116.037
20
-92.19
11
130.037
21
-92.19
0
LINE
8
BLACK
6
CONTINUOUS
10
130.037
20
-92.19
11
130.079
21
-92.2076
0
LINE
8
BLACK
6
CONTINUOUS
10
130.079
20
-92.2076
11
130.097
21
-92.25
0
LINE
8
BLACK
6
CONTINUOUS
10
130.097
20
-92.25
11
130.097
21
-106.25
0
LINE
8
BLACK
6
CONTINUOUS
10
130.097
20
-106.25
11
130.079
21
-106.292
0
LINE
8
BLACK
6
CONTINUOUS
10
116.097
20
-92.31
11
116.097
21
-106.19
0
LINE
8
BLACK
6
CONTINUOUS
10
116.097
20
-106.19
11
129.977
21
-106.19
0
LINE
8
BLACK
6
CONTINUOUS
10
129.977
20
-106.19
11
129.977
21
-92.31
0
LINE
8
BLACK
6
CONTINUOUS
10
129.977
20
-92.31
11
116.097
21
-92.31
0
LINE
8
BLACK
6
CONTINUOUS
10
168.079
20
-106.292
11
168.037
21
-106.31
0
LINE
8
BLACK
6
CONTINUOUS
10
168.037
20
-106.31
11
154.037
21
-106.31
0
LINE
8
BLACK
6
CONTINUOUS
10
154.037
20
-106.31
11
153.995
21
-106.292
0
LINE
8
BLACK
6
CONTINUOUS
10
153.995
20
-106.292
11
153.977
21
-106.25
0
LINE
8
BLACK
6
CONTINUOUS
10
153.977
20
-106.25
11
153.977
21
-92.25
0
LINE
8
BLACK
6
CONTINUOUS
10
153.977
20
-92.25
11
153.995
21
-92.2076
0
LINE
8
BLACK
6
CONTINUOUS
10
153.995
20
-92.2076
11
154.037
21
-92.19
0
LINE
8
BLACK
6
CONTINUOUS
10
154.037
20
-92.19
11
168.037
21
-92.19
0
LINE
8
BLACK
6
CONTINUOUS
10
168.037
20
-92.19
11
168.079
21
-92.2076
0
LINE
8
BLACK
6
CONTINUOUS
10
168.079
20
-92.2076
11
168.097
21
-92.25
0
LINE
8
BLACK
6
CONTINUOUS
10
168.097
20
-92.25
11
168.097
21
-106.25
0
LINE
8
BLACK
6
CONTINUOUS
10
168.097
20
-106.25
11
168.079
21
-106.292
0
LINE
8
BLACK
6
CONTINUOUS
10
154.097
20
-92.31
11
154.097
21
-106.19
0
LINE
8
BLACK
6
CONTINUOUS
10
154.097
20
-106.19
11
167.977
21
-106.19
0
LINE
8
BLACK
6
CONTINUOUS
10
167.977
20
-106.19
11
167.977
21
-92.31
0
LINE
8
BLACK
6
CONTINUOUS
10
167.977
20
-92.31
11
154.097
21
-92.31
0
LINE
8
BLACK
6
CONTINUOUS
10
92.0795
20
-106.292
11
92.037
21
-106.31
0
LINE
8
BLACK
6
CONTINUOUS
10
92.037
20
-106.31
11
78.037
21
-106.31
0
LINE
8
BLACK
6
CONTINUOUS
10
78.037
20
-106.31
11
77.9946
21
-106.292
0
LINE
8
BLACK
6
CONTINUOUS
10
77.9946
20
-106.292
11
77.977
21
-106.25
0
LINE
8
BLACK
6
CONTINUOUS
10
77.977
20
-106.25
11
77.977
21
-92.25
0
LINE
8
BLACK
6
CONTINUOUS
10
77.977
20
-92.25
11
77.9946
21
-92.2076
0
LINE
8
BLACK
6
CONTINUOUS
10
77.9946
20
-92.2076
11
78.037
21
-92.19
0
LINE
8
BLACK
6
CONTINUOUS
10
78.037
20
-92.19
11
92.037
21
-92.19
0
LINE
8
BLACK
6
CONTINUOUS
10
92.037
20
-92.19
11
92.0795
21
-92.2076
0
LINE
8
BLACK
6
CONTINUOUS
10
92.0795
20
-92.2076
11
92.097
21
-92.25
0
LINE
8
BLACK
6
CONTINUOUS
10
92.097
20
-92.25
11
92.097
21
-106.25
0
LINE
8
BLACK
6
CONTINUOUS
10
92.097
20
-106.25
11
92.0795
21
-106.292
0
LINE
8
BLACK
6
CONTINUOUS
10
78.097
20
-92.31
11
78.097
21
-106.19
0
LINE
8
BLACK
6
CONTINUOUS
10
78.097
20
-106.19
11
91.977
21
-106.19
0
LINE
8
BLACK
6
CONTINUOUS
10
91.977
20
-106.19
11
91.977
21
-92.31
0
LINE
8
BLACK
6
CONTINUOUS
10
91.977
20
-92.31
11
78.097
21
-92.31
0
LINE
8
BLACK
6
CONTINUOUS
10
134.995
20
-102.292
11
134.977
21
-102.25
0
LINE
8
BLACK
6
CONTINUOUS
10
134.977
20
-102.25
11
134.977
21
-88.25
0
LINE
8
BLACK
6
CONTINUOUS
10
134.977
20
-88.25
11
134.995
21
-88.2076
0
LINE
8
BLACK
6
CONTINUOUS
10
134.995
20
-88.2076
11
135.037
21
-88.19
0
LINE
8
BLACK
6
CONTINUOUS
10
135.037
20
-88.19
11
149.037
21
-88.19
0
LINE
8
BLACK
6
CONTINUOUS
10
149.037
20
-88.19
11
149.079
21
-88.2076
0
LINE
8
BLACK
6
CONTINUOUS
10
149.079
20
-88.2076
11
149.097
21
-88.25
0
LINE
8
BLACK
6
CONTINUOUS
10
149.097
20
-88.25
11
149.097
21
-102.25
0
LINE
8
BLACK
6
CONTINUOUS
10
149.097
20
-102.25
11
149.079
21
-102.292
0
LINE
8
BLACK
6
CONTINUOUS
10
149.079
20
-102.292
11
149.037
21
-102.31
0
LINE
8
BLACK
6
CONTINUOUS
10
149.037
20
-102.31
11
135.037
21
-102.31
0
LINE
8
BLACK
6
CONTINUOUS
10
135.037
20
-102.31
11
134.995
21
-102.292
0
LINE
8
BLACK
6
CONTINUOUS
10
135.097
20
-88.31
11
135.097
21
-102.19
0
LINE
8
BLACK
6
CONTINUOUS
10
135.097
20
-102.19
11
148.977
21
-102.19
0
LINE
8
BLACK
6
CONTINUOUS
10
148.977
20
-102.19
11
148.977
21
-88.31
0
LINE
8
BLACK
6
CONTINUOUS
10
148.977
20
-88.31
11
135.097
21
-88.31
0
LINE
8
BLACK
6
CONTINUOUS
10
96.9946
20
-95.2924
11
96.977
21
-95.25
0
LINE
8
BLACK
6
CONTINUOUS
10
96.977
20
-95.25
11
96.977
21
-81.25
0
LINE
8
BLACK
6
CONTINUOUS
10
96.977
20
-81.25
11
96.9946
21
-81.2076
0
LINE
8
BLACK
6
CONTINUOUS
10
96.9946
20
-81.2076
11
97.037
21
-81.19
0
LINE
8
BLACK
6
CONTINUOUS
10
97.037
20
-81.19
11
111.037
21
-81.19
0
LINE
8
BLACK
6
CONTINUOUS
10
111.037
20
-81.19
11
111.079
21
-81.2076
0
LINE
8
BLACK
6
CONTINUOUS
10
111.079
20
-81.2076
11
111.097
21
-81.25
0
LINE
8
BLACK
6
CONTINUOUS
10
111.097
20
-81.25
11
111.097
21
-95.25
0
LINE
8
BLACK
6
CONTINUOUS
10
111.097
20
-95.25
11
111.079
21
-95.2924
0
LINE
8
BLACK
6
CONTINUOUS
10
111.079
20
-95.2924
11
111.037
21
-95.31
0
LINE
8
BLACK
6
CONTINUOUS
10
111.037
20
-95.31
11
97.037
21
-95.31
0
LINE
8
BLACK
6
CONTINUOUS
10
97.037
20
-95.31
11
96.9946
21
-95.2924
0
LINE
8
BLACK
6
CONTINUOUS
10
97.097
20
-81.31
11
97.097
21
-95.19
0
LINE
8
BLACK
6
CONTINUOUS
10
97.097
20
-95.19
11
110.977
21
-95.19
0
LINE
8
BLACK
6
CONTINUOUS
10
110.977
20
-95.19
11
110.977
21
-81.31
0
LINE
8
BLACK
6
CONTINUOUS
10
110.977
20
-81.31
11
97.097
21
-81.31
0
LINE
8
BLACK
6
CONTINUOUS
10
172.995
20
-89.7924
11
172.977
21
-89.75
0
LINE
8
BLACK
6
CONTINUOUS
10
172.977
20
-89.75
11
172.977
21
-75.75
0
LINE
8
BLACK
6
CONTINUOUS
10
172.977
20
-75.75
11
172.995
21
-75.7076
0
LINE
8
BLACK
6
CONTINUOUS
10
172.995
20
-75.7076
11
173.037
21
-75.69
0
LINE
8
BLACK
6
CONTINUOUS
10
173.037
20
-75.69
11
187.037
21
-75.69
0
LINE
8
BLACK
6
CONTINUOUS
10
187.037
20
-75.69
11
187.079
21
-75.7076
0
LINE
8
BLACK
6
CONTINUOUS
10
187.079
20
-75.7076
11
187.097
21
-75.75
0
LINE
8
BLACK
6
CONTINUOUS
10
187.097
20
-75.75
11
187.097
21
-89.75
0
LINE
8
BLACK
6
CONTINUOUS
10
187.097
20
-89.75
11
187.079
21
-89.7924
0
LINE
8
BLACK
6
CONTINUOUS
10
187.079
20
-89.7924
11
187.037
21
-89.81
0
LINE
8
BLACK
6
CONTINUOUS
10
187.037
20
-89.81
11
173.037
21
-89.81
0
LINE
8
BLACK
6
CONTINUOUS
10
173.037
20
-89.81
11
172.995
21
-89.7924
0
LINE
8
BLACK
6
CONTINUOUS
10
173.097
20
-75.81
11
173.097
21
-89.69
0
LINE
8
BLACK
6
CONTINUOUS
10
173.097
20
-89.69
11
186.977
21
-89.69
0
LINE
8
BLACK
6
CONTINUOUS
10
186.977
20
-89.69
11
186.977
21
-75.81
0
LINE
8
BLACK
6
CONTINUOUS
10
186.977
20
-75.81
11
173.097
21
-75.81
0
LINE
8
BLACK
6
CONTINUOUS
10
153.995
20
-87.2924
11
153.977
21
-87.25
0
LINE
8
BLACK
6
CONTINUOUS
10
153.977
20
-87.25
11
153.977
21
-73.25
0
LINE
8
BLACK
6
CONTINUOUS
10
153.977
20
-73.25
11
153.995
21
-73.2076
0
LINE
8
BLACK
6
CONTINUOUS
10
153.995
20
-73.2076
11
154.037
21
-73.19
0
LINE
8
BLACK
6
CONTINUOUS
10
154.037
20
-73.19
11
168.037
21
-73.19
0
LINE
8
BLACK
6
CONTINUOUS
10
168.037
20
-73.19
11
168.079
21
-73.2076
0
LINE
8
BLACK
6
CONTINUOUS
10
168.079
20
-73.2076
11
168.097
21
-73.25
0
LINE
8
BLACK
6
CONTINUOUS
10
168.097
20
-73.25
11
168.097
21
-87.25
0
LINE
8
BLACK
6
CONTINUOUS
10
168.097
20
-87.25
11
168.079
21
-87.2924
0
LINE
8
BLACK
6
CONTINUOUS
10
168.079
20
-87.2924
11
168.037
21
-87.31
0
LINE
8
BLACK
6
CONTINUOUS
10
168.037
20
-87.31
11
154.037
21
-87.31
0
LINE
8
BLACK
6
CONTINUOUS
10
154.037
20
-87.31
11
153.995
21
-87.2924
0
LINE
8
BLACK
6
CONTINUOUS
10
154.097
20
-73.31
11
154.097
21
-87.19
0
LINE
8
BLACK
6
CONTINUOUS
10
154.097
20
-87.19
11
167.977
21
-87.19
0
LINE
8
BLACK
6
CONTINUOUS
10
167.977
20
-87.19
11
167.977
21
-73.31
0
LINE
8
BLACK
6
CONTINUOUS
10
167.977
20
-73.31
11
154.097
21
-73.31
0
LINE
8
BLACK
6
CONTINUOUS
10
77.9946
20
-87.2924
11
77.977
21
-87.25
0
LINE
8
BLACK
6
CONTINUOUS
10
77.977
20
-87.25
11
77.977
21
-73.25
0
LINE
8
BLACK
6
CONTINUOUS
10
77.977
20
-73.25
11
77.9946
21
-73.2076
0
LINE
8
BLACK
6
CONTINUOUS
10
77.9946
20
-73.2076
11
78.037
21
-73.19
0
LINE
8
BLACK
6
CONTINUOUS
10
78.037
20
-73.19
11
92.037
21
-73.19
0
LINE
8
BLACK
6
CONTINUOUS
10
92.037
20
-73.19
11
92.0795
21
-73.2076
0
LINE
8
BLACK
6
CONTINUOUS
10
92.0795
20
-73.2076
11
92.097
21
-73.25
0
LINE
8
BLACK
6
CONTINUOUS
10
92.097
20
-73.25
11
92.097
21
-87.25
0
LINE
8
BLACK
6
CONTINUOUS
10
92.097
20
-87.25
11
92.0795
21
-87.2924
0
LINE
8
BLACK
6
CONTINUOUS
10
92.0795
20
-87.2924
11
92.037
21
-87.31
0
LINE
8
BLACK
6
CONTINUOUS
10
92.037
20
-87.31
11
78.037
21
-87.31
0
LINE
8
BLACK
6
CONTINUOUS
10
78.037
20
-87.31
11
77.9946
21
-87.2924
0
LINE
8
BLACK
6
CONTINUOUS
10
78.097
20
-73.31
11
78.097
21
-87.19
0
LINE
8
BLACK
6
CONTINUOUS
10
78.097
20
-87.19
11
91.977
21
-87.19
0
LINE
8
BLACK
6
CONTINUOUS
10
91.977
20
-87.19
11
91.977
21
-73.31
0
LINE
8
BLACK
6
CONTINUOUS
10
91.977
20
-73.31
11
78.097
21
-73.31
0
LINE
8
BLACK
6
CONTINUOUS
10
115.995
20
-87.2924
11
115.977
21
-87.25
0
LINE
8
BLACK
6
CONTINUOUS
10
115.977
20
-87.25
11
115.977
21
-73.25
0
LINE
8
BLACK
6
CONTINUOUS
10
115.977
20
-73.25
11
115.995
21
-73.2076
0
LINE
8
BLACK
6
CONTINUOUS
10
115.995
20
-73.2076
11
116.037
21
-73.19
0
LINE
8
BLACK
6
CONTINUOUS
10
116.037
20
-73.19
11
130.037
21
-73.19
0
LINE
8
BLACK
6
CONTINUOUS
10
130.037
20
-73.19
11
130.079
21
-73.2076
0
LINE
8
BLACK
6
CONTINUOUS
10
130.079
20
-73.2076
11
130.097
21
-73.25
0
LINE
8
BLACK
6
CONTINUOUS
10
130.097
20
-73.25
11
130.097
21
-87.25
0
LINE
8
BLACK
6
CONTINUOUS
10
130.097
20
-87.25
11
130.079
21
-87.2924
0
LINE
8
BLACK
6
CONTINUOUS
10
130.079
20
-87.2924
11
130.037
21
-87.31
0
LINE
8
BLACK
6
CONTINUOUS
10
130.037
20
-87.31
11
116.037
21
-87.31
0
LINE
8
BLACK
6
CONTINUOUS
10
116.037
20
-87.31
11
115.995
21
-87.2924
0
LINE
8
BLACK
6
CONTINUOUS
10
116.097
20
-73.31
11
116.097
21
-87.19
0
LINE
8
BLACK
6
CONTINUOUS
10
116.097
20
-87.19
11
129.977
21
-87.19
0
LINE
8
BLACK
6
CONTINUOUS
10
129.977
20
-87.19
11
129.977
21
-73.31
0
LINE
8
BLACK
6
CONTINUOUS
10
129.977
20
-73.31
11
116.097
21
-73.31
0
LINE
8
BLACK
6
CONTINUOUS
10
134.995
20
-83.2924
11
134.977
21
-83.25
0
LINE
8
BLACK
6
CONTINUOUS
10
134.977
20
-83.25
11
134.977
21
-69.25
0
LINE
8
BLACK
6
CONTINUOUS
10
134.977
20
-69.25
11
134.995
21
-69.2076
0
LINE
8
BLACK
6
CONTINUOUS
10
134.995
20
-69.2076
11
135.037
21
-69.19
0
LINE
8
BLACK
6
CONTINUOUS
10
135.037
20
-69.19
11
149.037
21
-69.19
0
LINE
8
BLACK
6
CONTINUOUS
10
149.037
20
-69.19
11
149.079
21
-69.2076
0
LINE
8
BLACK
6
CONTINUOUS
10
149.079
20
-69.2076
11
149.097
21
-69.25
0
LINE
8
BLACK
6
CONTINUOUS
10
149.097
20
-69.25
11
149.097
21
-83.25
0
LINE
8
BLACK
6
CONTINUOUS
10
149.097
20
-83.25
11
149.079
21
-83.2924
0
LINE
8
BLACK
6
CONTINUOUS
10
149.079
20
-83.2924
11
149.037
21
-83.31
0
LINE
8
BLACK
6
CONTINUOUS
10
149.037
20
-83.31
11
135.037
21
-83.31
0
LINE
8
BLACK
6
CONTINUOUS
10
135.037
20
-83.31
11
134.995
21
-83.2924
0
LINE
8
BLACK
6
CONTINUOUS
10
135.097
20
-69.31
11
135.097
21
-83.19
0
LINE
8
BLACK
6
CONTINUOUS
10
135.097
20
-83.19
11
148.977
21
-83.19
0
LINE
8
BLACK
6
CONTINUOUS
10
148.977
20
-83.19
11
148.977
21
-69.31
0
LINE
8
BLACK
6
CONTINUOUS
10
148.977
20
-69.31
11
135.097
21
-69.31
0
LINE
8
BLACK
6
CONTINUOUS
10
96.9946
20
-76.2924
11
96.977
21
-76.25
0
LINE
8
BLACK
6
CONTINUOUS
10
96.977
20
-76.25
11
96.977
21
-62.25
0
LINE
8
BLACK
6
CONTINUOUS
10
96.977
20
-62.25
11
96.9946
21
-62.2076
0
LINE
8
BLACK
6
CONTINUOUS
10
96.9946
20
-62.2076
11
97.037
21
-62.19
0
LINE
8
BLACK
6
CONTINUOUS
10
97.037
20
-62.19
11
111.037
21
-62.19
0
LINE
8
BLACK
6
CONTINUOUS
10
111.037
20
-62.19
11
111.079
21
-62.2076
0
LINE
8
BLACK
6
CONTINUOUS
10
111.079
20
-62.2076
11
111.097
21
-62.25
0
LINE
8
BLACK
6
CONTINUOUS
10
111.097
20
-62.25
11
111.097
21
-76.25
0
LINE
8
BLACK
6
CONTINUOUS
10
111.097
20
-76.25
11
111.079
21
-76.2924
0
LINE
8
BLACK
6
CONTINUOUS
10
111.079
20
-76.2924
11
111.037
21
-76.31
0
LINE
8
BLACK
6
CONTINUOUS
10
111.037
20
-76.31
11
97.037
21
-76.31
0
LINE
8
BLACK
6
CONTINUOUS
10
97.037
20
-76.31
11
96.9946
21
-76.2924
0
LINE
8
BLACK
6
CONTINUOUS
10
97.097
20
-62.31
11
97.097
21
-76.19
0
LINE
8
BLACK
6
CONTINUOUS
10
97.097
20
-76.19
11
110.977
21
-76.19
0
LINE
8
BLACK
6
CONTINUOUS
10
110.977
20
-76.19
11
110.977
21
-62.31
0
LINE
8
BLACK
6
CONTINUOUS
10
110.977
20
-62.31
11
97.097
21
-62.31
0
LINE
8
BLACK
6
CONTINUOUS
10
172.995
20
-70.7924
11
172.977
21
-70.75
0
LINE
8
BLACK
6
CONTINUOUS
10
172.977
20
-70.75
11
172.977
21
-56.75
0
LINE
8
BLACK
6
CONTINUOUS
10
172.977
20
-56.75
11
172.995
21
-56.7076
0
LINE
8
BLACK
6
CONTINUOUS
10
172.995
20
-56.7076
11
173.037
21
-56.69
0
LINE
8
BLACK
6
CONTINUOUS
10
173.037
20
-56.69
11
187.037
21
-56.69
0
LINE
8
BLACK
6
CONTINUOUS
10
187.037
20
-56.69
11
187.079
21
-56.7076
0
LINE
8
BLACK
6
CONTINUOUS
10
187.079
20
-56.7076
11
187.097
21
-56.75
0
LINE
8
BLACK
6
CONTINUOUS
10
187.097
20
-56.75
11
187.097
21
-70.75
0
LINE
8
BLACK
6
CONTINUOUS
10
187.097
20
-70.75
11
187.079
21
-70.7924
0
LINE
8
BLACK
6
CONTINUOUS
10
187.079
20
-70.7924
11
187.037
21
-70.81
0
LINE
8
BLACK
6
CONTINUOUS
10
187.037
20
-70.81
11
173.037
21
-70.81
0
LINE
8
BLACK
6
CONTINUOUS
10
173.037
20
-70.81
11
172.995
21
-70.7924
0
LINE
8
BLACK
6
CONTINUOUS
10
173.097
20
-56.81
11
173.097
21
-70.69
0
LINE
8
BLACK
6
CONTINUOUS
10
173.097
20
-70.69
11
186.977
21
-70.69
0
LINE
8
BLACK
6
CONTINUOUS
10
186.977
20
-70.69
11
186.977
21
-56.81
0
LINE
8
BLACK
6
CONTINUOUS
10
186.977
20
-56.81
11
173.097
21
-56.81
0
LINE
8
BLACK
6
CONTINUOUS
10
153.995
20
-68.2924
11
153.977
21
-68.25
0
LINE
8
BLACK
6
CONTINUOUS
10
153.977
20
-68.25
11
153.977
21
-54.25
0
LINE
8
BLACK
6
CONTINUOUS
10
153.977
20
-54.25
11
153.995
21
-54.2076
0
LINE
8
BLACK
6
CONTINUOUS
10
153.995
20
-54.2076
11
154.037
21
-54.19
0
LINE
8
BLACK
6
CONTINUOUS
10
154.037
20
-54.19
11
168.037
21
-54.19
0
LINE
8
BLACK
6
CONTINUOUS
10
168.037
20
-54.19
11
168.079
21
-54.2076
0
LINE
8
BLACK
6
CONTINUOUS
10
168.079
20
-54.2076
11
168.097
21
-54.25
0
LINE
8
BLACK
6
CONTINUOUS
10
168.097
20
-54.25
11
168.097
21
-68.25
0
LINE
8
BLACK
6
CONTINUOUS
10
168.097
20
-68.25
11
168.079
21
-68.2924
0
LINE
8
BLACK
6
CONTINUOUS
10
168.079
20
-68.2924
11
168.037
21
-68.31
0
LINE
8
BLACK
6
CONTINUOUS
10
168.037
20
-68.31
11
154.037
21
-68.31
0
LINE
8
BLACK
6
CONTINUOUS
10
154.037
20
-68.31
11
153.995
21
-68.2924
0
LINE
8
BLACK
6
CONTINUOUS
10
154.097
20
-54.31
11
154.097
21
-68.19
0
LINE
8
BLACK
6
CONTINUOUS
10
154.097
20
-68.19
11
167.977
21
-68.19
0
LINE
8
BLACK
6
CONTINUOUS
10
167.977
20
-68.19
11
167.977
21
-54.31
0
LINE
8
BLACK
6
CONTINUOUS
10
167.977
20
-54.31
11
154.097
21
-54.31
0
LINE
8
BLACK
6
CONTINUOUS
10
115.995
20
-68.2924
11
115.977
21
-68.25
0
LINE
8
BLACK
6
CONTINUOUS
10
115.977
20
-68.25
11
115.977
21
-54.25
0
LINE
8
BLACK
6
CONTINUOUS
10
115.977
20
-54.25
11
115.995
21
-54.2076
0
LINE
8
BLACK
6
CONTINUOUS
10
115.995
20
-54.2076
11
116.037
21
-54.19
0
LINE
8
BLACK
6
CONTINUOUS
10
116.037
20
-54.19
11
130.037
21
-54.19
0
LINE
8
BLACK
6
CONTINUOUS
10
130.037
20
-54.19
11
130.079
21
-54.2076
0
LINE
8
BLACK
6
CONTINUOUS
10
130.079
20
-54.2076
11
130.097
21
-54.25
0
LINE
8
BLACK
6
CONTINUOUS
10
130.097
20
-54.25
11
130.097
21
-68.25
0
LINE
8
BLACK
6
CONTINUOUS
10
130.097
20
-68.25
11
130.079
21
-68.2924
0
LINE
8
BLACK
6
CONTINUOUS
10
130.079
20
-68.2924
11
130.037
21
-68.31
0
LINE
8
BLACK
6
CONTINUOUS
10
130.037
20
-68.31
11
116.037
21
-68.31
0
LINE
8
BLACK
6
CONTINUOUS
10
116.037
20
-68.31
11
115.995
21
-68.2924
0
LINE
8
BLACK
6
CONTINUOUS
10
116.097
20
-54.31
11
116.097
21
-68.19
0
LINE
8
BLACK
6
CONTINUOUS
10
116.097
20
-68.19
11
129.977
21
-68.19
0
LINE
8
BLACK
6
CONTINUOUS
10
129.977
20
-68.19
11
129.977
21
-54.31
0
LINE
8
BLACK
6
CONTINUOUS
10
129.977
20
-54.31
11
116.097
21
-54.31
0
LINE
8
BLACK
6
CONTINUOUS
10
134.995
20
-64.2924
11
134.977
21
-64.25
0
LINE
8
BLACK
6
CONTINUOUS
10
134.977
20
-64.25
11
134.977
21
-50.25
0
LINE
8
BLACK
6
CONTINUOUS
10
134.977
20
-50.25
11
134.995
21
-50.2076
0
LINE
8
BLACK
6
CONTINUOUS
10
134.995
20
-50.2076
11
135.037
21
-50.19
0
LINE
8
BLACK
6
CONTINUOUS
10
135.037
20
-50.19
11
149.037
21
-50.19
0
LINE
8
BLACK
6
CONTINUOUS
10
149.037
20
-50.19
11
149.079
21
-50.2076
0
LINE
8
BLACK
6
CONTINUOUS
10
149.079
20
-50.2076
11
149.097
21
-50.25
0
LINE
8
BLACK
6
CONTINUOUS
10
149.097
20
-50.25
11
149.097
21
-64.25
0
LINE
8
BLACK
6
CONTINUOUS
10
149.097
20
-64.25
11
149.079
21
-64.2924
0
LINE
8
BLACK
6
CONTINUOUS
10
149.079
20
-64.2924
11
149.037
21
-64.31
0
LINE
8
BLACK
6
CONTINUOUS
10
149.037
20
-64.31
11
135.037
21
-64.31
0
LINE
8
BLACK
6
CONTINUOUS
10
135.037
20
-64.31
11
134.995
21
-64.2924
0
LINE
8
BLACK
6
CONTINUOUS
10
135.097
20
-50.31
11
135.097
21
-64.19
0
LINE
8
BLACK
6
CONTINUOUS
10
135.097
20
-64.19
11
148.977
21
-64.19
0
LINE
8
BLACK
6
CONTINUOUS
10
148.977
20
-64.19
11
148.977
21
-50.31
0
LINE
8
BLACK
6
CONTINUOUS
10
148.977
20
-50.31
11
135.097
21
-50.31
  0
ENDSEC
  0
EOF
