  0
SECTION
  2
HEADER
  9
$ANGBASE
  50
0.0
  9
$ANGDIR
  70
1
  9
$MEASUREMENT
  70
1
  0
ENDSEC
  0
SECTION
  2
TABLES
  0
TABLE
  2
LTYPE
  70
4
  0
LTYPE
  5
40F
  2
CONTINUOUS
  70
0
  3
Solid line
  72
65
  73
0
  40
0.0
  0
LTYPE
  5
410
  2
DASHDOT
 70
0
  3
Dash Dot ____ _ ____ _
 72
65
 73
4
 40
2.0
 49
1.25
 49
-0.25
 49
0.25
 49
-0.25
  0
LTYPE
  5
411
  2
DASHED
 70
0
  3
Dashed __ __ __ __ __
 72
65
 73
2
 40
0.75
 49
0.5
 49
-0.25
  0
LTYPE
  5
43B
  2
DOTTED
 70
0
  3
Dotted .  .  .  .
 72
65
 73
2
 40
0.2
 49
0.0
 49
-0.2
  0
ENDTAB
  0
TABLE
  2
STYLE
  70
4
  0
STYLE
  2
KICAD
  70
0
  40
0
  41
1
  42
1
  50
0
  71
0
  3
isocp.shx
  0
STYLE
  2
KICADB
  70
0
  40
0
  41
1
  42
1
  50
0
  71
0
  3
isocp.shx
  0
STYLE
  2
KICADI
  70
0
  40
0
  41
1
  42
1
  50
15
  71
0
  3
isocp.shx
  0
STYLE
  2
KICADBI
  70
0
  40
0
  41
1
  42
1
  50
15
  71
0
  3
isocp.shx
  0
ENDTAB
  0
TABLE
  2
LAYER
  70
1
  0
LAYER
  2
BLACK
  70
0
  62
7
  6
CONTINUOUS
  0
ENDTAB
  0
ENDSEC
  0
SECTION
  2
ENTITIES
0
LINE
8
BLACK
6
CONTINUOUS
10
180.12
20
-116.856
11
180.327
21
-116.897
0
LINE
8
BLACK
6
CONTINUOUS
10
180.327
20
-116.897
11
180.522
21
-116.975
0
LINE
8
BLACK
6
CONTINUOUS
10
180.522
20
-116.975
11
180.7
21
-117.088
0
LINE
8
BLACK
6
CONTINUOUS
10
180.7
20
-117.088
11
180.855
21
-117.23
0
LINE
8
BLACK
6
CONTINUOUS
10
180.855
20
-117.23
11
180.981
21
-117.399
0
LINE
8
BLACK
6
CONTINUOUS
10
180.981
20
-117.399
11
181.074
21
-117.588
0
LINE
8
BLACK
6
CONTINUOUS
10
181.074
20
-117.588
11
181.131
21
-117.79
0
LINE
8
BLACK
6
CONTINUOUS
10
181.131
20
-117.79
11
181.15
21
-118
0
LINE
8
BLACK
6
CONTINUOUS
10
181.15
20
-118
11
181.148
21
-118.06
0
LINE
8
BLACK
6
CONTINUOUS
10
181.148
20
-118.06
11
181.118
21
-118.268
0
LINE
8
BLACK
6
CONTINUOUS
10
181.118
20
-118.268
11
181.051
21
-118.468
0
LINE
8
BLACK
6
CONTINUOUS
10
181.051
20
-118.468
11
180.948
21
-118.651
0
LINE
8
BLACK
6
CONTINUOUS
10
180.948
20
-118.651
11
180.813
21
-118.813
0
LINE
8
BLACK
6
CONTINUOUS
10
180.813
20
-118.813
11
180.651
21
-118.948
0
LINE
8
BLACK
6
CONTINUOUS
10
180.651
20
-118.948
11
180.468
21
-119.051
0
LINE
8
BLACK
6
CONTINUOUS
10
180.468
20
-119.051
11
180.268
21
-119.118
0
LINE
8
BLACK
6
CONTINUOUS
10
180.268
20
-119.118
11
180.06
21
-119.148
0
LINE
8
BLACK
6
CONTINUOUS
10
180.06
20
-119.148
11
179.85
21
-119.14
0
LINE
8
BLACK
6
CONTINUOUS
10
179.85
20
-119.14
11
179.645
21
-119.094
0
LINE
8
BLACK
6
CONTINUOUS
10
179.645
20
-119.094
11
179.451
21
-119.011
0
LINE
8
BLACK
6
CONTINUOUS
10
179.451
20
-119.011
11
179.276
21
-118.894
0
LINE
8
BLACK
6
CONTINUOUS
10
179.276
20
-118.894
11
179.126
21
-118.747
0
LINE
8
BLACK
6
CONTINUOUS
10
179.126
20
-118.747
11
179.004
21
-118.575
0
LINE
8
BLACK
6
CONTINUOUS
10
179.004
20
-118.575
11
178.916
21
-118.384
0
LINE
8
BLACK
6
CONTINUOUS
10
178.916
20
-118.384
11
178.864
21
-118.18
0
LINE
8
BLACK
6
CONTINUOUS
10
178.864
20
-118.18
11
178.85
21
-117.97
0
LINE
8
BLACK
6
CONTINUOUS
10
178.85
20
-117.97
11
178.875
21
-117.761
0
LINE
8
BLACK
6
CONTINUOUS
10
178.875
20
-117.761
11
178.938
21
-117.56
0
LINE
8
BLACK
6
CONTINUOUS
10
178.938
20
-117.56
11
179.036
21
-117.374
0
LINE
8
BLACK
6
CONTINUOUS
10
179.036
20
-117.374
11
179.166
21
-117.208
0
LINE
8
BLACK
6
CONTINUOUS
10
179.166
20
-117.208
11
179.324
21
-117.07
0
LINE
8
BLACK
6
CONTINUOUS
10
179.324
20
-117.07
11
179.505
21
-116.962
0
LINE
8
BLACK
6
CONTINUOUS
10
179.505
20
-116.962
11
179.702
21
-116.889
0
LINE
8
BLACK
6
CONTINUOUS
10
179.702
20
-116.889
11
179.91
21
-116.854
0
LINE
8
BLACK
6
CONTINUOUS
10
179.91
20
-116.854
11
180.12
21
-116.856
0
LINE
8
BLACK
6
CONTINUOUS
10
128.62
20
-102.856
11
128.827
21
-102.897
0
LINE
8
BLACK
6
CONTINUOUS
10
128.827
20
-102.897
11
129.022
21
-102.975
0
LINE
8
BLACK
6
CONTINUOUS
10
129.022
20
-102.975
11
129.2
21
-103.088
0
LINE
8
BLACK
6
CONTINUOUS
10
129.2
20
-103.088
11
129.355
21
-103.23
0
LINE
8
BLACK
6
CONTINUOUS
10
129.355
20
-103.23
11
129.481
21
-103.399
0
LINE
8
BLACK
6
CONTINUOUS
10
129.481
20
-103.399
11
129.574
21
-103.588
0
LINE
8
BLACK
6
CONTINUOUS
10
129.574
20
-103.588
11
129.631
21
-103.79
0
LINE
8
BLACK
6
CONTINUOUS
10
129.631
20
-103.79
11
129.65
21
-104
0
LINE
8
BLACK
6
CONTINUOUS
10
129.65
20
-104
11
129.648
21
-104.06
0
LINE
8
BLACK
6
CONTINUOUS
10
129.648
20
-104.06
11
129.618
21
-104.268
0
LINE
8
BLACK
6
CONTINUOUS
10
129.618
20
-104.268
11
129.551
21
-104.468
0
LINE
8
BLACK
6
CONTINUOUS
10
129.551
20
-104.468
11
129.448
21
-104.651
0
LINE
8
BLACK
6
CONTINUOUS
10
129.448
20
-104.651
11
129.313
21
-104.813
0
LINE
8
BLACK
6
CONTINUOUS
10
129.313
20
-104.813
11
129.151
21
-104.948
0
LINE
8
BLACK
6
CONTINUOUS
10
129.151
20
-104.948
11
128.968
21
-105.051
0
LINE
8
BLACK
6
CONTINUOUS
10
128.968
20
-105.051
11
128.768
21
-105.118
0
LINE
8
BLACK
6
CONTINUOUS
10
128.768
20
-105.118
11
128.56
21
-105.148
0
LINE
8
BLACK
6
CONTINUOUS
10
128.56
20
-105.148
11
128.35
21
-105.14
0
LINE
8
BLACK
6
CONTINUOUS
10
128.35
20
-105.14
11
128.145
21
-105.094
0
LINE
8
BLACK
6
CONTINUOUS
10
128.145
20
-105.094
11
127.951
21
-105.011
0
LINE
8
BLACK
6
CONTINUOUS
10
127.951
20
-105.011
11
127.776
21
-104.894
0
LINE
8
BLACK
6
CONTINUOUS
10
127.776
20
-104.894
11
127.626
21
-104.747
0
LINE
8
BLACK
6
CONTINUOUS
10
127.626
20
-104.747
11
127.504
21
-104.575
0
LINE
8
BLACK
6
CONTINUOUS
10
127.504
20
-104.575
11
127.416
21
-104.384
0
LINE
8
BLACK
6
CONTINUOUS
10
127.416
20
-104.384
11
127.364
21
-104.18
0
LINE
8
BLACK
6
CONTINUOUS
10
127.364
20
-104.18
11
127.35
21
-103.97
0
LINE
8
BLACK
6
CONTINUOUS
10
127.35
20
-103.97
11
127.375
21
-103.761
0
LINE
8
BLACK
6
CONTINUOUS
10
127.375
20
-103.761
11
127.438
21
-103.56
0
LINE
8
BLACK
6
CONTINUOUS
10
127.438
20
-103.56
11
127.536
21
-103.374
0
LINE
8
BLACK
6
CONTINUOUS
10
127.536
20
-103.374
11
127.666
21
-103.208
0
LINE
8
BLACK
6
CONTINUOUS
10
127.666
20
-103.208
11
127.824
21
-103.07
0
LINE
8
BLACK
6
CONTINUOUS
10
127.824
20
-103.07
11
128.005
21
-102.962
0
LINE
8
BLACK
6
CONTINUOUS
10
128.005
20
-102.962
11
128.202
21
-102.889
0
LINE
8
BLACK
6
CONTINUOUS
10
128.202
20
-102.889
11
128.41
21
-102.854
0
LINE
8
BLACK
6
CONTINUOUS
10
128.41
20
-102.854
11
128.62
21
-102.856
0
LINE
8
BLACK
6
CONTINUOUS
10
89.1202
20
-87.3563
11
89.3266
21
-87.3974
0
LINE
8
BLACK
6
CONTINUOUS
10
89.3266
20
-87.3974
11
89.5221
21
-87.4753
0
LINE
8
BLACK
6
CONTINUOUS
10
89.5221
20
-87.4753
11
89.7001
21
-87.5876
0
LINE
8
BLACK
6
CONTINUOUS
10
89.7001
20
-87.5876
11
89.8546
21
-87.7305
0
LINE
8
BLACK
6
CONTINUOUS
10
89.8546
20
-87.7305
11
89.9805
21
-87.8991
0
LINE
8
BLACK
6
CONTINUOUS
10
89.9805
20
-87.8991
11
90.0736
21
-88.0879
0
LINE
8
BLACK
6
CONTINUOUS
10
90.0736
20
-88.0879
11
90.1307
21
-88.2904
0
LINE
8
BLACK
6
CONTINUOUS
10
90.1307
20
-88.2904
11
90.15
21
-88.5
0
LINE
8
BLACK
6
CONTINUOUS
10
90.15
20
-88.5
11
90.1484
21
-88.5602
0
LINE
8
BLACK
6
CONTINUOUS
10
90.1484
20
-88.5602
11
90.1182
21
-88.7685
0
LINE
8
BLACK
6
CONTINUOUS
10
90.1182
20
-88.7685
11
90.0506
21
-88.9677
0
LINE
8
BLACK
6
CONTINUOUS
10
90.0506
20
-88.9677
11
89.9477
21
-89.1514
0
LINE
8
BLACK
6
CONTINUOUS
10
89.9477
20
-89.1514
11
89.8132
21
-89.3132
0
LINE
8
BLACK
6
CONTINUOUS
10
89.8132
20
-89.3132
11
89.6514
21
-89.4477
0
LINE
8
BLACK
6
CONTINUOUS
10
89.6514
20
-89.4477
11
89.4677
21
-89.5506
0
LINE
8
BLACK
6
CONTINUOUS
10
89.4677
20
-89.5506
11
89.2685
21
-89.6182
0
LINE
8
BLACK
6
CONTINUOUS
10
89.2685
20
-89.6182
11
89.0602
21
-89.6484
0
LINE
8
BLACK
6
CONTINUOUS
10
89.0602
20
-89.6484
11
88.8499
21
-89.6402
0
LINE
8
BLACK
6
CONTINUOUS
10
88.8499
20
-89.6402
11
88.6446
21
-89.5937
0
LINE
8
BLACK
6
CONTINUOUS
10
88.6446
20
-89.5937
11
88.4513
21
-89.5106
0
LINE
8
BLACK
6
CONTINUOUS
10
88.4513
20
-89.5106
11
88.2763
21
-89.3937
0
LINE
8
BLACK
6
CONTINUOUS
10
88.2763
20
-89.3937
11
88.1255
21
-89.2469
0
LINE
8
BLACK
6
CONTINUOUS
10
88.1255
20
-89.2469
11
88.0041
21
-89.075
0
LINE
8
BLACK
6
CONTINUOUS
10
88.0041
20
-89.075
11
87.916
21
-88.8839
0
LINE
8
BLACK
6
CONTINUOUS
10
87.916
20
-88.8839
11
87.8642
21
-88.6799
0
LINE
8
BLACK
6
CONTINUOUS
10
87.8642
20
-88.6799
11
87.8504
21
-88.4699
0
LINE
8
BLACK
6
CONTINUOUS
10
87.8504
20
-88.4699
11
87.8751
21
-88.2609
0
LINE
8
BLACK
6
CONTINUOUS
10
87.8751
20
-88.2609
11
87.9375
21
-88.0599
0
LINE
8
BLACK
6
CONTINUOUS
10
87.9375
20
-88.0599
11
88.0355
21
-87.8737
0
LINE
8
BLACK
6
CONTINUOUS
10
88.0355
20
-87.8737
11
88.1658
21
-87.7084
0
LINE
8
BLACK
6
CONTINUOUS
10
88.1658
20
-87.7084
11
88.324
21
-87.5696
0
LINE
8
BLACK
6
CONTINUOUS
10
88.324
20
-87.5696
11
88.5049
21
-87.462
0
LINE
8
BLACK
6
CONTINUOUS
10
88.5049
20
-87.462
11
88.7024
21
-87.3892
0
LINE
8
BLACK
6
CONTINUOUS
10
88.7024
20
-87.3892
11
88.9098
21
-87.3535
0
LINE
8
BLACK
6
CONTINUOUS
10
88.9098
20
-87.3535
11
89.1202
21
-87.3563
0
LINE
8
BLACK
6
CONTINUOUS
10
166.62
20
-70.8563
11
166.827
21
-70.8974
0
LINE
8
BLACK
6
CONTINUOUS
10
166.827
20
-70.8974
11
167.022
21
-70.9753
0
LINE
8
BLACK
6
CONTINUOUS
10
167.022
20
-70.9753
11
167.2
21
-71.0876
0
LINE
8
BLACK
6
CONTINUOUS
10
167.2
20
-71.0876
11
167.355
21
-71.2305
0
LINE
8
BLACK
6
CONTINUOUS
10
167.355
20
-71.2305
11
167.481
21
-71.3991
0
LINE
8
BLACK
6
CONTINUOUS
10
167.481
20
-71.3991
11
167.574
21
-71.5879
0
LINE
8
BLACK
6
CONTINUOUS
10
167.574
20
-71.5879
11
167.631
21
-71.7904
0
LINE
8
BLACK
6
CONTINUOUS
10
167.631
20
-71.7904
11
167.65
21
-72
0
LINE
8
BLACK
6
CONTINUOUS
10
167.65
20
-72
11
167.648
21
-72.0602
0
LINE
8
BLACK
6
CONTINUOUS
10
167.648
20
-72.0602
11
167.618
21
-72.2685
0
LINE
8
BLACK
6
CONTINUOUS
10
167.618
20
-72.2685
11
167.551
21
-72.4677
0
LINE
8
BLACK
6
CONTINUOUS
10
167.551
20
-72.4677
11
167.448
21
-72.6514
0
LINE
8
BLACK
6
CONTINUOUS
10
167.448
20
-72.6514
11
167.313
21
-72.8132
0
LINE
8
BLACK
6
CONTINUOUS
10
167.313
20
-72.8132
11
167.151
21
-72.9477
0
LINE
8
BLACK
6
CONTINUOUS
10
167.151
20
-72.9477
11
166.968
21
-73.0506
0
LINE
8
BLACK
6
CONTINUOUS
10
166.968
20
-73.0506
11
166.768
21
-73.1182
0
LINE
8
BLACK
6
CONTINUOUS
10
166.768
20
-73.1182
11
166.56
21
-73.1484
0
LINE
8
BLACK
6
CONTINUOUS
10
166.56
20
-73.1484
11
166.35
21
-73.1402
0
LINE
8
BLACK
6
CONTINUOUS
10
166.35
20
-73.1402
11
166.145
21
-73.0937
0
LINE
8
BLACK
6
CONTINUOUS
10
166.145
20
-73.0937
11
165.951
21
-73.0106
0
LINE
8
BLACK
6
CONTINUOUS
10
165.951
20
-73.0106
11
165.776
21
-72.8937
0
LINE
8
BLACK
6
CONTINUOUS
10
165.776
20
-72.8937
11
165.626
21
-72.7469
0
LINE
8
BLACK
6
CONTINUOUS
10
165.626
20
-72.7469
11
165.504
21
-72.575
0
LINE
8
BLACK
6
CONTINUOUS
10
165.504
20
-72.575
11
165.416
21
-72.3839
0
LINE
8
BLACK
6
CONTINUOUS
10
165.416
20
-72.3839
11
165.364
21
-72.1799
0
LINE
8
BLACK
6
CONTINUOUS
10
165.364
20
-72.1799
11
165.35
21
-71.9699
0
LINE
8
BLACK
6
CONTINUOUS
10
165.35
20
-71.9699
11
165.375
21
-71.7609
0
LINE
8
BLACK
6
CONTINUOUS
10
165.375
20
-71.7609
11
165.438
21
-71.5599
0
LINE
8
BLACK
6
CONTINUOUS
10
165.438
20
-71.5599
11
165.536
21
-71.3737
0
LINE
8
BLACK
6
CONTINUOUS
10
165.536
20
-71.3737
11
165.666
21
-71.2084
0
LINE
8
BLACK
6
CONTINUOUS
10
165.666
20
-71.2084
11
165.824
21
-71.0696
0
LINE
8
BLACK
6
CONTINUOUS
10
165.824
20
-71.0696
11
166.005
21
-70.962
0
LINE
8
BLACK
6
CONTINUOUS
10
166.005
20
-70.962
11
166.202
21
-70.8892
0
LINE
8
BLACK
6
CONTINUOUS
10
166.202
20
-70.8892
11
166.41
21
-70.8535
0
LINE
8
BLACK
6
CONTINUOUS
10
166.41
20
-70.8535
11
166.62
21
-70.8563
0
LINE
8
BLACK
6
CONTINUOUS
10
109.12
20
-68.3563
11
109.327
21
-68.3974
0
LINE
8
BLACK
6
CONTINUOUS
10
109.327
20
-68.3974
11
109.522
21
-68.4753
0
LINE
8
BLACK
6
CONTINUOUS
10
109.522
20
-68.4753
11
109.7
21
-68.5876
0
LINE
8
BLACK
6
CONTINUOUS
10
109.7
20
-68.5876
11
109.855
21
-68.7305
0
LINE
8
BLACK
6
CONTINUOUS
10
109.855
20
-68.7305
11
109.981
21
-68.8991
0
LINE
8
BLACK
6
CONTINUOUS
10
109.981
20
-68.8991
11
110.074
21
-69.0879
0
LINE
8
BLACK
6
CONTINUOUS
10
110.074
20
-69.0879
11
110.131
21
-69.2904
0
LINE
8
BLACK
6
CONTINUOUS
10
110.131
20
-69.2904
11
110.15
21
-69.5
0
LINE
8
BLACK
6
CONTINUOUS
10
110.15
20
-69.5
11
110.148
21
-69.5602
0
LINE
8
BLACK
6
CONTINUOUS
10
110.148
20
-69.5602
11
110.118
21
-69.7685
0
LINE
8
BLACK
6
CONTINUOUS
10
110.118
20
-69.7685
11
110.051
21
-69.9677
0
LINE
8
BLACK
6
CONTINUOUS
10
110.051
20
-69.9677
11
109.948
21
-70.1514
0
LINE
8
BLACK
6
CONTINUOUS
10
109.948
20
-70.1514
11
109.813
21
-70.3132
0
LINE
8
BLACK
6
CONTINUOUS
10
109.813
20
-70.3132
11
109.651
21
-70.4477
0
LINE
8
BLACK
6
CONTINUOUS
10
109.651
20
-70.4477
11
109.468
21
-70.5506
0
LINE
8
BLACK
6
CONTINUOUS
10
109.468
20
-70.5506
11
109.268
21
-70.6182
0
LINE
8
BLACK
6
CONTINUOUS
10
109.268
20
-70.6182
11
109.06
21
-70.6484
0
LINE
8
BLACK
6
CONTINUOUS
10
109.06
20
-70.6484
11
108.85
21
-70.6402
0
LINE
8
BLACK
6
CONTINUOUS
10
108.85
20
-70.6402
11
108.645
21
-70.5937
0
LINE
8
BLACK
6
CONTINUOUS
10
108.645
20
-70.5937
11
108.451
21
-70.5106
0
LINE
8
BLACK
6
CONTINUOUS
10
108.451
20
-70.5106
11
108.276
21
-70.3937
0
LINE
8
BLACK
6
CONTINUOUS
10
108.276
20
-70.3937
11
108.126
21
-70.2469
0
LINE
8
BLACK
6
CONTINUOUS
10
108.126
20
-70.2469
11
108.004
21
-70.075
0
LINE
8
BLACK
6
CONTINUOUS
10
108.004
20
-70.075
11
107.916
21
-69.8839
0
LINE
8
BLACK
6
CONTINUOUS
10
107.916
20
-69.8839
11
107.864
21
-69.6799
0
LINE
8
BLACK
6
CONTINUOUS
10
107.864
20
-69.6799
11
107.85
21
-69.4699
0
LINE
8
BLACK
6
CONTINUOUS
10
107.85
20
-69.4699
11
107.875
21
-69.2609
0
LINE
8
BLACK
6
CONTINUOUS
10
107.875
20
-69.2609
11
107.938
21
-69.0599
0
LINE
8
BLACK
6
CONTINUOUS
10
107.938
20
-69.0599
11
108.036
21
-68.8737
0
LINE
8
BLACK
6
CONTINUOUS
10
108.036
20
-68.8737
11
108.166
21
-68.7084
0
LINE
8
BLACK
6
CONTINUOUS
10
108.166
20
-68.7084
11
108.324
21
-68.5696
0
LINE
8
BLACK
6
CONTINUOUS
10
108.324
20
-68.5696
11
108.505
21
-68.462
0
LINE
8
BLACK
6
CONTINUOUS
10
108.505
20
-68.462
11
108.702
21
-68.3892
0
LINE
8
BLACK
6
CONTINUOUS
10
108.702
20
-68.3892
11
108.91
21
-68.3535
0
LINE
8
BLACK
6
CONTINUOUS
10
108.91
20
-68.3535
11
109.12
21
-68.3563
0
LINE
8
BLACK
6
CONTINUOUS
10
199.12
20
-54.8563
11
199.327
21
-54.8974
0
LINE
8
BLACK
6
CONTINUOUS
10
199.327
20
-54.8974
11
199.522
21
-54.9753
0
LINE
8
BLACK
6
CONTINUOUS
10
199.522
20
-54.9753
11
199.7
21
-55.0876
0
LINE
8
BLACK
6
CONTINUOUS
10
199.7
20
-55.0876
11
199.855
21
-55.2305
0
LINE
8
BLACK
6
CONTINUOUS
10
199.855
20
-55.2305
11
199.981
21
-55.3991
0
LINE
8
BLACK
6
CONTINUOUS
10
199.981
20
-55.3991
11
200.074
21
-55.5879
0
LINE
8
BLACK
6
CONTINUOUS
10
200.074
20
-55.5879
11
200.131
21
-55.7904
0
LINE
8
BLACK
6
CONTINUOUS
10
200.131
20
-55.7904
11
200.15
21
-56
0
LINE
8
BLACK
6
CONTINUOUS
10
200.15
20
-56
11
200.148
21
-56.0602
0
LINE
8
BLACK
6
CONTINUOUS
10
200.148
20
-56.0602
11
200.118
21
-56.2685
0
LINE
8
BLACK
6
CONTINUOUS
10
200.118
20
-56.2685
11
200.051
21
-56.4677
0
LINE
8
BLACK
6
CONTINUOUS
10
200.051
20
-56.4677
11
199.948
21
-56.6514
0
LINE
8
BLACK
6
CONTINUOUS
10
199.948
20
-56.6514
11
199.813
21
-56.8132
0
LINE
8
BLACK
6
CONTINUOUS
10
199.813
20
-56.8132
11
199.651
21
-56.9477
0
LINE
8
BLACK
6
CONTINUOUS
10
199.651
20
-56.9477
11
199.468
21
-57.0506
0
LINE
8
BLACK
6
CONTINUOUS
10
199.468
20
-57.0506
11
199.268
21
-57.1182
0
LINE
8
BLACK
6
CONTINUOUS
10
199.268
20
-57.1182
11
199.06
21
-57.1484
0
LINE
8
BLACK
6
CONTINUOUS
10
199.06
20
-57.1484
11
198.85
21
-57.1402
0
LINE
8
BLACK
6
CONTINUOUS
10
198.85
20
-57.1402
11
198.645
21
-57.0937
0
LINE
8
BLACK
6
CONTINUOUS
10
198.645
20
-57.0937
11
198.451
21
-57.0106
0
LINE
8
BLACK
6
CONTINUOUS
10
198.451
20
-57.0106
11
198.276
21
-56.8937
0
LINE
8
BLACK
6
CONTINUOUS
10
198.276
20
-56.8937
11
198.126
21
-56.7469
0
LINE
8
BLACK
6
CONTINUOUS
10
198.126
20
-56.7469
11
198.004
21
-56.575
0
LINE
8
BLACK
6
CONTINUOUS
10
198.004
20
-56.575
11
197.916
21
-56.3839
0
LINE
8
BLACK
6
CONTINUOUS
10
197.916
20
-56.3839
11
197.864
21
-56.1799
0
LINE
8
BLACK
6
CONTINUOUS
10
197.864
20
-56.1799
11
197.85
21
-55.9699
0
LINE
8
BLACK
6
CONTINUOUS
10
197.85
20
-55.9699
11
197.875
21
-55.7609
0
LINE
8
BLACK
6
CONTINUOUS
10
197.875
20
-55.7609
11
197.938
21
-55.5599
0
LINE
8
BLACK
6
CONTINUOUS
10
197.938
20
-55.5599
11
198.036
21
-55.3737
0
LINE
8
BLACK
6
CONTINUOUS
10
198.036
20
-55.3737
11
198.166
21
-55.2084
0
LINE
8
BLACK
6
CONTINUOUS
10
198.166
20
-55.2084
11
198.324
21
-55.0696
0
LINE
8
BLACK
6
CONTINUOUS
10
198.324
20
-55.0696
11
198.505
21
-54.962
0
LINE
8
BLACK
6
CONTINUOUS
10
198.505
20
-54.962
11
198.702
21
-54.8892
0
LINE
8
BLACK
6
CONTINUOUS
10
198.702
20
-54.8892
11
198.91
21
-54.8535
0
LINE
8
BLACK
6
CONTINUOUS
10
198.91
20
-54.8535
11
199.12
21
-54.8563
0
LINE
8
BLACK
6
CONTINUOUS
10
147.046
20
-48.5091
11
147.063
21
-48.7275
0
LINE
8
BLACK
6
CONTINUOUS
10
147.063
20
-48.7275
11
147.117
21
-48.9494
0
LINE
8
BLACK
6
CONTINUOUS
10
147.117
20
-48.9494
11
147.204
21
-49.1603
0
LINE
8
BLACK
6
CONTINUOUS
10
147.204
20
-49.1603
11
147.323
21
-49.3549
0
LINE
8
BLACK
6
CONTINUOUS
10
147.323
20
-49.3549
11
147.472
21
-49.5284
0
LINE
8
BLACK
6
CONTINUOUS
10
147.472
20
-49.5284
11
147.645
21
-49.6767
0
LINE
8
BLACK
6
CONTINUOUS
10
147.645
20
-49.6767
11
147.84
21
-49.7959
0
LINE
8
BLACK
6
CONTINUOUS
10
147.84
20
-49.7959
11
148.051
21
-49.8833
0
LINE
8
BLACK
6
CONTINUOUS
10
148.051
20
-49.8833
11
148.272
21
-49.9366
0
LINE
8
BLACK
6
CONTINUOUS
10
148.272
20
-49.9366
11
148.491
21
-49.9538
0
LINE
8
BLACK
6
CONTINUOUS
10
148.491
20
-49.9538
11
148.5
21
-49.95
0
LINE
8
BLACK
6
CONTINUOUS
10
148.5
20
-49.95
11
203.5
21
-49.95
0
LINE
8
BLACK
6
CONTINUOUS
10
203.5
20
-49.95
11
203.5
21
-49.95
0
LINE
8
BLACK
6
CONTINUOUS
10
203.5
20
-49.95
11
203.5
21
-49.95
0
LINE
8
BLACK
6
CONTINUOUS
10
203.5
20
-49.95
11
203.721
21
-49.9658
0
LINE
8
BLACK
6
CONTINUOUS
10
203.721
20
-49.9658
11
203.937
21
-50.0128
0
LINE
8
BLACK
6
CONTINUOUS
10
203.937
20
-50.0128
11
204.144
21
-50.0901
0
LINE
8
BLACK
6
CONTINUOUS
10
204.144
20
-50.0901
11
204.338
21
-50.1961
0
LINE
8
BLACK
6
CONTINUOUS
10
204.338
20
-50.1961
11
204.515
21
-50.3286
0
LINE
8
BLACK
6
CONTINUOUS
10
204.515
20
-50.3286
11
204.671
21
-50.485
0
LINE
8
BLACK
6
CONTINUOUS
10
204.671
20
-50.485
11
204.804
21
-50.662
0
LINE
8
BLACK
6
CONTINUOUS
10
204.804
20
-50.662
11
204.91
21
-50.8561
0
LINE
8
BLACK
6
CONTINUOUS
10
204.91
20
-50.8561
11
204.987
21
-51.0633
0
LINE
8
BLACK
6
CONTINUOUS
10
204.987
20
-51.0633
11
205.034
21
-51.2794
0
LINE
8
BLACK
6
CONTINUOUS
10
205.034
20
-51.2794
11
205.05
21
-51.5
0
LINE
8
BLACK
6
CONTINUOUS
10
205.05
20
-51.5
11
205.05
21
-51.5
0
LINE
8
BLACK
6
CONTINUOUS
10
205.05
20
-51.5
11
205.05
21
-51.5
0
LINE
8
BLACK
6
CONTINUOUS
10
205.05
20
-51.5
11
205.05
21
-117.5
0
LINE
8
BLACK
6
CONTINUOUS
10
205.05
20
-117.5
11
205.045
21
-117.512
0
LINE
8
BLACK
6
CONTINUOUS
10
205.045
20
-117.512
11
205.043
21
-117.525
0
LINE
8
BLACK
6
CONTINUOUS
10
205.043
20
-117.525
11
191.592
21
-140.976
0
LINE
8
BLACK
6
CONTINUOUS
10
191.592
20
-140.976
11
191.592
21
-140.976
0
LINE
8
BLACK
6
CONTINUOUS
10
191.592
20
-140.976
11
191.592
21
-140.976
0
LINE
8
BLACK
6
CONTINUOUS
10
191.592
20
-140.976
11
191.592
21
-140.976
0
LINE
8
BLACK
6
CONTINUOUS
10
191.592
20
-140.976
11
191.468
21
-141.159
0
LINE
8
BLACK
6
CONTINUOUS
10
191.468
20
-141.159
11
191.32
21
-141.323
0
LINE
8
BLACK
6
CONTINUOUS
10
191.32
20
-141.323
11
191.149
21
-141.464
0
LINE
8
BLACK
6
CONTINUOUS
10
191.149
20
-141.464
11
190.96
21
-141.579
0
LINE
8
BLACK
6
CONTINUOUS
10
190.96
20
-141.579
11
190.757
21
-141.666
0
LINE
8
BLACK
6
CONTINUOUS
10
190.757
20
-141.666
11
190.543
21
-141.723
0
LINE
8
BLACK
6
CONTINUOUS
10
190.543
20
-141.723
11
190.324
21
-141.749
0
LINE
8
BLACK
6
CONTINUOUS
10
190.324
20
-141.749
11
190.103
21
-141.744
0
LINE
8
BLACK
6
CONTINUOUS
10
190.103
20
-141.744
11
189.885
21
-141.707
0
LINE
8
BLACK
6
CONTINUOUS
10
189.885
20
-141.707
11
189.674
21
-141.64
0
LINE
8
BLACK
6
CONTINUOUS
10
189.674
20
-141.64
11
189.475
21
-141.543
0
LINE
8
BLACK
6
CONTINUOUS
10
189.475
20
-141.543
11
189.475
21
-141.543
0
LINE
8
BLACK
6
CONTINUOUS
10
189.475
20
-141.543
11
189.475
21
-141.543
0
LINE
8
BLACK
6
CONTINUOUS
10
189.475
20
-141.543
11
189.475
21
-141.543
0
LINE
8
BLACK
6
CONTINUOUS
10
189.475
20
-141.543
11
173.981
21
-132.547
0
LINE
8
BLACK
6
CONTINUOUS
10
173.981
20
-132.547
11
155.493
21
-127.55
0
LINE
8
BLACK
6
CONTINUOUS
10
155.493
20
-127.55
11
136.5
21
-127.55
0
LINE
8
BLACK
6
CONTINUOUS
10
136.5
20
-127.55
11
136.491
21
-127.546
0
LINE
8
BLACK
6
CONTINUOUS
10
136.491
20
-127.546
11
136.482
21
-127.547
0
LINE
8
BLACK
6
CONTINUOUS
10
136.482
20
-127.547
11
106.991
21
-116.05
0
LINE
8
BLACK
6
CONTINUOUS
10
106.991
20
-116.05
11
90.5
21
-116.05
0
LINE
8
BLACK
6
CONTINUOUS
10
90.5
20
-116.05
11
90.5
21
-116.05
0
LINE
8
BLACK
6
CONTINUOUS
10
90.5
20
-116.05
11
90.5
21
-116.05
0
LINE
8
BLACK
6
CONTINUOUS
10
90.5
20
-116.05
11
90.2794
21
-116.034
0
LINE
8
BLACK
6
CONTINUOUS
10
90.2794
20
-116.034
11
90.0633
21
-115.987
0
LINE
8
BLACK
6
CONTINUOUS
10
90.0633
20
-115.987
11
89.8561
21
-115.91
0
LINE
8
BLACK
6
CONTINUOUS
10
89.8561
20
-115.91
11
89.662
21
-115.804
0
LINE
8
BLACK
6
CONTINUOUS
10
89.662
20
-115.804
11
89.485
21
-115.671
0
LINE
8
BLACK
6
CONTINUOUS
10
89.485
20
-115.671
11
89.3286
21
-115.515
0
LINE
8
BLACK
6
CONTINUOUS
10
89.3286
20
-115.515
11
89.1961
21
-115.338
0
LINE
8
BLACK
6
CONTINUOUS
10
89.1961
20
-115.338
11
89.0901
21
-115.144
0
LINE
8
BLACK
6
CONTINUOUS
10
89.0901
20
-115.144
11
89.0128
21
-114.937
0
LINE
8
BLACK
6
CONTINUOUS
10
89.0128
20
-114.937
11
88.9658
21
-114.721
0
LINE
8
BLACK
6
CONTINUOUS
10
88.9658
20
-114.721
11
88.95
21
-114.5
0
LINE
8
BLACK
6
CONTINUOUS
10
88.95
20
-114.5
11
88.95
21
-114.5
0
LINE
8
BLACK
6
CONTINUOUS
10
88.95
20
-114.5
11
88.95
21
-114.5
0
LINE
8
BLACK
6
CONTINUOUS
10
88.95
20
-114.5
11
88.95
21
-109.5
0
LINE
8
BLACK
6
CONTINUOUS
10
88.95
20
-109.5
11
88.95
21
-109.5
0
LINE
8
BLACK
6
CONTINUOUS
10
88.95
20
-109.5
11
88.95
21
-109.5
0
LINE
8
BLACK
6
CONTINUOUS
10
88.95
20
-109.5
11
88.9538
21
-109.491
0
LINE
8
BLACK
6
CONTINUOUS
10
88.9538
20
-109.491
11
88.9366
21
-109.272
0
LINE
8
BLACK
6
CONTINUOUS
10
88.9366
20
-109.272
11
88.8833
21
-109.051
0
LINE
8
BLACK
6
CONTINUOUS
10
88.8833
20
-109.051
11
88.796
21
-108.84
0
LINE
8
BLACK
6
CONTINUOUS
10
88.796
20
-108.84
11
88.6767
21
-108.645
0
LINE
8
BLACK
6
CONTINUOUS
10
88.6767
20
-108.645
11
88.5285
21
-108.471
0
LINE
8
BLACK
6
CONTINUOUS
10
88.5285
20
-108.471
11
88.3549
21
-108.323
0
LINE
8
BLACK
6
CONTINUOUS
10
88.3549
20
-108.323
11
88.1603
21
-108.204
0
LINE
8
BLACK
6
CONTINUOUS
10
88.1603
20
-108.204
11
87.9495
21
-108.117
0
LINE
8
BLACK
6
CONTINUOUS
10
87.9495
20
-108.117
11
87.7275
21
-108.063
0
LINE
8
BLACK
6
CONTINUOUS
10
87.7275
20
-108.063
11
87.5091
21
-108.046
0
LINE
8
BLACK
6
CONTINUOUS
10
87.5091
20
-108.046
11
87.5
21
-108.05
0
LINE
8
BLACK
6
CONTINUOUS
10
87.5
20
-108.05
11
87.5
21
-108.05
0
LINE
8
BLACK
6
CONTINUOUS
10
87.5
20
-108.05
11
87.5
21
-108.05
0
LINE
8
BLACK
6
CONTINUOUS
10
87.5
20
-108.05
11
71.5
21
-108.05
0
LINE
8
BLACK
6
CONTINUOUS
10
71.5
20
-108.05
11
71.5
21
-108.05
0
LINE
8
BLACK
6
CONTINUOUS
10
71.5
20
-108.05
11
71.5
21
-108.05
0
LINE
8
BLACK
6
CONTINUOUS
10
71.5
20
-108.05
11
71.2794
21
-108.034
0
LINE
8
BLACK
6
CONTINUOUS
10
71.2794
20
-108.034
11
71.0633
21
-107.987
0
LINE
8
BLACK
6
CONTINUOUS
10
71.0633
20
-107.987
11
70.8561
21
-107.91
0
LINE
8
BLACK
6
CONTINUOUS
10
70.8561
20
-107.91
11
70.662
21
-107.804
0
LINE
8
BLACK
6
CONTINUOUS
10
70.662
20
-107.804
11
70.485
21
-107.671
0
LINE
8
BLACK
6
CONTINUOUS
10
70.485
20
-107.671
11
70.3286
21
-107.515
0
LINE
8
BLACK
6
CONTINUOUS
10
70.3286
20
-107.515
11
70.1961
21
-107.338
0
LINE
8
BLACK
6
CONTINUOUS
10
70.1961
20
-107.338
11
70.0901
21
-107.144
0
LINE
8
BLACK
6
CONTINUOUS
10
70.0901
20
-107.144
11
70.0128
21
-106.937
0
LINE
8
BLACK
6
CONTINUOUS
10
70.0128
20
-106.937
11
69.9658
21
-106.721
0
LINE
8
BLACK
6
CONTINUOUS
10
69.9658
20
-106.721
11
69.95
21
-106.5
0
LINE
8
BLACK
6
CONTINUOUS
10
69.95
20
-106.5
11
69.95
21
-106.5
0
LINE
8
BLACK
6
CONTINUOUS
10
69.95
20
-106.5
11
69.95
21
-106.5
0
LINE
8
BLACK
6
CONTINUOUS
10
69.95
20
-106.5
11
69.95
21
-70.5
0
LINE
8
BLACK
6
CONTINUOUS
10
69.95
20
-70.5
11
69.9658
21
-70.2794
0
LINE
8
BLACK
6
CONTINUOUS
10
69.9658
20
-70.2794
11
70.0128
21
-70.0633
0
LINE
8
BLACK
6
CONTINUOUS
10
70.0128
20
-70.0633
11
70.0901
21
-69.8561
0
LINE
8
BLACK
6
CONTINUOUS
10
70.0901
20
-69.8561
11
70.1961
21
-69.662
0
LINE
8
BLACK
6
CONTINUOUS
10
70.1961
20
-69.662
11
70.3286
21
-69.485
0
LINE
8
BLACK
6
CONTINUOUS
10
70.3286
20
-69.485
11
70.485
21
-69.3286
0
LINE
8
BLACK
6
CONTINUOUS
10
70.485
20
-69.3286
11
70.662
21
-69.1961
0
LINE
8
BLACK
6
CONTINUOUS
10
70.662
20
-69.1961
11
70.8561
21
-69.0901
0
LINE
8
BLACK
6
CONTINUOUS
10
70.8561
20
-69.0901
11
71.0633
21
-69.0128
0
LINE
8
BLACK
6
CONTINUOUS
10
71.0633
20
-69.0128
11
71.2794
21
-68.9658
0
LINE
8
BLACK
6
CONTINUOUS
10
71.2794
20
-68.9658
11
71.5
21
-68.95
0
LINE
8
BLACK
6
CONTINUOUS
10
71.5
20
-68.95
11
87.5
21
-68.95
0
LINE
8
BLACK
6
CONTINUOUS
10
87.5
20
-68.95
11
87.5091
21
-68.9538
0
LINE
8
BLACK
6
CONTINUOUS
10
87.5091
20
-68.9538
11
87.7275
21
-68.9366
0
LINE
8
BLACK
6
CONTINUOUS
10
87.7275
20
-68.9366
11
87.9495
21
-68.8833
0
LINE
8
BLACK
6
CONTINUOUS
10
87.9495
20
-68.8833
11
88.1603
21
-68.796
0
LINE
8
BLACK
6
CONTINUOUS
10
88.1603
20
-68.796
11
88.3549
21
-68.6767
0
LINE
8
BLACK
6
CONTINUOUS
10
88.3549
20
-68.6767
11
88.5285
21
-68.5285
0
LINE
8
BLACK
6
CONTINUOUS
10
88.5285
20
-68.5285
11
88.6767
21
-68.3549
0
LINE
8
BLACK
6
CONTINUOUS
10
88.6767
20
-68.3549
11
88.796
21
-68.1603
0
LINE
8
BLACK
6
CONTINUOUS
10
88.796
20
-68.1603
11
88.8833
21
-67.9495
0
LINE
8
BLACK
6
CONTINUOUS
10
88.8833
20
-67.9495
11
88.9366
21
-67.7275
0
LINE
8
BLACK
6
CONTINUOUS
10
88.9366
20
-67.7275
11
88.9538
21
-67.5091
0
LINE
8
BLACK
6
CONTINUOUS
10
88.9538
20
-67.5091
11
88.95
21
-67.5
0
LINE
8
BLACK
6
CONTINUOUS
10
88.95
20
-67.5
11
88.95
21
-59.5
0
LINE
8
BLACK
6
CONTINUOUS
10
88.95
20
-59.5
11
88.9658
21
-59.2794
0
LINE
8
BLACK
6
CONTINUOUS
10
88.9658
20
-59.2794
11
89.0128
21
-59.0633
0
LINE
8
BLACK
6
CONTINUOUS
10
89.0128
20
-59.0633
11
89.0901
21
-58.8561
0
LINE
8
BLACK
6
CONTINUOUS
10
89.0901
20
-58.8561
11
89.1961
21
-58.662
0
LINE
8
BLACK
6
CONTINUOUS
10
89.1961
20
-58.662
11
89.3286
21
-58.485
0
LINE
8
BLACK
6
CONTINUOUS
10
89.3286
20
-58.485
11
89.485
21
-58.3286
0
LINE
8
BLACK
6
CONTINUOUS
10
89.485
20
-58.3286
11
89.662
21
-58.1961
0
LINE
8
BLACK
6
CONTINUOUS
10
89.662
20
-58.1961
11
89.8561
21
-58.0901
0
LINE
8
BLACK
6
CONTINUOUS
10
89.8561
20
-58.0901
11
90.0633
21
-58.0128
0
LINE
8
BLACK
6
CONTINUOUS
10
90.0633
20
-58.0128
11
90.2794
21
-57.9658
0
LINE
8
BLACK
6
CONTINUOUS
10
90.2794
20
-57.9658
11
90.5
21
-57.95
0
LINE
8
BLACK
6
CONTINUOUS
10
90.5
20
-57.95
11
106.5
21
-57.95
0
LINE
8
BLACK
6
CONTINUOUS
10
106.5
20
-57.95
11
106.509
21
-57.9538
0
LINE
8
BLACK
6
CONTINUOUS
10
106.509
20
-57.9538
11
106.728
21
-57.9366
0
LINE
8
BLACK
6
CONTINUOUS
10
106.728
20
-57.9366
11
106.949
21
-57.8833
0
LINE
8
BLACK
6
CONTINUOUS
10
106.949
20
-57.8833
11
107.16
21
-57.796
0
LINE
8
BLACK
6
CONTINUOUS
10
107.16
20
-57.796
11
107.355
21
-57.6767
0
LINE
8
BLACK
6
CONTINUOUS
10
107.355
20
-57.6767
11
107.528
21
-57.5285
0
LINE
8
BLACK
6
CONTINUOUS
10
107.528
20
-57.5285
11
107.677
21
-57.3549
0
LINE
8
BLACK
6
CONTINUOUS
10
107.677
20
-57.3549
11
107.796
21
-57.1603
0
LINE
8
BLACK
6
CONTINUOUS
10
107.796
20
-57.1603
11
107.883
21
-56.9495
0
LINE
8
BLACK
6
CONTINUOUS
10
107.883
20
-56.9495
11
107.937
21
-56.7275
0
LINE
8
BLACK
6
CONTINUOUS
10
107.937
20
-56.7275
11
107.954
21
-56.5091
0
LINE
8
BLACK
6
CONTINUOUS
10
107.954
20
-56.5091
11
107.95
21
-56.5
0
LINE
8
BLACK
6
CONTINUOUS
10
107.95
20
-56.5
11
107.95
21
-51.5
0
LINE
8
BLACK
6
CONTINUOUS
10
107.95
20
-51.5
11
107.966
21
-51.2794
0
LINE
8
BLACK
6
CONTINUOUS
10
107.966
20
-51.2794
11
108.013
21
-51.0633
0
LINE
8
BLACK
6
CONTINUOUS
10
108.013
20
-51.0633
11
108.09
21
-50.8561
0
LINE
8
BLACK
6
CONTINUOUS
10
108.09
20
-50.8561
11
108.196
21
-50.662
0
LINE
8
BLACK
6
CONTINUOUS
10
108.196
20
-50.662
11
108.329
21
-50.485
0
LINE
8
BLACK
6
CONTINUOUS
10
108.329
20
-50.485
11
108.485
21
-50.3286
0
LINE
8
BLACK
6
CONTINUOUS
10
108.485
20
-50.3286
11
108.662
21
-50.1961
0
LINE
8
BLACK
6
CONTINUOUS
10
108.662
20
-50.1961
11
108.856
21
-50.0901
0
LINE
8
BLACK
6
CONTINUOUS
10
108.856
20
-50.0901
11
109.063
21
-50.0128
0
LINE
8
BLACK
6
CONTINUOUS
10
109.063
20
-50.0128
11
109.279
21
-49.9658
0
LINE
8
BLACK
6
CONTINUOUS
10
109.279
20
-49.9658
11
109.5
21
-49.95
0
LINE
8
BLACK
6
CONTINUOUS
10
109.5
20
-49.95
11
125.5
21
-49.95
0
LINE
8
BLACK
6
CONTINUOUS
10
125.5
20
-49.95
11
125.509
21
-49.9538
0
LINE
8
BLACK
6
CONTINUOUS
10
125.509
20
-49.9538
11
125.728
21
-49.9366
0
LINE
8
BLACK
6
CONTINUOUS
10
125.728
20
-49.9366
11
125.949
21
-49.8833
0
LINE
8
BLACK
6
CONTINUOUS
10
125.949
20
-49.8833
11
126.16
21
-49.796
0
LINE
8
BLACK
6
CONTINUOUS
10
126.16
20
-49.796
11
126.355
21
-49.6767
0
LINE
8
BLACK
6
CONTINUOUS
10
126.355
20
-49.6767
11
126.528
21
-49.5285
0
LINE
8
BLACK
6
CONTINUOUS
10
126.528
20
-49.5285
11
126.677
21
-49.3549
0
LINE
8
BLACK
6
CONTINUOUS
10
126.677
20
-49.3549
11
126.796
21
-49.1603
0
LINE
8
BLACK
6
CONTINUOUS
10
126.796
20
-49.1603
11
126.883
21
-48.9495
0
LINE
8
BLACK
6
CONTINUOUS
10
126.883
20
-48.9495
11
126.937
21
-48.7275
0
LINE
8
BLACK
6
CONTINUOUS
10
126.937
20
-48.7275
11
126.954
21
-48.5091
0
LINE
8
BLACK
6
CONTINUOUS
10
126.954
20
-48.5091
11
126.95
21
-48.5
0
LINE
8
BLACK
6
CONTINUOUS
10
126.95
20
-48.5
11
126.95
21
-47.5
0
LINE
8
BLACK
6
CONTINUOUS
10
126.95
20
-47.5
11
126.966
21
-47.2794
0
LINE
8
BLACK
6
CONTINUOUS
10
126.966
20
-47.2794
11
127.013
21
-47.0633
0
LINE
8
BLACK
6
CONTINUOUS
10
127.013
20
-47.0633
11
127.09
21
-46.8561
0
LINE
8
BLACK
6
CONTINUOUS
10
127.09
20
-46.8561
11
127.196
21
-46.662
0
LINE
8
BLACK
6
CONTINUOUS
10
127.196
20
-46.662
11
127.329
21
-46.485
0
LINE
8
BLACK
6
CONTINUOUS
10
127.329
20
-46.485
11
127.485
21
-46.3286
0
LINE
8
BLACK
6
CONTINUOUS
10
127.485
20
-46.3286
11
127.662
21
-46.1961
0
LINE
8
BLACK
6
CONTINUOUS
10
127.662
20
-46.1961
11
127.856
21
-46.0901
0
LINE
8
BLACK
6
CONTINUOUS
10
127.856
20
-46.0901
11
128.063
21
-46.0128
0
LINE
8
BLACK
6
CONTINUOUS
10
128.063
20
-46.0128
11
128.279
21
-45.9658
0
LINE
8
BLACK
6
CONTINUOUS
10
128.279
20
-45.9658
11
128.5
21
-45.95
0
LINE
8
BLACK
6
CONTINUOUS
10
128.5
20
-45.95
11
145.5
21
-45.95
0
LINE
8
BLACK
6
CONTINUOUS
10
145.5
20
-45.95
11
145.721
21
-45.9658
0
LINE
8
BLACK
6
CONTINUOUS
10
145.721
20
-45.9658
11
145.937
21
-46.0128
0
LINE
8
BLACK
6
CONTINUOUS
10
145.937
20
-46.0128
11
146.144
21
-46.09
0
LINE
8
BLACK
6
CONTINUOUS
10
146.144
20
-46.09
11
146.338
21
-46.196
0
LINE
8
BLACK
6
CONTINUOUS
10
146.338
20
-46.196
11
146.515
21
-46.3286
0
LINE
8
BLACK
6
CONTINUOUS
10
146.515
20
-46.3286
11
146.671
21
-46.4849
0
LINE
8
BLACK
6
CONTINUOUS
10
146.671
20
-46.4849
11
146.804
21
-46.662
0
LINE
8
BLACK
6
CONTINUOUS
10
146.804
20
-46.662
11
146.91
21
-46.8561
0
LINE
8
BLACK
6
CONTINUOUS
10
146.91
20
-46.8561
11
146.987
21
-47.0633
0
LINE
8
BLACK
6
CONTINUOUS
10
146.987
20
-47.0633
11
147.034
21
-47.2794
0
LINE
8
BLACK
6
CONTINUOUS
10
147.034
20
-47.2794
11
147.05
21
-47.5
0
LINE
8
BLACK
6
CONTINUOUS
10
147.05
20
-47.5
11
147.05
21
-48.5
0
LINE
8
BLACK
6
CONTINUOUS
10
147.05
20
-48.5
11
147.046
21
-48.5091
0
LINE
8
BLACK
6
CONTINUOUS
10
128.272
20
-46.0634
11
128.051
21
-46.1167
0
LINE
8
BLACK
6
CONTINUOUS
10
128.051
20
-46.1167
11
127.84
21
-46.204
0
LINE
8
BLACK
6
CONTINUOUS
10
127.84
20
-46.204
11
127.645
21
-46.3233
0
LINE
8
BLACK
6
CONTINUOUS
10
127.645
20
-46.3233
11
127.472
21
-46.4715
0
LINE
8
BLACK
6
CONTINUOUS
10
127.472
20
-46.4715
11
127.323
21
-46.6451
0
LINE
8
BLACK
6
CONTINUOUS
10
127.323
20
-46.6451
11
127.204
21
-46.8397
0
LINE
8
BLACK
6
CONTINUOUS
10
127.204
20
-46.8397
11
127.117
21
-47.0505
0
LINE
8
BLACK
6
CONTINUOUS
10
127.117
20
-47.0505
11
127.063
21
-47.2725
0
LINE
8
BLACK
6
CONTINUOUS
10
127.063
20
-47.2725
11
127.046
21
-47.4909
0
LINE
8
BLACK
6
CONTINUOUS
10
127.046
20
-47.4909
11
127.05
21
-47.5
0
LINE
8
BLACK
6
CONTINUOUS
10
127.05
20
-47.5
11
127.05
21
-48.5
0
LINE
8
BLACK
6
CONTINUOUS
10
127.05
20
-48.5
11
127.034
21
-48.7206
0
LINE
8
BLACK
6
CONTINUOUS
10
127.034
20
-48.7206
11
126.987
21
-48.9367
0
LINE
8
BLACK
6
CONTINUOUS
10
126.987
20
-48.9367
11
126.91
21
-49.1439
0
LINE
8
BLACK
6
CONTINUOUS
10
126.91
20
-49.1439
11
126.804
21
-49.338
0
LINE
8
BLACK
6
CONTINUOUS
10
126.804
20
-49.338
11
126.671
21
-49.515
0
LINE
8
BLACK
6
CONTINUOUS
10
126.671
20
-49.515
11
126.515
21
-49.6714
0
LINE
8
BLACK
6
CONTINUOUS
10
126.515
20
-49.6714
11
126.338
21
-49.8039
0
LINE
8
BLACK
6
CONTINUOUS
10
126.338
20
-49.8039
11
126.144
21
-49.9099
0
LINE
8
BLACK
6
CONTINUOUS
10
126.144
20
-49.9099
11
125.937
21
-49.9872
0
LINE
8
BLACK
6
CONTINUOUS
10
125.937
20
-49.9872
11
125.721
21
-50.0342
0
LINE
8
BLACK
6
CONTINUOUS
10
125.721
20
-50.0342
11
125.5
21
-50.05
0
LINE
8
BLACK
6
CONTINUOUS
10
125.5
20
-50.05
11
109.5
21
-50.05
0
LINE
8
BLACK
6
CONTINUOUS
10
109.5
20
-50.05
11
109.491
21
-50.0462
0
LINE
8
BLACK
6
CONTINUOUS
10
109.491
20
-50.0462
11
109.272
21
-50.0634
0
LINE
8
BLACK
6
CONTINUOUS
10
109.272
20
-50.0634
11
109.051
21
-50.1167
0
LINE
8
BLACK
6
CONTINUOUS
10
109.051
20
-50.1167
11
108.84
21
-50.204
0
LINE
8
BLACK
6
CONTINUOUS
10
108.84
20
-50.204
11
108.645
21
-50.3233
0
LINE
8
BLACK
6
CONTINUOUS
10
108.645
20
-50.3233
11
108.472
21
-50.4715
0
LINE
8
BLACK
6
CONTINUOUS
10
108.472
20
-50.4715
11
108.323
21
-50.6451
0
LINE
8
BLACK
6
CONTINUOUS
10
108.323
20
-50.6451
11
108.204
21
-50.8397
0
LINE
8
BLACK
6
CONTINUOUS
10
108.204
20
-50.8397
11
108.117
21
-51.0505
0
LINE
8
BLACK
6
CONTINUOUS
10
108.117
20
-51.0505
11
108.063
21
-51.2725
0
LINE
8
BLACK
6
CONTINUOUS
10
108.063
20
-51.2725
11
108.046
21
-51.4909
0
LINE
8
BLACK
6
CONTINUOUS
10
108.046
20
-51.4909
11
108.05
21
-51.5
0
LINE
8
BLACK
6
CONTINUOUS
10
108.05
20
-51.5
11
108.05
21
-56.5
0
LINE
8
BLACK
6
CONTINUOUS
10
108.05
20
-56.5
11
108.034
21
-56.7206
0
LINE
8
BLACK
6
CONTINUOUS
10
108.034
20
-56.7206
11
107.987
21
-56.9367
0
LINE
8
BLACK
6
CONTINUOUS
10
107.987
20
-56.9367
11
107.91
21
-57.1439
0
LINE
8
BLACK
6
CONTINUOUS
10
107.91
20
-57.1439
11
107.804
21
-57.338
0
LINE
8
BLACK
6
CONTINUOUS
10
107.804
20
-57.338
11
107.671
21
-57.515
0
LINE
8
BLACK
6
CONTINUOUS
10
107.671
20
-57.515
11
107.515
21
-57.6714
0
LINE
8
BLACK
6
CONTINUOUS
10
107.515
20
-57.6714
11
107.338
21
-57.8039
0
LINE
8
BLACK
6
CONTINUOUS
10
107.338
20
-57.8039
11
107.144
21
-57.9099
0
LINE
8
BLACK
6
CONTINUOUS
10
107.144
20
-57.9099
11
106.937
21
-57.9872
0
LINE
8
BLACK
6
CONTINUOUS
10
106.937
20
-57.9872
11
106.721
21
-58.0342
0
LINE
8
BLACK
6
CONTINUOUS
10
106.721
20
-58.0342
11
106.5
21
-58.05
0
LINE
8
BLACK
6
CONTINUOUS
10
106.5
20
-58.05
11
90.5
21
-58.05
0
LINE
8
BLACK
6
CONTINUOUS
10
90.5
20
-58.05
11
90.4909
21
-58.0462
0
LINE
8
BLACK
6
CONTINUOUS
10
90.4909
20
-58.0462
11
90.2725
21
-58.0634
0
LINE
8
BLACK
6
CONTINUOUS
10
90.2725
20
-58.0634
11
90.0505
21
-58.1167
0
LINE
8
BLACK
6
CONTINUOUS
10
90.0505
20
-58.1167
11
89.8397
21
-58.204
0
LINE
8
BLACK
6
CONTINUOUS
10
89.8397
20
-58.204
11
89.6451
21
-58.3233
0
LINE
8
BLACK
6
CONTINUOUS
10
89.6451
20
-58.3233
11
89.4715
21
-58.4715
0
LINE
8
BLACK
6
CONTINUOUS
10
89.4715
20
-58.4715
11
89.3233
21
-58.6451
0
LINE
8
BLACK
6
CONTINUOUS
10
89.3233
20
-58.6451
11
89.204
21
-58.8397
0
LINE
8
BLACK
6
CONTINUOUS
10
89.204
20
-58.8397
11
89.1167
21
-59.0505
0
LINE
8
BLACK
6
CONTINUOUS
10
89.1167
20
-59.0505
11
89.0634
21
-59.2725
0
LINE
8
BLACK
6
CONTINUOUS
10
89.0634
20
-59.2725
11
89.0462
21
-59.4909
0
LINE
8
BLACK
6
CONTINUOUS
10
89.0462
20
-59.4909
11
89.05
21
-59.5
0
LINE
8
BLACK
6
CONTINUOUS
10
89.05
20
-59.5
11
89.05
21
-67.5
0
LINE
8
BLACK
6
CONTINUOUS
10
89.05
20
-67.5
11
89.0342
21
-67.7206
0
LINE
8
BLACK
6
CONTINUOUS
10
89.0342
20
-67.7206
11
88.9872
21
-67.9367
0
LINE
8
BLACK
6
CONTINUOUS
10
88.9872
20
-67.9367
11
88.9099
21
-68.1439
0
LINE
8
BLACK
6
CONTINUOUS
10
88.9099
20
-68.1439
11
88.8039
21
-68.338
0
LINE
8
BLACK
6
CONTINUOUS
10
88.8039
20
-68.338
11
88.6714
21
-68.515
0
LINE
8
BLACK
6
CONTINUOUS
10
88.6714
20
-68.515
11
88.515
21
-68.6714
0
LINE
8
BLACK
6
CONTINUOUS
10
88.515
20
-68.6714
11
88.338
21
-68.8039
0
LINE
8
BLACK
6
CONTINUOUS
10
88.338
20
-68.8039
11
88.1439
21
-68.9099
0
LINE
8
BLACK
6
CONTINUOUS
10
88.1439
20
-68.9099
11
87.9367
21
-68.9872
0
LINE
8
BLACK
6
CONTINUOUS
10
87.9367
20
-68.9872
11
87.7206
21
-69.0342
0
LINE
8
BLACK
6
CONTINUOUS
10
87.7206
20
-69.0342
11
87.5
21
-69.05
0
LINE
8
BLACK
6
CONTINUOUS
10
87.5
20
-69.05
11
71.5
21
-69.05
0
LINE
8
BLACK
6
CONTINUOUS
10
71.5
20
-69.05
11
71.4909
21
-69.0462
0
LINE
8
BLACK
6
CONTINUOUS
10
71.4909
20
-69.0462
11
71.2725
21
-69.0634
0
LINE
8
BLACK
6
CONTINUOUS
10
71.2725
20
-69.0634
11
71.0505
21
-69.1167
0
LINE
8
BLACK
6
CONTINUOUS
10
71.0505
20
-69.1167
11
70.8397
21
-69.204
0
LINE
8
BLACK
6
CONTINUOUS
10
70.8397
20
-69.204
11
70.6451
21
-69.3233
0
LINE
8
BLACK
6
CONTINUOUS
10
70.6451
20
-69.3233
11
70.4715
21
-69.4715
0
LINE
8
BLACK
6
CONTINUOUS
10
70.4715
20
-69.4715
11
70.3233
21
-69.6451
0
LINE
8
BLACK
6
CONTINUOUS
10
70.3233
20
-69.6451
11
70.204
21
-69.8397
0
LINE
8
BLACK
6
CONTINUOUS
10
70.204
20
-69.8397
11
70.1167
21
-70.0505
0
LINE
8
BLACK
6
CONTINUOUS
10
70.1167
20
-70.0505
11
70.0634
21
-70.2725
0
LINE
8
BLACK
6
CONTINUOUS
10
70.0634
20
-70.2725
11
70.0462
21
-70.4909
0
LINE
8
BLACK
6
CONTINUOUS
10
70.0462
20
-70.4909
11
70.05
21
-70.5
0
LINE
8
BLACK
6
CONTINUOUS
10
70.05
20
-70.5
11
70.05
21
-106.5
0
LINE
8
BLACK
6
CONTINUOUS
10
70.05
20
-106.5
11
70.0462
21
-106.509
0
LINE
8
BLACK
6
CONTINUOUS
10
70.0462
20
-106.509
11
70.0634
21
-106.728
0
LINE
8
BLACK
6
CONTINUOUS
10
70.0634
20
-106.728
11
70.1167
21
-106.949
0
LINE
8
BLACK
6
CONTINUOUS
10
70.1167
20
-106.949
11
70.2041
21
-107.16
0
LINE
8
BLACK
6
CONTINUOUS
10
70.2041
20
-107.16
11
70.3233
21
-107.355
0
LINE
8
BLACK
6
CONTINUOUS
10
70.3233
20
-107.355
11
70.4716
21
-107.528
0
LINE
8
BLACK
6
CONTINUOUS
10
70.4716
20
-107.528
11
70.6451
21
-107.677
0
LINE
8
BLACK
6
CONTINUOUS
10
70.6451
20
-107.677
11
70.8397
21
-107.796
0
LINE
8
BLACK
6
CONTINUOUS
10
70.8397
20
-107.796
11
71.0506
21
-107.883
0
LINE
8
BLACK
6
CONTINUOUS
10
71.0506
20
-107.883
11
71.2725
21
-107.937
0
LINE
8
BLACK
6
CONTINUOUS
10
71.2725
20
-107.937
11
71.4909
21
-107.954
0
LINE
8
BLACK
6
CONTINUOUS
10
71.4909
20
-107.954
11
71.5
21
-107.95
0
LINE
8
BLACK
6
CONTINUOUS
10
71.5
20
-107.95
11
87.5
21
-107.95
0
LINE
8
BLACK
6
CONTINUOUS
10
87.5
20
-107.95
11
87.7206
21
-107.966
0
LINE
8
BLACK
6
CONTINUOUS
10
87.7206
20
-107.966
11
87.9367
21
-108.013
0
LINE
8
BLACK
6
CONTINUOUS
10
87.9367
20
-108.013
11
88.1439
21
-108.09
0
LINE
8
BLACK
6
CONTINUOUS
10
88.1439
20
-108.09
11
88.338
21
-108.196
0
LINE
8
BLACK
6
CONTINUOUS
10
88.338
20
-108.196
11
88.5151
21
-108.329
0
LINE
8
BLACK
6
CONTINUOUS
10
88.5151
20
-108.329
11
88.6714
21
-108.485
0
LINE
8
BLACK
6
CONTINUOUS
10
88.6714
20
-108.485
11
88.804
21
-108.662
0
LINE
8
BLACK
6
CONTINUOUS
10
88.804
20
-108.662
11
88.91
21
-108.856
0
LINE
8
BLACK
6
CONTINUOUS
10
88.91
20
-108.856
11
88.9872
21
-109.063
0
LINE
8
BLACK
6
CONTINUOUS
10
88.9872
20
-109.063
11
89.0342
21
-109.279
0
LINE
8
BLACK
6
CONTINUOUS
10
89.0342
20
-109.279
11
89.05
21
-109.5
0
LINE
8
BLACK
6
CONTINUOUS
10
89.05
20
-109.5
11
89.05
21
-114.5
0
LINE
8
BLACK
6
CONTINUOUS
10
89.05
20
-114.5
11
89.0462
21
-114.509
0
LINE
8
BLACK
6
CONTINUOUS
10
89.0462
20
-114.509
11
89.0634
21
-114.728
0
LINE
8
BLACK
6
CONTINUOUS
10
89.0634
20
-114.728
11
89.1167
21
-114.949
0
LINE
8
BLACK
6
CONTINUOUS
10
89.1167
20
-114.949
11
89.2041
21
-115.16
0
LINE
8
BLACK
6
CONTINUOUS
10
89.2041
20
-115.16
11
89.3233
21
-115.355
0
LINE
8
BLACK
6
CONTINUOUS
10
89.3233
20
-115.355
11
89.4716
21
-115.528
0
LINE
8
BLACK
6
CONTINUOUS
10
89.4716
20
-115.528
11
89.6451
21
-115.677
0
LINE
8
BLACK
6
CONTINUOUS
10
89.6451
20
-115.677
11
89.8397
21
-115.796
0
LINE
8
BLACK
6
CONTINUOUS
10
89.8397
20
-115.796
11
90.0506
21
-115.883
0
LINE
8
BLACK
6
CONTINUOUS
10
90.0506
20
-115.883
11
90.2725
21
-115.937
0
LINE
8
BLACK
6
CONTINUOUS
10
90.2725
20
-115.937
11
90.4909
21
-115.954
0
LINE
8
BLACK
6
CONTINUOUS
10
90.4909
20
-115.954
11
90.5
21
-115.95
0
LINE
8
BLACK
6
CONTINUOUS
10
90.5
20
-115.95
11
107
21
-115.95
0
LINE
8
BLACK
6
CONTINUOUS
10
107
20
-115.95
11
107.009
21
-115.954
0
LINE
8
BLACK
6
CONTINUOUS
10
107.009
20
-115.954
11
107.018
21
-115.953
0
LINE
8
BLACK
6
CONTINUOUS
10
107.018
20
-115.953
11
136.509
21
-127.45
0
LINE
8
BLACK
6
CONTINUOUS
10
136.509
20
-127.45
11
155.5
21
-127.45
0
LINE
8
BLACK
6
CONTINUOUS
10
155.5
20
-127.45
11
155.506
21
-127.453
0
LINE
8
BLACK
6
CONTINUOUS
10
155.506
20
-127.453
11
155.513
21
-127.452
0
LINE
8
BLACK
6
CONTINUOUS
10
155.513
20
-127.452
11
174.013
21
-132.452
0
LINE
8
BLACK
6
CONTINUOUS
10
174.013
20
-132.452
11
174.018
21
-132.456
0
LINE
8
BLACK
6
CONTINUOUS
10
174.018
20
-132.456
11
174.025
21
-132.457
0
LINE
8
BLACK
6
CONTINUOUS
10
174.025
20
-132.457
11
189.525
21
-141.457
0
LINE
8
BLACK
6
CONTINUOUS
10
189.525
20
-141.457
11
189.531
21
-141.465
0
LINE
8
BLACK
6
CONTINUOUS
10
189.531
20
-141.465
11
189.729
21
-141.559
0
LINE
8
BLACK
6
CONTINUOUS
10
189.729
20
-141.559
11
189.948
21
-141.624
0
LINE
8
BLACK
6
CONTINUOUS
10
189.948
20
-141.624
11
190.174
21
-141.653
0
LINE
8
BLACK
6
CONTINUOUS
10
190.174
20
-141.653
11
190.402
21
-141.647
0
LINE
8
BLACK
6
CONTINUOUS
10
190.402
20
-141.647
11
190.626
21
-141.606
0
LINE
8
BLACK
6
CONTINUOUS
10
190.626
20
-141.606
11
190.842
21
-141.53
0
LINE
8
BLACK
6
CONTINUOUS
10
190.842
20
-141.53
11
191.042
21
-141.421
0
LINE
8
BLACK
6
CONTINUOUS
10
191.042
20
-141.421
11
191.223
21
-141.282
0
LINE
8
BLACK
6
CONTINUOUS
10
191.223
20
-141.282
11
191.38
21
-141.116
0
LINE
8
BLACK
6
CONTINUOUS
10
191.38
20
-141.116
11
191.504
21
-140.936
0
LINE
8
BLACK
6
CONTINUOUS
10
191.504
20
-140.936
11
191.506
21
-140.926
0
LINE
8
BLACK
6
CONTINUOUS
10
191.506
20
-140.926
11
204.95
21
-117.487
0
LINE
8
BLACK
6
CONTINUOUS
10
204.95
20
-117.487
11
204.95
21
-51.5
0
LINE
8
BLACK
6
CONTINUOUS
10
204.95
20
-51.5
11
204.954
21
-51.4909
0
LINE
8
BLACK
6
CONTINUOUS
10
204.954
20
-51.4909
11
204.937
21
-51.2725
0
LINE
8
BLACK
6
CONTINUOUS
10
204.937
20
-51.2725
11
204.883
21
-51.0506
0
LINE
8
BLACK
6
CONTINUOUS
10
204.883
20
-51.0506
11
204.796
21
-50.8397
0
LINE
8
BLACK
6
CONTINUOUS
10
204.796
20
-50.8397
11
204.677
21
-50.6451
0
LINE
8
BLACK
6
CONTINUOUS
10
204.677
20
-50.6451
11
204.528
21
-50.4716
0
LINE
8
BLACK
6
CONTINUOUS
10
204.528
20
-50.4716
11
204.355
21
-50.3233
0
LINE
8
BLACK
6
CONTINUOUS
10
204.355
20
-50.3233
11
204.16
21
-50.2041
0
LINE
8
BLACK
6
CONTINUOUS
10
204.16
20
-50.2041
11
203.949
21
-50.1167
0
LINE
8
BLACK
6
CONTINUOUS
10
203.949
20
-50.1167
11
203.728
21
-50.0634
0
LINE
8
BLACK
6
CONTINUOUS
10
203.728
20
-50.0634
11
203.509
21
-50.0462
0
LINE
8
BLACK
6
CONTINUOUS
10
203.509
20
-50.0462
11
203.5
21
-50.05
0
LINE
8
BLACK
6
CONTINUOUS
10
203.5
20
-50.05
11
148.5
21
-50.05
0
LINE
8
BLACK
6
CONTINUOUS
10
148.5
20
-50.05
11
148.5
21
-50.05
0
LINE
8
BLACK
6
CONTINUOUS
10
148.5
20
-50.05
11
148.5
21
-50.05
0
LINE
8
BLACK
6
CONTINUOUS
10
148.5
20
-50.05
11
148.279
21
-50.0342
0
LINE
8
BLACK
6
CONTINUOUS
10
148.279
20
-50.0342
11
148.063
21
-49.9872
0
LINE
8
BLACK
6
CONTINUOUS
10
148.063
20
-49.9872
11
147.856
21
-49.9099
0
LINE
8
BLACK
6
CONTINUOUS
10
147.856
20
-49.9099
11
147.662
21
-49.8039
0
LINE
8
BLACK
6
CONTINUOUS
10
147.662
20
-49.8039
11
147.485
21
-49.6714
0
LINE
8
BLACK
6
CONTINUOUS
10
147.485
20
-49.6714
11
147.329
21
-49.515
0
LINE
8
BLACK
6
CONTINUOUS
10
147.329
20
-49.515
11
147.196
21
-49.338
0
LINE
8
BLACK
6
CONTINUOUS
10
147.196
20
-49.338
11
147.09
21
-49.1439
0
LINE
8
BLACK
6
CONTINUOUS
10
147.09
20
-49.1439
11
147.013
21
-48.9367
0
LINE
8
BLACK
6
CONTINUOUS
10
147.013
20
-48.9367
11
146.966
21
-48.7206
0
LINE
8
BLACK
6
CONTINUOUS
10
146.966
20
-48.7206
11
146.95
21
-48.5
0
LINE
8
BLACK
6
CONTINUOUS
10
146.95
20
-48.5
11
146.95
21
-48.5
0
LINE
8
BLACK
6
CONTINUOUS
10
146.95
20
-48.5
11
146.95
21
-48.5
0
LINE
8
BLACK
6
CONTINUOUS
10
146.95
20
-48.5
11
146.95
21
-47.5
0
LINE
8
BLACK
6
CONTINUOUS
10
146.95
20
-47.5
11
146.95
21
-47.5
0
LINE
8
BLACK
6
CONTINUOUS
10
146.95
20
-47.5
11
146.95
21
-47.5
0
LINE
8
BLACK
6
CONTINUOUS
10
146.95
20
-47.5
11
146.954
21
-47.4909
0
LINE
8
BLACK
6
CONTINUOUS
10
146.954
20
-47.4909
11
146.937
21
-47.2725
0
LINE
8
BLACK
6
CONTINUOUS
10
146.937
20
-47.2725
11
146.883
21
-47.0505
0
LINE
8
BLACK
6
CONTINUOUS
10
146.883
20
-47.0505
11
146.796
21
-46.8397
0
LINE
8
BLACK
6
CONTINUOUS
10
146.796
20
-46.8397
11
146.677
21
-46.6451
0
LINE
8
BLACK
6
CONTINUOUS
10
146.677
20
-46.6451
11
146.529
21
-46.4715
0
LINE
8
BLACK
6
CONTINUOUS
10
146.529
20
-46.4715
11
146.355
21
-46.3233
0
LINE
8
BLACK
6
CONTINUOUS
10
146.355
20
-46.3233
11
146.16
21
-46.204
0
LINE
8
BLACK
6
CONTINUOUS
10
146.16
20
-46.204
11
145.949
21
-46.1167
0
LINE
8
BLACK
6
CONTINUOUS
10
145.949
20
-46.1167
11
145.728
21
-46.0634
0
LINE
8
BLACK
6
CONTINUOUS
10
145.728
20
-46.0634
11
145.509
21
-46.0462
0
LINE
8
BLACK
6
CONTINUOUS
10
145.509
20
-46.0462
11
145.5
21
-46.05
0
LINE
8
BLACK
6
CONTINUOUS
10
145.5
20
-46.05
11
145.5
21
-46.05
0
LINE
8
BLACK
6
CONTINUOUS
10
145.5
20
-46.05
11
145.5
21
-46.05
0
LINE
8
BLACK
6
CONTINUOUS
10
145.5
20
-46.05
11
128.5
21
-46.05
0
LINE
8
BLACK
6
CONTINUOUS
10
128.5
20
-46.05
11
128.491
21
-46.0462
0
LINE
8
BLACK
6
CONTINUOUS
10
128.491
20
-46.0462
11
128.272
21
-46.0634
0
LINE
8
BLACK
6
CONTINUOUS
10
192.032
20
-133.614
11
179.908
21
-126.614
0
LINE
8
BLACK
6
CONTINUOUS
10
179.908
20
-126.614
11
179.88
21
-126.578
0
LINE
8
BLACK
6
CONTINUOUS
10
179.88
20
-126.578
11
179.886
21
-126.532
0
LINE
8
BLACK
6
CONTINUOUS
10
179.886
20
-126.532
11
186.886
21
-114.408
0
LINE
8
BLACK
6
CONTINUOUS
10
186.886
20
-114.408
11
186.922
21
-114.38
0
LINE
8
BLACK
6
CONTINUOUS
10
186.922
20
-114.38
11
186.968
21
-114.386
0
LINE
8
BLACK
6
CONTINUOUS
10
186.968
20
-114.386
11
199.092
21
-121.386
0
LINE
8
BLACK
6
CONTINUOUS
10
199.092
20
-121.386
11
199.109
21
-121.408
0
LINE
8
BLACK
6
CONTINUOUS
10
199.109
20
-121.408
11
199.12
21
-121.422
0
LINE
8
BLACK
6
CONTINUOUS
10
199.12
20
-121.422
11
199.114
21
-121.468
0
LINE
8
BLACK
6
CONTINUOUS
10
199.114
20
-121.468
11
192.114
21
-133.592
0
LINE
8
BLACK
6
CONTINUOUS
10
192.114
20
-133.592
11
192.078
21
-133.62
0
LINE
8
BLACK
6
CONTINUOUS
10
192.078
20
-133.62
11
192.032
21
-133.614
0
LINE
8
BLACK
6
CONTINUOUS
10
192.032
20
-133.614
11
192.032
21
-133.614
0
LINE
8
BLACK
6
CONTINUOUS
10
180.02
20
-126.54
11
192.04
21
-133.48
0
LINE
8
BLACK
6
CONTINUOUS
10
192.04
20
-133.48
11
198.98
21
-121.46
0
LINE
8
BLACK
6
CONTINUOUS
10
198.98
20
-121.46
11
186.96
21
-114.52
0
LINE
8
BLACK
6
CONTINUOUS
10
186.96
20
-114.52
11
180.02
21
-126.54
0
LINE
8
BLACK
6
CONTINUOUS
10
158.625
20
-125.23
11
158.619
21
-125.184
0
LINE
8
BLACK
6
CONTINUOUS
10
158.619
20
-125.184
11
162.242
21
-111.661
0
LINE
8
BLACK
6
CONTINUOUS
10
162.242
20
-111.661
11
162.242
21
-111.661
0
LINE
8
BLACK
6
CONTINUOUS
10
162.242
20
-111.661
11
162.27
21
-111.625
0
LINE
8
BLACK
6
CONTINUOUS
10
162.27
20
-111.625
11
162.316
21
-111.619
0
LINE
8
BLACK
6
CONTINUOUS
10
162.316
20
-111.619
11
175.839
21
-115.242
0
LINE
8
BLACK
6
CONTINUOUS
10
175.839
20
-115.242
11
175.839
21
-115.242
0
LINE
8
BLACK
6
CONTINUOUS
10
175.839
20
-115.242
11
175.875
21
-115.27
0
LINE
8
BLACK
6
CONTINUOUS
10
175.875
20
-115.27
11
175.881
21
-115.316
0
LINE
8
BLACK
6
CONTINUOUS
10
175.881
20
-115.316
11
172.258
21
-128.839
0
LINE
8
BLACK
6
CONTINUOUS
10
172.258
20
-128.839
11
172.23
21
-128.875
0
LINE
8
BLACK
6
CONTINUOUS
10
172.23
20
-128.875
11
172.184
21
-128.881
0
LINE
8
BLACK
6
CONTINUOUS
10
172.184
20
-128.881
11
158.661
21
-125.258
0
LINE
8
BLACK
6
CONTINUOUS
10
158.661
20
-125.258
11
158.625
21
-125.23
0
LINE
8
BLACK
6
CONTINUOUS
10
158.75
20
-125.157
11
172.157
21
-128.75
0
LINE
8
BLACK
6
CONTINUOUS
10
172.157
20
-128.75
11
175.75
21
-115.343
0
LINE
8
BLACK
6
CONTINUOUS
10
175.75
20
-115.343
11
162.343
21
-111.75
0
LINE
8
BLACK
6
CONTINUOUS
10
162.343
20
-111.75
11
158.75
21
-125.157
0
LINE
8
BLACK
6
CONTINUOUS
10
138.958
20
-124.542
11
138.94
21
-124.5
0
LINE
8
BLACK
6
CONTINUOUS
10
138.94
20
-124.5
11
138.94
21
-110.5
0
LINE
8
BLACK
6
CONTINUOUS
10
138.94
20
-110.5
11
138.958
21
-110.458
0
LINE
8
BLACK
6
CONTINUOUS
10
138.958
20
-110.458
11
139
21
-110.44
0
LINE
8
BLACK
6
CONTINUOUS
10
139
20
-110.44
11
153
21
-110.44
0
LINE
8
BLACK
6
CONTINUOUS
10
153
20
-110.44
11
153.042
21
-110.458
0
LINE
8
BLACK
6
CONTINUOUS
10
153.042
20
-110.458
11
153.06
21
-110.5
0
LINE
8
BLACK
6
CONTINUOUS
10
153.06
20
-110.5
11
153.06
21
-124.5
0
LINE
8
BLACK
6
CONTINUOUS
10
153.06
20
-124.5
11
153.042
21
-124.542
0
LINE
8
BLACK
6
CONTINUOUS
10
153.042
20
-124.542
11
153
21
-124.56
0
LINE
8
BLACK
6
CONTINUOUS
10
153
20
-124.56
11
139
21
-124.56
0
LINE
8
BLACK
6
CONTINUOUS
10
139
20
-124.56
11
138.958
21
-124.542
0
LINE
8
BLACK
6
CONTINUOUS
10
139.06
20
-110.56
11
139.06
21
-124.44
0
LINE
8
BLACK
6
CONTINUOUS
10
139.06
20
-124.44
11
152.94
21
-124.44
0
LINE
8
BLACK
6
CONTINUOUS
10
152.94
20
-124.44
11
152.94
21
-110.56
0
LINE
8
BLACK
6
CONTINUOUS
10
152.94
20
-110.56
11
139.06
21
-110.56
0
LINE
8
BLACK
6
CONTINUOUS
10
91.9576
20
-113.042
11
91.94
21
-113
0
LINE
8
BLACK
6
CONTINUOUS
10
91.94
20
-113
11
91.94
21
-99
0
LINE
8
BLACK
6
CONTINUOUS
10
91.94
20
-99
11
91.9576
21
-98.9576
0
LINE
8
BLACK
6
CONTINUOUS
10
91.9576
20
-98.9576
11
92
21
-98.94
0
LINE
8
BLACK
6
CONTINUOUS
10
92
20
-98.94
11
106
21
-98.94
0
LINE
8
BLACK
6
CONTINUOUS
10
106
20
-98.94
11
106.042
21
-98.9576
0
LINE
8
BLACK
6
CONTINUOUS
10
106.042
20
-98.9576
11
106.06
21
-99
0
LINE
8
BLACK
6
CONTINUOUS
10
106.06
20
-99
11
106.06
21
-113
0
LINE
8
BLACK
6
CONTINUOUS
10
106.06
20
-113
11
106.042
21
-113.042
0
LINE
8
BLACK
6
CONTINUOUS
10
106.042
20
-113.042
11
106
21
-113.06
0
LINE
8
BLACK
6
CONTINUOUS
10
106
20
-113.06
11
92
21
-113.06
0
LINE
8
BLACK
6
CONTINUOUS
10
92
20
-113.06
11
91.9576
21
-113.042
0
LINE
8
BLACK
6
CONTINUOUS
10
92.06
20
-99.06
11
92.06
21
-112.94
0
LINE
8
BLACK
6
CONTINUOUS
10
92.06
20
-112.94
11
105.94
21
-112.94
0
LINE
8
BLACK
6
CONTINUOUS
10
105.94
20
-112.94
11
105.94
21
-99.06
0
LINE
8
BLACK
6
CONTINUOUS
10
105.94
20
-99.06
11
92.06
21
-99.06
0
LINE
8
BLACK
6
CONTINUOUS
10
167.958
20
-107.542
11
167.94
21
-107.5
0
LINE
8
BLACK
6
CONTINUOUS
10
167.94
20
-107.5
11
167.94
21
-93.5
0
LINE
8
BLACK
6
CONTINUOUS
10
167.94
20
-93.5
11
167.958
21
-93.4576
0
LINE
8
BLACK
6
CONTINUOUS
10
167.958
20
-93.4576
11
168
21
-93.44
0
LINE
8
BLACK
6
CONTINUOUS
10
168
20
-93.44
11
182
21
-93.44
0
LINE
8
BLACK
6
CONTINUOUS
10
182
20
-93.44
11
182.042
21
-93.4576
0
LINE
8
BLACK
6
CONTINUOUS
10
182.042
20
-93.4576
11
182.06
21
-93.5
0
LINE
8
BLACK
6
CONTINUOUS
10
182.06
20
-93.5
11
182.06
21
-107.5
0
LINE
8
BLACK
6
CONTINUOUS
10
182.06
20
-107.5
11
182.042
21
-107.542
0
LINE
8
BLACK
6
CONTINUOUS
10
182.042
20
-107.542
11
182
21
-107.56
0
LINE
8
BLACK
6
CONTINUOUS
10
182
20
-107.56
11
168
21
-107.56
0
LINE
8
BLACK
6
CONTINUOUS
10
168
20
-107.56
11
167.958
21
-107.542
0
LINE
8
BLACK
6
CONTINUOUS
10
168.06
20
-93.56
11
168.06
21
-107.44
0
LINE
8
BLACK
6
CONTINUOUS
10
168.06
20
-107.44
11
181.94
21
-107.44
0
LINE
8
BLACK
6
CONTINUOUS
10
181.94
20
-107.44
11
181.94
21
-93.56
0
LINE
8
BLACK
6
CONTINUOUS
10
181.94
20
-93.56
11
168.06
21
-93.56
0
LINE
8
BLACK
6
CONTINUOUS
10
72.9576
20
-105.042
11
72.94
21
-105
0
LINE
8
BLACK
6
CONTINUOUS
10
72.94
20
-105
11
72.94
21
-91
0
LINE
8
BLACK
6
CONTINUOUS
10
72.94
20
-91
11
72.9576
21
-90.9576
0
LINE
8
BLACK
6
CONTINUOUS
10
72.9576
20
-90.9576
11
73
21
-90.94
0
LINE
8
BLACK
6
CONTINUOUS
10
73
20
-90.94
11
87
21
-90.94
0
LINE
8
BLACK
6
CONTINUOUS
10
87
20
-90.94
11
87.0424
21
-90.9576
0
LINE
8
BLACK
6
CONTINUOUS
10
87.0424
20
-90.9576
11
87.06
21
-91
0
LINE
8
BLACK
6
CONTINUOUS
10
87.06
20
-91
11
87.06
21
-105
0
LINE
8
BLACK
6
CONTINUOUS
10
87.06
20
-105
11
87.0424
21
-105.042
0
LINE
8
BLACK
6
CONTINUOUS
10
87.0424
20
-105.042
11
87
21
-105.06
0
LINE
8
BLACK
6
CONTINUOUS
10
87
20
-105.06
11
73
21
-105.06
0
LINE
8
BLACK
6
CONTINUOUS
10
73
20
-105.06
11
72.9576
21
-105.042
0
LINE
8
BLACK
6
CONTINUOUS
10
73.06
20
-91.06
11
73.06
21
-104.94
0
LINE
8
BLACK
6
CONTINUOUS
10
73.06
20
-104.94
11
86.94
21
-104.94
0
LINE
8
BLACK
6
CONTINUOUS
10
86.94
20
-104.94
11
86.94
21
-91.06
0
LINE
8
BLACK
6
CONTINUOUS
10
86.94
20
-91.06
11
73.06
21
-91.06
0
LINE
8
BLACK
6
CONTINUOUS
10
148.958
20
-105.042
11
148.94
21
-105
0
LINE
8
BLACK
6
CONTINUOUS
10
148.94
20
-105
11
148.94
21
-91
0
LINE
8
BLACK
6
CONTINUOUS
10
148.94
20
-91
11
148.958
21
-90.9576
0
LINE
8
BLACK
6
CONTINUOUS
10
148.958
20
-90.9576
11
149
21
-90.94
0
LINE
8
BLACK
6
CONTINUOUS
10
149
20
-90.94
11
163
21
-90.94
0
LINE
8
BLACK
6
CONTINUOUS
10
163
20
-90.94
11
163.042
21
-90.9576
0
LINE
8
BLACK
6
CONTINUOUS
10
163.042
20
-90.9576
11
163.06
21
-91
0
LINE
8
BLACK
6
CONTINUOUS
10
163.06
20
-91
11
163.06
21
-105
0
LINE
8
BLACK
6
CONTINUOUS
10
163.06
20
-105
11
163.042
21
-105.042
0
LINE
8
BLACK
6
CONTINUOUS
10
163.042
20
-105.042
11
163
21
-105.06
0
LINE
8
BLACK
6
CONTINUOUS
10
163
20
-105.06
11
149
21
-105.06
0
LINE
8
BLACK
6
CONTINUOUS
10
149
20
-105.06
11
148.958
21
-105.042
0
LINE
8
BLACK
6
CONTINUOUS
10
149.06
20
-91.06
11
149.06
21
-104.94
0
LINE
8
BLACK
6
CONTINUOUS
10
149.06
20
-104.94
11
162.94
21
-104.94
0
LINE
8
BLACK
6
CONTINUOUS
10
162.94
20
-104.94
11
162.94
21
-91.06
0
LINE
8
BLACK
6
CONTINUOUS
10
162.94
20
-91.06
11
149.06
21
-91.06
0
LINE
8
BLACK
6
CONTINUOUS
10
110.958
20
-105.042
11
110.94
21
-105
0
LINE
8
BLACK
6
CONTINUOUS
10
110.94
20
-105
11
110.94
21
-91
0
LINE
8
BLACK
6
CONTINUOUS
10
110.94
20
-91
11
110.958
21
-90.9576
0
LINE
8
BLACK
6
CONTINUOUS
10
110.958
20
-90.9576
11
111
21
-90.94
0
LINE
8
BLACK
6
CONTINUOUS
10
111
20
-90.94
11
125
21
-90.94
0
LINE
8
BLACK
6
CONTINUOUS
10
125
20
-90.94
11
125.042
21
-90.9576
0
LINE
8
BLACK
6
CONTINUOUS
10
125.042
20
-90.9576
11
125.06
21
-91
0
LINE
8
BLACK
6
CONTINUOUS
10
125.06
20
-91
11
125.06
21
-105
0
LINE
8
BLACK
6
CONTINUOUS
10
125.06
20
-105
11
125.042
21
-105.042
0
LINE
8
BLACK
6
CONTINUOUS
10
125.042
20
-105.042
11
125
21
-105.06
0
LINE
8
BLACK
6
CONTINUOUS
10
125
20
-105.06
11
111
21
-105.06
0
LINE
8
BLACK
6
CONTINUOUS
10
111
20
-105.06
11
110.958
21
-105.042
0
LINE
8
BLACK
6
CONTINUOUS
10
111.06
20
-91.06
11
111.06
21
-104.94
0
LINE
8
BLACK
6
CONTINUOUS
10
111.06
20
-104.94
11
124.94
21
-104.94
0
LINE
8
BLACK
6
CONTINUOUS
10
124.94
20
-104.94
11
124.94
21
-91.06
0
LINE
8
BLACK
6
CONTINUOUS
10
124.94
20
-91.06
11
111.06
21
-91.06
0
LINE
8
BLACK
6
CONTINUOUS
10
129.958
20
-101.042
11
129.94
21
-101
0
LINE
8
BLACK
6
CONTINUOUS
10
129.94
20
-101
11
129.94
21
-87
0
LINE
8
BLACK
6
CONTINUOUS
10
129.94
20
-87
11
129.958
21
-86.9576
0
LINE
8
BLACK
6
CONTINUOUS
10
129.958
20
-86.9576
11
130
21
-86.94
0
LINE
8
BLACK
6
CONTINUOUS
10
130
20
-86.94
11
144
21
-86.94
0
LINE
8
BLACK
6
CONTINUOUS
10
144
20
-86.94
11
144.042
21
-86.9576
0
LINE
8
BLACK
6
CONTINUOUS
10
144.042
20
-86.9576
11
144.06
21
-87
0
LINE
8
BLACK
6
CONTINUOUS
10
144.06
20
-87
11
144.06
21
-101
0
LINE
8
BLACK
6
CONTINUOUS
10
144.06
20
-101
11
144.042
21
-101.042
0
LINE
8
BLACK
6
CONTINUOUS
10
144.042
20
-101.042
11
144
21
-101.06
0
LINE
8
BLACK
6
CONTINUOUS
10
144
20
-101.06
11
130
21
-101.06
0
LINE
8
BLACK
6
CONTINUOUS
10
130
20
-101.06
11
129.958
21
-101.042
0
LINE
8
BLACK
6
CONTINUOUS
10
130.06
20
-87.06
11
130.06
21
-100.94
0
LINE
8
BLACK
6
CONTINUOUS
10
130.06
20
-100.94
11
143.94
21
-100.94
0
LINE
8
BLACK
6
CONTINUOUS
10
143.94
20
-100.94
11
143.94
21
-87.06
0
LINE
8
BLACK
6
CONTINUOUS
10
143.94
20
-87.06
11
130.06
21
-87.06
0
LINE
8
BLACK
6
CONTINUOUS
10
91.9576
20
-94.0424
11
91.94
21
-94
0
LINE
8
BLACK
6
CONTINUOUS
10
91.94
20
-94
11
91.94
21
-80
0
LINE
8
BLACK
6
CONTINUOUS
10
91.94
20
-80
11
91.9576
21
-79.9576
0
LINE
8
BLACK
6
CONTINUOUS
10
91.9576
20
-79.9576
11
92
21
-79.94
0
LINE
8
BLACK
6
CONTINUOUS
10
92
20
-79.94
11
106
21
-79.94
0
LINE
8
BLACK
6
CONTINUOUS
10
106
20
-79.94
11
106.042
21
-79.9576
0
LINE
8
BLACK
6
CONTINUOUS
10
106.042
20
-79.9576
11
106.06
21
-80
0
LINE
8
BLACK
6
CONTINUOUS
10
106.06
20
-80
11
106.06
21
-94
0
LINE
8
BLACK
6
CONTINUOUS
10
106.06
20
-94
11
106.042
21
-94.0424
0
LINE
8
BLACK
6
CONTINUOUS
10
106.042
20
-94.0424
11
106
21
-94.06
0
LINE
8
BLACK
6
CONTINUOUS
10
106
20
-94.06
11
92
21
-94.06
0
LINE
8
BLACK
6
CONTINUOUS
10
92
20
-94.06
11
91.9576
21
-94.0424
0
LINE
8
BLACK
6
CONTINUOUS
10
92.06
20
-80.06
11
92.06
21
-93.94
0
LINE
8
BLACK
6
CONTINUOUS
10
92.06
20
-93.94
11
105.94
21
-93.94
0
LINE
8
BLACK
6
CONTINUOUS
10
105.94
20
-93.94
11
105.94
21
-80.06
0
LINE
8
BLACK
6
CONTINUOUS
10
105.94
20
-80.06
11
92.06
21
-80.06
0
LINE
8
BLACK
6
CONTINUOUS
10
167.958
20
-88.5424
11
167.94
21
-88.5
0
LINE
8
BLACK
6
CONTINUOUS
10
167.94
20
-88.5
11
167.94
21
-74.5
0
LINE
8
BLACK
6
CONTINUOUS
10
167.94
20
-74.5
11
167.958
21
-74.4576
0
LINE
8
BLACK
6
CONTINUOUS
10
167.958
20
-74.4576
11
168
21
-74.44
0
LINE
8
BLACK
6
CONTINUOUS
10
168
20
-74.44
11
182
21
-74.44
0
LINE
8
BLACK
6
CONTINUOUS
10
182
20
-74.44
11
182.042
21
-74.4576
0
LINE
8
BLACK
6
CONTINUOUS
10
182.042
20
-74.4576
11
182.06
21
-74.5
0
LINE
8
BLACK
6
CONTINUOUS
10
182.06
20
-74.5
11
182.06
21
-88.5
0
LINE
8
BLACK
6
CONTINUOUS
10
182.06
20
-88.5
11
182.042
21
-88.5424
0
LINE
8
BLACK
6
CONTINUOUS
10
182.042
20
-88.5424
11
182
21
-88.56
0
LINE
8
BLACK
6
CONTINUOUS
10
182
20
-88.56
11
168
21
-88.56
0
LINE
8
BLACK
6
CONTINUOUS
10
168
20
-88.56
11
167.958
21
-88.5424
0
LINE
8
BLACK
6
CONTINUOUS
10
168.06
20
-74.56
11
168.06
21
-88.44
0
LINE
8
BLACK
6
CONTINUOUS
10
168.06
20
-88.44
11
181.94
21
-88.44
0
LINE
8
BLACK
6
CONTINUOUS
10
181.94
20
-88.44
11
181.94
21
-74.56
0
LINE
8
BLACK
6
CONTINUOUS
10
181.94
20
-74.56
11
168.06
21
-74.56
0
LINE
8
BLACK
6
CONTINUOUS
10
148.958
20
-86.0424
11
148.94
21
-86
0
LINE
8
BLACK
6
CONTINUOUS
10
148.94
20
-86
11
148.94
21
-72
0
LINE
8
BLACK
6
CONTINUOUS
10
148.94
20
-72
11
148.958
21
-71.9576
0
LINE
8
BLACK
6
CONTINUOUS
10
148.958
20
-71.9576
11
149
21
-71.94
0
LINE
8
BLACK
6
CONTINUOUS
10
149
20
-71.94
11
163
21
-71.94
0
LINE
8
BLACK
6
CONTINUOUS
10
163
20
-71.94
11
163.042
21
-71.9576
0
LINE
8
BLACK
6
CONTINUOUS
10
163.042
20
-71.9576
11
163.06
21
-72
0
LINE
8
BLACK
6
CONTINUOUS
10
163.06
20
-72
11
163.06
21
-86
0
LINE
8
BLACK
6
CONTINUOUS
10
163.06
20
-86
11
163.042
21
-86.0424
0
LINE
8
BLACK
6
CONTINUOUS
10
163.042
20
-86.0424
11
163
21
-86.06
0
LINE
8
BLACK
6
CONTINUOUS
10
163
20
-86.06
11
149
21
-86.06
0
LINE
8
BLACK
6
CONTINUOUS
10
149
20
-86.06
11
148.958
21
-86.0424
0
LINE
8
BLACK
6
CONTINUOUS
10
149.06
20
-72.06
11
149.06
21
-85.94
0
LINE
8
BLACK
6
CONTINUOUS
10
149.06
20
-85.94
11
162.94
21
-85.94
0
LINE
8
BLACK
6
CONTINUOUS
10
162.94
20
-85.94
11
162.94
21
-72.06
0
LINE
8
BLACK
6
CONTINUOUS
10
162.94
20
-72.06
11
149.06
21
-72.06
0
LINE
8
BLACK
6
CONTINUOUS
10
72.9576
20
-86.0424
11
72.94
21
-86
0
LINE
8
BLACK
6
CONTINUOUS
10
72.94
20
-86
11
72.94
21
-72
0
LINE
8
BLACK
6
CONTINUOUS
10
72.94
20
-72
11
72.9576
21
-71.9576
0
LINE
8
BLACK
6
CONTINUOUS
10
72.9576
20
-71.9576
11
73
21
-71.94
0
LINE
8
BLACK
6
CONTINUOUS
10
73
20
-71.94
11
87
21
-71.94
0
LINE
8
BLACK
6
CONTINUOUS
10
87
20
-71.94
11
87.0424
21
-71.9576
0
LINE
8
BLACK
6
CONTINUOUS
10
87.0424
20
-71.9576
11
87.06
21
-72
0
LINE
8
BLACK
6
CONTINUOUS
10
87.06
20
-72
11
87.06
21
-86
0
LINE
8
BLACK
6
CONTINUOUS
10
87.06
20
-86
11
87.0424
21
-86.0424
0
LINE
8
BLACK
6
CONTINUOUS
10
87.0424
20
-86.0424
11
87
21
-86.06
0
LINE
8
BLACK
6
CONTINUOUS
10
87
20
-86.06
11
73
21
-86.06
0
LINE
8
BLACK
6
CONTINUOUS
10
73
20
-86.06
11
72.9576
21
-86.0424
0
LINE
8
BLACK
6
CONTINUOUS
10
73.06
20
-72.06
11
73.06
21
-85.94
0
LINE
8
BLACK
6
CONTINUOUS
10
73.06
20
-85.94
11
86.94
21
-85.94
0
LINE
8
BLACK
6
CONTINUOUS
10
86.94
20
-85.94
11
86.94
21
-72.06
0
LINE
8
BLACK
6
CONTINUOUS
10
86.94
20
-72.06
11
73.06
21
-72.06
0
LINE
8
BLACK
6
CONTINUOUS
10
110.958
20
-86.0424
11
110.94
21
-86
0
LINE
8
BLACK
6
CONTINUOUS
10
110.94
20
-86
11
110.94
21
-72
0
LINE
8
BLACK
6
CONTINUOUS
10
110.94
20
-72
11
110.958
21
-71.9576
0
LINE
8
BLACK
6
CONTINUOUS
10
110.958
20
-71.9576
11
111
21
-71.94
0
LINE
8
BLACK
6
CONTINUOUS
10
111
20
-71.94
11
125
21
-71.94
0
LINE
8
BLACK
6
CONTINUOUS
10
125
20
-71.94
11
125.042
21
-71.9576
0
LINE
8
BLACK
6
CONTINUOUS
10
125.042
20
-71.9576
11
125.06
21
-72
0
LINE
8
BLACK
6
CONTINUOUS
10
125.06
20
-72
11
125.06
21
-86
0
LINE
8
BLACK
6
CONTINUOUS
10
125.06
20
-86
11
125.042
21
-86.0424
0
LINE
8
BLACK
6
CONTINUOUS
10
125.042
20
-86.0424
11
125
21
-86.06
0
LINE
8
BLACK
6
CONTINUOUS
10
125
20
-86.06
11
111
21
-86.06
0
LINE
8
BLACK
6
CONTINUOUS
10
111
20
-86.06
11
110.958
21
-86.0424
0
LINE
8
BLACK
6
CONTINUOUS
10
111.06
20
-72.06
11
111.06
21
-85.94
0
LINE
8
BLACK
6
CONTINUOUS
10
111.06
20
-85.94
11
124.94
21
-85.94
0
LINE
8
BLACK
6
CONTINUOUS
10
124.94
20
-85.94
11
124.94
21
-72.06
0
LINE
8
BLACK
6
CONTINUOUS
10
124.94
20
-72.06
11
111.06
21
-72.06
0
LINE
8
BLACK
6
CONTINUOUS
10
129.958
20
-82.0424
11
129.94
21
-82
0
LINE
8
BLACK
6
CONTINUOUS
10
129.94
20
-82
11
129.94
21
-68
0
LINE
8
BLACK
6
CONTINUOUS
10
129.94
20
-68
11
129.958
21
-67.9576
0
LINE
8
BLACK
6
CONTINUOUS
10
129.958
20
-67.9576
11
130
21
-67.94
0
LINE
8
BLACK
6
CONTINUOUS
10
130
20
-67.94
11
144
21
-67.94
0
LINE
8
BLACK
6
CONTINUOUS
10
144
20
-67.94
11
144.042
21
-67.9576
0
LINE
8
BLACK
6
CONTINUOUS
10
144.042
20
-67.9576
11
144.06
21
-68
0
LINE
8
BLACK
6
CONTINUOUS
10
144.06
20
-68
11
144.06
21
-82
0
LINE
8
BLACK
6
CONTINUOUS
10
144.06
20
-82
11
144.042
21
-82.0424
0
LINE
8
BLACK
6
CONTINUOUS
10
144.042
20
-82.0424
11
144
21
-82.06
0
LINE
8
BLACK
6
CONTINUOUS
10
144
20
-82.06
11
130
21
-82.06
0
LINE
8
BLACK
6
CONTINUOUS
10
130
20
-82.06
11
129.958
21
-82.0424
0
LINE
8
BLACK
6
CONTINUOUS
10
130.06
20
-68.06
11
130.06
21
-81.94
0
LINE
8
BLACK
6
CONTINUOUS
10
130.06
20
-81.94
11
143.94
21
-81.94
0
LINE
8
BLACK
6
CONTINUOUS
10
143.94
20
-81.94
11
143.94
21
-68.06
0
LINE
8
BLACK
6
CONTINUOUS
10
143.94
20
-68.06
11
130.06
21
-68.06
0
LINE
8
BLACK
6
CONTINUOUS
10
188.058
20
-75.4424
11
188.04
21
-75.4
0
LINE
8
BLACK
6
CONTINUOUS
10
188.04
20
-75.4
11
188.04
21
-62.6
0
LINE
8
BLACK
6
CONTINUOUS
10
188.04
20
-62.6
11
188.058
21
-62.5576
0
LINE
8
BLACK
6
CONTINUOUS
10
188.058
20
-62.5576
11
188.1
21
-62.54
0
LINE
8
BLACK
6
CONTINUOUS
10
188.1
20
-62.54
11
200.9
21
-62.54
0
LINE
8
BLACK
6
CONTINUOUS
10
200.9
20
-62.54
11
200.942
21
-62.5576
0
LINE
8
BLACK
6
CONTINUOUS
10
200.942
20
-62.5576
11
200.96
21
-62.6
0
LINE
8
BLACK
6
CONTINUOUS
10
200.96
20
-62.6
11
200.96
21
-75.4
0
LINE
8
BLACK
6
CONTINUOUS
10
200.96
20
-75.4
11
200.942
21
-75.4424
0
LINE
8
BLACK
6
CONTINUOUS
10
200.942
20
-75.4424
11
200.9
21
-75.46
0
LINE
8
BLACK
6
CONTINUOUS
10
200.9
20
-75.46
11
188.1
21
-75.46
0
LINE
8
BLACK
6
CONTINUOUS
10
188.1
20
-75.46
11
188.058
21
-75.4424
0
LINE
8
BLACK
6
CONTINUOUS
10
188.16
20
-75.34
11
200.84
21
-75.34
0
LINE
8
BLACK
6
CONTINUOUS
10
200.84
20
-75.34
11
200.84
21
-62.66
0
LINE
8
BLACK
6
CONTINUOUS
10
200.84
20
-62.66
11
188.16
21
-62.66
0
LINE
8
BLACK
6
CONTINUOUS
10
188.16
20
-62.66
11
188.16
21
-75.34
0
LINE
8
BLACK
6
CONTINUOUS
10
91.9576
20
-75.0424
11
91.94
21
-75
0
LINE
8
BLACK
6
CONTINUOUS
10
91.94
20
-75
11
91.94
21
-61
0
LINE
8
BLACK
6
CONTINUOUS
10
91.94
20
-61
11
91.9576
21
-60.9576
0
LINE
8
BLACK
6
CONTINUOUS
10
91.9576
20
-60.9576
11
92
21
-60.94
0
LINE
8
BLACK
6
CONTINUOUS
10
92
20
-60.94
11
106
21
-60.94
0
LINE
8
BLACK
6
CONTINUOUS
10
106
20
-60.94
11
106.042
21
-60.9576
0
LINE
8
BLACK
6
CONTINUOUS
10
106.042
20
-60.9576
11
106.06
21
-61
0
LINE
8
BLACK
6
CONTINUOUS
10
106.06
20
-61
11
106.06
21
-75
0
LINE
8
BLACK
6
CONTINUOUS
10
106.06
20
-75
11
106.042
21
-75.0424
0
LINE
8
BLACK
6
CONTINUOUS
10
106.042
20
-75.0424
11
106
21
-75.06
0
LINE
8
BLACK
6
CONTINUOUS
10
106
20
-75.06
11
92
21
-75.06
0
LINE
8
BLACK
6
CONTINUOUS
10
92
20
-75.06
11
91.9576
21
-75.0424
0
LINE
8
BLACK
6
CONTINUOUS
10
92.06
20
-61.06
11
92.06
21
-74.94
0
LINE
8
BLACK
6
CONTINUOUS
10
92.06
20
-74.94
11
105.94
21
-74.94
0
LINE
8
BLACK
6
CONTINUOUS
10
105.94
20
-74.94
11
105.94
21
-61.06
0
LINE
8
BLACK
6
CONTINUOUS
10
105.94
20
-61.06
11
92.06
21
-61.06
0
LINE
8
BLACK
6
CONTINUOUS
10
167.958
20
-69.5424
11
167.94
21
-69.5
0
LINE
8
BLACK
6
CONTINUOUS
10
167.94
20
-69.5
11
167.94
21
-55.5
0
LINE
8
BLACK
6
CONTINUOUS
10
167.94
20
-55.5
11
167.958
21
-55.4576
0
LINE
8
BLACK
6
CONTINUOUS
10
167.958
20
-55.4576
11
168
21
-55.44
0
LINE
8
BLACK
6
CONTINUOUS
10
168
20
-55.44
11
182
21
-55.44
0
LINE
8
BLACK
6
CONTINUOUS
10
182
20
-55.44
11
182.042
21
-55.4576
0
LINE
8
BLACK
6
CONTINUOUS
10
182.042
20
-55.4576
11
182.06
21
-55.5
0
LINE
8
BLACK
6
CONTINUOUS
10
182.06
20
-55.5
11
182.06
21
-69.5
0
LINE
8
BLACK
6
CONTINUOUS
10
182.06
20
-69.5
11
182.042
21
-69.5424
0
LINE
8
BLACK
6
CONTINUOUS
10
182.042
20
-69.5424
11
182
21
-69.56
0
LINE
8
BLACK
6
CONTINUOUS
10
182
20
-69.56
11
168
21
-69.56
0
LINE
8
BLACK
6
CONTINUOUS
10
168
20
-69.56
11
167.958
21
-69.5424
0
LINE
8
BLACK
6
CONTINUOUS
10
168.06
20
-55.56
11
168.06
21
-69.44
0
LINE
8
BLACK
6
CONTINUOUS
10
168.06
20
-69.44
11
181.94
21
-69.44
0
LINE
8
BLACK
6
CONTINUOUS
10
181.94
20
-69.44
11
181.94
21
-55.56
0
LINE
8
BLACK
6
CONTINUOUS
10
181.94
20
-55.56
11
168.06
21
-55.56
0
LINE
8
BLACK
6
CONTINUOUS
10
110.958
20
-67.0424
11
110.94
21
-67
0
LINE
8
BLACK
6
CONTINUOUS
10
110.94
20
-67
11
110.94
21
-53
0
LINE
8
BLACK
6
CONTINUOUS
10
110.94
20
-53
11
110.958
21
-52.9576
0
LINE
8
BLACK
6
CONTINUOUS
10
110.958
20
-52.9576
11
111
21
-52.94
0
LINE
8
BLACK
6
CONTINUOUS
10
111
20
-52.94
11
125
21
-52.94
0
LINE
8
BLACK
6
CONTINUOUS
10
125
20
-52.94
11
125.042
21
-52.9576
0
LINE
8
BLACK
6
CONTINUOUS
10
125.042
20
-52.9576
11
125.06
21
-53
0
LINE
8
BLACK
6
CONTINUOUS
10
125.06
20
-53
11
125.06
21
-67
0
LINE
8
BLACK
6
CONTINUOUS
10
125.06
20
-67
11
125.042
21
-67.0424
0
LINE
8
BLACK
6
CONTINUOUS
10
125.042
20
-67.0424
11
125
21
-67.06
0
LINE
8
BLACK
6
CONTINUOUS
10
125
20
-67.06
11
111
21
-67.06
0
LINE
8
BLACK
6
CONTINUOUS
10
111
20
-67.06
11
110.958
21
-67.0424
0
LINE
8
BLACK
6
CONTINUOUS
10
111.06
20
-53.06
11
111.06
21
-66.94
0
LINE
8
BLACK
6
CONTINUOUS
10
111.06
20
-66.94
11
124.94
21
-66.94
0
LINE
8
BLACK
6
CONTINUOUS
10
124.94
20
-66.94
11
124.94
21
-53.06
0
LINE
8
BLACK
6
CONTINUOUS
10
124.94
20
-53.06
11
111.06
21
-53.06
0
LINE
8
BLACK
6
CONTINUOUS
10
148.958
20
-67.0424
11
148.94
21
-67
0
LINE
8
BLACK
6
CONTINUOUS
10
148.94
20
-67
11
148.94
21
-53
0
LINE
8
BLACK
6
CONTINUOUS
10
148.94
20
-53
11
148.958
21
-52.9576
0
LINE
8
BLACK
6
CONTINUOUS
10
148.958
20
-52.9576
11
149
21
-52.94
0
LINE
8
BLACK
6
CONTINUOUS
10
149
20
-52.94
11
163
21
-52.94
0
LINE
8
BLACK
6
CONTINUOUS
10
163
20
-52.94
11
163.042
21
-52.9576
0
LINE
8
BLACK
6
CONTINUOUS
10
163.042
20
-52.9576
11
163.06
21
-53
0
LINE
8
BLACK
6
CONTINUOUS
10
163.06
20
-53
11
163.06
21
-67
0
LINE
8
BLACK
6
CONTINUOUS
10
163.06
20
-67
11
163.042
21
-67.0424
0
LINE
8
BLACK
6
CONTINUOUS
10
163.042
20
-67.0424
11
163
21
-67.06
0
LINE
8
BLACK
6
CONTINUOUS
10
163
20
-67.06
11
149
21
-67.06
0
LINE
8
BLACK
6
CONTINUOUS
10
149
20
-67.06
11
148.958
21
-67.0424
0
LINE
8
BLACK
6
CONTINUOUS
10
149.06
20
-53.06
11
149.06
21
-66.94
0
LINE
8
BLACK
6
CONTINUOUS
10
149.06
20
-66.94
11
162.94
21
-66.94
0
LINE
8
BLACK
6
CONTINUOUS
10
162.94
20
-66.94
11
162.94
21
-53.06
0
LINE
8
BLACK
6
CONTINUOUS
10
162.94
20
-53.06
11
149.06
21
-53.06
0
LINE
8
BLACK
6
CONTINUOUS
10
129.958
20
-63.0424
11
129.94
21
-63
0
LINE
8
BLACK
6
CONTINUOUS
10
129.94
20
-63
11
129.94
21
-49
0
LINE
8
BLACK
6
CONTINUOUS
10
129.94
20
-49
11
129.958
21
-48.9576
0
LINE
8
BLACK
6
CONTINUOUS
10
129.958
20
-48.9576
11
130
21
-48.94
0
LINE
8
BLACK
6
CONTINUOUS
10
130
20
-48.94
11
144
21
-48.94
0
LINE
8
BLACK
6
CONTINUOUS
10
144
20
-48.94
11
144.042
21
-48.9576
0
LINE
8
BLACK
6
CONTINUOUS
10
144.042
20
-48.9576
11
144.06
21
-49
0
LINE
8
BLACK
6
CONTINUOUS
10
144.06
20
-49
11
144.06
21
-63
0
LINE
8
BLACK
6
CONTINUOUS
10
144.06
20
-63
11
144.042
21
-63.0424
0
LINE
8
BLACK
6
CONTINUOUS
10
144.042
20
-63.0424
11
144
21
-63.06
0
LINE
8
BLACK
6
CONTINUOUS
10
144
20
-63.06
11
130
21
-63.06
0
LINE
8
BLACK
6
CONTINUOUS
10
130
20
-63.06
11
129.958
21
-63.0424
0
LINE
8
BLACK
6
CONTINUOUS
10
130.06
20
-49.06
11
130.06
21
-62.94
0
LINE
8
BLACK
6
CONTINUOUS
10
130.06
20
-62.94
11
143.94
21
-62.94
0
LINE
8
BLACK
6
CONTINUOUS
10
143.94
20
-62.94
11
143.94
21
-49.06
0
LINE
8
BLACK
6
CONTINUOUS
10
143.94
20
-49.06
11
130.06
21
-49.06
  0
ENDSEC
  0
EOF
