  0
SECTION
  2
HEADER
  9
$ANGBASE
  50
0.0
  9
$ANGDIR
  70
1
  9
$MEASUREMENT
  70
1
  0
ENDSEC
  0
SECTION
  2
TABLES
  0
TABLE
  2
LTYPE
  70
4
  0
LTYPE
  5
40F
  2
CONTINUOUS
  70
0
  3
Solid line
  72
65
  73
0
  40
0.0
  0
LTYPE
  5
410
  2
DASHDOT
 70
0
  3
Dash Dot ____ _ ____ _
 72
65
 73
4
 40
2.0
 49
1.25
 49
-0.25
 49
0.25
 49
-0.25
  0
LTYPE
  5
411
  2
DASHED
 70
0
  3
Dashed __ __ __ __ __
 72
65
 73
2
 40
0.75
 49
0.5
 49
-0.25
  0
LTYPE
  5
43B
  2
DOTTED
 70
0
  3
Dotted .  .  .  .
 72
65
 73
2
 40
0.2
 49
0.0
 49
-0.2
  0
ENDTAB
  0
TABLE
  2
STYLE
  70
4
  0
STYLE
  2
KICAD
  70
0
  40
0
  41
1
  42
1
  50
0
  71
0
  3
isocp.shx
  0
STYLE
  2
KICADB
  70
0
  40
0
  41
1
  42
1
  50
0
  71
0
  3
isocp.shx
  0
STYLE
  2
KICADI
  70
0
  40
0
  41
1
  42
1
  50
15
  71
0
  3
isocp.shx
  0
STYLE
  2
KICADBI
  70
0
  40
0
  41
1
  42
1
  50
15
  71
0
  3
isocp.shx
  0
ENDTAB
  0
TABLE
  2
LAYER
  70
1
  0
LAYER
  2
BLACK
  70
0
  62
7
  6
CONTINUOUS
  0
ENDTAB
  0
ENDSEC
  0
SECTION
  2
ENTITIES
0
LINE
8
BLACK
6
CONTINUOUS
10
178.62
20
-121.856
11
178.827
21
-121.897
0
LINE
8
BLACK
6
CONTINUOUS
10
178.827
20
-121.897
11
179.022
21
-121.975
0
LINE
8
BLACK
6
CONTINUOUS
10
179.022
20
-121.975
11
179.2
21
-122.088
0
LINE
8
BLACK
6
CONTINUOUS
10
179.2
20
-122.088
11
179.355
21
-122.23
0
LINE
8
BLACK
6
CONTINUOUS
10
179.355
20
-122.23
11
179.481
21
-122.399
0
LINE
8
BLACK
6
CONTINUOUS
10
179.481
20
-122.399
11
179.574
21
-122.588
0
LINE
8
BLACK
6
CONTINUOUS
10
179.574
20
-122.588
11
179.631
21
-122.79
0
LINE
8
BLACK
6
CONTINUOUS
10
179.631
20
-122.79
11
179.65
21
-123
0
LINE
8
BLACK
6
CONTINUOUS
10
179.65
20
-123
11
179.648
21
-123.06
0
LINE
8
BLACK
6
CONTINUOUS
10
179.648
20
-123.06
11
179.618
21
-123.268
0
LINE
8
BLACK
6
CONTINUOUS
10
179.618
20
-123.268
11
179.551
21
-123.468
0
LINE
8
BLACK
6
CONTINUOUS
10
179.551
20
-123.468
11
179.448
21
-123.651
0
LINE
8
BLACK
6
CONTINUOUS
10
179.448
20
-123.651
11
179.313
21
-123.813
0
LINE
8
BLACK
6
CONTINUOUS
10
179.313
20
-123.813
11
179.151
21
-123.948
0
LINE
8
BLACK
6
CONTINUOUS
10
179.151
20
-123.948
11
178.968
21
-124.051
0
LINE
8
BLACK
6
CONTINUOUS
10
178.968
20
-124.051
11
178.768
21
-124.118
0
LINE
8
BLACK
6
CONTINUOUS
10
178.768
20
-124.118
11
178.56
21
-124.148
0
LINE
8
BLACK
6
CONTINUOUS
10
178.56
20
-124.148
11
178.35
21
-124.14
0
LINE
8
BLACK
6
CONTINUOUS
10
178.35
20
-124.14
11
178.145
21
-124.094
0
LINE
8
BLACK
6
CONTINUOUS
10
178.145
20
-124.094
11
177.951
21
-124.011
0
LINE
8
BLACK
6
CONTINUOUS
10
177.951
20
-124.011
11
177.776
21
-123.894
0
LINE
8
BLACK
6
CONTINUOUS
10
177.776
20
-123.894
11
177.626
21
-123.747
0
LINE
8
BLACK
6
CONTINUOUS
10
177.626
20
-123.747
11
177.504
21
-123.575
0
LINE
8
BLACK
6
CONTINUOUS
10
177.504
20
-123.575
11
177.416
21
-123.384
0
LINE
8
BLACK
6
CONTINUOUS
10
177.416
20
-123.384
11
177.364
21
-123.18
0
LINE
8
BLACK
6
CONTINUOUS
10
177.364
20
-123.18
11
177.35
21
-122.97
0
LINE
8
BLACK
6
CONTINUOUS
10
177.35
20
-122.97
11
177.375
21
-122.761
0
LINE
8
BLACK
6
CONTINUOUS
10
177.375
20
-122.761
11
177.438
21
-122.56
0
LINE
8
BLACK
6
CONTINUOUS
10
177.438
20
-122.56
11
177.536
21
-122.374
0
LINE
8
BLACK
6
CONTINUOUS
10
177.536
20
-122.374
11
177.666
21
-122.208
0
LINE
8
BLACK
6
CONTINUOUS
10
177.666
20
-122.208
11
177.824
21
-122.07
0
LINE
8
BLACK
6
CONTINUOUS
10
177.824
20
-122.07
11
178.005
21
-121.962
0
LINE
8
BLACK
6
CONTINUOUS
10
178.005
20
-121.962
11
178.202
21
-121.889
0
LINE
8
BLACK
6
CONTINUOUS
10
178.202
20
-121.889
11
178.41
21
-121.854
0
LINE
8
BLACK
6
CONTINUOUS
10
178.41
20
-121.854
11
178.62
21
-121.856
0
LINE
8
BLACK
6
CONTINUOUS
10
127.12
20
-107.856
11
127.327
21
-107.897
0
LINE
8
BLACK
6
CONTINUOUS
10
127.327
20
-107.897
11
127.522
21
-107.975
0
LINE
8
BLACK
6
CONTINUOUS
10
127.522
20
-107.975
11
127.7
21
-108.088
0
LINE
8
BLACK
6
CONTINUOUS
10
127.7
20
-108.088
11
127.855
21
-108.23
0
LINE
8
BLACK
6
CONTINUOUS
10
127.855
20
-108.23
11
127.981
21
-108.399
0
LINE
8
BLACK
6
CONTINUOUS
10
127.981
20
-108.399
11
128.074
21
-108.588
0
LINE
8
BLACK
6
CONTINUOUS
10
128.074
20
-108.588
11
128.131
21
-108.79
0
LINE
8
BLACK
6
CONTINUOUS
10
128.131
20
-108.79
11
128.15
21
-109
0
LINE
8
BLACK
6
CONTINUOUS
10
128.15
20
-109
11
128.148
21
-109.06
0
LINE
8
BLACK
6
CONTINUOUS
10
128.148
20
-109.06
11
128.118
21
-109.268
0
LINE
8
BLACK
6
CONTINUOUS
10
128.118
20
-109.268
11
128.051
21
-109.468
0
LINE
8
BLACK
6
CONTINUOUS
10
128.051
20
-109.468
11
127.948
21
-109.651
0
LINE
8
BLACK
6
CONTINUOUS
10
127.948
20
-109.651
11
127.813
21
-109.813
0
LINE
8
BLACK
6
CONTINUOUS
10
127.813
20
-109.813
11
127.651
21
-109.948
0
LINE
8
BLACK
6
CONTINUOUS
10
127.651
20
-109.948
11
127.468
21
-110.051
0
LINE
8
BLACK
6
CONTINUOUS
10
127.468
20
-110.051
11
127.268
21
-110.118
0
LINE
8
BLACK
6
CONTINUOUS
10
127.268
20
-110.118
11
127.06
21
-110.148
0
LINE
8
BLACK
6
CONTINUOUS
10
127.06
20
-110.148
11
126.85
21
-110.14
0
LINE
8
BLACK
6
CONTINUOUS
10
126.85
20
-110.14
11
126.645
21
-110.094
0
LINE
8
BLACK
6
CONTINUOUS
10
126.645
20
-110.094
11
126.451
21
-110.011
0
LINE
8
BLACK
6
CONTINUOUS
10
126.451
20
-110.011
11
126.276
21
-109.894
0
LINE
8
BLACK
6
CONTINUOUS
10
126.276
20
-109.894
11
126.126
21
-109.747
0
LINE
8
BLACK
6
CONTINUOUS
10
126.126
20
-109.747
11
126.004
21
-109.575
0
LINE
8
BLACK
6
CONTINUOUS
10
126.004
20
-109.575
11
125.916
21
-109.384
0
LINE
8
BLACK
6
CONTINUOUS
10
125.916
20
-109.384
11
125.864
21
-109.18
0
LINE
8
BLACK
6
CONTINUOUS
10
125.864
20
-109.18
11
125.85
21
-108.97
0
LINE
8
BLACK
6
CONTINUOUS
10
125.85
20
-108.97
11
125.875
21
-108.761
0
LINE
8
BLACK
6
CONTINUOUS
10
125.875
20
-108.761
11
125.938
21
-108.56
0
LINE
8
BLACK
6
CONTINUOUS
10
125.938
20
-108.56
11
126.036
21
-108.374
0
LINE
8
BLACK
6
CONTINUOUS
10
126.036
20
-108.374
11
126.166
21
-108.208
0
LINE
8
BLACK
6
CONTINUOUS
10
126.166
20
-108.208
11
126.324
21
-108.07
0
LINE
8
BLACK
6
CONTINUOUS
10
126.324
20
-108.07
11
126.505
21
-107.962
0
LINE
8
BLACK
6
CONTINUOUS
10
126.505
20
-107.962
11
126.702
21
-107.889
0
LINE
8
BLACK
6
CONTINUOUS
10
126.702
20
-107.889
11
126.91
21
-107.854
0
LINE
8
BLACK
6
CONTINUOUS
10
126.91
20
-107.854
11
127.12
21
-107.856
0
LINE
8
BLACK
6
CONTINUOUS
10
87.6202
20
-92.3563
11
87.8266
21
-92.3974
0
LINE
8
BLACK
6
CONTINUOUS
10
87.8266
20
-92.3974
11
88.0221
21
-92.4753
0
LINE
8
BLACK
6
CONTINUOUS
10
88.0221
20
-92.4753
11
88.2001
21
-92.5876
0
LINE
8
BLACK
6
CONTINUOUS
10
88.2001
20
-92.5876
11
88.3546
21
-92.7305
0
LINE
8
BLACK
6
CONTINUOUS
10
88.3546
20
-92.7305
11
88.4805
21
-92.8991
0
LINE
8
BLACK
6
CONTINUOUS
10
88.4805
20
-92.8991
11
88.5736
21
-93.0879
0
LINE
8
BLACK
6
CONTINUOUS
10
88.5736
20
-93.0879
11
88.6307
21
-93.2904
0
LINE
8
BLACK
6
CONTINUOUS
10
88.6307
20
-93.2904
11
88.65
21
-93.5
0
LINE
8
BLACK
6
CONTINUOUS
10
88.65
20
-93.5
11
88.6484
21
-93.5602
0
LINE
8
BLACK
6
CONTINUOUS
10
88.6484
20
-93.5602
11
88.6182
21
-93.7685
0
LINE
8
BLACK
6
CONTINUOUS
10
88.6182
20
-93.7685
11
88.5506
21
-93.9677
0
LINE
8
BLACK
6
CONTINUOUS
10
88.5506
20
-93.9677
11
88.4477
21
-94.1514
0
LINE
8
BLACK
6
CONTINUOUS
10
88.4477
20
-94.1514
11
88.3132
21
-94.3132
0
LINE
8
BLACK
6
CONTINUOUS
10
88.3132
20
-94.3132
11
88.1514
21
-94.4477
0
LINE
8
BLACK
6
CONTINUOUS
10
88.1514
20
-94.4477
11
87.9677
21
-94.5506
0
LINE
8
BLACK
6
CONTINUOUS
10
87.9677
20
-94.5506
11
87.7685
21
-94.6182
0
LINE
8
BLACK
6
CONTINUOUS
10
87.7685
20
-94.6182
11
87.5602
21
-94.6484
0
LINE
8
BLACK
6
CONTINUOUS
10
87.5602
20
-94.6484
11
87.3499
21
-94.6402
0
LINE
8
BLACK
6
CONTINUOUS
10
87.3499
20
-94.6402
11
87.1446
21
-94.5937
0
LINE
8
BLACK
6
CONTINUOUS
10
87.1446
20
-94.5937
11
86.9513
21
-94.5106
0
LINE
8
BLACK
6
CONTINUOUS
10
86.9513
20
-94.5106
11
86.7763
21
-94.3937
0
LINE
8
BLACK
6
CONTINUOUS
10
86.7763
20
-94.3937
11
86.6255
21
-94.2469
0
LINE
8
BLACK
6
CONTINUOUS
10
86.6255
20
-94.2469
11
86.5041
21
-94.075
0
LINE
8
BLACK
6
CONTINUOUS
10
86.5041
20
-94.075
11
86.416
21
-93.8839
0
LINE
8
BLACK
6
CONTINUOUS
10
86.416
20
-93.8839
11
86.3642
21
-93.6799
0
LINE
8
BLACK
6
CONTINUOUS
10
86.3642
20
-93.6799
11
86.3504
21
-93.4699
0
LINE
8
BLACK
6
CONTINUOUS
10
86.3504
20
-93.4699
11
86.3751
21
-93.2609
0
LINE
8
BLACK
6
CONTINUOUS
10
86.3751
20
-93.2609
11
86.4375
21
-93.0599
0
LINE
8
BLACK
6
CONTINUOUS
10
86.4375
20
-93.0599
11
86.5355
21
-92.8737
0
LINE
8
BLACK
6
CONTINUOUS
10
86.5355
20
-92.8737
11
86.6658
21
-92.7084
0
LINE
8
BLACK
6
CONTINUOUS
10
86.6658
20
-92.7084
11
86.824
21
-92.5696
0
LINE
8
BLACK
6
CONTINUOUS
10
86.824
20
-92.5696
11
87.0049
21
-92.462
0
LINE
8
BLACK
6
CONTINUOUS
10
87.0049
20
-92.462
11
87.2024
21
-92.3892
0
LINE
8
BLACK
6
CONTINUOUS
10
87.2024
20
-92.3892
11
87.4098
21
-92.3535
0
LINE
8
BLACK
6
CONTINUOUS
10
87.4098
20
-92.3535
11
87.6202
21
-92.3563
0
LINE
8
BLACK
6
CONTINUOUS
10
165.12
20
-75.8563
11
165.327
21
-75.8974
0
LINE
8
BLACK
6
CONTINUOUS
10
165.327
20
-75.8974
11
165.522
21
-75.9753
0
LINE
8
BLACK
6
CONTINUOUS
10
165.522
20
-75.9753
11
165.7
21
-76.0876
0
LINE
8
BLACK
6
CONTINUOUS
10
165.7
20
-76.0876
11
165.855
21
-76.2305
0
LINE
8
BLACK
6
CONTINUOUS
10
165.855
20
-76.2305
11
165.981
21
-76.3991
0
LINE
8
BLACK
6
CONTINUOUS
10
165.981
20
-76.3991
11
166.074
21
-76.5879
0
LINE
8
BLACK
6
CONTINUOUS
10
166.074
20
-76.5879
11
166.131
21
-76.7904
0
LINE
8
BLACK
6
CONTINUOUS
10
166.131
20
-76.7904
11
166.15
21
-77
0
LINE
8
BLACK
6
CONTINUOUS
10
166.15
20
-77
11
166.148
21
-77.0602
0
LINE
8
BLACK
6
CONTINUOUS
10
166.148
20
-77.0602
11
166.118
21
-77.2685
0
LINE
8
BLACK
6
CONTINUOUS
10
166.118
20
-77.2685
11
166.051
21
-77.4677
0
LINE
8
BLACK
6
CONTINUOUS
10
166.051
20
-77.4677
11
165.948
21
-77.6514
0
LINE
8
BLACK
6
CONTINUOUS
10
165.948
20
-77.6514
11
165.813
21
-77.8132
0
LINE
8
BLACK
6
CONTINUOUS
10
165.813
20
-77.8132
11
165.651
21
-77.9477
0
LINE
8
BLACK
6
CONTINUOUS
10
165.651
20
-77.9477
11
165.468
21
-78.0506
0
LINE
8
BLACK
6
CONTINUOUS
10
165.468
20
-78.0506
11
165.268
21
-78.1182
0
LINE
8
BLACK
6
CONTINUOUS
10
165.268
20
-78.1182
11
165.06
21
-78.1484
0
LINE
8
BLACK
6
CONTINUOUS
10
165.06
20
-78.1484
11
164.85
21
-78.1402
0
LINE
8
BLACK
6
CONTINUOUS
10
164.85
20
-78.1402
11
164.645
21
-78.0937
0
LINE
8
BLACK
6
CONTINUOUS
10
164.645
20
-78.0937
11
164.451
21
-78.0106
0
LINE
8
BLACK
6
CONTINUOUS
10
164.451
20
-78.0106
11
164.276
21
-77.8937
0
LINE
8
BLACK
6
CONTINUOUS
10
164.276
20
-77.8937
11
164.126
21
-77.7469
0
LINE
8
BLACK
6
CONTINUOUS
10
164.126
20
-77.7469
11
164.004
21
-77.575
0
LINE
8
BLACK
6
CONTINUOUS
10
164.004
20
-77.575
11
163.916
21
-77.3839
0
LINE
8
BLACK
6
CONTINUOUS
10
163.916
20
-77.3839
11
163.864
21
-77.1799
0
LINE
8
BLACK
6
CONTINUOUS
10
163.864
20
-77.1799
11
163.85
21
-76.9699
0
LINE
8
BLACK
6
CONTINUOUS
10
163.85
20
-76.9699
11
163.875
21
-76.7609
0
LINE
8
BLACK
6
CONTINUOUS
10
163.875
20
-76.7609
11
163.938
21
-76.5599
0
LINE
8
BLACK
6
CONTINUOUS
10
163.938
20
-76.5599
11
164.036
21
-76.3737
0
LINE
8
BLACK
6
CONTINUOUS
10
164.036
20
-76.3737
11
164.166
21
-76.2084
0
LINE
8
BLACK
6
CONTINUOUS
10
164.166
20
-76.2084
11
164.324
21
-76.0696
0
LINE
8
BLACK
6
CONTINUOUS
10
164.324
20
-76.0696
11
164.505
21
-75.962
0
LINE
8
BLACK
6
CONTINUOUS
10
164.505
20
-75.962
11
164.702
21
-75.8892
0
LINE
8
BLACK
6
CONTINUOUS
10
164.702
20
-75.8892
11
164.91
21
-75.8535
0
LINE
8
BLACK
6
CONTINUOUS
10
164.91
20
-75.8535
11
165.12
21
-75.8563
0
LINE
8
BLACK
6
CONTINUOUS
10
107.62
20
-73.3563
11
107.827
21
-73.3974
0
LINE
8
BLACK
6
CONTINUOUS
10
107.827
20
-73.3974
11
108.022
21
-73.4753
0
LINE
8
BLACK
6
CONTINUOUS
10
108.022
20
-73.4753
11
108.2
21
-73.5876
0
LINE
8
BLACK
6
CONTINUOUS
10
108.2
20
-73.5876
11
108.355
21
-73.7305
0
LINE
8
BLACK
6
CONTINUOUS
10
108.355
20
-73.7305
11
108.481
21
-73.8991
0
LINE
8
BLACK
6
CONTINUOUS
10
108.481
20
-73.8991
11
108.574
21
-74.0879
0
LINE
8
BLACK
6
CONTINUOUS
10
108.574
20
-74.0879
11
108.631
21
-74.2904
0
LINE
8
BLACK
6
CONTINUOUS
10
108.631
20
-74.2904
11
108.65
21
-74.5
0
LINE
8
BLACK
6
CONTINUOUS
10
108.65
20
-74.5
11
108.648
21
-74.5602
0
LINE
8
BLACK
6
CONTINUOUS
10
108.648
20
-74.5602
11
108.618
21
-74.7685
0
LINE
8
BLACK
6
CONTINUOUS
10
108.618
20
-74.7685
11
108.551
21
-74.9677
0
LINE
8
BLACK
6
CONTINUOUS
10
108.551
20
-74.9677
11
108.448
21
-75.1514
0
LINE
8
BLACK
6
CONTINUOUS
10
108.448
20
-75.1514
11
108.313
21
-75.3132
0
LINE
8
BLACK
6
CONTINUOUS
10
108.313
20
-75.3132
11
108.151
21
-75.4477
0
LINE
8
BLACK
6
CONTINUOUS
10
108.151
20
-75.4477
11
107.968
21
-75.5506
0
LINE
8
BLACK
6
CONTINUOUS
10
107.968
20
-75.5506
11
107.768
21
-75.6182
0
LINE
8
BLACK
6
CONTINUOUS
10
107.768
20
-75.6182
11
107.56
21
-75.6484
0
LINE
8
BLACK
6
CONTINUOUS
10
107.56
20
-75.6484
11
107.35
21
-75.6402
0
LINE
8
BLACK
6
CONTINUOUS
10
107.35
20
-75.6402
11
107.145
21
-75.5937
0
LINE
8
BLACK
6
CONTINUOUS
10
107.145
20
-75.5937
11
106.951
21
-75.5106
0
LINE
8
BLACK
6
CONTINUOUS
10
106.951
20
-75.5106
11
106.776
21
-75.3937
0
LINE
8
BLACK
6
CONTINUOUS
10
106.776
20
-75.3937
11
106.626
21
-75.2469
0
LINE
8
BLACK
6
CONTINUOUS
10
106.626
20
-75.2469
11
106.504
21
-75.075
0
LINE
8
BLACK
6
CONTINUOUS
10
106.504
20
-75.075
11
106.416
21
-74.8839
0
LINE
8
BLACK
6
CONTINUOUS
10
106.416
20
-74.8839
11
106.364
21
-74.6799
0
LINE
8
BLACK
6
CONTINUOUS
10
106.364
20
-74.6799
11
106.35
21
-74.4699
0
LINE
8
BLACK
6
CONTINUOUS
10
106.35
20
-74.4699
11
106.375
21
-74.2609
0
LINE
8
BLACK
6
CONTINUOUS
10
106.375
20
-74.2609
11
106.438
21
-74.0599
0
LINE
8
BLACK
6
CONTINUOUS
10
106.438
20
-74.0599
11
106.536
21
-73.8737
0
LINE
8
BLACK
6
CONTINUOUS
10
106.536
20
-73.8737
11
106.666
21
-73.7084
0
LINE
8
BLACK
6
CONTINUOUS
10
106.666
20
-73.7084
11
106.824
21
-73.5696
0
LINE
8
BLACK
6
CONTINUOUS
10
106.824
20
-73.5696
11
107.005
21
-73.462
0
LINE
8
BLACK
6
CONTINUOUS
10
107.005
20
-73.462
11
107.202
21
-73.3892
0
LINE
8
BLACK
6
CONTINUOUS
10
107.202
20
-73.3892
11
107.41
21
-73.3535
0
LINE
8
BLACK
6
CONTINUOUS
10
107.41
20
-73.3535
11
107.62
21
-73.3563
0
LINE
8
BLACK
6
CONTINUOUS
10
162.937
20
-55.0128
11
163.144
21
-55.0901
0
LINE
8
BLACK
6
CONTINUOUS
10
163.144
20
-55.0901
11
163.338
21
-55.1961
0
LINE
8
BLACK
6
CONTINUOUS
10
163.338
20
-55.1961
11
163.515
21
-55.3286
0
LINE
8
BLACK
6
CONTINUOUS
10
163.515
20
-55.3286
11
163.671
21
-55.485
0
LINE
8
BLACK
6
CONTINUOUS
10
163.671
20
-55.485
11
163.804
21
-55.662
0
LINE
8
BLACK
6
CONTINUOUS
10
163.804
20
-55.662
11
163.91
21
-55.8561
0
LINE
8
BLACK
6
CONTINUOUS
10
163.91
20
-55.8561
11
163.987
21
-56.0633
0
LINE
8
BLACK
6
CONTINUOUS
10
163.987
20
-56.0633
11
164.034
21
-56.2794
0
LINE
8
BLACK
6
CONTINUOUS
10
164.034
20
-56.2794
11
164.05
21
-56.5
0
LINE
8
BLACK
6
CONTINUOUS
10
164.05
20
-56.5
11
164.046
21
-56.5091
0
LINE
8
BLACK
6
CONTINUOUS
10
164.046
20
-56.5091
11
164.063
21
-56.7275
0
LINE
8
BLACK
6
CONTINUOUS
10
164.063
20
-56.7275
11
164.117
21
-56.9495
0
LINE
8
BLACK
6
CONTINUOUS
10
164.117
20
-56.9495
11
164.204
21
-57.1603
0
LINE
8
BLACK
6
CONTINUOUS
10
164.204
20
-57.1603
11
164.323
21
-57.3549
0
LINE
8
BLACK
6
CONTINUOUS
10
164.323
20
-57.3549
11
164.472
21
-57.5285
0
LINE
8
BLACK
6
CONTINUOUS
10
164.472
20
-57.5285
11
164.645
21
-57.6767
0
LINE
8
BLACK
6
CONTINUOUS
10
164.645
20
-57.6767
11
164.84
21
-57.796
0
LINE
8
BLACK
6
CONTINUOUS
10
164.84
20
-57.796
11
165.051
21
-57.8833
0
LINE
8
BLACK
6
CONTINUOUS
10
165.051
20
-57.8833
11
165.272
21
-57.9366
0
LINE
8
BLACK
6
CONTINUOUS
10
165.272
20
-57.9366
11
165.491
21
-57.9538
0
LINE
8
BLACK
6
CONTINUOUS
10
165.491
20
-57.9538
11
165.5
21
-57.95
0
LINE
8
BLACK
6
CONTINUOUS
10
165.5
20
-57.95
11
182.25
21
-57.95
0
LINE
8
BLACK
6
CONTINUOUS
10
182.25
20
-57.95
11
182.406
21
-57.9654
0
LINE
8
BLACK
6
CONTINUOUS
10
182.406
20
-57.9654
11
182.556
21
-58.0109
0
LINE
8
BLACK
6
CONTINUOUS
10
182.556
20
-58.0109
11
182.694
21
-58.0848
0
LINE
8
BLACK
6
CONTINUOUS
10
182.694
20
-58.0848
11
182.816
21
-58.1843
0
LINE
8
BLACK
6
CONTINUOUS
10
182.816
20
-58.1843
11
182.915
21
-58.3055
0
LINE
8
BLACK
6
CONTINUOUS
10
182.915
20
-58.3055
11
182.989
21
-58.4439
0
LINE
8
BLACK
6
CONTINUOUS
10
182.989
20
-58.4439
11
183.035
21
-58.5939
0
LINE
8
BLACK
6
CONTINUOUS
10
183.035
20
-58.5939
11
183.05
21
-58.75
0
LINE
8
BLACK
6
CONTINUOUS
10
183.05
20
-58.75
11
183.05
21
-89.4499
0
LINE
8
BLACK
6
CONTINUOUS
10
183.05
20
-89.4499
11
183.077
21
-108.6
0
LINE
8
BLACK
6
CONTINUOUS
10
183.077
20
-108.6
11
183.077
21
-108.6
0
LINE
8
BLACK
6
CONTINUOUS
10
183.077
20
-108.6
11
183.077
21
-108.6
0
LINE
8
BLACK
6
CONTINUOUS
10
183.077
20
-108.6
11
183.073
21
-108.609
0
LINE
8
BLACK
6
CONTINUOUS
10
183.073
20
-108.609
11
183.089
21
-108.904
0
LINE
8
BLACK
6
CONTINUOUS
10
183.089
20
-108.904
11
183.136
21
-109.205
0
LINE
8
BLACK
6
CONTINUOUS
10
183.136
20
-109.205
11
183.214
21
-109.5
0
LINE
8
BLACK
6
CONTINUOUS
10
183.214
20
-109.5
11
183.323
21
-109.784
0
LINE
8
BLACK
6
CONTINUOUS
10
183.323
20
-109.784
11
183.461
21
-110.056
0
LINE
8
BLACK
6
CONTINUOUS
10
183.461
20
-110.056
11
183.626
21
-110.312
0
LINE
8
BLACK
6
CONTINUOUS
10
183.626
20
-110.312
11
183.816
21
-110.55
0
LINE
8
BLACK
6
CONTINUOUS
10
183.816
20
-110.55
11
184.021
21
-110.756
0
LINE
8
BLACK
6
CONTINUOUS
10
184.021
20
-110.756
11
184.024
21
-110.756
0
LINE
8
BLACK
6
CONTINUOUS
10
184.024
20
-110.756
11
202.274
21
-120.956
0
LINE
8
BLACK
6
CONTINUOUS
10
202.274
20
-120.956
11
202.277
21
-120.96
0
LINE
8
BLACK
6
CONTINUOUS
10
202.277
20
-120.96
11
202.281
21
-120.961
0
LINE
8
BLACK
6
CONTINUOUS
10
202.281
20
-120.961
11
202.281
21
-120.961
0
LINE
8
BLACK
6
CONTINUOUS
10
202.281
20
-120.961
11
202.449
21
-121.115
0
LINE
8
BLACK
6
CONTINUOUS
10
202.449
20
-121.115
11
202.593
21
-121.291
0
LINE
8
BLACK
6
CONTINUOUS
10
202.593
20
-121.291
11
202.712
21
-121.484
0
LINE
8
BLACK
6
CONTINUOUS
10
202.712
20
-121.484
11
202.803
21
-121.693
0
LINE
8
BLACK
6
CONTINUOUS
10
202.803
20
-121.693
11
202.864
21
-121.912
0
LINE
8
BLACK
6
CONTINUOUS
10
202.864
20
-121.912
11
202.894
21
-122.138
0
LINE
8
BLACK
6
CONTINUOUS
10
202.894
20
-122.138
11
202.893
21
-122.365
0
LINE
8
BLACK
6
CONTINUOUS
10
202.893
20
-122.365
11
202.861
21
-122.59
0
LINE
8
BLACK
6
CONTINUOUS
10
202.861
20
-122.59
11
202.797
21
-122.809
0
LINE
8
BLACK
6
CONTINUOUS
10
202.797
20
-122.809
11
202.797
21
-122.809
0
LINE
8
BLACK
6
CONTINUOUS
10
202.797
20
-122.809
11
202.794
21
-122.812
0
LINE
8
BLACK
6
CONTINUOUS
10
202.794
20
-122.812
11
202.793
21
-122.816
0
LINE
8
BLACK
6
CONTINUOUS
10
202.793
20
-122.816
11
190.543
21
-144.025
0
LINE
8
BLACK
6
CONTINUOUS
10
190.543
20
-144.025
11
190.538
21
-144.029
0
LINE
8
BLACK
6
CONTINUOUS
10
190.538
20
-144.029
11
190.535
21
-144.035
0
LINE
8
BLACK
6
CONTINUOUS
10
190.535
20
-144.035
11
190.257
21
-144.29
0
LINE
8
BLACK
6
CONTINUOUS
10
190.257
20
-144.29
11
189.958
21
-144.519
0
LINE
8
BLACK
6
CONTINUOUS
10
189.958
20
-144.519
11
189.64
21
-144.721
0
LINE
8
BLACK
6
CONTINUOUS
10
189.64
20
-144.721
11
189.305
21
-144.895
0
LINE
8
BLACK
6
CONTINUOUS
10
189.305
20
-144.895
11
188.956
21
-145.038
0
LINE
8
BLACK
6
CONTINUOUS
10
188.956
20
-145.038
11
188.596
21
-145.15
0
LINE
8
BLACK
6
CONTINUOUS
10
188.596
20
-145.15
11
188.228
21
-145.23
0
LINE
8
BLACK
6
CONTINUOUS
10
188.228
20
-145.23
11
187.854
21
-145.278
0
LINE
8
BLACK
6
CONTINUOUS
10
187.854
20
-145.278
11
187.477
21
-145.293
0
LINE
8
BLACK
6
CONTINUOUS
10
187.477
20
-145.293
11
187.101
21
-145.274
0
LINE
8
BLACK
6
CONTINUOUS
10
187.101
20
-145.274
11
186.727
21
-145.223
0
LINE
8
BLACK
6
CONTINUOUS
10
186.727
20
-145.223
11
186.36
21
-145.138
0
LINE
8
BLACK
6
CONTINUOUS
10
186.36
20
-145.138
11
186.001
21
-145.022
0
LINE
8
BLACK
6
CONTINUOUS
10
186.001
20
-145.022
11
185.654
21
-144.875
0
LINE
8
BLACK
6
CONTINUOUS
10
185.654
20
-144.875
11
185.321
21
-144.699
0
LINE
8
BLACK
6
CONTINUOUS
10
185.321
20
-144.699
11
185.009
21
-144.496
0
LINE
8
BLACK
6
CONTINUOUS
10
185.009
20
-144.496
11
172.481
21
-137.547
0
LINE
8
BLACK
6
CONTINUOUS
10
172.481
20
-137.547
11
153.993
21
-132.55
0
LINE
8
BLACK
6
CONTINUOUS
10
153.993
20
-132.55
11
135
21
-132.55
0
LINE
8
BLACK
6
CONTINUOUS
10
135
20
-132.55
11
134.991
21
-132.546
0
LINE
8
BLACK
6
CONTINUOUS
10
134.991
20
-132.546
11
134.98
21
-132.546
0
LINE
8
BLACK
6
CONTINUOUS
10
134.98
20
-132.546
11
106.99
21
-120.55
0
LINE
8
BLACK
6
CONTINUOUS
10
106.99
20
-120.55
11
89.5
21
-120.55
0
LINE
8
BLACK
6
CONTINUOUS
10
89.5
20
-120.55
11
89.2794
21
-120.534
0
LINE
8
BLACK
6
CONTINUOUS
10
89.2794
20
-120.534
11
89.0633
21
-120.487
0
LINE
8
BLACK
6
CONTINUOUS
10
89.0633
20
-120.487
11
88.8561
21
-120.41
0
LINE
8
BLACK
6
CONTINUOUS
10
88.8561
20
-120.41
11
88.662
21
-120.304
0
LINE
8
BLACK
6
CONTINUOUS
10
88.662
20
-120.304
11
88.485
21
-120.171
0
LINE
8
BLACK
6
CONTINUOUS
10
88.485
20
-120.171
11
88.3286
21
-120.015
0
LINE
8
BLACK
6
CONTINUOUS
10
88.3286
20
-120.015
11
88.1961
21
-119.838
0
LINE
8
BLACK
6
CONTINUOUS
10
88.1961
20
-119.838
11
88.0901
21
-119.644
0
LINE
8
BLACK
6
CONTINUOUS
10
88.0901
20
-119.644
11
88.0128
21
-119.437
0
LINE
8
BLACK
6
CONTINUOUS
10
88.0128
20
-119.437
11
87.9658
21
-119.221
0
LINE
8
BLACK
6
CONTINUOUS
10
87.9658
20
-119.221
11
87.95
21
-119
0
LINE
8
BLACK
6
CONTINUOUS
10
87.95
20
-119
11
87.95
21
-114
0
LINE
8
BLACK
6
CONTINUOUS
10
87.95
20
-114
11
87.9538
21
-113.991
0
LINE
8
BLACK
6
CONTINUOUS
10
87.9538
20
-113.991
11
87.9366
21
-113.772
0
LINE
8
BLACK
6
CONTINUOUS
10
87.9366
20
-113.772
11
87.8833
21
-113.551
0
LINE
8
BLACK
6
CONTINUOUS
10
87.8833
20
-113.551
11
87.796
21
-113.34
0
LINE
8
BLACK
6
CONTINUOUS
10
87.796
20
-113.34
11
87.6767
21
-113.145
0
LINE
8
BLACK
6
CONTINUOUS
10
87.6767
20
-113.145
11
87.5285
21
-112.972
0
LINE
8
BLACK
6
CONTINUOUS
10
87.5285
20
-112.972
11
87.3549
21
-112.823
0
LINE
8
BLACK
6
CONTINUOUS
10
87.3549
20
-112.823
11
87.1603
21
-112.704
0
LINE
8
BLACK
6
CONTINUOUS
10
87.1603
20
-112.704
11
86.9495
21
-112.617
0
LINE
8
BLACK
6
CONTINUOUS
10
86.9495
20
-112.617
11
86.7275
21
-112.563
0
LINE
8
BLACK
6
CONTINUOUS
10
86.7275
20
-112.563
11
86.5091
21
-112.546
0
LINE
8
BLACK
6
CONTINUOUS
10
86.5091
20
-112.546
11
86.5
21
-112.55
0
LINE
8
BLACK
6
CONTINUOUS
10
86.5
20
-112.55
11
70
21
-112.55
0
LINE
8
BLACK
6
CONTINUOUS
10
70
20
-112.55
11
69.7794
21
-112.534
0
LINE
8
BLACK
6
CONTINUOUS
10
69.7794
20
-112.534
11
69.5633
21
-112.487
0
LINE
8
BLACK
6
CONTINUOUS
10
69.5633
20
-112.487
11
69.3561
21
-112.41
0
LINE
8
BLACK
6
CONTINUOUS
10
69.3561
20
-112.41
11
69.162
21
-112.304
0
LINE
8
BLACK
6
CONTINUOUS
10
69.162
20
-112.304
11
68.985
21
-112.171
0
LINE
8
BLACK
6
CONTINUOUS
10
68.985
20
-112.171
11
68.8286
21
-112.015
0
LINE
8
BLACK
6
CONTINUOUS
10
68.8286
20
-112.015
11
68.6961
21
-111.838
0
LINE
8
BLACK
6
CONTINUOUS
10
68.6961
20
-111.838
11
68.5901
21
-111.644
0
LINE
8
BLACK
6
CONTINUOUS
10
68.5901
20
-111.644
11
68.5128
21
-111.437
0
LINE
8
BLACK
6
CONTINUOUS
10
68.5128
20
-111.437
11
68.4658
21
-111.221
0
LINE
8
BLACK
6
CONTINUOUS
10
68.4658
20
-111.221
11
68.45
21
-111
0
LINE
8
BLACK
6
CONTINUOUS
10
68.45
20
-111
11
68.45
21
-76
0
LINE
8
BLACK
6
CONTINUOUS
10
68.45
20
-76
11
68.4658
21
-75.7794
0
LINE
8
BLACK
6
CONTINUOUS
10
68.4658
20
-75.7794
11
68.5128
21
-75.5633
0
LINE
8
BLACK
6
CONTINUOUS
10
68.5128
20
-75.5633
11
68.5901
21
-75.3561
0
LINE
8
BLACK
6
CONTINUOUS
10
68.5901
20
-75.3561
11
68.6961
21
-75.162
0
LINE
8
BLACK
6
CONTINUOUS
10
68.6961
20
-75.162
11
68.8286
21
-74.985
0
LINE
8
BLACK
6
CONTINUOUS
10
68.8286
20
-74.985
11
68.985
21
-74.8286
0
LINE
8
BLACK
6
CONTINUOUS
10
68.985
20
-74.8286
11
69.162
21
-74.6961
0
LINE
8
BLACK
6
CONTINUOUS
10
69.162
20
-74.6961
11
69.3561
21
-74.5901
0
LINE
8
BLACK
6
CONTINUOUS
10
69.3561
20
-74.5901
11
69.5633
21
-74.5128
0
LINE
8
BLACK
6
CONTINUOUS
10
69.5633
20
-74.5128
11
69.7794
21
-74.4658
0
LINE
8
BLACK
6
CONTINUOUS
10
69.7794
20
-74.4658
11
70
21
-74.45
0
LINE
8
BLACK
6
CONTINUOUS
10
70
20
-74.45
11
86
21
-74.45
0
LINE
8
BLACK
6
CONTINUOUS
10
86
20
-74.45
11
86.0091
21
-74.4538
0
LINE
8
BLACK
6
CONTINUOUS
10
86.0091
20
-74.4538
11
86.2275
21
-74.4366
0
LINE
8
BLACK
6
CONTINUOUS
10
86.2275
20
-74.4366
11
86.4495
21
-74.3833
0
LINE
8
BLACK
6
CONTINUOUS
10
86.4495
20
-74.3833
11
86.6603
21
-74.296
0
LINE
8
BLACK
6
CONTINUOUS
10
86.6603
20
-74.296
11
86.8549
21
-74.1767
0
LINE
8
BLACK
6
CONTINUOUS
10
86.8549
20
-74.1767
11
87.0285
21
-74.0285
0
LINE
8
BLACK
6
CONTINUOUS
10
87.0285
20
-74.0285
11
87.1767
21
-73.8549
0
LINE
8
BLACK
6
CONTINUOUS
10
87.1767
20
-73.8549
11
87.296
21
-73.6603
0
LINE
8
BLACK
6
CONTINUOUS
10
87.296
20
-73.6603
11
87.3833
21
-73.4495
0
LINE
8
BLACK
6
CONTINUOUS
10
87.3833
20
-73.4495
11
87.4366
21
-73.2275
0
LINE
8
BLACK
6
CONTINUOUS
10
87.4366
20
-73.2275
11
87.4538
21
-73.0091
0
LINE
8
BLACK
6
CONTINUOUS
10
87.4538
20
-73.0091
11
87.45
21
-73
0
LINE
8
BLACK
6
CONTINUOUS
10
87.45
20
-73
11
87.45
21
-65
0
LINE
8
BLACK
6
CONTINUOUS
10
87.45
20
-65
11
87.4658
21
-64.7794
0
LINE
8
BLACK
6
CONTINUOUS
10
87.4658
20
-64.7794
11
87.5128
21
-64.5633
0
LINE
8
BLACK
6
CONTINUOUS
10
87.5128
20
-64.5633
11
87.5901
21
-64.3561
0
LINE
8
BLACK
6
CONTINUOUS
10
87.5901
20
-64.3561
11
87.6961
21
-64.162
0
LINE
8
BLACK
6
CONTINUOUS
10
87.6961
20
-64.162
11
87.8286
21
-63.985
0
LINE
8
BLACK
6
CONTINUOUS
10
87.8286
20
-63.985
11
87.985
21
-63.8286
0
LINE
8
BLACK
6
CONTINUOUS
10
87.985
20
-63.8286
11
88.162
21
-63.6961
0
LINE
8
BLACK
6
CONTINUOUS
10
88.162
20
-63.6961
11
88.3561
21
-63.5901
0
LINE
8
BLACK
6
CONTINUOUS
10
88.3561
20
-63.5901
11
88.5633
21
-63.5128
0
LINE
8
BLACK
6
CONTINUOUS
10
88.5633
20
-63.5128
11
88.7794
21
-63.4658
0
LINE
8
BLACK
6
CONTINUOUS
10
88.7794
20
-63.4658
11
89
21
-63.45
0
LINE
8
BLACK
6
CONTINUOUS
10
89
20
-63.45
11
105
21
-63.45
0
LINE
8
BLACK
6
CONTINUOUS
10
105
20
-63.45
11
105.009
21
-63.4538
0
LINE
8
BLACK
6
CONTINUOUS
10
105.009
20
-63.4538
11
105.228
21
-63.4366
0
LINE
8
BLACK
6
CONTINUOUS
10
105.228
20
-63.4366
11
105.449
21
-63.3833
0
LINE
8
BLACK
6
CONTINUOUS
10
105.449
20
-63.3833
11
105.66
21
-63.296
0
LINE
8
BLACK
6
CONTINUOUS
10
105.66
20
-63.296
11
105.855
21
-63.1767
0
LINE
8
BLACK
6
CONTINUOUS
10
105.855
20
-63.1767
11
106.028
21
-63.0285
0
LINE
8
BLACK
6
CONTINUOUS
10
106.028
20
-63.0285
11
106.177
21
-62.8549
0
LINE
8
BLACK
6
CONTINUOUS
10
106.177
20
-62.8549
11
106.296
21
-62.6603
0
LINE
8
BLACK
6
CONTINUOUS
10
106.296
20
-62.6603
11
106.383
21
-62.4495
0
LINE
8
BLACK
6
CONTINUOUS
10
106.383
20
-62.4495
11
106.437
21
-62.2275
0
LINE
8
BLACK
6
CONTINUOUS
10
106.437
20
-62.2275
11
106.454
21
-62.0091
0
LINE
8
BLACK
6
CONTINUOUS
10
106.454
20
-62.0091
11
106.45
21
-62
0
LINE
8
BLACK
6
CONTINUOUS
10
106.45
20
-62
11
106.45
21
-56.5
0
LINE
8
BLACK
6
CONTINUOUS
10
106.45
20
-56.5
11
106.466
21
-56.2794
0
LINE
8
BLACK
6
CONTINUOUS
10
106.466
20
-56.2794
11
106.513
21
-56.0633
0
LINE
8
BLACK
6
CONTINUOUS
10
106.513
20
-56.0633
11
106.59
21
-55.8561
0
LINE
8
BLACK
6
CONTINUOUS
10
106.59
20
-55.8561
11
106.696
21
-55.662
0
LINE
8
BLACK
6
CONTINUOUS
10
106.696
20
-55.662
11
106.829
21
-55.485
0
LINE
8
BLACK
6
CONTINUOUS
10
106.829
20
-55.485
11
106.985
21
-55.3286
0
LINE
8
BLACK
6
CONTINUOUS
10
106.985
20
-55.3286
11
107.162
21
-55.1961
0
LINE
8
BLACK
6
CONTINUOUS
10
107.162
20
-55.1961
11
107.356
21
-55.0901
0
LINE
8
BLACK
6
CONTINUOUS
10
107.356
20
-55.0901
11
107.563
21
-55.0128
0
LINE
8
BLACK
6
CONTINUOUS
10
107.563
20
-55.0128
11
107.779
21
-54.9658
0
LINE
8
BLACK
6
CONTINUOUS
10
107.779
20
-54.9658
11
108
21
-54.95
0
LINE
8
BLACK
6
CONTINUOUS
10
108
20
-54.95
11
124.5
21
-54.95
0
LINE
8
BLACK
6
CONTINUOUS
10
124.5
20
-54.95
11
124.509
21
-54.9538
0
LINE
8
BLACK
6
CONTINUOUS
10
124.509
20
-54.9538
11
124.728
21
-54.9366
0
LINE
8
BLACK
6
CONTINUOUS
10
124.728
20
-54.9366
11
124.949
21
-54.8833
0
LINE
8
BLACK
6
CONTINUOUS
10
124.949
20
-54.8833
11
125.16
21
-54.796
0
LINE
8
BLACK
6
CONTINUOUS
10
125.16
20
-54.796
11
125.355
21
-54.6767
0
LINE
8
BLACK
6
CONTINUOUS
10
125.355
20
-54.6767
11
125.528
21
-54.5285
0
LINE
8
BLACK
6
CONTINUOUS
10
125.528
20
-54.5285
11
125.677
21
-54.3549
0
LINE
8
BLACK
6
CONTINUOUS
10
125.677
20
-54.3549
11
125.796
21
-54.1603
0
LINE
8
BLACK
6
CONTINUOUS
10
125.796
20
-54.1603
11
125.883
21
-53.9495
0
LINE
8
BLACK
6
CONTINUOUS
10
125.883
20
-53.9495
11
125.937
21
-53.7275
0
LINE
8
BLACK
6
CONTINUOUS
10
125.937
20
-53.7275
11
125.954
21
-53.5091
0
LINE
8
BLACK
6
CONTINUOUS
10
125.954
20
-53.5091
11
125.95
21
-53.5
0
LINE
8
BLACK
6
CONTINUOUS
10
125.95
20
-53.5
11
125.95
21
-53
0
LINE
8
BLACK
6
CONTINUOUS
10
125.95
20
-53
11
125.966
21
-52.7794
0
LINE
8
BLACK
6
CONTINUOUS
10
125.966
20
-52.7794
11
126.013
21
-52.5633
0
LINE
8
BLACK
6
CONTINUOUS
10
126.013
20
-52.5633
11
126.09
21
-52.3561
0
LINE
8
BLACK
6
CONTINUOUS
10
126.09
20
-52.3561
11
126.196
21
-52.162
0
LINE
8
BLACK
6
CONTINUOUS
10
126.196
20
-52.162
11
126.329
21
-51.985
0
LINE
8
BLACK
6
CONTINUOUS
10
126.329
20
-51.985
11
126.485
21
-51.8286
0
LINE
8
BLACK
6
CONTINUOUS
10
126.485
20
-51.8286
11
126.662
21
-51.6961
0
LINE
8
BLACK
6
CONTINUOUS
10
126.662
20
-51.6961
11
126.856
21
-51.5901
0
LINE
8
BLACK
6
CONTINUOUS
10
126.856
20
-51.5901
11
127.063
21
-51.5128
0
LINE
8
BLACK
6
CONTINUOUS
10
127.063
20
-51.5128
11
127.279
21
-51.4658
0
LINE
8
BLACK
6
CONTINUOUS
10
127.279
20
-51.4658
11
127.5
21
-51.45
0
LINE
8
BLACK
6
CONTINUOUS
10
127.5
20
-51.45
11
143.5
21
-51.45
0
LINE
8
BLACK
6
CONTINUOUS
10
143.5
20
-51.45
11
143.721
21
-51.4658
0
LINE
8
BLACK
6
CONTINUOUS
10
143.721
20
-51.4658
11
143.937
21
-51.5128
0
LINE
8
BLACK
6
CONTINUOUS
10
143.937
20
-51.5128
11
144.144
21
-51.5901
0
LINE
8
BLACK
6
CONTINUOUS
10
144.144
20
-51.5901
11
144.338
21
-51.6961
0
LINE
8
BLACK
6
CONTINUOUS
10
144.338
20
-51.6961
11
144.515
21
-51.8286
0
LINE
8
BLACK
6
CONTINUOUS
10
144.515
20
-51.8286
11
144.671
21
-51.985
0
LINE
8
BLACK
6
CONTINUOUS
10
144.671
20
-51.985
11
144.804
21
-52.162
0
LINE
8
BLACK
6
CONTINUOUS
10
144.804
20
-52.162
11
144.91
21
-52.3561
0
LINE
8
BLACK
6
CONTINUOUS
10
144.91
20
-52.3561
11
144.987
21
-52.5633
0
LINE
8
BLACK
6
CONTINUOUS
10
144.987
20
-52.5633
11
145.034
21
-52.7794
0
LINE
8
BLACK
6
CONTINUOUS
10
145.034
20
-52.7794
11
145.05
21
-53
0
LINE
8
BLACK
6
CONTINUOUS
10
145.05
20
-53
11
145.05
21
-53.5
0
LINE
8
BLACK
6
CONTINUOUS
10
145.05
20
-53.5
11
145.046
21
-53.5091
0
LINE
8
BLACK
6
CONTINUOUS
10
145.046
20
-53.5091
11
145.063
21
-53.7275
0
LINE
8
BLACK
6
CONTINUOUS
10
145.063
20
-53.7275
11
145.117
21
-53.9495
0
LINE
8
BLACK
6
CONTINUOUS
10
145.117
20
-53.9495
11
145.204
21
-54.1603
0
LINE
8
BLACK
6
CONTINUOUS
10
145.204
20
-54.1603
11
145.323
21
-54.3549
0
LINE
8
BLACK
6
CONTINUOUS
10
145.323
20
-54.3549
11
145.472
21
-54.5285
0
LINE
8
BLACK
6
CONTINUOUS
10
145.472
20
-54.5285
11
145.645
21
-54.6767
0
LINE
8
BLACK
6
CONTINUOUS
10
145.645
20
-54.6767
11
145.84
21
-54.796
0
LINE
8
BLACK
6
CONTINUOUS
10
145.84
20
-54.796
11
146.051
21
-54.8833
0
LINE
8
BLACK
6
CONTINUOUS
10
146.051
20
-54.8833
11
146.272
21
-54.9366
0
LINE
8
BLACK
6
CONTINUOUS
10
146.272
20
-54.9366
11
146.491
21
-54.9538
0
LINE
8
BLACK
6
CONTINUOUS
10
146.491
20
-54.9538
11
146.5
21
-54.95
0
LINE
8
BLACK
6
CONTINUOUS
10
146.5
20
-54.95
11
162.5
21
-54.95
0
LINE
8
BLACK
6
CONTINUOUS
10
162.5
20
-54.95
11
162.721
21
-54.9658
0
LINE
8
BLACK
6
CONTINUOUS
10
162.721
20
-54.9658
11
162.937
21
-55.0128
0
LINE
8
BLACK
6
CONTINUOUS
10
127.491
20
-51.5462
11
127.272
21
-51.5634
0
LINE
8
BLACK
6
CONTINUOUS
10
127.272
20
-51.5634
11
127.051
21
-51.6167
0
LINE
8
BLACK
6
CONTINUOUS
10
127.051
20
-51.6167
11
126.84
21
-51.704
0
LINE
8
BLACK
6
CONTINUOUS
10
126.84
20
-51.704
11
126.645
21
-51.8233
0
LINE
8
BLACK
6
CONTINUOUS
10
126.645
20
-51.8233
11
126.472
21
-51.9715
0
LINE
8
BLACK
6
CONTINUOUS
10
126.472
20
-51.9715
11
126.323
21
-52.1451
0
LINE
8
BLACK
6
CONTINUOUS
10
126.323
20
-52.1451
11
126.204
21
-52.3397
0
LINE
8
BLACK
6
CONTINUOUS
10
126.204
20
-52.3397
11
126.117
21
-52.5505
0
LINE
8
BLACK
6
CONTINUOUS
10
126.117
20
-52.5505
11
126.063
21
-52.7725
0
LINE
8
BLACK
6
CONTINUOUS
10
126.063
20
-52.7725
11
126.046
21
-52.9909
0
LINE
8
BLACK
6
CONTINUOUS
10
126.046
20
-52.9909
11
126.05
21
-53
0
LINE
8
BLACK
6
CONTINUOUS
10
126.05
20
-53
11
126.05
21
-53.5
0
LINE
8
BLACK
6
CONTINUOUS
10
126.05
20
-53.5
11
126.034
21
-53.7206
0
LINE
8
BLACK
6
CONTINUOUS
10
126.034
20
-53.7206
11
125.987
21
-53.9367
0
LINE
8
BLACK
6
CONTINUOUS
10
125.987
20
-53.9367
11
125.91
21
-54.1439
0
LINE
8
BLACK
6
CONTINUOUS
10
125.91
20
-54.1439
11
125.804
21
-54.338
0
LINE
8
BLACK
6
CONTINUOUS
10
125.804
20
-54.338
11
125.671
21
-54.515
0
LINE
8
BLACK
6
CONTINUOUS
10
125.671
20
-54.515
11
125.515
21
-54.6714
0
LINE
8
BLACK
6
CONTINUOUS
10
125.515
20
-54.6714
11
125.338
21
-54.8039
0
LINE
8
BLACK
6
CONTINUOUS
10
125.338
20
-54.8039
11
125.144
21
-54.9099
0
LINE
8
BLACK
6
CONTINUOUS
10
125.144
20
-54.9099
11
124.937
21
-54.9872
0
LINE
8
BLACK
6
CONTINUOUS
10
124.937
20
-54.9872
11
124.721
21
-55.0342
0
LINE
8
BLACK
6
CONTINUOUS
10
124.721
20
-55.0342
11
124.5
21
-55.05
0
LINE
8
BLACK
6
CONTINUOUS
10
124.5
20
-55.05
11
108
21
-55.05
0
LINE
8
BLACK
6
CONTINUOUS
10
108
20
-55.05
11
107.991
21
-55.0462
0
LINE
8
BLACK
6
CONTINUOUS
10
107.991
20
-55.0462
11
107.772
21
-55.0634
0
LINE
8
BLACK
6
CONTINUOUS
10
107.772
20
-55.0634
11
107.551
21
-55.1167
0
LINE
8
BLACK
6
CONTINUOUS
10
107.551
20
-55.1167
11
107.34
21
-55.204
0
LINE
8
BLACK
6
CONTINUOUS
10
107.34
20
-55.204
11
107.145
21
-55.3233
0
LINE
8
BLACK
6
CONTINUOUS
10
107.145
20
-55.3233
11
106.972
21
-55.4715
0
LINE
8
BLACK
6
CONTINUOUS
10
106.972
20
-55.4715
11
106.823
21
-55.6451
0
LINE
8
BLACK
6
CONTINUOUS
10
106.823
20
-55.6451
11
106.704
21
-55.8397
0
LINE
8
BLACK
6
CONTINUOUS
10
106.704
20
-55.8397
11
106.617
21
-56.0505
0
LINE
8
BLACK
6
CONTINUOUS
10
106.617
20
-56.0505
11
106.563
21
-56.2725
0
LINE
8
BLACK
6
CONTINUOUS
10
106.563
20
-56.2725
11
106.546
21
-56.4909
0
LINE
8
BLACK
6
CONTINUOUS
10
106.546
20
-56.4909
11
106.55
21
-56.5
0
LINE
8
BLACK
6
CONTINUOUS
10
106.55
20
-56.5
11
106.55
21
-62
0
LINE
8
BLACK
6
CONTINUOUS
10
106.55
20
-62
11
106.534
21
-62.2206
0
LINE
8
BLACK
6
CONTINUOUS
10
106.534
20
-62.2206
11
106.487
21
-62.4367
0
LINE
8
BLACK
6
CONTINUOUS
10
106.487
20
-62.4367
11
106.41
21
-62.6439
0
LINE
8
BLACK
6
CONTINUOUS
10
106.41
20
-62.6439
11
106.304
21
-62.838
0
LINE
8
BLACK
6
CONTINUOUS
10
106.304
20
-62.838
11
106.171
21
-63.015
0
LINE
8
BLACK
6
CONTINUOUS
10
106.171
20
-63.015
11
106.015
21
-63.1714
0
LINE
8
BLACK
6
CONTINUOUS
10
106.015
20
-63.1714
11
105.838
21
-63.3039
0
LINE
8
BLACK
6
CONTINUOUS
10
105.838
20
-63.3039
11
105.644
21
-63.4099
0
LINE
8
BLACK
6
CONTINUOUS
10
105.644
20
-63.4099
11
105.437
21
-63.4872
0
LINE
8
BLACK
6
CONTINUOUS
10
105.437
20
-63.4872
11
105.221
21
-63.5342
0
LINE
8
BLACK
6
CONTINUOUS
10
105.221
20
-63.5342
11
105
21
-63.55
0
LINE
8
BLACK
6
CONTINUOUS
10
105
20
-63.55
11
89
21
-63.55
0
LINE
8
BLACK
6
CONTINUOUS
10
89
20
-63.55
11
88.9909
21
-63.5462
0
LINE
8
BLACK
6
CONTINUOUS
10
88.9909
20
-63.5462
11
88.7725
21
-63.5634
0
LINE
8
BLACK
6
CONTINUOUS
10
88.7725
20
-63.5634
11
88.5505
21
-63.6167
0
LINE
8
BLACK
6
CONTINUOUS
10
88.5505
20
-63.6167
11
88.3397
21
-63.704
0
LINE
8
BLACK
6
CONTINUOUS
10
88.3397
20
-63.704
11
88.1451
21
-63.8233
0
LINE
8
BLACK
6
CONTINUOUS
10
88.1451
20
-63.8233
11
87.9715
21
-63.9715
0
LINE
8
BLACK
6
CONTINUOUS
10
87.9715
20
-63.9715
11
87.8233
21
-64.1451
0
LINE
8
BLACK
6
CONTINUOUS
10
87.8233
20
-64.1451
11
87.704
21
-64.3397
0
LINE
8
BLACK
6
CONTINUOUS
10
87.704
20
-64.3397
11
87.6167
21
-64.5505
0
LINE
8
BLACK
6
CONTINUOUS
10
87.6167
20
-64.5505
11
87.5634
21
-64.7725
0
LINE
8
BLACK
6
CONTINUOUS
10
87.5634
20
-64.7725
11
87.5462
21
-64.9909
0
LINE
8
BLACK
6
CONTINUOUS
10
87.5462
20
-64.9909
11
87.55
21
-65
0
LINE
8
BLACK
6
CONTINUOUS
10
87.55
20
-65
11
87.55
21
-73
0
LINE
8
BLACK
6
CONTINUOUS
10
87.55
20
-73
11
87.5342
21
-73.2206
0
LINE
8
BLACK
6
CONTINUOUS
10
87.5342
20
-73.2206
11
87.4872
21
-73.4367
0
LINE
8
BLACK
6
CONTINUOUS
10
87.4872
20
-73.4367
11
87.4099
21
-73.6439
0
LINE
8
BLACK
6
CONTINUOUS
10
87.4099
20
-73.6439
11
87.3039
21
-73.838
0
LINE
8
BLACK
6
CONTINUOUS
10
87.3039
20
-73.838
11
87.1714
21
-74.015
0
LINE
8
BLACK
6
CONTINUOUS
10
87.1714
20
-74.015
11
87.015
21
-74.1714
0
LINE
8
BLACK
6
CONTINUOUS
10
87.015
20
-74.1714
11
86.838
21
-74.3039
0
LINE
8
BLACK
6
CONTINUOUS
10
86.838
20
-74.3039
11
86.6439
21
-74.4099
0
LINE
8
BLACK
6
CONTINUOUS
10
86.6439
20
-74.4099
11
86.4367
21
-74.4872
0
LINE
8
BLACK
6
CONTINUOUS
10
86.4367
20
-74.4872
11
86.2206
21
-74.5342
0
LINE
8
BLACK
6
CONTINUOUS
10
86.2206
20
-74.5342
11
86
21
-74.55
0
LINE
8
BLACK
6
CONTINUOUS
10
86
20
-74.55
11
70
21
-74.55
0
LINE
8
BLACK
6
CONTINUOUS
10
70
20
-74.55
11
69.9909
21
-74.5462
0
LINE
8
BLACK
6
CONTINUOUS
10
69.9909
20
-74.5462
11
69.7725
21
-74.5634
0
LINE
8
BLACK
6
CONTINUOUS
10
69.7725
20
-74.5634
11
69.5505
21
-74.6167
0
LINE
8
BLACK
6
CONTINUOUS
10
69.5505
20
-74.6167
11
69.3397
21
-74.704
0
LINE
8
BLACK
6
CONTINUOUS
10
69.3397
20
-74.704
11
69.1451
21
-74.8233
0
LINE
8
BLACK
6
CONTINUOUS
10
69.1451
20
-74.8233
11
68.9715
21
-74.9715
0
LINE
8
BLACK
6
CONTINUOUS
10
68.9715
20
-74.9715
11
68.8233
21
-75.1451
0
LINE
8
BLACK
6
CONTINUOUS
10
68.8233
20
-75.1451
11
68.704
21
-75.3397
0
LINE
8
BLACK
6
CONTINUOUS
10
68.704
20
-75.3397
11
68.6167
21
-75.5505
0
LINE
8
BLACK
6
CONTINUOUS
10
68.6167
20
-75.5505
11
68.5634
21
-75.7725
0
LINE
8
BLACK
6
CONTINUOUS
10
68.5634
20
-75.7725
11
68.5462
21
-75.9909
0
LINE
8
BLACK
6
CONTINUOUS
10
68.5462
20
-75.9909
11
68.55
21
-76
0
LINE
8
BLACK
6
CONTINUOUS
10
68.55
20
-76
11
68.55
21
-111
0
LINE
8
BLACK
6
CONTINUOUS
10
68.55
20
-111
11
68.5462
21
-111.009
0
LINE
8
BLACK
6
CONTINUOUS
10
68.5462
20
-111.009
11
68.5634
21
-111.228
0
LINE
8
BLACK
6
CONTINUOUS
10
68.5634
20
-111.228
11
68.6167
21
-111.449
0
LINE
8
BLACK
6
CONTINUOUS
10
68.6167
20
-111.449
11
68.704
21
-111.66
0
LINE
8
BLACK
6
CONTINUOUS
10
68.704
20
-111.66
11
68.8233
21
-111.855
0
LINE
8
BLACK
6
CONTINUOUS
10
68.8233
20
-111.855
11
68.9715
21
-112.028
0
LINE
8
BLACK
6
CONTINUOUS
10
68.9715
20
-112.028
11
69.1451
21
-112.177
0
LINE
8
BLACK
6
CONTINUOUS
10
69.1451
20
-112.177
11
69.3397
21
-112.296
0
LINE
8
BLACK
6
CONTINUOUS
10
69.3397
20
-112.296
11
69.5505
21
-112.383
0
LINE
8
BLACK
6
CONTINUOUS
10
69.5505
20
-112.383
11
69.7725
21
-112.437
0
LINE
8
BLACK
6
CONTINUOUS
10
69.7725
20
-112.437
11
69.9909
21
-112.454
0
LINE
8
BLACK
6
CONTINUOUS
10
69.9909
20
-112.454
11
70
21
-112.45
0
LINE
8
BLACK
6
CONTINUOUS
10
70
20
-112.45
11
86.5
21
-112.45
0
LINE
8
BLACK
6
CONTINUOUS
10
86.5
20
-112.45
11
86.7206
21
-112.466
0
LINE
8
BLACK
6
CONTINUOUS
10
86.7206
20
-112.466
11
86.9367
21
-112.513
0
LINE
8
BLACK
6
CONTINUOUS
10
86.9367
20
-112.513
11
87.1439
21
-112.59
0
LINE
8
BLACK
6
CONTINUOUS
10
87.1439
20
-112.59
11
87.338
21
-112.696
0
LINE
8
BLACK
6
CONTINUOUS
10
87.338
20
-112.696
11
87.515
21
-112.829
0
LINE
8
BLACK
6
CONTINUOUS
10
87.515
20
-112.829
11
87.6714
21
-112.985
0
LINE
8
BLACK
6
CONTINUOUS
10
87.6714
20
-112.985
11
87.8039
21
-113.162
0
LINE
8
BLACK
6
CONTINUOUS
10
87.8039
20
-113.162
11
87.9099
21
-113.356
0
LINE
8
BLACK
6
CONTINUOUS
10
87.9099
20
-113.356
11
87.9872
21
-113.563
0
LINE
8
BLACK
6
CONTINUOUS
10
87.9872
20
-113.563
11
88.0342
21
-113.779
0
LINE
8
BLACK
6
CONTINUOUS
10
88.0342
20
-113.779
11
88.05
21
-114
0
LINE
8
BLACK
6
CONTINUOUS
10
88.05
20
-114
11
88.05
21
-119
0
LINE
8
BLACK
6
CONTINUOUS
10
88.05
20
-119
11
88.0462
21
-119.009
0
LINE
8
BLACK
6
CONTINUOUS
10
88.0462
20
-119.009
11
88.0634
21
-119.228
0
LINE
8
BLACK
6
CONTINUOUS
10
88.0634
20
-119.228
11
88.1167
21
-119.449
0
LINE
8
BLACK
6
CONTINUOUS
10
88.1167
20
-119.449
11
88.204
21
-119.66
0
LINE
8
BLACK
6
CONTINUOUS
10
88.204
20
-119.66
11
88.3233
21
-119.855
0
LINE
8
BLACK
6
CONTINUOUS
10
88.3233
20
-119.855
11
88.4715
21
-120.028
0
LINE
8
BLACK
6
CONTINUOUS
10
88.4715
20
-120.028
11
88.6451
21
-120.177
0
LINE
8
BLACK
6
CONTINUOUS
10
88.6451
20
-120.177
11
88.8397
21
-120.296
0
LINE
8
BLACK
6
CONTINUOUS
10
88.8397
20
-120.296
11
89.0505
21
-120.383
0
LINE
8
BLACK
6
CONTINUOUS
10
89.0505
20
-120.383
11
89.2725
21
-120.437
0
LINE
8
BLACK
6
CONTINUOUS
10
89.2725
20
-120.437
11
89.4909
21
-120.454
0
LINE
8
BLACK
6
CONTINUOUS
10
89.4909
20
-120.454
11
89.5
21
-120.45
0
LINE
8
BLACK
6
CONTINUOUS
10
89.5
20
-120.45
11
107
21
-120.45
0
LINE
8
BLACK
6
CONTINUOUS
10
107
20
-120.45
11
107.009
21
-120.454
0
LINE
8
BLACK
6
CONTINUOUS
10
107.009
20
-120.454
11
107.02
21
-120.454
0
LINE
8
BLACK
6
CONTINUOUS
10
107.02
20
-120.454
11
135.01
21
-132.45
0
LINE
8
BLACK
6
CONTINUOUS
10
135.01
20
-132.45
11
154
21
-132.45
0
LINE
8
BLACK
6
CONTINUOUS
10
154
20
-132.45
11
154.006
21
-132.453
0
LINE
8
BLACK
6
CONTINUOUS
10
154.006
20
-132.453
11
154.013
21
-132.452
0
LINE
8
BLACK
6
CONTINUOUS
10
154.013
20
-132.452
11
172.513
21
-137.452
0
LINE
8
BLACK
6
CONTINUOUS
10
172.513
20
-137.452
11
172.518
21
-137.456
0
LINE
8
BLACK
6
CONTINUOUS
10
172.518
20
-137.456
11
172.524
21
-137.456
0
LINE
8
BLACK
6
CONTINUOUS
10
172.524
20
-137.456
11
185.058
21
-144.409
0
LINE
8
BLACK
6
CONTINUOUS
10
185.058
20
-144.409
11
185.06
21
-144.411
0
LINE
8
BLACK
6
CONTINUOUS
10
185.06
20
-144.411
11
185.063
21
-144.412
0
LINE
8
BLACK
6
CONTINUOUS
10
185.063
20
-144.412
11
185.069
21
-144.421
0
LINE
8
BLACK
6
CONTINUOUS
10
185.069
20
-144.421
11
185.391
21
-144.629
0
LINE
8
BLACK
6
CONTINUOUS
10
185.391
20
-144.629
11
185.739
21
-144.81
0
LINE
8
BLACK
6
CONTINUOUS
10
185.739
20
-144.81
11
186.104
21
-144.958
0
LINE
8
BLACK
6
CONTINUOUS
10
186.104
20
-144.958
11
186.48
21
-145.071
0
LINE
8
BLACK
6
CONTINUOUS
10
186.48
20
-145.071
11
186.866
21
-145.149
0
LINE
8
BLACK
6
CONTINUOUS
10
186.866
20
-145.149
11
187.257
21
-145.19
0
LINE
8
BLACK
6
CONTINUOUS
10
187.257
20
-145.19
11
187.65
21
-145.195
0
LINE
8
BLACK
6
CONTINUOUS
10
187.65
20
-145.195
11
188.042
21
-145.162
0
LINE
8
BLACK
6
CONTINUOUS
10
188.042
20
-145.162
11
188.429
21
-145.093
0
LINE
8
BLACK
6
CONTINUOUS
10
188.429
20
-145.093
11
188.808
21
-144.988
0
LINE
8
BLACK
6
CONTINUOUS
10
188.808
20
-144.988
11
189.175
21
-144.848
0
LINE
8
BLACK
6
CONTINUOUS
10
189.175
20
-144.848
11
189.528
21
-144.675
0
LINE
8
BLACK
6
CONTINUOUS
10
189.528
20
-144.675
11
189.863
21
-144.469
0
LINE
8
BLACK
6
CONTINUOUS
10
189.863
20
-144.469
11
190.177
21
-144.233
0
LINE
8
BLACK
6
CONTINUOUS
10
190.177
20
-144.233
11
190.456
21
-143.979
0
LINE
8
BLACK
6
CONTINUOUS
10
190.456
20
-143.979
11
190.457
21
-143.975
0
LINE
8
BLACK
6
CONTINUOUS
10
190.457
20
-143.975
11
202.707
21
-122.766
0
LINE
8
BLACK
6
CONTINUOUS
10
202.707
20
-122.766
11
202.71
21
-122.764
0
LINE
8
BLACK
6
CONTINUOUS
10
202.71
20
-122.764
11
202.766
21
-122.57
0
LINE
8
BLACK
6
CONTINUOUS
10
202.766
20
-122.57
11
202.797
21
-122.358
0
LINE
8
BLACK
6
CONTINUOUS
10
202.797
20
-122.358
11
202.798
21
-122.144
0
LINE
8
BLACK
6
CONTINUOUS
10
202.798
20
-122.144
11
202.77
21
-121.932
0
LINE
8
BLACK
6
CONTINUOUS
10
202.77
20
-121.932
11
202.712
21
-121.725
0
LINE
8
BLACK
6
CONTINUOUS
10
202.712
20
-121.725
11
202.627
21
-121.529
0
LINE
8
BLACK
6
CONTINUOUS
10
202.627
20
-121.529
11
202.515
21
-121.346
0
LINE
8
BLACK
6
CONTINUOUS
10
202.515
20
-121.346
11
202.379
21
-121.181
0
LINE
8
BLACK
6
CONTINUOUS
10
202.379
20
-121.181
11
202.23
21
-121.044
0
LINE
8
BLACK
6
CONTINUOUS
10
202.23
20
-121.044
11
202.226
21
-121.044
0
LINE
8
BLACK
6
CONTINUOUS
10
202.226
20
-121.044
11
183.976
21
-110.844
0
LINE
8
BLACK
6
CONTINUOUS
10
183.976
20
-110.844
11
183.972
21
-110.839
0
LINE
8
BLACK
6
CONTINUOUS
10
183.972
20
-110.839
11
183.966
21
-110.837
0
LINE
8
BLACK
6
CONTINUOUS
10
183.966
20
-110.837
11
183.966
21
-110.837
0
LINE
8
BLACK
6
CONTINUOUS
10
183.966
20
-110.837
11
183.745
21
-110.614
0
LINE
8
BLACK
6
CONTINUOUS
10
183.745
20
-110.614
11
183.548
21
-110.368
0
LINE
8
BLACK
6
CONTINUOUS
10
183.548
20
-110.368
11
183.377
21
-110.104
0
LINE
8
BLACK
6
CONTINUOUS
10
183.377
20
-110.104
11
183.235
21
-109.823
0
LINE
8
BLACK
6
CONTINUOUS
10
183.235
20
-109.823
11
183.123
21
-109.529
0
LINE
8
BLACK
6
CONTINUOUS
10
183.123
20
-109.529
11
183.042
21
-109.225
0
LINE
8
BLACK
6
CONTINUOUS
10
183.042
20
-109.225
11
182.993
21
-108.914
0
LINE
8
BLACK
6
CONTINUOUS
10
182.993
20
-108.914
11
182.977
21
-108.6
0
LINE
8
BLACK
6
CONTINUOUS
10
182.977
20
-108.6
11
182.977
21
-108.6
0
LINE
8
BLACK
6
CONTINUOUS
10
182.977
20
-108.6
11
182.95
21
-89.4501
0
LINE
8
BLACK
6
CONTINUOUS
10
182.95
20
-89.4501
11
182.95
21
-89.45
0
LINE
8
BLACK
6
CONTINUOUS
10
182.95
20
-89.45
11
182.95
21
-89.45
0
LINE
8
BLACK
6
CONTINUOUS
10
182.95
20
-89.45
11
182.95
21
-58.75
0
LINE
8
BLACK
6
CONTINUOUS
10
182.95
20
-58.75
11
182.953
21
-58.7434
0
LINE
8
BLACK
6
CONTINUOUS
10
182.953
20
-58.7434
11
182.94
21
-58.6128
0
LINE
8
BLACK
6
CONTINUOUS
10
182.94
20
-58.6128
11
182.9
21
-58.4808
0
LINE
8
BLACK
6
CONTINUOUS
10
182.9
20
-58.4808
11
182.835
21
-58.3592
0
LINE
8
BLACK
6
CONTINUOUS
10
182.835
20
-58.3592
11
182.747
21
-58.2526
0
LINE
8
BLACK
6
CONTINUOUS
10
182.747
20
-58.2526
11
182.641
21
-58.1652
0
LINE
8
BLACK
6
CONTINUOUS
10
182.641
20
-58.1652
11
182.519
21
-58.1002
0
LINE
8
BLACK
6
CONTINUOUS
10
182.519
20
-58.1002
11
182.387
21
-58.0601
0
LINE
8
BLACK
6
CONTINUOUS
10
182.387
20
-58.0601
11
182.257
21
-58.0473
0
LINE
8
BLACK
6
CONTINUOUS
10
182.257
20
-58.0473
11
182.25
21
-58.05
0
LINE
8
BLACK
6
CONTINUOUS
10
182.25
20
-58.05
11
165.5
21
-58.05
0
LINE
8
BLACK
6
CONTINUOUS
10
165.5
20
-58.05
11
165.279
21
-58.0342
0
LINE
8
BLACK
6
CONTINUOUS
10
165.279
20
-58.0342
11
165.063
21
-57.9872
0
LINE
8
BLACK
6
CONTINUOUS
10
165.063
20
-57.9872
11
164.856
21
-57.9099
0
LINE
8
BLACK
6
CONTINUOUS
10
164.856
20
-57.9099
11
164.662
21
-57.8039
0
LINE
8
BLACK
6
CONTINUOUS
10
164.662
20
-57.8039
11
164.485
21
-57.6714
0
LINE
8
BLACK
6
CONTINUOUS
10
164.485
20
-57.6714
11
164.329
21
-57.515
0
LINE
8
BLACK
6
CONTINUOUS
10
164.329
20
-57.515
11
164.196
21
-57.338
0
LINE
8
BLACK
6
CONTINUOUS
10
164.196
20
-57.338
11
164.09
21
-57.1439
0
LINE
8
BLACK
6
CONTINUOUS
10
164.09
20
-57.1439
11
164.013
21
-56.9367
0
LINE
8
BLACK
6
CONTINUOUS
10
164.013
20
-56.9367
11
163.966
21
-56.7206
0
LINE
8
BLACK
6
CONTINUOUS
10
163.966
20
-56.7206
11
163.95
21
-56.5
0
LINE
8
BLACK
6
CONTINUOUS
10
163.95
20
-56.5
11
163.954
21
-56.4909
0
LINE
8
BLACK
6
CONTINUOUS
10
163.954
20
-56.4909
11
163.937
21
-56.2725
0
LINE
8
BLACK
6
CONTINUOUS
10
163.937
20
-56.2725
11
163.883
21
-56.0505
0
LINE
8
BLACK
6
CONTINUOUS
10
163.883
20
-56.0505
11
163.796
21
-55.8397
0
LINE
8
BLACK
6
CONTINUOUS
10
163.796
20
-55.8397
11
163.677
21
-55.6451
0
LINE
8
BLACK
6
CONTINUOUS
10
163.677
20
-55.6451
11
163.528
21
-55.4715
0
LINE
8
BLACK
6
CONTINUOUS
10
163.528
20
-55.4715
11
163.355
21
-55.3233
0
LINE
8
BLACK
6
CONTINUOUS
10
163.355
20
-55.3233
11
163.16
21
-55.204
0
LINE
8
BLACK
6
CONTINUOUS
10
163.16
20
-55.204
11
162.949
21
-55.1167
0
LINE
8
BLACK
6
CONTINUOUS
10
162.949
20
-55.1167
11
162.728
21
-55.0634
0
LINE
8
BLACK
6
CONTINUOUS
10
162.728
20
-55.0634
11
162.509
21
-55.0462
0
LINE
8
BLACK
6
CONTINUOUS
10
162.509
20
-55.0462
11
162.5
21
-55.05
0
LINE
8
BLACK
6
CONTINUOUS
10
162.5
20
-55.05
11
146.5
21
-55.05
0
LINE
8
BLACK
6
CONTINUOUS
10
146.5
20
-55.05
11
146.279
21
-55.0342
0
LINE
8
BLACK
6
CONTINUOUS
10
146.279
20
-55.0342
11
146.063
21
-54.9872
0
LINE
8
BLACK
6
CONTINUOUS
10
146.063
20
-54.9872
11
145.856
21
-54.9099
0
LINE
8
BLACK
6
CONTINUOUS
10
145.856
20
-54.9099
11
145.662
21
-54.8039
0
LINE
8
BLACK
6
CONTINUOUS
10
145.662
20
-54.8039
11
145.485
21
-54.6714
0
LINE
8
BLACK
6
CONTINUOUS
10
145.485
20
-54.6714
11
145.329
21
-54.515
0
LINE
8
BLACK
6
CONTINUOUS
10
145.329
20
-54.515
11
145.196
21
-54.338
0
LINE
8
BLACK
6
CONTINUOUS
10
145.196
20
-54.338
11
145.09
21
-54.1439
0
LINE
8
BLACK
6
CONTINUOUS
10
145.09
20
-54.1439
11
145.013
21
-53.9367
0
LINE
8
BLACK
6
CONTINUOUS
10
145.013
20
-53.9367
11
144.966
21
-53.7206
0
LINE
8
BLACK
6
CONTINUOUS
10
144.966
20
-53.7206
11
144.95
21
-53.5
0
LINE
8
BLACK
6
CONTINUOUS
10
144.95
20
-53.5
11
144.95
21
-53
0
LINE
8
BLACK
6
CONTINUOUS
10
144.95
20
-53
11
144.954
21
-52.9909
0
LINE
8
BLACK
6
CONTINUOUS
10
144.954
20
-52.9909
11
144.937
21
-52.7725
0
LINE
8
BLACK
6
CONTINUOUS
10
144.937
20
-52.7725
11
144.883
21
-52.5505
0
LINE
8
BLACK
6
CONTINUOUS
10
144.883
20
-52.5505
11
144.796
21
-52.3397
0
LINE
8
BLACK
6
CONTINUOUS
10
144.796
20
-52.3397
11
144.677
21
-52.1451
0
LINE
8
BLACK
6
CONTINUOUS
10
144.677
20
-52.1451
11
144.528
21
-51.9715
0
LINE
8
BLACK
6
CONTINUOUS
10
144.528
20
-51.9715
11
144.355
21
-51.8233
0
LINE
8
BLACK
6
CONTINUOUS
10
144.355
20
-51.8233
11
144.16
21
-51.704
0
LINE
8
BLACK
6
CONTINUOUS
10
144.16
20
-51.704
11
143.949
21
-51.6167
0
LINE
8
BLACK
6
CONTINUOUS
10
143.949
20
-51.6167
11
143.728
21
-51.5634
0
LINE
8
BLACK
6
CONTINUOUS
10
143.728
20
-51.5634
11
143.509
21
-51.5462
0
LINE
8
BLACK
6
CONTINUOUS
10
143.509
20
-51.5462
11
143.5
21
-51.55
0
LINE
8
BLACK
6
CONTINUOUS
10
143.5
20
-51.55
11
127.5
21
-51.55
0
LINE
8
BLACK
6
CONTINUOUS
10
127.5
20
-51.55
11
127.491
21
-51.5462
0
LINE
8
BLACK
6
CONTINUOUS
10
185.468
20
-119.636
11
197.592
21
-126.636
0
LINE
8
BLACK
6
CONTINUOUS
10
197.592
20
-126.636
11
197.609
21
-126.658
0
LINE
8
BLACK
6
CONTINUOUS
10
197.609
20
-126.658
11
197.62
21
-126.672
0
LINE
8
BLACK
6
CONTINUOUS
10
197.62
20
-126.672
11
197.614
21
-126.718
0
LINE
8
BLACK
6
CONTINUOUS
10
197.614
20
-126.718
11
190.614
21
-138.842
0
LINE
8
BLACK
6
CONTINUOUS
10
190.614
20
-138.842
11
190.578
21
-138.87
0
LINE
8
BLACK
6
CONTINUOUS
10
190.578
20
-138.87
11
190.532
21
-138.864
0
LINE
8
BLACK
6
CONTINUOUS
10
190.532
20
-138.864
11
190.532
21
-138.864
0
LINE
8
BLACK
6
CONTINUOUS
10
190.532
20
-138.864
11
178.408
21
-131.864
0
LINE
8
BLACK
6
CONTINUOUS
10
178.408
20
-131.864
11
178.38
21
-131.828
0
LINE
8
BLACK
6
CONTINUOUS
10
178.38
20
-131.828
11
178.386
21
-131.782
0
LINE
8
BLACK
6
CONTINUOUS
10
178.386
20
-131.782
11
185.386
21
-119.658
0
LINE
8
BLACK
6
CONTINUOUS
10
185.386
20
-119.658
11
185.422
21
-119.63
0
LINE
8
BLACK
6
CONTINUOUS
10
185.422
20
-119.63
11
185.468
21
-119.636
0
LINE
8
BLACK
6
CONTINUOUS
10
178.52
20
-131.79
11
190.54
21
-138.73
0
LINE
8
BLACK
6
CONTINUOUS
10
190.54
20
-138.73
11
197.48
21
-126.71
0
LINE
8
BLACK
6
CONTINUOUS
10
197.48
20
-126.71
11
185.46
21
-119.77
0
LINE
8
BLACK
6
CONTINUOUS
10
185.46
20
-119.77
11
178.52
21
-131.79
0
LINE
8
BLACK
6
CONTINUOUS
10
174.339
20
-120.492
11
174.339
21
-120.492
0
LINE
8
BLACK
6
CONTINUOUS
10
174.339
20
-120.492
11
174.375
21
-120.52
0
LINE
8
BLACK
6
CONTINUOUS
10
174.375
20
-120.52
11
174.381
21
-120.566
0
LINE
8
BLACK
6
CONTINUOUS
10
174.381
20
-120.566
11
170.758
21
-134.089
0
LINE
8
BLACK
6
CONTINUOUS
10
170.758
20
-134.089
11
170.73
21
-134.125
0
LINE
8
BLACK
6
CONTINUOUS
10
170.73
20
-134.125
11
170.684
21
-134.131
0
LINE
8
BLACK
6
CONTINUOUS
10
170.684
20
-134.131
11
157.161
21
-130.508
0
LINE
8
BLACK
6
CONTINUOUS
10
157.161
20
-130.508
11
157.125
21
-130.48
0
LINE
8
BLACK
6
CONTINUOUS
10
157.125
20
-130.48
11
157.119
21
-130.434
0
LINE
8
BLACK
6
CONTINUOUS
10
157.119
20
-130.434
11
160.742
21
-116.911
0
LINE
8
BLACK
6
CONTINUOUS
10
160.742
20
-116.911
11
160.742
21
-116.911
0
LINE
8
BLACK
6
CONTINUOUS
10
160.742
20
-116.911
11
160.77
21
-116.875
0
LINE
8
BLACK
6
CONTINUOUS
10
160.77
20
-116.875
11
160.816
21
-116.869
0
LINE
8
BLACK
6
CONTINUOUS
10
160.816
20
-116.869
11
174.339
21
-120.492
0
LINE
8
BLACK
6
CONTINUOUS
10
157.25
20
-130.407
11
170.657
21
-134
0
LINE
8
BLACK
6
CONTINUOUS
10
170.657
20
-134
11
174.25
21
-120.593
0
LINE
8
BLACK
6
CONTINUOUS
10
174.25
20
-120.593
11
160.843
21
-117
0
LINE
8
BLACK
6
CONTINUOUS
10
160.843
20
-117
11
157.25
21
-130.407
0
LINE
8
BLACK
6
CONTINUOUS
10
137.458
20
-129.792
11
137.44
21
-129.75
0
LINE
8
BLACK
6
CONTINUOUS
10
137.44
20
-129.75
11
137.44
21
-115.75
0
LINE
8
BLACK
6
CONTINUOUS
10
137.44
20
-115.75
11
137.458
21
-115.708
0
LINE
8
BLACK
6
CONTINUOUS
10
137.458
20
-115.708
11
137.5
21
-115.69
0
LINE
8
BLACK
6
CONTINUOUS
10
137.5
20
-115.69
11
151.5
21
-115.69
0
LINE
8
BLACK
6
CONTINUOUS
10
151.5
20
-115.69
11
151.542
21
-115.708
0
LINE
8
BLACK
6
CONTINUOUS
10
151.542
20
-115.708
11
151.56
21
-115.75
0
LINE
8
BLACK
6
CONTINUOUS
10
151.56
20
-115.75
11
151.56
21
-129.75
0
LINE
8
BLACK
6
CONTINUOUS
10
151.56
20
-129.75
11
151.542
21
-129.792
0
LINE
8
BLACK
6
CONTINUOUS
10
151.542
20
-129.792
11
151.5
21
-129.81
0
LINE
8
BLACK
6
CONTINUOUS
10
151.5
20
-129.81
11
137.5
21
-129.81
0
LINE
8
BLACK
6
CONTINUOUS
10
137.5
20
-129.81
11
137.458
21
-129.792
0
LINE
8
BLACK
6
CONTINUOUS
10
137.56
20
-115.81
11
137.56
21
-129.69
0
LINE
8
BLACK
6
CONTINUOUS
10
137.56
20
-129.69
11
151.44
21
-129.69
0
LINE
8
BLACK
6
CONTINUOUS
10
151.44
20
-129.69
11
151.44
21
-115.81
0
LINE
8
BLACK
6
CONTINUOUS
10
151.44
20
-115.81
11
137.56
21
-115.81
0
LINE
8
BLACK
6
CONTINUOUS
10
90.4576
20
-118.042
11
90.44
21
-118
0
LINE
8
BLACK
6
CONTINUOUS
10
90.44
20
-118
11
90.44
21
-104
0
LINE
8
BLACK
6
CONTINUOUS
10
90.44
20
-104
11
90.4576
21
-103.958
0
LINE
8
BLACK
6
CONTINUOUS
10
90.4576
20
-103.958
11
90.5
21
-103.94
0
LINE
8
BLACK
6
CONTINUOUS
10
90.5
20
-103.94
11
104.5
21
-103.94
0
LINE
8
BLACK
6
CONTINUOUS
10
104.5
20
-103.94
11
104.542
21
-103.958
0
LINE
8
BLACK
6
CONTINUOUS
10
104.542
20
-103.958
11
104.56
21
-104
0
LINE
8
BLACK
6
CONTINUOUS
10
104.56
20
-104
11
104.56
21
-118
0
LINE
8
BLACK
6
CONTINUOUS
10
104.56
20
-118
11
104.542
21
-118.042
0
LINE
8
BLACK
6
CONTINUOUS
10
104.542
20
-118.042
11
104.5
21
-118.06
0
LINE
8
BLACK
6
CONTINUOUS
10
104.5
20
-118.06
11
90.5
21
-118.06
0
LINE
8
BLACK
6
CONTINUOUS
10
90.5
20
-118.06
11
90.4576
21
-118.042
0
LINE
8
BLACK
6
CONTINUOUS
10
90.56
20
-104.06
11
90.56
21
-117.94
0
LINE
8
BLACK
6
CONTINUOUS
10
90.56
20
-117.94
11
104.44
21
-117.94
0
LINE
8
BLACK
6
CONTINUOUS
10
104.44
20
-117.94
11
104.44
21
-104.06
0
LINE
8
BLACK
6
CONTINUOUS
10
104.44
20
-104.06
11
90.56
21
-104.06
0
LINE
8
BLACK
6
CONTINUOUS
10
166.458
20
-112.542
11
166.44
21
-112.5
0
LINE
8
BLACK
6
CONTINUOUS
10
166.44
20
-112.5
11
166.44
21
-98.5
0
LINE
8
BLACK
6
CONTINUOUS
10
166.44
20
-98.5
11
166.458
21
-98.4576
0
LINE
8
BLACK
6
CONTINUOUS
10
166.458
20
-98.4576
11
166.5
21
-98.44
0
LINE
8
BLACK
6
CONTINUOUS
10
166.5
20
-98.44
11
180.5
21
-98.44
0
LINE
8
BLACK
6
CONTINUOUS
10
180.5
20
-98.44
11
180.542
21
-98.4576
0
LINE
8
BLACK
6
CONTINUOUS
10
180.542
20
-98.4576
11
180.56
21
-98.5
0
LINE
8
BLACK
6
CONTINUOUS
10
180.56
20
-98.5
11
180.56
21
-112.5
0
LINE
8
BLACK
6
CONTINUOUS
10
180.56
20
-112.5
11
180.542
21
-112.542
0
LINE
8
BLACK
6
CONTINUOUS
10
180.542
20
-112.542
11
180.5
21
-112.56
0
LINE
8
BLACK
6
CONTINUOUS
10
180.5
20
-112.56
11
166.5
21
-112.56
0
LINE
8
BLACK
6
CONTINUOUS
10
166.5
20
-112.56
11
166.458
21
-112.542
0
LINE
8
BLACK
6
CONTINUOUS
10
166.56
20
-98.56
11
166.56
21
-112.44
0
LINE
8
BLACK
6
CONTINUOUS
10
166.56
20
-112.44
11
180.44
21
-112.44
0
LINE
8
BLACK
6
CONTINUOUS
10
180.44
20
-112.44
11
180.44
21
-98.56
0
LINE
8
BLACK
6
CONTINUOUS
10
180.44
20
-98.56
11
166.56
21
-98.56
0
LINE
8
BLACK
6
CONTINUOUS
10
71.4576
20
-110.042
11
71.44
21
-110
0
LINE
8
BLACK
6
CONTINUOUS
10
71.44
20
-110
11
71.44
21
-96
0
LINE
8
BLACK
6
CONTINUOUS
10
71.44
20
-96
11
71.4576
21
-95.9576
0
LINE
8
BLACK
6
CONTINUOUS
10
71.4576
20
-95.9576
11
71.5
21
-95.94
0
LINE
8
BLACK
6
CONTINUOUS
10
71.5
20
-95.94
11
85.5
21
-95.94
0
LINE
8
BLACK
6
CONTINUOUS
10
85.5
20
-95.94
11
85.5424
21
-95.9576
0
LINE
8
BLACK
6
CONTINUOUS
10
85.5424
20
-95.9576
11
85.56
21
-96
0
LINE
8
BLACK
6
CONTINUOUS
10
85.56
20
-96
11
85.56
21
-110
0
LINE
8
BLACK
6
CONTINUOUS
10
85.56
20
-110
11
85.5424
21
-110.042
0
LINE
8
BLACK
6
CONTINUOUS
10
85.5424
20
-110.042
11
85.5
21
-110.06
0
LINE
8
BLACK
6
CONTINUOUS
10
85.5
20
-110.06
11
71.5
21
-110.06
0
LINE
8
BLACK
6
CONTINUOUS
10
71.5
20
-110.06
11
71.4576
21
-110.042
0
LINE
8
BLACK
6
CONTINUOUS
10
71.56
20
-96.06
11
71.56
21
-109.94
0
LINE
8
BLACK
6
CONTINUOUS
10
71.56
20
-109.94
11
85.44
21
-109.94
0
LINE
8
BLACK
6
CONTINUOUS
10
85.44
20
-109.94
11
85.44
21
-96.06
0
LINE
8
BLACK
6
CONTINUOUS
10
85.44
20
-96.06
11
71.56
21
-96.06
0
LINE
8
BLACK
6
CONTINUOUS
10
147.458
20
-110.042
11
147.44
21
-110
0
LINE
8
BLACK
6
CONTINUOUS
10
147.44
20
-110
11
147.44
21
-96
0
LINE
8
BLACK
6
CONTINUOUS
10
147.44
20
-96
11
147.458
21
-95.9576
0
LINE
8
BLACK
6
CONTINUOUS
10
147.458
20
-95.9576
11
147.5
21
-95.94
0
LINE
8
BLACK
6
CONTINUOUS
10
147.5
20
-95.94
11
161.5
21
-95.94
0
LINE
8
BLACK
6
CONTINUOUS
10
161.5
20
-95.94
11
161.542
21
-95.9576
0
LINE
8
BLACK
6
CONTINUOUS
10
161.542
20
-95.9576
11
161.56
21
-96
0
LINE
8
BLACK
6
CONTINUOUS
10
161.56
20
-96
11
161.56
21
-110
0
LINE
8
BLACK
6
CONTINUOUS
10
161.56
20
-110
11
161.542
21
-110.042
0
LINE
8
BLACK
6
CONTINUOUS
10
161.542
20
-110.042
11
161.5
21
-110.06
0
LINE
8
BLACK
6
CONTINUOUS
10
161.5
20
-110.06
11
147.5
21
-110.06
0
LINE
8
BLACK
6
CONTINUOUS
10
147.5
20
-110.06
11
147.458
21
-110.042
0
LINE
8
BLACK
6
CONTINUOUS
10
147.56
20
-96.06
11
147.56
21
-109.94
0
LINE
8
BLACK
6
CONTINUOUS
10
147.56
20
-109.94
11
161.44
21
-109.94
0
LINE
8
BLACK
6
CONTINUOUS
10
161.44
20
-109.94
11
161.44
21
-96.06
0
LINE
8
BLACK
6
CONTINUOUS
10
161.44
20
-96.06
11
147.56
21
-96.06
0
LINE
8
BLACK
6
CONTINUOUS
10
109.458
20
-110.042
11
109.44
21
-110
0
LINE
8
BLACK
6
CONTINUOUS
10
109.44
20
-110
11
109.44
21
-96
0
LINE
8
BLACK
6
CONTINUOUS
10
109.44
20
-96
11
109.458
21
-95.9576
0
LINE
8
BLACK
6
CONTINUOUS
10
109.458
20
-95.9576
11
109.5
21
-95.94
0
LINE
8
BLACK
6
CONTINUOUS
10
109.5
20
-95.94
11
123.5
21
-95.94
0
LINE
8
BLACK
6
CONTINUOUS
10
123.5
20
-95.94
11
123.542
21
-95.9576
0
LINE
8
BLACK
6
CONTINUOUS
10
123.542
20
-95.9576
11
123.56
21
-96
0
LINE
8
BLACK
6
CONTINUOUS
10
123.56
20
-96
11
123.56
21
-110
0
LINE
8
BLACK
6
CONTINUOUS
10
123.56
20
-110
11
123.542
21
-110.042
0
LINE
8
BLACK
6
CONTINUOUS
10
123.542
20
-110.042
11
123.5
21
-110.06
0
LINE
8
BLACK
6
CONTINUOUS
10
123.5
20
-110.06
11
109.5
21
-110.06
0
LINE
8
BLACK
6
CONTINUOUS
10
109.5
20
-110.06
11
109.458
21
-110.042
0
LINE
8
BLACK
6
CONTINUOUS
10
109.56
20
-96.06
11
109.56
21
-109.94
0
LINE
8
BLACK
6
CONTINUOUS
10
109.56
20
-109.94
11
123.44
21
-109.94
0
LINE
8
BLACK
6
CONTINUOUS
10
123.44
20
-109.94
11
123.44
21
-96.06
0
LINE
8
BLACK
6
CONTINUOUS
10
123.44
20
-96.06
11
109.56
21
-96.06
0
LINE
8
BLACK
6
CONTINUOUS
10
128.458
20
-106.042
11
128.44
21
-106
0
LINE
8
BLACK
6
CONTINUOUS
10
128.44
20
-106
11
128.44
21
-92
0
LINE
8
BLACK
6
CONTINUOUS
10
128.44
20
-92
11
128.458
21
-91.9576
0
LINE
8
BLACK
6
CONTINUOUS
10
128.458
20
-91.9576
11
128.5
21
-91.94
0
LINE
8
BLACK
6
CONTINUOUS
10
128.5
20
-91.94
11
142.5
21
-91.94
0
LINE
8
BLACK
6
CONTINUOUS
10
142.5
20
-91.94
11
142.542
21
-91.9576
0
LINE
8
BLACK
6
CONTINUOUS
10
142.542
20
-91.9576
11
142.56
21
-92
0
LINE
8
BLACK
6
CONTINUOUS
10
142.56
20
-92
11
142.56
21
-106
0
LINE
8
BLACK
6
CONTINUOUS
10
142.56
20
-106
11
142.542
21
-106.042
0
LINE
8
BLACK
6
CONTINUOUS
10
142.542
20
-106.042
11
142.5
21
-106.06
0
LINE
8
BLACK
6
CONTINUOUS
10
142.5
20
-106.06
11
128.5
21
-106.06
0
LINE
8
BLACK
6
CONTINUOUS
10
128.5
20
-106.06
11
128.458
21
-106.042
0
LINE
8
BLACK
6
CONTINUOUS
10
128.56
20
-92.06
11
128.56
21
-105.94
0
LINE
8
BLACK
6
CONTINUOUS
10
128.56
20
-105.94
11
142.44
21
-105.94
0
LINE
8
BLACK
6
CONTINUOUS
10
142.44
20
-105.94
11
142.44
21
-92.06
0
LINE
8
BLACK
6
CONTINUOUS
10
142.44
20
-92.06
11
128.56
21
-92.06
0
LINE
8
BLACK
6
CONTINUOUS
10
90.4576
20
-99.0424
11
90.44
21
-99
0
LINE
8
BLACK
6
CONTINUOUS
10
90.44
20
-99
11
90.44
21
-85
0
LINE
8
BLACK
6
CONTINUOUS
10
90.44
20
-85
11
90.4576
21
-84.9576
0
LINE
8
BLACK
6
CONTINUOUS
10
90.4576
20
-84.9576
11
90.5
21
-84.94
0
LINE
8
BLACK
6
CONTINUOUS
10
90.5
20
-84.94
11
104.5
21
-84.94
0
LINE
8
BLACK
6
CONTINUOUS
10
104.5
20
-84.94
11
104.542
21
-84.9576
0
LINE
8
BLACK
6
CONTINUOUS
10
104.542
20
-84.9576
11
104.56
21
-85
0
LINE
8
BLACK
6
CONTINUOUS
10
104.56
20
-85
11
104.56
21
-99
0
LINE
8
BLACK
6
CONTINUOUS
10
104.56
20
-99
11
104.542
21
-99.0424
0
LINE
8
BLACK
6
CONTINUOUS
10
104.542
20
-99.0424
11
104.5
21
-99.06
0
LINE
8
BLACK
6
CONTINUOUS
10
104.5
20
-99.06
11
90.5
21
-99.06
0
LINE
8
BLACK
6
CONTINUOUS
10
90.5
20
-99.06
11
90.4576
21
-99.0424
0
LINE
8
BLACK
6
CONTINUOUS
10
90.56
20
-85.06
11
90.56
21
-98.94
0
LINE
8
BLACK
6
CONTINUOUS
10
90.56
20
-98.94
11
104.44
21
-98.94
0
LINE
8
BLACK
6
CONTINUOUS
10
104.44
20
-98.94
11
104.44
21
-85.06
0
LINE
8
BLACK
6
CONTINUOUS
10
104.44
20
-85.06
11
90.56
21
-85.06
0
LINE
8
BLACK
6
CONTINUOUS
10
166.458
20
-93.5424
11
166.44
21
-93.5
0
LINE
8
BLACK
6
CONTINUOUS
10
166.44
20
-93.5
11
166.44
21
-79.5
0
LINE
8
BLACK
6
CONTINUOUS
10
166.44
20
-79.5
11
166.458
21
-79.4576
0
LINE
8
BLACK
6
CONTINUOUS
10
166.458
20
-79.4576
11
166.5
21
-79.44
0
LINE
8
BLACK
6
CONTINUOUS
10
166.5
20
-79.44
11
180.5
21
-79.44
0
LINE
8
BLACK
6
CONTINUOUS
10
180.5
20
-79.44
11
180.542
21
-79.4576
0
LINE
8
BLACK
6
CONTINUOUS
10
180.542
20
-79.4576
11
180.56
21
-79.5
0
LINE
8
BLACK
6
CONTINUOUS
10
180.56
20
-79.5
11
180.56
21
-93.5
0
LINE
8
BLACK
6
CONTINUOUS
10
180.56
20
-93.5
11
180.542
21
-93.5424
0
LINE
8
BLACK
6
CONTINUOUS
10
180.542
20
-93.5424
11
180.5
21
-93.56
0
LINE
8
BLACK
6
CONTINUOUS
10
180.5
20
-93.56
11
166.5
21
-93.56
0
LINE
8
BLACK
6
CONTINUOUS
10
166.5
20
-93.56
11
166.458
21
-93.5424
0
LINE
8
BLACK
6
CONTINUOUS
10
166.56
20
-79.56
11
166.56
21
-93.44
0
LINE
8
BLACK
6
CONTINUOUS
10
166.56
20
-93.44
11
180.44
21
-93.44
0
LINE
8
BLACK
6
CONTINUOUS
10
180.44
20
-93.44
11
180.44
21
-79.56
0
LINE
8
BLACK
6
CONTINUOUS
10
180.44
20
-79.56
11
166.56
21
-79.56
0
LINE
8
BLACK
6
CONTINUOUS
10
109.458
20
-91.0424
11
109.44
21
-91
0
LINE
8
BLACK
6
CONTINUOUS
10
109.44
20
-91
11
109.44
21
-77
0
LINE
8
BLACK
6
CONTINUOUS
10
109.44
20
-77
11
109.458
21
-76.9576
0
LINE
8
BLACK
6
CONTINUOUS
10
109.458
20
-76.9576
11
109.5
21
-76.94
0
LINE
8
BLACK
6
CONTINUOUS
10
109.5
20
-76.94
11
123.5
21
-76.94
0
LINE
8
BLACK
6
CONTINUOUS
10
123.5
20
-76.94
11
123.542
21
-76.9576
0
LINE
8
BLACK
6
CONTINUOUS
10
123.542
20
-76.9576
11
123.56
21
-77
0
LINE
8
BLACK
6
CONTINUOUS
10
123.56
20
-77
11
123.56
21
-91
0
LINE
8
BLACK
6
CONTINUOUS
10
123.56
20
-91
11
123.542
21
-91.0424
0
LINE
8
BLACK
6
CONTINUOUS
10
123.542
20
-91.0424
11
123.5
21
-91.06
0
LINE
8
BLACK
6
CONTINUOUS
10
123.5
20
-91.06
11
109.5
21
-91.06
0
LINE
8
BLACK
6
CONTINUOUS
10
109.5
20
-91.06
11
109.458
21
-91.0424
0
LINE
8
BLACK
6
CONTINUOUS
10
109.56
20
-77.06
11
109.56
21
-90.94
0
LINE
8
BLACK
6
CONTINUOUS
10
109.56
20
-90.94
11
123.44
21
-90.94
0
LINE
8
BLACK
6
CONTINUOUS
10
123.44
20
-90.94
11
123.44
21
-77.06
0
LINE
8
BLACK
6
CONTINUOUS
10
123.44
20
-77.06
11
109.56
21
-77.06
0
LINE
8
BLACK
6
CONTINUOUS
10
71.4576
20
-91.0424
11
71.44
21
-91
0
LINE
8
BLACK
6
CONTINUOUS
10
71.44
20
-91
11
71.44
21
-77
0
LINE
8
BLACK
6
CONTINUOUS
10
71.44
20
-77
11
71.4576
21
-76.9576
0
LINE
8
BLACK
6
CONTINUOUS
10
71.4576
20
-76.9576
11
71.5
21
-76.94
0
LINE
8
BLACK
6
CONTINUOUS
10
71.5
20
-76.94
11
85.5
21
-76.94
0
LINE
8
BLACK
6
CONTINUOUS
10
85.5
20
-76.94
11
85.5424
21
-76.9576
0
LINE
8
BLACK
6
CONTINUOUS
10
85.5424
20
-76.9576
11
85.56
21
-77
0
LINE
8
BLACK
6
CONTINUOUS
10
85.56
20
-77
11
85.56
21
-91
0
LINE
8
BLACK
6
CONTINUOUS
10
85.56
20
-91
11
85.5424
21
-91.0424
0
LINE
8
BLACK
6
CONTINUOUS
10
85.5424
20
-91.0424
11
85.5
21
-91.06
0
LINE
8
BLACK
6
CONTINUOUS
10
85.5
20
-91.06
11
71.5
21
-91.06
0
LINE
8
BLACK
6
CONTINUOUS
10
71.5
20
-91.06
11
71.4576
21
-91.0424
0
LINE
8
BLACK
6
CONTINUOUS
10
71.56
20
-77.06
11
71.56
21
-90.94
0
LINE
8
BLACK
6
CONTINUOUS
10
71.56
20
-90.94
11
85.44
21
-90.94
0
LINE
8
BLACK
6
CONTINUOUS
10
85.44
20
-90.94
11
85.44
21
-77.06
0
LINE
8
BLACK
6
CONTINUOUS
10
85.44
20
-77.06
11
71.56
21
-77.06
0
LINE
8
BLACK
6
CONTINUOUS
10
147.458
20
-91.0424
11
147.44
21
-91
0
LINE
8
BLACK
6
CONTINUOUS
10
147.44
20
-91
11
147.44
21
-77
0
LINE
8
BLACK
6
CONTINUOUS
10
147.44
20
-77
11
147.458
21
-76.9576
0
LINE
8
BLACK
6
CONTINUOUS
10
147.458
20
-76.9576
11
147.5
21
-76.94
0
LINE
8
BLACK
6
CONTINUOUS
10
147.5
20
-76.94
11
161.5
21
-76.94
0
LINE
8
BLACK
6
CONTINUOUS
10
161.5
20
-76.94
11
161.542
21
-76.9576
0
LINE
8
BLACK
6
CONTINUOUS
10
161.542
20
-76.9576
11
161.56
21
-77
0
LINE
8
BLACK
6
CONTINUOUS
10
161.56
20
-77
11
161.56
21
-91
0
LINE
8
BLACK
6
CONTINUOUS
10
161.56
20
-91
11
161.542
21
-91.0424
0
LINE
8
BLACK
6
CONTINUOUS
10
161.542
20
-91.0424
11
161.5
21
-91.06
0
LINE
8
BLACK
6
CONTINUOUS
10
161.5
20
-91.06
11
147.5
21
-91.06
0
LINE
8
BLACK
6
CONTINUOUS
10
147.5
20
-91.06
11
147.458
21
-91.0424
0
LINE
8
BLACK
6
CONTINUOUS
10
147.56
20
-77.06
11
147.56
21
-90.94
0
LINE
8
BLACK
6
CONTINUOUS
10
147.56
20
-90.94
11
161.44
21
-90.94
0
LINE
8
BLACK
6
CONTINUOUS
10
161.44
20
-90.94
11
161.44
21
-77.06
0
LINE
8
BLACK
6
CONTINUOUS
10
161.44
20
-77.06
11
147.56
21
-77.06
0
LINE
8
BLACK
6
CONTINUOUS
10
128.458
20
-87.0424
11
128.44
21
-87
0
LINE
8
BLACK
6
CONTINUOUS
10
128.44
20
-87
11
128.44
21
-73
0
LINE
8
BLACK
6
CONTINUOUS
10
128.44
20
-73
11
128.458
21
-72.9576
0
LINE
8
BLACK
6
CONTINUOUS
10
128.458
20
-72.9576
11
128.5
21
-72.94
0
LINE
8
BLACK
6
CONTINUOUS
10
128.5
20
-72.94
11
142.5
21
-72.94
0
LINE
8
BLACK
6
CONTINUOUS
10
142.5
20
-72.94
11
142.542
21
-72.9576
0
LINE
8
BLACK
6
CONTINUOUS
10
142.542
20
-72.9576
11
142.56
21
-73
0
LINE
8
BLACK
6
CONTINUOUS
10
142.56
20
-73
11
142.56
21
-87
0
LINE
8
BLACK
6
CONTINUOUS
10
142.56
20
-87
11
142.542
21
-87.0424
0
LINE
8
BLACK
6
CONTINUOUS
10
142.542
20
-87.0424
11
142.5
21
-87.06
0
LINE
8
BLACK
6
CONTINUOUS
10
142.5
20
-87.06
11
128.5
21
-87.06
0
LINE
8
BLACK
6
CONTINUOUS
10
128.5
20
-87.06
11
128.458
21
-87.0424
0
LINE
8
BLACK
6
CONTINUOUS
10
128.56
20
-73.06
11
128.56
21
-86.94
0
LINE
8
BLACK
6
CONTINUOUS
10
128.56
20
-86.94
11
142.44
21
-86.94
0
LINE
8
BLACK
6
CONTINUOUS
10
142.44
20
-86.94
11
142.44
21
-73.06
0
LINE
8
BLACK
6
CONTINUOUS
10
142.44
20
-73.06
11
128.56
21
-73.06
0
LINE
8
BLACK
6
CONTINUOUS
10
90.4576
20
-80.0424
11
90.44
21
-80
0
LINE
8
BLACK
6
CONTINUOUS
10
90.44
20
-80
11
90.44
21
-66
0
LINE
8
BLACK
6
CONTINUOUS
10
90.44
20
-66
11
90.4576
21
-65.9576
0
LINE
8
BLACK
6
CONTINUOUS
10
90.4576
20
-65.9576
11
90.5
21
-65.94
0
LINE
8
BLACK
6
CONTINUOUS
10
90.5
20
-65.94
11
104.5
21
-65.94
0
LINE
8
BLACK
6
CONTINUOUS
10
104.5
20
-65.94
11
104.542
21
-65.9576
0
LINE
8
BLACK
6
CONTINUOUS
10
104.542
20
-65.9576
11
104.56
21
-66
0
LINE
8
BLACK
6
CONTINUOUS
10
104.56
20
-66
11
104.56
21
-80
0
LINE
8
BLACK
6
CONTINUOUS
10
104.56
20
-80
11
104.542
21
-80.0424
0
LINE
8
BLACK
6
CONTINUOUS
10
104.542
20
-80.0424
11
104.5
21
-80.06
0
LINE
8
BLACK
6
CONTINUOUS
10
104.5
20
-80.06
11
90.5
21
-80.06
0
LINE
8
BLACK
6
CONTINUOUS
10
90.5
20
-80.06
11
90.4576
21
-80.0424
0
LINE
8
BLACK
6
CONTINUOUS
10
90.56
20
-66.06
11
90.56
21
-79.94
0
LINE
8
BLACK
6
CONTINUOUS
10
90.56
20
-79.94
11
104.44
21
-79.94
0
LINE
8
BLACK
6
CONTINUOUS
10
104.44
20
-79.94
11
104.44
21
-66.06
0
LINE
8
BLACK
6
CONTINUOUS
10
104.44
20
-66.06
11
90.56
21
-66.06
0
LINE
8
BLACK
6
CONTINUOUS
10
166.458
20
-74.5424
11
166.44
21
-74.5
0
LINE
8
BLACK
6
CONTINUOUS
10
166.44
20
-74.5
11
166.44
21
-60.5
0
LINE
8
BLACK
6
CONTINUOUS
10
166.44
20
-60.5
11
166.458
21
-60.4576
0
LINE
8
BLACK
6
CONTINUOUS
10
166.458
20
-60.4576
11
166.5
21
-60.44
0
LINE
8
BLACK
6
CONTINUOUS
10
166.5
20
-60.44
11
180.5
21
-60.44
0
LINE
8
BLACK
6
CONTINUOUS
10
180.5
20
-60.44
11
180.542
21
-60.4576
0
LINE
8
BLACK
6
CONTINUOUS
10
180.542
20
-60.4576
11
180.56
21
-60.5
0
LINE
8
BLACK
6
CONTINUOUS
10
180.56
20
-60.5
11
180.56
21
-74.5
0
LINE
8
BLACK
6
CONTINUOUS
10
180.56
20
-74.5
11
180.542
21
-74.5424
0
LINE
8
BLACK
6
CONTINUOUS
10
180.542
20
-74.5424
11
180.5
21
-74.56
0
LINE
8
BLACK
6
CONTINUOUS
10
180.5
20
-74.56
11
166.5
21
-74.56
0
LINE
8
BLACK
6
CONTINUOUS
10
166.5
20
-74.56
11
166.458
21
-74.5424
0
LINE
8
BLACK
6
CONTINUOUS
10
166.56
20
-60.56
11
166.56
21
-74.44
0
LINE
8
BLACK
6
CONTINUOUS
10
166.56
20
-74.44
11
180.44
21
-74.44
0
LINE
8
BLACK
6
CONTINUOUS
10
180.44
20
-74.44
11
180.44
21
-60.56
0
LINE
8
BLACK
6
CONTINUOUS
10
180.44
20
-60.56
11
166.56
21
-60.56
0
LINE
8
BLACK
6
CONTINUOUS
10
147.458
20
-72.0424
11
147.44
21
-72
0
LINE
8
BLACK
6
CONTINUOUS
10
147.44
20
-72
11
147.44
21
-58
0
LINE
8
BLACK
6
CONTINUOUS
10
147.44
20
-58
11
147.458
21
-57.9576
0
LINE
8
BLACK
6
CONTINUOUS
10
147.458
20
-57.9576
11
147.5
21
-57.94
0
LINE
8
BLACK
6
CONTINUOUS
10
147.5
20
-57.94
11
161.5
21
-57.94
0
LINE
8
BLACK
6
CONTINUOUS
10
161.5
20
-57.94
11
161.542
21
-57.9576
0
LINE
8
BLACK
6
CONTINUOUS
10
161.542
20
-57.9576
11
161.56
21
-58
0
LINE
8
BLACK
6
CONTINUOUS
10
161.56
20
-58
11
161.56
21
-72
0
LINE
8
BLACK
6
CONTINUOUS
10
161.56
20
-72
11
161.542
21
-72.0424
0
LINE
8
BLACK
6
CONTINUOUS
10
161.542
20
-72.0424
11
161.5
21
-72.06
0
LINE
8
BLACK
6
CONTINUOUS
10
161.5
20
-72.06
11
147.5
21
-72.06
0
LINE
8
BLACK
6
CONTINUOUS
10
147.5
20
-72.06
11
147.458
21
-72.0424
0
LINE
8
BLACK
6
CONTINUOUS
10
147.56
20
-58.06
11
147.56
21
-71.94
0
LINE
8
BLACK
6
CONTINUOUS
10
147.56
20
-71.94
11
161.44
21
-71.94
0
LINE
8
BLACK
6
CONTINUOUS
10
161.44
20
-71.94
11
161.44
21
-58.06
0
LINE
8
BLACK
6
CONTINUOUS
10
161.44
20
-58.06
11
147.56
21
-58.06
0
LINE
8
BLACK
6
CONTINUOUS
10
109.458
20
-72.0424
11
109.44
21
-72
0
LINE
8
BLACK
6
CONTINUOUS
10
109.44
20
-72
11
109.44
21
-58
0
LINE
8
BLACK
6
CONTINUOUS
10
109.44
20
-58
11
109.458
21
-57.9576
0
LINE
8
BLACK
6
CONTINUOUS
10
109.458
20
-57.9576
11
109.5
21
-57.94
0
LINE
8
BLACK
6
CONTINUOUS
10
109.5
20
-57.94
11
123.5
21
-57.94
0
LINE
8
BLACK
6
CONTINUOUS
10
123.5
20
-57.94
11
123.542
21
-57.9576
0
LINE
8
BLACK
6
CONTINUOUS
10
123.542
20
-57.9576
11
123.56
21
-58
0
LINE
8
BLACK
6
CONTINUOUS
10
123.56
20
-58
11
123.56
21
-72
0
LINE
8
BLACK
6
CONTINUOUS
10
123.56
20
-72
11
123.542
21
-72.0424
0
LINE
8
BLACK
6
CONTINUOUS
10
123.542
20
-72.0424
11
123.5
21
-72.06
0
LINE
8
BLACK
6
CONTINUOUS
10
123.5
20
-72.06
11
109.5
21
-72.06
0
LINE
8
BLACK
6
CONTINUOUS
10
109.5
20
-72.06
11
109.458
21
-72.0424
0
LINE
8
BLACK
6
CONTINUOUS
10
109.56
20
-58.06
11
109.56
21
-71.94
0
LINE
8
BLACK
6
CONTINUOUS
10
109.56
20
-71.94
11
123.44
21
-71.94
0
LINE
8
BLACK
6
CONTINUOUS
10
123.44
20
-71.94
11
123.44
21
-58.06
0
LINE
8
BLACK
6
CONTINUOUS
10
123.44
20
-58.06
11
109.56
21
-58.06
0
LINE
8
BLACK
6
CONTINUOUS
10
128.458
20
-68.0424
11
128.44
21
-68
0
LINE
8
BLACK
6
CONTINUOUS
10
128.44
20
-68
11
128.44
21
-54
0
LINE
8
BLACK
6
CONTINUOUS
10
128.44
20
-54
11
128.458
21
-53.9576
0
LINE
8
BLACK
6
CONTINUOUS
10
128.458
20
-53.9576
11
128.5
21
-53.94
0
LINE
8
BLACK
6
CONTINUOUS
10
128.5
20
-53.94
11
142.5
21
-53.94
0
LINE
8
BLACK
6
CONTINUOUS
10
142.5
20
-53.94
11
142.542
21
-53.9576
0
LINE
8
BLACK
6
CONTINUOUS
10
142.542
20
-53.9576
11
142.56
21
-54
0
LINE
8
BLACK
6
CONTINUOUS
10
142.56
20
-54
11
142.56
21
-68
0
LINE
8
BLACK
6
CONTINUOUS
10
142.56
20
-68
11
142.542
21
-68.0424
0
LINE
8
BLACK
6
CONTINUOUS
10
142.542
20
-68.0424
11
142.5
21
-68.06
0
LINE
8
BLACK
6
CONTINUOUS
10
142.5
20
-68.06
11
128.5
21
-68.06
0
LINE
8
BLACK
6
CONTINUOUS
10
128.5
20
-68.06
11
128.458
21
-68.0424
0
LINE
8
BLACK
6
CONTINUOUS
10
128.56
20
-54.06
11
128.56
21
-67.94
0
LINE
8
BLACK
6
CONTINUOUS
10
128.56
20
-67.94
11
142.44
21
-67.94
0
LINE
8
BLACK
6
CONTINUOUS
10
142.44
20
-67.94
11
142.44
21
-54.06
0
LINE
8
BLACK
6
CONTINUOUS
10
142.44
20
-54.06
11
128.56
21
-54.06
  0
ENDSEC
  0
EOF
