  0
SECTION
  2
HEADER
  9
$ANGBASE
  50
0.0
  9
$ANGDIR
  70
1
  9
$MEASUREMENT
  70
1
  0
ENDSEC
  0
SECTION
  2
TABLES
  0
TABLE
  2
LTYPE
  70
4
  0
LTYPE
  5
40F
  2
CONTINUOUS
  70
0
  3
Solid line
  72
65
  73
0
  40
0.0
  0
LTYPE
  5
410
  2
DASHDOT
 70
0
  3
Dash Dot ____ _ ____ _
 72
65
 73
4
 40
2.0
 49
1.25
 49
-0.25
 49
0.25
 49
-0.25
  0
LTYPE
  5
411
  2
DASHED
 70
0
  3
Dashed __ __ __ __ __
 72
65
 73
2
 40
0.75
 49
0.5
 49
-0.25
  0
LTYPE
  5
43B
  2
DOTTED
 70
0
  3
Dotted .  .  .  .
 72
65
 73
2
 40
0.2
 49
0.0
 49
-0.2
  0
ENDTAB
  0
TABLE
  2
STYLE
  70
4
  0
STYLE
  2
KICAD
  70
0
  40
0
  41
1
  42
1
  50
0
  71
0
  3
isocp.shx
  0
STYLE
  2
KICADB
  70
0
  40
0
  41
1
  42
1
  50
0
  71
0
  3
isocp.shx
  0
STYLE
  2
KICADI
  70
0
  40
0
  41
1
  42
1
  50
15
  71
0
  3
isocp.shx
  0
STYLE
  2
KICADBI
  70
0
  40
0
  41
1
  42
1
  50
15
  71
0
  3
isocp.shx
  0
ENDTAB
  0
TABLE
  2
LAYER
  70
1
  0
LAYER
  2
BLACK
  70
0
  62
7
  6
CONTINUOUS
  0
ENDTAB
  0
ENDSEC
  0
SECTION
  2
ENTITIES
0
LINE
8
BLACK
6
CONTINUOUS
10
180.681
20
-116.917
11
180.887
21
-116.958
0
LINE
8
BLACK
6
CONTINUOUS
10
180.887
20
-116.958
11
181.083
21
-117.036
0
LINE
8
BLACK
6
CONTINUOUS
10
181.083
20
-117.036
11
181.261
21
-117.148
0
LINE
8
BLACK
6
CONTINUOUS
10
181.261
20
-117.148
11
181.415
21
-117.291
0
LINE
8
BLACK
6
CONTINUOUS
10
181.415
20
-117.291
11
181.541
21
-117.46
0
LINE
8
BLACK
6
CONTINUOUS
10
181.541
20
-117.46
11
181.634
21
-117.649
0
LINE
8
BLACK
6
CONTINUOUS
10
181.634
20
-117.649
11
181.691
21
-117.851
0
LINE
8
BLACK
6
CONTINUOUS
10
181.691
20
-117.851
11
181.711
21
-118.061
0
LINE
8
BLACK
6
CONTINUOUS
10
181.711
20
-118.061
11
181.709
21
-118.121
0
LINE
8
BLACK
6
CONTINUOUS
10
181.709
20
-118.121
11
181.679
21
-118.329
0
LINE
8
BLACK
6
CONTINUOUS
10
181.679
20
-118.329
11
181.611
21
-118.528
0
LINE
8
BLACK
6
CONTINUOUS
10
181.611
20
-118.528
11
181.508
21
-118.712
0
LINE
8
BLACK
6
CONTINUOUS
10
181.508
20
-118.712
11
181.374
21
-118.874
0
LINE
8
BLACK
6
CONTINUOUS
10
181.374
20
-118.874
11
181.212
21
-119.008
0
LINE
8
BLACK
6
CONTINUOUS
10
181.212
20
-119.008
11
181.028
21
-119.111
0
LINE
8
BLACK
6
CONTINUOUS
10
181.028
20
-119.111
11
180.829
21
-119.179
0
LINE
8
BLACK
6
CONTINUOUS
10
180.829
20
-119.179
11
180.621
21
-119.209
0
LINE
8
BLACK
6
CONTINUOUS
10
180.621
20
-119.209
11
180.411
21
-119.201
0
LINE
8
BLACK
6
CONTINUOUS
10
180.411
20
-119.201
11
180.205
21
-119.154
0
LINE
8
BLACK
6
CONTINUOUS
10
180.205
20
-119.154
11
180.012
21
-119.071
0
LINE
8
BLACK
6
CONTINUOUS
10
180.012
20
-119.071
11
179.837
21
-118.954
0
LINE
8
BLACK
6
CONTINUOUS
10
179.837
20
-118.954
11
179.686
21
-118.808
0
LINE
8
BLACK
6
CONTINUOUS
10
179.686
20
-118.808
11
179.565
21
-118.636
0
LINE
8
BLACK
6
CONTINUOUS
10
179.565
20
-118.636
11
179.477
21
-118.445
0
LINE
8
BLACK
6
CONTINUOUS
10
179.477
20
-118.445
11
179.425
21
-118.241
0
LINE
8
BLACK
6
CONTINUOUS
10
179.425
20
-118.241
11
179.411
21
-118.031
0
LINE
8
BLACK
6
CONTINUOUS
10
179.411
20
-118.031
11
179.436
21
-117.822
0
LINE
8
BLACK
6
CONTINUOUS
10
179.436
20
-117.822
11
179.498
21
-117.621
0
LINE
8
BLACK
6
CONTINUOUS
10
179.498
20
-117.621
11
179.596
21
-117.434
0
LINE
8
BLACK
6
CONTINUOUS
10
179.596
20
-117.434
11
179.726
21
-117.269
0
LINE
8
BLACK
6
CONTINUOUS
10
179.726
20
-117.269
11
179.885
21
-117.13
0
LINE
8
BLACK
6
CONTINUOUS
10
179.885
20
-117.13
11
180.066
21
-117.023
0
LINE
8
BLACK
6
CONTINUOUS
10
180.066
20
-117.023
11
180.263
21
-116.95
0
LINE
8
BLACK
6
CONTINUOUS
10
180.263
20
-116.95
11
180.47
21
-116.914
0
LINE
8
BLACK
6
CONTINUOUS
10
180.47
20
-116.914
11
180.681
21
-116.917
0
LINE
8
BLACK
6
CONTINUOUS
10
129.181
20
-102.917
11
129.387
21
-102.958
0
LINE
8
BLACK
6
CONTINUOUS
10
129.387
20
-102.958
11
129.583
21
-103.036
0
LINE
8
BLACK
6
CONTINUOUS
10
129.583
20
-103.036
11
129.761
21
-103.148
0
LINE
8
BLACK
6
CONTINUOUS
10
129.761
20
-103.148
11
129.915
21
-103.291
0
LINE
8
BLACK
6
CONTINUOUS
10
129.915
20
-103.291
11
130.041
21
-103.46
0
LINE
8
BLACK
6
CONTINUOUS
10
130.041
20
-103.46
11
130.134
21
-103.649
0
LINE
8
BLACK
6
CONTINUOUS
10
130.134
20
-103.649
11
130.191
21
-103.851
0
LINE
8
BLACK
6
CONTINUOUS
10
130.191
20
-103.851
11
130.211
21
-104.061
0
LINE
8
BLACK
6
CONTINUOUS
10
130.211
20
-104.061
11
130.209
21
-104.121
0
LINE
8
BLACK
6
CONTINUOUS
10
130.209
20
-104.121
11
130.179
21
-104.329
0
LINE
8
BLACK
6
CONTINUOUS
10
130.179
20
-104.329
11
130.111
21
-104.528
0
LINE
8
BLACK
6
CONTINUOUS
10
130.111
20
-104.528
11
130.008
21
-104.712
0
LINE
8
BLACK
6
CONTINUOUS
10
130.008
20
-104.712
11
129.874
21
-104.874
0
LINE
8
BLACK
6
CONTINUOUS
10
129.874
20
-104.874
11
129.712
21
-105.008
0
LINE
8
BLACK
6
CONTINUOUS
10
129.712
20
-105.008
11
129.528
21
-105.111
0
LINE
8
BLACK
6
CONTINUOUS
10
129.528
20
-105.111
11
129.329
21
-105.179
0
LINE
8
BLACK
6
CONTINUOUS
10
129.329
20
-105.179
11
129.121
21
-105.209
0
LINE
8
BLACK
6
CONTINUOUS
10
129.121
20
-105.209
11
128.911
21
-105.201
0
LINE
8
BLACK
6
CONTINUOUS
10
128.911
20
-105.201
11
128.705
21
-105.154
0
LINE
8
BLACK
6
CONTINUOUS
10
128.705
20
-105.154
11
128.512
21
-105.071
0
LINE
8
BLACK
6
CONTINUOUS
10
128.512
20
-105.071
11
128.337
21
-104.954
0
LINE
8
BLACK
6
CONTINUOUS
10
128.337
20
-104.954
11
128.186
21
-104.808
0
LINE
8
BLACK
6
CONTINUOUS
10
128.186
20
-104.808
11
128.065
21
-104.636
0
LINE
8
BLACK
6
CONTINUOUS
10
128.065
20
-104.636
11
127.977
21
-104.445
0
LINE
8
BLACK
6
CONTINUOUS
10
127.977
20
-104.445
11
127.925
21
-104.241
0
LINE
8
BLACK
6
CONTINUOUS
10
127.925
20
-104.241
11
127.911
21
-104.031
0
LINE
8
BLACK
6
CONTINUOUS
10
127.911
20
-104.031
11
127.936
21
-103.822
0
LINE
8
BLACK
6
CONTINUOUS
10
127.936
20
-103.822
11
127.998
21
-103.621
0
LINE
8
BLACK
6
CONTINUOUS
10
127.998
20
-103.621
11
128.096
21
-103.434
0
LINE
8
BLACK
6
CONTINUOUS
10
128.096
20
-103.434
11
128.226
21
-103.269
0
LINE
8
BLACK
6
CONTINUOUS
10
128.226
20
-103.269
11
128.385
21
-103.13
0
LINE
8
BLACK
6
CONTINUOUS
10
128.385
20
-103.13
11
128.566
21
-103.023
0
LINE
8
BLACK
6
CONTINUOUS
10
128.566
20
-103.023
11
128.763
21
-102.95
0
LINE
8
BLACK
6
CONTINUOUS
10
128.763
20
-102.95
11
128.97
21
-102.914
0
LINE
8
BLACK
6
CONTINUOUS
10
128.97
20
-102.914
11
129.181
21
-102.917
0
LINE
8
BLACK
6
CONTINUOUS
10
89.6809
20
-87.417
11
89.8873
21
-87.458
0
LINE
8
BLACK
6
CONTINUOUS
10
89.8873
20
-87.458
11
90.0827
21
-87.536
0
LINE
8
BLACK
6
CONTINUOUS
10
90.0827
20
-87.536
11
90.2607
21
-87.6483
0
LINE
8
BLACK
6
CONTINUOUS
10
90.2607
20
-87.6483
11
90.4153
21
-87.7912
0
LINE
8
BLACK
6
CONTINUOUS
10
90.4153
20
-87.7912
11
90.5412
21
-87.9598
0
LINE
8
BLACK
6
CONTINUOUS
10
90.5412
20
-87.9598
11
90.6343
21
-88.1485
0
LINE
8
BLACK
6
CONTINUOUS
10
90.6343
20
-88.1485
11
90.6914
21
-88.3511
0
LINE
8
BLACK
6
CONTINUOUS
10
90.6914
20
-88.3511
11
90.7107
21
-88.5607
0
LINE
8
BLACK
6
CONTINUOUS
10
90.7107
20
-88.5607
11
90.7091
21
-88.6208
0
LINE
8
BLACK
6
CONTINUOUS
10
90.7091
20
-88.6208
11
90.6789
21
-88.8291
0
LINE
8
BLACK
6
CONTINUOUS
10
90.6789
20
-88.8291
11
90.6112
21
-89.0284
0
LINE
8
BLACK
6
CONTINUOUS
10
90.6112
20
-89.0284
11
90.5084
21
-89.212
0
LINE
8
BLACK
6
CONTINUOUS
10
90.5084
20
-89.212
11
90.3738
21
-89.3738
0
LINE
8
BLACK
6
CONTINUOUS
10
90.3738
20
-89.3738
11
90.212
21
-89.5084
0
LINE
8
BLACK
6
CONTINUOUS
10
90.212
20
-89.5084
11
90.0284
21
-89.6112
0
LINE
8
BLACK
6
CONTINUOUS
10
90.0284
20
-89.6112
11
89.8291
21
-89.6789
0
LINE
8
BLACK
6
CONTINUOUS
10
89.8291
20
-89.6789
11
89.6208
21
-89.7091
0
LINE
8
BLACK
6
CONTINUOUS
10
89.6208
20
-89.7091
11
89.4106
21
-89.7008
0
LINE
8
BLACK
6
CONTINUOUS
10
89.4106
20
-89.7008
11
89.2053
21
-89.6544
0
LINE
8
BLACK
6
CONTINUOUS
10
89.2053
20
-89.6544
11
89.0119
21
-89.5713
0
LINE
8
BLACK
6
CONTINUOUS
10
89.0119
20
-89.5713
11
88.8369
21
-89.4544
0
LINE
8
BLACK
6
CONTINUOUS
10
88.8369
20
-89.4544
11
88.6862
21
-89.3075
0
LINE
8
BLACK
6
CONTINUOUS
10
88.6862
20
-89.3075
11
88.5647
21
-89.1357
0
LINE
8
BLACK
6
CONTINUOUS
10
88.5647
20
-89.1357
11
88.4766
21
-88.9445
0
LINE
8
BLACK
6
CONTINUOUS
10
88.4766
20
-88.9445
11
88.4248
21
-88.7406
0
LINE
8
BLACK
6
CONTINUOUS
10
88.4248
20
-88.7406
11
88.4111
21
-88.5306
0
LINE
8
BLACK
6
CONTINUOUS
10
88.4111
20
-88.5306
11
88.4358
21
-88.3216
0
LINE
8
BLACK
6
CONTINUOUS
10
88.4358
20
-88.3216
11
88.4982
21
-88.1206
0
LINE
8
BLACK
6
CONTINUOUS
10
88.4982
20
-88.1206
11
88.5962
21
-87.9343
0
LINE
8
BLACK
6
CONTINUOUS
10
88.5962
20
-87.9343
11
88.7265
21
-87.7691
0
LINE
8
BLACK
6
CONTINUOUS
10
88.7265
20
-87.7691
11
88.8847
21
-87.6303
0
LINE
8
BLACK
6
CONTINUOUS
10
88.8847
20
-87.6303
11
89.0656
21
-87.5227
0
LINE
8
BLACK
6
CONTINUOUS
10
89.0656
20
-87.5227
11
89.263
21
-87.4498
0
LINE
8
BLACK
6
CONTINUOUS
10
89.263
20
-87.4498
11
89.4704
21
-87.4142
0
LINE
8
BLACK
6
CONTINUOUS
10
89.4704
20
-87.4142
11
89.6809
21
-87.417
0
LINE
8
BLACK
6
CONTINUOUS
10
167.181
20
-70.917
11
167.387
21
-70.958
0
LINE
8
BLACK
6
CONTINUOUS
10
167.387
20
-70.958
11
167.583
21
-71.036
0
LINE
8
BLACK
6
CONTINUOUS
10
167.583
20
-71.036
11
167.761
21
-71.1483
0
LINE
8
BLACK
6
CONTINUOUS
10
167.761
20
-71.1483
11
167.915
21
-71.2912
0
LINE
8
BLACK
6
CONTINUOUS
10
167.915
20
-71.2912
11
168.041
21
-71.4598
0
LINE
8
BLACK
6
CONTINUOUS
10
168.041
20
-71.4598
11
168.134
21
-71.6485
0
LINE
8
BLACK
6
CONTINUOUS
10
168.134
20
-71.6485
11
168.191
21
-71.8511
0
LINE
8
BLACK
6
CONTINUOUS
10
168.191
20
-71.8511
11
168.211
21
-72.0607
0
LINE
8
BLACK
6
CONTINUOUS
10
168.211
20
-72.0607
11
168.209
21
-72.1208
0
LINE
8
BLACK
6
CONTINUOUS
10
168.209
20
-72.1208
11
168.179
21
-72.3291
0
LINE
8
BLACK
6
CONTINUOUS
10
168.179
20
-72.3291
11
168.111
21
-72.5284
0
LINE
8
BLACK
6
CONTINUOUS
10
168.111
20
-72.5284
11
168.008
21
-72.712
0
LINE
8
BLACK
6
CONTINUOUS
10
168.008
20
-72.712
11
167.874
21
-72.8738
0
LINE
8
BLACK
6
CONTINUOUS
10
167.874
20
-72.8738
11
167.712
21
-73.0084
0
LINE
8
BLACK
6
CONTINUOUS
10
167.712
20
-73.0084
11
167.528
21
-73.1112
0
LINE
8
BLACK
6
CONTINUOUS
10
167.528
20
-73.1112
11
167.329
21
-73.1789
0
LINE
8
BLACK
6
CONTINUOUS
10
167.329
20
-73.1789
11
167.121
21
-73.2091
0
LINE
8
BLACK
6
CONTINUOUS
10
167.121
20
-73.2091
11
166.911
21
-73.2008
0
LINE
8
BLACK
6
CONTINUOUS
10
166.911
20
-73.2008
11
166.705
21
-73.1544
0
LINE
8
BLACK
6
CONTINUOUS
10
166.705
20
-73.1544
11
166.512
21
-73.0713
0
LINE
8
BLACK
6
CONTINUOUS
10
166.512
20
-73.0713
11
166.337
21
-72.9544
0
LINE
8
BLACK
6
CONTINUOUS
10
166.337
20
-72.9544
11
166.186
21
-72.8075
0
LINE
8
BLACK
6
CONTINUOUS
10
166.186
20
-72.8075
11
166.065
21
-72.6357
0
LINE
8
BLACK
6
CONTINUOUS
10
166.065
20
-72.6357
11
165.977
21
-72.4445
0
LINE
8
BLACK
6
CONTINUOUS
10
165.977
20
-72.4445
11
165.925
21
-72.2406
0
LINE
8
BLACK
6
CONTINUOUS
10
165.925
20
-72.2406
11
165.911
21
-72.0306
0
LINE
8
BLACK
6
CONTINUOUS
10
165.911
20
-72.0306
11
165.936
21
-71.8216
0
LINE
8
BLACK
6
CONTINUOUS
10
165.936
20
-71.8216
11
165.998
21
-71.6206
0
LINE
8
BLACK
6
CONTINUOUS
10
165.998
20
-71.6206
11
166.096
21
-71.4343
0
LINE
8
BLACK
6
CONTINUOUS
10
166.096
20
-71.4343
11
166.226
21
-71.2691
0
LINE
8
BLACK
6
CONTINUOUS
10
166.226
20
-71.2691
11
166.385
21
-71.1303
0
LINE
8
BLACK
6
CONTINUOUS
10
166.385
20
-71.1303
11
166.566
21
-71.0227
0
LINE
8
BLACK
6
CONTINUOUS
10
166.566
20
-71.0227
11
166.763
21
-70.9498
0
LINE
8
BLACK
6
CONTINUOUS
10
166.763
20
-70.9498
11
166.97
21
-70.9142
0
LINE
8
BLACK
6
CONTINUOUS
10
166.97
20
-70.9142
11
167.181
21
-70.917
0
LINE
8
BLACK
6
CONTINUOUS
10
109.681
20
-68.417
11
109.887
21
-68.458
0
LINE
8
BLACK
6
CONTINUOUS
10
109.887
20
-68.458
11
110.083
21
-68.536
0
LINE
8
BLACK
6
CONTINUOUS
10
110.083
20
-68.536
11
110.261
21
-68.6483
0
LINE
8
BLACK
6
CONTINUOUS
10
110.261
20
-68.6483
11
110.415
21
-68.7912
0
LINE
8
BLACK
6
CONTINUOUS
10
110.415
20
-68.7912
11
110.541
21
-68.9598
0
LINE
8
BLACK
6
CONTINUOUS
10
110.541
20
-68.9598
11
110.634
21
-69.1485
0
LINE
8
BLACK
6
CONTINUOUS
10
110.634
20
-69.1485
11
110.691
21
-69.3511
0
LINE
8
BLACK
6
CONTINUOUS
10
110.691
20
-69.3511
11
110.711
21
-69.5607
0
LINE
8
BLACK
6
CONTINUOUS
10
110.711
20
-69.5607
11
110.709
21
-69.6208
0
LINE
8
BLACK
6
CONTINUOUS
10
110.709
20
-69.6208
11
110.679
21
-69.8291
0
LINE
8
BLACK
6
CONTINUOUS
10
110.679
20
-69.8291
11
110.611
21
-70.0284
0
LINE
8
BLACK
6
CONTINUOUS
10
110.611
20
-70.0284
11
110.508
21
-70.212
0
LINE
8
BLACK
6
CONTINUOUS
10
110.508
20
-70.212
11
110.374
21
-70.3738
0
LINE
8
BLACK
6
CONTINUOUS
10
110.374
20
-70.3738
11
110.212
21
-70.5084
0
LINE
8
BLACK
6
CONTINUOUS
10
110.212
20
-70.5084
11
110.028
21
-70.6112
0
LINE
8
BLACK
6
CONTINUOUS
10
110.028
20
-70.6112
11
109.829
21
-70.6789
0
LINE
8
BLACK
6
CONTINUOUS
10
109.829
20
-70.6789
11
109.621
21
-70.7091
0
LINE
8
BLACK
6
CONTINUOUS
10
109.621
20
-70.7091
11
109.411
21
-70.7008
0
LINE
8
BLACK
6
CONTINUOUS
10
109.411
20
-70.7008
11
109.205
21
-70.6544
0
LINE
8
BLACK
6
CONTINUOUS
10
109.205
20
-70.6544
11
109.012
21
-70.5713
0
LINE
8
BLACK
6
CONTINUOUS
10
109.012
20
-70.5713
11
108.837
21
-70.4544
0
LINE
8
BLACK
6
CONTINUOUS
10
108.837
20
-70.4544
11
108.686
21
-70.3075
0
LINE
8
BLACK
6
CONTINUOUS
10
108.686
20
-70.3075
11
108.565
21
-70.1357
0
LINE
8
BLACK
6
CONTINUOUS
10
108.565
20
-70.1357
11
108.477
21
-69.9445
0
LINE
8
BLACK
6
CONTINUOUS
10
108.477
20
-69.9445
11
108.425
21
-69.7406
0
LINE
8
BLACK
6
CONTINUOUS
10
108.425
20
-69.7406
11
108.411
21
-69.5306
0
LINE
8
BLACK
6
CONTINUOUS
10
108.411
20
-69.5306
11
108.436
21
-69.3216
0
LINE
8
BLACK
6
CONTINUOUS
10
108.436
20
-69.3216
11
108.498
21
-69.1206
0
LINE
8
BLACK
6
CONTINUOUS
10
108.498
20
-69.1206
11
108.596
21
-68.9343
0
LINE
8
BLACK
6
CONTINUOUS
10
108.596
20
-68.9343
11
108.726
21
-68.7691
0
LINE
8
BLACK
6
CONTINUOUS
10
108.726
20
-68.7691
11
108.885
21
-68.6303
0
LINE
8
BLACK
6
CONTINUOUS
10
108.885
20
-68.6303
11
109.066
21
-68.5227
0
LINE
8
BLACK
6
CONTINUOUS
10
109.066
20
-68.5227
11
109.263
21
-68.4498
0
LINE
8
BLACK
6
CONTINUOUS
10
109.263
20
-68.4498
11
109.47
21
-68.4142
0
LINE
8
BLACK
6
CONTINUOUS
10
109.47
20
-68.4142
11
109.681
21
-68.417
0
LINE
8
BLACK
6
CONTINUOUS
10
147.607
20
-48.5696
11
147.624
21
-48.7882
0
LINE
8
BLACK
6
CONTINUOUS
10
147.624
20
-48.7882
11
147.677
21
-49.0101
0
LINE
8
BLACK
6
CONTINUOUS
10
147.677
20
-49.0101
11
147.765
21
-49.221
0
LINE
8
BLACK
6
CONTINUOUS
10
147.765
20
-49.221
11
147.884
21
-49.4156
0
LINE
8
BLACK
6
CONTINUOUS
10
147.884
20
-49.4156
11
148.032
21
-49.5891
0
LINE
8
BLACK
6
CONTINUOUS
10
148.032
20
-49.5891
11
148.206
21
-49.7373
0
LINE
8
BLACK
6
CONTINUOUS
10
148.206
20
-49.7373
11
148.4
21
-49.8566
0
LINE
8
BLACK
6
CONTINUOUS
10
148.4
20
-49.8566
11
148.611
21
-49.9439
0
LINE
8
BLACK
6
CONTINUOUS
10
148.611
20
-49.9439
11
148.833
21
-49.9972
0
LINE
8
BLACK
6
CONTINUOUS
10
148.833
20
-49.9972
11
149.052
21
-50.0144
0
LINE
8
BLACK
6
CONTINUOUS
10
149.052
20
-50.0144
11
149.061
21
-50.0107
0
LINE
8
BLACK
6
CONTINUOUS
10
149.061
20
-50.0107
11
204.061
21
-50.0107
0
LINE
8
BLACK
6
CONTINUOUS
10
204.061
20
-50.0107
11
204.281
21
-50.0264
0
LINE
8
BLACK
6
CONTINUOUS
10
204.281
20
-50.0264
11
204.497
21
-50.0735
0
LINE
8
BLACK
6
CONTINUOUS
10
204.497
20
-50.0735
11
204.705
21
-50.1507
0
LINE
8
BLACK
6
CONTINUOUS
10
204.705
20
-50.1507
11
204.899
21
-50.2567
0
LINE
8
BLACK
6
CONTINUOUS
10
204.899
20
-50.2567
11
205.076
21
-50.3893
0
LINE
8
BLACK
6
CONTINUOUS
10
205.076
20
-50.3893
11
205.232
21
-50.5456
0
LINE
8
BLACK
6
CONTINUOUS
10
205.232
20
-50.5456
11
205.365
21
-50.7227
0
LINE
8
BLACK
6
CONTINUOUS
10
205.365
20
-50.7227
11
205.471
21
-50.9168
0
LINE
8
BLACK
6
CONTINUOUS
10
205.471
20
-50.9168
11
205.548
21
-51.124
0
LINE
8
BLACK
6
CONTINUOUS
10
205.548
20
-51.124
11
205.595
21
-51.3401
0
LINE
8
BLACK
6
CONTINUOUS
10
205.595
20
-51.3401
11
205.611
21
-51.5606
0
LINE
8
BLACK
6
CONTINUOUS
10
205.611
20
-51.5606
11
205.611
21
-51.5607
0
LINE
8
BLACK
6
CONTINUOUS
10
205.611
20
-51.5607
11
205.611
21
-117.561
0
LINE
8
BLACK
6
CONTINUOUS
10
205.611
20
-117.561
11
205.606
21
-117.573
0
LINE
8
BLACK
6
CONTINUOUS
10
205.606
20
-117.573
11
205.604
21
-117.586
0
LINE
8
BLACK
6
CONTINUOUS
10
205.604
20
-117.586
11
192.153
21
-141.036
0
LINE
8
BLACK
6
CONTINUOUS
10
192.153
20
-141.036
11
192.153
21
-141.037
0
LINE
8
BLACK
6
CONTINUOUS
10
192.153
20
-141.037
11
192.153
21
-141.037
0
LINE
8
BLACK
6
CONTINUOUS
10
192.153
20
-141.037
11
192.153
21
-141.037
0
LINE
8
BLACK
6
CONTINUOUS
10
192.153
20
-141.037
11
192.029
21
-141.22
0
LINE
8
BLACK
6
CONTINUOUS
10
192.029
20
-141.22
11
191.88
21
-141.383
0
LINE
8
BLACK
6
CONTINUOUS
10
191.88
20
-141.383
11
191.71
21
-141.524
0
LINE
8
BLACK
6
CONTINUOUS
10
191.71
20
-141.524
11
191.521
21
-141.639
0
LINE
8
BLACK
6
CONTINUOUS
10
191.521
20
-141.639
11
191.318
21
-141.726
0
LINE
8
BLACK
6
CONTINUOUS
10
191.318
20
-141.726
11
191.104
21
-141.784
0
LINE
8
BLACK
6
CONTINUOUS
10
191.104
20
-141.784
11
190.884
21
-141.81
0
LINE
8
BLACK
6
CONTINUOUS
10
190.884
20
-141.81
11
190.663
21
-141.805
0
LINE
8
BLACK
6
CONTINUOUS
10
190.663
20
-141.805
11
190.445
21
-141.768
0
LINE
8
BLACK
6
CONTINUOUS
10
190.445
20
-141.768
11
190.235
21
-141.701
0
LINE
8
BLACK
6
CONTINUOUS
10
190.235
20
-141.701
11
190.036
21
-141.604
0
LINE
8
BLACK
6
CONTINUOUS
10
190.036
20
-141.604
11
190.036
21
-141.604
0
LINE
8
BLACK
6
CONTINUOUS
10
190.036
20
-141.604
11
190.036
21
-141.604
0
LINE
8
BLACK
6
CONTINUOUS
10
190.036
20
-141.604
11
190.036
21
-141.604
0
LINE
8
BLACK
6
CONTINUOUS
10
190.036
20
-141.604
11
174.541
21
-132.607
0
LINE
8
BLACK
6
CONTINUOUS
10
174.541
20
-132.607
11
156.054
21
-127.611
0
LINE
8
BLACK
6
CONTINUOUS
10
156.054
20
-127.611
11
137.061
21
-127.611
0
LINE
8
BLACK
6
CONTINUOUS
10
137.061
20
-127.611
11
137.052
21
-127.607
0
LINE
8
BLACK
6
CONTINUOUS
10
137.052
20
-127.607
11
137.042
21
-127.607
0
LINE
8
BLACK
6
CONTINUOUS
10
137.042
20
-127.607
11
107.551
21
-116.111
0
LINE
8
BLACK
6
CONTINUOUS
10
107.551
20
-116.111
11
91.0607
21
-116.111
0
LINE
8
BLACK
6
CONTINUOUS
10
91.0607
20
-116.111
11
90.8401
21
-116.095
0
LINE
8
BLACK
6
CONTINUOUS
10
90.8401
20
-116.095
11
90.624
21
-116.048
0
LINE
8
BLACK
6
CONTINUOUS
10
90.624
20
-116.048
11
90.4168
21
-115.971
0
LINE
8
BLACK
6
CONTINUOUS
10
90.4168
20
-115.971
11
90.2227
21
-115.865
0
LINE
8
BLACK
6
CONTINUOUS
10
90.2227
20
-115.865
11
90.0457
21
-115.732
0
LINE
8
BLACK
6
CONTINUOUS
10
90.0457
20
-115.732
11
89.8893
21
-115.576
0
LINE
8
BLACK
6
CONTINUOUS
10
89.8893
20
-115.576
11
89.7568
21
-115.399
0
LINE
8
BLACK
6
CONTINUOUS
10
89.7568
20
-115.399
11
89.6508
21
-115.205
0
LINE
8
BLACK
6
CONTINUOUS
10
89.6508
20
-115.205
11
89.5735
21
-114.997
0
LINE
8
BLACK
6
CONTINUOUS
10
89.5735
20
-114.997
11
89.5265
21
-114.781
0
LINE
8
BLACK
6
CONTINUOUS
10
89.5265
20
-114.781
11
89.5108
21
-114.561
0
LINE
8
BLACK
6
CONTINUOUS
10
89.5108
20
-114.561
11
89.5107
21
-114.561
0
LINE
8
BLACK
6
CONTINUOUS
10
89.5107
20
-114.561
11
89.5107
21
-109.561
0
LINE
8
BLACK
6
CONTINUOUS
10
89.5107
20
-109.561
11
89.5145
21
-109.551
0
LINE
8
BLACK
6
CONTINUOUS
10
89.5145
20
-109.551
11
89.4973
21
-109.333
0
LINE
8
BLACK
6
CONTINUOUS
10
89.4973
20
-109.333
11
89.444
21
-109.111
0
LINE
8
BLACK
6
CONTINUOUS
10
89.444
20
-109.111
11
89.3567
21
-108.9
0
LINE
8
BLACK
6
CONTINUOUS
10
89.3567
20
-108.9
11
89.2374
21
-108.706
0
LINE
8
BLACK
6
CONTINUOUS
10
89.2374
20
-108.706
11
89.0892
21
-108.532
0
LINE
8
BLACK
6
CONTINUOUS
10
89.0892
20
-108.532
11
88.9156
21
-108.384
0
LINE
8
BLACK
6
CONTINUOUS
10
88.9156
20
-108.384
11
88.721
21
-108.265
0
LINE
8
BLACK
6
CONTINUOUS
10
88.721
20
-108.265
11
88.5101
21
-108.177
0
LINE
8
BLACK
6
CONTINUOUS
10
88.5101
20
-108.177
11
88.2882
21
-108.124
0
LINE
8
BLACK
6
CONTINUOUS
10
88.2882
20
-108.124
11
88.0698
21
-108.107
0
LINE
8
BLACK
6
CONTINUOUS
10
88.0698
20
-108.107
11
88.0607
21
-108.111
0
LINE
8
BLACK
6
CONTINUOUS
10
88.0607
20
-108.111
11
72.0607
21
-108.111
0
LINE
8
BLACK
6
CONTINUOUS
10
72.0607
20
-108.111
11
71.8401
21
-108.095
0
LINE
8
BLACK
6
CONTINUOUS
10
71.8401
20
-108.095
11
71.624
21
-108.048
0
LINE
8
BLACK
6
CONTINUOUS
10
71.624
20
-108.048
11
71.4168
21
-107.971
0
LINE
8
BLACK
6
CONTINUOUS
10
71.4168
20
-107.971
11
71.2227
21
-107.865
0
LINE
8
BLACK
6
CONTINUOUS
10
71.2227
20
-107.865
11
71.0457
21
-107.732
0
LINE
8
BLACK
6
CONTINUOUS
10
71.0457
20
-107.732
11
70.8893
21
-107.576
0
LINE
8
BLACK
6
CONTINUOUS
10
70.8893
20
-107.576
11
70.7568
21
-107.399
0
LINE
8
BLACK
6
CONTINUOUS
10
70.7568
20
-107.399
11
70.6508
21
-107.205
0
LINE
8
BLACK
6
CONTINUOUS
10
70.6508
20
-107.205
11
70.5735
21
-106.997
0
LINE
8
BLACK
6
CONTINUOUS
10
70.5735
20
-106.997
11
70.5265
21
-106.781
0
LINE
8
BLACK
6
CONTINUOUS
10
70.5265
20
-106.781
11
70.5108
21
-106.561
0
LINE
8
BLACK
6
CONTINUOUS
10
70.5108
20
-106.561
11
70.5107
21
-106.561
0
LINE
8
BLACK
6
CONTINUOUS
10
70.5107
20
-106.561
11
70.5107
21
-70.5607
0
LINE
8
BLACK
6
CONTINUOUS
10
70.5107
20
-70.5607
11
70.5264
21
-70.3401
0
LINE
8
BLACK
6
CONTINUOUS
10
70.5264
20
-70.3401
11
70.5735
21
-70.124
0
LINE
8
BLACK
6
CONTINUOUS
10
70.5735
20
-70.124
11
70.6507
21
-69.9168
0
LINE
8
BLACK
6
CONTINUOUS
10
70.6507
20
-69.9168
11
70.7567
21
-69.7227
0
LINE
8
BLACK
6
CONTINUOUS
10
70.7567
20
-69.7227
11
70.8893
21
-69.5456
0
LINE
8
BLACK
6
CONTINUOUS
10
70.8893
20
-69.5456
11
71.0456
21
-69.3893
0
LINE
8
BLACK
6
CONTINUOUS
10
71.0456
20
-69.3893
11
71.2227
21
-69.2567
0
LINE
8
BLACK
6
CONTINUOUS
10
71.2227
20
-69.2567
11
71.4168
21
-69.1507
0
LINE
8
BLACK
6
CONTINUOUS
10
71.4168
20
-69.1507
11
71.624
21
-69.0735
0
LINE
8
BLACK
6
CONTINUOUS
10
71.624
20
-69.0735
11
71.8401
21
-69.0264
0
LINE
8
BLACK
6
CONTINUOUS
10
71.8401
20
-69.0264
11
72.0607
21
-69.0107
0
LINE
8
BLACK
6
CONTINUOUS
10
72.0607
20
-69.0107
11
88.0607
21
-69.0107
0
LINE
8
BLACK
6
CONTINUOUS
10
88.0607
20
-69.0107
11
88.0698
21
-69.0144
0
LINE
8
BLACK
6
CONTINUOUS
10
88.0698
20
-69.0144
11
88.2882
21
-68.9972
0
LINE
8
BLACK
6
CONTINUOUS
10
88.2882
20
-68.9972
11
88.5101
21
-68.944
0
LINE
8
BLACK
6
CONTINUOUS
10
88.5101
20
-68.944
11
88.721
21
-68.8566
0
LINE
8
BLACK
6
CONTINUOUS
10
88.721
20
-68.8566
11
88.9156
21
-68.7374
0
LINE
8
BLACK
6
CONTINUOUS
10
88.9156
20
-68.7374
11
89.0891
21
-68.5891
0
LINE
8
BLACK
6
CONTINUOUS
10
89.0891
20
-68.5891
11
89.2374
21
-68.4156
0
LINE
8
BLACK
6
CONTINUOUS
10
89.2374
20
-68.4156
11
89.3566
21
-68.221
0
LINE
8
BLACK
6
CONTINUOUS
10
89.3566
20
-68.221
11
89.444
21
-68.0101
0
LINE
8
BLACK
6
CONTINUOUS
10
89.444
20
-68.0101
11
89.4972
21
-67.7882
0
LINE
8
BLACK
6
CONTINUOUS
10
89.4972
20
-67.7882
11
89.5144
21
-67.5698
0
LINE
8
BLACK
6
CONTINUOUS
10
89.5144
20
-67.5698
11
89.5107
21
-67.5607
0
LINE
8
BLACK
6
CONTINUOUS
10
89.5107
20
-67.5607
11
89.5107
21
-59.5607
0
LINE
8
BLACK
6
CONTINUOUS
10
89.5107
20
-59.5607
11
89.5264
21
-59.3401
0
LINE
8
BLACK
6
CONTINUOUS
10
89.5264
20
-59.3401
11
89.5735
21
-59.124
0
LINE
8
BLACK
6
CONTINUOUS
10
89.5735
20
-59.124
11
89.6507
21
-58.9168
0
LINE
8
BLACK
6
CONTINUOUS
10
89.6507
20
-58.9168
11
89.7567
21
-58.7227
0
LINE
8
BLACK
6
CONTINUOUS
10
89.7567
20
-58.7227
11
89.8893
21
-58.5456
0
LINE
8
BLACK
6
CONTINUOUS
10
89.8893
20
-58.5456
11
90.0456
21
-58.3893
0
LINE
8
BLACK
6
CONTINUOUS
10
90.0456
20
-58.3893
11
90.2227
21
-58.2567
0
LINE
8
BLACK
6
CONTINUOUS
10
90.2227
20
-58.2567
11
90.4168
21
-58.1507
0
LINE
8
BLACK
6
CONTINUOUS
10
90.4168
20
-58.1507
11
90.624
21
-58.0735
0
LINE
8
BLACK
6
CONTINUOUS
10
90.624
20
-58.0735
11
90.8401
21
-58.0264
0
LINE
8
BLACK
6
CONTINUOUS
10
90.8401
20
-58.0264
11
91.0607
21
-58.0107
0
LINE
8
BLACK
6
CONTINUOUS
10
91.0607
20
-58.0107
11
107.061
21
-58.0107
0
LINE
8
BLACK
6
CONTINUOUS
10
107.061
20
-58.0107
11
107.07
21
-58.0144
0
LINE
8
BLACK
6
CONTINUOUS
10
107.07
20
-58.0144
11
107.288
21
-57.9972
0
LINE
8
BLACK
6
CONTINUOUS
10
107.288
20
-57.9972
11
107.51
21
-57.944
0
LINE
8
BLACK
6
CONTINUOUS
10
107.51
20
-57.944
11
107.721
21
-57.8566
0
LINE
8
BLACK
6
CONTINUOUS
10
107.721
20
-57.8566
11
107.916
21
-57.7374
0
LINE
8
BLACK
6
CONTINUOUS
10
107.916
20
-57.7374
11
108.089
21
-57.5891
0
LINE
8
BLACK
6
CONTINUOUS
10
108.089
20
-57.5891
11
108.237
21
-57.4156
0
LINE
8
BLACK
6
CONTINUOUS
10
108.237
20
-57.4156
11
108.357
21
-57.221
0
LINE
8
BLACK
6
CONTINUOUS
10
108.357
20
-57.221
11
108.444
21
-57.0101
0
LINE
8
BLACK
6
CONTINUOUS
10
108.444
20
-57.0101
11
108.497
21
-56.7882
0
LINE
8
BLACK
6
CONTINUOUS
10
108.497
20
-56.7882
11
108.514
21
-56.5698
0
LINE
8
BLACK
6
CONTINUOUS
10
108.514
20
-56.5698
11
108.511
21
-56.5607
0
LINE
8
BLACK
6
CONTINUOUS
10
108.511
20
-56.5607
11
108.511
21
-51.5607
0
LINE
8
BLACK
6
CONTINUOUS
10
108.511
20
-51.5607
11
108.526
21
-51.3401
0
LINE
8
BLACK
6
CONTINUOUS
10
108.526
20
-51.3401
11
108.573
21
-51.124
0
LINE
8
BLACK
6
CONTINUOUS
10
108.573
20
-51.124
11
108.651
21
-50.9168
0
LINE
8
BLACK
6
CONTINUOUS
10
108.651
20
-50.9168
11
108.757
21
-50.7227
0
LINE
8
BLACK
6
CONTINUOUS
10
108.757
20
-50.7227
11
108.889
21
-50.5456
0
LINE
8
BLACK
6
CONTINUOUS
10
108.889
20
-50.5456
11
109.046
21
-50.3893
0
LINE
8
BLACK
6
CONTINUOUS
10
109.046
20
-50.3893
11
109.223
21
-50.2567
0
LINE
8
BLACK
6
CONTINUOUS
10
109.223
20
-50.2567
11
109.417
21
-50.1507
0
LINE
8
BLACK
6
CONTINUOUS
10
109.417
20
-50.1507
11
109.624
21
-50.0735
0
LINE
8
BLACK
6
CONTINUOUS
10
109.624
20
-50.0735
11
109.84
21
-50.0264
0
LINE
8
BLACK
6
CONTINUOUS
10
109.84
20
-50.0264
11
110.061
21
-50.0107
0
LINE
8
BLACK
6
CONTINUOUS
10
110.061
20
-50.0107
11
126.061
21
-50.0107
0
LINE
8
BLACK
6
CONTINUOUS
10
126.061
20
-50.0107
11
126.07
21
-50.0144
0
LINE
8
BLACK
6
CONTINUOUS
10
126.07
20
-50.0144
11
126.288
21
-49.9972
0
LINE
8
BLACK
6
CONTINUOUS
10
126.288
20
-49.9972
11
126.51
21
-49.944
0
LINE
8
BLACK
6
CONTINUOUS
10
126.51
20
-49.944
11
126.721
21
-49.8566
0
LINE
8
BLACK
6
CONTINUOUS
10
126.721
20
-49.8566
11
126.916
21
-49.7374
0
LINE
8
BLACK
6
CONTINUOUS
10
126.916
20
-49.7374
11
127.089
21
-49.5891
0
LINE
8
BLACK
6
CONTINUOUS
10
127.089
20
-49.5891
11
127.237
21
-49.4156
0
LINE
8
BLACK
6
CONTINUOUS
10
127.237
20
-49.4156
11
127.357
21
-49.221
0
LINE
8
BLACK
6
CONTINUOUS
10
127.357
20
-49.221
11
127.444
21
-49.0101
0
LINE
8
BLACK
6
CONTINUOUS
10
127.444
20
-49.0101
11
127.497
21
-48.7882
0
LINE
8
BLACK
6
CONTINUOUS
10
127.497
20
-48.7882
11
127.514
21
-48.5698
0
LINE
8
BLACK
6
CONTINUOUS
10
127.514
20
-48.5698
11
127.511
21
-48.5607
0
LINE
8
BLACK
6
CONTINUOUS
10
127.511
20
-48.5607
11
127.511
21
-47.5607
0
LINE
8
BLACK
6
CONTINUOUS
10
127.511
20
-47.5607
11
127.526
21
-47.3401
0
LINE
8
BLACK
6
CONTINUOUS
10
127.526
20
-47.3401
11
127.573
21
-47.124
0
LINE
8
BLACK
6
CONTINUOUS
10
127.573
20
-47.124
11
127.651
21
-46.9168
0
LINE
8
BLACK
6
CONTINUOUS
10
127.651
20
-46.9168
11
127.757
21
-46.7227
0
LINE
8
BLACK
6
CONTINUOUS
10
127.757
20
-46.7227
11
127.889
21
-46.5456
0
LINE
8
BLACK
6
CONTINUOUS
10
127.889
20
-46.5456
11
128.046
21
-46.3893
0
LINE
8
BLACK
6
CONTINUOUS
10
128.046
20
-46.3893
11
128.223
21
-46.2567
0
LINE
8
BLACK
6
CONTINUOUS
10
128.223
20
-46.2567
11
128.417
21
-46.1507
0
LINE
8
BLACK
6
CONTINUOUS
10
128.417
20
-46.1507
11
128.624
21
-46.0735
0
LINE
8
BLACK
6
CONTINUOUS
10
128.624
20
-46.0735
11
128.84
21
-46.0264
0
LINE
8
BLACK
6
CONTINUOUS
10
128.84
20
-46.0264
11
129.061
21
-46.0107
0
LINE
8
BLACK
6
CONTINUOUS
10
129.061
20
-46.0107
11
146.061
21
-46.0107
0
LINE
8
BLACK
6
CONTINUOUS
10
146.061
20
-46.0107
11
146.281
21
-46.0264
0
LINE
8
BLACK
6
CONTINUOUS
10
146.281
20
-46.0264
11
146.497
21
-46.0734
0
LINE
8
BLACK
6
CONTINUOUS
10
146.497
20
-46.0734
11
146.705
21
-46.1507
0
LINE
8
BLACK
6
CONTINUOUS
10
146.705
20
-46.1507
11
146.899
21
-46.2567
0
LINE
8
BLACK
6
CONTINUOUS
10
146.899
20
-46.2567
11
147.076
21
-46.3892
0
LINE
8
BLACK
6
CONTINUOUS
10
147.076
20
-46.3892
11
147.232
21
-46.5456
0
LINE
8
BLACK
6
CONTINUOUS
10
147.232
20
-46.5456
11
147.365
21
-46.7226
0
LINE
8
BLACK
6
CONTINUOUS
10
147.365
20
-46.7226
11
147.471
21
-46.9168
0
LINE
8
BLACK
6
CONTINUOUS
10
147.471
20
-46.9168
11
147.548
21
-47.124
0
LINE
8
BLACK
6
CONTINUOUS
10
147.548
20
-47.124
11
147.595
21
-47.3401
0
LINE
8
BLACK
6
CONTINUOUS
10
147.595
20
-47.3401
11
147.611
21
-47.5607
0
LINE
8
BLACK
6
CONTINUOUS
10
147.611
20
-47.5607
11
147.611
21
-47.5607
0
LINE
8
BLACK
6
CONTINUOUS
10
147.611
20
-47.5607
11
147.611
21
-48.5607
0
LINE
8
BLACK
6
CONTINUOUS
10
147.611
20
-48.5607
11
147.607
21
-48.5696
0
LINE
8
BLACK
6
CONTINUOUS
10
129.052
20
-46.1069
11
128.833
21
-46.1241
0
LINE
8
BLACK
6
CONTINUOUS
10
128.833
20
-46.1241
11
128.611
21
-46.1774
0
LINE
8
BLACK
6
CONTINUOUS
10
128.611
20
-46.1774
11
128.4
21
-46.2647
0
LINE
8
BLACK
6
CONTINUOUS
10
128.4
20
-46.2647
11
128.206
21
-46.384
0
LINE
8
BLACK
6
CONTINUOUS
10
128.206
20
-46.384
11
128.032
21
-46.5322
0
LINE
8
BLACK
6
CONTINUOUS
10
128.032
20
-46.5322
11
127.884
21
-46.7057
0
LINE
8
BLACK
6
CONTINUOUS
10
127.884
20
-46.7057
11
127.765
21
-46.9003
0
LINE
8
BLACK
6
CONTINUOUS
10
127.765
20
-46.9003
11
127.677
21
-47.1112
0
LINE
8
BLACK
6
CONTINUOUS
10
127.677
20
-47.1112
11
127.624
21
-47.3331
0
LINE
8
BLACK
6
CONTINUOUS
10
127.624
20
-47.3331
11
127.607
21
-47.5516
0
LINE
8
BLACK
6
CONTINUOUS
10
127.607
20
-47.5516
11
127.611
21
-47.5607
0
LINE
8
BLACK
6
CONTINUOUS
10
127.611
20
-47.5607
11
127.611
21
-48.5607
0
LINE
8
BLACK
6
CONTINUOUS
10
127.611
20
-48.5607
11
127.595
21
-48.7812
0
LINE
8
BLACK
6
CONTINUOUS
10
127.595
20
-48.7812
11
127.548
21
-48.9973
0
LINE
8
BLACK
6
CONTINUOUS
10
127.548
20
-48.9973
11
127.471
21
-49.2046
0
LINE
8
BLACK
6
CONTINUOUS
10
127.471
20
-49.2046
11
127.365
21
-49.3987
0
LINE
8
BLACK
6
CONTINUOUS
10
127.365
20
-49.3987
11
127.232
21
-49.5757
0
LINE
8
BLACK
6
CONTINUOUS
10
127.232
20
-49.5757
11
127.076
21
-49.7321
0
LINE
8
BLACK
6
CONTINUOUS
10
127.076
20
-49.7321
11
126.899
21
-49.8646
0
LINE
8
BLACK
6
CONTINUOUS
10
126.899
20
-49.8646
11
126.705
21
-49.9706
0
LINE
8
BLACK
6
CONTINUOUS
10
126.705
20
-49.9706
11
126.497
21
-50.0479
0
LINE
8
BLACK
6
CONTINUOUS
10
126.497
20
-50.0479
11
126.281
21
-50.0949
0
LINE
8
BLACK
6
CONTINUOUS
10
126.281
20
-50.0949
11
126.061
21
-50.1107
0
LINE
8
BLACK
6
CONTINUOUS
10
126.061
20
-50.1107
11
110.061
21
-50.1107
0
LINE
8
BLACK
6
CONTINUOUS
10
110.061
20
-50.1107
11
110.052
21
-50.1069
0
LINE
8
BLACK
6
CONTINUOUS
10
110.052
20
-50.1069
11
109.833
21
-50.1241
0
LINE
8
BLACK
6
CONTINUOUS
10
109.833
20
-50.1241
11
109.611
21
-50.1774
0
LINE
8
BLACK
6
CONTINUOUS
10
109.611
20
-50.1774
11
109.4
21
-50.2647
0
LINE
8
BLACK
6
CONTINUOUS
10
109.4
20
-50.2647
11
109.206
21
-50.384
0
LINE
8
BLACK
6
CONTINUOUS
10
109.206
20
-50.384
11
109.032
21
-50.5322
0
LINE
8
BLACK
6
CONTINUOUS
10
109.032
20
-50.5322
11
108.884
21
-50.7057
0
LINE
8
BLACK
6
CONTINUOUS
10
108.884
20
-50.7057
11
108.765
21
-50.9003
0
LINE
8
BLACK
6
CONTINUOUS
10
108.765
20
-50.9003
11
108.677
21
-51.1112
0
LINE
8
BLACK
6
CONTINUOUS
10
108.677
20
-51.1112
11
108.624
21
-51.3331
0
LINE
8
BLACK
6
CONTINUOUS
10
108.624
20
-51.3331
11
108.607
21
-51.5516
0
LINE
8
BLACK
6
CONTINUOUS
10
108.607
20
-51.5516
11
108.611
21
-51.5607
0
LINE
8
BLACK
6
CONTINUOUS
10
108.611
20
-51.5607
11
108.611
21
-56.5607
0
LINE
8
BLACK
6
CONTINUOUS
10
108.611
20
-56.5607
11
108.595
21
-56.7812
0
LINE
8
BLACK
6
CONTINUOUS
10
108.595
20
-56.7812
11
108.548
21
-56.9973
0
LINE
8
BLACK
6
CONTINUOUS
10
108.548
20
-56.9973
11
108.471
21
-57.2046
0
LINE
8
BLACK
6
CONTINUOUS
10
108.471
20
-57.2046
11
108.365
21
-57.3987
0
LINE
8
BLACK
6
CONTINUOUS
10
108.365
20
-57.3987
11
108.232
21
-57.5757
0
LINE
8
BLACK
6
CONTINUOUS
10
108.232
20
-57.5757
11
108.076
21
-57.7321
0
LINE
8
BLACK
6
CONTINUOUS
10
108.076
20
-57.7321
11
107.899
21
-57.8646
0
LINE
8
BLACK
6
CONTINUOUS
10
107.899
20
-57.8646
11
107.705
21
-57.9706
0
LINE
8
BLACK
6
CONTINUOUS
10
107.705
20
-57.9706
11
107.497
21
-58.0479
0
LINE
8
BLACK
6
CONTINUOUS
10
107.497
20
-58.0479
11
107.281
21
-58.0949
0
LINE
8
BLACK
6
CONTINUOUS
10
107.281
20
-58.0949
11
107.061
21
-58.1107
0
LINE
8
BLACK
6
CONTINUOUS
10
107.061
20
-58.1107
11
91.0607
21
-58.1107
0
LINE
8
BLACK
6
CONTINUOUS
10
91.0607
20
-58.1107
11
91.0516
21
-58.1069
0
LINE
8
BLACK
6
CONTINUOUS
10
91.0516
20
-58.1069
11
90.8331
21
-58.1241
0
LINE
8
BLACK
6
CONTINUOUS
10
90.8331
20
-58.1241
11
90.6112
21
-58.1774
0
LINE
8
BLACK
6
CONTINUOUS
10
90.6112
20
-58.1774
11
90.4003
21
-58.2647
0
LINE
8
BLACK
6
CONTINUOUS
10
90.4003
20
-58.2647
11
90.2057
21
-58.384
0
LINE
8
BLACK
6
CONTINUOUS
10
90.2057
20
-58.384
11
90.0322
21
-58.5322
0
LINE
8
BLACK
6
CONTINUOUS
10
90.0322
20
-58.5322
11
89.884
21
-58.7057
0
LINE
8
BLACK
6
CONTINUOUS
10
89.884
20
-58.7057
11
89.7647
21
-58.9003
0
LINE
8
BLACK
6
CONTINUOUS
10
89.7647
20
-58.9003
11
89.6774
21
-59.1112
0
LINE
8
BLACK
6
CONTINUOUS
10
89.6774
20
-59.1112
11
89.6241
21
-59.3331
0
LINE
8
BLACK
6
CONTINUOUS
10
89.6241
20
-59.3331
11
89.6069
21
-59.5516
0
LINE
8
BLACK
6
CONTINUOUS
10
89.6069
20
-59.5516
11
89.6107
21
-59.5607
0
LINE
8
BLACK
6
CONTINUOUS
10
89.6107
20
-59.5607
11
89.6107
21
-67.5607
0
LINE
8
BLACK
6
CONTINUOUS
10
89.6107
20
-67.5607
11
89.5949
21
-67.7812
0
LINE
8
BLACK
6
CONTINUOUS
10
89.5949
20
-67.7812
11
89.5479
21
-67.9973
0
LINE
8
BLACK
6
CONTINUOUS
10
89.5479
20
-67.9973
11
89.4706
21
-68.2046
0
LINE
8
BLACK
6
CONTINUOUS
10
89.4706
20
-68.2046
11
89.3646
21
-68.3987
0
LINE
8
BLACK
6
CONTINUOUS
10
89.3646
20
-68.3987
11
89.2321
21
-68.5757
0
LINE
8
BLACK
6
CONTINUOUS
10
89.2321
20
-68.5757
11
89.0757
21
-68.7321
0
LINE
8
BLACK
6
CONTINUOUS
10
89.0757
20
-68.7321
11
88.8987
21
-68.8646
0
LINE
8
BLACK
6
CONTINUOUS
10
88.8987
20
-68.8646
11
88.7046
21
-68.9706
0
LINE
8
BLACK
6
CONTINUOUS
10
88.7046
20
-68.9706
11
88.4973
21
-69.0479
0
LINE
8
BLACK
6
CONTINUOUS
10
88.4973
20
-69.0479
11
88.2812
21
-69.0949
0
LINE
8
BLACK
6
CONTINUOUS
10
88.2812
20
-69.0949
11
88.0607
21
-69.1107
0
LINE
8
BLACK
6
CONTINUOUS
10
88.0607
20
-69.1107
11
72.0607
21
-69.1107
0
LINE
8
BLACK
6
CONTINUOUS
10
72.0607
20
-69.1107
11
72.0516
21
-69.1069
0
LINE
8
BLACK
6
CONTINUOUS
10
72.0516
20
-69.1069
11
71.8331
21
-69.1241
0
LINE
8
BLACK
6
CONTINUOUS
10
71.8331
20
-69.1241
11
71.6112
21
-69.1774
0
LINE
8
BLACK
6
CONTINUOUS
10
71.6112
20
-69.1774
11
71.4003
21
-69.2647
0
LINE
8
BLACK
6
CONTINUOUS
10
71.4003
20
-69.2647
11
71.2057
21
-69.384
0
LINE
8
BLACK
6
CONTINUOUS
10
71.2057
20
-69.384
11
71.0322
21
-69.5322
0
LINE
8
BLACK
6
CONTINUOUS
10
71.0322
20
-69.5322
11
70.884
21
-69.7057
0
LINE
8
BLACK
6
CONTINUOUS
10
70.884
20
-69.7057
11
70.7647
21
-69.9003
0
LINE
8
BLACK
6
CONTINUOUS
10
70.7647
20
-69.9003
11
70.6774
21
-70.1112
0
LINE
8
BLACK
6
CONTINUOUS
10
70.6774
20
-70.1112
11
70.6241
21
-70.3331
0
LINE
8
BLACK
6
CONTINUOUS
10
70.6241
20
-70.3331
11
70.6069
21
-70.5516
0
LINE
8
BLACK
6
CONTINUOUS
10
70.6069
20
-70.5516
11
70.6107
21
-70.5607
0
LINE
8
BLACK
6
CONTINUOUS
10
70.6107
20
-70.5607
11
70.6107
21
-106.561
0
LINE
8
BLACK
6
CONTINUOUS
10
70.6107
20
-106.561
11
70.607
21
-106.57
0
LINE
8
BLACK
6
CONTINUOUS
10
70.607
20
-106.57
11
70.6242
21
-106.788
0
LINE
8
BLACK
6
CONTINUOUS
10
70.6242
20
-106.788
11
70.6774
21
-107.01
0
LINE
8
BLACK
6
CONTINUOUS
10
70.6774
20
-107.01
11
70.7648
21
-107.221
0
LINE
8
BLACK
6
CONTINUOUS
10
70.7648
20
-107.221
11
70.884
21
-107.416
0
LINE
8
BLACK
6
CONTINUOUS
10
70.884
20
-107.416
11
71.0322
21
-107.589
0
LINE
8
BLACK
6
CONTINUOUS
10
71.0322
20
-107.589
11
71.2058
21
-107.737
0
LINE
8
BLACK
6
CONTINUOUS
10
71.2058
20
-107.737
11
71.4004
21
-107.857
0
LINE
8
BLACK
6
CONTINUOUS
10
71.4004
20
-107.857
11
71.6112
21
-107.944
0
LINE
8
BLACK
6
CONTINUOUS
10
71.6112
20
-107.944
11
71.8331
21
-107.997
0
LINE
8
BLACK
6
CONTINUOUS
10
71.8331
20
-107.997
11
72.0516
21
-108.014
0
LINE
8
BLACK
6
CONTINUOUS
10
72.0516
20
-108.014
11
72.0607
21
-108.011
0
LINE
8
BLACK
6
CONTINUOUS
10
72.0607
20
-108.011
11
88.0607
21
-108.011
0
LINE
8
BLACK
6
CONTINUOUS
10
88.0607
20
-108.011
11
88.2813
21
-108.026
0
LINE
8
BLACK
6
CONTINUOUS
10
88.2813
20
-108.026
11
88.4974
21
-108.073
0
LINE
8
BLACK
6
CONTINUOUS
10
88.4974
20
-108.073
11
88.7046
21
-108.151
0
LINE
8
BLACK
6
CONTINUOUS
10
88.7046
20
-108.151
11
88.8987
21
-108.257
0
LINE
8
BLACK
6
CONTINUOUS
10
88.8987
20
-108.257
11
89.0757
21
-108.389
0
LINE
8
BLACK
6
CONTINUOUS
10
89.0757
20
-108.389
11
89.2321
21
-108.546
0
LINE
8
BLACK
6
CONTINUOUS
10
89.2321
20
-108.546
11
89.3647
21
-108.723
0
LINE
8
BLACK
6
CONTINUOUS
10
89.3647
20
-108.723
11
89.4706
21
-108.917
0
LINE
8
BLACK
6
CONTINUOUS
10
89.4706
20
-108.917
11
89.5479
21
-109.124
0
LINE
8
BLACK
6
CONTINUOUS
10
89.5479
20
-109.124
11
89.595
21
-109.34
0
LINE
8
BLACK
6
CONTINUOUS
10
89.595
20
-109.34
11
89.6107
21
-109.561
0
LINE
8
BLACK
6
CONTINUOUS
10
89.6107
20
-109.561
11
89.6107
21
-109.561
0
LINE
8
BLACK
6
CONTINUOUS
10
89.6107
20
-109.561
11
89.6107
21
-114.561
0
LINE
8
BLACK
6
CONTINUOUS
10
89.6107
20
-114.561
11
89.607
21
-114.57
0
LINE
8
BLACK
6
CONTINUOUS
10
89.607
20
-114.57
11
89.6242
21
-114.788
0
LINE
8
BLACK
6
CONTINUOUS
10
89.6242
20
-114.788
11
89.6774
21
-115.01
0
LINE
8
BLACK
6
CONTINUOUS
10
89.6774
20
-115.01
11
89.7648
21
-115.221
0
LINE
8
BLACK
6
CONTINUOUS
10
89.7648
20
-115.221
11
89.884
21
-115.416
0
LINE
8
BLACK
6
CONTINUOUS
10
89.884
20
-115.416
11
90.0322
21
-115.589
0
LINE
8
BLACK
6
CONTINUOUS
10
90.0322
20
-115.589
11
90.2058
21
-115.737
0
LINE
8
BLACK
6
CONTINUOUS
10
90.2058
20
-115.737
11
90.4004
21
-115.857
0
LINE
8
BLACK
6
CONTINUOUS
10
90.4004
20
-115.857
11
90.6112
21
-115.944
0
LINE
8
BLACK
6
CONTINUOUS
10
90.6112
20
-115.944
11
90.8331
21
-115.997
0
LINE
8
BLACK
6
CONTINUOUS
10
90.8331
20
-115.997
11
91.0516
21
-116.014
0
LINE
8
BLACK
6
CONTINUOUS
10
91.0516
20
-116.014
11
91.0607
21
-116.011
0
LINE
8
BLACK
6
CONTINUOUS
10
91.0607
20
-116.011
11
107.561
21
-116.011
0
LINE
8
BLACK
6
CONTINUOUS
10
107.561
20
-116.011
11
107.569
21
-116.014
0
LINE
8
BLACK
6
CONTINUOUS
10
107.569
20
-116.014
11
107.579
21
-116.014
0
LINE
8
BLACK
6
CONTINUOUS
10
107.579
20
-116.014
11
137.07
21
-127.511
0
LINE
8
BLACK
6
CONTINUOUS
10
137.07
20
-127.511
11
156.061
21
-127.511
0
LINE
8
BLACK
6
CONTINUOUS
10
156.061
20
-127.511
11
156.067
21
-127.513
0
LINE
8
BLACK
6
CONTINUOUS
10
156.067
20
-127.513
11
156.074
21
-127.512
0
LINE
8
BLACK
6
CONTINUOUS
10
156.074
20
-127.512
11
174.574
21
-132.512
0
LINE
8
BLACK
6
CONTINUOUS
10
174.574
20
-132.512
11
174.579
21
-132.517
0
LINE
8
BLACK
6
CONTINUOUS
10
174.579
20
-132.517
11
174.586
21
-132.517
0
LINE
8
BLACK
6
CONTINUOUS
10
174.586
20
-132.517
11
190.086
21
-141.517
0
LINE
8
BLACK
6
CONTINUOUS
10
190.086
20
-141.517
11
190.092
21
-141.525
0
LINE
8
BLACK
6
CONTINUOUS
10
190.092
20
-141.525
11
190.289
21
-141.619
0
LINE
8
BLACK
6
CONTINUOUS
10
190.289
20
-141.619
11
190.508
21
-141.684
0
LINE
8
BLACK
6
CONTINUOUS
10
190.508
20
-141.684
11
190.735
21
-141.714
0
LINE
8
BLACK
6
CONTINUOUS
10
190.735
20
-141.714
11
190.963
21
-141.708
0
LINE
8
BLACK
6
CONTINUOUS
10
190.963
20
-141.708
11
191.187
21
-141.667
0
LINE
8
BLACK
6
CONTINUOUS
10
191.187
20
-141.667
11
191.402
21
-141.59
0
LINE
8
BLACK
6
CONTINUOUS
10
191.402
20
-141.59
11
191.603
21
-141.481
0
LINE
8
BLACK
6
CONTINUOUS
10
191.603
20
-141.481
11
191.784
21
-141.343
0
LINE
8
BLACK
6
CONTINUOUS
10
191.784
20
-141.343
11
191.941
21
-141.177
0
LINE
8
BLACK
6
CONTINUOUS
10
191.941
20
-141.177
11
192.065
21
-140.996
0
LINE
8
BLACK
6
CONTINUOUS
10
192.065
20
-140.996
11
192.066
21
-140.987
0
LINE
8
BLACK
6
CONTINUOUS
10
192.066
20
-140.987
11
205.511
21
-117.547
0
LINE
8
BLACK
6
CONTINUOUS
10
205.511
20
-117.547
11
205.511
21
-51.5607
0
LINE
8
BLACK
6
CONTINUOUS
10
205.511
20
-51.5607
11
205.514
21
-51.5516
0
LINE
8
BLACK
6
CONTINUOUS
10
205.514
20
-51.5516
11
205.497
21
-51.3331
0
LINE
8
BLACK
6
CONTINUOUS
10
205.497
20
-51.3331
11
205.444
21
-51.1112
0
LINE
8
BLACK
6
CONTINUOUS
10
205.444
20
-51.1112
11
205.357
21
-50.9004
0
LINE
8
BLACK
6
CONTINUOUS
10
205.357
20
-50.9004
11
205.237
21
-50.7058
0
LINE
8
BLACK
6
CONTINUOUS
10
205.237
20
-50.7058
11
205.089
21
-50.5322
0
LINE
8
BLACK
6
CONTINUOUS
10
205.089
20
-50.5322
11
204.916
21
-50.384
0
LINE
8
BLACK
6
CONTINUOUS
10
204.916
20
-50.384
11
204.721
21
-50.2647
0
LINE
8
BLACK
6
CONTINUOUS
10
204.721
20
-50.2647
11
204.51
21
-50.1774
0
LINE
8
BLACK
6
CONTINUOUS
10
204.51
20
-50.1774
11
204.288
21
-50.1241
0
LINE
8
BLACK
6
CONTINUOUS
10
204.288
20
-50.1241
11
204.07
21
-50.1069
0
LINE
8
BLACK
6
CONTINUOUS
10
204.07
20
-50.1069
11
204.061
21
-50.1107
0
LINE
8
BLACK
6
CONTINUOUS
10
204.061
20
-50.1107
11
149.061
21
-50.1107
0
LINE
8
BLACK
6
CONTINUOUS
10
149.061
20
-50.1107
11
148.84
21
-50.0949
0
LINE
8
BLACK
6
CONTINUOUS
10
148.84
20
-50.0949
11
148.624
21
-50.0479
0
LINE
8
BLACK
6
CONTINUOUS
10
148.624
20
-50.0479
11
148.417
21
-49.9706
0
LINE
8
BLACK
6
CONTINUOUS
10
148.417
20
-49.9706
11
148.223
21
-49.8646
0
LINE
8
BLACK
6
CONTINUOUS
10
148.223
20
-49.8646
11
148.046
21
-49.7321
0
LINE
8
BLACK
6
CONTINUOUS
10
148.046
20
-49.7321
11
147.889
21
-49.5757
0
LINE
8
BLACK
6
CONTINUOUS
10
147.889
20
-49.5757
11
147.757
21
-49.3986
0
LINE
8
BLACK
6
CONTINUOUS
10
147.757
20
-49.3986
11
147.651
21
-49.2045
0
LINE
8
BLACK
6
CONTINUOUS
10
147.651
20
-49.2045
11
147.574
21
-48.9973
0
LINE
8
BLACK
6
CONTINUOUS
10
147.574
20
-48.9973
11
147.527
21
-48.7812
0
LINE
8
BLACK
6
CONTINUOUS
10
147.527
20
-48.7812
11
147.511
21
-48.5609
0
LINE
8
BLACK
6
CONTINUOUS
10
147.511
20
-48.5609
11
147.511
21
-48.5607
0
LINE
8
BLACK
6
CONTINUOUS
10
147.511
20
-48.5607
11
147.511
21
-47.5607
0
LINE
8
BLACK
6
CONTINUOUS
10
147.511
20
-47.5607
11
147.514
21
-47.5514
0
LINE
8
BLACK
6
CONTINUOUS
10
147.514
20
-47.5514
11
147.497
21
-47.3331
0
LINE
8
BLACK
6
CONTINUOUS
10
147.497
20
-47.3331
11
147.444
21
-47.1112
0
LINE
8
BLACK
6
CONTINUOUS
10
147.444
20
-47.1112
11
147.357
21
-46.9003
0
LINE
8
BLACK
6
CONTINUOUS
10
147.357
20
-46.9003
11
147.237
21
-46.7057
0
LINE
8
BLACK
6
CONTINUOUS
10
147.237
20
-46.7057
11
147.089
21
-46.5322
0
LINE
8
BLACK
6
CONTINUOUS
10
147.089
20
-46.5322
11
146.916
21
-46.3839
0
LINE
8
BLACK
6
CONTINUOUS
10
146.916
20
-46.3839
11
146.721
21
-46.2647
0
LINE
8
BLACK
6
CONTINUOUS
10
146.721
20
-46.2647
11
146.51
21
-46.1774
0
LINE
8
BLACK
6
CONTINUOUS
10
146.51
20
-46.1774
11
146.288
21
-46.1241
0
LINE
8
BLACK
6
CONTINUOUS
10
146.288
20
-46.1241
11
146.07
21
-46.1069
0
LINE
8
BLACK
6
CONTINUOUS
10
146.07
20
-46.1069
11
146.061
21
-46.1107
0
LINE
8
BLACK
6
CONTINUOUS
10
146.061
20
-46.1107
11
129.061
21
-46.1107
0
LINE
8
BLACK
6
CONTINUOUS
10
129.061
20
-46.1107
11
129.052
21
-46.1069
0
LINE
8
BLACK
6
CONTINUOUS
10
192.593
20
-133.675
11
180.468
21
-126.675
0
LINE
8
BLACK
6
CONTINUOUS
10
180.468
20
-126.675
11
180.441
21
-126.638
0
LINE
8
BLACK
6
CONTINUOUS
10
180.441
20
-126.638
11
180.447
21
-126.593
0
LINE
8
BLACK
6
CONTINUOUS
10
180.447
20
-126.593
11
187.447
21
-114.468
0
LINE
8
BLACK
6
CONTINUOUS
10
187.447
20
-114.468
11
187.483
21
-114.441
0
LINE
8
BLACK
6
CONTINUOUS
10
187.483
20
-114.441
11
187.528
21
-114.447
0
LINE
8
BLACK
6
CONTINUOUS
10
187.528
20
-114.447
11
199.653
21
-121.447
0
LINE
8
BLACK
6
CONTINUOUS
10
199.653
20
-121.447
11
199.67
21
-121.468
0
LINE
8
BLACK
6
CONTINUOUS
10
199.67
20
-121.468
11
199.681
21
-121.483
0
LINE
8
BLACK
6
CONTINUOUS
10
199.681
20
-121.483
11
199.675
21
-121.528
0
LINE
8
BLACK
6
CONTINUOUS
10
199.675
20
-121.528
11
192.675
21
-133.653
0
LINE
8
BLACK
6
CONTINUOUS
10
192.675
20
-133.653
11
192.638
21
-133.681
0
LINE
8
BLACK
6
CONTINUOUS
10
192.638
20
-133.681
11
192.593
21
-133.675
0
LINE
8
BLACK
6
CONTINUOUS
10
192.593
20
-133.675
11
192.593
21
-133.675
0
LINE
8
BLACK
6
CONTINUOUS
10
180.58
20
-126.601
11
192.601
21
-133.541
0
LINE
8
BLACK
6
CONTINUOUS
10
192.601
20
-133.541
11
199.541
21
-121.52
0
LINE
8
BLACK
6
CONTINUOUS
10
199.541
20
-121.52
11
187.52
21
-114.58
0
LINE
8
BLACK
6
CONTINUOUS
10
187.52
20
-114.58
11
180.58
21
-126.601
0
LINE
8
BLACK
6
CONTINUOUS
10
159.185
20
-125.29
11
159.179
21
-125.245
0
LINE
8
BLACK
6
CONTINUOUS
10
159.179
20
-125.245
11
162.803
21
-111.722
0
LINE
8
BLACK
6
CONTINUOUS
10
162.803
20
-111.722
11
162.803
21
-111.722
0
LINE
8
BLACK
6
CONTINUOUS
10
162.803
20
-111.722
11
162.831
21
-111.685
0
LINE
8
BLACK
6
CONTINUOUS
10
162.831
20
-111.685
11
162.876
21
-111.679
0
LINE
8
BLACK
6
CONTINUOUS
10
162.876
20
-111.679
11
176.399
21
-115.303
0
LINE
8
BLACK
6
CONTINUOUS
10
176.399
20
-115.303
11
176.399
21
-115.303
0
LINE
8
BLACK
6
CONTINUOUS
10
176.399
20
-115.303
11
176.436
21
-115.331
0
LINE
8
BLACK
6
CONTINUOUS
10
176.436
20
-115.331
11
176.442
21
-115.376
0
LINE
8
BLACK
6
CONTINUOUS
10
176.442
20
-115.376
11
172.818
21
-128.899
0
LINE
8
BLACK
6
CONTINUOUS
10
172.818
20
-128.899
11
172.79
21
-128.936
0
LINE
8
BLACK
6
CONTINUOUS
10
172.79
20
-128.936
11
172.745
21
-128.942
0
LINE
8
BLACK
6
CONTINUOUS
10
172.745
20
-128.942
11
159.222
21
-125.318
0
LINE
8
BLACK
6
CONTINUOUS
10
159.222
20
-125.318
11
159.185
21
-125.29
0
LINE
8
BLACK
6
CONTINUOUS
10
159.311
20
-125.218
11
172.718
21
-128.81
0
LINE
8
BLACK
6
CONTINUOUS
10
172.718
20
-128.81
11
176.31
21
-115.403
0
LINE
8
BLACK
6
CONTINUOUS
10
176.31
20
-115.403
11
162.903
21
-111.811
0
LINE
8
BLACK
6
CONTINUOUS
10
162.903
20
-111.811
11
159.311
21
-125.218
0
LINE
8
BLACK
6
CONTINUOUS
10
139.518
20
-124.603
11
139.501
21
-124.561
0
LINE
8
BLACK
6
CONTINUOUS
10
139.501
20
-124.561
11
139.501
21
-110.561
0
LINE
8
BLACK
6
CONTINUOUS
10
139.501
20
-110.561
11
139.518
21
-110.518
0
LINE
8
BLACK
6
CONTINUOUS
10
139.518
20
-110.518
11
139.561
21
-110.501
0
LINE
8
BLACK
6
CONTINUOUS
10
139.561
20
-110.501
11
153.561
21
-110.501
0
LINE
8
BLACK
6
CONTINUOUS
10
153.561
20
-110.501
11
153.603
21
-110.518
0
LINE
8
BLACK
6
CONTINUOUS
10
153.603
20
-110.518
11
153.621
21
-110.561
0
LINE
8
BLACK
6
CONTINUOUS
10
153.621
20
-110.561
11
153.621
21
-124.561
0
LINE
8
BLACK
6
CONTINUOUS
10
153.621
20
-124.561
11
153.603
21
-124.603
0
LINE
8
BLACK
6
CONTINUOUS
10
153.603
20
-124.603
11
153.561
21
-124.621
0
LINE
8
BLACK
6
CONTINUOUS
10
153.561
20
-124.621
11
139.561
21
-124.621
0
LINE
8
BLACK
6
CONTINUOUS
10
139.561
20
-124.621
11
139.518
21
-124.603
0
LINE
8
BLACK
6
CONTINUOUS
10
139.621
20
-110.621
11
139.621
21
-124.501
0
LINE
8
BLACK
6
CONTINUOUS
10
139.621
20
-124.501
11
153.501
21
-124.501
0
LINE
8
BLACK
6
CONTINUOUS
10
153.501
20
-124.501
11
153.501
21
-110.621
0
LINE
8
BLACK
6
CONTINUOUS
10
153.501
20
-110.621
11
139.621
21
-110.621
0
LINE
8
BLACK
6
CONTINUOUS
10
92.5182
20
-113.103
11
92.5007
21
-113.061
0
LINE
8
BLACK
6
CONTINUOUS
10
92.5007
20
-113.061
11
92.5007
21
-99.0607
0
LINE
8
BLACK
6
CONTINUOUS
10
92.5007
20
-99.0607
11
92.5182
21
-99.0182
0
LINE
8
BLACK
6
CONTINUOUS
10
92.5182
20
-99.0182
11
92.5607
21
-99.0007
0
LINE
8
BLACK
6
CONTINUOUS
10
92.5607
20
-99.0007
11
106.561
21
-99.0007
0
LINE
8
BLACK
6
CONTINUOUS
10
106.561
20
-99.0007
11
106.603
21
-99.0182
0
LINE
8
BLACK
6
CONTINUOUS
10
106.603
20
-99.0182
11
106.621
21
-99.0607
0
LINE
8
BLACK
6
CONTINUOUS
10
106.621
20
-99.0607
11
106.621
21
-113.061
0
LINE
8
BLACK
6
CONTINUOUS
10
106.621
20
-113.061
11
106.603
21
-113.103
0
LINE
8
BLACK
6
CONTINUOUS
10
106.603
20
-113.103
11
106.561
21
-113.121
0
LINE
8
BLACK
6
CONTINUOUS
10
106.561
20
-113.121
11
92.5607
21
-113.121
0
LINE
8
BLACK
6
CONTINUOUS
10
92.5607
20
-113.121
11
92.5182
21
-113.103
0
LINE
8
BLACK
6
CONTINUOUS
10
92.6207
20
-99.1207
11
92.6207
21
-113.001
0
LINE
8
BLACK
6
CONTINUOUS
10
92.6207
20
-113.001
11
106.501
21
-113.001
0
LINE
8
BLACK
6
CONTINUOUS
10
106.501
20
-113.001
11
106.501
21
-99.1207
0
LINE
8
BLACK
6
CONTINUOUS
10
106.501
20
-99.1207
11
92.6207
21
-99.1207
0
LINE
8
BLACK
6
CONTINUOUS
10
168.518
20
-107.603
11
168.501
21
-107.561
0
LINE
8
BLACK
6
CONTINUOUS
10
168.501
20
-107.561
11
168.501
21
-93.5607
0
LINE
8
BLACK
6
CONTINUOUS
10
168.501
20
-93.5607
11
168.518
21
-93.5182
0
LINE
8
BLACK
6
CONTINUOUS
10
168.518
20
-93.5182
11
168.561
21
-93.5007
0
LINE
8
BLACK
6
CONTINUOUS
10
168.561
20
-93.5007
11
182.561
21
-93.5007
0
LINE
8
BLACK
6
CONTINUOUS
10
182.561
20
-93.5007
11
182.603
21
-93.5182
0
LINE
8
BLACK
6
CONTINUOUS
10
182.603
20
-93.5182
11
182.621
21
-93.5607
0
LINE
8
BLACK
6
CONTINUOUS
10
182.621
20
-93.5607
11
182.621
21
-107.561
0
LINE
8
BLACK
6
CONTINUOUS
10
182.621
20
-107.561
11
182.603
21
-107.603
0
LINE
8
BLACK
6
CONTINUOUS
10
182.603
20
-107.603
11
182.561
21
-107.621
0
LINE
8
BLACK
6
CONTINUOUS
10
182.561
20
-107.621
11
168.561
21
-107.621
0
LINE
8
BLACK
6
CONTINUOUS
10
168.561
20
-107.621
11
168.518
21
-107.603
0
LINE
8
BLACK
6
CONTINUOUS
10
168.621
20
-93.6207
11
168.621
21
-107.501
0
LINE
8
BLACK
6
CONTINUOUS
10
168.621
20
-107.501
11
182.501
21
-107.501
0
LINE
8
BLACK
6
CONTINUOUS
10
182.501
20
-107.501
11
182.501
21
-93.6207
0
LINE
8
BLACK
6
CONTINUOUS
10
182.501
20
-93.6207
11
168.621
21
-93.6207
0
LINE
8
BLACK
6
CONTINUOUS
10
149.518
20
-105.103
11
149.501
21
-105.061
0
LINE
8
BLACK
6
CONTINUOUS
10
149.501
20
-105.061
11
149.501
21
-91.0607
0
LINE
8
BLACK
6
CONTINUOUS
10
149.501
20
-91.0607
11
149.518
21
-91.0182
0
LINE
8
BLACK
6
CONTINUOUS
10
149.518
20
-91.0182
11
149.561
21
-91.0007
0
LINE
8
BLACK
6
CONTINUOUS
10
149.561
20
-91.0007
11
163.561
21
-91.0007
0
LINE
8
BLACK
6
CONTINUOUS
10
163.561
20
-91.0007
11
163.603
21
-91.0182
0
LINE
8
BLACK
6
CONTINUOUS
10
163.603
20
-91.0182
11
163.621
21
-91.0607
0
LINE
8
BLACK
6
CONTINUOUS
10
163.621
20
-91.0607
11
163.621
21
-105.061
0
LINE
8
BLACK
6
CONTINUOUS
10
163.621
20
-105.061
11
163.603
21
-105.103
0
LINE
8
BLACK
6
CONTINUOUS
10
163.603
20
-105.103
11
163.561
21
-105.121
0
LINE
8
BLACK
6
CONTINUOUS
10
163.561
20
-105.121
11
149.561
21
-105.121
0
LINE
8
BLACK
6
CONTINUOUS
10
149.561
20
-105.121
11
149.518
21
-105.103
0
LINE
8
BLACK
6
CONTINUOUS
10
149.621
20
-91.1207
11
149.621
21
-105.001
0
LINE
8
BLACK
6
CONTINUOUS
10
149.621
20
-105.001
11
163.501
21
-105.001
0
LINE
8
BLACK
6
CONTINUOUS
10
163.501
20
-105.001
11
163.501
21
-91.1207
0
LINE
8
BLACK
6
CONTINUOUS
10
163.501
20
-91.1207
11
149.621
21
-91.1207
0
LINE
8
BLACK
6
CONTINUOUS
10
111.518
20
-105.103
11
111.501
21
-105.061
0
LINE
8
BLACK
6
CONTINUOUS
10
111.501
20
-105.061
11
111.501
21
-91.0607
0
LINE
8
BLACK
6
CONTINUOUS
10
111.501
20
-91.0607
11
111.518
21
-91.0182
0
LINE
8
BLACK
6
CONTINUOUS
10
111.518
20
-91.0182
11
111.561
21
-91.0007
0
LINE
8
BLACK
6
CONTINUOUS
10
111.561
20
-91.0007
11
125.561
21
-91.0007
0
LINE
8
BLACK
6
CONTINUOUS
10
125.561
20
-91.0007
11
125.603
21
-91.0182
0
LINE
8
BLACK
6
CONTINUOUS
10
125.603
20
-91.0182
11
125.621
21
-91.0607
0
LINE
8
BLACK
6
CONTINUOUS
10
125.621
20
-91.0607
11
125.621
21
-105.061
0
LINE
8
BLACK
6
CONTINUOUS
10
125.621
20
-105.061
11
125.603
21
-105.103
0
LINE
8
BLACK
6
CONTINUOUS
10
125.603
20
-105.103
11
125.561
21
-105.121
0
LINE
8
BLACK
6
CONTINUOUS
10
125.561
20
-105.121
11
111.561
21
-105.121
0
LINE
8
BLACK
6
CONTINUOUS
10
111.561
20
-105.121
11
111.518
21
-105.103
0
LINE
8
BLACK
6
CONTINUOUS
10
111.621
20
-91.1207
11
111.621
21
-105.001
0
LINE
8
BLACK
6
CONTINUOUS
10
111.621
20
-105.001
11
125.501
21
-105.001
0
LINE
8
BLACK
6
CONTINUOUS
10
125.501
20
-105.001
11
125.501
21
-91.1207
0
LINE
8
BLACK
6
CONTINUOUS
10
125.501
20
-91.1207
11
111.621
21
-91.1207
0
LINE
8
BLACK
6
CONTINUOUS
10
73.5182
20
-105.103
11
73.5007
21
-105.061
0
LINE
8
BLACK
6
CONTINUOUS
10
73.5007
20
-105.061
11
73.5007
21
-91.0607
0
LINE
8
BLACK
6
CONTINUOUS
10
73.5007
20
-91.0607
11
73.5182
21
-91.0182
0
LINE
8
BLACK
6
CONTINUOUS
10
73.5182
20
-91.0182
11
73.5607
21
-91.0007
0
LINE
8
BLACK
6
CONTINUOUS
10
73.5607
20
-91.0007
11
87.5607
21
-91.0007
0
LINE
8
BLACK
6
CONTINUOUS
10
87.5607
20
-91.0007
11
87.6031
21
-91.0182
0
LINE
8
BLACK
6
CONTINUOUS
10
87.6031
20
-91.0182
11
87.6207
21
-91.0607
0
LINE
8
BLACK
6
CONTINUOUS
10
87.6207
20
-91.0607
11
87.6207
21
-105.061
0
LINE
8
BLACK
6
CONTINUOUS
10
87.6207
20
-105.061
11
87.6031
21
-105.103
0
LINE
8
BLACK
6
CONTINUOUS
10
87.6031
20
-105.103
11
87.5607
21
-105.121
0
LINE
8
BLACK
6
CONTINUOUS
10
87.5607
20
-105.121
11
73.5607
21
-105.121
0
LINE
8
BLACK
6
CONTINUOUS
10
73.5607
20
-105.121
11
73.5182
21
-105.103
0
LINE
8
BLACK
6
CONTINUOUS
10
73.6207
20
-91.1207
11
73.6207
21
-105.001
0
LINE
8
BLACK
6
CONTINUOUS
10
73.6207
20
-105.001
11
87.5007
21
-105.001
0
LINE
8
BLACK
6
CONTINUOUS
10
87.5007
20
-105.001
11
87.5007
21
-91.1207
0
LINE
8
BLACK
6
CONTINUOUS
10
87.5007
20
-91.1207
11
73.6207
21
-91.1207
0
LINE
8
BLACK
6
CONTINUOUS
10
130.518
20
-101.103
11
130.501
21
-101.061
0
LINE
8
BLACK
6
CONTINUOUS
10
130.501
20
-101.061
11
130.501
21
-87.0607
0
LINE
8
BLACK
6
CONTINUOUS
10
130.501
20
-87.0607
11
130.518
21
-87.0182
0
LINE
8
BLACK
6
CONTINUOUS
10
130.518
20
-87.0182
11
130.561
21
-87.0007
0
LINE
8
BLACK
6
CONTINUOUS
10
130.561
20
-87.0007
11
144.561
21
-87.0007
0
LINE
8
BLACK
6
CONTINUOUS
10
144.561
20
-87.0007
11
144.603
21
-87.0182
0
LINE
8
BLACK
6
CONTINUOUS
10
144.603
20
-87.0182
11
144.621
21
-87.0607
0
LINE
8
BLACK
6
CONTINUOUS
10
144.621
20
-87.0607
11
144.621
21
-101.061
0
LINE
8
BLACK
6
CONTINUOUS
10
144.621
20
-101.061
11
144.603
21
-101.103
0
LINE
8
BLACK
6
CONTINUOUS
10
144.603
20
-101.103
11
144.561
21
-101.121
0
LINE
8
BLACK
6
CONTINUOUS
10
144.561
20
-101.121
11
130.561
21
-101.121
0
LINE
8
BLACK
6
CONTINUOUS
10
130.561
20
-101.121
11
130.518
21
-101.103
0
LINE
8
BLACK
6
CONTINUOUS
10
130.621
20
-87.1207
11
130.621
21
-101.001
0
LINE
8
BLACK
6
CONTINUOUS
10
130.621
20
-101.001
11
144.501
21
-101.001
0
LINE
8
BLACK
6
CONTINUOUS
10
144.501
20
-101.001
11
144.501
21
-87.1207
0
LINE
8
BLACK
6
CONTINUOUS
10
144.501
20
-87.1207
11
130.621
21
-87.1207
0
LINE
8
BLACK
6
CONTINUOUS
10
92.5182
20
-94.1031
11
92.5007
21
-94.0607
0
LINE
8
BLACK
6
CONTINUOUS
10
92.5007
20
-94.0607
11
92.5007
21
-80.0607
0
LINE
8
BLACK
6
CONTINUOUS
10
92.5007
20
-80.0607
11
92.5182
21
-80.0182
0
LINE
8
BLACK
6
CONTINUOUS
10
92.5182
20
-80.0182
11
92.5607
21
-80.0007
0
LINE
8
BLACK
6
CONTINUOUS
10
92.5607
20
-80.0007
11
106.561
21
-80.0007
0
LINE
8
BLACK
6
CONTINUOUS
10
106.561
20
-80.0007
11
106.603
21
-80.0182
0
LINE
8
BLACK
6
CONTINUOUS
10
106.603
20
-80.0182
11
106.621
21
-80.0607
0
LINE
8
BLACK
6
CONTINUOUS
10
106.621
20
-80.0607
11
106.621
21
-94.0607
0
LINE
8
BLACK
6
CONTINUOUS
10
106.621
20
-94.0607
11
106.603
21
-94.1031
0
LINE
8
BLACK
6
CONTINUOUS
10
106.603
20
-94.1031
11
106.561
21
-94.1207
0
LINE
8
BLACK
6
CONTINUOUS
10
106.561
20
-94.1207
11
92.5607
21
-94.1207
0
LINE
8
BLACK
6
CONTINUOUS
10
92.5607
20
-94.1207
11
92.5182
21
-94.1031
0
LINE
8
BLACK
6
CONTINUOUS
10
92.6207
20
-80.1207
11
92.6207
21
-94.0007
0
LINE
8
BLACK
6
CONTINUOUS
10
92.6207
20
-94.0007
11
106.501
21
-94.0007
0
LINE
8
BLACK
6
CONTINUOUS
10
106.501
20
-94.0007
11
106.501
21
-80.1207
0
LINE
8
BLACK
6
CONTINUOUS
10
106.501
20
-80.1207
11
92.6207
21
-80.1207
0
LINE
8
BLACK
6
CONTINUOUS
10
168.518
20
-88.6031
11
168.501
21
-88.5607
0
LINE
8
BLACK
6
CONTINUOUS
10
168.501
20
-88.5607
11
168.501
21
-74.5607
0
LINE
8
BLACK
6
CONTINUOUS
10
168.501
20
-74.5607
11
168.518
21
-74.5182
0
LINE
8
BLACK
6
CONTINUOUS
10
168.518
20
-74.5182
11
168.561
21
-74.5007
0
LINE
8
BLACK
6
CONTINUOUS
10
168.561
20
-74.5007
11
182.561
21
-74.5007
0
LINE
8
BLACK
6
CONTINUOUS
10
182.561
20
-74.5007
11
182.603
21
-74.5182
0
LINE
8
BLACK
6
CONTINUOUS
10
182.603
20
-74.5182
11
182.621
21
-74.5607
0
LINE
8
BLACK
6
CONTINUOUS
10
182.621
20
-74.5607
11
182.621
21
-88.5607
0
LINE
8
BLACK
6
CONTINUOUS
10
182.621
20
-88.5607
11
182.603
21
-88.6031
0
LINE
8
BLACK
6
CONTINUOUS
10
182.603
20
-88.6031
11
182.561
21
-88.6207
0
LINE
8
BLACK
6
CONTINUOUS
10
182.561
20
-88.6207
11
168.561
21
-88.6207
0
LINE
8
BLACK
6
CONTINUOUS
10
168.561
20
-88.6207
11
168.518
21
-88.6031
0
LINE
8
BLACK
6
CONTINUOUS
10
168.621
20
-74.6207
11
168.621
21
-88.5007
0
LINE
8
BLACK
6
CONTINUOUS
10
168.621
20
-88.5007
11
182.501
21
-88.5007
0
LINE
8
BLACK
6
CONTINUOUS
10
182.501
20
-88.5007
11
182.501
21
-74.6207
0
LINE
8
BLACK
6
CONTINUOUS
10
182.501
20
-74.6207
11
168.621
21
-74.6207
0
LINE
8
BLACK
6
CONTINUOUS
10
111.518
20
-86.1031
11
111.501
21
-86.0607
0
LINE
8
BLACK
6
CONTINUOUS
10
111.501
20
-86.0607
11
111.501
21
-72.0607
0
LINE
8
BLACK
6
CONTINUOUS
10
111.501
20
-72.0607
11
111.518
21
-72.0182
0
LINE
8
BLACK
6
CONTINUOUS
10
111.518
20
-72.0182
11
111.561
21
-72.0007
0
LINE
8
BLACK
6
CONTINUOUS
10
111.561
20
-72.0007
11
125.561
21
-72.0007
0
LINE
8
BLACK
6
CONTINUOUS
10
125.561
20
-72.0007
11
125.603
21
-72.0182
0
LINE
8
BLACK
6
CONTINUOUS
10
125.603
20
-72.0182
11
125.621
21
-72.0607
0
LINE
8
BLACK
6
CONTINUOUS
10
125.621
20
-72.0607
11
125.621
21
-86.0607
0
LINE
8
BLACK
6
CONTINUOUS
10
125.621
20
-86.0607
11
125.603
21
-86.1031
0
LINE
8
BLACK
6
CONTINUOUS
10
125.603
20
-86.1031
11
125.561
21
-86.1207
0
LINE
8
BLACK
6
CONTINUOUS
10
125.561
20
-86.1207
11
111.561
21
-86.1207
0
LINE
8
BLACK
6
CONTINUOUS
10
111.561
20
-86.1207
11
111.518
21
-86.1031
0
LINE
8
BLACK
6
CONTINUOUS
10
111.621
20
-72.1207
11
111.621
21
-86.0007
0
LINE
8
BLACK
6
CONTINUOUS
10
111.621
20
-86.0007
11
125.501
21
-86.0007
0
LINE
8
BLACK
6
CONTINUOUS
10
125.501
20
-86.0007
11
125.501
21
-72.1207
0
LINE
8
BLACK
6
CONTINUOUS
10
125.501
20
-72.1207
11
111.621
21
-72.1207
0
LINE
8
BLACK
6
CONTINUOUS
10
73.5182
20
-86.1031
11
73.5007
21
-86.0607
0
LINE
8
BLACK
6
CONTINUOUS
10
73.5007
20
-86.0607
11
73.5007
21
-72.0607
0
LINE
8
BLACK
6
CONTINUOUS
10
73.5007
20
-72.0607
11
73.5182
21
-72.0182
0
LINE
8
BLACK
6
CONTINUOUS
10
73.5182
20
-72.0182
11
73.5607
21
-72.0007
0
LINE
8
BLACK
6
CONTINUOUS
10
73.5607
20
-72.0007
11
87.5607
21
-72.0007
0
LINE
8
BLACK
6
CONTINUOUS
10
87.5607
20
-72.0007
11
87.6031
21
-72.0182
0
LINE
8
BLACK
6
CONTINUOUS
10
87.6031
20
-72.0182
11
87.6207
21
-72.0607
0
LINE
8
BLACK
6
CONTINUOUS
10
87.6207
20
-72.0607
11
87.6207
21
-86.0607
0
LINE
8
BLACK
6
CONTINUOUS
10
87.6207
20
-86.0607
11
87.6031
21
-86.1031
0
LINE
8
BLACK
6
CONTINUOUS
10
87.6031
20
-86.1031
11
87.5607
21
-86.1207
0
LINE
8
BLACK
6
CONTINUOUS
10
87.5607
20
-86.1207
11
73.5607
21
-86.1207
0
LINE
8
BLACK
6
CONTINUOUS
10
73.5607
20
-86.1207
11
73.5182
21
-86.1031
0
LINE
8
BLACK
6
CONTINUOUS
10
73.6207
20
-72.1207
11
73.6207
21
-86.0007
0
LINE
8
BLACK
6
CONTINUOUS
10
73.6207
20
-86.0007
11
87.5007
21
-86.0007
0
LINE
8
BLACK
6
CONTINUOUS
10
87.5007
20
-86.0007
11
87.5007
21
-72.1207
0
LINE
8
BLACK
6
CONTINUOUS
10
87.5007
20
-72.1207
11
73.6207
21
-72.1207
0
LINE
8
BLACK
6
CONTINUOUS
10
149.518
20
-86.1031
11
149.501
21
-86.0607
0
LINE
8
BLACK
6
CONTINUOUS
10
149.501
20
-86.0607
11
149.501
21
-72.0607
0
LINE
8
BLACK
6
CONTINUOUS
10
149.501
20
-72.0607
11
149.518
21
-72.0182
0
LINE
8
BLACK
6
CONTINUOUS
10
149.518
20
-72.0182
11
149.561
21
-72.0007
0
LINE
8
BLACK
6
CONTINUOUS
10
149.561
20
-72.0007
11
163.561
21
-72.0007
0
LINE
8
BLACK
6
CONTINUOUS
10
163.561
20
-72.0007
11
163.603
21
-72.0182
0
LINE
8
BLACK
6
CONTINUOUS
10
163.603
20
-72.0182
11
163.621
21
-72.0607
0
LINE
8
BLACK
6
CONTINUOUS
10
163.621
20
-72.0607
11
163.621
21
-86.0607
0
LINE
8
BLACK
6
CONTINUOUS
10
163.621
20
-86.0607
11
163.603
21
-86.1031
0
LINE
8
BLACK
6
CONTINUOUS
10
163.603
20
-86.1031
11
163.561
21
-86.1207
0
LINE
8
BLACK
6
CONTINUOUS
10
163.561
20
-86.1207
11
149.561
21
-86.1207
0
LINE
8
BLACK
6
CONTINUOUS
10
149.561
20
-86.1207
11
149.518
21
-86.1031
0
LINE
8
BLACK
6
CONTINUOUS
10
149.621
20
-72.1207
11
149.621
21
-86.0007
0
LINE
8
BLACK
6
CONTINUOUS
10
149.621
20
-86.0007
11
163.501
21
-86.0007
0
LINE
8
BLACK
6
CONTINUOUS
10
163.501
20
-86.0007
11
163.501
21
-72.1207
0
LINE
8
BLACK
6
CONTINUOUS
10
163.501
20
-72.1207
11
149.621
21
-72.1207
0
LINE
8
BLACK
6
CONTINUOUS
10
130.518
20
-82.1031
11
130.501
21
-82.0607
0
LINE
8
BLACK
6
CONTINUOUS
10
130.501
20
-82.0607
11
130.501
21
-68.0607
0
LINE
8
BLACK
6
CONTINUOUS
10
130.501
20
-68.0607
11
130.518
21
-68.0182
0
LINE
8
BLACK
6
CONTINUOUS
10
130.518
20
-68.0182
11
130.561
21
-68.0007
0
LINE
8
BLACK
6
CONTINUOUS
10
130.561
20
-68.0007
11
144.561
21
-68.0007
0
LINE
8
BLACK
6
CONTINUOUS
10
144.561
20
-68.0007
11
144.603
21
-68.0182
0
LINE
8
BLACK
6
CONTINUOUS
10
144.603
20
-68.0182
11
144.621
21
-68.0607
0
LINE
8
BLACK
6
CONTINUOUS
10
144.621
20
-68.0607
11
144.621
21
-82.0607
0
LINE
8
BLACK
6
CONTINUOUS
10
144.621
20
-82.0607
11
144.603
21
-82.1031
0
LINE
8
BLACK
6
CONTINUOUS
10
144.603
20
-82.1031
11
144.561
21
-82.1207
0
LINE
8
BLACK
6
CONTINUOUS
10
144.561
20
-82.1207
11
130.561
21
-82.1207
0
LINE
8
BLACK
6
CONTINUOUS
10
130.561
20
-82.1207
11
130.518
21
-82.1031
0
LINE
8
BLACK
6
CONTINUOUS
10
130.621
20
-68.1207
11
130.621
21
-82.0007
0
LINE
8
BLACK
6
CONTINUOUS
10
130.621
20
-82.0007
11
144.501
21
-82.0007
0
LINE
8
BLACK
6
CONTINUOUS
10
144.501
20
-82.0007
11
144.501
21
-68.1207
0
LINE
8
BLACK
6
CONTINUOUS
10
144.501
20
-68.1207
11
130.621
21
-68.1207
0
LINE
8
BLACK
6
CONTINUOUS
10
188.618
20
-75.5031
11
188.601
21
-75.4607
0
LINE
8
BLACK
6
CONTINUOUS
10
188.601
20
-75.4607
11
188.601
21
-62.6607
0
LINE
8
BLACK
6
CONTINUOUS
10
188.601
20
-62.6607
11
188.618
21
-62.6182
0
LINE
8
BLACK
6
CONTINUOUS
10
188.618
20
-62.6182
11
188.661
21
-62.6007
0
LINE
8
BLACK
6
CONTINUOUS
10
188.661
20
-62.6007
11
201.461
21
-62.6007
0
LINE
8
BLACK
6
CONTINUOUS
10
201.461
20
-62.6007
11
201.503
21
-62.6182
0
LINE
8
BLACK
6
CONTINUOUS
10
201.503
20
-62.6182
11
201.521
21
-62.6607
0
LINE
8
BLACK
6
CONTINUOUS
10
201.521
20
-62.6607
11
201.521
21
-75.4607
0
LINE
8
BLACK
6
CONTINUOUS
10
201.521
20
-75.4607
11
201.503
21
-75.5031
0
LINE
8
BLACK
6
CONTINUOUS
10
201.503
20
-75.5031
11
201.461
21
-75.5207
0
LINE
8
BLACK
6
CONTINUOUS
10
201.461
20
-75.5207
11
188.661
21
-75.5207
0
LINE
8
BLACK
6
CONTINUOUS
10
188.661
20
-75.5207
11
188.618
21
-75.5031
0
LINE
8
BLACK
6
CONTINUOUS
10
188.721
20
-75.4007
11
201.401
21
-75.4007
0
LINE
8
BLACK
6
CONTINUOUS
10
201.401
20
-75.4007
11
201.401
21
-62.7207
0
LINE
8
BLACK
6
CONTINUOUS
10
201.401
20
-62.7207
11
188.721
21
-62.7207
0
LINE
8
BLACK
6
CONTINUOUS
10
188.721
20
-62.7207
11
188.721
21
-75.4007
0
LINE
8
BLACK
6
CONTINUOUS
10
92.5182
20
-75.1031
11
92.5007
21
-75.0607
0
LINE
8
BLACK
6
CONTINUOUS
10
92.5007
20
-75.0607
11
92.5007
21
-61.0607
0
LINE
8
BLACK
6
CONTINUOUS
10
92.5007
20
-61.0607
11
92.5182
21
-61.0182
0
LINE
8
BLACK
6
CONTINUOUS
10
92.5182
20
-61.0182
11
92.5607
21
-61.0007
0
LINE
8
BLACK
6
CONTINUOUS
10
92.5607
20
-61.0007
11
106.561
21
-61.0007
0
LINE
8
BLACK
6
CONTINUOUS
10
106.561
20
-61.0007
11
106.603
21
-61.0182
0
LINE
8
BLACK
6
CONTINUOUS
10
106.603
20
-61.0182
11
106.621
21
-61.0607
0
LINE
8
BLACK
6
CONTINUOUS
10
106.621
20
-61.0607
11
106.621
21
-75.0607
0
LINE
8
BLACK
6
CONTINUOUS
10
106.621
20
-75.0607
11
106.603
21
-75.1031
0
LINE
8
BLACK
6
CONTINUOUS
10
106.603
20
-75.1031
11
106.561
21
-75.1207
0
LINE
8
BLACK
6
CONTINUOUS
10
106.561
20
-75.1207
11
92.5607
21
-75.1207
0
LINE
8
BLACK
6
CONTINUOUS
10
92.5607
20
-75.1207
11
92.5182
21
-75.1031
0
LINE
8
BLACK
6
CONTINUOUS
10
92.6207
20
-61.1207
11
92.6207
21
-75.0007
0
LINE
8
BLACK
6
CONTINUOUS
10
92.6207
20
-75.0007
11
106.501
21
-75.0007
0
LINE
8
BLACK
6
CONTINUOUS
10
106.501
20
-75.0007
11
106.501
21
-61.1207
0
LINE
8
BLACK
6
CONTINUOUS
10
106.501
20
-61.1207
11
92.6207
21
-61.1207
0
LINE
8
BLACK
6
CONTINUOUS
10
168.518
20
-69.6031
11
168.501
21
-69.5607
0
LINE
8
BLACK
6
CONTINUOUS
10
168.501
20
-69.5607
11
168.501
21
-55.5607
0
LINE
8
BLACK
6
CONTINUOUS
10
168.501
20
-55.5607
11
168.518
21
-55.5182
0
LINE
8
BLACK
6
CONTINUOUS
10
168.518
20
-55.5182
11
168.561
21
-55.5007
0
LINE
8
BLACK
6
CONTINUOUS
10
168.561
20
-55.5007
11
182.561
21
-55.5007
0
LINE
8
BLACK
6
CONTINUOUS
10
182.561
20
-55.5007
11
182.603
21
-55.5182
0
LINE
8
BLACK
6
CONTINUOUS
10
182.603
20
-55.5182
11
182.621
21
-55.5607
0
LINE
8
BLACK
6
CONTINUOUS
10
182.621
20
-55.5607
11
182.621
21
-69.5607
0
LINE
8
BLACK
6
CONTINUOUS
10
182.621
20
-69.5607
11
182.603
21
-69.6031
0
LINE
8
BLACK
6
CONTINUOUS
10
182.603
20
-69.6031
11
182.561
21
-69.6207
0
LINE
8
BLACK
6
CONTINUOUS
10
182.561
20
-69.6207
11
168.561
21
-69.6207
0
LINE
8
BLACK
6
CONTINUOUS
10
168.561
20
-69.6207
11
168.518
21
-69.6031
0
LINE
8
BLACK
6
CONTINUOUS
10
168.621
20
-55.6207
11
168.621
21
-69.5007
0
LINE
8
BLACK
6
CONTINUOUS
10
168.621
20
-69.5007
11
182.501
21
-69.5007
0
LINE
8
BLACK
6
CONTINUOUS
10
182.501
20
-69.5007
11
182.501
21
-55.6207
0
LINE
8
BLACK
6
CONTINUOUS
10
182.501
20
-55.6207
11
168.621
21
-55.6207
0
LINE
8
BLACK
6
CONTINUOUS
10
149.518
20
-67.1031
11
149.501
21
-67.0607
0
LINE
8
BLACK
6
CONTINUOUS
10
149.501
20
-67.0607
11
149.501
21
-53.0607
0
LINE
8
BLACK
6
CONTINUOUS
10
149.501
20
-53.0607
11
149.518
21
-53.0182
0
LINE
8
BLACK
6
CONTINUOUS
10
149.518
20
-53.0182
11
149.561
21
-53.0007
0
LINE
8
BLACK
6
CONTINUOUS
10
149.561
20
-53.0007
11
163.561
21
-53.0007
0
LINE
8
BLACK
6
CONTINUOUS
10
163.561
20
-53.0007
11
163.603
21
-53.0182
0
LINE
8
BLACK
6
CONTINUOUS
10
163.603
20
-53.0182
11
163.621
21
-53.0607
0
LINE
8
BLACK
6
CONTINUOUS
10
163.621
20
-53.0607
11
163.621
21
-67.0607
0
LINE
8
BLACK
6
CONTINUOUS
10
163.621
20
-67.0607
11
163.603
21
-67.1031
0
LINE
8
BLACK
6
CONTINUOUS
10
163.603
20
-67.1031
11
163.561
21
-67.1207
0
LINE
8
BLACK
6
CONTINUOUS
10
163.561
20
-67.1207
11
149.561
21
-67.1207
0
LINE
8
BLACK
6
CONTINUOUS
10
149.561
20
-67.1207
11
149.518
21
-67.1031
0
LINE
8
BLACK
6
CONTINUOUS
10
149.621
20
-53.1207
11
149.621
21
-67.0007
0
LINE
8
BLACK
6
CONTINUOUS
10
149.621
20
-67.0007
11
163.501
21
-67.0007
0
LINE
8
BLACK
6
CONTINUOUS
10
163.501
20
-67.0007
11
163.501
21
-53.1207
0
LINE
8
BLACK
6
CONTINUOUS
10
163.501
20
-53.1207
11
149.621
21
-53.1207
0
LINE
8
BLACK
6
CONTINUOUS
10
111.518
20
-67.1031
11
111.501
21
-67.0607
0
LINE
8
BLACK
6
CONTINUOUS
10
111.501
20
-67.0607
11
111.501
21
-53.0607
0
LINE
8
BLACK
6
CONTINUOUS
10
111.501
20
-53.0607
11
111.518
21
-53.0182
0
LINE
8
BLACK
6
CONTINUOUS
10
111.518
20
-53.0182
11
111.561
21
-53.0007
0
LINE
8
BLACK
6
CONTINUOUS
10
111.561
20
-53.0007
11
125.561
21
-53.0007
0
LINE
8
BLACK
6
CONTINUOUS
10
125.561
20
-53.0007
11
125.603
21
-53.0182
0
LINE
8
BLACK
6
CONTINUOUS
10
125.603
20
-53.0182
11
125.621
21
-53.0607
0
LINE
8
BLACK
6
CONTINUOUS
10
125.621
20
-53.0607
11
125.621
21
-67.0607
0
LINE
8
BLACK
6
CONTINUOUS
10
125.621
20
-67.0607
11
125.603
21
-67.1031
0
LINE
8
BLACK
6
CONTINUOUS
10
125.603
20
-67.1031
11
125.561
21
-67.1207
0
LINE
8
BLACK
6
CONTINUOUS
10
125.561
20
-67.1207
11
111.561
21
-67.1207
0
LINE
8
BLACK
6
CONTINUOUS
10
111.561
20
-67.1207
11
111.518
21
-67.1031
0
LINE
8
BLACK
6
CONTINUOUS
10
111.621
20
-53.1207
11
111.621
21
-67.0007
0
LINE
8
BLACK
6
CONTINUOUS
10
111.621
20
-67.0007
11
125.501
21
-67.0007
0
LINE
8
BLACK
6
CONTINUOUS
10
125.501
20
-67.0007
11
125.501
21
-53.1207
0
LINE
8
BLACK
6
CONTINUOUS
10
125.501
20
-53.1207
11
111.621
21
-53.1207
0
LINE
8
BLACK
6
CONTINUOUS
10
130.518
20
-63.1031
11
130.501
21
-63.0607
0
LINE
8
BLACK
6
CONTINUOUS
10
130.501
20
-63.0607
11
130.501
21
-49.0607
0
LINE
8
BLACK
6
CONTINUOUS
10
130.501
20
-49.0607
11
130.518
21
-49.0182
0
LINE
8
BLACK
6
CONTINUOUS
10
130.518
20
-49.0182
11
130.561
21
-49.0007
0
LINE
8
BLACK
6
CONTINUOUS
10
130.561
20
-49.0007
11
144.561
21
-49.0007
0
LINE
8
BLACK
6
CONTINUOUS
10
144.561
20
-49.0007
11
144.603
21
-49.0182
0
LINE
8
BLACK
6
CONTINUOUS
10
144.603
20
-49.0182
11
144.621
21
-49.0607
0
LINE
8
BLACK
6
CONTINUOUS
10
144.621
20
-49.0607
11
144.621
21
-63.0607
0
LINE
8
BLACK
6
CONTINUOUS
10
144.621
20
-63.0607
11
144.603
21
-63.1031
0
LINE
8
BLACK
6
CONTINUOUS
10
144.603
20
-63.1031
11
144.561
21
-63.1207
0
LINE
8
BLACK
6
CONTINUOUS
10
144.561
20
-63.1207
11
130.561
21
-63.1207
0
LINE
8
BLACK
6
CONTINUOUS
10
130.561
20
-63.1207
11
130.518
21
-63.1031
0
LINE
8
BLACK
6
CONTINUOUS
10
130.621
20
-49.1207
11
130.621
21
-63.0007
0
LINE
8
BLACK
6
CONTINUOUS
10
130.621
20
-63.0007
11
144.501
21
-63.0007
0
LINE
8
BLACK
6
CONTINUOUS
10
144.501
20
-63.0007
11
144.501
21
-49.1207
0
LINE
8
BLACK
6
CONTINUOUS
10
144.501
20
-49.1207
11
130.621
21
-49.1207
  0
ENDSEC
  0
EOF
