  0
SECTION
  2
HEADER
  9
$ANGBASE
  50
0.0
  9
$ANGDIR
  70
1
  9
$MEASUREMENT
  70
1
  0
ENDSEC
  0
SECTION
  2
TABLES
  0
TABLE
  2
LTYPE
  70
4
  0
LTYPE
  5
40F
  2
CONTINUOUS
  70
0
  3
Solid line
  72
65
  73
0
  40
0.0
  0
LTYPE
  5
410
  2
DASHDOT
 70
0
  3
Dash Dot ____ _ ____ _
 72
65
 73
4
 40
2.0
 49
1.25
 49
-0.25
 49
0.25
 49
-0.25
  0
LTYPE
  5
411
  2
DASHED
 70
0
  3
Dashed __ __ __ __ __
 72
65
 73
2
 40
0.75
 49
0.5
 49
-0.25
  0
LTYPE
  5
43B
  2
DOTTED
 70
0
  3
Dotted .  .  .  .
 72
65
 73
2
 40
0.2
 49
0.0
 49
-0.2
  0
ENDTAB
  0
TABLE
  2
STYLE
  70
4
  0
STYLE
  2
KICAD
  70
0
  40
0
  41
1
  42
1
  50
0
  71
0
  3
isocp.shx
  0
STYLE
  2
KICADB
  70
0
  40
0
  41
1
  42
1
  50
0
  71
0
  3
isocp.shx
  0
STYLE
  2
KICADI
  70
0
  40
0
  41
1
  42
1
  50
15
  71
0
  3
isocp.shx
  0
STYLE
  2
KICADBI
  70
0
  40
0
  41
1
  42
1
  50
15
  71
0
  3
isocp.shx
  0
ENDTAB
  0
TABLE
  2
LAYER
  70
1
  0
LAYER
  2
BLACK
  70
0
  62
7
  6
CONTINUOUS
  0
ENDTAB
  0
ENDSEC
  0
SECTION
  2
ENTITIES
0
LINE
8
BLACK
6
CONTINUOUS
10
103
20
-48.5
11
119
21
-48.5
0
ARC
8
BLACK
10
180
20
-102.5
40
1.5
50
-180
51
-90
0
LINE
8
BLACK
6
CONTINUOUS
10
180
20
-104
11
197
21
-104
0
ARC
8
BLACK
10
142
20
-47.5
40
1.5
50
-180
51
-90
0
ARC
8
BLACK
10
183.75
20
-138.701
40
1.49998
50
-120.001
51
-29.9987
0
ARC
8
BLACK
10
103
20
-50
40
1.5
50
90
51
180
0
LINE
8
BLACK
6
CONTINUOUS
10
83.125
20
-115.364
11
83.3
21
-117.8
0
ARC
8
BLACK
10
62.1491
20
-77.7693
40
1.50003
50
-264.999
51
-175.001
0
LINE
8
BLACK
6
CONTINUOUS
10
78.5
20
-62.7248
11
79.3704
21
-73.1744
0
ARC
8
BLACK
10
139
20
-46
40
1.5
50
-0
51
90
0
ARC
8
BLACK
10
99.8479
20
-57.75
40
1.6521
50
-87.2974
51
-0
0
ARC
8
BLACK
10
77.8761
20
-73.3051
40
1.50002
50
-84.9992
51
5.00048
0
ARC
8
BLACK
10
79.9943
20
-62.5941
40
1.5
50
-265
51
-175.002
0
LINE
8
BLACK
6
CONTINUOUS
10
139
20
-44.5
11
122
21
-44.5
0
ARC
8
BLACK
10
161
20
-49.375
40
1.625
50
-157.38
51
-90
0
LINE
8
BLACK
6
CONTINUOUS
10
183
20
-140
11
167.5
21
-131
0
ARC
8
BLACK
10
177
20
-52.5
40
1.5
50
-0
51
90
0
LINE
8
BLACK
6
CONTINUOUS
10
178.5
20
-52.5
11
178.5
21
-102.5
0
LINE
8
BLACK
6
CONTINUOUS
10
149
20
-126
11
167.5
21
-131
0
LINE
8
BLACK
6
CONTINUOUS
10
99.9258
20
-59.4002
11
79.8636
21
-61.0998
0
ARC
8
BLACK
10
158
20
-50.625
40
1.625
50
22.6199
51
90
0
LINE
8
BLACK
6
CONTINUOUS
10
101.5
20
-50
11
101.5
21
-57.75
0
ARC
8
BLACK
10
197
20
-105.5
40
1.5
50
-0
51
90
0
ARC
8
BLACK
10
65.3692
20
-113.951
40
1.4999
50
-175.004
51
-84.9971
0
ARC
8
BLACK
10
84.7491
20
-117.643
40
1.45763
50
-173.824
51
-91.9304
0
LINE
8
BLACK
6
CONTINUOUS
10
140.5
20
-47.5
11
140.5
21
-46
0
LINE
8
BLACK
6
CONTINUOUS
10
65.5
20
-115.445
11
81.5
21
-114
0
LINE
8
BLACK
6
CONTINUOUS
10
142
20
-49
11
158
21
-49
0
LINE
8
BLACK
6
CONTINUOUS
10
185.049
20
-139.451
11
198.5
21
-116
0
LINE
8
BLACK
6
CONTINUOUS
10
149
20
-126
11
130
21
-126
0
ARC
8
BLACK
10
122
20
-46
40
1.5
50
90
51
180
0
LINE
8
BLACK
6
CONTINUOUS
10
84.7
20
-119.1
11
103
21
-117.5
0
LINE
8
BLACK
6
CONTINUOUS
10
60.6548
20
-77.9
11
63.875
21
-114.082
0
LINE
8
BLACK
6
CONTINUOUS
10
198.5
20
-105.5
11
198.5
21
-116
0
LINE
8
BLACK
6
CONTINUOUS
10
78.0069
20
-74.7994
11
62.0183
21
-76.275
0
ARC
8
BLACK
10
81.6307
20
-115.494
40
1.50001
50
5.00024
51
94.9987
0
LINE
8
BLACK
6
CONTINUOUS
10
161
20
-51
11
177
21
-51
0
LINE
8
BLACK
6
CONTINUOUS
10
103
20
-117.5
11
130
21
-126
0
ARC
8
BLACK
10
119
20
-47
40
1.5
50
-90
51
-0
0
LINE
8
BLACK
6
CONTINUOUS
10
120.5
20
-46
11
120.5
21
-47
0
CIRCLE
8
BLACK
10
160
20
-70.5
40
1.15
0
CIRCLE
8
BLACK
10
100.8
20
-68
40
1.15
0
CIRCLE
8
BLACK
10
122
20
-102.5
40
1.15
0
CIRCLE
8
BLACK
10
81.25
20
-94.25
40
1.15
0
CIRCLE
8
BLACK
10
173.5
20
-116.5
40
1.15
0
LINE
8
BLACK
6
CONTINUOUS
10
175.5
20
-54
11
161.5
21
-54
0
LINE
8
BLACK
6
CONTINUOUS
10
161.5
20
-68
11
175.5
21
-68
0
LINE
8
BLACK
6
CONTINUOUS
10
175.5
20
-68
11
175.5
21
-54
0
LINE
8
BLACK
6
CONTINUOUS
10
161.5
20
-54
11
161.5
21
-68
0
LINE
8
BLACK
6
CONTINUOUS
10
152.177
20
-123.7
11
165.7
21
-127.323
0
LINE
8
BLACK
6
CONTINUOUS
10
169.323
20
-113.8
11
155.8
21
-110.177
0
LINE
8
BLACK
6
CONTINUOUS
10
165.7
20
-127.323
11
169.323
21
-113.8
0
LINE
8
BLACK
6
CONTINUOUS
10
155.8
20
-110.177
11
152.177
21
-123.7
0
LINE
8
BLACK
6
CONTINUOUS
10
85.0165
20
-101.937
11
86.2367
21
-115.883
0
LINE
8
BLACK
6
CONTINUOUS
10
86.2367
20
-115.883
11
100.183
21
-114.663
0
LINE
8
BLACK
6
CONTINUOUS
10
98.9633
20
-100.717
11
85.0165
21
-101.937
0
LINE
8
BLACK
6
CONTINUOUS
10
100.183
20
-114.663
11
98.9633
21
-100.717
0
LINE
8
BLACK
6
CONTINUOUS
10
82.9367
20
-77.9835
11
96.8835
21
-76.7633
0
LINE
8
BLACK
6
CONTINUOUS
10
96.8835
20
-76.7633
11
95.6633
21
-62.8165
0
LINE
8
BLACK
6
CONTINUOUS
10
95.6633
20
-62.8165
11
81.7165
21
-64.0367
0
LINE
8
BLACK
6
CONTINUOUS
10
81.7165
20
-64.0367
11
82.9367
21
-77.9835
0
LINE
8
BLACK
6
CONTINUOUS
10
142.5
20
-52
11
142.5
21
-66
0
LINE
8
BLACK
6
CONTINUOUS
10
156.5
20
-52
11
142.5
21
-52
0
LINE
8
BLACK
6
CONTINUOUS
10
142.5
20
-66
11
156.5
21
-66
0
LINE
8
BLACK
6
CONTINUOUS
10
156.5
20
-66
11
156.5
21
-52
0
LINE
8
BLACK
6
CONTINUOUS
10
137.5
20
-61.5
11
137.5
21
-47.5
0
LINE
8
BLACK
6
CONTINUOUS
10
123.5
20
-61.5
11
137.5
21
-61.5
0
LINE
8
BLACK
6
CONTINUOUS
10
123.5
20
-47.5
11
123.5
21
-61.5
0
LINE
8
BLACK
6
CONTINUOUS
10
137.5
20
-47.5
11
123.5
21
-47.5
0
LINE
8
BLACK
6
CONTINUOUS
10
65.6165
20
-98.2367
11
66.8367
21
-112.183
0
LINE
8
BLACK
6
CONTINUOUS
10
66.8367
20
-112.183
11
80.7835
21
-110.963
0
LINE
8
BLACK
6
CONTINUOUS
10
80.7835
20
-110.963
11
79.5633
21
-97.0165
0
LINE
8
BLACK
6
CONTINUOUS
10
79.5633
20
-97.0165
11
65.6165
21
-98.2367
0
LINE
8
BLACK
6
CONTINUOUS
10
123.5
20
-66.5
11
123.5
21
-80.5
0
LINE
8
BLACK
6
CONTINUOUS
10
123.5
20
-80.5
11
137.5
21
-80.5
0
LINE
8
BLACK
6
CONTINUOUS
10
137.5
20
-66.5
11
123.5
21
-66.5
0
LINE
8
BLACK
6
CONTINUOUS
10
137.5
20
-80.5
11
137.5
21
-66.5
0
LINE
8
BLACK
6
CONTINUOUS
10
161.5
20
-106
11
175.5
21
-106
0
LINE
8
BLACK
6
CONTINUOUS
10
161.5
20
-92
11
161.5
21
-106
0
LINE
8
BLACK
6
CONTINUOUS
10
175.5
20
-92
11
161.5
21
-92
0
LINE
8
BLACK
6
CONTINUOUS
10
175.5
20
-106
11
175.5
21
-92
0
LINE
8
BLACK
6
CONTINUOUS
10
123.5
20
-99.5
11
137.5
21
-99.5
0
LINE
8
BLACK
6
CONTINUOUS
10
123.5
20
-85.5
11
123.5
21
-99.5
0
LINE
8
BLACK
6
CONTINUOUS
10
137.5
20
-99.5
11
137.5
21
-85.5
0
LINE
8
BLACK
6
CONTINUOUS
10
137.5
20
-85.5
11
123.5
21
-85.5
0
LINE
8
BLACK
6
CONTINUOUS
10
97.3133
20
-81.7665
11
83.3665
21
-82.9867
0
LINE
8
BLACK
6
CONTINUOUS
10
98.5335
20
-95.7133
11
97.3133
21
-81.7665
0
LINE
8
BLACK
6
CONTINUOUS
10
84.5867
20
-96.9335
11
98.5335
21
-95.7133
0
LINE
8
BLACK
6
CONTINUOUS
10
83.3665
20
-82.9867
11
84.5867
21
-96.9335
0
LINE
8
BLACK
6
CONTINUOUS
10
63.9165
20
-79.2367
11
65.1367
21
-93.1835
0
LINE
8
BLACK
6
CONTINUOUS
10
77.8633
20
-78.0165
11
63.9165
21
-79.2367
0
LINE
8
BLACK
6
CONTINUOUS
10
79.0835
20
-91.9633
11
77.8633
21
-78.0165
0
LINE
8
BLACK
6
CONTINUOUS
10
65.1367
20
-93.1835
11
79.0835
21
-91.9633
0
LINE
8
BLACK
6
CONTINUOUS
10
142.5
20
-104
11
156.5
21
-104
0
LINE
8
BLACK
6
CONTINUOUS
10
156.5
20
-104
11
156.5
21
-90
0
LINE
8
BLACK
6
CONTINUOUS
10
142.5
20
-90
11
142.5
21
-104
0
LINE
8
BLACK
6
CONTINUOUS
10
156.5
20
-90
11
142.5
21
-90
0
LINE
8
BLACK
6
CONTINUOUS
10
156.5
20
-71
11
142.5
21
-71
0
LINE
8
BLACK
6
CONTINUOUS
10
142.5
20
-85
11
156.5
21
-85
0
LINE
8
BLACK
6
CONTINUOUS
10
142.5
20
-71
11
142.5
21
-85
0
LINE
8
BLACK
6
CONTINUOUS
10
156.5
20
-85
11
156.5
21
-71
0
LINE
8
BLACK
6
CONTINUOUS
10
161.5
20
-73
11
161.5
21
-87
0
LINE
8
BLACK
6
CONTINUOUS
10
175.5
20
-87
11
175.5
21
-73
0
LINE
8
BLACK
6
CONTINUOUS
10
175.5
20
-73
11
161.5
21
-73
0
LINE
8
BLACK
6
CONTINUOUS
10
161.5
20
-87
11
175.5
21
-87
0
LINE
8
BLACK
6
CONTINUOUS
10
185.562
20
-132.062
11
192.562
21
-119.938
0
LINE
8
BLACK
6
CONTINUOUS
10
192.562
20
-119.938
11
180.438
21
-112.938
0
LINE
8
BLACK
6
CONTINUOUS
10
180.438
20
-112.938
11
173.438
21
-125.062
0
LINE
8
BLACK
6
CONTINUOUS
10
173.438
20
-125.062
11
185.562
21
-132.062
0
LINE
8
BLACK
6
CONTINUOUS
10
104.5
20
-103.5
11
118.5
21
-103.5
0
LINE
8
BLACK
6
CONTINUOUS
10
118.5
20
-89.5
11
104.5
21
-89.5
0
LINE
8
BLACK
6
CONTINUOUS
10
104.5
20
-89.5
11
104.5
21
-103.5
0
LINE
8
BLACK
6
CONTINUOUS
10
118.5
20
-103.5
11
118.5
21
-89.5
0
LINE
8
BLACK
6
CONTINUOUS
10
118.5
20
-51.5
11
104.5
21
-51.5
0
LINE
8
BLACK
6
CONTINUOUS
10
118.5
20
-65.5
11
118.5
21
-51.5
0
LINE
8
BLACK
6
CONTINUOUS
10
104.5
20
-65.5
11
118.5
21
-65.5
0
LINE
8
BLACK
6
CONTINUOUS
10
104.5
20
-51.5
11
104.5
21
-65.5
0
LINE
8
BLACK
6
CONTINUOUS
10
104.5
20
-70.5
11
104.5
21
-84.5
0
LINE
8
BLACK
6
CONTINUOUS
10
118.5
20
-84.5
11
118.5
21
-70.5
0
LINE
8
BLACK
6
CONTINUOUS
10
104.5
20
-84.5
11
118.5
21
-84.5
0
LINE
8
BLACK
6
CONTINUOUS
10
118.5
20
-70.5
11
104.5
21
-70.5
0
LINE
8
BLACK
6
CONTINUOUS
10
146.5
20
-123
11
146.5
21
-109
0
LINE
8
BLACK
6
CONTINUOUS
10
146.5
20
-109
11
132.5
21
-109
0
LINE
8
BLACK
6
CONTINUOUS
10
132.5
20
-109
11
132.5
21
-123
0
LINE
8
BLACK
6
CONTINUOUS
10
132.5
20
-123
11
146.5
21
-123
  0
ENDSEC
  0
EOF
