  0
SECTION
  2
HEADER
  9
$ANGBASE
  50
0.0
  9
$ANGDIR
  70
1
  9
$MEASUREMENT
  70
1
  0
ENDSEC
  0
SECTION
  2
TABLES
  0
TABLE
  2
LTYPE
  70
4
  0
LTYPE
  5
40F
  2
CONTINUOUS
  70
0
  3
Solid line
  72
65
  73
0
  40
0.0
  0
LTYPE
  5
410
  2
DASHDOT
 70
0
  3
Dash Dot ____ _ ____ _
 72
65
 73
4
 40
2.0
 49
1.25
 49
-0.25
 49
0.25
 49
-0.25
  0
LTYPE
  5
411
  2
DASHED
 70
0
  3
Dashed __ __ __ __ __
 72
65
 73
2
 40
0.75
 49
0.5
 49
-0.25
  0
LTYPE
  5
43B
  2
DOTTED
 70
0
  3
Dotted .  .  .  .
 72
65
 73
2
 40
0.2
 49
0.0
 49
-0.2
  0
ENDTAB
  0
TABLE
  2
STYLE
  70
4
  0
STYLE
  2
KICAD
  70
0
  40
0
  41
1
  42
1
  50
0
  71
0
  3
isocp.shx
  0
STYLE
  2
KICADB
  70
0
  40
0
  41
1
  42
1
  50
0
  71
0
  3
isocp.shx
  0
STYLE
  2
KICADI
  70
0
  40
0
  41
1
  42
1
  50
15
  71
0
  3
isocp.shx
  0
STYLE
  2
KICADBI
  70
0
  40
0
  41
1
  42
1
  50
15
  71
0
  3
isocp.shx
  0
ENDTAB
  0
TABLE
  2
LAYER
  70
1
  0
LAYER
  2
BLACK
  70
0
  62
7
  6
CONTINUOUS
  0
ENDTAB
  0
ENDSEC
  0
SECTION
  2
ENTITIES
0
LINE
8
BLACK
6
CONTINUOUS
10
173.62
20
-115.356
11
173.827
21
-115.397
0
LINE
8
BLACK
6
CONTINUOUS
10
173.827
20
-115.397
11
174.022
21
-115.475
0
LINE
8
BLACK
6
CONTINUOUS
10
174.022
20
-115.475
11
174.2
21
-115.588
0
LINE
8
BLACK
6
CONTINUOUS
10
174.2
20
-115.588
11
174.355
21
-115.73
0
LINE
8
BLACK
6
CONTINUOUS
10
174.355
20
-115.73
11
174.481
21
-115.899
0
LINE
8
BLACK
6
CONTINUOUS
10
174.481
20
-115.899
11
174.574
21
-116.088
0
LINE
8
BLACK
6
CONTINUOUS
10
174.574
20
-116.088
11
174.631
21
-116.29
0
LINE
8
BLACK
6
CONTINUOUS
10
174.631
20
-116.29
11
174.65
21
-116.5
0
LINE
8
BLACK
6
CONTINUOUS
10
174.65
20
-116.5
11
174.648
21
-116.56
0
LINE
8
BLACK
6
CONTINUOUS
10
174.648
20
-116.56
11
174.618
21
-116.768
0
LINE
8
BLACK
6
CONTINUOUS
10
174.618
20
-116.768
11
174.551
21
-116.968
0
LINE
8
BLACK
6
CONTINUOUS
10
174.551
20
-116.968
11
174.448
21
-117.151
0
LINE
8
BLACK
6
CONTINUOUS
10
174.448
20
-117.151
11
174.313
21
-117.313
0
LINE
8
BLACK
6
CONTINUOUS
10
174.313
20
-117.313
11
174.151
21
-117.448
0
LINE
8
BLACK
6
CONTINUOUS
10
174.151
20
-117.448
11
173.968
21
-117.551
0
LINE
8
BLACK
6
CONTINUOUS
10
173.968
20
-117.551
11
173.768
21
-117.618
0
LINE
8
BLACK
6
CONTINUOUS
10
173.768
20
-117.618
11
173.56
21
-117.648
0
LINE
8
BLACK
6
CONTINUOUS
10
173.56
20
-117.648
11
173.35
21
-117.64
0
LINE
8
BLACK
6
CONTINUOUS
10
173.35
20
-117.64
11
173.145
21
-117.594
0
LINE
8
BLACK
6
CONTINUOUS
10
173.145
20
-117.594
11
172.951
21
-117.511
0
LINE
8
BLACK
6
CONTINUOUS
10
172.951
20
-117.511
11
172.776
21
-117.394
0
LINE
8
BLACK
6
CONTINUOUS
10
172.776
20
-117.394
11
172.626
21
-117.247
0
LINE
8
BLACK
6
CONTINUOUS
10
172.626
20
-117.247
11
172.504
21
-117.075
0
LINE
8
BLACK
6
CONTINUOUS
10
172.504
20
-117.075
11
172.416
21
-116.884
0
LINE
8
BLACK
6
CONTINUOUS
10
172.416
20
-116.884
11
172.364
21
-116.68
0
LINE
8
BLACK
6
CONTINUOUS
10
172.364
20
-116.68
11
172.35
21
-116.47
0
LINE
8
BLACK
6
CONTINUOUS
10
172.35
20
-116.47
11
172.375
21
-116.261
0
LINE
8
BLACK
6
CONTINUOUS
10
172.375
20
-116.261
11
172.438
21
-116.06
0
LINE
8
BLACK
6
CONTINUOUS
10
172.438
20
-116.06
11
172.536
21
-115.874
0
LINE
8
BLACK
6
CONTINUOUS
10
172.536
20
-115.874
11
172.666
21
-115.708
0
LINE
8
BLACK
6
CONTINUOUS
10
172.666
20
-115.708
11
172.824
21
-115.57
0
LINE
8
BLACK
6
CONTINUOUS
10
172.824
20
-115.57
11
173.005
21
-115.462
0
LINE
8
BLACK
6
CONTINUOUS
10
173.005
20
-115.462
11
173.202
21
-115.389
0
LINE
8
BLACK
6
CONTINUOUS
10
173.202
20
-115.389
11
173.41
21
-115.354
0
LINE
8
BLACK
6
CONTINUOUS
10
173.41
20
-115.354
11
173.62
21
-115.356
0
LINE
8
BLACK
6
CONTINUOUS
10
122.12
20
-101.356
11
122.327
21
-101.397
0
LINE
8
BLACK
6
CONTINUOUS
10
122.327
20
-101.397
11
122.522
21
-101.475
0
LINE
8
BLACK
6
CONTINUOUS
10
122.522
20
-101.475
11
122.7
21
-101.588
0
LINE
8
BLACK
6
CONTINUOUS
10
122.7
20
-101.588
11
122.855
21
-101.73
0
LINE
8
BLACK
6
CONTINUOUS
10
122.855
20
-101.73
11
122.981
21
-101.899
0
LINE
8
BLACK
6
CONTINUOUS
10
122.981
20
-101.899
11
123.074
21
-102.088
0
LINE
8
BLACK
6
CONTINUOUS
10
123.074
20
-102.088
11
123.131
21
-102.29
0
LINE
8
BLACK
6
CONTINUOUS
10
123.131
20
-102.29
11
123.15
21
-102.5
0
LINE
8
BLACK
6
CONTINUOUS
10
123.15
20
-102.5
11
123.148
21
-102.56
0
LINE
8
BLACK
6
CONTINUOUS
10
123.148
20
-102.56
11
123.118
21
-102.768
0
LINE
8
BLACK
6
CONTINUOUS
10
123.118
20
-102.768
11
123.051
21
-102.968
0
LINE
8
BLACK
6
CONTINUOUS
10
123.051
20
-102.968
11
122.948
21
-103.151
0
LINE
8
BLACK
6
CONTINUOUS
10
122.948
20
-103.151
11
122.813
21
-103.313
0
LINE
8
BLACK
6
CONTINUOUS
10
122.813
20
-103.313
11
122.651
21
-103.448
0
LINE
8
BLACK
6
CONTINUOUS
10
122.651
20
-103.448
11
122.468
21
-103.551
0
LINE
8
BLACK
6
CONTINUOUS
10
122.468
20
-103.551
11
122.268
21
-103.618
0
LINE
8
BLACK
6
CONTINUOUS
10
122.268
20
-103.618
11
122.06
21
-103.648
0
LINE
8
BLACK
6
CONTINUOUS
10
122.06
20
-103.648
11
121.85
21
-103.64
0
LINE
8
BLACK
6
CONTINUOUS
10
121.85
20
-103.64
11
121.645
21
-103.594
0
LINE
8
BLACK
6
CONTINUOUS
10
121.645
20
-103.594
11
121.451
21
-103.511
0
LINE
8
BLACK
6
CONTINUOUS
10
121.451
20
-103.511
11
121.276
21
-103.394
0
LINE
8
BLACK
6
CONTINUOUS
10
121.276
20
-103.394
11
121.126
21
-103.247
0
LINE
8
BLACK
6
CONTINUOUS
10
121.126
20
-103.247
11
121.004
21
-103.075
0
LINE
8
BLACK
6
CONTINUOUS
10
121.004
20
-103.075
11
120.916
21
-102.884
0
LINE
8
BLACK
6
CONTINUOUS
10
120.916
20
-102.884
11
120.864
21
-102.68
0
LINE
8
BLACK
6
CONTINUOUS
10
120.864
20
-102.68
11
120.85
21
-102.47
0
LINE
8
BLACK
6
CONTINUOUS
10
120.85
20
-102.47
11
120.875
21
-102.261
0
LINE
8
BLACK
6
CONTINUOUS
10
120.875
20
-102.261
11
120.938
21
-102.06
0
LINE
8
BLACK
6
CONTINUOUS
10
120.938
20
-102.06
11
121.036
21
-101.874
0
LINE
8
BLACK
6
CONTINUOUS
10
121.036
20
-101.874
11
121.166
21
-101.708
0
LINE
8
BLACK
6
CONTINUOUS
10
121.166
20
-101.708
11
121.324
21
-101.57
0
LINE
8
BLACK
6
CONTINUOUS
10
121.324
20
-101.57
11
121.505
21
-101.462
0
LINE
8
BLACK
6
CONTINUOUS
10
121.505
20
-101.462
11
121.702
21
-101.389
0
LINE
8
BLACK
6
CONTINUOUS
10
121.702
20
-101.389
11
121.91
21
-101.354
0
LINE
8
BLACK
6
CONTINUOUS
10
121.91
20
-101.354
11
122.12
21
-101.356
0
LINE
8
BLACK
6
CONTINUOUS
10
81.3702
20
-93.1063
11
81.5766
21
-93.1474
0
LINE
8
BLACK
6
CONTINUOUS
10
81.5766
20
-93.1474
11
81.7721
21
-93.2253
0
LINE
8
BLACK
6
CONTINUOUS
10
81.7721
20
-93.2253
11
81.9501
21
-93.3376
0
LINE
8
BLACK
6
CONTINUOUS
10
81.9501
20
-93.3376
11
82.1046
21
-93.4805
0
LINE
8
BLACK
6
CONTINUOUS
10
82.1046
20
-93.4805
11
82.2305
21
-93.6491
0
LINE
8
BLACK
6
CONTINUOUS
10
82.2305
20
-93.6491
11
82.3236
21
-93.8379
0
LINE
8
BLACK
6
CONTINUOUS
10
82.3236
20
-93.8379
11
82.3807
21
-94.0404
0
LINE
8
BLACK
6
CONTINUOUS
10
82.3807
20
-94.0404
11
82.4
21
-94.25
0
LINE
8
BLACK
6
CONTINUOUS
10
82.4
20
-94.25
11
82.3984
21
-94.3102
0
LINE
8
BLACK
6
CONTINUOUS
10
82.3984
20
-94.3102
11
82.3682
21
-94.5185
0
LINE
8
BLACK
6
CONTINUOUS
10
82.3682
20
-94.5185
11
82.3006
21
-94.7177
0
LINE
8
BLACK
6
CONTINUOUS
10
82.3006
20
-94.7177
11
82.1977
21
-94.9014
0
LINE
8
BLACK
6
CONTINUOUS
10
82.1977
20
-94.9014
11
82.0632
21
-95.0632
0
LINE
8
BLACK
6
CONTINUOUS
10
82.0632
20
-95.0632
11
81.9014
21
-95.1977
0
LINE
8
BLACK
6
CONTINUOUS
10
81.9014
20
-95.1977
11
81.7177
21
-95.3006
0
LINE
8
BLACK
6
CONTINUOUS
10
81.7177
20
-95.3006
11
81.5185
21
-95.3682
0
LINE
8
BLACK
6
CONTINUOUS
10
81.5185
20
-95.3682
11
81.3102
21
-95.3984
0
LINE
8
BLACK
6
CONTINUOUS
10
81.3102
20
-95.3984
11
81.0999
21
-95.3902
0
LINE
8
BLACK
6
CONTINUOUS
10
81.0999
20
-95.3902
11
80.8946
21
-95.3437
0
LINE
8
BLACK
6
CONTINUOUS
10
80.8946
20
-95.3437
11
80.7013
21
-95.2606
0
LINE
8
BLACK
6
CONTINUOUS
10
80.7013
20
-95.2606
11
80.5263
21
-95.1437
0
LINE
8
BLACK
6
CONTINUOUS
10
80.5263
20
-95.1437
11
80.3755
21
-94.9969
0
LINE
8
BLACK
6
CONTINUOUS
10
80.3755
20
-94.9969
11
80.2541
21
-94.825
0
LINE
8
BLACK
6
CONTINUOUS
10
80.2541
20
-94.825
11
80.166
21
-94.6339
0
LINE
8
BLACK
6
CONTINUOUS
10
80.166
20
-94.6339
11
80.1142
21
-94.4299
0
LINE
8
BLACK
6
CONTINUOUS
10
80.1142
20
-94.4299
11
80.1004
21
-94.2199
0
LINE
8
BLACK
6
CONTINUOUS
10
80.1004
20
-94.2199
11
80.1251
21
-94.0109
0
LINE
8
BLACK
6
CONTINUOUS
10
80.1251
20
-94.0109
11
80.1875
21
-93.8099
0
LINE
8
BLACK
6
CONTINUOUS
10
80.1875
20
-93.8099
11
80.2855
21
-93.6237
0
LINE
8
BLACK
6
CONTINUOUS
10
80.2855
20
-93.6237
11
80.4158
21
-93.4584
0
LINE
8
BLACK
6
CONTINUOUS
10
80.4158
20
-93.4584
11
80.574
21
-93.3196
0
LINE
8
BLACK
6
CONTINUOUS
10
80.574
20
-93.3196
11
80.7549
21
-93.212
0
LINE
8
BLACK
6
CONTINUOUS
10
80.7549
20
-93.212
11
80.9524
21
-93.1392
0
LINE
8
BLACK
6
CONTINUOUS
10
80.9524
20
-93.1392
11
81.1598
21
-93.1035
0
LINE
8
BLACK
6
CONTINUOUS
10
81.1598
20
-93.1035
11
81.3702
21
-93.1063
0
LINE
8
BLACK
6
CONTINUOUS
10
160.12
20
-69.3563
11
160.327
21
-69.3974
0
LINE
8
BLACK
6
CONTINUOUS
10
160.327
20
-69.3974
11
160.522
21
-69.4753
0
LINE
8
BLACK
6
CONTINUOUS
10
160.522
20
-69.4753
11
160.7
21
-69.5876
0
LINE
8
BLACK
6
CONTINUOUS
10
160.7
20
-69.5876
11
160.855
21
-69.7305
0
LINE
8
BLACK
6
CONTINUOUS
10
160.855
20
-69.7305
11
160.981
21
-69.8991
0
LINE
8
BLACK
6
CONTINUOUS
10
160.981
20
-69.8991
11
161.074
21
-70.0879
0
LINE
8
BLACK
6
CONTINUOUS
10
161.074
20
-70.0879
11
161.131
21
-70.2904
0
LINE
8
BLACK
6
CONTINUOUS
10
161.131
20
-70.2904
11
161.15
21
-70.5
0
LINE
8
BLACK
6
CONTINUOUS
10
161.15
20
-70.5
11
161.148
21
-70.5602
0
LINE
8
BLACK
6
CONTINUOUS
10
161.148
20
-70.5602
11
161.118
21
-70.7685
0
LINE
8
BLACK
6
CONTINUOUS
10
161.118
20
-70.7685
11
161.051
21
-70.9677
0
LINE
8
BLACK
6
CONTINUOUS
10
161.051
20
-70.9677
11
160.948
21
-71.1514
0
LINE
8
BLACK
6
CONTINUOUS
10
160.948
20
-71.1514
11
160.813
21
-71.3132
0
LINE
8
BLACK
6
CONTINUOUS
10
160.813
20
-71.3132
11
160.651
21
-71.4477
0
LINE
8
BLACK
6
CONTINUOUS
10
160.651
20
-71.4477
11
160.468
21
-71.5506
0
LINE
8
BLACK
6
CONTINUOUS
10
160.468
20
-71.5506
11
160.268
21
-71.6182
0
LINE
8
BLACK
6
CONTINUOUS
10
160.268
20
-71.6182
11
160.06
21
-71.6484
0
LINE
8
BLACK
6
CONTINUOUS
10
160.06
20
-71.6484
11
159.85
21
-71.6402
0
LINE
8
BLACK
6
CONTINUOUS
10
159.85
20
-71.6402
11
159.645
21
-71.5937
0
LINE
8
BLACK
6
CONTINUOUS
10
159.645
20
-71.5937
11
159.451
21
-71.5106
0
LINE
8
BLACK
6
CONTINUOUS
10
159.451
20
-71.5106
11
159.276
21
-71.3937
0
LINE
8
BLACK
6
CONTINUOUS
10
159.276
20
-71.3937
11
159.126
21
-71.2469
0
LINE
8
BLACK
6
CONTINUOUS
10
159.126
20
-71.2469
11
159.004
21
-71.075
0
LINE
8
BLACK
6
CONTINUOUS
10
159.004
20
-71.075
11
158.916
21
-70.8839
0
LINE
8
BLACK
6
CONTINUOUS
10
158.916
20
-70.8839
11
158.864
21
-70.6799
0
LINE
8
BLACK
6
CONTINUOUS
10
158.864
20
-70.6799
11
158.85
21
-70.4699
0
LINE
8
BLACK
6
CONTINUOUS
10
158.85
20
-70.4699
11
158.875
21
-70.2609
0
LINE
8
BLACK
6
CONTINUOUS
10
158.875
20
-70.2609
11
158.938
21
-70.0599
0
LINE
8
BLACK
6
CONTINUOUS
10
158.938
20
-70.0599
11
159.036
21
-69.8737
0
LINE
8
BLACK
6
CONTINUOUS
10
159.036
20
-69.8737
11
159.166
21
-69.7084
0
LINE
8
BLACK
6
CONTINUOUS
10
159.166
20
-69.7084
11
159.324
21
-69.5696
0
LINE
8
BLACK
6
CONTINUOUS
10
159.324
20
-69.5696
11
159.505
21
-69.462
0
LINE
8
BLACK
6
CONTINUOUS
10
159.505
20
-69.462
11
159.702
21
-69.3892
0
LINE
8
BLACK
6
CONTINUOUS
10
159.702
20
-69.3892
11
159.91
21
-69.3535
0
LINE
8
BLACK
6
CONTINUOUS
10
159.91
20
-69.3535
11
160.12
21
-69.3563
0
LINE
8
BLACK
6
CONTINUOUS
10
100.92
20
-66.8563
11
101.127
21
-66.8974
0
LINE
8
BLACK
6
CONTINUOUS
10
101.127
20
-66.8974
11
101.322
21
-66.9753
0
LINE
8
BLACK
6
CONTINUOUS
10
101.322
20
-66.9753
11
101.5
21
-67.0876
0
LINE
8
BLACK
6
CONTINUOUS
10
101.5
20
-67.0876
11
101.655
21
-67.2305
0
LINE
8
BLACK
6
CONTINUOUS
10
101.655
20
-67.2305
11
101.781
21
-67.3991
0
LINE
8
BLACK
6
CONTINUOUS
10
101.781
20
-67.3991
11
101.874
21
-67.5879
0
LINE
8
BLACK
6
CONTINUOUS
10
101.874
20
-67.5879
11
101.931
21
-67.7904
0
LINE
8
BLACK
6
CONTINUOUS
10
101.931
20
-67.7904
11
101.95
21
-68
0
LINE
8
BLACK
6
CONTINUOUS
10
101.95
20
-68
11
101.948
21
-68.0602
0
LINE
8
BLACK
6
CONTINUOUS
10
101.948
20
-68.0602
11
101.918
21
-68.2685
0
LINE
8
BLACK
6
CONTINUOUS
10
101.918
20
-68.2685
11
101.851
21
-68.4677
0
LINE
8
BLACK
6
CONTINUOUS
10
101.851
20
-68.4677
11
101.748
21
-68.6514
0
LINE
8
BLACK
6
CONTINUOUS
10
101.748
20
-68.6514
11
101.613
21
-68.8132
0
LINE
8
BLACK
6
CONTINUOUS
10
101.613
20
-68.8132
11
101.451
21
-68.9477
0
LINE
8
BLACK
6
CONTINUOUS
10
101.451
20
-68.9477
11
101.268
21
-69.0506
0
LINE
8
BLACK
6
CONTINUOUS
10
101.268
20
-69.0506
11
101.068
21
-69.1182
0
LINE
8
BLACK
6
CONTINUOUS
10
101.068
20
-69.1182
11
100.86
21
-69.1484
0
LINE
8
BLACK
6
CONTINUOUS
10
100.86
20
-69.1484
11
100.65
21
-69.1402
0
LINE
8
BLACK
6
CONTINUOUS
10
100.65
20
-69.1402
11
100.445
21
-69.0937
0
LINE
8
BLACK
6
CONTINUOUS
10
100.445
20
-69.0937
11
100.251
21
-69.0106
0
LINE
8
BLACK
6
CONTINUOUS
10
100.251
20
-69.0106
11
100.076
21
-68.8937
0
LINE
8
BLACK
6
CONTINUOUS
10
100.076
20
-68.8937
11
99.9255
21
-68.7469
0
LINE
8
BLACK
6
CONTINUOUS
10
99.9255
20
-68.7469
11
99.8041
21
-68.575
0
LINE
8
BLACK
6
CONTINUOUS
10
99.8041
20
-68.575
11
99.716
21
-68.3839
0
LINE
8
BLACK
6
CONTINUOUS
10
99.716
20
-68.3839
11
99.6642
21
-68.1799
0
LINE
8
BLACK
6
CONTINUOUS
10
99.6642
20
-68.1799
11
99.6504
21
-67.9699
0
LINE
8
BLACK
6
CONTINUOUS
10
99.6504
20
-67.9699
11
99.6751
21
-67.7609
0
LINE
8
BLACK
6
CONTINUOUS
10
99.6751
20
-67.7609
11
99.7375
21
-67.5599
0
LINE
8
BLACK
6
CONTINUOUS
10
99.7375
20
-67.5599
11
99.8355
21
-67.3737
0
LINE
8
BLACK
6
CONTINUOUS
10
99.8355
20
-67.3737
11
99.9658
21
-67.2084
0
LINE
8
BLACK
6
CONTINUOUS
10
99.9658
20
-67.2084
11
100.124
21
-67.0696
0
LINE
8
BLACK
6
CONTINUOUS
10
100.124
20
-67.0696
11
100.305
21
-66.962
0
LINE
8
BLACK
6
CONTINUOUS
10
100.305
20
-66.962
11
100.502
21
-66.8892
0
LINE
8
BLACK
6
CONTINUOUS
10
100.502
20
-66.8892
11
100.71
21
-66.8535
0
LINE
8
BLACK
6
CONTINUOUS
10
100.71
20
-66.8535
11
100.92
21
-66.8563
0
LINE
8
BLACK
6
CONTINUOUS
10
158.433
20
-49.0069
11
158.64
21
-49.0771
0
LINE
8
BLACK
6
CONTINUOUS
10
158.64
20
-49.0771
11
158.836
21
-49.1736
0
LINE
8
BLACK
6
CONTINUOUS
10
158.836
20
-49.1736
11
159.018
21
-49.2949
0
LINE
8
BLACK
6
CONTINUOUS
10
159.018
20
-49.2949
11
159.183
21
-49.4389
0
LINE
8
BLACK
6
CONTINUOUS
10
159.183
20
-49.4389
11
159.327
21
-49.6032
0
LINE
8
BLACK
6
CONTINUOUS
10
159.327
20
-49.6032
11
159.449
21
-49.7848
0
LINE
8
BLACK
6
CONTINUOUS
10
159.449
20
-49.7848
11
159.546
21
-49.9808
0
LINE
8
BLACK
6
CONTINUOUS
10
159.546
20
-49.9808
11
159.546
21
-49.9901
0
LINE
8
BLACK
6
CONTINUOUS
10
159.546
20
-49.9901
11
159.647
21
-50.1894
0
LINE
8
BLACK
6
CONTINUOUS
10
159.647
20
-50.1894
11
159.781
21
-50.3788
0
LINE
8
BLACK
6
CONTINUOUS
10
159.781
20
-50.3788
11
159.941
21
-50.5465
0
LINE
8
BLACK
6
CONTINUOUS
10
159.941
20
-50.5465
11
160.124
21
-50.689
0
LINE
8
BLACK
6
CONTINUOUS
10
160.124
20
-50.689
11
160.326
21
-50.8031
0
LINE
8
BLACK
6
CONTINUOUS
10
160.326
20
-50.8031
11
160.542
21
-50.8865
0
LINE
8
BLACK
6
CONTINUOUS
10
160.542
20
-50.8865
11
160.769
21
-50.9372
0
LINE
8
BLACK
6
CONTINUOUS
10
160.769
20
-50.9372
11
160.991
21
-50.9536
0
LINE
8
BLACK
6
CONTINUOUS
10
160.991
20
-50.9536
11
161
21
-50.95
0
LINE
8
BLACK
6
CONTINUOUS
10
161
20
-50.95
11
177
21
-50.95
0
LINE
8
BLACK
6
CONTINUOUS
10
177
20
-50.95
11
177.221
21
-50.9658
0
LINE
8
BLACK
6
CONTINUOUS
10
177.221
20
-50.9658
11
177.437
21
-51.0128
0
LINE
8
BLACK
6
CONTINUOUS
10
177.437
20
-51.0128
11
177.644
21
-51.0901
0
LINE
8
BLACK
6
CONTINUOUS
10
177.644
20
-51.0901
11
177.838
21
-51.1961
0
LINE
8
BLACK
6
CONTINUOUS
10
177.838
20
-51.1961
11
178.015
21
-51.3286
0
LINE
8
BLACK
6
CONTINUOUS
10
178.015
20
-51.3286
11
178.171
21
-51.485
0
LINE
8
BLACK
6
CONTINUOUS
10
178.171
20
-51.485
11
178.304
21
-51.662
0
LINE
8
BLACK
6
CONTINUOUS
10
178.304
20
-51.662
11
178.41
21
-51.8561
0
LINE
8
BLACK
6
CONTINUOUS
10
178.41
20
-51.8561
11
178.487
21
-52.0633
0
LINE
8
BLACK
6
CONTINUOUS
10
178.487
20
-52.0633
11
178.534
21
-52.2794
0
LINE
8
BLACK
6
CONTINUOUS
10
178.534
20
-52.2794
11
178.55
21
-52.5
0
LINE
8
BLACK
6
CONTINUOUS
10
178.55
20
-52.5
11
178.55
21
-102.5
0
LINE
8
BLACK
6
CONTINUOUS
10
178.55
20
-102.5
11
178.546
21
-102.509
0
LINE
8
BLACK
6
CONTINUOUS
10
178.546
20
-102.509
11
178.563
21
-102.728
0
LINE
8
BLACK
6
CONTINUOUS
10
178.563
20
-102.728
11
178.617
21
-102.949
0
LINE
8
BLACK
6
CONTINUOUS
10
178.617
20
-102.949
11
178.704
21
-103.16
0
LINE
8
BLACK
6
CONTINUOUS
10
178.704
20
-103.16
11
178.823
21
-103.355
0
LINE
8
BLACK
6
CONTINUOUS
10
178.823
20
-103.355
11
178.972
21
-103.528
0
LINE
8
BLACK
6
CONTINUOUS
10
178.972
20
-103.528
11
179.145
21
-103.677
0
LINE
8
BLACK
6
CONTINUOUS
10
179.145
20
-103.677
11
179.34
21
-103.796
0
LINE
8
BLACK
6
CONTINUOUS
10
179.34
20
-103.796
11
179.551
21
-103.883
0
LINE
8
BLACK
6
CONTINUOUS
10
179.551
20
-103.883
11
179.772
21
-103.937
0
LINE
8
BLACK
6
CONTINUOUS
10
179.772
20
-103.937
11
179.991
21
-103.954
0
LINE
8
BLACK
6
CONTINUOUS
10
179.991
20
-103.954
11
180
21
-103.95
0
LINE
8
BLACK
6
CONTINUOUS
10
180
20
-103.95
11
197
21
-103.95
0
LINE
8
BLACK
6
CONTINUOUS
10
197
20
-103.95
11
197.221
21
-103.966
0
LINE
8
BLACK
6
CONTINUOUS
10
197.221
20
-103.966
11
197.437
21
-104.013
0
LINE
8
BLACK
6
CONTINUOUS
10
197.437
20
-104.013
11
197.644
21
-104.09
0
LINE
8
BLACK
6
CONTINUOUS
10
197.644
20
-104.09
11
197.838
21
-104.196
0
LINE
8
BLACK
6
CONTINUOUS
10
197.838
20
-104.196
11
198.015
21
-104.329
0
LINE
8
BLACK
6
CONTINUOUS
10
198.015
20
-104.329
11
198.171
21
-104.485
0
LINE
8
BLACK
6
CONTINUOUS
10
198.171
20
-104.485
11
198.304
21
-104.662
0
LINE
8
BLACK
6
CONTINUOUS
10
198.304
20
-104.662
11
198.41
21
-104.856
0
LINE
8
BLACK
6
CONTINUOUS
10
198.41
20
-104.856
11
198.487
21
-105.063
0
LINE
8
BLACK
6
CONTINUOUS
10
198.487
20
-105.063
11
198.534
21
-105.279
0
LINE
8
BLACK
6
CONTINUOUS
10
198.534
20
-105.279
11
198.55
21
-105.5
0
LINE
8
BLACK
6
CONTINUOUS
10
198.55
20
-105.5
11
198.55
21
-116
0
LINE
8
BLACK
6
CONTINUOUS
10
198.55
20
-116
11
198.545
21
-116.012
0
LINE
8
BLACK
6
CONTINUOUS
10
198.545
20
-116.012
11
198.543
21
-116.025
0
LINE
8
BLACK
6
CONTINUOUS
10
198.543
20
-116.025
11
185.092
21
-139.476
0
LINE
8
BLACK
6
CONTINUOUS
10
185.092
20
-139.476
11
185.092
21
-139.476
0
LINE
8
BLACK
6
CONTINUOUS
10
185.092
20
-139.476
11
185.092
21
-139.476
0
LINE
8
BLACK
6
CONTINUOUS
10
185.092
20
-139.476
11
185.092
21
-139.476
0
LINE
8
BLACK
6
CONTINUOUS
10
185.092
20
-139.476
11
184.968
21
-139.659
0
LINE
8
BLACK
6
CONTINUOUS
10
184.968
20
-139.659
11
184.82
21
-139.823
0
LINE
8
BLACK
6
CONTINUOUS
10
184.82
20
-139.823
11
184.649
21
-139.964
0
LINE
8
BLACK
6
CONTINUOUS
10
184.649
20
-139.964
11
184.46
21
-140.079
0
LINE
8
BLACK
6
CONTINUOUS
10
184.46
20
-140.079
11
184.257
21
-140.166
0
LINE
8
BLACK
6
CONTINUOUS
10
184.257
20
-140.166
11
184.043
21
-140.223
0
LINE
8
BLACK
6
CONTINUOUS
10
184.043
20
-140.223
11
183.824
21
-140.249
0
LINE
8
BLACK
6
CONTINUOUS
10
183.824
20
-140.249
11
183.603
21
-140.244
0
LINE
8
BLACK
6
CONTINUOUS
10
183.603
20
-140.244
11
183.385
21
-140.207
0
LINE
8
BLACK
6
CONTINUOUS
10
183.385
20
-140.207
11
183.174
21
-140.14
0
LINE
8
BLACK
6
CONTINUOUS
10
183.174
20
-140.14
11
182.975
21
-140.043
0
LINE
8
BLACK
6
CONTINUOUS
10
182.975
20
-140.043
11
182.975
21
-140.043
0
LINE
8
BLACK
6
CONTINUOUS
10
182.975
20
-140.043
11
182.975
21
-140.043
0
LINE
8
BLACK
6
CONTINUOUS
10
182.975
20
-140.043
11
182.975
21
-140.043
0
LINE
8
BLACK
6
CONTINUOUS
10
182.975
20
-140.043
11
167.481
21
-131.047
0
LINE
8
BLACK
6
CONTINUOUS
10
167.481
20
-131.047
11
148.993
21
-126.05
0
LINE
8
BLACK
6
CONTINUOUS
10
148.993
20
-126.05
11
130
21
-126.05
0
LINE
8
BLACK
6
CONTINUOUS
10
130
20
-126.05
11
129.993
21
-126.047
0
LINE
8
BLACK
6
CONTINUOUS
10
129.993
20
-126.047
11
129.985
21
-126.048
0
LINE
8
BLACK
6
CONTINUOUS
10
129.985
20
-126.048
11
102.994
21
-117.551
0
LINE
8
BLACK
6
CONTINUOUS
10
102.994
20
-117.551
11
84.7044
21
-119.15
0
LINE
8
BLACK
6
CONTINUOUS
10
84.7044
20
-119.15
11
84.7013
21
-119.149
0
LINE
8
BLACK
6
CONTINUOUS
10
84.7013
20
-119.149
11
84.6983
21
-119.15
0
LINE
8
BLACK
6
CONTINUOUS
10
84.6983
20
-119.15
11
84.6983
21
-119.15
0
LINE
8
BLACK
6
CONTINUOUS
10
84.6983
20
-119.15
11
84.4842
21
-119.127
0
LINE
8
BLACK
6
CONTINUOUS
10
84.4842
20
-119.127
11
84.2755
21
-119.075
0
LINE
8
BLACK
6
CONTINUOUS
10
84.2755
20
-119.075
11
84.0764
21
-118.992
0
LINE
8
BLACK
6
CONTINUOUS
10
84.0764
20
-118.992
11
83.8911
21
-118.883
0
LINE
8
BLACK
6
CONTINUOUS
10
83.8911
20
-118.883
11
83.7233
21
-118.748
0
LINE
8
BLACK
6
CONTINUOUS
10
83.7233
20
-118.748
11
83.5763
21
-118.591
0
LINE
8
BLACK
6
CONTINUOUS
10
83.5763
20
-118.591
11
83.4534
21
-118.414
0
LINE
8
BLACK
6
CONTINUOUS
10
83.4534
20
-118.414
11
83.3568
21
-118.221
0
LINE
8
BLACK
6
CONTINUOUS
10
83.3568
20
-118.221
11
83.2886
21
-118.017
0
LINE
8
BLACK
6
CONTINUOUS
10
83.2886
20
-118.017
11
83.2502
21
-117.805
0
LINE
8
BLACK
6
CONTINUOUS
10
83.2502
20
-117.805
11
83.2503
21
-117.805
0
LINE
8
BLACK
6
CONTINUOUS
10
83.2503
20
-117.805
11
83.2506
21
-117.804
0
LINE
8
BLACK
6
CONTINUOUS
10
83.2506
20
-117.804
11
83.2501
21
-117.804
0
LINE
8
BLACK
6
CONTINUOUS
10
83.2501
20
-117.804
11
83.0752
21
-115.367
0
LINE
8
BLACK
6
CONTINUOUS
10
83.0752
20
-115.367
11
83.0781
21
-115.358
0
LINE
8
BLACK
6
CONTINUOUS
10
83.0781
20
-115.358
11
83.042
21
-115.142
0
LINE
8
BLACK
6
CONTINUOUS
10
83.042
20
-115.142
11
82.9696
21
-114.926
0
LINE
8
BLACK
6
CONTINUOUS
10
82.9696
20
-114.926
11
82.8642
21
-114.724
0
LINE
8
BLACK
6
CONTINUOUS
10
82.8642
20
-114.724
11
82.7284
21
-114.54
0
LINE
8
BLACK
6
CONTINUOUS
10
82.7284
20
-114.54
11
82.5656
21
-114.38
0
LINE
8
BLACK
6
CONTINUOUS
10
82.5656
20
-114.38
11
82.3798
21
-114.248
0
LINE
8
BLACK
6
CONTINUOUS
10
82.3798
20
-114.248
11
82.1756
21
-114.146
0
LINE
8
BLACK
6
CONTINUOUS
10
82.1756
20
-114.146
11
81.9579
21
-114.077
0
LINE
8
BLACK
6
CONTINUOUS
10
81.9579
20
-114.077
11
81.7322
21
-114.043
0
LINE
8
BLACK
6
CONTINUOUS
10
81.7322
20
-114.043
11
81.5131
21
-114.045
0
LINE
8
BLACK
6
CONTINUOUS
10
81.5131
20
-114.045
11
81.5045
21
-114.05
0
LINE
8
BLACK
6
CONTINUOUS
10
81.5045
20
-114.05
11
81.5044
21
-114.05
0
LINE
8
BLACK
6
CONTINUOUS
10
81.5044
20
-114.05
11
81.5044
21
-114.05
0
LINE
8
BLACK
6
CONTINUOUS
10
81.5044
20
-114.05
11
65.5045
21
-115.495
0
LINE
8
BLACK
6
CONTINUOUS
10
65.5045
20
-115.495
11
65.5044
21
-115.495
0
LINE
8
BLACK
6
CONTINUOUS
10
65.5044
20
-115.495
11
65.5044
21
-115.495
0
LINE
8
BLACK
6
CONTINUOUS
10
65.5044
20
-115.495
11
65.5044
21
-115.495
0
LINE
8
BLACK
6
CONTINUOUS
10
65.5044
20
-115.495
11
65.2832
21
-115.499
0
LINE
8
BLACK
6
CONTINUOUS
10
65.2832
20
-115.499
11
65.0639
21
-115.471
0
LINE
8
BLACK
6
CONTINUOUS
10
65.0639
20
-115.471
11
64.8507
21
-115.412
0
LINE
8
BLACK
6
CONTINUOUS
10
64.8507
20
-115.412
11
64.6481
21
-115.323
0
LINE
8
BLACK
6
CONTINUOUS
10
64.6481
20
-115.323
11
64.4602
21
-115.206
0
LINE
8
BLACK
6
CONTINUOUS
10
64.4602
20
-115.206
11
64.2908
21
-115.064
0
LINE
8
BLACK
6
CONTINUOUS
10
64.2908
20
-115.064
11
64.1433
21
-114.899
0
LINE
8
BLACK
6
CONTINUOUS
10
64.1433
20
-114.899
11
64.0208
21
-114.715
0
LINE
8
BLACK
6
CONTINUOUS
10
64.0208
20
-114.715
11
63.9258
21
-114.516
0
LINE
8
BLACK
6
CONTINUOUS
10
63.9258
20
-114.516
11
63.8601
21
-114.304
0
LINE
8
BLACK
6
CONTINUOUS
10
63.8601
20
-114.304
11
63.8252
21
-114.086
0
LINE
8
BLACK
6
CONTINUOUS
10
63.8252
20
-114.086
11
63.8252
21
-114.086
0
LINE
8
BLACK
6
CONTINUOUS
10
63.8252
20
-114.086
11
60.605
21
-77.9044
0
LINE
8
BLACK
6
CONTINUOUS
10
60.605
20
-77.9044
11
60.605
21
-77.9044
0
LINE
8
BLACK
6
CONTINUOUS
10
60.605
20
-77.9044
11
60.605
21
-77.9044
0
LINE
8
BLACK
6
CONTINUOUS
10
60.605
20
-77.9044
11
60.605
21
-77.9044
0
LINE
8
BLACK
6
CONTINUOUS
10
60.605
20
-77.9044
11
60.6015
21
-77.6832
0
LINE
8
BLACK
6
CONTINUOUS
10
60.6015
20
-77.6832
11
60.6295
21
-77.4639
0
LINE
8
BLACK
6
CONTINUOUS
10
60.6295
20
-77.4639
11
60.6884
21
-77.2507
0
LINE
8
BLACK
6
CONTINUOUS
10
60.6884
20
-77.2507
11
60.7771
21
-77.0481
0
LINE
8
BLACK
6
CONTINUOUS
10
60.7771
20
-77.0481
11
60.8937
21
-76.8602
0
LINE
8
BLACK
6
CONTINUOUS
10
60.8937
20
-76.8602
11
61.0358
21
-76.6908
0
LINE
8
BLACK
6
CONTINUOUS
10
61.0358
20
-76.6908
11
61.2006
21
-76.5433
0
LINE
8
BLACK
6
CONTINUOUS
10
61.2006
20
-76.5433
11
61.3847
21
-76.4208
0
LINE
8
BLACK
6
CONTINUOUS
10
61.3847
20
-76.4208
11
61.5844
21
-76.3258
0
LINE
8
BLACK
6
CONTINUOUS
10
61.5844
20
-76.3258
11
61.7956
21
-76.2601
0
LINE
8
BLACK
6
CONTINUOUS
10
61.7956
20
-76.2601
11
62.0137
21
-76.2252
0
LINE
8
BLACK
6
CONTINUOUS
10
62.0137
20
-76.2252
11
62.0137
21
-76.2252
0
LINE
8
BLACK
6
CONTINUOUS
10
62.0137
20
-76.2252
11
62.014
21
-76.2252
0
LINE
8
BLACK
6
CONTINUOUS
10
62.014
20
-76.2252
11
62.014
21
-76.2252
0
LINE
8
BLACK
6
CONTINUOUS
10
62.014
20
-76.2252
11
78.0023
21
-74.7496
0
LINE
8
BLACK
6
CONTINUOUS
10
78.0023
20
-74.7496
11
78.0024
21
-74.7496
0
LINE
8
BLACK
6
CONTINUOUS
10
78.0024
20
-74.7496
11
78.0025
21
-74.7496
0
LINE
8
BLACK
6
CONTINUOUS
10
78.0025
20
-74.7496
11
78.012
21
-74.7525
0
LINE
8
BLACK
6
CONTINUOUS
10
78.012
20
-74.7525
11
78.228
21
-74.7164
0
LINE
8
BLACK
6
CONTINUOUS
10
78.228
20
-74.7164
11
78.4444
21
-74.644
0
LINE
8
BLACK
6
CONTINUOUS
10
78.4444
20
-74.644
11
78.6469
21
-74.5386
0
LINE
8
BLACK
6
CONTINUOUS
10
78.6469
20
-74.5386
11
78.8304
21
-74.4028
0
LINE
8
BLACK
6
CONTINUOUS
10
78.8304
20
-74.4028
11
78.9903
21
-74.24
0
LINE
8
BLACK
6
CONTINUOUS
10
78.9903
20
-74.24
11
79.1229
21
-74.0542
0
LINE
8
BLACK
6
CONTINUOUS
10
79.1229
20
-74.0542
11
79.2247
21
-73.85
0
LINE
8
BLACK
6
CONTINUOUS
10
79.2247
20
-73.85
11
79.2933
21
-73.6323
0
LINE
8
BLACK
6
CONTINUOUS
10
79.2933
20
-73.6323
11
79.3271
21
-73.4065
0
LINE
8
BLACK
6
CONTINUOUS
10
79.3271
20
-73.4065
11
79.3251
21
-73.1874
0
LINE
8
BLACK
6
CONTINUOUS
10
79.3251
20
-73.1874
11
79.3206
21
-73.1787
0
LINE
8
BLACK
6
CONTINUOUS
10
79.3206
20
-73.1787
11
79.3206
21
-73.1786
0
LINE
8
BLACK
6
CONTINUOUS
10
79.3206
20
-73.1786
11
79.3206
21
-73.1785
0
LINE
8
BLACK
6
CONTINUOUS
10
79.3206
20
-73.1785
11
78.4502
21
-62.7289
0
LINE
8
BLACK
6
CONTINUOUS
10
78.4502
20
-62.7289
11
78.4502
21
-62.7289
0
LINE
8
BLACK
6
CONTINUOUS
10
78.4502
20
-62.7289
11
78.4467
21
-62.508
0
LINE
8
BLACK
6
CONTINUOUS
10
78.4467
20
-62.508
11
78.4747
21
-62.2887
0
LINE
8
BLACK
6
CONTINUOUS
10
78.4747
20
-62.2887
11
78.5336
21
-62.0755
0
LINE
8
BLACK
6
CONTINUOUS
10
78.5336
20
-62.0755
11
78.6223
21
-61.8729
0
LINE
8
BLACK
6
CONTINUOUS
10
78.6223
20
-61.8729
11
78.7389
21
-61.685
0
LINE
8
BLACK
6
CONTINUOUS
10
78.7389
20
-61.685
11
78.881
21
-61.5156
0
LINE
8
BLACK
6
CONTINUOUS
10
78.881
20
-61.5156
11
79.0459
21
-61.3681
0
LINE
8
BLACK
6
CONTINUOUS
10
79.0459
20
-61.3681
11
79.23
21
-61.2456
0
LINE
8
BLACK
6
CONTINUOUS
10
79.23
20
-61.2456
11
79.4297
21
-61.1506
0
LINE
8
BLACK
6
CONTINUOUS
10
79.4297
20
-61.1506
11
79.6408
21
-61.0849
0
LINE
8
BLACK
6
CONTINUOUS
10
79.6408
20
-61.0849
11
79.8591
21
-61.05
0
LINE
8
BLACK
6
CONTINUOUS
10
79.8591
20
-61.05
11
79.8592
21
-61.05
0
LINE
8
BLACK
6
CONTINUOUS
10
79.8592
20
-61.05
11
79.8593
21
-61.05
0
LINE
8
BLACK
6
CONTINUOUS
10
79.8593
20
-61.05
11
79.8593
21
-61.0499
0
LINE
8
BLACK
6
CONTINUOUS
10
79.8593
20
-61.0499
11
99.9216
21
-59.3504
0
LINE
8
BLACK
6
CONTINUOUS
10
99.9216
20
-59.3504
11
99.9225
21
-59.3507
0
LINE
8
BLACK
6
CONTINUOUS
10
99.9225
20
-59.3507
11
99.9234
21
-59.3503
0
LINE
8
BLACK
6
CONTINUOUS
10
99.9234
20
-59.3503
11
99.9317
21
-59.3533
0
LINE
8
BLACK
6
CONTINUOUS
10
99.9317
20
-59.3533
11
100.144
21
-59.3284
0
LINE
8
BLACK
6
CONTINUOUS
10
100.144
20
-59.3284
11
100.359
21
-59.2724
0
LINE
8
BLACK
6
CONTINUOUS
10
100.359
20
-59.2724
11
100.565
21
-59.1871
0
LINE
8
BLACK
6
CONTINUOUS
10
100.565
20
-59.1871
11
100.756
21
-59.0744
0
LINE
8
BLACK
6
CONTINUOUS
10
100.756
20
-59.0744
11
100.93
21
-58.9363
0
LINE
8
BLACK
6
CONTINUOUS
10
100.93
20
-58.9363
11
101.084
21
-58.7755
0
LINE
8
BLACK
6
CONTINUOUS
10
101.084
20
-58.7755
11
101.214
21
-58.595
0
LINE
8
BLACK
6
CONTINUOUS
10
101.214
20
-58.595
11
101.317
21
-58.3983
0
LINE
8
BLACK
6
CONTINUOUS
10
101.317
20
-58.3983
11
101.393
21
-58.1892
0
LINE
8
BLACK
6
CONTINUOUS
10
101.393
20
-58.1892
11
101.439
21
-57.9717
0
LINE
8
BLACK
6
CONTINUOUS
10
101.439
20
-57.9717
11
101.453
21
-57.7581
0
LINE
8
BLACK
6
CONTINUOUS
10
101.453
20
-57.7581
11
101.45
21
-57.75
0
LINE
8
BLACK
6
CONTINUOUS
10
101.45
20
-57.75
11
101.45
21
-50
0
LINE
8
BLACK
6
CONTINUOUS
10
101.45
20
-50
11
101.466
21
-49.7794
0
LINE
8
BLACK
6
CONTINUOUS
10
101.466
20
-49.7794
11
101.513
21
-49.5633
0
LINE
8
BLACK
6
CONTINUOUS
10
101.513
20
-49.5633
11
101.59
21
-49.3561
0
LINE
8
BLACK
6
CONTINUOUS
10
101.59
20
-49.3561
11
101.696
21
-49.162
0
LINE
8
BLACK
6
CONTINUOUS
10
101.696
20
-49.162
11
101.829
21
-48.985
0
LINE
8
BLACK
6
CONTINUOUS
10
101.829
20
-48.985
11
101.985
21
-48.8286
0
LINE
8
BLACK
6
CONTINUOUS
10
101.985
20
-48.8286
11
102.162
21
-48.6961
0
LINE
8
BLACK
6
CONTINUOUS
10
102.162
20
-48.6961
11
102.356
21
-48.5901
0
LINE
8
BLACK
6
CONTINUOUS
10
102.356
20
-48.5901
11
102.563
21
-48.5128
0
LINE
8
BLACK
6
CONTINUOUS
10
102.563
20
-48.5128
11
102.779
21
-48.4658
0
LINE
8
BLACK
6
CONTINUOUS
10
102.779
20
-48.4658
11
103
21
-48.45
0
LINE
8
BLACK
6
CONTINUOUS
10
103
20
-48.45
11
119
21
-48.45
0
LINE
8
BLACK
6
CONTINUOUS
10
119
20
-48.45
11
119.009
21
-48.4538
0
LINE
8
BLACK
6
CONTINUOUS
10
119.009
20
-48.4538
11
119.228
21
-48.4366
0
LINE
8
BLACK
6
CONTINUOUS
10
119.228
20
-48.4366
11
119.449
21
-48.3833
0
LINE
8
BLACK
6
CONTINUOUS
10
119.449
20
-48.3833
11
119.66
21
-48.296
0
LINE
8
BLACK
6
CONTINUOUS
10
119.66
20
-48.296
11
119.855
21
-48.1767
0
LINE
8
BLACK
6
CONTINUOUS
10
119.855
20
-48.1767
11
120.028
21
-48.0285
0
LINE
8
BLACK
6
CONTINUOUS
10
120.028
20
-48.0285
11
120.177
21
-47.8549
0
LINE
8
BLACK
6
CONTINUOUS
10
120.177
20
-47.8549
11
120.296
21
-47.6603
0
LINE
8
BLACK
6
CONTINUOUS
10
120.296
20
-47.6603
11
120.383
21
-47.4495
0
LINE
8
BLACK
6
CONTINUOUS
10
120.383
20
-47.4495
11
120.437
21
-47.2275
0
LINE
8
BLACK
6
CONTINUOUS
10
120.437
20
-47.2275
11
120.454
21
-47.0091
0
LINE
8
BLACK
6
CONTINUOUS
10
120.454
20
-47.0091
11
120.45
21
-47
0
LINE
8
BLACK
6
CONTINUOUS
10
120.45
20
-47
11
120.45
21
-46
0
LINE
8
BLACK
6
CONTINUOUS
10
120.45
20
-46
11
120.466
21
-45.7794
0
LINE
8
BLACK
6
CONTINUOUS
10
120.466
20
-45.7794
11
120.513
21
-45.5633
0
LINE
8
BLACK
6
CONTINUOUS
10
120.513
20
-45.5633
11
120.59
21
-45.3561
0
LINE
8
BLACK
6
CONTINUOUS
10
120.59
20
-45.3561
11
120.696
21
-45.162
0
LINE
8
BLACK
6
CONTINUOUS
10
120.696
20
-45.162
11
120.829
21
-44.985
0
LINE
8
BLACK
6
CONTINUOUS
10
120.829
20
-44.985
11
120.985
21
-44.8286
0
LINE
8
BLACK
6
CONTINUOUS
10
120.985
20
-44.8286
11
121.162
21
-44.6961
0
LINE
8
BLACK
6
CONTINUOUS
10
121.162
20
-44.6961
11
121.356
21
-44.5901
0
LINE
8
BLACK
6
CONTINUOUS
10
121.356
20
-44.5901
11
121.563
21
-44.5128
0
LINE
8
BLACK
6
CONTINUOUS
10
121.563
20
-44.5128
11
121.779
21
-44.4658
0
LINE
8
BLACK
6
CONTINUOUS
10
121.779
20
-44.4658
11
122
21
-44.45
0
LINE
8
BLACK
6
CONTINUOUS
10
122
20
-44.45
11
139
21
-44.45
0
LINE
8
BLACK
6
CONTINUOUS
10
139
20
-44.45
11
139.221
21
-44.4658
0
LINE
8
BLACK
6
CONTINUOUS
10
139.221
20
-44.4658
11
139.437
21
-44.5128
0
LINE
8
BLACK
6
CONTINUOUS
10
139.437
20
-44.5128
11
139.644
21
-44.5901
0
LINE
8
BLACK
6
CONTINUOUS
10
139.644
20
-44.5901
11
139.838
21
-44.6961
0
LINE
8
BLACK
6
CONTINUOUS
10
139.838
20
-44.6961
11
140.015
21
-44.8286
0
LINE
8
BLACK
6
CONTINUOUS
10
140.015
20
-44.8286
11
140.171
21
-44.985
0
LINE
8
BLACK
6
CONTINUOUS
10
140.171
20
-44.985
11
140.304
21
-45.162
0
LINE
8
BLACK
6
CONTINUOUS
10
140.304
20
-45.162
11
140.41
21
-45.3561
0
LINE
8
BLACK
6
CONTINUOUS
10
140.41
20
-45.3561
11
140.487
21
-45.5633
0
LINE
8
BLACK
6
CONTINUOUS
10
140.487
20
-45.5633
11
140.534
21
-45.7794
0
LINE
8
BLACK
6
CONTINUOUS
10
140.534
20
-45.7794
11
140.55
21
-46
0
LINE
8
BLACK
6
CONTINUOUS
10
140.55
20
-46
11
140.55
21
-47.5
0
LINE
8
BLACK
6
CONTINUOUS
10
140.55
20
-47.5
11
140.546
21
-47.5091
0
LINE
8
BLACK
6
CONTINUOUS
10
140.546
20
-47.5091
11
140.563
21
-47.7275
0
LINE
8
BLACK
6
CONTINUOUS
10
140.563
20
-47.7275
11
140.617
21
-47.9495
0
LINE
8
BLACK
6
CONTINUOUS
10
140.617
20
-47.9495
11
140.704
21
-48.1603
0
LINE
8
BLACK
6
CONTINUOUS
10
140.704
20
-48.1603
11
140.823
21
-48.3549
0
LINE
8
BLACK
6
CONTINUOUS
10
140.823
20
-48.3549
11
140.972
21
-48.5285
0
LINE
8
BLACK
6
CONTINUOUS
10
140.972
20
-48.5285
11
141.145
21
-48.6767
0
LINE
8
BLACK
6
CONTINUOUS
10
141.145
20
-48.6767
11
141.34
21
-48.796
0
LINE
8
BLACK
6
CONTINUOUS
10
141.34
20
-48.796
11
141.551
21
-48.8833
0
LINE
8
BLACK
6
CONTINUOUS
10
141.551
20
-48.8833
11
141.772
21
-48.9366
0
LINE
8
BLACK
6
CONTINUOUS
10
141.772
20
-48.9366
11
141.991
21
-48.9538
0
LINE
8
BLACK
6
CONTINUOUS
10
141.991
20
-48.9538
11
142
21
-48.95
0
LINE
8
BLACK
6
CONTINUOUS
10
142
20
-48.95
11
158
21
-48.95
0
LINE
8
BLACK
6
CONTINUOUS
10
158
20
-48.95
11
158.218
21
-48.9643
0
LINE
8
BLACK
6
CONTINUOUS
10
158.218
20
-48.9643
11
158.433
21
-49.0069
0
LINE
8
BLACK
6
CONTINUOUS
10
121.991
20
-44.5462
11
121.772
21
-44.5634
0
LINE
8
BLACK
6
CONTINUOUS
10
121.772
20
-44.5634
11
121.551
21
-44.6167
0
LINE
8
BLACK
6
CONTINUOUS
10
121.551
20
-44.6167
11
121.34
21
-44.704
0
LINE
8
BLACK
6
CONTINUOUS
10
121.34
20
-44.704
11
121.145
21
-44.8233
0
LINE
8
BLACK
6
CONTINUOUS
10
121.145
20
-44.8233
11
120.972
21
-44.9715
0
LINE
8
BLACK
6
CONTINUOUS
10
120.972
20
-44.9715
11
120.823
21
-45.1451
0
LINE
8
BLACK
6
CONTINUOUS
10
120.823
20
-45.1451
11
120.704
21
-45.3397
0
LINE
8
BLACK
6
CONTINUOUS
10
120.704
20
-45.3397
11
120.617
21
-45.5505
0
LINE
8
BLACK
6
CONTINUOUS
10
120.617
20
-45.5505
11
120.563
21
-45.7725
0
LINE
8
BLACK
6
CONTINUOUS
10
120.563
20
-45.7725
11
120.546
21
-45.9909
0
LINE
8
BLACK
6
CONTINUOUS
10
120.546
20
-45.9909
11
120.55
21
-46
0
LINE
8
BLACK
6
CONTINUOUS
10
120.55
20
-46
11
120.55
21
-47
0
LINE
8
BLACK
6
CONTINUOUS
10
120.55
20
-47
11
120.534
21
-47.2206
0
LINE
8
BLACK
6
CONTINUOUS
10
120.534
20
-47.2206
11
120.487
21
-47.4367
0
LINE
8
BLACK
6
CONTINUOUS
10
120.487
20
-47.4367
11
120.41
21
-47.6439
0
LINE
8
BLACK
6
CONTINUOUS
10
120.41
20
-47.6439
11
120.304
21
-47.838
0
LINE
8
BLACK
6
CONTINUOUS
10
120.304
20
-47.838
11
120.171
21
-48.015
0
LINE
8
BLACK
6
CONTINUOUS
10
120.171
20
-48.015
11
120.015
21
-48.1714
0
LINE
8
BLACK
6
CONTINUOUS
10
120.015
20
-48.1714
11
119.838
21
-48.3039
0
LINE
8
BLACK
6
CONTINUOUS
10
119.838
20
-48.3039
11
119.644
21
-48.4099
0
LINE
8
BLACK
6
CONTINUOUS
10
119.644
20
-48.4099
11
119.437
21
-48.4872
0
LINE
8
BLACK
6
CONTINUOUS
10
119.437
20
-48.4872
11
119.221
21
-48.5342
0
LINE
8
BLACK
6
CONTINUOUS
10
119.221
20
-48.5342
11
119
21
-48.55
0
LINE
8
BLACK
6
CONTINUOUS
10
119
20
-48.55
11
103
21
-48.55
0
LINE
8
BLACK
6
CONTINUOUS
10
103
20
-48.55
11
102.991
21
-48.5462
0
LINE
8
BLACK
6
CONTINUOUS
10
102.991
20
-48.5462
11
102.772
21
-48.5634
0
LINE
8
BLACK
6
CONTINUOUS
10
102.772
20
-48.5634
11
102.551
21
-48.6167
0
LINE
8
BLACK
6
CONTINUOUS
10
102.551
20
-48.6167
11
102.34
21
-48.704
0
LINE
8
BLACK
6
CONTINUOUS
10
102.34
20
-48.704
11
102.145
21
-48.8233
0
LINE
8
BLACK
6
CONTINUOUS
10
102.145
20
-48.8233
11
101.972
21
-48.9715
0
LINE
8
BLACK
6
CONTINUOUS
10
101.972
20
-48.9715
11
101.823
21
-49.1451
0
LINE
8
BLACK
6
CONTINUOUS
10
101.823
20
-49.1451
11
101.704
21
-49.3397
0
LINE
8
BLACK
6
CONTINUOUS
10
101.704
20
-49.3397
11
101.617
21
-49.5505
0
LINE
8
BLACK
6
CONTINUOUS
10
101.617
20
-49.5505
11
101.563
21
-49.7725
0
LINE
8
BLACK
6
CONTINUOUS
10
101.563
20
-49.7725
11
101.546
21
-49.9909
0
LINE
8
BLACK
6
CONTINUOUS
10
101.546
20
-49.9909
11
101.55
21
-50
0
LINE
8
BLACK
6
CONTINUOUS
10
101.55
20
-50
11
101.55
21
-57.75
0
LINE
8
BLACK
6
CONTINUOUS
10
101.55
20
-57.75
11
101.534
21
-57.985
0
LINE
8
BLACK
6
CONTINUOUS
10
101.534
20
-57.985
11
101.485
21
-58.2155
0
LINE
8
BLACK
6
CONTINUOUS
10
101.485
20
-58.2155
11
101.405
21
-58.4371
0
LINE
8
BLACK
6
CONTINUOUS
10
101.405
20
-58.4371
11
101.295
21
-58.6455
0
LINE
8
BLACK
6
CONTINUOUS
10
101.295
20
-58.6455
11
101.158
21
-58.8368
0
LINE
8
BLACK
6
CONTINUOUS
10
101.158
20
-58.8368
11
100.995
21
-59.0073
0
LINE
8
BLACK
6
CONTINUOUS
10
100.995
20
-59.0073
11
100.811
21
-59.1536
0
LINE
8
BLACK
6
CONTINUOUS
10
100.811
20
-59.1536
11
100.608
21
-59.2731
0
LINE
8
BLACK
6
CONTINUOUS
10
100.608
20
-59.2731
11
100.39
21
-59.3634
0
LINE
8
BLACK
6
CONTINUOUS
10
100.39
20
-59.3634
11
100.162
21
-59.4228
0
LINE
8
BLACK
6
CONTINUOUS
10
100.162
20
-59.4228
11
99.9302
21
-59.45
0
LINE
8
BLACK
6
CONTINUOUS
10
99.9302
20
-59.45
11
99.93
21
-59.4501
0
LINE
8
BLACK
6
CONTINUOUS
10
99.93
20
-59.4501
11
79.8678
21
-61.1496
0
LINE
8
BLACK
6
CONTINUOUS
10
79.8678
20
-61.1496
11
79.8585
21
-61.1466
0
LINE
8
BLACK
6
CONTINUOUS
10
79.8585
20
-61.1466
11
79.6424
21
-61.1828
0
LINE
8
BLACK
6
CONTINUOUS
10
79.6424
20
-61.1828
11
79.426
21
-61.2552
0
LINE
8
BLACK
6
CONTINUOUS
10
79.426
20
-61.2552
11
79.2235
21
-61.3606
0
LINE
8
BLACK
6
CONTINUOUS
10
79.2235
20
-61.3606
11
79.0401
21
-61.4964
0
LINE
8
BLACK
6
CONTINUOUS
10
79.0401
20
-61.4964
11
78.8801
21
-61.6592
0
LINE
8
BLACK
6
CONTINUOUS
10
78.8801
20
-61.6592
11
78.7476
21
-61.845
0
LINE
8
BLACK
6
CONTINUOUS
10
78.7476
20
-61.845
11
78.6457
21
-62.0492
0
LINE
8
BLACK
6
CONTINUOUS
10
78.6457
20
-62.0492
11
78.5771
21
-62.2669
0
LINE
8
BLACK
6
CONTINUOUS
10
78.5771
20
-62.2669
11
78.5434
21
-62.4926
0
LINE
8
BLACK
6
CONTINUOUS
10
78.5434
20
-62.4926
11
78.5453
21
-62.7117
0
LINE
8
BLACK
6
CONTINUOUS
10
78.5453
20
-62.7117
11
78.5498
21
-62.7204
0
LINE
8
BLACK
6
CONTINUOUS
10
78.5498
20
-62.7204
11
78.5498
21
-62.7205
0
LINE
8
BLACK
6
CONTINUOUS
10
78.5498
20
-62.7205
11
78.5498
21
-62.7206
0
LINE
8
BLACK
6
CONTINUOUS
10
78.5498
20
-62.7206
11
79.4202
21
-73.1702
0
LINE
8
BLACK
6
CONTINUOUS
10
79.4202
20
-73.1702
11
79.4202
21
-73.1702
0
LINE
8
BLACK
6
CONTINUOUS
10
79.4202
20
-73.1702
11
79.4237
21
-73.3911
0
LINE
8
BLACK
6
CONTINUOUS
10
79.4237
20
-73.3911
11
79.3957
21
-73.6105
0
LINE
8
BLACK
6
CONTINUOUS
10
79.3957
20
-73.6105
11
79.3368
21
-73.8237
0
LINE
8
BLACK
6
CONTINUOUS
10
79.3368
20
-73.8237
11
79.2481
21
-74.0263
0
LINE
8
BLACK
6
CONTINUOUS
10
79.2481
20
-74.0263
11
79.1315
21
-74.2142
0
LINE
8
BLACK
6
CONTINUOUS
10
79.1315
20
-74.2142
11
78.9894
21
-74.3836
0
LINE
8
BLACK
6
CONTINUOUS
10
78.9894
20
-74.3836
11
78.8246
21
-74.531
0
LINE
8
BLACK
6
CONTINUOUS
10
78.8246
20
-74.531
11
78.6405
21
-74.6536
0
LINE
8
BLACK
6
CONTINUOUS
10
78.6405
20
-74.6536
11
78.4408
21
-74.7486
0
LINE
8
BLACK
6
CONTINUOUS
10
78.4408
20
-74.7486
11
78.2296
21
-74.8143
0
LINE
8
BLACK
6
CONTINUOUS
10
78.2296
20
-74.8143
11
78.0112
21
-74.8492
0
LINE
8
BLACK
6
CONTINUOUS
10
78.0112
20
-74.8492
11
78.0112
21
-74.8492
0
LINE
8
BLACK
6
CONTINUOUS
10
78.0112
20
-74.8492
11
62.0229
21
-76.3248
0
LINE
8
BLACK
6
CONTINUOUS
10
62.0229
20
-76.3248
11
62.0228
21
-76.3247
0
LINE
8
BLACK
6
CONTINUOUS
10
62.0228
20
-76.3247
11
62.0227
21
-76.3248
0
LINE
8
BLACK
6
CONTINUOUS
10
62.0227
20
-76.3248
11
62.0133
21
-76.3218
0
LINE
8
BLACK
6
CONTINUOUS
10
62.0133
20
-76.3218
11
61.7972
21
-76.358
0
LINE
8
BLACK
6
CONTINUOUS
10
61.7972
20
-76.358
11
61.5808
21
-76.4304
0
LINE
8
BLACK
6
CONTINUOUS
10
61.5808
20
-76.4304
11
61.3783
21
-76.5358
0
LINE
8
BLACK
6
CONTINUOUS
10
61.3783
20
-76.5358
11
61.1949
21
-76.6716
0
LINE
8
BLACK
6
CONTINUOUS
10
61.1949
20
-76.6716
11
61.0349
21
-76.8344
0
LINE
8
BLACK
6
CONTINUOUS
10
61.0349
20
-76.8344
11
60.9023
21
-77.0202
0
LINE
8
BLACK
6
CONTINUOUS
10
60.9023
20
-77.0202
11
60.8005
21
-77.2244
0
LINE
8
BLACK
6
CONTINUOUS
10
60.8005
20
-77.2244
11
60.7319
21
-77.4421
0
LINE
8
BLACK
6
CONTINUOUS
10
60.7319
20
-77.4421
11
60.6981
21
-77.6678
0
LINE
8
BLACK
6
CONTINUOUS
10
60.6981
20
-77.6678
11
60.7
21
-77.8869
0
LINE
8
BLACK
6
CONTINUOUS
10
60.7
20
-77.8869
11
60.7046
21
-77.8956
0
LINE
8
BLACK
6
CONTINUOUS
10
60.7046
20
-77.8956
11
63.9248
21
-114.077
0
LINE
8
BLACK
6
CONTINUOUS
10
63.9248
20
-114.077
11
63.9248
21
-114.077
0
LINE
8
BLACK
6
CONTINUOUS
10
63.9248
20
-114.077
11
63.9248
21
-114.077
0
LINE
8
BLACK
6
CONTINUOUS
10
63.9248
20
-114.077
11
63.9218
21
-114.087
0
LINE
8
BLACK
6
CONTINUOUS
10
63.9218
20
-114.087
11
63.958
21
-114.303
0
LINE
8
BLACK
6
CONTINUOUS
10
63.958
20
-114.303
11
64.0304
21
-114.519
0
LINE
8
BLACK
6
CONTINUOUS
10
64.0304
20
-114.519
11
64.1358
21
-114.722
0
LINE
8
BLACK
6
CONTINUOUS
10
64.1358
20
-114.722
11
64.2715
21
-114.905
0
LINE
8
BLACK
6
CONTINUOUS
10
64.2715
20
-114.905
11
64.4343
21
-115.065
0
LINE
8
BLACK
6
CONTINUOUS
10
64.4343
20
-115.065
11
64.6201
21
-115.198
0
LINE
8
BLACK
6
CONTINUOUS
10
64.6201
20
-115.198
11
64.8244
21
-115.299
0
LINE
8
BLACK
6
CONTINUOUS
10
64.8244
20
-115.299
11
65.0421
21
-115.368
0
LINE
8
BLACK
6
CONTINUOUS
10
65.0421
20
-115.368
11
65.2678
21
-115.402
0
LINE
8
BLACK
6
CONTINUOUS
10
65.2678
20
-115.402
11
65.4869
21
-115.4
0
LINE
8
BLACK
6
CONTINUOUS
10
65.4869
20
-115.4
11
65.4955
21
-115.395
0
LINE
8
BLACK
6
CONTINUOUS
10
65.4955
20
-115.395
11
65.4956
21
-115.395
0
LINE
8
BLACK
6
CONTINUOUS
10
65.4956
20
-115.395
11
65.4956
21
-115.395
0
LINE
8
BLACK
6
CONTINUOUS
10
65.4956
20
-115.395
11
65.4956
21
-115.395
0
LINE
8
BLACK
6
CONTINUOUS
10
65.4956
20
-115.395
11
81.4955
21
-113.95
0
LINE
8
BLACK
6
CONTINUOUS
10
81.4955
20
-113.95
11
81.4956
21
-113.95
0
LINE
8
BLACK
6
CONTINUOUS
10
81.4956
20
-113.95
11
81.4956
21
-113.95
0
LINE
8
BLACK
6
CONTINUOUS
10
81.4956
20
-113.95
11
81.4956
21
-113.95
0
LINE
8
BLACK
6
CONTINUOUS
10
81.4956
20
-113.95
11
81.7168
21
-113.947
0
LINE
8
BLACK
6
CONTINUOUS
10
81.7168
20
-113.947
11
81.9361
21
-113.975
0
LINE
8
BLACK
6
CONTINUOUS
10
81.9361
20
-113.975
11
82.1493
21
-114.034
0
LINE
8
BLACK
6
CONTINUOUS
10
82.1493
20
-114.034
11
82.3519
21
-114.122
0
LINE
8
BLACK
6
CONTINUOUS
10
82.3519
20
-114.122
11
82.5398
21
-114.239
0
LINE
8
BLACK
6
CONTINUOUS
10
82.5398
20
-114.239
11
82.7092
21
-114.381
0
LINE
8
BLACK
6
CONTINUOUS
10
82.7092
20
-114.381
11
82.8567
21
-114.546
0
LINE
8
BLACK
6
CONTINUOUS
10
82.8567
20
-114.546
11
82.9792
21
-114.73
0
LINE
8
BLACK
6
CONTINUOUS
10
82.9792
20
-114.73
11
83.0742
21
-114.93
0
LINE
8
BLACK
6
CONTINUOUS
10
83.0742
20
-114.93
11
83.1399
21
-115.141
0
LINE
8
BLACK
6
CONTINUOUS
10
83.1399
20
-115.141
11
83.1748
21
-115.359
0
LINE
8
BLACK
6
CONTINUOUS
10
83.1748
20
-115.359
11
83.1748
21
-115.359
0
LINE
8
BLACK
6
CONTINUOUS
10
83.1748
20
-115.359
11
83.1747
21
-115.36
0
LINE
8
BLACK
6
CONTINUOUS
10
83.1747
20
-115.36
11
83.1749
21
-115.36
0
LINE
8
BLACK
6
CONTINUOUS
10
83.1749
20
-115.36
11
83.3499
21
-117.796
0
LINE
8
BLACK
6
CONTINUOUS
10
83.3499
20
-117.796
11
83.3471
21
-117.805
0
LINE
8
BLACK
6
CONTINUOUS
10
83.3471
20
-117.805
11
83.387
21
-118.015
0
LINE
8
BLACK
6
CONTINUOUS
10
83.387
20
-118.015
11
83.463
21
-118.226
0
LINE
8
BLACK
6
CONTINUOUS
10
83.463
20
-118.226
11
83.5713
21
-118.422
0
LINE
8
BLACK
6
CONTINUOUS
10
83.5713
20
-118.422
11
83.7093
21
-118.598
0
LINE
8
BLACK
6
CONTINUOUS
10
83.7093
20
-118.598
11
83.8734
21
-118.751
0
LINE
8
BLACK
6
CONTINUOUS
10
83.8734
20
-118.751
11
84.0596
21
-118.875
0
LINE
8
BLACK
6
CONTINUOUS
10
84.0596
20
-118.875
11
84.2632
21
-118.969
0
LINE
8
BLACK
6
CONTINUOUS
10
84.2632
20
-118.969
11
84.479
21
-119.029
0
LINE
8
BLACK
6
CONTINUOUS
10
84.479
20
-119.029
11
84.6901
21
-119.053
0
LINE
8
BLACK
6
CONTINUOUS
10
84.6901
20
-119.053
11
84.6956
21
-119.05
0
LINE
8
BLACK
6
CONTINUOUS
10
84.6956
20
-119.05
11
102.996
21
-117.45
0
LINE
8
BLACK
6
CONTINUOUS
10
102.996
20
-117.45
11
103.005
21
-117.453
0
LINE
8
BLACK
6
CONTINUOUS
10
103.005
20
-117.453
11
103.015
21
-117.452
0
LINE
8
BLACK
6
CONTINUOUS
10
103.015
20
-117.452
11
130.008
21
-125.95
0
LINE
8
BLACK
6
CONTINUOUS
10
130.008
20
-125.95
11
149
21
-125.95
0
LINE
8
BLACK
6
CONTINUOUS
10
149
20
-125.95
11
149.006
21
-125.953
0
LINE
8
BLACK
6
CONTINUOUS
10
149.006
20
-125.953
11
149.013
21
-125.952
0
LINE
8
BLACK
6
CONTINUOUS
10
149.013
20
-125.952
11
167.513
21
-130.952
0
LINE
8
BLACK
6
CONTINUOUS
10
167.513
20
-130.952
11
167.518
21
-130.956
0
LINE
8
BLACK
6
CONTINUOUS
10
167.518
20
-130.956
11
167.525
21
-130.957
0
LINE
8
BLACK
6
CONTINUOUS
10
167.525
20
-130.957
11
183.025
21
-139.957
0
LINE
8
BLACK
6
CONTINUOUS
10
183.025
20
-139.957
11
183.031
21
-139.965
0
LINE
8
BLACK
6
CONTINUOUS
10
183.031
20
-139.965
11
183.229
21
-140.059
0
LINE
8
BLACK
6
CONTINUOUS
10
183.229
20
-140.059
11
183.448
21
-140.124
0
LINE
8
BLACK
6
CONTINUOUS
10
183.448
20
-140.124
11
183.674
21
-140.153
0
LINE
8
BLACK
6
CONTINUOUS
10
183.674
20
-140.153
11
183.902
21
-140.147
0
LINE
8
BLACK
6
CONTINUOUS
10
183.902
20
-140.147
11
184.126
21
-140.106
0
LINE
8
BLACK
6
CONTINUOUS
10
184.126
20
-140.106
11
184.342
21
-140.03
0
LINE
8
BLACK
6
CONTINUOUS
10
184.342
20
-140.03
11
184.542
21
-139.921
0
LINE
8
BLACK
6
CONTINUOUS
10
184.542
20
-139.921
11
184.723
21
-139.782
0
LINE
8
BLACK
6
CONTINUOUS
10
184.723
20
-139.782
11
184.88
21
-139.616
0
LINE
8
BLACK
6
CONTINUOUS
10
184.88
20
-139.616
11
185.004
21
-139.436
0
LINE
8
BLACK
6
CONTINUOUS
10
185.004
20
-139.436
11
185.006
21
-139.426
0
LINE
8
BLACK
6
CONTINUOUS
10
185.006
20
-139.426
11
198.45
21
-115.987
0
LINE
8
BLACK
6
CONTINUOUS
10
198.45
20
-115.987
11
198.45
21
-105.5
0
LINE
8
BLACK
6
CONTINUOUS
10
198.45
20
-105.5
11
198.454
21
-105.491
0
LINE
8
BLACK
6
CONTINUOUS
10
198.454
20
-105.491
11
198.437
21
-105.272
0
LINE
8
BLACK
6
CONTINUOUS
10
198.437
20
-105.272
11
198.383
21
-105.051
0
LINE
8
BLACK
6
CONTINUOUS
10
198.383
20
-105.051
11
198.296
21
-104.84
0
LINE
8
BLACK
6
CONTINUOUS
10
198.296
20
-104.84
11
198.177
21
-104.645
0
LINE
8
BLACK
6
CONTINUOUS
10
198.177
20
-104.645
11
198.028
21
-104.472
0
LINE
8
BLACK
6
CONTINUOUS
10
198.028
20
-104.472
11
197.855
21
-104.323
0
LINE
8
BLACK
6
CONTINUOUS
10
197.855
20
-104.323
11
197.66
21
-104.204
0
LINE
8
BLACK
6
CONTINUOUS
10
197.66
20
-104.204
11
197.449
21
-104.117
0
LINE
8
BLACK
6
CONTINUOUS
10
197.449
20
-104.117
11
197.228
21
-104.063
0
LINE
8
BLACK
6
CONTINUOUS
10
197.228
20
-104.063
11
197.009
21
-104.046
0
LINE
8
BLACK
6
CONTINUOUS
10
197.009
20
-104.046
11
197
21
-104.05
0
LINE
8
BLACK
6
CONTINUOUS
10
197
20
-104.05
11
180
21
-104.05
0
LINE
8
BLACK
6
CONTINUOUS
10
180
20
-104.05
11
179.779
21
-104.034
0
LINE
8
BLACK
6
CONTINUOUS
10
179.779
20
-104.034
11
179.563
21
-103.987
0
LINE
8
BLACK
6
CONTINUOUS
10
179.563
20
-103.987
11
179.356
21
-103.91
0
LINE
8
BLACK
6
CONTINUOUS
10
179.356
20
-103.91
11
179.162
21
-103.804
0
LINE
8
BLACK
6
CONTINUOUS
10
179.162
20
-103.804
11
178.985
21
-103.671
0
LINE
8
BLACK
6
CONTINUOUS
10
178.985
20
-103.671
11
178.829
21
-103.515
0
LINE
8
BLACK
6
CONTINUOUS
10
178.829
20
-103.515
11
178.696
21
-103.338
0
LINE
8
BLACK
6
CONTINUOUS
10
178.696
20
-103.338
11
178.59
21
-103.144
0
LINE
8
BLACK
6
CONTINUOUS
10
178.59
20
-103.144
11
178.513
21
-102.937
0
LINE
8
BLACK
6
CONTINUOUS
10
178.513
20
-102.937
11
178.466
21
-102.721
0
LINE
8
BLACK
6
CONTINUOUS
10
178.466
20
-102.721
11
178.45
21
-102.5
0
LINE
8
BLACK
6
CONTINUOUS
10
178.45
20
-102.5
11
178.45
21
-52.5
0
LINE
8
BLACK
6
CONTINUOUS
10
178.45
20
-52.5
11
178.454
21
-52.4909
0
LINE
8
BLACK
6
CONTINUOUS
10
178.454
20
-52.4909
11
178.437
21
-52.2725
0
LINE
8
BLACK
6
CONTINUOUS
10
178.437
20
-52.2725
11
178.383
21
-52.0505
0
LINE
8
BLACK
6
CONTINUOUS
10
178.383
20
-52.0505
11
178.296
21
-51.8397
0
LINE
8
BLACK
6
CONTINUOUS
10
178.296
20
-51.8397
11
178.177
21
-51.6451
0
LINE
8
BLACK
6
CONTINUOUS
10
178.177
20
-51.6451
11
178.028
21
-51.4715
0
LINE
8
BLACK
6
CONTINUOUS
10
178.028
20
-51.4715
11
177.855
21
-51.3233
0
LINE
8
BLACK
6
CONTINUOUS
10
177.855
20
-51.3233
11
177.66
21
-51.204
0
LINE
8
BLACK
6
CONTINUOUS
10
177.66
20
-51.204
11
177.449
21
-51.1167
0
LINE
8
BLACK
6
CONTINUOUS
10
177.449
20
-51.1167
11
177.228
21
-51.0634
0
LINE
8
BLACK
6
CONTINUOUS
10
177.228
20
-51.0634
11
177.009
21
-51.0462
0
LINE
8
BLACK
6
CONTINUOUS
10
177.009
20
-51.0462
11
177
21
-51.05
0
LINE
8
BLACK
6
CONTINUOUS
10
177
20
-51.05
11
161
21
-51.05
0
LINE
8
BLACK
6
CONTINUOUS
10
161
20
-51.05
11
160.782
21
-51.0357
0
LINE
8
BLACK
6
CONTINUOUS
10
160.782
20
-51.0357
11
160.567
21
-50.9931
0
LINE
8
BLACK
6
CONTINUOUS
10
160.567
20
-50.9931
11
160.36
21
-50.9229
0
LINE
8
BLACK
6
CONTINUOUS
10
160.36
20
-50.9229
11
160.164
21
-50.8264
0
LINE
8
BLACK
6
CONTINUOUS
10
160.164
20
-50.8264
11
159.982
21
-50.7051
0
LINE
8
BLACK
6
CONTINUOUS
10
159.982
20
-50.7051
11
159.817
21
-50.5611
0
LINE
8
BLACK
6
CONTINUOUS
10
159.817
20
-50.5611
11
159.673
21
-50.3968
0
LINE
8
BLACK
6
CONTINUOUS
10
159.673
20
-50.3968
11
159.551
21
-50.2152
0
LINE
8
BLACK
6
CONTINUOUS
10
159.551
20
-50.2152
11
159.454
21
-50.0192
0
LINE
8
BLACK
6
CONTINUOUS
10
159.454
20
-50.0192
11
159.454
21
-50.0099
0
LINE
8
BLACK
6
CONTINUOUS
10
159.454
20
-50.0099
11
159.353
21
-49.8106
0
LINE
8
BLACK
6
CONTINUOUS
10
159.353
20
-49.8106
11
159.219
21
-49.6212
0
LINE
8
BLACK
6
CONTINUOUS
10
159.219
20
-49.6212
11
159.059
21
-49.4535
0
LINE
8
BLACK
6
CONTINUOUS
10
159.059
20
-49.4535
11
158.876
21
-49.311
0
LINE
8
BLACK
6
CONTINUOUS
10
158.876
20
-49.311
11
158.674
21
-49.1969
0
LINE
8
BLACK
6
CONTINUOUS
10
158.674
20
-49.1969
11
158.458
21
-49.1135
0
LINE
8
BLACK
6
CONTINUOUS
10
158.458
20
-49.1135
11
158.231
21
-49.0628
0
LINE
8
BLACK
6
CONTINUOUS
10
158.231
20
-49.0628
11
158.009
21
-49.0464
0
LINE
8
BLACK
6
CONTINUOUS
10
158.009
20
-49.0464
11
158
21
-49.05
0
LINE
8
BLACK
6
CONTINUOUS
10
158
20
-49.05
11
142
21
-49.05
0
LINE
8
BLACK
6
CONTINUOUS
10
142
20
-49.05
11
141.779
21
-49.0342
0
LINE
8
BLACK
6
CONTINUOUS
10
141.779
20
-49.0342
11
141.563
21
-48.9872
0
LINE
8
BLACK
6
CONTINUOUS
10
141.563
20
-48.9872
11
141.356
21
-48.9099
0
LINE
8
BLACK
6
CONTINUOUS
10
141.356
20
-48.9099
11
141.162
21
-48.8039
0
LINE
8
BLACK
6
CONTINUOUS
10
141.162
20
-48.8039
11
140.985
21
-48.6714
0
LINE
8
BLACK
6
CONTINUOUS
10
140.985
20
-48.6714
11
140.829
21
-48.515
0
LINE
8
BLACK
6
CONTINUOUS
10
140.829
20
-48.515
11
140.696
21
-48.338
0
LINE
8
BLACK
6
CONTINUOUS
10
140.696
20
-48.338
11
140.59
21
-48.1439
0
LINE
8
BLACK
6
CONTINUOUS
10
140.59
20
-48.1439
11
140.513
21
-47.9367
0
LINE
8
BLACK
6
CONTINUOUS
10
140.513
20
-47.9367
11
140.466
21
-47.7206
0
LINE
8
BLACK
6
CONTINUOUS
10
140.466
20
-47.7206
11
140.45
21
-47.5
0
LINE
8
BLACK
6
CONTINUOUS
10
140.45
20
-47.5
11
140.45
21
-46
0
LINE
8
BLACK
6
CONTINUOUS
10
140.45
20
-46
11
140.454
21
-45.9909
0
LINE
8
BLACK
6
CONTINUOUS
10
140.454
20
-45.9909
11
140.437
21
-45.7725
0
LINE
8
BLACK
6
CONTINUOUS
10
140.437
20
-45.7725
11
140.383
21
-45.5505
0
LINE
8
BLACK
6
CONTINUOUS
10
140.383
20
-45.5505
11
140.296
21
-45.3397
0
LINE
8
BLACK
6
CONTINUOUS
10
140.296
20
-45.3397
11
140.177
21
-45.1451
0
LINE
8
BLACK
6
CONTINUOUS
10
140.177
20
-45.1451
11
140.028
21
-44.9715
0
LINE
8
BLACK
6
CONTINUOUS
10
140.028
20
-44.9715
11
139.855
21
-44.8233
0
LINE
8
BLACK
6
CONTINUOUS
10
139.855
20
-44.8233
11
139.66
21
-44.704
0
LINE
8
BLACK
6
CONTINUOUS
10
139.66
20
-44.704
11
139.449
21
-44.6167
0
LINE
8
BLACK
6
CONTINUOUS
10
139.449
20
-44.6167
11
139.228
21
-44.5634
0
LINE
8
BLACK
6
CONTINUOUS
10
139.228
20
-44.5634
11
139.009
21
-44.5462
0
LINE
8
BLACK
6
CONTINUOUS
10
139.009
20
-44.5462
11
139
21
-44.55
0
LINE
8
BLACK
6
CONTINUOUS
10
139
20
-44.55
11
122
21
-44.55
0
LINE
8
BLACK
6
CONTINUOUS
10
122
20
-44.55
11
121.991
21
-44.5462
0
LINE
8
BLACK
6
CONTINUOUS
10
180.468
20
-112.886
11
192.592
21
-119.886
0
LINE
8
BLACK
6
CONTINUOUS
10
192.592
20
-119.886
11
192.609
21
-119.908
0
LINE
8
BLACK
6
CONTINUOUS
10
192.609
20
-119.908
11
192.62
21
-119.922
0
LINE
8
BLACK
6
CONTINUOUS
10
192.62
20
-119.922
11
192.614
21
-119.968
0
LINE
8
BLACK
6
CONTINUOUS
10
192.614
20
-119.968
11
185.614
21
-132.092
0
LINE
8
BLACK
6
CONTINUOUS
10
185.614
20
-132.092
11
185.578
21
-132.12
0
LINE
8
BLACK
6
CONTINUOUS
10
185.578
20
-132.12
11
185.532
21
-132.114
0
LINE
8
BLACK
6
CONTINUOUS
10
185.532
20
-132.114
11
185.532
21
-132.114
0
LINE
8
BLACK
6
CONTINUOUS
10
185.532
20
-132.114
11
173.408
21
-125.114
0
LINE
8
BLACK
6
CONTINUOUS
10
173.408
20
-125.114
11
173.38
21
-125.078
0
LINE
8
BLACK
6
CONTINUOUS
10
173.38
20
-125.078
11
173.386
21
-125.032
0
LINE
8
BLACK
6
CONTINUOUS
10
173.386
20
-125.032
11
180.386
21
-112.908
0
LINE
8
BLACK
6
CONTINUOUS
10
180.386
20
-112.908
11
180.422
21
-112.88
0
LINE
8
BLACK
6
CONTINUOUS
10
180.422
20
-112.88
11
180.468
21
-112.886
0
LINE
8
BLACK
6
CONTINUOUS
10
173.52
20
-125.04
11
185.54
21
-131.98
0
LINE
8
BLACK
6
CONTINUOUS
10
185.54
20
-131.98
11
192.48
21
-119.96
0
LINE
8
BLACK
6
CONTINUOUS
10
192.48
20
-119.96
11
180.46
21
-113.02
0
LINE
8
BLACK
6
CONTINUOUS
10
180.46
20
-113.02
11
173.52
21
-125.04
0
LINE
8
BLACK
6
CONTINUOUS
10
169.339
20
-113.742
11
169.339
21
-113.742
0
LINE
8
BLACK
6
CONTINUOUS
10
169.339
20
-113.742
11
169.375
21
-113.77
0
LINE
8
BLACK
6
CONTINUOUS
10
169.375
20
-113.77
11
169.381
21
-113.816
0
LINE
8
BLACK
6
CONTINUOUS
10
169.381
20
-113.816
11
165.758
21
-127.339
0
LINE
8
BLACK
6
CONTINUOUS
10
165.758
20
-127.339
11
165.73
21
-127.375
0
LINE
8
BLACK
6
CONTINUOUS
10
165.73
20
-127.375
11
165.684
21
-127.381
0
LINE
8
BLACK
6
CONTINUOUS
10
165.684
20
-127.381
11
152.161
21
-123.758
0
LINE
8
BLACK
6
CONTINUOUS
10
152.161
20
-123.758
11
152.125
21
-123.73
0
LINE
8
BLACK
6
CONTINUOUS
10
152.125
20
-123.73
11
152.119
21
-123.684
0
LINE
8
BLACK
6
CONTINUOUS
10
152.119
20
-123.684
11
155.742
21
-110.161
0
LINE
8
BLACK
6
CONTINUOUS
10
155.742
20
-110.161
11
155.742
21
-110.161
0
LINE
8
BLACK
6
CONTINUOUS
10
155.742
20
-110.161
11
155.77
21
-110.125
0
LINE
8
BLACK
6
CONTINUOUS
10
155.77
20
-110.125
11
155.816
21
-110.119
0
LINE
8
BLACK
6
CONTINUOUS
10
155.816
20
-110.119
11
169.339
21
-113.742
0
LINE
8
BLACK
6
CONTINUOUS
10
152.25
20
-123.657
11
165.657
21
-127.25
0
LINE
8
BLACK
6
CONTINUOUS
10
165.657
20
-127.25
11
169.25
21
-113.843
0
LINE
8
BLACK
6
CONTINUOUS
10
169.25
20
-113.843
11
155.843
21
-110.25
0
LINE
8
BLACK
6
CONTINUOUS
10
155.843
20
-110.25
11
152.25
21
-123.657
0
LINE
8
BLACK
6
CONTINUOUS
10
132.458
20
-123.042
11
132.44
21
-123
0
LINE
8
BLACK
6
CONTINUOUS
10
132.44
20
-123
11
132.44
21
-109
0
LINE
8
BLACK
6
CONTINUOUS
10
132.44
20
-109
11
132.458
21
-108.958
0
LINE
8
BLACK
6
CONTINUOUS
10
132.458
20
-108.958
11
132.5
21
-108.94
0
LINE
8
BLACK
6
CONTINUOUS
10
132.5
20
-108.94
11
146.5
21
-108.94
0
LINE
8
BLACK
6
CONTINUOUS
10
146.5
20
-108.94
11
146.542
21
-108.958
0
LINE
8
BLACK
6
CONTINUOUS
10
146.542
20
-108.958
11
146.56
21
-109
0
LINE
8
BLACK
6
CONTINUOUS
10
146.56
20
-109
11
146.56
21
-123
0
LINE
8
BLACK
6
CONTINUOUS
10
146.56
20
-123
11
146.542
21
-123.042
0
LINE
8
BLACK
6
CONTINUOUS
10
146.542
20
-123.042
11
146.5
21
-123.06
0
LINE
8
BLACK
6
CONTINUOUS
10
146.5
20
-123.06
11
132.5
21
-123.06
0
LINE
8
BLACK
6
CONTINUOUS
10
132.5
20
-123.06
11
132.458
21
-123.042
0
LINE
8
BLACK
6
CONTINUOUS
10
132.56
20
-109.06
11
132.56
21
-122.94
0
LINE
8
BLACK
6
CONTINUOUS
10
132.56
20
-122.94
11
146.44
21
-122.94
0
LINE
8
BLACK
6
CONTINUOUS
10
146.44
20
-122.94
11
146.44
21
-109.06
0
LINE
8
BLACK
6
CONTINUOUS
10
146.44
20
-109.06
11
132.56
21
-109.06
0
LINE
8
BLACK
6
CONTINUOUS
10
99.0018
20
-100.671
11
99.023
21
-100.711
0
LINE
8
BLACK
6
CONTINUOUS
10
99.023
20
-100.711
11
100.243
21
-114.658
0
LINE
8
BLACK
6
CONTINUOUS
10
100.243
20
-114.658
11
100.24
21
-114.669
0
LINE
8
BLACK
6
CONTINUOUS
10
100.24
20
-114.669
11
100.229
21
-114.702
0
LINE
8
BLACK
6
CONTINUOUS
10
100.229
20
-114.702
11
100.189
21
-114.723
0
LINE
8
BLACK
6
CONTINUOUS
10
100.189
20
-114.723
11
86.242
21
-115.943
0
LINE
8
BLACK
6
CONTINUOUS
10
86.242
20
-115.943
11
86.1982
21
-115.929
0
LINE
8
BLACK
6
CONTINUOUS
10
86.1982
20
-115.929
11
86.177
21
-115.889
0
LINE
8
BLACK
6
CONTINUOUS
10
86.177
20
-115.889
11
84.9568
21
-101.942
0
LINE
8
BLACK
6
CONTINUOUS
10
84.9568
20
-101.942
11
84.9706
21
-101.898
0
LINE
8
BLACK
6
CONTINUOUS
10
84.9706
20
-101.898
11
85.0113
21
-101.877
0
LINE
8
BLACK
6
CONTINUOUS
10
85.0113
20
-101.877
11
98.958
21
-100.657
0
LINE
8
BLACK
6
CONTINUOUS
10
98.958
20
-100.657
11
98.958
21
-100.657
0
LINE
8
BLACK
6
CONTINUOUS
10
98.958
20
-100.657
11
99.0018
21
-100.671
0
LINE
8
BLACK
6
CONTINUOUS
10
85.0815
20
-101.991
11
86.2913
21
-115.818
0
LINE
8
BLACK
6
CONTINUOUS
10
86.2913
20
-115.818
11
100.118
21
-114.609
0
LINE
8
BLACK
6
CONTINUOUS
10
100.118
20
-114.609
11
98.9087
21
-100.782
0
LINE
8
BLACK
6
CONTINUOUS
10
98.9087
20
-100.782
11
85.0815
21
-101.991
0
LINE
8
BLACK
6
CONTINUOUS
10
79.6018
20
-96.9706
11
79.623
21
-97.0113
0
LINE
8
BLACK
6
CONTINUOUS
10
79.623
20
-97.0113
11
80.8432
21
-110.958
0
LINE
8
BLACK
6
CONTINUOUS
10
80.8432
20
-110.958
11
80.8399
21
-110.969
0
LINE
8
BLACK
6
CONTINUOUS
10
80.8399
20
-110.969
11
80.8294
21
-111.002
0
LINE
8
BLACK
6
CONTINUOUS
10
80.8294
20
-111.002
11
80.7887
21
-111.023
0
LINE
8
BLACK
6
CONTINUOUS
10
80.7887
20
-111.023
11
66.842
21
-112.243
0
LINE
8
BLACK
6
CONTINUOUS
10
66.842
20
-112.243
11
66.7982
21
-112.229
0
LINE
8
BLACK
6
CONTINUOUS
10
66.7982
20
-112.229
11
66.777
21
-112.189
0
LINE
8
BLACK
6
CONTINUOUS
10
66.777
20
-112.189
11
65.5568
21
-98.242
0
LINE
8
BLACK
6
CONTINUOUS
10
65.5568
20
-98.242
11
65.5706
21
-98.1982
0
LINE
8
BLACK
6
CONTINUOUS
10
65.5706
20
-98.1982
11
65.6113
21
-98.177
0
LINE
8
BLACK
6
CONTINUOUS
10
65.6113
20
-98.177
11
79.558
21
-96.9568
0
LINE
8
BLACK
6
CONTINUOUS
10
79.558
20
-96.9568
11
79.558
21
-96.9568
0
LINE
8
BLACK
6
CONTINUOUS
10
79.558
20
-96.9568
11
79.6018
21
-96.9706
0
LINE
8
BLACK
6
CONTINUOUS
10
65.6815
20
-98.2913
11
66.8913
21
-112.118
0
LINE
8
BLACK
6
CONTINUOUS
10
66.8913
20
-112.118
11
80.7185
21
-110.909
0
LINE
8
BLACK
6
CONTINUOUS
10
80.7185
20
-110.909
11
79.5087
21
-97.0815
0
LINE
8
BLACK
6
CONTINUOUS
10
79.5087
20
-97.0815
11
65.6815
21
-98.2913
0
LINE
8
BLACK
6
CONTINUOUS
10
161.458
20
-106.042
11
161.44
21
-106
0
LINE
8
BLACK
6
CONTINUOUS
10
161.44
20
-106
11
161.44
21
-92
0
LINE
8
BLACK
6
CONTINUOUS
10
161.44
20
-92
11
161.458
21
-91.9576
0
LINE
8
BLACK
6
CONTINUOUS
10
161.458
20
-91.9576
11
161.5
21
-91.94
0
LINE
8
BLACK
6
CONTINUOUS
10
161.5
20
-91.94
11
175.5
21
-91.94
0
LINE
8
BLACK
6
CONTINUOUS
10
175.5
20
-91.94
11
175.542
21
-91.9576
0
LINE
8
BLACK
6
CONTINUOUS
10
175.542
20
-91.9576
11
175.56
21
-92
0
LINE
8
BLACK
6
CONTINUOUS
10
175.56
20
-92
11
175.56
21
-106
0
LINE
8
BLACK
6
CONTINUOUS
10
175.56
20
-106
11
175.542
21
-106.042
0
LINE
8
BLACK
6
CONTINUOUS
10
175.542
20
-106.042
11
175.5
21
-106.06
0
LINE
8
BLACK
6
CONTINUOUS
10
175.5
20
-106.06
11
161.5
21
-106.06
0
LINE
8
BLACK
6
CONTINUOUS
10
161.5
20
-106.06
11
161.458
21
-106.042
0
LINE
8
BLACK
6
CONTINUOUS
10
161.56
20
-92.06
11
161.56
21
-105.94
0
LINE
8
BLACK
6
CONTINUOUS
10
161.56
20
-105.94
11
175.44
21
-105.94
0
LINE
8
BLACK
6
CONTINUOUS
10
175.44
20
-105.94
11
175.44
21
-92.06
0
LINE
8
BLACK
6
CONTINUOUS
10
175.44
20
-92.06
11
161.56
21
-92.06
0
LINE
8
BLACK
6
CONTINUOUS
10
142.458
20
-104.042
11
142.44
21
-104
0
LINE
8
BLACK
6
CONTINUOUS
10
142.44
20
-104
11
142.44
21
-90
0
LINE
8
BLACK
6
CONTINUOUS
10
142.44
20
-90
11
142.458
21
-89.9576
0
LINE
8
BLACK
6
CONTINUOUS
10
142.458
20
-89.9576
11
142.5
21
-89.94
0
LINE
8
BLACK
6
CONTINUOUS
10
142.5
20
-89.94
11
156.5
21
-89.94
0
LINE
8
BLACK
6
CONTINUOUS
10
156.5
20
-89.94
11
156.542
21
-89.9576
0
LINE
8
BLACK
6
CONTINUOUS
10
156.542
20
-89.9576
11
156.56
21
-90
0
LINE
8
BLACK
6
CONTINUOUS
10
156.56
20
-90
11
156.56
21
-104
0
LINE
8
BLACK
6
CONTINUOUS
10
156.56
20
-104
11
156.542
21
-104.042
0
LINE
8
BLACK
6
CONTINUOUS
10
156.542
20
-104.042
11
156.5
21
-104.06
0
LINE
8
BLACK
6
CONTINUOUS
10
156.5
20
-104.06
11
142.5
21
-104.06
0
LINE
8
BLACK
6
CONTINUOUS
10
142.5
20
-104.06
11
142.458
21
-104.042
0
LINE
8
BLACK
6
CONTINUOUS
10
142.56
20
-90.06
11
142.56
21
-103.94
0
LINE
8
BLACK
6
CONTINUOUS
10
142.56
20
-103.94
11
156.44
21
-103.94
0
LINE
8
BLACK
6
CONTINUOUS
10
156.44
20
-103.94
11
156.44
21
-90.06
0
LINE
8
BLACK
6
CONTINUOUS
10
156.44
20
-90.06
11
142.56
21
-90.06
0
LINE
8
BLACK
6
CONTINUOUS
10
104.458
20
-103.542
11
104.44
21
-103.5
0
LINE
8
BLACK
6
CONTINUOUS
10
104.44
20
-103.5
11
104.44
21
-89.5
0
LINE
8
BLACK
6
CONTINUOUS
10
104.44
20
-89.5
11
104.458
21
-89.4576
0
LINE
8
BLACK
6
CONTINUOUS
10
104.458
20
-89.4576
11
104.5
21
-89.44
0
LINE
8
BLACK
6
CONTINUOUS
10
104.5
20
-89.44
11
118.5
21
-89.44
0
LINE
8
BLACK
6
CONTINUOUS
10
118.5
20
-89.44
11
118.542
21
-89.4576
0
LINE
8
BLACK
6
CONTINUOUS
10
118.542
20
-89.4576
11
118.56
21
-89.5
0
LINE
8
BLACK
6
CONTINUOUS
10
118.56
20
-89.5
11
118.56
21
-103.5
0
LINE
8
BLACK
6
CONTINUOUS
10
118.56
20
-103.5
11
118.542
21
-103.542
0
LINE
8
BLACK
6
CONTINUOUS
10
118.542
20
-103.542
11
118.5
21
-103.56
0
LINE
8
BLACK
6
CONTINUOUS
10
118.5
20
-103.56
11
104.5
21
-103.56
0
LINE
8
BLACK
6
CONTINUOUS
10
104.5
20
-103.56
11
104.458
21
-103.542
0
LINE
8
BLACK
6
CONTINUOUS
10
104.56
20
-89.56
11
104.56
21
-103.44
0
LINE
8
BLACK
6
CONTINUOUS
10
104.56
20
-103.44
11
118.44
21
-103.44
0
LINE
8
BLACK
6
CONTINUOUS
10
118.44
20
-103.44
11
118.44
21
-89.56
0
LINE
8
BLACK
6
CONTINUOUS
10
118.44
20
-89.56
11
104.56
21
-89.56
0
LINE
8
BLACK
6
CONTINUOUS
10
123.458
20
-99.5424
11
123.44
21
-99.5
0
LINE
8
BLACK
6
CONTINUOUS
10
123.44
20
-99.5
11
123.44
21
-85.5
0
LINE
8
BLACK
6
CONTINUOUS
10
123.44
20
-85.5
11
123.458
21
-85.4576
0
LINE
8
BLACK
6
CONTINUOUS
10
123.458
20
-85.4576
11
123.5
21
-85.44
0
LINE
8
BLACK
6
CONTINUOUS
10
123.5
20
-85.44
11
137.5
21
-85.44
0
LINE
8
BLACK
6
CONTINUOUS
10
137.5
20
-85.44
11
137.542
21
-85.4576
0
LINE
8
BLACK
6
CONTINUOUS
10
137.542
20
-85.4576
11
137.56
21
-85.5
0
LINE
8
BLACK
6
CONTINUOUS
10
137.56
20
-85.5
11
137.56
21
-99.5
0
LINE
8
BLACK
6
CONTINUOUS
10
137.56
20
-99.5
11
137.542
21
-99.5424
0
LINE
8
BLACK
6
CONTINUOUS
10
137.542
20
-99.5424
11
137.5
21
-99.56
0
LINE
8
BLACK
6
CONTINUOUS
10
137.5
20
-99.56
11
123.5
21
-99.56
0
LINE
8
BLACK
6
CONTINUOUS
10
123.5
20
-99.56
11
123.458
21
-99.5424
0
LINE
8
BLACK
6
CONTINUOUS
10
123.56
20
-85.56
11
123.56
21
-99.44
0
LINE
8
BLACK
6
CONTINUOUS
10
123.56
20
-99.44
11
137.44
21
-99.44
0
LINE
8
BLACK
6
CONTINUOUS
10
137.44
20
-99.44
11
137.44
21
-85.56
0
LINE
8
BLACK
6
CONTINUOUS
10
137.44
20
-85.56
11
123.56
21
-85.56
0
LINE
8
BLACK
6
CONTINUOUS
10
97.3518
20
-81.7206
11
97.373
21
-81.7613
0
LINE
8
BLACK
6
CONTINUOUS
10
97.373
20
-81.7613
11
98.5932
21
-95.708
0
LINE
8
BLACK
6
CONTINUOUS
10
98.5932
20
-95.708
11
98.5899
21
-95.7185
0
LINE
8
BLACK
6
CONTINUOUS
10
98.5899
20
-95.7185
11
98.5794
21
-95.7518
0
LINE
8
BLACK
6
CONTINUOUS
10
98.5794
20
-95.7518
11
98.5387
21
-95.773
0
LINE
8
BLACK
6
CONTINUOUS
10
98.5387
20
-95.773
11
84.592
21
-96.9932
0
LINE
8
BLACK
6
CONTINUOUS
10
84.592
20
-96.9932
11
84.5482
21
-96.9794
0
LINE
8
BLACK
6
CONTINUOUS
10
84.5482
20
-96.9794
11
84.527
21
-96.9387
0
LINE
8
BLACK
6
CONTINUOUS
10
84.527
20
-96.9387
11
83.3068
21
-82.992
0
LINE
8
BLACK
6
CONTINUOUS
10
83.3068
20
-82.992
11
83.3206
21
-82.9482
0
LINE
8
BLACK
6
CONTINUOUS
10
83.3206
20
-82.9482
11
83.3613
21
-82.927
0
LINE
8
BLACK
6
CONTINUOUS
10
83.3613
20
-82.927
11
97.308
21
-81.7068
0
LINE
8
BLACK
6
CONTINUOUS
10
97.308
20
-81.7068
11
97.308
21
-81.7068
0
LINE
8
BLACK
6
CONTINUOUS
10
97.308
20
-81.7068
11
97.3518
21
-81.7206
0
LINE
8
BLACK
6
CONTINUOUS
10
83.4315
20
-83.0413
11
84.6413
21
-96.8685
0
LINE
8
BLACK
6
CONTINUOUS
10
84.6413
20
-96.8685
11
98.4685
21
-95.6587
0
LINE
8
BLACK
6
CONTINUOUS
10
98.4685
20
-95.6587
11
97.2587
21
-81.8315
0
LINE
8
BLACK
6
CONTINUOUS
10
97.2587
20
-81.8315
11
83.4315
21
-83.0413
0
LINE
8
BLACK
6
CONTINUOUS
10
77.9018
20
-77.9706
11
77.923
21
-78.0113
0
LINE
8
BLACK
6
CONTINUOUS
10
77.923
20
-78.0113
11
79.1432
21
-91.958
0
LINE
8
BLACK
6
CONTINUOUS
10
79.1432
20
-91.958
11
79.1399
21
-91.9685
0
LINE
8
BLACK
6
CONTINUOUS
10
79.1399
20
-91.9685
11
79.1294
21
-92.0018
0
LINE
8
BLACK
6
CONTINUOUS
10
79.1294
20
-92.0018
11
79.0887
21
-92.023
0
LINE
8
BLACK
6
CONTINUOUS
10
79.0887
20
-92.023
11
65.142
21
-93.2432
0
LINE
8
BLACK
6
CONTINUOUS
10
65.142
20
-93.2432
11
65.0982
21
-93.2294
0
LINE
8
BLACK
6
CONTINUOUS
10
65.0982
20
-93.2294
11
65.077
21
-93.1887
0
LINE
8
BLACK
6
CONTINUOUS
10
65.077
20
-93.1887
11
63.8568
21
-79.242
0
LINE
8
BLACK
6
CONTINUOUS
10
63.8568
20
-79.242
11
63.8706
21
-79.1982
0
LINE
8
BLACK
6
CONTINUOUS
10
63.8706
20
-79.1982
11
63.9113
21
-79.177
0
LINE
8
BLACK
6
CONTINUOUS
10
63.9113
20
-79.177
11
77.858
21
-77.9568
0
LINE
8
BLACK
6
CONTINUOUS
10
77.858
20
-77.9568
11
77.858
21
-77.9568
0
LINE
8
BLACK
6
CONTINUOUS
10
77.858
20
-77.9568
11
77.9018
21
-77.9706
0
LINE
8
BLACK
6
CONTINUOUS
10
63.9815
20
-79.2913
11
65.1913
21
-93.1185
0
LINE
8
BLACK
6
CONTINUOUS
10
65.1913
20
-93.1185
11
79.0185
21
-91.9087
0
LINE
8
BLACK
6
CONTINUOUS
10
79.0185
20
-91.9087
11
77.8087
21
-78.0815
0
LINE
8
BLACK
6
CONTINUOUS
10
77.8087
20
-78.0815
11
63.9815
21
-79.2913
0
LINE
8
BLACK
6
CONTINUOUS
10
161.458
20
-87.0424
11
161.44
21
-87
0
LINE
8
BLACK
6
CONTINUOUS
10
161.44
20
-87
11
161.44
21
-73
0
LINE
8
BLACK
6
CONTINUOUS
10
161.44
20
-73
11
161.458
21
-72.9576
0
LINE
8
BLACK
6
CONTINUOUS
10
161.458
20
-72.9576
11
161.5
21
-72.94
0
LINE
8
BLACK
6
CONTINUOUS
10
161.5
20
-72.94
11
175.5
21
-72.94
0
LINE
8
BLACK
6
CONTINUOUS
10
175.5
20
-72.94
11
175.542
21
-72.9576
0
LINE
8
BLACK
6
CONTINUOUS
10
175.542
20
-72.9576
11
175.56
21
-73
0
LINE
8
BLACK
6
CONTINUOUS
10
175.56
20
-73
11
175.56
21
-87
0
LINE
8
BLACK
6
CONTINUOUS
10
175.56
20
-87
11
175.542
21
-87.0424
0
LINE
8
BLACK
6
CONTINUOUS
10
175.542
20
-87.0424
11
175.5
21
-87.06
0
LINE
8
BLACK
6
CONTINUOUS
10
175.5
20
-87.06
11
161.5
21
-87.06
0
LINE
8
BLACK
6
CONTINUOUS
10
161.5
20
-87.06
11
161.458
21
-87.0424
0
LINE
8
BLACK
6
CONTINUOUS
10
161.56
20
-73.06
11
161.56
21
-86.94
0
LINE
8
BLACK
6
CONTINUOUS
10
161.56
20
-86.94
11
175.44
21
-86.94
0
LINE
8
BLACK
6
CONTINUOUS
10
175.44
20
-86.94
11
175.44
21
-73.06
0
LINE
8
BLACK
6
CONTINUOUS
10
175.44
20
-73.06
11
161.56
21
-73.06
0
LINE
8
BLACK
6
CONTINUOUS
10
142.458
20
-85.0424
11
142.44
21
-85
0
LINE
8
BLACK
6
CONTINUOUS
10
142.44
20
-85
11
142.44
21
-71
0
LINE
8
BLACK
6
CONTINUOUS
10
142.44
20
-71
11
142.458
21
-70.9576
0
LINE
8
BLACK
6
CONTINUOUS
10
142.458
20
-70.9576
11
142.5
21
-70.94
0
LINE
8
BLACK
6
CONTINUOUS
10
142.5
20
-70.94
11
156.5
21
-70.94
0
LINE
8
BLACK
6
CONTINUOUS
10
156.5
20
-70.94
11
156.542
21
-70.9576
0
LINE
8
BLACK
6
CONTINUOUS
10
156.542
20
-70.9576
11
156.56
21
-71
0
LINE
8
BLACK
6
CONTINUOUS
10
156.56
20
-71
11
156.56
21
-85
0
LINE
8
BLACK
6
CONTINUOUS
10
156.56
20
-85
11
156.542
21
-85.0424
0
LINE
8
BLACK
6
CONTINUOUS
10
156.542
20
-85.0424
11
156.5
21
-85.06
0
LINE
8
BLACK
6
CONTINUOUS
10
156.5
20
-85.06
11
142.5
21
-85.06
0
LINE
8
BLACK
6
CONTINUOUS
10
142.5
20
-85.06
11
142.458
21
-85.0424
0
LINE
8
BLACK
6
CONTINUOUS
10
142.56
20
-71.06
11
142.56
21
-84.94
0
LINE
8
BLACK
6
CONTINUOUS
10
142.56
20
-84.94
11
156.44
21
-84.94
0
LINE
8
BLACK
6
CONTINUOUS
10
156.44
20
-84.94
11
156.44
21
-71.06
0
LINE
8
BLACK
6
CONTINUOUS
10
156.44
20
-71.06
11
142.56
21
-71.06
0
LINE
8
BLACK
6
CONTINUOUS
10
104.458
20
-84.5424
11
104.44
21
-84.5
0
LINE
8
BLACK
6
CONTINUOUS
10
104.44
20
-84.5
11
104.44
21
-70.5
0
LINE
8
BLACK
6
CONTINUOUS
10
104.44
20
-70.5
11
104.458
21
-70.4576
0
LINE
8
BLACK
6
CONTINUOUS
10
104.458
20
-70.4576
11
104.5
21
-70.44
0
LINE
8
BLACK
6
CONTINUOUS
10
104.5
20
-70.44
11
118.5
21
-70.44
0
LINE
8
BLACK
6
CONTINUOUS
10
118.5
20
-70.44
11
118.542
21
-70.4576
0
LINE
8
BLACK
6
CONTINUOUS
10
118.542
20
-70.4576
11
118.56
21
-70.5
0
LINE
8
BLACK
6
CONTINUOUS
10
118.56
20
-70.5
11
118.56
21
-84.5
0
LINE
8
BLACK
6
CONTINUOUS
10
118.56
20
-84.5
11
118.542
21
-84.5424
0
LINE
8
BLACK
6
CONTINUOUS
10
118.542
20
-84.5424
11
118.5
21
-84.56
0
LINE
8
BLACK
6
CONTINUOUS
10
118.5
20
-84.56
11
104.5
21
-84.56
0
LINE
8
BLACK
6
CONTINUOUS
10
104.5
20
-84.56
11
104.458
21
-84.5424
0
LINE
8
BLACK
6
CONTINUOUS
10
104.56
20
-70.56
11
104.56
21
-84.44
0
LINE
8
BLACK
6
CONTINUOUS
10
104.56
20
-84.44
11
118.44
21
-84.44
0
LINE
8
BLACK
6
CONTINUOUS
10
118.44
20
-84.44
11
118.44
21
-70.56
0
LINE
8
BLACK
6
CONTINUOUS
10
118.44
20
-70.56
11
104.56
21
-70.56
0
LINE
8
BLACK
6
CONTINUOUS
10
123.458
20
-80.5424
11
123.44
21
-80.5
0
LINE
8
BLACK
6
CONTINUOUS
10
123.44
20
-80.5
11
123.44
21
-66.5
0
LINE
8
BLACK
6
CONTINUOUS
10
123.44
20
-66.5
11
123.458
21
-66.4576
0
LINE
8
BLACK
6
CONTINUOUS
10
123.458
20
-66.4576
11
123.5
21
-66.44
0
LINE
8
BLACK
6
CONTINUOUS
10
123.5
20
-66.44
11
137.5
21
-66.44
0
LINE
8
BLACK
6
CONTINUOUS
10
137.5
20
-66.44
11
137.542
21
-66.4576
0
LINE
8
BLACK
6
CONTINUOUS
10
137.542
20
-66.4576
11
137.56
21
-66.5
0
LINE
8
BLACK
6
CONTINUOUS
10
137.56
20
-66.5
11
137.56
21
-80.5
0
LINE
8
BLACK
6
CONTINUOUS
10
137.56
20
-80.5
11
137.542
21
-80.5424
0
LINE
8
BLACK
6
CONTINUOUS
10
137.542
20
-80.5424
11
137.5
21
-80.56
0
LINE
8
BLACK
6
CONTINUOUS
10
137.5
20
-80.56
11
123.5
21
-80.56
0
LINE
8
BLACK
6
CONTINUOUS
10
123.5
20
-80.56
11
123.458
21
-80.5424
0
LINE
8
BLACK
6
CONTINUOUS
10
123.56
20
-66.56
11
123.56
21
-80.44
0
LINE
8
BLACK
6
CONTINUOUS
10
123.56
20
-80.44
11
137.44
21
-80.44
0
LINE
8
BLACK
6
CONTINUOUS
10
137.44
20
-80.44
11
137.44
21
-66.56
0
LINE
8
BLACK
6
CONTINUOUS
10
137.44
20
-66.56
11
123.56
21
-66.56
0
LINE
8
BLACK
6
CONTINUOUS
10
95.7018
20
-62.7706
11
95.723
21
-62.8113
0
LINE
8
BLACK
6
CONTINUOUS
10
95.723
20
-62.8113
11
96.9432
21
-76.758
0
LINE
8
BLACK
6
CONTINUOUS
10
96.9432
20
-76.758
11
96.9399
21
-76.7685
0
LINE
8
BLACK
6
CONTINUOUS
10
96.9399
20
-76.7685
11
96.9294
21
-76.8018
0
LINE
8
BLACK
6
CONTINUOUS
10
96.9294
20
-76.8018
11
96.8887
21
-76.823
0
LINE
8
BLACK
6
CONTINUOUS
10
96.8887
20
-76.823
11
82.942
21
-78.0432
0
LINE
8
BLACK
6
CONTINUOUS
10
82.942
20
-78.0432
11
82.8982
21
-78.0294
0
LINE
8
BLACK
6
CONTINUOUS
10
82.8982
20
-78.0294
11
82.877
21
-77.9887
0
LINE
8
BLACK
6
CONTINUOUS
10
82.877
20
-77.9887
11
81.6568
21
-64.042
0
LINE
8
BLACK
6
CONTINUOUS
10
81.6568
20
-64.042
11
81.6706
21
-63.9982
0
LINE
8
BLACK
6
CONTINUOUS
10
81.6706
20
-63.9982
11
81.7113
21
-63.977
0
LINE
8
BLACK
6
CONTINUOUS
10
81.7113
20
-63.977
11
95.658
21
-62.7568
0
LINE
8
BLACK
6
CONTINUOUS
10
95.658
20
-62.7568
11
95.658
21
-62.7568
0
LINE
8
BLACK
6
CONTINUOUS
10
95.658
20
-62.7568
11
95.7018
21
-62.7706
0
LINE
8
BLACK
6
CONTINUOUS
10
81.7815
20
-64.0913
11
82.9913
21
-77.9185
0
LINE
8
BLACK
6
CONTINUOUS
10
82.9913
20
-77.9185
11
96.8185
21
-76.7087
0
LINE
8
BLACK
6
CONTINUOUS
10
96.8185
20
-76.7087
11
95.6087
21
-62.8815
0
LINE
8
BLACK
6
CONTINUOUS
10
95.6087
20
-62.8815
11
81.7815
21
-64.0913
0
LINE
8
BLACK
6
CONTINUOUS
10
161.458
20
-68.0424
11
161.44
21
-68
0
LINE
8
BLACK
6
CONTINUOUS
10
161.44
20
-68
11
161.44
21
-54
0
LINE
8
BLACK
6
CONTINUOUS
10
161.44
20
-54
11
161.458
21
-53.9576
0
LINE
8
BLACK
6
CONTINUOUS
10
161.458
20
-53.9576
11
161.5
21
-53.94
0
LINE
8
BLACK
6
CONTINUOUS
10
161.5
20
-53.94
11
175.5
21
-53.94
0
LINE
8
BLACK
6
CONTINUOUS
10
175.5
20
-53.94
11
175.542
21
-53.9576
0
LINE
8
BLACK
6
CONTINUOUS
10
175.542
20
-53.9576
11
175.56
21
-54
0
LINE
8
BLACK
6
CONTINUOUS
10
175.56
20
-54
11
175.56
21
-68
0
LINE
8
BLACK
6
CONTINUOUS
10
175.56
20
-68
11
175.542
21
-68.0424
0
LINE
8
BLACK
6
CONTINUOUS
10
175.542
20
-68.0424
11
175.5
21
-68.06
0
LINE
8
BLACK
6
CONTINUOUS
10
175.5
20
-68.06
11
161.5
21
-68.06
0
LINE
8
BLACK
6
CONTINUOUS
10
161.5
20
-68.06
11
161.458
21
-68.0424
0
LINE
8
BLACK
6
CONTINUOUS
10
161.56
20
-54.06
11
161.56
21
-67.94
0
LINE
8
BLACK
6
CONTINUOUS
10
161.56
20
-67.94
11
175.44
21
-67.94
0
LINE
8
BLACK
6
CONTINUOUS
10
175.44
20
-67.94
11
175.44
21
-54.06
0
LINE
8
BLACK
6
CONTINUOUS
10
175.44
20
-54.06
11
161.56
21
-54.06
0
LINE
8
BLACK
6
CONTINUOUS
10
142.458
20
-66.0424
11
142.44
21
-66
0
LINE
8
BLACK
6
CONTINUOUS
10
142.44
20
-66
11
142.44
21
-52
0
LINE
8
BLACK
6
CONTINUOUS
10
142.44
20
-52
11
142.458
21
-51.9576
0
LINE
8
BLACK
6
CONTINUOUS
10
142.458
20
-51.9576
11
142.5
21
-51.94
0
LINE
8
BLACK
6
CONTINUOUS
10
142.5
20
-51.94
11
156.5
21
-51.94
0
LINE
8
BLACK
6
CONTINUOUS
10
156.5
20
-51.94
11
156.542
21
-51.9576
0
LINE
8
BLACK
6
CONTINUOUS
10
156.542
20
-51.9576
11
156.56
21
-52
0
LINE
8
BLACK
6
CONTINUOUS
10
156.56
20
-52
11
156.56
21
-66
0
LINE
8
BLACK
6
CONTINUOUS
10
156.56
20
-66
11
156.542
21
-66.0424
0
LINE
8
BLACK
6
CONTINUOUS
10
156.542
20
-66.0424
11
156.5
21
-66.06
0
LINE
8
BLACK
6
CONTINUOUS
10
156.5
20
-66.06
11
142.5
21
-66.06
0
LINE
8
BLACK
6
CONTINUOUS
10
142.5
20
-66.06
11
142.458
21
-66.0424
0
LINE
8
BLACK
6
CONTINUOUS
10
142.56
20
-52.06
11
142.56
21
-65.94
0
LINE
8
BLACK
6
CONTINUOUS
10
142.56
20
-65.94
11
156.44
21
-65.94
0
LINE
8
BLACK
6
CONTINUOUS
10
156.44
20
-65.94
11
156.44
21
-52.06
0
LINE
8
BLACK
6
CONTINUOUS
10
156.44
20
-52.06
11
142.56
21
-52.06
0
LINE
8
BLACK
6
CONTINUOUS
10
104.458
20
-65.5424
11
104.44
21
-65.5
0
LINE
8
BLACK
6
CONTINUOUS
10
104.44
20
-65.5
11
104.44
21
-51.5
0
LINE
8
BLACK
6
CONTINUOUS
10
104.44
20
-51.5
11
104.458
21
-51.4576
0
LINE
8
BLACK
6
CONTINUOUS
10
104.458
20
-51.4576
11
104.5
21
-51.44
0
LINE
8
BLACK
6
CONTINUOUS
10
104.5
20
-51.44
11
118.5
21
-51.44
0
LINE
8
BLACK
6
CONTINUOUS
10
118.5
20
-51.44
11
118.542
21
-51.4576
0
LINE
8
BLACK
6
CONTINUOUS
10
118.542
20
-51.4576
11
118.56
21
-51.5
0
LINE
8
BLACK
6
CONTINUOUS
10
118.56
20
-51.5
11
118.56
21
-65.5
0
LINE
8
BLACK
6
CONTINUOUS
10
118.56
20
-65.5
11
118.542
21
-65.5424
0
LINE
8
BLACK
6
CONTINUOUS
10
118.542
20
-65.5424
11
118.5
21
-65.56
0
LINE
8
BLACK
6
CONTINUOUS
10
118.5
20
-65.56
11
104.5
21
-65.56
0
LINE
8
BLACK
6
CONTINUOUS
10
104.5
20
-65.56
11
104.458
21
-65.5424
0
LINE
8
BLACK
6
CONTINUOUS
10
104.56
20
-51.56
11
104.56
21
-65.44
0
LINE
8
BLACK
6
CONTINUOUS
10
104.56
20
-65.44
11
118.44
21
-65.44
0
LINE
8
BLACK
6
CONTINUOUS
10
118.44
20
-65.44
11
118.44
21
-51.56
0
LINE
8
BLACK
6
CONTINUOUS
10
118.44
20
-51.56
11
104.56
21
-51.56
0
LINE
8
BLACK
6
CONTINUOUS
10
123.458
20
-61.5424
11
123.44
21
-61.5
0
LINE
8
BLACK
6
CONTINUOUS
10
123.44
20
-61.5
11
123.44
21
-47.5
0
LINE
8
BLACK
6
CONTINUOUS
10
123.44
20
-47.5
11
123.458
21
-47.4576
0
LINE
8
BLACK
6
CONTINUOUS
10
123.458
20
-47.4576
11
123.5
21
-47.44
0
LINE
8
BLACK
6
CONTINUOUS
10
123.5
20
-47.44
11
137.5
21
-47.44
0
LINE
8
BLACK
6
CONTINUOUS
10
137.5
20
-47.44
11
137.542
21
-47.4576
0
LINE
8
BLACK
6
CONTINUOUS
10
137.542
20
-47.4576
11
137.56
21
-47.5
0
LINE
8
BLACK
6
CONTINUOUS
10
137.56
20
-47.5
11
137.56
21
-61.5
0
LINE
8
BLACK
6
CONTINUOUS
10
137.56
20
-61.5
11
137.542
21
-61.5424
0
LINE
8
BLACK
6
CONTINUOUS
10
137.542
20
-61.5424
11
137.5
21
-61.56
0
LINE
8
BLACK
6
CONTINUOUS
10
137.5
20
-61.56
11
123.5
21
-61.56
0
LINE
8
BLACK
6
CONTINUOUS
10
123.5
20
-61.56
11
123.458
21
-61.5424
0
LINE
8
BLACK
6
CONTINUOUS
10
123.56
20
-47.56
11
123.56
21
-61.44
0
LINE
8
BLACK
6
CONTINUOUS
10
123.56
20
-61.44
11
137.44
21
-61.44
0
LINE
8
BLACK
6
CONTINUOUS
10
137.44
20
-61.44
11
137.44
21
-47.56
0
LINE
8
BLACK
6
CONTINUOUS
10
137.44
20
-47.56
11
123.56
21
-47.56
  0
ENDSEC
  0
EOF
